<?xml version="1.0" encoding="UTF-8"?>
<svg xmlns="http://www.w3.org/2000/svg" xmlns:xlink="http://www.w3.org/1999/xlink" width="0" height="0">
<symbol id="checkmark-down"  viewBox="0 0 10 6"  xmlns="http://www.w3.org/2000/svg">
<path d="M1 1L5 5L9 1"  stroke-linecap="round"/>
</symbol>

<symbol id="checkmark-left" width="19" height="18" viewBox="0 0 19 18">
<path fill-rule="evenodd" clip-rule="evenodd" d="M13.2185 0.914376C12.895 0.655619 12.4231 0.70806 12.1643 1.03151L6.16432 8.53151C5.94519 8.80542 5.94519 9.19463 6.16432 9.46855L12.1643 16.9685C12.4231 17.292 12.895 17.3444 13.2185 17.0857C13.5419 16.8269 13.5944 16.355 13.3356 16.0315L7.71044 9.00003L13.3356 1.96855C13.5944 1.6451 13.5419 1.17313 13.2185 0.914376Z"/>
</symbol>

<symbol id="checkmark-right" width="19" height="19" viewBox="0 0 19 19">
<g clip-path="url(#clip0_898_12344)">
<path fill-rule="evenodd" clip-rule="evenodd" d="M5.78151 1.09211C6.10495 0.833353 6.57692 0.885794 6.83568 1.20924L12.8357 8.70924C13.0548 8.98315 13.0548 9.37237 12.8357 9.64628L6.83568 17.1463C6.57692 17.4697 6.10495 17.5222 5.78151 17.2634C5.45806 17.0047 5.40562 16.5327 5.66438 16.2092L11.2896 9.17776L5.66438 2.14628C5.40562 1.82284 5.45806 1.35087 5.78151 1.09211Z"/>
</g>
<defs>
<clipPath>
<rect width="18" height="18" transform="translate(0.25 0.177734)"/>
</clipPath>
</defs>
</symbol>

<symbol id="map" width="14" height="15" viewBox="0 0 14 15">
<path d="M6.48615 14.0906C2.70234 8.33092 2 7.73981 2 5.62305C2 2.72354 4.23857 0.373047 7 0.373047C9.76143 0.373047 12 2.72354 12 5.62305C12 7.73981 11.2977 8.33092 7.51385 14.0906C7.26555 14.4672 6.73443 14.4672 6.48615 14.0906ZM7 7.81054C8.1506 7.81054 9.08333 6.83117 9.08333 5.62305C9.08333 4.41492 8.1506 3.43555 7 3.43555C5.8494 3.43555 4.91667 4.41492 4.91667 5.62305C4.91667 6.83117 5.8494 7.81054 7 7.81054Z"/>
</symbol>

<symbol id="Phone" width="14" height="15" viewBox="0 0 14 15">
<path d="M13.6007 10.2659L10.5382 8.95342C10.4074 8.89766 10.262 8.88591 10.1239 8.91994C9.98579 8.95397 9.8625 9.03193 9.77256 9.1421L8.41628 10.7992C6.28774 9.79557 4.57475 8.08258 3.57116 5.95403L5.22822 4.59776C5.3386 4.50798 5.41673 4.38468 5.45077 4.24653C5.48482 4.10838 5.47292 3.9629 5.41689 3.83212L4.10437 0.769564C4.04288 0.628579 3.93412 0.51347 3.79684 0.444085C3.65957 0.3747 3.50239 0.355388 3.3524 0.389479L0.508603 1.04574C0.363998 1.07913 0.234981 1.16055 0.14261 1.27671C0.0502383 1.39287 -3.3311e-05 1.53691 1.65602e-08 1.68532C1.65602e-08 8.69912 5.68487 14.373 12.6877 14.373C12.8362 14.3731 12.9803 14.3229 13.0965 14.2305C13.2127 14.1381 13.2942 14.0091 13.3276 13.8644L13.9838 11.0206C14.0177 10.8699 13.998 10.7121 13.9281 10.5744C13.8581 10.4366 13.7424 10.3276 13.6007 10.2659Z"/>
</symbol>

<symbol id="post" width="14" height="15" viewBox="0 0 14 15">
<path d="M13.7348 5.50534C13.8414 5.41654 14 5.49961 14 5.63997V11.498C14 12.2572 13.4121 12.873 12.6875 12.873H1.3125C0.587891 12.873 0 12.2572 0 11.498V5.64284C0 5.49961 0.155859 5.4194 0.265234 5.5082C0.877734 6.00664 1.68984 6.63971 4.47891 8.76237C5.05586 9.20352 6.0293 10.1316 7 10.1259C7.97617 10.1345 8.96875 9.18633 9.52383 8.76237C12.3129 6.63971 13.1223 6.00378 13.7348 5.50534ZM7 9.20638C7.63438 9.21784 8.54766 8.36992 9.00703 8.02044C12.6355 5.26185 12.9117 5.02122 13.7484 4.33372C13.907 4.20482 14 4.0043 14 3.79232V3.24805C14 2.48893 13.4121 1.87305 12.6875 1.87305H1.3125C0.587891 1.87305 0 2.48893 0 3.24805V3.79232C0 4.0043 0.0929687 4.20195 0.251563 4.33372C1.08828 5.01836 1.36445 5.26185 4.99297 8.02044C5.45234 8.36992 6.36562 9.21784 7 9.20638Z"/>
</symbol>

<symbol id="translate" width="14" height="12" viewBox="0 0 14 12">
<path d="M1.00024 1.72227H5.30794M5.30794 1.72227H8.07717M5.30794 1.72227V0.5M9.61563 1.72227H8.07717M8.07717 1.72227C7.57224 3.3938 6.51483 4.97387 5.30794 6.36255M5.30794 6.36255C4.30855 7.5124 3.20665 8.53098 2.23101 9.36145M5.30794 6.36255C4.69255 5.69464 3.70794 4.35015 3.46178 3.86124M5.30794 6.36255L7.15409 8.13918" stroke-width="0.977823" stroke-linecap="round" stroke-linejoin="round"/>
<path d="M8.0769 11.5004L8.78023 9.667M8.78023 9.667L10.5384 5.0835L12.2967 9.667M8.78023 9.667H12.2967M13 11.5004L12.2967 9.667" stroke-width="0.977823" stroke-linecap="round" stroke-linejoin="round"/>
</symbol>

<symbol id="paper_clip" width="24" height="25" viewBox="0 0 24 25">
<path d="M4.06079 24.0974C3.04505 24.0974 2.06981 23.6771 1.29256 22.8991C-0.430789 21.1701 -0.430789 18.358 1.29217 16.6302L14.7301 2.36036C16.8267 0.260362 20.0383 0.449058 22.382 2.79578C23.4322 3.84784 24.0215 5.36453 23.9994 6.95872C23.9773 8.53608 23.3611 10.0456 22.3078 11.1007L12.1519 21.9125C11.8693 22.2155 11.3953 22.2293 11.0935 21.9451C10.7925 21.6606 10.7779 21.1859 11.0617 20.8841L21.233 10.0557C22.0286 9.25864 22.485 8.12794 22.5018 6.93773C22.5186 5.74679 22.0884 4.62395 21.3232 3.8568C19.8855 2.41612 17.5447 1.66171 15.8045 3.40603L2.36702 17.6758C1.21162 18.8342 1.212 20.6946 2.35204 21.8376C2.88666 22.3726 3.52126 22.6332 4.19705 22.5924C4.86573 22.5516 5.55312 22.2086 6.13269 21.6276L16.8247 10.2474C17.2122 9.85911 17.991 8.90739 17.1984 8.11291C16.7495 7.66326 16.4342 7.69097 16.3305 7.69958C16.0344 7.72579 15.6884 7.93058 15.3294 8.29075L7.28171 16.8499C6.99755 17.152 6.52318 17.1666 6.22327 16.8817C5.92188 16.5979 5.90802 16.1224 6.19144 15.8214L14.2538 7.24618C14.8876 6.60933 15.5357 6.26414 16.1954 6.20498C16.7102 6.15928 17.4758 6.269 18.2568 7.05224C19.416 8.2136 19.2718 9.91714 17.8993 11.2927L7.20723 22.6721C6.35361 23.5287 5.32286 24.0263 4.28878 24.0899C4.21277 24.0952 4.13677 24.0974 4.06077 24.0974L4.06079 24.0974Z"/>
</symbol>

</svg>
