<?xml version="1.0" encoding="UTF-8"?>
<svg xmlns="http://www.w3.org/2000/svg" xmlns:xlink="http://www.w3.org/1999/xlink" width="0" height="0">
<symbol id="logo-grey" width="123" height="26" viewBox="0 0 123 26" >
<path d="M16.3652 17.0135C14.5029 18.8582 12.2366 19.7806 9.56612 19.7806C6.89569 19.7806 4.62933 18.8582 2.76706 17.0135C0.922353 15.1512 0 12.8761 0 10.1881C0 7.5001 0.922353 5.23375 2.76706 3.38904C4.62933 1.52677 6.89569 0.595632 9.56612 0.595632C12.2366 0.595632 14.5029 1.52677 16.3652 3.38904C18.2275 5.23375 19.1586 7.5001 19.1586 10.1881C19.1586 12.8761 18.2275 15.1512 16.3652 17.0135ZM5.3233 14.5363C6.46526 15.6607 7.87953 16.2229 9.56612 16.2229C11.2527 16.2229 12.667 15.6607 13.8089 14.5363C14.9509 13.3944 15.5219 11.945 15.5219 10.1881C15.5219 8.43124 14.9509 6.98183 13.8089 5.83987C12.667 4.69791 11.2527 4.12693 9.56612 4.12693C7.87953 4.12693 6.46526 4.69791 5.3233 5.83987C4.18133 6.98183 3.61035 8.43124 3.61035 10.1881C3.61035 11.945 4.18133 13.3944 5.3233 14.5363Z"/>
<path d="M28.8826 5.86622C30.3232 5.86622 31.5091 6.34936 32.4403 7.31563C33.389 8.28191 33.8633 9.61712 33.8633 11.3213V19.4116H30.4638V11.7429C30.4638 10.8645 30.2266 10.1969 29.7523 9.7401C29.2779 9.26575 28.6454 9.02857 27.8549 9.02857C26.9764 9.02857 26.2737 9.30089 25.7466 9.84552C25.2196 10.3901 24.956 11.2071 24.956 12.2963V19.4116H21.5565V6.23516H24.956V7.71093C25.7818 6.48112 27.0906 5.86622 28.8826 5.86622Z"/>
<path d="M39.6385 14.2201C40.0953 15.8716 41.3339 16.6973 43.3543 16.6973C44.6544 16.6973 45.6382 16.2581 46.3058 15.3796L49.0465 16.9608C47.7465 18.8407 45.8315 19.7806 43.3016 19.7806C41.1231 19.7806 39.375 19.1217 38.0574 17.8041C36.7397 16.4865 36.0809 14.8262 36.0809 12.8234C36.0809 10.8381 36.7309 9.18669 38.031 7.86904C39.3311 6.53383 41.0001 5.86622 43.0381 5.86622C44.9706 5.86622 46.5606 6.53383 47.8079 7.86904C49.0729 9.20426 49.7054 10.8557 49.7054 12.8234C49.7054 13.2626 49.6614 13.7282 49.5736 14.2201H39.6385ZM39.5858 11.5848H46.3058C46.1126 10.6888 45.7085 10.0212 45.0936 9.58198C44.4963 9.14277 43.8111 8.92316 43.0381 8.92316C42.1245 8.92316 41.369 9.16034 40.7717 9.63469C40.1744 10.0915 39.7791 10.7415 39.5858 11.5848Z"/>
<path d="M62.4616 15.933H69.4979V19.4116H58.8249V0.964573H62.4616V15.933Z"/>
<path d="M82.3748 17.7778C81.022 19.113 79.3705 19.7806 77.4204 19.7806C75.4703 19.7806 73.8188 19.113 72.4661 17.7778C71.1308 16.425 70.4632 14.7735 70.4632 12.8234C70.4632 10.8733 71.1308 9.23061 72.4661 7.8954C73.8188 6.54261 75.4703 5.86622 77.4204 5.86622C79.3705 5.86622 81.022 6.54261 82.3748 7.8954C83.7276 9.23061 84.404 10.8733 84.404 12.8234C84.404 14.7735 83.7276 16.425 82.3748 17.7778ZM74.8642 15.4323C75.5494 16.1175 76.4014 16.4601 77.4204 16.4601C78.4394 16.4601 79.2915 16.1175 79.9767 15.4323C80.6618 14.7472 81.0044 13.8775 81.0044 12.8234C81.0044 11.7693 80.6618 10.8996 79.9767 10.2145C79.2915 9.52928 78.4394 9.18669 77.4204 9.18669C76.4014 9.18669 75.5494 9.52928 74.8642 10.2145C74.1966 10.8996 73.8628 11.7693 73.8628 12.8234C73.8628 13.8775 74.1966 14.7472 74.8642 15.4323Z"/>
<path d="M96.8887 6.23516H100.209V18.7792C100.209 20.8171 99.5327 22.3719 98.1799 23.4436C96.8447 24.5153 95.2284 25.0512 93.331 25.0512C91.9079 25.0512 90.6518 24.7788 89.5625 24.2342C88.4908 23.6896 87.6651 22.8902 87.0854 21.8361L89.9842 20.1759C90.6518 21.4057 91.8025 22.0206 93.4364 22.0206C94.5081 22.0206 95.3514 21.7395 95.9663 21.1773C96.5812 20.6151 96.8887 19.8157 96.8887 18.7792V17.3561C95.8872 18.6913 94.4818 19.3589 92.6722 19.3589C90.8099 19.3589 89.2463 18.7089 87.9814 17.4088C86.734 16.0912 86.1103 14.4924 86.1103 12.6126C86.1103 10.7503 86.7428 9.16034 88.0077 7.84269C89.2727 6.52504 90.8275 5.86622 92.6722 5.86622C94.4818 5.86622 95.8872 6.53383 96.8887 7.86904V6.23516ZM90.5376 15.2215C91.2403 15.8891 92.1276 16.2229 93.1992 16.2229C94.2709 16.2229 95.1494 15.8891 95.8345 15.2215C96.5373 14.5363 96.8887 13.6667 96.8887 12.6126C96.8887 11.576 96.5373 10.7239 95.8345 10.0563C95.1494 9.37116 94.2709 9.02857 93.1992 9.02857C92.1276 9.02857 91.2403 9.37116 90.5376 10.0563C89.8524 10.7239 89.5098 11.576 89.5098 12.6126C89.5098 13.6667 89.8524 14.5363 90.5376 15.2215Z"/>
<path d="M104.978 4.65399C104.416 4.65399 103.924 4.45195 103.503 4.04787C103.099 3.62622 102.897 3.1343 102.897 2.5721C102.897 2.00991 103.099 1.51799 103.503 1.09634C103.924 0.674691 104.416 0.463867 104.978 0.463867C105.558 0.463867 106.05 0.674691 106.454 1.09634C106.876 1.51799 107.087 2.00991 107.087 2.5721C107.087 3.1343 106.876 3.62622 106.454 4.04787C106.05 4.45195 105.558 4.65399 104.978 4.65399ZM103.292 19.4116V6.23516H106.691V19.4116H103.292Z"/>
<path d="M116.075 19.7806C114.09 19.7806 112.429 19.113 111.094 17.7778C109.776 16.4425 109.118 14.7911 109.118 12.8234C109.118 10.8557 109.776 9.20426 111.094 7.86904C112.429 6.53383 114.09 5.86622 116.075 5.86622C117.357 5.86622 118.526 6.17367 119.58 6.78857C120.634 7.40347 121.433 8.2292 121.978 9.26575L119.053 10.9787C118.789 10.4341 118.385 10.0036 117.84 9.6874C117.313 9.37116 116.716 9.21304 116.048 9.21304C115.029 9.21304 114.186 9.55563 113.519 10.2408C112.851 10.9084 112.517 11.7693 112.517 12.8234C112.517 13.8599 112.851 14.7208 113.519 15.406C114.186 16.0736 115.029 16.4074 116.048 16.4074C116.734 16.4074 117.34 16.2581 117.867 15.9594C118.411 15.6432 118.816 15.2127 119.079 14.6681L122.031 16.3547C121.451 17.3912 120.634 18.2257 119.58 18.8582C118.526 19.4731 117.357 19.7806 116.075 19.7806Z"/>
</symbol>

<symbol id="logo-white" width="50" height="20" viewBox="0 0 50 20" >
<path d="M7.97753 19.781C6.15039 19.781 4.61314 19.3769 3.36577 18.5687C2.11839 17.743 1.23996 16.6274 0.730469 15.2219L3.84012 13.4036C4.56043 15.2834 5.9747 16.2233 8.08294 16.2233C9.10192 16.2233 9.84859 16.0388 10.3229 15.6699C10.7973 15.301 11.0345 14.8354 11.0345 14.2732C11.0345 13.6232 10.7446 13.1225 10.1648 12.7711C9.58506 12.4021 8.54851 12.0068 7.05518 11.5852C6.22945 11.3392 5.5267 11.0933 4.94694 10.8473C4.38474 10.6014 3.81377 10.2763 3.234 9.87226C2.67181 9.45061 2.24137 8.92355 1.9427 8.29108C1.64403 7.65861 1.4947 6.92073 1.4947 6.07743C1.4947 4.40842 2.08326 3.08198 3.26035 2.09814C4.45502 1.09673 5.88686 0.596022 7.55588 0.596022C9.04921 0.596022 10.3581 0.964964 11.4825 1.70285C12.6244 2.42316 13.5116 3.43336 14.1441 4.73343L11.0872 6.49908C10.3493 4.9179 9.17219 4.12732 7.55588 4.12732C6.80043 4.12732 6.2031 4.303 5.76389 4.65438C5.34224 4.98818 5.13141 5.4274 5.13141 5.97202C5.13141 6.55179 5.36859 7.02614 5.84295 7.39508C6.33487 7.74645 7.26599 8.13296 8.63635 8.55461C9.19854 8.7303 9.6202 8.87085 9.9013 8.97626C10.2 9.0641 10.5953 9.21343 11.0872 9.42426C11.5967 9.61751 11.9832 9.80198 12.2467 9.97767C12.5278 10.1534 12.844 10.3905 13.1954 10.6892C13.5468 10.9879 13.8103 11.2953 13.986 11.6116C14.1793 11.9278 14.3374 12.3143 14.4604 12.7711C14.6009 13.2103 14.6712 13.6934 14.6712 14.2205C14.6712 15.9247 14.0475 17.2774 12.8001 18.2788C11.5703 19.2803 9.96278 19.781 7.97753 19.781Z"/>
<path d="M28.4717 17.7781C27.1189 19.1134 25.4674 19.781 23.5173 19.781C21.5672 19.781 19.9158 19.1134 18.563 17.7781C17.2278 16.4254 16.5601 14.7739 16.5601 12.8238C16.5601 10.8737 17.2278 9.231 18.563 7.89579C19.9158 6.543 21.5672 5.86661 23.5173 5.86661C25.4674 5.86661 27.1189 6.543 28.4717 7.89579C29.8245 9.231 30.5008 10.8737 30.5008 12.8238C30.5008 14.7739 29.8245 16.4254 28.4717 17.7781ZM20.9611 15.4327C21.6463 16.1179 22.4983 16.4605 23.5173 16.4605C24.5363 16.4605 25.3884 16.1179 26.0736 15.4327C26.7587 14.7476 27.1013 13.8779 27.1013 12.8238C27.1013 11.7697 26.7587 10.9 26.0736 10.2148C25.3884 9.52967 24.5363 9.18708 23.5173 9.18708C22.4983 9.18708 21.6463 9.52967 20.9611 10.2148C20.2935 10.9 19.9597 11.7697 19.9597 12.8238C19.9597 13.8779 20.2935 14.7476 20.9611 15.4327Z"/>
<path d="M39.5696 3.86379C37.7073 3.72324 36.7762 4.46991 36.7762 6.10379V6.23555H39.5696V9.50332H36.7762V19.412H33.3766V9.50332H31.4792V6.23555H33.3766V6.10379C33.3766 4.24151 33.8949 2.82724 34.9314 1.86096C35.968 0.89469 37.514 0.473043 39.5696 0.596022V3.86379Z"/>
<path d="M49.0764 9.50332H46.0985V14.9847C46.0985 15.4415 46.2127 15.7753 46.4411 15.9861C46.6695 16.197 47.0033 16.3199 47.4425 16.3551C47.8817 16.3727 48.4263 16.3639 49.0764 16.3287V19.412C46.7398 19.6756 45.0883 19.4559 44.122 18.7532C43.1733 18.0505 42.699 16.7943 42.699 14.9847V9.50332H40.4063V6.23555H42.699V3.57391L46.0985 2.54614V6.23555H49.0764V9.50332Z"/>
</symbol>

</svg>
