<?xml version="1.0" encoding="UTF-8"?>
<svg xmlns="http://www.w3.org/2000/svg" xmlns:xlink="http://www.w3.org/1999/xlink" width="0" height="0">
<symbol id="android" viewBox="0 0 37 36" >
<path d="M7.67068 22.7171C7.67068 23.7604 6.84845 24.607 5.83534 24.607C4.82223 24.607 4 23.7604 4 22.7171V14.2126C4 13.1694 4.82223 12.3227 5.83534 12.3227C6.84845 12.3227 7.67068 13.1694 7.67068 14.2126V22.7171Z"/>
<path d="M33.3655 22.7171C33.3655 23.7604 32.5433 24.607 31.5302 24.607C30.5171 24.607 29.6949 23.7604 29.6949 22.7171V14.2126C29.6949 13.1694 30.5171 12.3227 31.5302 12.3227C32.5433 12.3227 33.3655 13.1694 33.3655 14.2126V22.7171Z"/>
<path d="M15.0117 35C16.0248 35 16.847 34.1533 16.847 33.1101V28.3859H13.1763V33.1101C13.1763 34.1533 13.9986 35 15.0117 35Z"/>
<path fill-rule="evenodd" clip-rule="evenodd" d="M20.5178 28.3859V33.1101C20.5178 34.1533 21.3401 35 22.3532 35C23.3663 35 24.1885 34.1533 24.1885 33.1101V28.3859H20.5178Z"/>
<path d="M9.50579 12.3227V26.496C9.50579 27.5392 10.328 28.3859 11.3411 28.3859H13.1763H16.847H20.5178H24.1885H26.0238C27.037 28.3859 27.8592 27.5392 27.8592 26.496V12.3227H9.50579Z"/>
<path d="M18.6825 2.87182C17.3847 2.87182 16.2065 3.06318 15.1594 3.40957C14.5232 3.62001 13.9355 3.88768 13.3988 4.20444C11.0708 5.57828 9.70243 7.87544 9.50579 10.4314H27.8592C27.6587 7.8334 26.2484 5.50278 23.8503 4.13739C23.3024 3.82542 22.7029 3.56383 22.0545 3.36097C21.0456 3.04532 19.9183 2.87182 18.6825 2.87182ZM15.0118 8.16165C14.5053 8.16165 14.0941 7.73831 14.0941 7.2167C14.0941 6.69508 14.5053 6.27175 15.0118 6.27175C15.5184 6.27175 15.9295 6.69508 15.9295 7.2167C15.9295 7.73831 15.5184 8.16165 15.0118 8.16165ZM22.3532 8.16165C21.8457 8.16165 21.4355 7.73831 21.4355 7.2167C21.4355 6.69508 21.8457 6.27175 22.3532 6.27175C22.8606 6.27175 23.2708 6.69508 23.2708 7.2167C23.2708 7.73831 22.8606 8.16165 22.3532 8.16165Z"/>
<path d="M25.0021 2.51029C25.3075 2.07881 25.2053 1.48143 24.7738 1.176C24.3424 0.870576 23.745 0.97276 23.4396 1.40424L22.0545 3.36097C22.7029 3.56383 23.3024 3.82542 23.8503 4.13739L25.0021 2.51029Z"/>
<path d="M13.9971 1.54838C13.7171 1.1 13.1266 0.963507 12.6782 1.24352C12.2298 1.52354 12.0933 2.11402 12.3733 2.56241L13.3988 4.20444C13.9355 3.88768 14.5232 3.62001 15.1594 3.40957L13.9971 1.54838Z"/>
</symbol>

<symbol id="apple" viewBox="0 0 36 36">
<path d="M27.6837 18.7244C27.6685 15.9387 28.9286 13.836 31.479 12.2875C30.052 10.2457 27.8962 9.12224 25.0497 8.90211C22.3551 8.68957 19.4099 10.4734 18.332 10.4734C17.1934 10.4734 14.5822 8.97802 12.5327 8.97802C8.29716 9.04633 3.7959 12.3559 3.7959 19.0888C3.7959 21.0775 4.16025 23.1321 4.88895 25.2524C5.86056 28.0382 9.36744 34.8698 13.0261 34.7559C14.939 34.7104 16.2901 33.3972 18.7799 33.3972C21.1937 33.3972 22.4461 34.7559 24.5791 34.7559C28.2682 34.7028 31.4411 28.4936 32.3671 25.7003C27.418 23.3699 27.6837 18.8687 27.6837 18.7244ZM23.3874 6.26056C25.4596 3.80118 25.2699 1.56193 25.2091 0.757324C23.3798 0.863594 21.262 2.00219 20.0551 3.40647C18.7267 4.90942 17.9449 6.76913 18.1119 8.86416C20.093 9.01597 21.8996 7.99882 23.3874 6.26056Z"/>
</symbol>

<symbol id="web"  viewBox="0 0 37 36" >
<path d="M27.9133 7.31016C27.9133 7.69728 27.5991 8.01146 27.212 8.01146C26.8249 8.01146 26.5107 7.69728 26.5107 7.31016C26.5107 6.92304 26.8249 6.60885 27.212 6.60885C27.5991 6.60885 27.9133 6.92304 27.9133 7.31016Z"/>
<path d="M24.4068 6.60885C24.0197 6.60885 23.7055 6.92304 23.7055 7.31016C23.7055 7.69728 24.0197 8.01146 24.4068 8.01146C24.7939 8.01146 25.1081 7.69728 25.1081 7.31016C25.1081 6.92304 24.7939 6.60885 24.4068 6.60885Z"/>
<path d="M21.6016 6.60885C21.2144 6.60885 20.9003 6.92304 20.9003 7.31016C20.9003 7.69728 21.2144 8.01146 21.6016 8.01146C21.9887 8.01146 22.3029 7.69728 22.3029 7.31016C22.3029 6.92304 21.9887 6.60885 21.6016 6.60885Z"/>
<path fill-rule="evenodd" clip-rule="evenodd" d="M27.9133 7.31016C27.9133 7.69728 27.5991 8.01146 27.212 8.01146C26.8249 8.01146 26.5107 7.69728 26.5107 7.31016C26.5107 6.92304 26.8249 6.60885 27.212 6.60885C27.5991 6.60885 27.9133 6.92304 27.9133 7.31016ZM24.4068 6.60885C24.0197 6.60885 23.7055 6.92304 23.7055 7.31016C23.7055 7.69728 24.0197 8.01146 24.4068 8.01146C24.7939 8.01146 25.1081 7.69728 25.1081 7.31016C25.1081 6.92304 24.7939 6.60885 24.4068 6.60885ZM21.6016 6.60885C21.2144 6.60885 20.9003 6.92304 20.9003 7.31016C20.9003 7.69728 21.2144 8.01146 21.6016 8.01146C21.9887 8.01146 22.3029 7.69728 22.3029 7.31016C22.3029 6.92304 21.9887 6.60885 21.6016 6.60885Z"/>
<path fill-rule="evenodd" clip-rule="evenodd" d="M1.47412 31.1545C1.47412 31.4336 1.69994 31.6595 1.97906 31.6595H24.7147C24.2589 31.3797 23.8372 31.0498 23.4574 30.6773C23.448 30.6681 23.4387 30.6588 23.4294 30.6496H2.484V10.6203H29.5249V18.6513C29.871 18.7063 30.2087 18.7865 30.5362 18.8898V4.50494C30.5362 4.22582 30.3104 4 30.0312 4H1.97906C1.69994 4 1.47412 4.22582 1.47412 4.50494V31.1545ZM29.5263 9.61044H2.484V5.00988H29.5263V9.61044Z"/>
<path fill-rule="evenodd" clip-rule="evenodd" d="M29.5249 10.6203H2.484V30.6496H23.4294C22.1381 29.3689 21.3384 27.5934 21.3384 25.6311C21.3384 21.7277 24.5028 18.5633 28.4063 18.5633C28.7869 18.5633 29.1606 18.5934 29.5249 18.6513V10.6203ZM4.77025 23.2438H15.9911V22.2339H4.77025V23.2438ZM4.77025 19.036H15.9911V18.0261H4.77025V19.036ZM4.76885 14.8281H15.9897V13.8183H4.76885V14.8281Z"/>
<path fill-rule="evenodd" clip-rule="evenodd" d="M27.9133 7.31016C27.9133 7.69728 27.5991 8.01146 27.212 8.01146C26.8249 8.01146 26.5107 7.69728 26.5107 7.31016C26.5107 6.92304 26.8249 6.60885 27.212 6.60885C27.5991 6.60885 27.9133 6.92304 27.9133 7.31016ZM24.4068 6.60885C24.0197 6.60885 23.7055 6.92304 23.7055 7.31016C23.7055 7.69728 24.0197 8.01146 24.4068 8.01146C24.7939 8.01146 25.1081 7.69728 25.1081 7.31016C25.1081 6.92304 24.7939 6.60885 24.4068 6.60885ZM21.6016 6.60885C21.2144 6.60885 20.9003 6.92304 20.9003 7.31016C20.9003 7.69728 21.2144 8.01146 21.6016 8.01146C21.9887 8.01146 22.3029 7.69728 22.3029 7.31016C22.3029 6.92304 21.9887 6.60885 21.6016 6.60885Z"/>
<path d="M26.5227 22.804H30.2899C29.9208 20.7064 29.171 19.2701 28.4063 19.2701C27.6416 19.2701 26.8917 20.7064 26.5227 22.804Z"/>
<path d="M22.7064 22.804H25.8009C26.0401 21.3642 26.4618 20.1728 27.0125 19.4232C25.1212 19.846 23.5478 21.111 22.7064 22.804Z"/>
<path d="M34.1061 22.804C33.2648 21.111 31.6914 19.846 29.8 19.4232C30.3507 20.1728 30.7725 21.3642 31.0117 22.804H34.1061Z"/>
<path d="M34.4054 27.7515C34.6398 27.0883 34.7673 26.3746 34.7673 25.6311C34.7673 24.8876 34.6398 24.174 34.4054 23.5108H31.1119C31.1914 24.1805 31.2334 24.8929 31.2334 25.6311C31.2334 26.3693 31.1914 27.0817 31.1119 27.7515H34.4054Z"/>
<path d="M34.1061 28.4583H31.0117C30.7725 29.8981 30.3507 31.0895 29.8 31.839C31.6914 31.4162 33.2648 30.1513 34.1061 28.4583Z"/>
<path d="M26.4162 27.7515H30.3963C30.48 27.0888 30.5266 26.3752 30.5266 25.6311C30.5266 24.887 30.48 24.1735 30.3963 23.5108H26.4162C26.3325 24.1735 26.2859 24.887 26.2859 25.6311C26.2859 26.3752 26.3325 27.0888 26.4162 27.7515Z"/>
<path d="M26.5227 28.4583C26.8917 30.5559 27.6416 31.9922 28.4063 31.9922C29.171 31.9922 29.9208 30.5559 30.2899 28.4583H26.5227Z"/>
<path d="M22.7064 28.4583C23.5478 30.1513 25.1212 31.4162 27.0125 31.839C26.4618 31.0895 26.0401 29.8981 25.8009 28.4583H22.7064Z"/>
<path d="M22.4072 27.7515H25.7006C25.6212 27.0817 25.5791 26.3693 25.5791 25.6311C25.5791 24.8929 25.6212 24.1805 25.7006 23.5108H22.4072C22.1728 24.174 22.0452 24.8876 22.0452 25.6311C22.0452 26.3746 22.1728 27.0883 22.4072 27.7515Z"/>
</symbol>

</svg>
