<?xml version="1.0" encoding="UTF-8"?>
<svg xmlns="http://www.w3.org/2000/svg" xmlns:xlink="http://www.w3.org/1999/xlink" width="0" height="0">
<symbol id="Cross-platform" width="67" height="67" viewBox="0 0 67 67" fill="none">
<path d="M38.0356 30.881C38.6293 30.8608 39.2281 30.8795 39.8224 30.8773C40.2317 30.8758 45.1484 30.839 45.5533 30.8871C45.7244 30.9075 45.8894 30.9544 46.0355 31.0468C46.2188 31.1626 46.3478 31.3356 46.3865 31.549C46.4267 31.7696 46.3818 32.0591 46.2481 32.2445C46.0818 32.475 45.8422 32.5546 45.5735 32.5945C44.9198 32.6087 39.7876 32.5993 39.1337 32.6C38.7408 32.6005 38.3176 32.6312 37.9292 32.5811C37.7875 32.5628 37.6581 32.5223 37.5393 32.4421C37.5151 32.4258 37.4917 32.4082 37.4693 32.3893C37.447 32.3706 37.4256 32.3507 37.4053 32.3298C37.385 32.3088 37.3658 32.2869 37.3477 32.264C37.3297 32.2412 37.3128 32.2174 37.2973 32.1927C37.2816 32.1681 37.2673 32.1427 37.2544 32.1167C37.2414 32.0906 37.2299 32.0639 37.2197 32.0367C37.2095 32.0095 37.2008 31.9818 37.1935 31.9536C37.1862 31.9254 37.1803 31.897 37.176 31.8682C37.1717 31.8394 37.169 31.8103 37.1677 31.7811C37.1665 31.752 37.1668 31.7228 37.1685 31.6936C37.1703 31.6645 37.1736 31.6355 37.1783 31.6067C37.183 31.5779 37.1893 31.5494 37.197 31.5212C37.2047 31.4931 37.2139 31.4654 37.2245 31.4381C37.235 31.4109 37.247 31.3842 37.2603 31.3582C37.2736 31.3321 37.2882 31.3068 37.3042 31.2823C37.3201 31.2578 37.3373 31.2341 37.3557 31.2113C37.5323 30.9886 37.7626 30.9134 38.0356 30.881Z"/>
<path d="M35.3827 39.7009C35.569 39.7002 35.7427 39.7319 35.9048 39.8273C35.9287 39.8414 35.9518 39.8567 35.9742 39.873C35.9966 39.8893 36.0181 39.9067 36.0388 39.9252C36.0594 39.9437 36.079 39.9631 36.0978 39.9835C36.1165 40.0039 36.1341 40.0251 36.1507 40.0472C36.1673 40.0694 36.1827 40.0922 36.197 40.1159C36.2113 40.1395 36.2244 40.1638 36.2363 40.1888C36.2481 40.2137 36.2587 40.2391 36.268 40.2651C36.2773 40.2911 36.2854 40.3174 36.2921 40.3441C36.2991 40.3721 36.3047 40.4003 36.3088 40.4287C36.3129 40.4573 36.3156 40.4859 36.3168 40.5146C36.318 40.5434 36.3177 40.5722 36.3159 40.6009C36.3141 40.6297 36.3109 40.6582 36.3062 40.6866C36.3015 40.715 36.2953 40.7431 36.2877 40.7709C36.2801 40.7987 36.2711 40.826 36.2607 40.8529C36.2503 40.8797 36.2385 40.906 36.2253 40.9318C36.2122 40.9575 36.1978 40.9824 36.1821 41.0066C36.0261 41.2481 35.8024 41.3485 35.5295 41.4014C35.3321 41.4021 35.1596 41.3725 34.9901 41.2663C34.9663 41.2516 34.9433 41.2358 34.921 41.2188C34.8988 41.2019 34.8775 41.1838 34.8571 41.1647C34.8367 41.1457 34.8173 41.1257 34.7989 41.1047C34.7805 41.0837 34.7631 41.0618 34.747 41.0391C34.7308 41.0165 34.7158 40.993 34.7019 40.9688C34.688 40.9446 34.6755 40.9199 34.6641 40.8945C34.6528 40.869 34.6427 40.843 34.6339 40.8166C34.6252 40.7902 34.6178 40.7635 34.6118 40.7363C34.6054 40.7082 34.6005 40.6798 34.5971 40.6511C34.5936 40.6225 34.5916 40.5937 34.5911 40.5648C34.5906 40.536 34.5916 40.5072 34.594 40.4784C34.5965 40.4497 34.6003 40.4211 34.6057 40.3927C34.6111 40.3644 34.6179 40.3364 34.6262 40.3087C34.6344 40.281 34.644 40.2538 34.6551 40.2271C34.6661 40.2004 34.6784 40.1743 34.6921 40.1488C34.7058 40.1233 34.7208 40.0986 34.737 40.0747C34.8962 39.8425 35.1167 39.7536 35.3827 39.7009Z"/>
<path d="M38.4091 39.6983C38.5876 39.6864 38.7548 39.7069 38.9173 39.7855C38.9428 39.7979 38.9676 39.8115 38.9917 39.8262C39.0159 39.841 39.0393 39.8569 39.0618 39.8739C39.0844 39.891 39.106 39.9091 39.1268 39.9283C39.1475 39.9474 39.1672 39.9676 39.1859 39.9887C39.2047 40.0098 39.2223 40.0318 39.2389 40.0546C39.2555 40.0774 39.2709 40.101 39.285 40.1253C39.2992 40.1497 39.3122 40.1747 39.324 40.2003C39.3357 40.2259 39.3461 40.252 39.3552 40.2786C39.4328 40.5036 39.4146 40.7424 39.2996 40.9514C39.1593 41.2063 38.943 41.3252 38.6722 41.402C38.4527 41.4192 38.2604 41.3903 38.0722 41.2699C38.0485 41.2549 38.0257 41.2387 38.0037 41.2215C37.9816 41.2042 37.9605 41.1859 37.9403 41.1666C37.9201 41.1474 37.9009 41.1271 37.8827 41.1059C37.8645 41.0847 37.8474 41.0626 37.8314 41.0398C37.8155 41.0169 37.8006 40.9933 37.7869 40.969C37.7733 40.9447 37.7609 40.9198 37.7497 40.8943C37.7385 40.8687 37.7287 40.8427 37.7201 40.8162C37.7115 40.7898 37.7042 40.7629 37.6983 40.7357C37.692 40.7071 37.6871 40.6783 37.6836 40.6492C37.6802 40.6202 37.6783 40.591 37.6778 40.5617C37.6773 40.5325 37.6783 40.5032 37.6808 40.474C37.6833 40.4449 37.6872 40.4159 37.6926 40.3871C37.698 40.3584 37.7049 40.33 37.7131 40.3018C37.7215 40.2738 37.7312 40.2462 37.7422 40.219C37.7533 40.1919 37.7657 40.1653 37.7795 40.1394C37.7932 40.1135 37.8083 40.0884 37.8246 40.064C37.9634 39.8591 38.1691 39.7454 38.4091 39.6983Z"/>
<path d="M32.2177 39.6994C32.4167 39.6834 32.5921 39.6995 32.7723 39.7926C32.7974 39.8055 32.8218 39.8196 32.8455 39.835C32.8692 39.8503 32.8921 39.8667 32.9141 39.8843C32.9361 39.9019 32.9572 39.9206 32.9774 39.9403C32.9976 39.9599 33.0167 39.9805 33.0347 40.0021C33.0529 40.0237 33.0698 40.0461 33.0856 40.0693C33.1014 40.0925 33.1161 40.1165 33.1295 40.1412C33.1429 40.1659 33.1551 40.1912 33.1659 40.217C33.1768 40.243 33.1863 40.2693 33.1945 40.2961C33.2032 40.3237 33.2104 40.3517 33.2162 40.38C33.2219 40.4082 33.2263 40.4367 33.2292 40.4655C33.2321 40.4942 33.2335 40.523 33.2335 40.5519C33.2335 40.5807 33.232 40.6095 33.2291 40.6383C33.2261 40.667 33.2217 40.6955 33.2159 40.7238C33.21 40.752 33.2028 40.78 33.1941 40.8076C33.1855 40.8351 33.1754 40.8622 33.164 40.8888C33.1525 40.9153 33.1398 40.9412 33.1258 40.9665C32.9906 41.2072 32.784 41.321 32.5283 41.3984C32.3448 41.4172 32.1912 41.4086 32.0206 41.3326C31.9932 41.3203 31.9665 41.3067 31.9405 41.2917C31.9145 41.2767 31.8894 41.2604 31.8651 41.2429C31.8408 41.2252 31.8176 41.2064 31.7952 41.1865C31.7729 41.1665 31.7517 41.1455 31.7316 41.1233C31.7115 41.1011 31.6926 41.078 31.6749 41.0539C31.6572 41.0298 31.6409 41.0049 31.6258 40.9791C31.6107 40.9533 31.597 40.9268 31.5847 40.8996C31.5724 40.8724 31.5616 40.8447 31.5522 40.8163C31.5431 40.7881 31.5355 40.7595 31.5293 40.7305C31.5231 40.7016 31.5185 40.6724 31.5153 40.6429C31.5122 40.6135 31.5106 40.584 31.5105 40.5544C31.5104 40.5247 31.5117 40.4952 31.5146 40.4658C31.5175 40.4363 31.5219 40.407 31.5278 40.378C31.5337 40.349 31.5411 40.3203 31.55 40.2921C31.5588 40.2637 31.5691 40.236 31.5808 40.2087C31.5924 40.1815 31.6055 40.1549 31.6199 40.1289C31.7513 39.8912 31.9597 39.7681 32.2177 39.6994Z"/>
<path fill-rule="evenodd" clip-rule="evenodd" d="M49.3125 8.48479C49.6338 8.62326 49.9207 8.80754 50.1676 9.05443C50.4844 9.37135 50.7473 9.78412 50.8631 10.2177C51.0154 10.7879 50.9995 11.4777 50.9848 12.1138V12.1141V12.1142C50.9806 12.2939 50.9765 12.4692 50.9764 12.6364L50.9762 15.5252C51.1678 15.5213 51.3594 15.5223 51.5511 15.5282C52.6704 15.5738 53.6682 15.9864 54.4294 16.8132C54.4946 16.8845 54.5569 16.9582 54.6165 17.0342C54.6761 17.1101 54.7328 17.1882 54.7865 17.2683C54.8402 17.3485 54.8909 17.4305 54.9384 17.5144C54.986 17.5983 55.0303 17.6838 55.0714 17.771C55.1125 17.8582 55.1503 17.9467 55.1847 18.0367C55.2192 18.1267 55.2502 18.2178 55.2778 18.31C55.3053 18.4023 55.3294 18.4954 55.35 18.5895C55.3706 18.6835 55.3877 18.7781 55.4011 18.8734C55.4476 19.1976 55.4456 19.5314 55.4436 19.8607V19.8618V19.8624C55.4431 19.9311 55.4427 19.9997 55.4428 20.0679L55.443 38.8123C55.4431 38.9643 55.4449 39.117 55.4467 39.27C55.4511 39.6541 55.4556 40.0399 55.4348 40.4211C55.4314 40.4859 55.4263 40.5506 55.4196 40.6152C55.4129 40.6799 55.4046 40.7443 55.3946 40.8085C55.3847 40.8726 55.3731 40.9365 55.3599 41.0001C55.3468 41.0637 55.332 41.127 55.3157 41.1899C55.2993 41.2528 55.2814 41.3153 55.2619 41.3773C55.2424 41.4392 55.2214 41.5007 55.1988 41.5616C55.1762 41.6226 55.1521 41.683 55.1265 41.7427C55.1009 41.8025 55.0738 41.8616 55.0452 41.9201C55.0166 41.9785 54.9865 42.0362 54.955 42.0931C54.9235 42.15 54.8906 42.2062 54.8562 42.2615C54.8219 42.3169 54.7862 42.3713 54.7492 42.4248C54.7121 42.4784 54.6737 42.531 54.6339 42.5826C54.5943 42.6343 54.5533 42.6849 54.511 42.7345C54.4687 42.7841 54.4252 42.8327 54.3805 42.8802C54.3358 42.9277 54.2899 42.974 54.2429 43.0192C54.1958 43.0644 54.1477 43.1084 54.0984 43.1513C53.5975 43.59 52.9521 43.9133 52.2945 44.0371C51.7733 44.1354 51.2214 44.1278 50.6825 44.1204C50.5427 44.1185 50.4038 44.1166 50.2665 44.1166L43.6364 44.1161C43.4315 44.1161 43.225 44.1197 43.0181 44.1232C42.5759 44.1308 42.1315 44.1384 41.6949 44.1126L41.6967 46.2992C42.1542 46.2906 42.6118 46.2868 43.0694 46.2877C43.1424 46.2873 43.2174 46.2853 43.2936 46.2833C43.5429 46.2768 43.8034 46.27 44.0375 46.3178C44.1931 46.3496 44.3428 46.4171 44.4624 46.5216C44.484 46.5408 44.5047 46.561 44.5243 46.5822C44.5439 46.6034 44.5623 46.6255 44.5796 46.6486C44.597 46.6718 44.613 46.6957 44.6279 46.7205C44.6427 46.7452 44.6562 46.7706 44.6684 46.7968C44.6806 46.8229 44.6914 46.8495 44.7009 46.8768C44.7103 46.904 44.7183 46.9316 44.7248 46.9596C44.7314 46.9877 44.7365 47.016 44.7401 47.0445C44.7438 47.073 44.7459 47.1017 44.7466 47.1305C44.7468 47.16 44.7456 47.1893 44.7429 47.2186C44.7403 47.2479 44.7361 47.2771 44.7305 47.306C44.7248 47.3349 44.7177 47.3634 44.7091 47.3916C44.7005 47.4198 44.6906 47.4475 44.6792 47.4747C44.6678 47.5019 44.6551 47.5284 44.641 47.5543C44.6269 47.5803 44.6116 47.6054 44.595 47.6298C44.5783 47.6542 44.5605 47.6777 44.5414 47.7003C44.5223 47.7229 44.5022 47.7444 44.481 47.7651C44.3111 47.9295 44.1453 47.9705 43.9179 47.9923C43.5592 48.0266 43.1876 48.0197 42.8203 48.0129H42.82H42.8199C42.6714 48.0101 42.5235 48.0074 42.3775 48.0074L30.2076 48.0067L28.0233 48.0094C27.9265 48.0095 27.8262 48.0121 27.7245 48.0148C27.4375 48.0224 27.1385 48.0303 26.8708 47.9817C26.8331 47.9749 26.7961 47.9657 26.7597 47.9541C26.7233 47.9425 26.6879 47.9285 26.6534 47.9123C26.6188 47.896 26.5855 47.8776 26.5534 47.8569C26.5214 47.8363 26.4909 47.8137 26.4618 47.789C26.4393 47.77 26.4178 47.75 26.3974 47.7288C26.377 47.7077 26.3577 47.6856 26.3396 47.6625C26.3215 47.6393 26.3046 47.6153 26.2891 47.5904C26.2736 47.5655 26.2593 47.5399 26.2465 47.5135C26.2336 47.4872 26.2222 47.4603 26.2121 47.4327C26.2021 47.4052 26.1936 47.3772 26.1866 47.3487C26.1794 47.3203 26.1739 47.2916 26.1698 47.2626C26.1658 47.2336 26.1633 47.2045 26.1623 47.1752C26.1554 46.9417 26.2463 46.7073 26.4166 46.5449C26.5403 46.427 26.7002 46.3516 26.8673 46.3174C27.0954 46.2708 27.345 46.2768 27.5857 46.2827C27.6588 46.2844 27.731 46.2862 27.8016 46.2865L29.2123 46.2932L29.2187 44.1243C27.5343 44.0914 25.8452 44.0999 24.1577 44.1083H24.1576H24.1572L24.1563 44.1083C23.434 44.1119 22.7121 44.1155 21.9909 44.1159L20.2301 44.1171C20.15 44.1171 20.0695 44.1177 19.9889 44.1182C19.5238 44.1211 19.0522 44.1241 18.5976 44.0296C18.5067 44.0106 18.4167 43.9885 18.3274 43.9633C18.2382 43.9381 18.1499 43.9098 18.0627 43.8783C17.9754 43.8469 17.8894 43.8125 17.8046 43.775C17.7198 43.7377 17.6365 43.6973 17.5546 43.654C17.4727 43.6108 17.3924 43.5647 17.3138 43.5158C17.2351 43.4669 17.1583 43.4154 17.0834 43.3611C17.0084 43.3068 16.9355 43.25 16.8646 43.1906C16.7937 43.1313 16.725 43.0695 16.6585 43.0053C15.8442 42.2206 15.4762 41.2102 15.4678 40.0976L15.4682 21.1905C15.4681 20.9954 15.4639 20.7933 15.4595 20.5881C15.4469 19.9897 15.4337 19.365 15.5226 18.8098C15.538 18.7091 15.5573 18.6093 15.5807 18.5102C15.6041 18.4111 15.6314 18.313 15.6626 18.216C15.6939 18.1191 15.7289 18.0235 15.7678 17.9293C15.8067 17.8351 15.8493 17.7425 15.8956 17.6516C15.9419 17.5608 15.9918 17.4719 16.0452 17.385C16.0986 17.298 16.1554 17.2133 16.2156 17.1308C16.2758 17.0484 16.3392 16.9684 16.4059 16.891C16.4725 16.8135 16.5421 16.7387 16.6147 16.6667C16.6828 16.5991 16.7533 16.5341 16.8262 16.4717C16.8992 16.4092 16.9744 16.3495 17.0518 16.2925C17.1292 16.2355 17.2086 16.1815 17.29 16.1303C17.3714 16.0792 17.4546 16.0311 17.5396 15.9861C17.6246 15.941 17.7112 15.8991 17.7993 15.8604C17.8875 15.8217 17.9769 15.7862 18.0677 15.754C18.1584 15.7218 18.2503 15.693 18.3432 15.6675C18.4361 15.642 18.5298 15.62 18.6244 15.6014C19.0972 15.5092 19.5952 15.5158 20.0825 15.5222C20.2022 15.5238 20.3213 15.5253 20.4392 15.5254L22.8569 15.5276L32.0249 15.5236L32.0228 15.4921C31.9935 14.995 32.001 14.4878 32.0084 13.9836C32.0118 13.7529 32.0151 13.5228 32.015 13.2946L32.0141 11.8486C32.0139 11.7724 32.0132 11.6956 32.0125 11.6186C32.0085 11.1933 32.0043 10.7584 32.0983 10.3455C32.1242 10.234 32.157 10.1245 32.1968 10.0171C32.2367 9.90962 32.2833 9.80512 32.3365 9.70355C32.3898 9.60197 32.4493 9.50415 32.515 9.41007C32.5808 9.31599 32.6523 9.2264 32.7296 9.14132C32.7938 9.0719 32.8614 9.00599 32.9326 8.9436C33.0037 8.88122 33.0779 8.82269 33.1553 8.76802C33.2326 8.71334 33.3126 8.66283 33.3953 8.61648C33.478 8.57012 33.5629 8.52817 33.65 8.49064C34.0015 8.33693 34.4005 8.2442 34.786 8.15463C34.8938 8.12959 35.0005 8.10479 35.1048 8.07898L47.65 8.02051C47.7656 8.04849 47.8833 8.07537 48.0019 8.10246C48.4461 8.20394 48.9033 8.30837 49.3125 8.48479ZM50.8778 33.1779C50.8955 33.1118 50.9106 33.0451 50.923 32.9778C51.0026 32.5299 50.9925 32.0429 50.9828 31.5721C50.9797 31.4221 50.9766 31.2737 50.9765 31.1287L50.9759 17.2444C51.0748 17.2483 51.1737 17.2496 51.2727 17.2483C51.9597 17.2455 52.5578 17.3725 53.0597 17.8729C53.0959 17.9091 53.1307 17.9465 53.1642 17.985C53.1977 18.0236 53.2298 18.0633 53.2605 18.1041C53.2912 18.1449 53.3204 18.1867 53.3482 18.2295C53.376 18.2724 53.4022 18.3161 53.4268 18.3607C53.4515 18.4053 53.4746 18.4508 53.496 18.497C53.5174 18.5433 53.5372 18.5902 53.5554 18.6378C53.5735 18.6854 53.5899 18.7336 53.6046 18.7823C53.6194 18.8311 53.6323 18.8803 53.6436 18.93C53.7448 19.376 53.7302 19.9536 53.717 20.4769C53.7127 20.6461 53.7086 20.8096 53.7086 20.9611L53.7065 35.448C53.7064 35.5926 53.7049 35.738 53.7033 35.8835L53.7033 35.8844C53.6994 36.25 53.6955 36.6173 53.715 36.98C52.3134 36.995 50.9108 36.9911 49.5086 36.9872H49.5077H49.5075C48.8767 36.9855 48.246 36.9837 47.6154 36.9837L31.2336 36.9841C30.97 36.9839 30.7047 36.98 30.4388 36.976C29.8611 36.9674 29.2807 36.9588 28.7093 36.9889C28.7488 36.9032 28.7853 36.8153 28.8071 36.7236C28.8841 36.3993 28.8668 35.851 28.8523 35.3924C28.847 35.2248 28.8421 35.0692 28.8423 34.9409C28.8425 34.8029 28.8471 34.6619 28.8517 34.52C28.8617 34.2069 28.872 33.889 28.8363 33.5875C28.8177 33.4299 28.7735 33.2814 28.6819 33.1495C28.6609 33.1196 28.6378 33.0912 28.6128 33.0644C28.5878 33.0376 28.5611 33.0126 28.5325 32.9896C28.5041 32.9664 28.4741 32.9453 28.4426 32.9263C28.4112 32.9073 28.3786 32.8905 28.3449 32.8759C28.0911 32.766 27.7889 32.7213 27.502 32.6787C27.4153 32.6659 27.33 32.6532 27.2479 32.6391L25.6316 32.3619C25.5663 32.1596 25.4816 31.9618 25.3971 31.7647L25.3971 31.7646C25.3594 31.6767 25.3218 31.5889 25.286 31.501C25.3971 31.3289 25.5922 31.0652 25.8085 30.7731C26.2448 30.1835 26.7669 29.478 26.8573 29.1754C26.9159 28.9789 26.8912 28.7272 26.783 28.551C26.6258 28.295 24.7925 26.467 24.5003 26.2463C24.3851 26.1593 24.2599 26.0926 24.117 26.0639C23.9762 26.0356 23.8251 26.0432 23.6905 26.094C23.4276 26.1933 23.1817 26.3753 22.9474 26.5487C22.8801 26.5985 22.8138 26.6476 22.7482 26.6938C22.3061 27.0094 21.8618 27.3218 21.4152 27.631C21.2932 27.5762 21.1694 27.5256 21.0457 27.4751C20.8716 27.4041 20.6977 27.333 20.5287 27.2502C20.4321 26.8021 20.3561 26.3489 20.2802 25.8965C20.2624 25.7901 20.2445 25.6836 20.2264 25.5773C20.2141 25.5051 20.203 25.4314 20.1918 25.3571C20.1589 25.1392 20.1252 24.9162 20.0594 24.7118C20.0172 24.5805 19.9566 24.4588 19.8563 24.3612C19.7356 24.2438 19.5718 24.1727 19.4076 24.1393C19.1668 24.0904 18.9054 24.0967 18.6518 24.1028C18.5721 24.1047 18.4932 24.1066 18.4159 24.1068L17.195 24.1013C17.2132 23.7846 17.2101 23.4644 17.207 23.1455C17.2058 23.0302 17.2047 22.9152 17.2046 22.8005L17.2025 20.5431C17.2024 20.4261 17.2 20.3071 17.1976 20.1869C17.1894 19.7708 17.181 19.342 17.2658 18.9452C17.2835 18.8596 17.3065 18.7755 17.3348 18.6929C17.363 18.6101 17.3963 18.5294 17.4346 18.4508C17.4729 18.3722 17.5159 18.2962 17.5637 18.2228C17.6115 18.1495 17.6637 18.0793 17.7202 18.0123C18.1075 17.5528 18.6379 17.3031 19.2344 17.2536C19.6099 17.2287 19.9917 17.2332 20.3713 17.2376L20.3715 17.2376L20.3717 17.2376C20.5167 17.2393 20.6615 17.241 20.8054 17.2411L32.0316 17.2449C32.023 17.4043 32.0176 17.5638 32.0154 17.7235L32.0143 31.0903C32.0143 31.2369 32.0116 31.386 32.009 31.5364C32.0002 32.0348 31.9911 32.5469 32.076 33.0258C32.1659 33.5331 32.4468 34.0206 32.81 34.3846C33.3074 34.883 33.8656 35.129 34.5702 35.1364C36.7894 35.1597 39.0105 35.152 41.2311 35.1442H41.2319H41.2323C42.3468 35.1403 43.4612 35.1364 44.5751 35.1364L47.3802 35.1382C47.5082 35.1383 47.6398 35.1414 47.7732 35.1446C48.1631 35.1539 48.5675 35.1636 48.9359 35.0979C49.3831 35.0182 49.8422 34.7201 50.1611 34.4069C50.2102 34.3587 50.2573 34.3088 50.3025 34.257C50.3477 34.2054 50.3909 34.152 50.432 34.097C50.4731 34.0421 50.5121 33.9857 50.5489 33.9278C50.5857 33.8699 50.6202 33.8106 50.6525 33.7501C50.6847 33.6896 50.7146 33.628 50.7421 33.5652C50.7696 33.5025 50.7947 33.4388 50.8174 33.3742C50.8401 33.3095 50.8602 33.2441 50.8778 33.1779ZM49.238 19.0825L49.24 27.5573L49.2476 29.2886C49.2347 29.9849 49.2324 30.6812 49.2408 31.3776C49.2411 31.4772 49.2436 31.5793 49.246 31.6826C49.2539 32.0109 49.2621 32.3513 49.202 32.6624C49.1654 32.8515 49.1037 32.9779 48.986 33.1319L48.9797 33.1387L48.9732 33.1457C48.9699 33.1493 48.9665 33.1529 48.9631 33.1564C48.8473 33.2763 48.7198 33.38 48.5499 33.4036C48.2513 33.4451 47.9261 33.4363 47.6108 33.4278C47.4852 33.4244 47.3612 33.4211 47.2411 33.421L44.5592 33.4188L35.1606 33.4243C35.0995 33.4244 35.0387 33.4261 34.9784 33.4277L34.9781 33.4277C34.6308 33.4371 34.2997 33.4461 34.033 33.1723C33.8866 33.0221 33.8139 32.8356 33.7772 32.633C33.7264 32.3511 33.7341 32.043 33.7417 31.7455C33.7443 31.6416 33.7469 31.539 33.7469 31.4392L33.7516 27.5677C33.7271 26.5101 33.7344 25.4484 33.7416 24.3878V24.3875V24.3874C33.7451 23.8784 33.7486 23.3698 33.7486 22.862L33.7501 12.8219C33.7496 12.712 33.7461 12.5693 33.7421 12.4088C33.7277 11.8306 33.7075 11.0199 33.8059 10.6707C33.8448 10.5325 33.9295 10.407 34.0258 10.3012C34.1156 10.2025 34.2142 10.1313 34.3359 10.0761C34.6261 9.9445 34.9676 9.8689 35.2941 9.79663C35.3948 9.77432 35.4942 9.75233 35.5901 9.72911C36.0462 9.70866 36.65 9.68219 36.895 9.67152C36.8872 9.69972 36.881 9.72822 36.8762 9.75702C36.8715 9.78582 36.8683 9.81479 36.8665 9.84392C36.8647 9.87312 36.8645 9.90229 36.8657 9.93142C36.8669 9.96062 36.8697 9.98965 36.8739 10.0185C36.8783 10.0473 36.8841 10.0757 36.8914 10.1038C36.8988 10.132 36.9075 10.1597 36.9177 10.1869C36.9279 10.2142 36.9394 10.2409 36.9523 10.2669C36.9653 10.293 36.9796 10.3184 36.9952 10.343C37.0108 10.3677 37.0276 10.3914 37.0457 10.4143C37.0637 10.4372 37.0829 10.4591 37.1033 10.4801C37.1236 10.501 37.1449 10.5209 37.1673 10.5396C37.1897 10.5584 37.213 10.576 37.2373 10.5924C37.3561 10.6726 37.4854 10.7131 37.6272 10.7314C38.0156 10.7815 38.4388 10.7507 38.8317 10.7502C39.4856 10.7495 44.6178 10.759 45.2715 10.7447C45.5402 10.7048 45.7797 10.6253 45.946 10.3948C46.0797 10.2094 46.1171 9.94874 46.0769 9.72815L47.376 9.7199C47.4864 9.7199 47.6331 9.73739 47.7381 9.76103C48.0208 9.8247 48.2582 9.92073 48.5196 10.022C48.6728 10.0814 48.8169 10.1583 48.9399 10.2681C49.2932 10.5836 49.2674 11.4914 49.2476 12.1896C49.2409 12.4245 49.2349 12.6356 49.2442 12.7925L49.2463 12.823L49.2443 12.823L49.247 14.5415C49.2097 15.5743 49.2195 16.6232 49.2292 17.6671C49.2336 18.1406 49.238 18.613 49.238 19.0825ZM18.0298 41.9258C17.9832 41.889 17.9381 41.8504 17.8946 41.81C17.1658 41.1297 17.1812 40.216 17.1964 39.3088C17.1999 39.1026 17.2034 38.8967 17.1981 38.694C17.4853 38.7142 17.7801 38.7087 18.0727 38.7031C18.206 38.7006 18.3389 38.6981 18.4705 38.698L53.7092 38.6978C53.7057 38.9086 53.7104 39.1151 53.7151 39.3174C53.7354 40.2038 53.7539 41.0105 53.0682 41.7489C52.6125 42.1868 52.1114 42.3712 51.4837 42.3931C50.9143 42.4132 50.3417 42.4082 49.7701 42.4033L49.7695 42.4033C49.5276 42.4013 49.2859 42.3992 49.0447 42.399L20.4965 42.3994C20.3745 42.3994 20.251 42.4016 20.1268 42.4039C19.8079 42.4096 19.4849 42.4154 19.174 42.3838C19.1147 42.3782 19.0557 42.3701 18.997 42.3596C18.9383 42.3492 18.8802 42.3363 18.8226 42.3211C18.765 42.3059 18.7081 42.2883 18.652 42.2684C18.5958 42.2486 18.5406 42.2265 18.4863 42.2021C18.432 42.1777 18.3788 42.1512 18.3266 42.1225C18.2745 42.0938 18.2237 42.063 18.1742 42.0302C18.1246 41.9974 18.0765 41.9626 18.0298 41.9258ZM17.2054 29.0986L17.2005 25.8171C17.4805 25.8374 17.767 25.8338 18.0523 25.8303C18.208 25.8284 18.3634 25.8265 18.5172 25.8284C18.5214 25.8584 18.5264 25.8937 18.532 25.9336C18.6157 26.5292 18.8444 28.1564 19.0666 28.4413C19.1532 28.5525 19.2696 28.6327 19.3955 28.6948C19.5515 28.7717 19.7198 28.8225 19.8885 28.8735C20.0422 28.9199 20.196 28.9664 20.3409 29.0327C20.4381 29.0771 20.5411 29.1335 20.6474 29.1918C20.9032 29.3319 21.1778 29.4823 21.4344 29.5004C21.5812 29.5107 21.7408 29.4567 21.8708 29.3937C22.1146 29.2756 22.346 29.1057 22.571 28.9404C22.6468 28.8848 22.7218 28.8297 22.7963 28.7772C22.8902 28.7113 22.9851 28.6459 23.0803 28.5804C23.3438 28.399 23.6089 28.2165 23.856 28.0177L24.8948 29.0433C24.6635 29.4003 24.411 29.7447 24.1586 30.089C23.9997 30.3058 23.8408 30.5225 23.6873 30.7422C23.5083 30.9983 23.3453 31.2646 23.4139 31.5894C23.4564 31.7904 23.5599 31.979 23.6629 32.1667C23.7318 32.2923 23.8006 32.4176 23.8507 32.546C23.8902 32.6469 23.9259 32.7671 23.9631 32.8927C24.0435 33.1635 24.1311 33.459 24.2795 33.6374C24.3814 33.7599 24.5195 33.85 24.668 33.9074C24.9832 34.0296 25.7041 34.1375 26.2534 34.2197C26.4284 34.2459 26.5859 34.2695 26.7074 34.2901C26.7317 34.2942 26.7622 34.2977 26.7954 34.3016C26.8984 34.3135 27.028 34.3286 27.0844 34.3735C27.1074 34.3917 27.1093 34.4291 27.111 34.4616C27.1115 34.4714 27.112 34.4808 27.113 34.489C27.1124 34.5898 27.1114 34.6906 27.1104 34.7915L27.1104 34.7917L27.1104 34.7923C27.1071 35.1318 27.1039 35.4718 27.1148 35.8108C26.9416 35.8455 26.6736 35.8855 26.3719 35.9305L26.3714 35.9306L26.3712 35.9306C25.6589 36.0369 24.759 36.1712 24.4766 36.3297C24.2252 36.4709 24.1209 36.7327 24.0492 36.9945C23.2897 36.9573 22.5125 36.9683 21.7487 36.9791C21.669 36.9802 21.5895 36.9813 21.5102 36.9824C21.8588 36.2849 22.0212 35.5216 21.9576 34.7443C21.9522 34.6762 21.9451 34.6083 21.9363 34.5406C21.9276 34.4728 21.9172 34.4053 21.905 34.3381C21.8928 34.2708 21.879 34.2039 21.8635 34.1374C21.848 34.0708 21.8308 34.0047 21.8119 33.9391C21.7931 33.8734 21.7726 33.8081 21.7505 33.7434C21.7284 33.6788 21.7047 33.6146 21.6793 33.5511C21.654 33.4875 21.6271 33.4247 21.5987 33.3625C21.5701 33.3003 21.5401 33.2388 21.5086 33.1781C21.477 33.1174 21.4439 33.0575 21.4093 32.9984C21.3747 32.9394 21.3387 32.8812 21.3013 32.8238C21.2638 32.7665 21.2248 32.7102 21.1845 32.6548C21.1441 32.5994 21.1025 32.545 21.0594 32.4917C21.0164 32.4384 20.972 32.3861 20.9263 32.335C20.8806 32.2838 20.8337 32.2338 20.7855 32.185C20.7373 32.1362 20.6879 32.0886 20.6374 32.0421C20.5868 31.9957 20.5351 31.9506 20.4823 31.9067C19.535 31.1192 18.4142 30.8425 17.1985 30.9503C17.2262 30.5301 17.219 30.0995 17.2118 29.6719C17.2086 29.4798 17.2054 29.2883 17.2054 29.0986ZM30.948 46.2944C30.9538 45.8149 30.9545 45.3353 30.9501 44.8556C30.95 44.794 30.948 44.7299 30.9461 44.6646C30.9405 44.4806 30.9347 44.2878 30.9683 44.1179C31.1668 44.1382 31.3741 44.1315 31.579 44.1249C31.6725 44.1219 31.7655 44.1189 31.8568 44.1185L33.6508 44.1153C34.2242 44.115 34.7978 44.1135 35.3715 44.112H35.3717H35.3722C36.9051 44.108 38.4386 44.104 39.9709 44.1239C39.9642 44.2373 39.9665 44.5098 39.9693 44.8251C39.9745 45.4321 39.9812 46.1977 39.9268 46.2923C39.107 46.2718 38.2835 46.2779 37.4611 46.2839C37.0694 46.2868 36.6779 46.2897 36.2871 46.2897C35.751 46.2897 35.2148 46.2883 34.6785 46.2869H34.6783H34.678C33.4346 46.2837 32.1909 46.2806 30.948 46.2944ZM20.2248 34.8851C20.2771 35.5829 20.0526 36.2024 19.5929 36.7278C19.5209 36.8079 19.4408 36.8784 19.3602 36.9495L19.3595 36.9501C19.3504 36.9582 19.3413 36.9662 19.3322 36.9743C18.7222 36.9927 18.1102 36.986 17.4995 36.9793L17.4985 36.9793L17.4974 36.9793C17.3968 36.9782 17.2962 36.9771 17.1956 36.9761C17.2179 36.6765 17.2131 36.3692 17.2084 36.0646C17.2065 35.9399 17.2045 35.8155 17.2045 35.6923C17.2043 35.3978 17.2023 35.1028 17.2002 34.8076C17.1954 34.1036 17.1905 33.3987 17.2113 32.6966C17.3186 32.6731 17.428 32.6618 17.5373 32.6506L17.5696 32.6472C17.58 32.6462 17.5904 32.6451 17.6008 32.6439C18.2567 32.61 18.8655 32.7954 19.3675 33.2208C19.3984 33.2466 19.4286 33.2731 19.4581 33.3003C19.4877 33.3275 19.5165 33.3555 19.5446 33.3841C19.5728 33.4128 19.6002 33.4422 19.6269 33.4722C19.6535 33.5022 19.6794 33.5329 19.7045 33.5642C19.7296 33.5955 19.7539 33.6274 19.7774 33.6599C19.8009 33.6924 19.8236 33.7255 19.8455 33.7591C19.8673 33.7927 19.8883 33.8269 19.9084 33.8615C19.9285 33.8962 19.9478 33.9314 19.9661 33.967C19.9845 34.0026 20.0019 34.0386 20.0184 34.0752C20.0349 34.1116 20.0506 34.1485 20.0653 34.1857C20.0799 34.2229 20.0936 34.2606 20.1064 34.2985C20.1192 34.3365 20.131 34.3747 20.1419 34.4132C20.1527 34.4517 20.1626 34.4905 20.1715 34.5295C20.1804 34.5685 20.1883 34.6077 20.1952 34.647C20.2021 34.6865 20.2081 34.7261 20.213 34.7658C20.2179 34.8054 20.2219 34.8452 20.2248 34.8851Z"/>
</symbol>

<symbol id="InfrastructureDev" width="67" height="67" viewBox="0 0 67 67" fill="none">
<path fill-rule="evenodd" clip-rule="evenodd" d="M20.9246 19.645C19.4431 19.645 18.2888 20.8136 18.2888 22.1982C18.2888 23.5827 19.4431 24.7514 20.9246 24.7514C21.4926 24.7514 22.0135 24.5787 22.4403 24.2872C22.8722 23.9924 23.2047 23.5781 23.391 23.1014C23.5002 22.8219 23.5603 22.5182 23.5603 22.1982C23.5603 20.8136 22.4061 19.645 20.9246 19.645ZM15.7356 22.1982C15.7356 19.3525 18.0846 17.0918 20.9246 17.0918C23.2831 17.0918 25.303 18.6509 25.92 20.8095L40.5349 19.3788C41.0266 18.0341 42.3357 17.0918 43.8398 17.0918C45.7537 17.0918 47.352 18.6176 47.352 20.5568C47.352 21.2545 47.1426 21.902 46.7865 22.4427L49.6373 29.6925C49.7527 29.6812 49.8696 29.6754 49.9878 29.6754C51.9017 29.6754 53.5 31.2012 53.5 33.1404C53.5 35.0797 51.9017 36.6055 49.9878 36.6055C49.6524 36.6055 49.3272 36.5588 49.0187 36.4716L43.2902 44.7315C43.7327 45.3091 43.9986 46.0306 43.9986 46.8182C43.9986 48.7575 42.4003 50.2833 40.4863 50.2833C38.9017 50.2833 37.5334 49.2373 37.1095 47.7767L28.1431 44.7047C27.3555 47.92 24.4043 50.2833 20.9246 50.2833C16.8499 50.2833 13.5 47.0428 13.5 42.9885C13.5 39.3668 16.1731 36.3945 19.648 35.8014V27.1483C17.4137 26.5907 15.7356 24.6034 15.7356 22.1982ZM22.2012 27.1486V35.8011C24.2586 36.1517 26.0308 37.335 27.1371 38.9925L31.4134 37.6186L22.8193 26.9531C22.6189 27.0305 22.4126 27.0959 22.2012 27.1486ZM24.9059 25.4733L34.018 36.7818L45.5453 33.0783L25.1533 25.1581C25.0749 25.2665 24.9923 25.3716 24.9059 25.4733ZM27.273 23.2424L47.2305 30.9939C47.2691 30.9457 47.3089 30.8985 47.35 30.8525L44.6293 23.9338C44.3751 23.9914 44.1107 24.0219 43.8398 24.0219C42.412 24.0219 41.1599 23.1727 40.6159 21.9363L27.273 23.2424ZM46.6515 35.4046L35.7345 38.9121L39.4395 43.51C39.7709 43.408 40.1227 43.3532 40.4863 43.3532C40.6959 43.3532 40.9017 43.3714 41.1021 43.4065L46.6515 35.4046ZM37.4384 45.0958L33.1299 39.7489L28.1598 41.3457C28.2144 41.5784 28.2576 41.8153 28.2889 42.0557L37.3936 45.1751C37.4082 45.1485 37.4231 45.122 37.4384 45.0958ZM43.8398 19.645C43.2843 19.645 42.8808 20.0788 42.8808 20.5568C42.8808 21.0349 43.2843 21.4687 43.8398 21.4687C44.0918 21.4687 44.3152 21.378 44.484 21.2322C44.6834 21.0599 44.7988 20.819 44.7988 20.5568C44.7988 20.0788 44.3953 19.645 43.8398 19.645ZM49.9878 32.2286C49.8066 32.2286 49.6417 32.2753 49.5011 32.3544C49.2762 32.481 49.1178 32.6874 49.0572 32.9179C49.0388 32.9879 49.0287 33.0621 49.0287 33.1404C49.0287 33.2187 49.0388 33.293 49.0572 33.3629C49.106 33.5486 49.2179 33.7185 49.3786 33.8446C49.5426 33.9733 49.7525 34.0523 49.9878 34.0523C50.5432 34.0523 50.9468 33.6185 50.9468 33.1404C50.9468 32.6624 50.5432 32.2286 49.9878 32.2286ZM20.9246 38.2468C18.2084 38.2468 16.0532 40.3953 16.0532 42.9885C16.0532 45.5817 18.2084 47.7301 20.9246 47.7301C23.6408 47.7301 25.796 45.5817 25.796 42.9885C25.796 42.2992 25.6457 41.6471 25.3758 41.0586C24.6198 39.4099 22.9183 38.2468 20.9246 38.2468ZM40.4863 45.9064C40.251 45.9064 40.0412 45.9854 39.8772 46.1141C39.6563 46.2874 39.5273 46.5417 39.5273 46.8182C39.5273 47.2963 39.9309 47.7301 40.4863 47.7301C41.0418 47.7301 41.4454 47.2963 41.4454 46.8182C41.4454 46.4958 41.2679 46.1992 40.9751 46.0334C40.8341 45.9536 40.6684 45.9064 40.4863 45.9064Z"/>
</symbol>

<symbol id="Software Engineering" width="67" height="67" viewBox="0 0 67 67" fill="none">
<path fill-rule="evenodd" clip-rule="evenodd" d="M26.8832 14.0758C27.1258 13.8276 27.4595 13.6875 27.8081 13.6875H45.4953C47.1547 13.6875 48.5 15.0211 48.5 16.6662V50.7088C48.5 52.3539 47.1547 53.6875 45.4953 53.6875H21.5047C19.8453 53.6875 18.5 52.3539 18.5 50.7088V23.1716C18.5 22.8401 18.6301 22.5215 18.8628 22.2834L26.8832 14.0758ZM26.5204 18.1166V21.4695C26.5204 21.7045 26.3282 21.895 26.0911 21.895H22.8281L26.5204 18.1166ZM21.0755 24.4482H26.0911C27.7506 24.4482 29.0958 23.1146 29.0958 21.4695V16.2407H45.4953C45.7324 16.2407 45.9245 16.4312 45.9245 16.6662V50.7088C45.9245 50.9438 45.7324 51.1343 45.4953 51.1343H21.5047C21.2676 51.1343 21.0755 50.9438 21.0755 50.7088V24.4482ZM31.6865 25.8332C32.2692 26.2375 32.4109 27.0335 32.003 27.6111L26.5105 35.3896L32.003 43.1682C32.4109 43.7458 32.2692 44.5418 31.6865 44.9461C31.1039 45.3504 30.301 45.2099 29.8931 44.6323L23.8837 36.1217C23.5733 35.6821 23.5733 35.0971 23.8837 34.6575L29.8931 26.1469C30.301 25.5693 31.1039 25.4288 31.6865 25.8332ZM35.3605 25.8332C35.9432 25.4288 36.7461 25.5693 37.1539 26.1469L43.1633 34.6575C43.4737 35.0971 43.4737 35.6821 43.1633 36.1217L37.1539 44.6323C36.7461 45.2099 35.9432 45.3504 35.3605 44.9461C34.7779 44.5418 34.6362 43.7458 35.044 43.1682L40.5365 35.3896L35.044 27.6111C34.6362 27.0335 34.7779 26.2375 35.3605 25.8332Z"/>
</symbol>

<symbol id="Custom Software" width="67" height="67" viewBox="0 0 67 67" fill="none">
<path fill-rule="evenodd" clip-rule="evenodd" d="M29.5169 17.0948L29.5169 24.7752L37.1974 24.7752V17.0948L29.5169 17.0948ZM28.8177 14.6875L37.8966 14.6875C38.8399 14.6875 39.6046 15.4522 39.6046 16.3955V25.4745C39.6046 26.4178 38.8399 27.1825 37.8966 27.1825H28.8177C27.8744 27.1825 27.1096 26.4178 27.1096 25.4745L27.1096 16.3955C27.1096 15.4522 27.8744 14.6875 28.8177 14.6875ZM23.662 17.3327L27.035 20.7057L23.662 24.0788L21.9598 22.3766L22.427 21.9094H22.1002C21.8786 21.9094 21.699 22.089 21.699 22.3106V25.9789H19.2917V22.3106C19.2917 20.7595 20.5491 19.5021 22.1002 19.5021H22.427L21.9598 19.0349L23.662 17.3327ZM44.5912 21.9094H40.9229V19.5021L44.5912 19.5021C46.1423 19.5021 47.3997 20.7595 47.3997 22.3106V22.6145L47.8669 22.1473L49.5691 23.8495L46.1961 27.2225L42.823 23.8495L44.5252 22.1473L44.9924 22.6145V22.3106C44.9924 22.089 44.8128 21.9094 44.5912 21.9094ZM49.4058 29.7044L42.5278 29.7044C42.3062 29.7044 42.1266 29.8841 42.1266 30.1056V36.9836C42.1266 37.2052 42.3062 37.3848 42.5278 37.3848H49.4058C49.6274 37.3848 49.807 37.2052 49.807 36.9836V30.1056C49.807 29.8841 49.6274 29.7044 49.4058 29.7044ZM42.5278 27.2971L49.4058 27.2971C50.9569 27.2971 52.2143 28.5546 52.2143 30.1056V36.9836C52.2143 38.5347 50.9569 39.7921 49.4058 39.7921H42.5278C40.9767 39.7921 39.7193 38.5347 39.7193 36.9836V30.1056C39.7193 28.5545 40.9767 27.2971 42.5278 27.2971ZM16.9073 29.7044L16.9073 37.3848H24.5877V29.7044H16.9073ZM14.5 29.0052C14.5 28.0619 15.2647 27.2971 16.208 27.2971H25.287C26.2303 27.2971 26.995 28.0618 26.995 29.0052L26.995 38.0841C26.995 39.0274 26.2303 39.7921 25.287 39.7921H16.208C15.2647 39.7921 14.5 39.0274 14.5 38.0841L14.5 29.0052ZM27.1096 41.6148C27.1096 40.6715 27.8743 39.9068 28.8177 39.9068H37.8966C38.8399 39.9068 39.6046 40.6715 39.6046 41.6148V50.6937C39.6046 51.6371 38.8399 52.4018 37.8966 52.4018H28.8177C27.8744 52.4018 27.1096 51.6371 27.1096 50.6937V41.6148ZM29.5169 42.3141V49.9945H37.1974L37.1974 42.3141H29.5169ZM20.4953 39.9126L24.1205 43.5378L22.4183 45.24L21.699 44.5207V45.306C21.699 45.5276 21.8786 45.7072 22.1002 45.7072H25.7914V48.1145H22.1002C20.5491 48.1145 19.2917 46.8571 19.2917 45.306V44.5207L18.5723 45.24L16.8701 43.5378L20.4953 39.9126ZM44.9924 45.306V41.1104H47.3997V45.306C47.3997 46.8571 46.1423 48.1145 44.5912 48.1145H44.2873L44.7545 48.5817L43.0523 50.2839L39.6792 46.9109L43.0523 43.5378L44.7545 45.24L44.2873 45.7072H44.5912C44.8128 45.7072 44.9924 45.5276 44.9924 45.306Z"/>
</symbol>

<symbol id="Software QualityAssurance" width="67" height="67" viewBox="0 0 67 67" fill="none">
<path fill-rule="evenodd" clip-rule="evenodd" d="M27.2717 19.8788C26.5331 20.9863 26.107 22.3003 26.107 23.7003C26.107 23.8673 26.113 24.0329 26.1247 24.1967H40.8749C40.8867 24.0329 40.8927 23.8673 40.8927 23.7003C40.8927 22.1296 40.3621 20.6777 39.4571 19.4984C38.1153 17.7498 35.9531 16.6055 33.4998 16.6055C31.2057 16.6055 29.1764 17.6008 27.8272 19.1515C27.7728 19.3429 27.6719 19.524 27.5241 19.6771C27.4471 19.7567 27.3622 19.824 27.2717 19.8788ZM24.9265 18.9066C24.0883 20.313 23.607 21.9482 23.607 23.7003C23.607 24.0969 23.6319 24.4884 23.6803 24.8732C23.3589 25.1081 23.0467 25.3543 22.7445 25.6112H18.9453L16.0347 22.801C15.5381 22.3215 14.7468 22.3354 14.2673 22.8321C13.7877 23.3287 13.8016 24.12 14.2983 24.5995L17.5721 27.7605C17.8051 27.9855 18.1164 28.1112 18.4403 28.1112H20.3715C18.6145 30.415 17.4859 33.2018 17.2407 36.2319H15.1665C14.4761 36.2319 13.9165 36.7915 13.9165 37.4819C13.9165 38.1723 14.4761 38.7319 15.1665 38.7319H17.2407C17.4859 41.762 18.6145 44.5488 20.3715 46.8526H18.4403C18.1164 46.8526 17.8051 46.9783 17.5721 47.2033L14.2983 50.3643C13.8016 50.8438 13.7877 51.6351 14.2673 52.1318C14.7468 52.6284 15.5381 52.6423 16.0347 52.1628L18.9453 49.3526H22.7445C25.6184 51.7951 29.3849 53.2721 33.4998 53.2721C37.6148 53.2721 41.3813 51.7951 44.2552 49.3526H48.0544L50.9649 52.1628C51.4616 52.6423 52.2529 52.6284 52.7324 52.1318C53.2119 51.6351 53.1981 50.8438 52.7014 50.3643L49.4276 47.2033C49.1946 46.9783 48.8833 46.8526 48.5594 46.8526H46.6282C48.3851 44.5488 49.5138 41.762 49.759 38.7319H51.8332C52.5235 38.7319 53.0832 38.1723 53.0832 37.4819C53.0832 36.7915 52.5235 36.2319 51.8332 36.2319H49.759C49.5138 33.2018 48.3851 30.415 46.6282 28.1112H48.5594C48.8833 28.1112 49.1946 27.9855 49.4276 27.7605L52.7014 24.5995C53.1981 24.12 53.2119 23.3287 52.7324 22.8321C52.2529 22.3354 51.4616 22.3215 50.9649 22.801L48.0544 25.6112H44.2552C43.9529 25.3543 43.6408 25.1081 43.3194 24.8731C43.3678 24.4884 43.3927 24.0969 43.3927 23.7003C43.3927 21.9537 42.9107 20.3163 42.072 18.9077L44.6535 16.4152C45.1502 15.9357 45.1641 15.1443 44.6846 14.6477C44.205 14.1511 43.4137 14.1372 42.9171 14.6167L40.5156 16.9354C38.7202 15.1841 36.2354 14.1055 33.4998 14.1055C30.7706 14.1055 28.2824 15.1835 26.4841 16.9353L24.0826 14.6167C23.586 14.1372 22.7946 14.1511 22.3151 14.6477C21.8356 15.1443 21.8495 15.9357 22.3461 16.4152L24.9265 18.9066ZM41.5709 26.6967H34.7498V50.7185C37.9136 50.4455 40.7644 49.1466 42.9475 47.1749C45.6399 44.7432 47.3094 41.2968 47.3094 37.4819C47.3094 33.667 45.6398 30.2206 42.9475 27.7889C42.514 27.3974 42.0543 27.0324 41.5709 26.6967ZM32.2498 50.7185V26.6967H25.4288C24.9454 27.0324 24.4856 27.3974 24.0522 27.7889C21.3598 30.2206 19.6903 33.667 19.6903 37.4819C19.6903 41.2968 21.3598 44.7432 24.0522 47.1749C26.2352 49.1466 29.086 50.4455 32.2498 50.7185Z"/>
</symbol>

<symbol id="DevOps" width="67" height="67" viewBox="0 0 67 67" fill="none">
<path fill-rule="evenodd" clip-rule="evenodd" d="M28.2451 18.9479C28.2451 17.1472 29.7048 15.6875 31.5055 15.6875H35.3279C37.1285 15.6875 38.5882 17.1472 38.5882 18.9479V19.0331C38.5882 19.2903 38.7722 19.6089 39.1553 19.7679C39.5285 19.9229 39.8748 19.8323 40.0629 19.6443L40.1233 19.5839C41.3966 18.3105 43.461 18.3105 44.7344 19.5839L47.437 22.2865C48.7103 23.5598 48.7103 25.6243 47.437 26.8976L47.3766 26.958C47.1885 27.146 47.098 27.4924 47.2529 27.8656C47.4119 28.2486 47.7305 28.4326 47.9877 28.4326H48.073C49.8736 28.4326 51.3333 29.8923 51.3333 31.693V35.5154C51.3333 37.316 49.8736 38.7757 48.073 38.7757H47.9877C47.7305 38.7757 47.4119 38.9597 47.2529 39.3428C47.098 39.716 47.1886 40.0624 47.3766 40.2504L47.437 40.3108C48.7103 41.5841 48.7103 43.6485 47.437 44.9219L44.7344 47.6245C43.461 48.8978 41.3966 48.8978 40.1233 47.6245C39.9033 47.4045 39.4956 47.3022 39.0626 47.4785C38.886 47.5505 38.7076 47.6191 38.5277 47.6845C38.171 49.8605 36.2818 51.5208 34.0049 51.5208H32.8284C30.5515 51.5208 28.6623 49.8605 28.3057 47.6845C28.1257 47.6191 27.9474 47.5505 27.7707 47.4785C27.3378 47.3022 26.93 47.4045 26.7101 47.6245C25.4368 48.8978 23.3723 48.8978 22.099 47.6245L19.3964 44.9219C18.1231 43.6485 18.1231 41.5841 19.3964 40.3108L19.4568 40.2504C19.6448 40.0624 19.7354 39.716 19.5804 39.3428C19.4214 38.9597 19.1028 38.7757 18.8456 38.7757H18.7604C16.9597 38.7757 15.5 37.316 15.5 35.5154V31.693C15.5 29.8923 16.9597 28.4326 18.7604 28.4326H18.8456C19.1028 28.4326 19.4214 28.2486 19.5804 27.8656C19.7354 27.4924 19.6448 27.146 19.4568 26.958L19.3964 26.8976C18.123 25.6243 18.123 23.5598 19.3964 22.2865L22.099 19.5839C23.3723 18.3106 25.4368 18.3106 26.7101 19.5839L26.7705 19.6443C26.9585 19.8323 27.3049 19.9229 27.6781 19.7679C28.0611 19.6089 28.2451 19.2903 28.2451 19.0331V18.9479ZM28.2451 45.0082V39.7858C26.7169 39.4121 25.4663 38.2467 25.0168 36.6839L24.0189 33.2144C23.954 32.9886 23.954 32.7491 24.0189 32.5234L24.7026 30.1462C25.4387 27.5871 27.7799 25.8244 30.4428 25.8244C31.2866 25.8244 31.9706 26.5084 31.9706 27.3522V31.1532C31.9706 31.9518 32.618 32.5993 33.4167 32.5993C34.2153 32.5993 34.8627 31.9518 34.8627 31.1532V27.3522C34.8627 26.5084 35.5468 25.8244 36.3906 25.8244C39.0534 25.8244 41.3946 27.5871 42.1307 30.1462L42.8144 32.5234C42.8794 32.7491 42.8794 32.9886 42.8144 33.2144L41.8165 36.6839C41.367 38.2467 40.1164 39.4121 38.5882 39.7858V45.0082C39.707 44.7196 40.9824 44.9481 41.891 45.8567C42.188 46.1537 42.6696 46.1537 42.9666 45.8567L45.6692 43.1541C45.9662 42.8571 45.9662 42.3755 45.6692 42.0785L45.6088 42.0181C44.6101 41.0194 44.4554 39.561 44.944 38.3841C45.4283 37.2177 46.5672 36.2757 47.9877 36.2757H48.073C48.4929 36.2757 48.8333 35.9353 48.8333 35.5154V31.693C48.8333 31.273 48.4929 30.9326 48.073 30.9326H47.9877C46.5672 30.9326 45.4283 29.9906 44.944 28.8242C44.4554 27.6473 44.6101 26.189 45.6088 25.1902L45.6692 25.1298C45.9662 24.8328 45.9662 24.3512 45.6692 24.0542L42.9666 21.3516C42.6696 21.0546 42.188 21.0546 41.891 21.3516L41.8306 21.412C40.8319 22.4108 39.3735 22.5654 38.1966 22.0768C37.0302 21.5926 36.0882 20.4536 36.0882 19.0331V18.9479C36.0882 18.5279 35.7478 18.1875 35.3279 18.1875H31.5055C31.0855 18.1875 30.7451 18.5279 30.7451 18.9479V19.0331C30.7451 20.4536 29.8031 21.5926 28.6367 22.0768C27.4598 22.5654 26.0014 22.4108 25.0027 21.412L24.9423 21.3516C24.6453 21.0546 24.1637 21.0546 23.8667 21.3516L21.1641 24.0542C20.8671 24.3513 20.8671 24.8328 21.1641 25.1298L21.2245 25.1902C22.2233 26.189 22.3779 27.6473 21.8893 28.8242C21.4051 29.9906 20.2661 30.9326 18.8456 30.9326H18.7604C18.3404 30.9326 18 31.273 18 31.693V35.5154C18 35.9353 18.3404 36.2757 18.7604 36.2757H18.8456C20.2661 36.2757 21.4051 37.2177 21.8893 38.3841C22.3779 39.561 22.2233 41.0194 21.2245 42.0181L21.1641 42.0785C20.8671 42.3755 20.8671 42.8571 21.1641 43.1541L23.8667 45.8567C24.1638 46.1537 24.6453 46.1537 24.9423 45.8567C25.8509 44.9481 27.1263 44.7196 28.2451 45.0082ZM29.4706 28.4629C28.3486 28.7901 27.4405 29.6716 27.1052 30.8373L26.5209 32.8689L27.4194 35.9929C27.6614 36.834 28.4309 37.4134 29.3061 37.4134C30.1008 37.4134 30.7451 38.0576 30.7451 38.8524V46.9375C30.7451 48.0881 31.6778 49.0208 32.8284 49.0208H34.0049C35.1555 49.0208 36.0882 48.0881 36.0882 46.9375V38.8524C36.0882 38.0576 36.7325 37.4134 37.5272 37.4134C38.4025 37.4134 39.172 36.834 39.4139 35.9929L40.3125 32.8689L39.7281 30.8373C39.3928 29.6716 38.4848 28.7901 37.3627 28.4629V31.1532C37.3627 33.3325 35.596 35.0993 33.4167 35.0993C31.2373 35.0993 29.4706 33.3325 29.4706 31.1532V28.4629Z"/>
</symbol>

<symbol id="embedded" width="67" height="67" viewBox="0 0 67 67" fill="none">
<path fill-rule="evenodd" clip-rule="evenodd" d="M23.2273 17.4666C21.5621 17.9376 20.2501 19.2496 19.7791 20.9148H15.5V23.642H19.5909V26.3693H15.5V29.0966H19.5909V31.8239H15.5V34.5511H19.5909V37.2784H15.5V40.0057H19.5909V42.733H15.5V45.4602H19.7791C20.2501 47.1254 21.5621 48.4374 23.2273 48.9084V53.1875H25.9545V49.0966H28.6818V53.1875H31.4091V49.0966H34.1364V53.1875H36.8636V49.0966H39.5909V53.1875H42.3182V49.0966H45.0455V53.1875H47.7727V48.9084C49.4379 48.4374 50.7499 47.1254 51.2209 45.4602H55.5V42.733H51.4091V40.0057H55.5V37.2784H51.4091V34.5511H55.5V31.8239H51.4091V29.0966H55.5V26.3693H51.4091V23.642H55.5V20.9148H51.2209C50.7499 19.2496 49.4379 17.9376 47.7727 17.4666V13.1875H45.0455V17.2784H42.3182V13.1875H39.5909V17.2784H36.8636V13.1875H34.1364V17.2784H31.4091V13.1875H28.6818V17.2784H25.9545V13.1875H23.2273V17.4666ZM24.5909 20.0057C23.3357 20.0057 22.3182 21.0232 22.3182 22.2784V44.0966C22.3182 45.3518 23.3357 46.3693 24.5909 46.3693H46.4091C47.6643 46.3693 48.6818 45.3518 48.6818 44.0966V22.2784C48.6818 21.0232 47.6643 20.0057 46.4091 20.0057H24.5909ZM26.8636 27.733C26.8636 24.9715 29.1022 22.733 31.8636 22.733V25.4602C30.6084 25.4602 29.5909 26.4778 29.5909 27.733V30.6162C29.5909 31.4601 29.2557 32.2694 28.659 32.8661C28.4815 33.0436 28.4815 33.3314 28.659 33.5089C29.2557 34.1056 29.5909 34.9149 29.5909 35.7588V38.642C29.5909 39.8972 30.6084 40.9148 31.8636 40.9148V43.642C29.1022 43.642 26.8636 41.4035 26.8636 38.642V35.7588C26.8636 35.6382 26.8157 35.5226 26.7305 35.4374C25.4879 34.1948 25.4879 32.1802 26.7305 30.9376C26.8157 30.8524 26.8636 30.7368 26.8636 30.6162V27.733ZM39.1364 22.733C41.8978 22.733 44.1364 24.9715 44.1364 27.733V30.6162C44.1364 30.7368 44.1843 30.8524 44.2695 30.9376C45.5121 32.1802 45.5121 34.1948 44.2695 35.4374C44.1843 35.5226 44.1364 35.6382 44.1364 35.7588V38.642C44.1364 41.4035 41.8978 43.642 39.1364 43.642V40.9148C40.3916 40.9148 41.4091 39.8972 41.4091 38.642V35.7588C41.4091 34.9149 41.7443 34.1056 42.341 33.5089C42.5185 33.3314 42.5185 33.0436 42.341 32.8661C41.7443 32.2694 41.4091 31.4601 41.4091 30.6162V27.733C41.4091 26.4778 40.3916 25.4602 39.1364 25.4602V22.733Z"/>
</symbol>

</svg>
