<?xml version="1.0" encoding="UTF-8"?>
<svg xmlns="http://www.w3.org/2000/svg" xmlns:xlink="http://www.w3.org/1999/xlink" width="0" height="0">
<symbol id="Youtube" width="15" height="16" viewBox="0 0 15 16">
<path d="M14.6874 4.44132C14.6048 4.14203 14.4399 3.8684 14.2092 3.64785C13.9784 3.42731 13.6901 3.2676 13.3729 3.18474C12.1992 2.8761 7.49649 2.8761 7.49649 2.8761C5.5356 2.85397 3.57524 2.95215 1.62796 3.17004C1.31068 3.25895 1.02276 3.42234 0.791386 3.64478C0.560015 3.86721 0.392819 4.14135 0.305584 4.44132C0.0952058 5.57441 -0.00692164 6.72292 0.000419745 7.87303C-0.00742507 9.0232 0.0947064 10.1718 0.305584 11.3048C0.391023 11.6039 0.557859 11.8771 0.789705 12.0975C1.02155 12.3178 1.31042 12.4776 1.62796 12.5614C2.81732 12.87 7.49649 12.87 7.49649 12.87C9.45999 12.8922 11.423 12.794 13.3729 12.576C13.6901 12.4932 13.9784 12.3335 14.2092 12.1129C14.4399 11.8924 14.6048 11.6187 14.6874 11.3195C14.9032 10.1869 15.0079 9.03826 15.0004 7.88777C15.0166 6.7321 14.9117 5.57772 14.6874 4.44132ZM6.00199 10.0115V5.73465L9.91437 7.87303L6.00199 10.0115Z" fill="#E0E0E0"/>
</symbol>

<symbol id="instagram-wt" width="24" height="23" viewBox="0 0 24 23">
<path fill-rule="evenodd" clip-rule="evenodd" d="M17.6117 0.551758H6.38831C3.28906 0.551758 0.776611 3.0642 0.776611 6.16346V17.3869C0.776611 20.4861 3.28906 22.9986 6.38831 22.9986H17.6117C20.711 22.9986 23.2234 20.4861 23.2234 17.3869V6.16346C23.2234 3.0642 20.711 0.551758 17.6117 0.551758ZM16.8 11.0198C16.9481 12.0184 16.7775 13.0384 16.3125 13.9346C15.8475 14.8307 15.1118 15.5574 14.21 16.0114C13.3082 16.4653 12.2862 16.6233 11.2894 16.4629C10.2926 16.3025 9.37175 15.8319 8.65785 15.1179C7.94394 14.404 7.47332 13.4832 7.31292 12.4864C7.15252 11.4896 7.31052 10.4676 7.76443 9.5658C8.21834 8.66398 8.94506 7.92824 9.84122 7.46324C10.7374 6.99824 11.7573 6.82766 12.756 6.97575C13.7747 7.12681 14.7179 7.60151 15.4461 8.32972C16.1743 9.05793 16.649 10.001 16.8 11.0198ZM17.1686 4.4068C17.0233 4.68685 16.9699 5.00559 17.0162 5.31768C17.0634 5.63603 17.2118 5.93075 17.4393 6.15832C17.6669 6.38588 17.9616 6.53422 18.28 6.58143C18.5921 6.62771 18.9108 6.5744 19.1909 6.42909C19.4709 6.28378 19.698 6.05386 19.8399 5.77204C19.9817 5.49022 20.0311 5.17085 19.9809 4.85935C19.9308 4.54785 19.7838 4.26009 19.5607 4.037C19.3376 3.8139 19.0498 3.66683 18.7383 3.61671C18.4268 3.56658 18.1074 3.61596 17.8256 3.75781C17.5438 3.89965 17.3139 4.12675 17.1686 4.4068Z" fill="white"/>
</symbol>

<symbol id="linkedin" width="24" height="23" viewBox="0 0 24 23">
<path d="M5.80109 22.9986H1.14738V8.01198H5.80109V22.9986ZM3.47173 5.96767C1.98363 5.96767 0.776611 4.73507 0.776611 3.24694C0.776611 2.53213 1.06056 1.8466 1.56599 1.34116C2.07143 0.835713 2.75694 0.551758 3.47173 0.551758C4.18652 0.551758 4.87204 0.835713 5.37747 1.34116C5.8829 1.8466 6.16685 2.53213 6.16685 3.24694C6.16685 4.73507 4.95933 5.96767 3.47173 5.96767ZM23.2184 22.9986H18.5747V15.7032C18.5747 13.9645 18.5397 11.7348 16.1552 11.7348C13.7356 11.7348 13.3649 13.6238 13.3649 15.5779V22.9986H8.71617V8.01198H13.1795V10.0563H13.2446C13.8659 8.87881 15.3836 7.63619 17.6478 7.63619C22.3576 7.63619 23.2234 10.7377 23.2234 14.7662V22.9986H23.2184Z" fill="white"/>
</symbol>

<symbol id="telegram" width="24" height="21" viewBox="0 0 24 21">
<path d="M23.9316 2.54379L20.3098 19.6242C20.0363 20.8294 19.324 21.1295 18.3116 20.562L12.7927 16.4953L10.1301 19.0567C9.83525 19.3516 9.58922 19.5976 9.02087 19.5976L9.41777 13.9776L19.6454 4.73574C20.0903 4.3397 19.5486 4.11939 18.9545 4.51628L6.3103 12.4783L0.866867 10.7741C-0.316973 10.4046 -0.338404 9.59025 1.11375 9.02191L22.4049 0.819036C23.3907 0.449568 24.2531 1.03763 23.9316 2.54379Z" fill="white"/>
</symbol>

<symbol id="twitter" width="15" height="14" viewBox="0 0 15 14">
<path d="M14.9726 1.92003C14.411 2.18376 13.8161 2.35784 13.207 2.43668C13.8483 2.02553 14.3285 1.38075 14.5588 0.62142C13.9645 0.991405 13.3058 1.26073 12.6046 1.41072C12.1419 0.883029 11.5289 0.533038 10.8607 0.415096C10.1924 0.297155 9.50637 0.417862 8.90904 0.758475C8.31172 1.09909 7.83654 1.64054 7.5573 2.29877C7.27806 2.95699 7.21038 3.69514 7.36477 4.3986C4.80863 4.26993 2.5431 2.96066 1.02691 0.981405C0.751168 1.48126 0.607343 2.05138 0.610678 2.63134C0.610678 3.77129 1.15441 4.77325 1.97812 5.36189C1.48993 5.34531 1.01252 5.20452 0.585679 4.95124V4.9919C0.585402 5.74947 0.830836 6.4838 1.28034 7.07032C1.72985 7.65684 2.35574 8.05943 3.05183 8.20977C2.60078 8.33869 2.12837 8.35805 1.66938 8.26644C1.86703 8.91836 2.2505 9.48824 2.76631 9.89658C3.28211 10.3049 3.90453 10.5314 4.54676 10.5443C3.45899 11.4549 2.1159 11.9491 0.733173 11.9476C0.489433 11.9476 0.246318 11.9323 0.00195312 11.903C1.41171 12.8658 3.0509 13.3769 4.72488 13.3756C10.3834 13.3756 13.4739 8.37843 13.4739 4.05194C13.4739 3.91262 13.4739 3.77196 13.4645 3.63196C14.0682 3.16855 14.589 2.59321 15.002 1.93337L14.9726 1.92003Z" fill="#E0E0E0"/>
</symbol>

<symbol id="facebook" width="9.000000" height="15.000000" viewBox="0 0 9 15">
	<defs/>
	<path d="M9 0.42C9 0.31 8.95 0.2 8.88 0.12C8.8 0.04 8.69 0 8.59 0L6.54 0C5.51 -0.05 4.5 0.31 3.74 1.02C2.97 1.72 2.51 2.7 2.45 3.75L2.45 6L0.4 6C0.3 6 0.19 6.04 0.11 6.12C0.04 6.2 0 6.3 0 6.41L0 8.58C0 8.69 0.04 8.8 0.11 8.87C0.19 8.95 0.3 9 0.4 9L2.45 9L2.45 14.58C2.45 14.69 2.49 14.79 2.57 14.87C2.65 14.95 2.75 15 2.86 15L5.31 15C5.42 15 5.53 14.95 5.6 14.87C5.68 14.79 5.72 14.69 5.72 14.58L5.72 9L7.87 9C7.96 9 8.05 8.97 8.12 8.91C8.19 8.86 8.24 8.78 8.27 8.69L8.86 6.52C8.87 6.46 8.87 6.4 8.86 6.33C8.85 6.27 8.82 6.21 8.79 6.16C8.75 6.11 8.7 6.07 8.64 6.04C8.59 6.01 8.53 6 8.46 6L5.72 6L5.72 3.75C5.74 3.54 5.84 3.35 5.99 3.21C6.14 3.07 6.34 3 6.54 3L8.59 3C8.69 3 8.8 2.95 8.88 2.88C8.95 2.8 9 2.69 9 2.58L9 0.42Z" fill="#E0E0E0" fill-opacity="1.000000" fill-rule="nonzero"/>
</symbol>

</svg>
