<svg width="9.000000" height="15.000000" viewBox="0 0 9 15" fill="none" xmlns="http://www.w3.org/2000/svg" xmlns:xlink="http://www.w3.org/1999/xlink">
	<defs/>
	<path id="Vector" d="M9 0.42C9 0.31 8.95 0.2 8.88 0.12C8.8 0.04 8.69 0 8.59 0L6.54 0C5.51 -0.05 4.5 0.31 3.74 1.02C2.97 1.72 2.51 2.7 2.45 3.75L2.45 6L0.4 6C0.3 6 0.19 6.04 0.11 6.12C0.04 6.2 0 6.3 0 6.41L0 8.58C0 8.69 0.04 8.8 0.11 8.87C0.19 8.95 0.3 9 0.4 9L2.45 9L2.45 14.58C2.45 14.69 2.49 14.79 2.57 14.87C2.65 14.95 2.75 15 2.86 15L5.31 15C5.42 15 5.53 14.95 5.6 14.87C5.68 14.79 5.72 14.69 5.72 14.58L5.72 9L7.87 9C7.96 9 8.05 8.97 8.12 8.91C8.19 8.86 8.24 8.78 8.27 8.69L8.86 6.52C8.87 6.46 8.87 6.4 8.86 6.33C8.85 6.27 8.82 6.21 8.79 6.16C8.75 6.11 8.7 6.07 8.64 6.04C8.59 6.01 8.53 6 8.46 6L5.72 6L5.72 3.75C5.74 3.54 5.84 3.35 5.99 3.21C6.14 3.07 6.34 3 6.54 3L8.59 3C8.69 3 8.8 2.95 8.88 2.88C8.95 2.8 9 2.69 9 2.58L9 0.42Z" fill="#E0E0E0" fill-opacity="1.000000" fill-rule="nonzero"/>
</svg>
