<svg xmlns="http://www.w3.org/2000/svg" viewBox="0 0 126.9 127.39"><defs><style>.cls-1{fill:#a2c719;}</style></defs><title>Ресурс 10icon</title><g id="Слой_2" data-name="Слой 2"><g id="Слой_1-2" data-name="Слой 1"><path class="cls-1" d="M89.57,60.42V8.71A8.71,8.71,0,0,0,80.87,0H8.71A8.72,8.72,0,0,0,0,8.71v94.8a8.72,8.72,0,0,0,8.71,8.71H65.23a33.59,33.59,0,1,0,24.34-51.8ZM8.71,104.75a1.25,1.25,0,0,1-1.25-1.24V8.71A1.25,1.25,0,0,1,8.71,7.46H80.87a1.25,1.25,0,0,1,1.24,1.25V62.14a33.41,33.41,0,0,0-9.88,5.53c-.93-.35,1.66-.24-38.64-.24a3.73,3.73,0,1,0,0,7.46h32a33.35,33.35,0,0,0-3.83,7.47H33.59a3.73,3.73,0,0,0,0,7.46H60a33.63,33.63,0,0,0,1.6,14.93Zm84.6,15.18A26.13,26.13,0,1,1,119.43,93.8,26.16,26.16,0,0,1,93.31,119.93Z"/><path class="cls-1" d="M33.59,30.11H70.91a3.74,3.74,0,1,0,0-7.47H33.59a3.74,3.74,0,0,0,0,7.47Z"/><path class="cls-1" d="M33.59,45H70.91a3.74,3.74,0,1,0,0-7.47H33.59a3.74,3.74,0,0,0,0,7.47Z"/><path class="cls-1" d="M33.59,60H70.91a3.74,3.74,0,1,0,0-7.47H33.59a3.74,3.74,0,0,0,0,7.47Z"/><path class="cls-1" d="M22.39,26.37a3.73,3.73,0,1,1-3.73-3.73A3.73,3.73,0,0,1,22.39,26.37Z"/><path class="cls-1" d="M22.39,41.3a3.73,3.73,0,1,1-3.73-3.73A3.73,3.73,0,0,1,22.39,41.3Z"/><path class="cls-1" d="M22.39,56.23a3.73,3.73,0,1,1-3.73-3.73A3.74,3.74,0,0,1,22.39,56.23Z"/><path class="cls-1" d="M22.39,71.16a3.73,3.73,0,1,1-3.73-3.73A3.73,3.73,0,0,1,22.39,71.16Z"/><path class="cls-1" d="M22.39,86.09a3.73,3.73,0,1,1-3.73-3.73A3.73,3.73,0,0,1,22.39,86.09Z"/><path class="cls-1" d="M93.31,74.89a3.75,3.75,0,0,0-3.74,3.74V89.82H82.11a3.74,3.74,0,0,0,0,7.47h11.2A3.73,3.73,0,0,0,97,93.56V78.63A3.74,3.74,0,0,0,93.31,74.89Z"/></g></g></svg>