<svg xmlns="http://www.w3.org/2000/svg" viewBox="0 0 132.32 100.79"><defs><style>.cls-1{fill:#a2c719;}</style></defs><title>Ресурс 11icon</title><g id="Слой_2" data-name="Слой 2"><g id="Слой_1-2" data-name="Слой 1"><path class="cls-1" d="M104.93,15.51a11.63,11.63,0,1,0,11.63,11.63A11.63,11.63,0,0,0,104.93,15.51Zm0,15.5a3.88,3.88,0,1,1,3.87-3.87A3.88,3.88,0,0,1,104.93,31Z"/><path class="cls-1" d="M11.63,100.79H120.69a11.65,11.65,0,0,0,11.63-11.63V11.63A11.65,11.65,0,0,0,120.69,0H11.63A11.65,11.65,0,0,0,0,11.63V89.16A11.65,11.65,0,0,0,11.63,100.79ZM7.75,11.63a3.88,3.88,0,0,1,3.88-3.88H120.69a3.88,3.88,0,0,1,3.88,3.88v65.9H108.8V65.9A3.87,3.87,0,0,0,104.93,62h-6a35.7,35.7,0,0,0-1.38-3.32l4.24-4.24a3.88,3.88,0,0,0,0-5.49l-11-11a3.89,3.89,0,0,0-5.48,0l-4.24,4.24a34.18,34.18,0,0,0-3.32-1.38v-6A3.88,3.88,0,0,0,73.91,31H58.41a3.88,3.88,0,0,0-3.88,3.88v6a34.18,34.18,0,0,0-3.32,1.38L47,38a3.89,3.89,0,0,0-5.48,0l-11,11a3.87,3.87,0,0,0,0,5.49l4.24,4.24A35.78,35.78,0,0,0,33.38,62h-6a3.87,3.87,0,0,0-3.87,3.87V77.53H7.75ZM66.16,54.27a19.39,19.39,0,0,0-19,23.26H31.27V69.78h5A3.89,3.89,0,0,0,40,66.87,27,27,0,0,1,42.87,60a3.87,3.87,0,0,0-.6-4.71l-3.52-3.52,5.48-5.49,3.53,3.53a3.87,3.87,0,0,0,4.71.6,26.91,26.91,0,0,1,6.91-2.88,3.86,3.86,0,0,0,2.9-3.75v-5H70v5a3.86,3.86,0,0,0,2.9,3.75,26.91,26.91,0,0,1,6.91,2.88,3.87,3.87,0,0,0,4.71-.6l3.53-3.53,5.48,5.49-3.52,3.52a3.87,3.87,0,0,0-.6,4.71,27,27,0,0,1,2.87,6.91,3.89,3.89,0,0,0,3.76,2.91h5v7.75H85.15a19.39,19.39,0,0,0-19-23.26ZM77.79,73.66a11.58,11.58,0,0,1-.67,3.87H55.2a11.63,11.63,0,1,1,22.59-3.87Zm-70,11.62H124.57v3.88A3.88,3.88,0,0,1,120.69,93H11.63a3.88,3.88,0,0,1-3.88-3.88Z"/></g></g></svg>