<svg xmlns="http://www.w3.org/2000/svg" viewBox="0 0 121.65 93.4"><defs><style>.cls-1{fill:#a2c719;}</style></defs><title>Ресурс 12icon</title><g id="Слой_2" data-name="Слой 2"><g id="Слой_1-2" data-name="Слой 1"><path class="cls-1" d="M109,0H12.7A12.72,12.72,0,0,0,0,12.7v68A12.72,12.72,0,0,0,12.7,93.4H44.44a4.1,4.1,0,1,0,0-8.19H12.7A4.51,4.51,0,0,1,8.19,80.7v-68A4.51,4.51,0,0,1,12.7,8.19H109a4.51,4.51,0,0,1,4.51,4.51v68A4.51,4.51,0,0,1,109,85.21H77.21a4.1,4.1,0,0,0,0,8.19H109a12.71,12.71,0,0,0,12.7-12.7v-68A12.71,12.71,0,0,0,109,0Z"/><path class="cls-1" d="M50.06,65.73a4.09,4.09,0,0,0,0-5.79L38.57,48.45,50.06,37a4.09,4.09,0,1,0-5.79-5.79L32.78,42.66,21.29,31.17A4.1,4.1,0,1,0,15.49,37L27,48.45,15.49,59.94a4.1,4.1,0,0,0,5.8,5.79L32.78,54.24,44.27,65.73a4.09,4.09,0,0,0,5.79,0Z"/><path class="cls-1" d="M100.71,33.9,80.3,54.31l-8.57-8.57a4.1,4.1,0,0,0-5.8,5.8L77.4,63a4.09,4.09,0,0,0,5.79,0l23.32-23.31a4.1,4.1,0,0,0-5.8-5.79Z"/><path class="cls-1" d="M60.83,85.21a4.1,4.1,0,0,0-4.1,4.09,4.1,4.1,0,1,0,7-2.89A4.09,4.09,0,0,0,60.83,85.21Z"/></g></g></svg>