<svg xmlns="http://www.w3.org/2000/svg" viewBox="0 0 85.05 131.96"><defs><style>.cls-1{fill:#a2c719;}</style></defs><title>Ресурс 13icon</title><g id="Слой_2" data-name="Слой 2"><g id="Слой_1-2" data-name="Слой 1"><path class="cls-1" d="M58,93.3a11.6,11.6,0,1,0,11.6,11.6A11.61,11.61,0,0,0,58,93.3Zm0,15.46a3.87,3.87,0,1,1,3.87-3.86A3.87,3.87,0,0,1,58,108.76Z"/><circle class="cls-1" cx="42.53" cy="34.79" r="3.87"/><path class="cls-1" d="M42.53,15.46A19.33,19.33,0,1,0,61.86,34.79,19.36,19.36,0,0,0,42.53,15.46Zm0,30.93a11.6,11.6,0,1,1,11.59-11.6A11.61,11.61,0,0,1,42.53,46.39Z"/><path class="cls-1" d="M73.45,0H11.6A11.61,11.61,0,0,0,0,11.6V120.36A11.61,11.61,0,0,0,11.6,132H73.45a11.61,11.61,0,0,0,11.6-11.6V11.6A11.61,11.61,0,0,0,73.45,0Zm3.87,120.36a3.87,3.87,0,0,1-3.87,3.87H11.6a3.88,3.88,0,0,1-3.87-3.87V11.6A3.88,3.88,0,0,1,11.6,7.73H73.45a3.87,3.87,0,0,1,3.87,3.87Z"/><path class="cls-1" d="M65.72,62.37H19.33a3.87,3.87,0,1,0,0,7.73H65.72a3.87,3.87,0,1,0,0-7.73Z"/><circle class="cls-1" cx="65.72" cy="81.7" r="3.87"/><circle class="cls-1" cx="50.26" cy="81.7" r="3.87"/><circle class="cls-1" cx="34.79" cy="81.7" r="3.87"/><circle class="cls-1" cx="19.33" cy="81.7" r="3.87"/><circle class="cls-1" cx="19.33" cy="97.17" r="3.87"/><circle class="cls-1" cx="34.79" cy="97.17" r="3.87"/><circle class="cls-1" cx="34.79" cy="112.63" r="3.87"/><circle class="cls-1" cx="19.33" cy="112.63" r="3.87"/></g></g></svg>