<svg xmlns="http://www.w3.org/2000/svg" viewBox="0 0 162.43 162.43"><defs><style>.cls-1{fill:#a2c719;}</style></defs><title>Ресурс 14icon</title><g id="Слой_2" data-name="Слой 2"><g id="Слой_1-2" data-name="Слой 1"><path class="cls-1" d="M158.92,52A74.58,74.58,0,0,0,88,0,3.45,3.45,0,0,0,84.5,3.45v71A3.44,3.44,0,0,0,88,77.93h71a3.44,3.44,0,0,0,3.45-3.45A73,73,0,0,0,158.92,52ZM91.4,7a67.57,67.57,0,0,1,41.34,16.94H91.4Zm0,23.84h48.09a67.33,67.33,0,0,1,11.26,18.73H91.4Zm0,40.2V56.47h61.67A66.28,66.28,0,0,1,155.44,71Z"/><path class="cls-1" d="M157.07,84.5H86a3.45,3.45,0,0,0-2.44,1L33.35,135.72a3.46,3.46,0,0,0,0,4.89A74.49,74.49,0,0,0,160.52,88,3.44,3.44,0,0,0,157.07,84.5ZM86,155.53A67,67,0,0,1,40.73,138.1l46.7-46.7h66.1A67.69,67.69,0,0,1,86,155.53Z"/><path class="cls-1" d="M77.93,78V7a3.44,3.44,0,0,0-3.45-3.45A74.49,74.49,0,0,0,21.83,130.69a3.45,3.45,0,0,0,4.88,0L76.92,80.48A3.45,3.45,0,0,0,77.93,78ZM71,76.61l-46.7,46.7A67.59,67.59,0,0,1,71,10.51Z"/><rect class="cls-1" x="28.4" y="49.9" width="30.73" height="6.9"/><rect class="cls-1" x="51.44" y="61.46" width="7.69" height="6.9"/><rect class="cls-1" x="38.01" y="38.39" width="21.13" height="6.9"/><rect class="cls-1" x="39.92" y="61.46" width="7.69" height="6.9"/><rect class="cls-1" x="28.4" y="61.46" width="7.69" height="6.9"/><rect class="cls-1" x="105.21" y="111.37" width="7.69" height="6.9"/><rect class="cls-1" x="93.7" y="111.37" width="7.69" height="6.9"/><rect class="cls-1" x="82.17" y="111.37" width="7.69" height="6.9"/><rect class="cls-1" x="82.17" y="122.88" width="40.33" height="6.9"/></g></g></svg>