<svg xmlns="http://www.w3.org/2000/svg" viewBox="0 0 95.43 120.03"><defs><style>.cls-1{fill:#a2c719;}</style></defs><title>Ресурс 15icon</title><g id="Слой_2" data-name="Слой 2"><g id="Слой_1-2" data-name="Слой 1"><path class="cls-1" d="M64.42,0H11.16A11.16,11.16,0,0,0,0,11.16v97.71A11.16,11.16,0,0,0,11.16,120H84.28a11.16,11.16,0,0,0,11.15-11.16V31Zm15,28.28H67.16V16ZM7.36,112.66V7.36l52.44-1V31a4.68,4.68,0,0,0,4.68,4.68H88.07v77Z"/><rect class="cls-1" x="20.87" y="93.01" width="53.69" height="6.24"/><rect class="cls-1" x="20.87" y="34.39" width="31.87" height="6.24"/><polygon class="cls-1" points="63.39 54.27 66.85 54.27 53.48 67.64 43.02 57.18 19.91 80.3 24.32 84.71 43.02 66.01 53.48 76.46 71.26 58.68 71.26 62.13 77.5 62.13 77.5 48.02 63.39 48.02 63.39 54.27"/><rect class="cls-1" x="20.87" y="20.78" width="31.87" height="6.24"/></g></g></svg>