<svg xmlns="http://www.w3.org/2000/svg" viewBox="0 0 131.96 131.96"><defs><style>.cls-1{fill:#a2c719;}</style></defs><title>Ресурс 16icon</title><g id="Слой_2" data-name="Слой 2"><g id="Слой_1-2" data-name="Слой 1"><path class="cls-1" d="M19.59,61.86a11.53,11.53,0,0,0,8-3.26L39,64.29a11.32,11.32,0,0,0-.09,1.43,11.6,11.6,0,1,0,22.06-5L76.45,45.26A11.6,11.6,0,0,0,93,34.79a11.33,11.33,0,0,0-.53-3.46L106,21.25a11.59,11.59,0,1,0-5.18-9.65,11.4,11.4,0,0,0,.54,3.47L87.87,25.14A11.6,11.6,0,0,0,71,39.79L55.51,55.26a11.46,11.46,0,0,0-5-1.14,11.6,11.6,0,0,0-8.05,3.26L31.09,51.69a11.32,11.32,0,0,0,.1-1.43,11.6,11.6,0,1,0-11.6,11.6ZM112.37,7.73a3.87,3.87,0,1,1-3.86,3.87A3.88,3.88,0,0,1,112.37,7.73ZM81.44,30.93a3.87,3.87,0,1,1-3.86,3.86A3.86,3.86,0,0,1,81.44,30.93ZM50.52,61.86a3.87,3.87,0,1,1-3.87,3.86A3.86,3.86,0,0,1,50.52,61.86ZM19.59,46.39a3.87,3.87,0,1,1-3.87,3.87A3.87,3.87,0,0,1,19.59,46.39Z"/><path class="cls-1" d="M128.09,124.23H124V42.53a3.87,3.87,0,0,0-3.87-3.87H104.64a3.87,3.87,0,0,0-3.87,3.87v81.7H93V65.72a3.86,3.86,0,0,0-3.86-3.86H73.71a3.86,3.86,0,0,0-3.86,3.86v58.51H62.11V96.65a3.87,3.87,0,0,0-3.86-3.87H42.78a3.87,3.87,0,0,0-3.86,3.87v27.58H31.19v-43a3.87,3.87,0,0,0-3.87-3.87H11.86A3.87,3.87,0,0,0,8,81.19v43H3.87a3.87,3.87,0,1,0,0,7.73H128.09a3.87,3.87,0,1,0,0-7.73ZM108.51,46.39h7.73v77.84h-7.73ZM77.58,69.59h7.73v54.64H77.58ZM46.65,100.52h7.73v23.71H46.65ZM15.72,85.05h7.73v39.18H15.72Z"/></g></g></svg>