<svg xmlns="http://www.w3.org/2000/svg" viewBox="0 0 156.13 135.75"><defs><style>.cls-1{fill:#a2c719;}</style></defs><title>Ресурс 17icon</title><g id="Слой_2" data-name="Слой 2"><g id="Слой_1-2" data-name="Слой 1"><path class="cls-1" d="M76,36.27l5.72-5.72-6.47-6.47L69.5,29.8a23.08,23.08,0,0,0-8.22-3.41V18.31H52.13v8.08A23.13,23.13,0,0,0,43.9,29.8l-5.72-5.72-6.47,6.47,5.72,5.72A23.33,23.33,0,0,0,34,44.5H25.94v9.15H34a23.21,23.21,0,0,0,3.42,8.22l-5.72,5.72,6.47,6.47,5.72-5.72a23,23,0,0,0,8.23,3.42v8.08h9.15V71.76a22.85,22.85,0,0,0,8.22-3.42l5.72,5.72,6.47-6.47L76,61.87a22.85,22.85,0,0,0,3.42-8.22h8.08V44.5H79.39A23,23,0,0,0,76,36.27ZM56.7,63.07a14,14,0,1,1,14-14A14,14,0,0,1,56.7,63.07Z"/><path class="cls-1" d="M113.4,45.36V9.15A9.15,9.15,0,0,0,104.25,0H9.15A9.15,9.15,0,0,0,0,9.15V89a9.15,9.15,0,0,0,9.15,9.15h8.79L32,112.25l14.1-14.1h24V112.5a9.15,9.15,0,0,0,9.15,9.15H110l14.1,14.1,14.1-14.1H147a9.15,9.15,0,0,0,9.15-9.15v-58A9.15,9.15,0,0,0,147,45.36ZM42.35,89,32,99.31,21.73,89h-8a4.58,4.58,0,0,1-4.57-4.58V13.72a4.58,4.58,0,0,1,4.57-4.57h86a4.57,4.57,0,0,1,4.57,4.57v70.7A4.57,4.57,0,0,1,99.68,89Zm100.06,23.5h-8l-10.31,10.31L113.78,112.5H83.91a4.58,4.58,0,0,1-4.57-4.58V98.15H113.4V54.51h29A4.57,4.57,0,0,1,147,59.08v48.84A4.58,4.58,0,0,1,142.41,112.5Z"/></g></g></svg>