<svg xmlns="http://www.w3.org/2000/svg" viewBox="0 0 116.5 116.3"><defs><style>.cls-1{fill:#a2c719;}</style></defs><title>Ресурс 18icon</title><g id="Слой_2" data-name="Слой 2"><g id="Слой_1-2" data-name="Слой 1"><path class="cls-1" d="M115.4,38.7l-.2-.7a1,1,0,0,1-.1-.3l-12.6-35A4.13,4.13,0,0,0,98.6,0H17.8a4.23,4.23,0,0,0-3.9,2.7L1.4,37.5c-.1.2-.1.4-.2.6L.8,39.3a3,3,0,0,0-.2,1A15.77,15.77,0,0,0,0,44.5,17.46,17.46,0,0,0,11.6,61v51.2a4.06,4.06,0,0,0,4.1,4.1h86.7a4.06,4.06,0,0,0,4.1-4.1V60.3a17.69,17.69,0,0,0,10-15.8,17.26,17.26,0,0,0-.5-3.8A5.87,5.87,0,0,0,115.4,38.7ZM98.2,108.1H19.8V61.9c.2,0,.5-.1.7-.1a17.61,17.61,0,0,0,10.7-6.1A17.4,17.4,0,0,0,44.7,62a17.73,17.73,0,0,0,13.5-6.3A17.4,17.4,0,0,0,71.7,62a17.73,17.73,0,0,0,13.5-6.3,16.87,16.87,0,0,0,9,5.7c.1,0,.2.1.3.1.4.1.8.2,1.3.3.2,0,.5.1.7.1s.7.1,1,.1.5.1.7.1Zm3.2-54.6h0c-.5.1-.9.2-1.3.3a5.7,5.7,0,0,1-1.3.1,11,11,0,0,1-1.8-.2c-.5-.1-1-.3-1.4-.4-.1,0-.1,0-.2-.1a9.6,9.6,0,0,1-5.9-8v-.7a4.1,4.1,0,1,0-8.2,0,1.27,1.27,0,0,1-.1.6v.1a9.47,9.47,0,0,1-5.9,8c-.1,0-.1,0-.2.1a8.33,8.33,0,0,1-1.5.4,8.2,8.2,0,0,1-3.6,0c-.5-.1-1-.3-1.4-.4-.1,0-.1,0-.2-.1a9.6,9.6,0,0,1-5.9-8V45c0-.2-.1-.3-.1-.5a4.1,4.1,0,0,0-8.2,0,1.27,1.27,0,0,1-.1.6v.1a9.47,9.47,0,0,1-5.9,8c-.1,0-.1,0-.2.1a8.33,8.33,0,0,1-1.5.4,11,11,0,0,1-1.8.2,11,11,0,0,1-1.8-.2c-.5-.1-1-.3-1.5-.4-.1,0-.1,0-.2-.1a9.6,9.6,0,0,1-5.9-8v-.7a4.1,4.1,0,0,0-8.2,0,1.27,1.27,0,0,1-.1.6v.1a9.47,9.47,0,0,1-5.9,8c-.1,0-.1,0-.2.1a7.37,7.37,0,0,1-1.4.4,11,11,0,0,1-1.8.2c-.3,0-.7-.1-1-.1a.76.76,0,0,1-.4-.1H16a9.46,9.46,0,0,1-7.8-9.3,8.68,8.68,0,0,1,.4-2.6c0-.1.1-.3.1-.4l12-33.3h75l11.7,32.5a1,1,0,0,1,.1.3l.2.6c0,.1.1.3.1.4a8.68,8.68,0,0,1,.4,2.6,9.54,9.54,0,0,1-6.8,9Z"/><rect class="cls-1" x="10.25" y="18.31" width="91.27" height="8"/><path class="cls-1" d="M89.35,116.1H58.61V67.88H89.35Zm-22.74-8H81.35V75.88H66.61Z"/></g></g></svg>