<svg xmlns="http://www.w3.org/2000/svg" viewBox="0 0 105.41 92.17"><defs><style>.cls-1{fill:#a2c719;}</style></defs><title>Ресурс 19icon</title><g id="Слой_2" data-name="Слой 2"><g id="Слой_1-2" data-name="Слой 1"><path class="cls-1" d="M39.38,74.56a8.81,8.81,0,1,0,8.8,8.8A8.8,8.8,0,0,0,39.38,74.56Z"/><path class="cls-1" d="M77.8,74.56a8.81,8.81,0,1,0,8.8,8.8A8.8,8.8,0,0,0,77.8,74.56Z"/><path class="cls-1" d="M99.92,26.3H51.15a4.42,4.42,0,1,0,0,8.83H94.29l-2.73,9.26H47.69a4.1,4.1,0,1,0,0,8.19l41.44,0-2.57,8.66H37.12L33.84,35.12,30.71,9.65A5,5,0,0,0,27,5.47L6.17.15A4.95,4.95,0,1,0,3.73,9.74l17.59,4.49,6.85,51.41s.23,6,5.68,6H88.49c4.58,0,5.46-4.77,5.46-4.77l10.83-32.17S108,26.3,99.92,26.3Z"/></g></g></svg>