<svg xmlns="http://www.w3.org/2000/svg" viewBox="0 0 154.28 121.65"><defs><style>.cls-1{fill:#a2c719;}</style></defs><title>Ресурс 1icon</title><g id="Слой_2" data-name="Слой 2"><g id="Слой_1-2" data-name="Слой 1"><path class="cls-1" d="M114.08,85.13V51.54a37,37,0,0,0-25.25-35V11.69a11.69,11.69,0,0,0-23.38,0V16.5a37,37,0,0,0-25.25,35V85.13a11.63,11.63,0,0,0-9.79,11.46V97A11.63,11.63,0,0,0,42,108.6H60.31a17.38,17.38,0,0,0,33.66,0h18.29A11.63,11.63,0,0,0,123.87,97v-.4A11.63,11.63,0,0,0,114.08,85.13ZM77.14,112.61a8.35,8.35,0,0,1-7-3.81h14A8.35,8.35,0,0,1,77.14,112.61Zm-2.65-98V11.69a2.65,2.65,0,1,1,5.3,0V14.6ZM49.24,51.54a27.9,27.9,0,0,1,55.8,0V85H49.24ZM114.83,97a2.58,2.58,0,0,1-2.57,2.57H42A2.57,2.57,0,0,1,39.46,97v-.4A2.57,2.57,0,0,1,42,94h70.24a2.58,2.58,0,0,1,2.57,2.57V97Z"/><path class="cls-1" d="M145,42a4.52,4.52,0,0,0-5.79,6.94c3.76,3.14,5.95,8.19,6,13.86S143,74,139.2,77.29a4.52,4.52,0,0,0,3,7.95,4.46,4.46,0,0,0,2.94-1.1c5.9-5.07,9.25-12.88,9.19-21.42C154.22,54.39,150.85,46.84,145,42Z"/><path class="cls-1" d="M131.58,49.9a4.52,4.52,0,0,0-5.71,7,7.71,7.71,0,0,1,2.67,6,8.27,8.27,0,0,1-2.72,6.37,4.52,4.52,0,0,0,5.82,6.92,17.14,17.14,0,0,0,5.94-13.36A16.73,16.73,0,0,0,131.58,49.9Z"/><path class="cls-1" d="M28.41,56.91a4.52,4.52,0,0,0-5.71-7,16.72,16.72,0,0,0-6,13,17.14,17.14,0,0,0,5.94,13.36,4.52,4.52,0,0,0,5.82-6.92,8.24,8.24,0,0,1-2.72-6.37A7.74,7.74,0,0,1,28.41,56.91Z"/><path class="cls-1" d="M15,48.93A4.52,4.52,0,0,0,9.24,42C3.43,46.84.06,54.39,0,62.72c-.06,8.54,3.28,16.35,9.19,21.42a4.46,4.46,0,0,0,2.94,1.1,4.52,4.52,0,0,0,2.95-7.95C11.26,74,9,68.58,9,62.79S11.27,52.07,15,48.93Z"/></g></g></svg>