<svg xmlns="http://www.w3.org/2000/svg" viewBox="0 0 130.92 104.74"><defs><style>.cls-1{fill:#a2c719;}</style></defs><title>Ресурс 20icon</title><g id="Слой_2" data-name="Слой 2"><g id="Слой_1-2" data-name="Слой 1"><path class="cls-1" d="M127.72,3.2A10.54,10.54,0,0,0,120,0H10.91A10.54,10.54,0,0,0,3.2,3.2,10.54,10.54,0,0,0,0,10.91V93.83a10.52,10.52,0,0,0,3.2,7.7,10.51,10.51,0,0,0,7.71,3.21H120a10.94,10.94,0,0,0,10.91-10.91V10.91A10.54,10.54,0,0,0,127.72,3.2Zm-5.53,90.63a2.09,2.09,0,0,1-.64,1.53A2.13,2.13,0,0,1,120,96H10.91a2.1,2.1,0,0,1-1.53-.65,2.06,2.06,0,0,1-.65-1.53V52.37H122.19V93.83Zm0-67.65H8.73V10.91a2.2,2.2,0,0,1,2.18-2.18H120a2.19,2.19,0,0,1,2.18,2.18V26.18Z"/><rect class="cls-1" x="17.46" y="78.55" width="17.46" height="8.73"/><rect class="cls-1" x="43.64" y="78.55" width="26.18" height="8.73"/></g></g></svg>