<svg xmlns="http://www.w3.org/2000/svg" viewBox="0 0 156.95 112.66"><defs><style>.cls-1{fill:#a2c719;}</style></defs><title>Ресурс 21icon</title><g id="Слой_2" data-name="Слой 2"><g id="Слой_1-2" data-name="Слой 1"><path class="cls-1" d="M78.88,72.86a28.2,28.2,0,1,1,28.2-28.2A28.23,28.23,0,0,1,78.88,72.86Zm0-47.4a19.2,19.2,0,1,0,19.2,19.2A19.22,19.22,0,0,0,78.88,25.46Z"/><rect class="cls-1" x="51.78" y="80.37" width="54.2" height="12.05"/><path class="cls-1" d="M108,112.66H49.79A19.14,19.14,0,0,1,30.68,93.55V19.11A19.13,19.13,0,0,1,49.79,0H108a19.13,19.13,0,0,1,19.11,19.11V93.55A19.13,19.13,0,0,1,108,112.66ZM49.79,9A10.12,10.12,0,0,0,39.68,19.11V93.55a10.13,10.13,0,0,0,10.11,10.11H108a10.13,10.13,0,0,0,10.11-10.11V19.11A10.12,10.12,0,0,0,108,9Z"/><path class="cls-1" d="M144.86,96.91h-8.27v-9h8.27A3.09,3.09,0,0,0,148,84.83V28.54a3.09,3.09,0,0,0-3.09-3.08h-8.27v-9h8.27A12.1,12.1,0,0,1,157,28.54V84.83A12.1,12.1,0,0,1,144.86,96.91Z"/><path class="cls-1" d="M20.35,96.91H12.08A12.09,12.09,0,0,1,0,84.83V28.54A12.09,12.09,0,0,1,12.08,16.46h8.27v9H12.08A3.08,3.08,0,0,0,9,28.54V84.83a3.08,3.08,0,0,0,3.08,3.08h8.27Z"/></g></g></svg>