<svg xmlns="http://www.w3.org/2000/svg" viewBox="0 0 87.39 92.1"><defs><style>.cls-1{fill:#a2c719;}</style></defs><title>Ресурс 22icon</title><g id="Слой_2" data-name="Слой 2"><g id="Слой_1-2" data-name="Слой 1"><path class="cls-1" d="M70.8,58.93a16.54,16.54,0,0,0-12.24,5.41L32.2,51.66a16.36,16.36,0,0,0,0-11.21L58.56,27.77A16.57,16.57,0,1,0,54.2,16.59a15.67,15.67,0,0,0,.23,2.58L26.37,32.66a16.59,16.59,0,1,0,0,26.78l28.06,13.5a16.59,16.59,0,1,0,16.38-14Zm0-49.13a6.8,6.8,0,1,1-5,11.37l-1.37-1.5-.32-2a8.38,8.38,0,0,1-.1-1A6.81,6.81,0,0,1,70.8,9.8ZM23,48.35l-.69,1.94-1.71,1.25a6.8,6.8,0,1,1,0-11l1.7,1.24L23,43.75a7,7,0,0,1,.41,2.31A6.68,6.68,0,0,1,23,48.35Zm47.82,34a6.81,6.81,0,0,1-6.8-6.8,7.39,7.39,0,0,1,.1-1.07l.31-2,1.38-1.52a6.78,6.78,0,0,1,11.8,4.57A6.8,6.8,0,0,1,70.8,82.31Z"/></g></g></svg>