<svg xmlns="http://www.w3.org/2000/svg" viewBox="0 0 145.67 143.39"><defs><style>.cls-1{fill:#a2c719;}</style></defs><title>Ресурс 23icon</title><g id="Слой_2" data-name="Слой 2"><g id="Слой_1-2" data-name="Слой 1"><path class="cls-1" d="M145.15,113.19l-8.46-24.62a61.79,61.79,0,0,0,6.25-26.94A61.54,61.54,0,0,0,37.89,18a61.06,61.06,0,0,0-18,42.71A44.83,44.83,0,0,0,6.27,115.82l-5.83,17A8,8,0,0,0,10.61,143l17-5.83a45,45,0,0,0,19.17,4.33h.07A44.77,44.77,0,0,0,83,123a61.83,61.83,0,0,0,25.43-6.22l24.62,8.46a9.68,9.68,0,0,0,3.12.52,9.52,9.52,0,0,0,9-12.61ZM46.81,132.78h-.05a36.39,36.39,0,0,1-16.85-4.18,4.32,4.32,0,0,0-3.43-.27l-17.39,6,6-17.39a4.34,4.34,0,0,0-.27-3.44,36.15,36.15,0,0,1,5.9-41.92,61.74,61.74,0,0,0,51.48,50.81A36,36,0,0,1,46.81,132.78Zm89.94-15.9a.81.81,0,0,1-.87.2L109.52,108a4.28,4.28,0,0,0-3.44.27,52.91,52.91,0,0,1-24.59,6.1h-.08a53.07,53.07,0,0,1-52.86-52A52.86,52.86,0,0,1,82.26,8.68a52.87,52.87,0,0,1,45.9,77.53,4.34,4.34,0,0,0-.27,3.44L137,116A.81.81,0,0,1,136.75,116.88Z"/><path class="cls-1" d="M107.23,38.55H55.58a4.34,4.34,0,1,0,0,8.67h51.65a4.34,4.34,0,1,0,0-8.67Z"/><path class="cls-1" d="M107.23,56.38H55.58a4.34,4.34,0,1,0,0,8.67h51.65a4.34,4.34,0,1,0,0-8.67Z"/><path class="cls-1" d="M87.35,74.21H55.58a4.34,4.34,0,1,0,0,8.68H87.35a4.34,4.34,0,0,0,0-8.68Z"/></g></g></svg>