<svg xmlns="http://www.w3.org/2000/svg" viewBox="0 0 124.18 119.15"><defs><style>.cls-1{fill:#a2c719;}</style></defs><title>Ресурс 24icon</title><g id="Слой_2" data-name="Слой 2"><g id="Слой_1-2" data-name="Слой 1"><path class="cls-1" d="M102.41,0H21.77A21.8,21.8,0,0,0,0,21.77V71.51A21.79,21.79,0,0,0,21.77,93.28H73.13l24.59,24.59a4.39,4.39,0,0,0,3.08,1.28,4.26,4.26,0,0,0,1.67-.34,4.36,4.36,0,0,0,2.69-4V93.11a21.8,21.8,0,0,0,19-21.6V21.77A21.79,21.79,0,0,0,102.41,0Zm13.06,71.51a13.08,13.08,0,0,1-13.06,13.06H100.8a4.36,4.36,0,0,0-4.35,4.36v15.35L78,85.85a4.36,4.36,0,0,0-3.08-1.28H21.77A13.08,13.08,0,0,1,8.71,71.51V21.77A13.08,13.08,0,0,1,21.77,8.71h80.64a13.08,13.08,0,0,1,13.06,13.06Z"/><path class="cls-1" d="M94.14,30.83H30a4.36,4.36,0,0,0,0,8.71h64.1a4.36,4.36,0,0,0,0-8.71Z"/><path class="cls-1" d="M94.14,55.22H30a4.36,4.36,0,0,0,0,8.71h64.1a4.36,4.36,0,0,0,0-8.71Z"/></g></g></svg>