<svg xmlns="http://www.w3.org/2000/svg" viewBox="0 0 123.01 123.01"><defs><style>.cls-1{fill:#a2c719;}</style></defs><title>Ресурс 25icon</title><g id="Слой_2" data-name="Слой 2"><g id="Слой_1-2" data-name="Слой 1"><path class="cls-1" d="M108.59,9.61h-5.76V0H93.22V9.61H29.79V0H20.18V9.61H14.42A14.44,14.44,0,0,0,0,24v84.56A14.44,14.44,0,0,0,14.42,123h94.17A14.44,14.44,0,0,0,123,108.59V24A14.44,14.44,0,0,0,108.59,9.61ZM14.42,19.22h5.76v9.61h9.61V19.22H93.22v9.61h9.61V19.22h5.76A4.82,4.82,0,0,1,113.4,24V35.56H9.61V24A4.82,4.82,0,0,1,14.42,19.22Zm94.17,94.18H14.42a4.82,4.82,0,0,1-4.81-4.81V45.17H113.4v63.42A4.82,4.82,0,0,1,108.59,113.4ZM37.83,100.12l-6.35,6.35L17.82,92.8l6.34-6.35Zm-6.35,6.35-6.38-6.39L41.89,83.29l6.39,6.38Z"/></g></g></svg>