<svg xmlns="http://www.w3.org/2000/svg" viewBox="0 0 121.65 121.65"><defs><style>.cls-1{fill:#a2c719;}</style></defs><title>Ресурс 26icon</title><g id="Слой_2" data-name="Слой 2"><g id="Слой_1-2" data-name="Слой 1"><path class="cls-1" d="M60.83,43.09A17.74,17.74,0,1,0,78.57,60.83,17.76,17.76,0,0,0,60.83,43.09Zm0,25.34a7.61,7.61,0,1,1,7.6-7.6A7.61,7.61,0,0,1,60.83,68.43Z"/><path class="cls-1" d="M116.58,55.76H106.15A45.68,45.68,0,0,0,65.9,15.51V5.07a5.07,5.07,0,0,0-10.14,0V15.51A45.66,45.66,0,0,0,15.51,55.76H5.07a5.07,5.07,0,0,0,0,10.14H15.51a45.68,45.68,0,0,0,40.25,40.25v10.43a5.07,5.07,0,0,0,10.14,0V106.15A45.7,45.7,0,0,0,106.15,65.9h10.43a5.07,5.07,0,1,0,0-10.14ZM60.83,96.31A35.49,35.49,0,1,1,96.31,60.83,35.53,35.53,0,0,1,60.83,96.31Z"/></g></g></svg>