<svg xmlns="http://www.w3.org/2000/svg" viewBox="0 0 80.39 95.73"><defs><style>.cls-1{fill:#a2c719;}</style></defs><title>Ресурс 27icon</title><g id="Слой_2" data-name="Слой 2"><g id="Слой_1-2" data-name="Слой 1"><path class="cls-1" d="M28,28a17.23,17.23,0,1,0,24.37,0A17.25,17.25,0,0,0,28,28ZM44.26,44.26a5.76,5.76,0,1,1,1.68-4.07A5.74,5.74,0,0,1,44.26,44.26Z"/><path class="cls-1" d="M11.76,11.76a40.25,40.25,0,0,0,0,56.83L36.05,94a5.74,5.74,0,0,0,8.29,0L68.67,68.59A40.21,40.21,0,0,0,11.76,11.76ZM60.5,60.5l-.08.09L40.19,81.68,20,60.59l-.09-.09a28.72,28.72,0,1,1,40.62,0Z"/></g></g></svg>