<svg xmlns="http://www.w3.org/2000/svg" viewBox="0 0 101.09 115.02"><defs><style>.cls-1{fill:#a2c719;}</style></defs><title>Ресурс 2icon</title><g id="Слой_2" data-name="Слой 2"><g id="Слой_1-2" data-name="Слой 1"><path class="cls-1" d="M87.61,68.18V16.85A16.86,16.86,0,0,0,68,.23c-8,1.3-14,8.76-14,17.34V94.8a13.48,13.48,0,0,1-27,0V87.48A10.12,10.12,0,0,0,33.7,78V72.3A23.61,23.61,0,0,0,47.18,51V24a3.37,3.37,0,0,0-3.37-3.37H40.44V3.37A3.37,3.37,0,0,0,37.07,0h-27A3.37,3.37,0,0,0,6.74,3.37v17.3H3.37A3.37,3.37,0,0,0,0,24V51A23.61,23.61,0,0,0,13.48,72.3V78a10.12,10.12,0,0,0,6.74,9.53V94.8a20.22,20.22,0,1,0,40.43,0V17.57c0-5.32,3.61-9.91,8.39-10.69a10.11,10.11,0,0,1,11.83,10V68.18A16.89,16.89,0,0,0,67.39,84.69V98.17a3.37,3.37,0,0,0,3.37,3.37h3.37v10.11A3.37,3.37,0,0,0,77.5,115H91a3.37,3.37,0,0,0,3.37-3.37V101.54h3.37a3.37,3.37,0,0,0,3.37-3.37V84.69A16.89,16.89,0,0,0,87.61,68.18ZM33.7,20.67H27V6.74H33.7ZM13.48,6.74h6.74V20.67H13.48ZM6.74,51V27.41h33.7V51a16.85,16.85,0,0,1-33.7,0ZM23.59,74.58A23.45,23.45,0,0,0,27,74.34V78a3.37,3.37,0,0,1-6.74,0V74.34A23.35,23.35,0,0,0,23.59,74.58Zm64,33.7H80.87v-6.74h6.74ZM94.35,94.8H74.13V84.69a10.11,10.11,0,1,1,20.22,0Z"/><path class="cls-1" d="M16.85,40.89H30.33a3.37,3.37,0,1,0,0-6.74H16.85a3.37,3.37,0,0,0,0,6.74Z"/><path class="cls-1" d="M33.7,51a3.37,3.37,0,0,0-3.37-3.37H16.85a3.37,3.37,0,1,0,0,6.73H30.33A3.36,3.36,0,0,0,33.7,51Z"/></g></g></svg>