<svg xmlns="http://www.w3.org/2000/svg" viewBox="0 0 121.77 121.65"><defs><style>.cls-1{fill:#a2c719;}</style></defs><title>Ресурс 30icon</title><g id="Слой_2" data-name="Слой 2"><g id="Слой_1-2" data-name="Слой 1"><path class="cls-1" d="M74.77,28.25v-9.5h9.49v9.5ZM28,18.75h-9.5v9.5H28Zm18.75,0h-9.5v9.5h9.5ZM103,28.25v-9.5H93.52v9.5Zm-74.76,65h-9.5v9.49h9.5ZM37,102.77h9.49V93.28H37ZM65.51,28.25v-9.5H56v9.5Zm56.26,73.18L101.6,121.65,68.81,89.76a16.67,16.67,0,0,1-4-6.57L64.68,83,59.61,60.3l22.6,5.14.22.07a16.82,16.82,0,0,1,6.54,4Zm-13.51.11-26-25.26-.58-.52L75,82.47c.16.19.33.38.5.56l26,25.28ZM14.24,112a4.75,4.75,0,0,1-4.75-4.75v-93a4.75,4.75,0,0,1,4.75-4.75h93A4.75,4.75,0,0,1,112,14.24V78.72l9.5,9.23V14.24A14.26,14.26,0,0,0,107.28,0h-93A14.26,14.26,0,0,0,0,14.24v93a14.26,14.26,0,0,0,14.24,14.25H87.85L78.09,112Z"/></g></g></svg>