<svg xmlns="http://www.w3.org/2000/svg" viewBox="0 0 107.72 102.71"><defs><style>.cls-1{fill:#a2c719;}</style></defs><title>Ресурс 31icon</title><g id="Слой_2" data-name="Слой 2"><g id="Слой_1-2" data-name="Слой 1"><path class="cls-1" d="M107.5,38.79a4.52,4.52,0,0,0-3.65-3.09L72.1,31.07,57.9,2.32c-1.53-3.09-6.59-3.09-8.12,0L35.57,31.07,3.87,35.7a4.53,4.53,0,0,0-2.5,7.73L24.3,65.81,18.9,97.43a4.52,4.52,0,0,0,4.46,5.28,4.58,4.58,0,0,0,2.12-.52L53.84,87.27l28.42,14.92a4.52,4.52,0,0,0,6.56-4.78L83.39,65.8l23-22.38A4.5,4.5,0,0,0,107.5,38.79ZM75.35,61a4.55,4.55,0,0,0-1.3,4l4.28,24.91L55.94,78.15a4.54,4.54,0,0,0-4.22,0L29.37,89.91,33.62,65a4.54,4.54,0,0,0-1.3-4L14.24,43.34l25-3.66a4.48,4.48,0,0,0,3.4-2.46l11.2-22.67L65,37.21a4.52,4.52,0,0,0,3.4,2.47l25,3.66Z"/></g></g></svg>