<svg xmlns="http://www.w3.org/2000/svg" viewBox="0 0 155.05 109.02"><defs><style>.cls-1{fill:#a2c719;}</style></defs><title>Ресурс 32icon</title><g id="Слой_2" data-name="Слой 2"><g id="Слой_1-2" data-name="Слой 1"><path class="cls-1" d="M141.43,0H13.63A13.64,13.64,0,0,0,0,13.63V95.39A13.64,13.64,0,0,0,13.63,109h127.8a13.64,13.64,0,0,0,13.62-13.63V13.63A13.64,13.64,0,0,0,141.43,0ZM146,95.39a4.55,4.55,0,0,1-4.54,4.55H13.63a4.55,4.55,0,0,1-4.54-4.55V13.63a4.54,4.54,0,0,1,4.54-4.54h127.8A4.54,4.54,0,0,1,146,13.63Z"/><path class="cls-1" d="M56.51,53.28a16.65,16.65,0,1,0-25.2,0A25.75,25.75,0,0,0,18.17,75.71v3a4.54,4.54,0,0,0,4.54,4.54h42.4a4.54,4.54,0,0,0,4.54-4.54v-3A25.73,25.73,0,0,0,56.51,53.28ZM36.34,42.4A7.57,7.57,0,1,1,43.91,50,7.58,7.58,0,0,1,36.34,42.4Zm-9,31.8a16.66,16.66,0,0,1,33.18,0Z"/><path class="cls-1" d="M132.34,68.14H83.89a4.54,4.54,0,1,0,0,9.08h48.45a4.54,4.54,0,0,0,0-9.08Z"/><path class="cls-1" d="M132.34,50H83.89a4.54,4.54,0,1,0,0,9.08h48.45a4.54,4.54,0,0,0,0-9.08Z"/><path class="cls-1" d="M83.89,40.88h18.17a4.54,4.54,0,0,0,0-9.08H83.89a4.54,4.54,0,1,0,0,9.08Z"/></g></g></svg>