<svg xmlns="http://www.w3.org/2000/svg" viewBox="0 0 123.28 123.28"><defs><style>.cls-1{fill:#a2c719;}</style></defs><title>Ресурс 33icon</title><g id="Слой_2" data-name="Слой 2"><g id="Слой_1-2" data-name="Слой 1"><path class="cls-1" d="M107.34,5.62,71.8.15A17.88,17.88,0,0,0,57.74,4.74L2.92,59.56a10,10,0,0,0,0,14.11L49.6,120.36a10,10,0,0,0,14.12,0l54.82-54.82a17.78,17.78,0,0,0,4.59-14.06l-5.48-35.54A12.92,12.92,0,0,0,107.34,5.62Zm-.14,14.66L112,52.81a10.42,10.42,0,0,1-2.51,7.49L58.92,110.86a2.87,2.87,0,0,1-4,0L12.41,68.4a2.84,2.84,0,0,1,0-4L63,13.8a10.55,10.55,0,0,1,7.49-2.51L103,16.08A5.55,5.55,0,0,1,107.2,20.28Z"/><circle class="cls-1" cx="90.36" cy="32.93" r="8.38"/></g></g></svg>