<svg xmlns="http://www.w3.org/2000/svg" viewBox="0 0 119.91 119.91"><defs><style>.cls-1{fill:#a2c719;}</style></defs><title>Ресурс 34icon</title><g id="Слой_2" data-name="Слой 2"><g id="Слой_1-2" data-name="Слой 1"><path class="cls-1" d="M119.83,4s0,0,0-.06a4.86,4.86,0,0,0-.41-1.16l-.15-.28a4.43,4.43,0,0,0-.79-1.06A4.72,4.72,0,0,0,117.4.66l-.27-.14a5.31,5.31,0,0,0-1.19-.43h0a5.65,5.65,0,0,0-1.3-.07l-.28,0A4.78,4.78,0,0,0,113,.36L3.11,45.33a5,5,0,0,0,.45,9.41L51,69l14.22,47.39a5,5,0,0,0,4.54,3.55H70a5,5,0,0,0,4.62-3.11l45-109.93h0a5.61,5.61,0,0,0,.31-1.27l0-.32A5.39,5.39,0,0,0,119.83,4ZM20,49.22,93.83,19,53.54,59.3ZM70.68,99.94,60.61,66.36,100.9,26.08Z"/><path class="cls-1" d="M43.51,76.4a5,5,0,0,0-7.07,0L24,88.89A5,5,0,0,0,31,96L43.51,83.47A5,5,0,0,0,43.51,76.4Z"/><path class="cls-1" d="M16,76.4A5,5,0,0,0,9,76.4l-7.5,7.5A5,5,0,1,0,8.53,91L16,83.47A5,5,0,0,0,16,76.4Z"/><path class="cls-1" d="M43.51,103.88a5,5,0,0,0-7.07,0L29,111.38A5,5,0,1,0,36,118.44l7.5-7.49A5,5,0,0,0,43.51,103.88Z"/></g></g></svg>