<svg xmlns="http://www.w3.org/2000/svg" viewBox="0 0 147.75 143.13"><defs><style>.cls-1{fill:#a2c719;}</style></defs><title>Ресурс 35icon</title><g id="Слой_2" data-name="Слой 2"><g id="Слой_1-2" data-name="Слой 1"><path class="cls-1" d="M133.9,18.47H76.35a4.35,4.35,0,0,0-.65-.77L60,2.58A9.18,9.18,0,0,0,53.56,0H13.85A13.85,13.85,0,0,0,0,13.85V97a13.85,13.85,0,0,0,13.85,13.85H55.41a4.62,4.62,0,0,0,0-9.23H13.85A4.62,4.62,0,0,1,9.23,97V13.85a4.62,4.62,0,0,1,4.62-4.62H53.56L69,24.07a9.23,9.23,0,0,0,7.34,3.63H133.9a4.62,4.62,0,0,1,4.62,4.62V97a4.62,4.62,0,0,1-4.62,4.62H92.34a4.62,4.62,0,0,0,0,9.23H133.9A13.85,13.85,0,0,0,147.75,97V32.32A13.85,13.85,0,0,0,133.9,18.47Z"/><path class="cls-1" d="M90.2,92.11a4.61,4.61,0,1,0,6.64-6.41l-.11-.11L77.14,66a4.62,4.62,0,0,0-6.53,0L51,85.59a4.62,4.62,0,0,0,6.42,6.64l.11-.12L69.26,80.4v58.12a4.62,4.62,0,0,0,9.23,0V80.4Z"/></g></g></svg>