<svg xmlns="http://www.w3.org/2000/svg" viewBox="0 0 100.84 75.91"><defs><style>.cls-1{fill:#a2c719;}</style></defs><title>Ресурс 36icon</title><g id="Слой_2" data-name="Слой 2"><g id="Слой_1-2" data-name="Слой 1"><path class="cls-1" d="M95.81,74.57H28.38a5,5,0,0,1,0-10.06H95.81a5,5,0,0,1,0,10.06Z"/><path class="cls-1" d="M95.81,43H28.38a5,5,0,0,1,0-10.07H95.81a5,5,0,0,1,0,10.07Z"/><path class="cls-1" d="M95.81,11.4H28.38a5,5,0,1,1,0-10.06H95.81a5,5,0,1,1,0,10.06Z"/><circle class="cls-1" cx="6.76" cy="6.76" r="6.76"/><circle class="cls-1" cx="6.76" cy="37.95" r="6.76"/><circle class="cls-1" cx="6.76" cy="69.15" r="6.76"/></g></g></svg>