<svg xmlns="http://www.w3.org/2000/svg" viewBox="0 0 154.67 138.96"><defs><style>.cls-1{fill:#a2c719;}</style></defs><title>Ресурс 37icon</title><g id="Слой_2" data-name="Слой 2"><g id="Слой_1-2" data-name="Слой 1"><path class="cls-1" d="M34.85,115.05a68.36,68.36,0,0,1,0-107A4.53,4.53,0,0,0,29.2,1a77.43,77.43,0,0,0,0,121.15,4.53,4.53,0,0,0,5.65-7.09Z"/><path class="cls-1" d="M125.47,1a4.53,4.53,0,0,0-5.65,7.09,68.37,68.37,0,0,1,0,107,4.53,4.53,0,0,0,5.65,7.09A77.43,77.43,0,0,0,125.47,1Z"/><path class="cls-1" d="M49.94,96.14A44.12,44.12,0,0,1,50,27,4.53,4.53,0,1,0,44.3,19.9a53.18,53.18,0,0,0,0,83.33,4.53,4.53,0,1,0,5.64-7.09Z"/><path class="cls-1" d="M110.36,19.9A4.53,4.53,0,0,0,104.72,27a44.11,44.11,0,0,1,0,69.15,4.53,4.53,0,0,0,5.64,7.09,53.17,53.17,0,0,0,0-83.33Z"/><path class="cls-1" d="M77.33,39A22.66,22.66,0,0,0,72.8,83.83v50.6a4.53,4.53,0,0,0,9.06,0V83.83A22.66,22.66,0,0,0,77.33,39Zm0,36.25a13.6,13.6,0,1,1,13.6-13.6A13.61,13.61,0,0,1,77.33,75.22Z"/></g></g></svg>