<svg xmlns="http://www.w3.org/2000/svg" viewBox="0 0 133.16 133.16"><defs><style>.cls-1{fill:#a2c719;}</style></defs><title>Ресурс 38icon</title><g id="Слой_2" data-name="Слой 2"><g id="Слой_1-2" data-name="Слой 1"><path class="cls-1" d="M78.28,98.05a3.9,3.9,0,1,1-3.9-3.9A3.89,3.89,0,0,1,78.28,98.05Z"/><path class="cls-1" d="M117.3,113.66a3.91,3.91,0,1,1-3.9-3.91A3.91,3.91,0,0,1,117.3,113.66Z"/><path class="cls-1" d="M129.26,0H3.9A3.91,3.91,0,0,0,0,3.9V129.26a3.91,3.91,0,0,0,3.9,3.9H129.26a3.91,3.91,0,0,0,3.9-3.9V3.9A3.91,3.91,0,0,0,129.26,0Zm-3.9,31.21H101.69V7.8h23.67ZM93.89,7.8V31.21H7.8V7.8ZM7.8,125.36V39H125.36v86.35Z"/><path class="cls-1" d="M19.77,23.41h7.8a3.91,3.91,0,0,0,0-7.81h-7.8a3.91,3.91,0,1,0,0,7.81Z"/><path class="cls-1" d="M43.17,23.41H51a3.91,3.91,0,0,0,0-7.81H43.17a3.91,3.91,0,0,0,0,7.81Z"/><path class="cls-1" d="M66.58,23.41h7.8a3.91,3.91,0,0,0,0-7.81h-7.8a3.91,3.91,0,0,0,0,7.81Z"/><path class="cls-1" d="M74.38,78.54h3.9v3.91a3.91,3.91,0,0,0,7.81,0V78.54H90a3.9,3.9,0,0,0,0-7.8h-3.9V51.24a3.91,3.91,0,1,0-7.81,0v19.5h-3.9a3.9,3.9,0,1,0,0,7.8Z"/><path class="cls-1" d="M113.4,55.14h-3.91v-3.9a3.9,3.9,0,1,0-7.8,0v3.9h-3.9a3.9,3.9,0,0,0,0,7.8h3.9V82.45a3.9,3.9,0,1,0,7.8,0V62.94h3.91a3.9,3.9,0,0,0,0-7.8Z"/><path class="cls-1" d="M35.37,64.56l5.05,5a3.9,3.9,0,0,0,5.51,0L61.54,54A3.9,3.9,0,0,0,56,48.48L43.17,61.32l-5-5a3.91,3.91,0,0,0-5.52,0l-8.94,8.94v-14a3.91,3.91,0,1,0-7.81,0V82.45a3.91,3.91,0,0,0,3.91,3.9h39a3.91,3.91,0,0,0,0-7.81H23.67V76.26Z"/><path class="cls-1" d="M58.78,94.15h-39a3.91,3.91,0,0,0-3.91,3.9v15.61a3.91,3.91,0,0,0,3.91,3.9h39a3.91,3.91,0,0,0,3.9-3.9V98.05A3.91,3.91,0,0,0,58.78,94.15Zm-3.9,15.6H23.67V102H54.88Z"/><path class="cls-1" d="M113.4,94.15H90a3.9,3.9,0,1,0,0,7.8H113.4a3.9,3.9,0,0,0,0-7.8Z"/><path class="cls-1" d="M97.79,109.75H74.38a3.91,3.91,0,0,0,0,7.81H97.79a3.91,3.91,0,0,0,0-7.81Z"/></g></g></svg>