<svg xmlns="http://www.w3.org/2000/svg" viewBox="0 0 167.35 138.24"><defs><style>.cls-1{fill:#a2c719;}</style></defs><title>Ресурс 39icon</title><g id="Слой_2" data-name="Слой 2"><g id="Слой_1-2" data-name="Слой 1"><path class="cls-1" d="M149.16,36.38h-131A18.21,18.21,0,0,0,0,54.57v29.1a18.21,18.21,0,0,0,18.19,18.19h131a18.21,18.21,0,0,0,18.19-18.19V54.57A18.21,18.21,0,0,0,149.16,36.38Zm10.91,47.29a10.93,10.93,0,0,1-10.91,10.92h-131A10.93,10.93,0,0,1,7.28,83.67V54.57A10.92,10.92,0,0,1,18.19,43.66h131a10.92,10.92,0,0,1,10.91,10.91Z"/><path class="cls-1" d="M83.67,0A3.64,3.64,0,0,0,80,3.64V40a3.64,3.64,0,1,0,7.27,0V3.64A3.64,3.64,0,0,0,83.67,0Z"/><path class="cls-1" d="M83.67,94.59A3.64,3.64,0,0,0,80,98.23v36.38a3.64,3.64,0,0,0,7.27,0V98.23A3.64,3.64,0,0,0,83.67,94.59Z"/><path class="cls-1" d="M119.73,39.05C113.07,15,99.26,0,83.67,0S54.28,15,47.61,39.05a3.64,3.64,0,0,0,7,1.94C60.29,20.51,71.7,7.28,83.67,7.28S107.06,20.51,112.73,41a3.63,3.63,0,0,0,3.5,2.67,3.67,3.67,0,0,0,1-.14A3.62,3.62,0,0,0,119.73,39.05Z"/><path class="cls-1" d="M117.2,94.72a3.62,3.62,0,0,0-4.47,2.54C107.06,117.73,95.65,131,83.67,131S60.29,117.73,54.62,97.26a3.64,3.64,0,0,0-7,1.93c6.67,24.09,20.48,39.05,36.06,39.05s29.4-15,36.06-39.05A3.63,3.63,0,0,0,117.2,94.72Z"/><path class="cls-1" d="M145.53,38.4a69,69,0,0,0-123.71,0,3.64,3.64,0,1,0,6.51,3.24,61.75,61.75,0,0,1,110.69,0,3.64,3.64,0,0,0,6.51-3.24Z"/><path class="cls-1" d="M143.89,95A3.65,3.65,0,0,0,139,96.6a61.74,61.74,0,0,1-110.68,0,3.64,3.64,0,1,0-6.51,3.24,69,69,0,0,0,123.71,0A3.63,3.63,0,0,0,143.89,95Z"/><path class="cls-1" d="M99.1,51a3.61,3.61,0,0,0-4.41,2.65l-4.24,17-3.33-10c-1-3-5.91-3-6.9,0l-3.33,10-4.24-17a3.64,3.64,0,1,0-7.06,1.76l7.28,29.1a3.61,3.61,0,0,0,3.39,2.75,3.39,3.39,0,0,0,3.59-2.48l3.82-11.47,3.82,11.47A3.66,3.66,0,0,0,91,87.31h.13a3.6,3.6,0,0,0,3.39-2.75l7.28-29.1A3.64,3.64,0,0,0,99.1,51Z"/><path class="cls-1" d="M55.45,51A3.63,3.63,0,0,0,51,53.69l-4.24,17-3.32-10c-1-3-5.91-3-6.91,0l-3.32,10L29,53.69a3.64,3.64,0,0,0-7.06,1.76l7.27,29.1A3.63,3.63,0,0,0,32.6,87.3a3.38,3.38,0,0,0,3.6-2.48L40,73.35l3.82,11.47a3.64,3.64,0,0,0,3.45,2.49h.14a3.6,3.6,0,0,0,3.39-2.75l7.28-29.1A3.63,3.63,0,0,0,55.45,51Z"/><path class="cls-1" d="M142.75,51a3.61,3.61,0,0,0-4.41,2.65l-4.24,17-3.32-10c-1-3-5.91-3-6.91,0l-3.32,10-4.24-17a3.64,3.64,0,1,0-7.06,1.76l7.27,29.1a3.64,3.64,0,0,0,3.4,2.75,3.42,3.42,0,0,0,3.59-2.48l3.82-11.47,3.82,11.47a3.65,3.65,0,0,0,3.46,2.49h.13a3.62,3.62,0,0,0,3.39-2.75l7.27-29.1A3.63,3.63,0,0,0,142.75,51Z"/></g></g></svg>