<svg xmlns="http://www.w3.org/2000/svg" viewBox="0 0 116 116"><defs><style>.cls-1{fill:#a2c719;}</style></defs><title>Ресурс 3icon</title><g id="Слой_2" data-name="Слой 2"><g id="Слой_1-2" data-name="Слой 1"><path class="cls-1" d="M0,21.75V4.53A4.53,4.53,0,0,1,4.53,0H21.75a4.53,4.53,0,1,1,0,9.06H9.06V21.75a4.53,4.53,0,0,1-9.06,0ZM111.47,0H94.25a4.53,4.53,0,0,0,0,9.06h12.69V21.75a4.53,4.53,0,0,0,9.06,0V4.53A4.53,4.53,0,0,0,111.47,0ZM21.75,106.94H9.06V94.25a4.53,4.53,0,0,0-9.06,0v17.22A4.53,4.53,0,0,0,4.53,116H21.75a4.53,4.53,0,0,0,0-9.06Zm89.72-17.22a4.53,4.53,0,0,0-4.53,4.53v12.69H94.25a4.53,4.53,0,0,0,0,9.06h17.22a4.53,4.53,0,0,0,4.53-4.53V94.25A4.53,4.53,0,0,0,111.47,89.72ZM54,22.32V49.5A4.54,4.54,0,0,1,49.5,54H22.32a4.53,4.53,0,0,1-4.53-4.54V22.32a4.52,4.52,0,0,1,4.53-4.53H49.5A4.53,4.53,0,0,1,54,22.32ZM45,26.85H26.85V45H45ZM96,54H68.76a4.53,4.53,0,0,1-4.53-4.54V22.32a4.53,4.53,0,0,1,4.53-4.53H96a4.53,4.53,0,0,1,4.53,4.53V49.5A4.53,4.53,0,0,1,96,54ZM91.42,26.85H73.29V45H91.42ZM54,68.76V96a4.53,4.53,0,0,1-4.54,4.53H22.32A4.53,4.53,0,0,1,17.79,96V68.76a4.53,4.53,0,0,1,4.53-4.53H49.5A4.53,4.53,0,0,1,54,68.76ZM45,73.29H26.85V91.42H45ZM90.12,94.65H74.6a4.53,4.53,0,0,1-4.54-4.53V74.6a4.54,4.54,0,0,1,4.54-4.54H90.12a4.53,4.53,0,0,1,4.53,4.54V90.12A4.53,4.53,0,0,1,90.12,94.65ZM85.58,79.13H79.13v6.45h6.45Z"/></g></g></svg>