<svg xmlns="http://www.w3.org/2000/svg" viewBox="0 0 131.96 115.05"><defs><style>.cls-1{fill:#a2c719;}</style></defs><title>Ресурс 40icon</title><g id="Слой_2" data-name="Слой 2"><g id="Слой_1-2" data-name="Слой 1"><path class="cls-1" d="M108.76,53.3a34.33,34.33,0,0,0,7.64-22C116.4,14.06,104.39,0,89.63,0,79.39,0,70.48,6.77,66,16.69,61.48,6.77,52.57,0,42.33,0,27.57,0,15.56,14.06,15.56,31.34a34.27,34.27,0,0,0,7.64,22C14.8,57.25,0,64.65,0,87v5.22a3,3,0,0,0,3,3H25.25a40.17,40.17,0,0,0-1.61,11.65v5.23a3,3,0,0,0,3,3h78.67a3,3,0,0,0,3-3v-5.23a40.17,40.17,0,0,0-1.61-11.65H129a3,3,0,0,0,3-3V87C132,64.66,117.16,57.25,108.76,53.3ZM29.09,87H8.23C8.23,62.18,30,62.19,34.8,55.71l.56-3C28.57,49.32,23.79,41,23.79,31.34c0-12.76,8.3-23.12,18.54-23.12,7.26,0,13.52,5.21,16.56,12.78C47.56,24.65,39.21,36.81,39.21,51.22a34.36,34.36,0,0,0,7.63,22C41.7,75.6,34.17,79.32,29.09,87Zm37.13,19.87H31.87c0-24.76,21.75-24.76,26.58-31.23l.55-3C52.22,69.2,47.43,60.91,47.43,51.22,47.43,38.45,55.74,28.1,66,28.1S84.52,38.45,84.52,51.22c0,9.61-4.7,17.84-11.39,21.33l.63,3.36c5.3,6.16,26.32,6.56,26.32,30.91ZM102.86,87C97.79,79.32,90.25,75.6,85.11,73.18a34.35,34.35,0,0,0,7.64-22c0-14.41-8.35-26.57-19.68-30.22,3-7.57,9.3-12.78,16.56-12.78,10.24,0,18.54,10.36,18.54,23.12,0,9.61-4.7,17.84-11.39,21.34L97.41,56c5.3,6.16,26.32,6.57,26.32,30.92Z"/></g></g></svg>