<svg xmlns="http://www.w3.org/2000/svg" viewBox="0 0 146.53 146.53"><defs><style>.cls-1{fill:#a2c719;}</style></defs><title>Ресурс 41icon</title><g id="Слой_2" data-name="Слой 2"><g id="Слой_1-2" data-name="Слой 1"><path class="cls-1" d="M120.77,38.64V0h-95V38.64h-15A10.73,10.73,0,0,0,0,49.37V135.8a10.74,10.74,0,0,0,10.74,10.73H135.8a10.74,10.74,0,0,0,10.73-10.73V49.37A10.73,10.73,0,0,0,135.8,38.64ZM47.88,92.58,8.59,131.87V53.29ZM54,98.65l1.1,1.11a25.8,25.8,0,0,0,36.43,0l1.1-1.11,39.29,39.29H14.66Zm44.7-6.07,39.29-39.29v78.58Zm33.22-45.36-11.1,11.1V47.22ZM112.19,8.59V66.91L85.41,93.69a17.21,17.21,0,0,1-24.29,0L34.34,66.91V8.59ZM25.76,58.32l-11.1-11.1h11.1Z"/></g></g></svg>