<svg xmlns="http://www.w3.org/2000/svg" viewBox="0 0 131.96 130.46"><defs><style>.cls-1{fill:#a2c719;}</style></defs><title>Ресурс 42icon</title><g id="Слой_2" data-name="Слой 2"><g id="Слой_1-2" data-name="Слой 1"><g id="linkedin"><path class="cls-1" d="M28.8,36.44H3.8a3.09,3.09,0,0,0-3.09,3.1v87.38A3.09,3.09,0,0,0,3.8,130h25a3.1,3.1,0,0,0,3.1-3.1V39.54A3.1,3.1,0,0,0,28.8,36.44Zm-3.1,87.39H6.9V42.64H25.7ZM98.5,35.38a34.18,34.18,0,0,0-24.69,9.79l-.57-5.93a3.09,3.09,0,0,0-3.08-2.8H70.1l-22.79.44a3.06,3.06,0,0,0-2.2,1,3.09,3.09,0,0,0-.84,2.26c.29,6.38.28,13.83.27,22.47v64.77a3.1,3.1,0,0,0,3.1,3.1h25a3.1,3.1,0,0,0,3.1-3.1V76.85a16.64,16.64,0,0,1,.66-5.56c1.56-4,6.7-8.07,12.61-8.07,7.64,0,12.21,5.82,12.21,15.57v48.57a3.09,3.09,0,0,0,3.09,3.1h24.56a3.1,3.1,0,0,0,3.1-3.1V75.62C132,50.42,119.45,35.38,98.5,35.38Zm27.27,88.89H107.4V78.79C107.4,65.57,100.17,57,89,57c-8.87,0-16.09,6.18-18.36,12a21.24,21.24,0,0,0-1.11,7.84v47.42H50.73V62.6c0-7.34,0-13.83-.15-19.59l16.77-.32,1,10a3.1,3.1,0,0,0,3.09,2.8h.52A3.1,3.1,0,0,0,74.55,54c1.83-2.92,9-12.45,24-12.45,17.33,0,27.27,12.41,27.27,34.05v48.65ZM17.35,0C7.3,0,0,6.93,0,16.48S7.15,33,17,33C27.16,33,34.53,26,34.53,16.4,34.31,6.75,27.24,0,17.35,0ZM17,26.75c-6.36,0-10.81-4.22-10.81-10.27S10.68,6.19,17.35,6.19s10.84,4.07,11,10.29S23.78,26.75,17,26.75Z"/></g></g></g></svg>