<svg xmlns="http://www.w3.org/2000/svg" viewBox="0 0 113.07 116.29"><defs><style>.cls-1{fill:#a2c719;}</style></defs><title>Ресурс 43icon</title><g id="Слой_2" data-name="Слой 2"><g id="Слой_1-2" data-name="Слой 1"><path class="cls-1" d="M59.63,66.39l-5.45-4.23c-1.66-1.38-3.94-3.2-3.94-6.53s2.28-5.46,4.25-7.43c6.35-5,12.7-10.32,12.7-21.54,0-11.53-7.26-17.6-10.74-20.48h9.38L75.67,0H45.86c-8.19,0-20,1.93-28.61,9.06A27.29,27.29,0,0,0,7.57,29.38c0,11.83,9.08,23.82,25.12,23.82,1.51,0,3.17-.15,4.84-.3A13.71,13.71,0,0,0,36,58.81c0,4.7,2.41,7.58,4.54,10.31-6.81.47-19.53,1.22-28.91,7C2.72,81.42,0,89.15,0,94.61c0,11.22,10.59,21.68,32.54,21.68,26,0,39.8-14.4,39.8-28.66C72.34,77.16,66.29,72,59.63,66.39ZM39.81,49c-13,0-18.92-16.83-18.92-27,0-3.95.75-8,3.32-11.22a14.14,14.14,0,0,1,10.61-5c12.55,0,19.06,17,19.06,27.9,0,2.74-.3,7.58-3.78,11.08A15.48,15.48,0,0,1,39.81,49Zm.15,61c-16.2,0-26.64-7.75-26.64-18.52S23,77,26.34,75.81c6.35-2.14,14.52-2.44,15.89-2.44a23,23,0,0,1,3.47.16c11.51,8.19,16.51,12.27,16.51,20C62.21,102.94,54.49,109.94,40,109.94Z"/><polygon class="cls-1" points="97.85 48.72 97.85 33.56 90.36 33.56 90.36 48.72 75.22 48.72 75.22 56.29 90.36 56.29 90.36 71.55 97.85 71.55 97.85 56.29 113.07 56.29 113.07 48.72 97.85 48.72"/></g></g></svg>