<svg xmlns="http://www.w3.org/2000/svg" viewBox="0 0 80.89 142.52"><defs><style>.cls-1{fill:#a2c719;}</style></defs><title>Ресурс 44icon</title><g id="Слой_2" data-name="Слой 2"><g id="Слой_1-2" data-name="Слой 1"><path class="cls-1" d="M50,142.52H27.14a6.92,6.92,0,0,1-6.91-6.92V84.13H6.91A6.93,6.93,0,0,1,0,77.21V55.15a6.92,6.92,0,0,1,6.91-6.91H20.23v-11c0-11,3.44-20.28,9.94-26.95S45.84,0,56.58,0L74,0a6.92,6.92,0,0,1,6.9,6.91V27.42A6.93,6.93,0,0,1,74,34.34H62.26c-3.57,0-4.48.72-4.68.94s-.7,1.39-.7,4.23v8.73H73.1a7,7,0,0,1,3.42.87,6.94,6.94,0,0,1,3.56,6v22a6.93,6.93,0,0,1-6.92,6.92H56.88V135.6A6.92,6.92,0,0,1,50,142.52Zm-21.38-8.36H48.52V80.39a4.62,4.62,0,0,1,4.62-4.62H71.71V56.6H53.14A4.62,4.62,0,0,1,48.52,52V39.51c0-3.26.33-7,2.8-9.76C54.3,26.37,59,26,62.26,26H72.54V8.38l-16,0c-17.27,0-28,11.05-28,28.84V52A4.62,4.62,0,0,1,24,56.6H8.36V75.77H24a4.62,4.62,0,0,1,4.61,4.62ZM74,8.38Z"/></g></g></svg>