<svg xmlns="http://www.w3.org/2000/svg" viewBox="0 0 148.75 113.3"><defs><style>.cls-1{fill:#a2c719;}</style></defs><title>Ресурс 45icon</title><g id="Слой_2" data-name="Слой 2"><g id="Слой_1-2" data-name="Слой 1"><path class="cls-1" d="M135.67,0H13.07A13.09,13.09,0,0,0,0,13.07v87.16A13.09,13.09,0,0,0,13.07,113.3h122.6a13.1,13.1,0,0,0,13.08-13.07V13.07A13.1,13.1,0,0,0,135.67,0Zm-1.8,8.72L74.65,67.93,14.92,8.72ZM8.72,98.42V14.84l42,41.61Zm6.16,6.17,42-42L71.6,77.18a4.35,4.35,0,0,0,6.15,0L92.09,62.81l41.78,41.78ZM140,98.42,98.26,56.65,140,14.88Z"/></g></g></svg>