<svg xmlns="http://www.w3.org/2000/svg" viewBox="0 0 196.65 109.84"><defs><style>.cls-1{fill:#a2c719;}</style></defs><title>Ресурс 46icon</title><g id="Слой_2" data-name="Слой 2"><g id="Слой_1-2" data-name="Слой 1"><path class="cls-1" d="M162.63,41.8a34,34,0,1,0,34,34A34,34,0,0,0,162.63,41.8Zm0,56a22,22,0,1,1,22-22A22,22,0,0,1,162.63,97.8Z"/><circle class="cls-1" cx="162.63" cy="75.82" r="10.34"/><path class="cls-1" d="M34,41.8a34,34,0,1,0,34,34A34,34,0,0,0,34,41.8Zm0,56a22,22,0,1,1,22-22A22,22,0,0,1,34,97.8Z"/><circle class="cls-1" cx="34.02" cy="75.82" r="10.34"/><rect class="cls-1" x="153.21" y="0.14" width="7.61" height="75.92" transform="translate(-3.93 23.93) rotate(-8.61)"/><rect class="cls-1" x="140.54" y="-6.95" width="7.61" height="21.5" transform="translate(148.15 -140.54) rotate(90)"/><path class="cls-1" d="M34,75.82h85.22S117,39.25,155.09,29.34V21s-39,9.6-43.21,46.7H34Z"/><path class="cls-1" d="M155.09,21s-30.73-11.2-55.36,7V62.39H116l14.4-23.24Z"/><rect class="cls-1" x="50.47" y="28.06" width="45.42" height="7.04"/><polygon class="cls-1" points="46.39 28.06 0.97 18.89 0.97 25.92 46.39 35.09 46.39 28.06"/><path class="cls-1" d="M95.89,39.15V62.39H71.26l-20-23.24Z"/></g></g></svg>