<?xml version="1.0" encoding="UTF-8" standalone="no"?>
<!DOCTYPE svg PUBLIC "-//W3C//DTD SVG 1.1//EN" "http://www.w3.org/Graphics/SVG/1.1/DTD/svg11.dtd">
<svg version="1.1" xmlns="http://www.w3.org/2000/svg" xmlns:xlink="http://www.w3.org/1999/xlink" preserveAspectRatio="xMidYMid meet" viewBox="-1 -1 108 62.9999" width="104" height="59"><defs><path d="M79.85 0L82.91 20.09L83.03 20.08L84.37 20.03L85.72 20.08L87.04 20.21L88.33 20.43L89.59 20.73L90.82 21.11L92.01 21.57L93.17 22.1L94.28 22.69L95.35 23.36L96.37 24.09L97.34 24.89L98.25 25.74L99.11 26.65L99.91 27.61L100.65 28.62L101.32 29.68L101.92 30.79L102.46 31.93L102.92 33.12L103.3 34.34L103.6 35.59L103.82 36.87L103.95 38.18L104 39.52L103.95 40.85L103.82 42.16L103.6 43.44L103.3 44.7L102.92 45.92L102.46 47.1L101.92 48.25L101.32 49.35L100.65 50.41L99.91 51.42L99.11 52.38L98.25 53.29L97.34 54.15L96.37 54.94L95.35 55.67L94.28 56.34L93.17 56.94L92.01 57.47L90.82 57.92L89.59 58.3L88.33 58.6L87.04 58.82L85.72 58.95L84.37 59L83.03 58.95L81.71 58.82L80.42 58.6L79.16 58.3L77.93 57.92L76.74 57.47L75.58 56.94L74.47 56.34L73.4 55.67L72.38 54.94L71.41 54.15L70.5 53.29L69.64 52.38L68.84 51.42L68.1 50.41L67.43 49.35L66.83 48.25L66.29 47.1L65.83 45.92L65.45 44.7L65.15 43.44L64.93 42.16L64.8 40.85L64.75 39.52L64.8 38.18L64.93 36.87L65.15 35.59L65.45 34.34L65.83 33.12L66.29 31.93L66.83 30.79L67.43 29.68L68.1 28.62L68.84 27.61L69.64 26.65L70.5 25.74L71.41 24.89L72.38 24.09L73.4 23.36L74.47 22.69L75.58 22.1L76.74 21.57L77.93 21.11L79.16 20.73L80.04 20.52L79.74 18.57L78.23 18.58L77.26 18.61L45.61 45.63L45.6 45.63L45.59 45.65L38.61 44.47L38.55 44.7L38.17 45.92L37.71 47.1L37.17 48.25L36.57 49.35L35.9 50.41L35.16 51.42L34.36 52.38L33.5 53.29L32.59 54.15L31.62 54.94L30.6 55.67L29.53 56.34L28.42 56.94L27.26 57.47L26.07 57.92L24.84 58.3L23.58 58.6L22.29 58.82L20.97 58.95L19.63 59L18.28 58.95L16.96 58.82L15.67 58.6L14.41 58.3L13.18 57.92L11.99 57.47L10.83 56.94L9.72 56.34L8.65 55.67L7.63 54.94L6.66 54.15L5.75 53.29L4.89 52.38L4.09 51.42L3.35 50.41L2.68 49.35L2.08 48.25L1.54 47.1L1.08 45.92L0.7 44.7L0.4 43.44L0.18 42.16L0.05 40.85L0 39.52L0.05 38.18L0.18 36.87L0.4 35.59L0.7 34.34L1.08 33.12L1.54 31.93L2.08 30.79L2.68 29.68L3.35 28.62L4.09 27.61L4.89 26.65L5.75 25.74L6.66 24.89L7.63 24.09L8.65 23.36L9.72 22.69L10.83 22.1L11.99 21.57L13.18 21.11L14.41 20.73L15.67 20.43L16.96 20.21L18.28 20.08L19.63 20.03L20.97 20.08L22.29 20.21L23.58 20.43L24.84 20.73L26.07 21.11L27.26 21.57L28.42 22.1L29.53 22.69L30.6 23.36L31.62 24.09L31.97 24.38L32.24 24.22L33.41 23.57L34.62 22.93L35.89 22.29L36.21 22.14L31.61 8L28.4 8L28.4 5.11L41.21 5.11L41.21 8L34.66 8L38.87 20.93L40 20.46L41.48 19.88L43.01 19.31L44.59 18.76L46.23 18.23L47.93 17.72L49.69 17.23L51.5 16.77L53.38 16.33L55.31 15.92L57.3 15.53L59.36 15.18L61.48 14.85L63.66 14.56L65.91 14.31L68.22 14.08L70.6 13.9L73.05 13.75L75.56 13.65L78.14 13.58L78.68 13.58L78.95 13.35L77.35 2.88L67.04 2.88L67.04 0L79.84 0L79.84 0L79.85 0ZM17 24.48L15.75 24.75L14.53 25.12L13.35 25.58L12.23 26.14L11.16 26.78L10.15 27.5L9.2 28.3L8.33 29.17L7.52 30.11L6.79 31.11L6.15 32.18L5.59 33.29L5.12 34.46L4.75 35.67L4.48 36.92L4.31 38.2L4.26 39.52L4.31 40.83L4.48 42.12L4.75 43.37L5.12 44.58L5.59 45.74L6.15 46.86L6.79 47.92L7.52 48.92L8.33 49.86L9.2 50.73L10.15 51.53L11.16 52.26L12.23 52.9L13.35 53.45L14.53 53.92L15.75 54.29L17 54.55L18.3 54.72L19.63 54.78L20.95 54.72L22.25 54.55L23.51 54.29L24.72 53.92L25.9 53.45L27.02 52.9L28.09 52.26L29.1 51.53L30.05 50.73L30.92 49.86L31.73 48.92L32.46 47.92L33.1 46.86L33.66 45.74L34.13 44.58L34.39 43.75L20.69 41.42L20.68 41.43L20.67 41.46L20.65 41.49L20.64 41.51L20.63 41.54L20.61 41.57L20.62 41.56L20.61 41.56L20.61 41.55L20.59 41.55L20.57 41.54L20.55 41.53L20.52 41.51L20.48 41.5L20.44 41.48L20.4 41.46L20.35 41.43L20.29 41.41L20.23 41.38L20.16 41.35L20.11 41.32L17.15 40.82L17.09 39.92L17.07 39.91L16.94 39.85L16.83 39.8L16.72 39.75L16.62 39.7L16.54 39.67L16.46 39.63L16.4 39.6L16.34 39.57L16.29 39.55L16.24 39.53L16.21 39.51L16.18 39.5L16.15 39.48L16.13 39.47L16.11 39.47L16.1 39.46L16.09 39.45L16.08 39.45L16.09 39.45L16.11 39.4L16.12 39.37L16.14 39.34L16.16 39.3L16.17 39.27L16.18 39.24L16.2 39.21L16.21 39.19L16.22 39.18L16.23 39.16L16.24 39.14L16.25 39.12L16.27 39.09L16.27 39.08L16.28 39.07L16.28 39.05L16.3 39.03L16.31 39.01L16.32 38.98L16.33 38.96L16.35 38.93L16.36 38.91L16.38 38.88L16.39 38.85L16.41 38.82L16.42 38.8L16.44 38.77L16.46 38.74L16.47 38.71L16.49 38.68L16.51 38.64L16.53 38.61L16.55 38.58L16.57 38.55L16.59 38.51L16.61 38.48L16.63 38.45L16.65 38.41L16.67 38.37L16.69 38.34L16.71 38.3L16.73 38.26L16.76 38.23L16.78 38.19L16.8 38.15L16.85 38.07L16.9 37.99L16.95 37.91L16.95 37.87L16.98 37.87L17.01 37.82L17.07 37.73L17.12 37.64L17.18 37.55L17.24 37.46L17.31 37.36L17.37 37.27L17.44 37.17L17.51 37.07L17.58 36.97L17.65 36.86L17.73 36.76L17.8 36.65L17.88 36.54L17.96 36.43L18.04 36.32L18.13 36.2L18.21 36.09L18.3 35.97L18.39 35.85L18.48 35.73L18.58 35.61L18.68 35.49L18.77 35.36L18.87 35.24L18.98 35.11L19.19 34.85L19.41 34.59L19.64 34.32L19.88 34.04L20.12 33.77L20.38 33.48L20.65 33.2L20.92 32.91L21.21 32.61L21.5 32.31L21.8 32.01L22.11 31.7L22.44 31.4L22.77 31.08L23.11 30.77L23.46 30.45L23.83 30.14L24.2 29.81L24.58 29.49L24.98 29.17L25.38 28.84L25.8 28.51L26.23 28.18L26.66 27.85L27.11 27.52L27.57 27.19L28.04 26.86L28.13 26.81L28.09 26.78L27.02 26.14L25.9 25.58L24.72 25.12L23.51 24.75L22.25 24.48L20.95 24.32L19.63 24.26L18.3 24.32L17 24.48ZM85.89 39.63L83.02 40.07L80.73 25.02L80.37 25.1L79.12 25.5L77.92 26L76.77 26.6L75.69 27.3L74.67 28.08L73.72 28.94L72.85 29.88L72.07 30.89L71.37 31.97L70.76 33.11L70.25 34.3L69.85 35.54L69.55 36.83L69.37 38.16L69.31 39.52L69.37 40.88L69.55 42.21L69.85 43.49L70.25 44.74L70.76 45.93L71.37 47.07L72.07 48.14L72.85 49.15L73.72 50.09L74.67 50.96L75.69 51.74L76.77 52.43L77.92 53.03L79.12 53.54L80.37 53.94L81.67 54.23L83 54.41L84.38 54.47L85.75 54.41L87.08 54.23L88.38 53.94L89.63 53.54L90.83 53.03L91.98 52.43L93.06 51.74L94.08 50.96L95.03 50.09L95.9 49.15L96.68 48.14L97.38 47.07L97.99 45.93L98.5 44.74L98.9 43.49L99.2 42.21L99.38 40.88L99.44 39.52L99.38 38.16L99.2 36.83L98.9 35.54L98.5 34.3L97.99 33.11L97.38 31.97L96.68 30.89L95.9 29.88L95.03 28.94L94.08 28.08L93.06 27.3L91.98 26.6L90.83 26L89.63 25.5L88.38 25.1L87.08 24.8L85.75 24.62L84.38 24.56L83.6 24.6L85.89 39.63ZM35.78 27.97L35.53 28.11L35.9 28.62L36.57 29.68L37.17 30.79L37.71 31.93L38.17 33.12L38.55 34.34L38.85 35.59L39.07 36.87L39.2 38.18L39.25 39.52L39.2 40.85L39.13 41.62L42.75 42.24L37.77 26.94L36.9 27.38L35.78 27.97ZM68.66 19.06L66.44 19.28L64.29 19.52L62.2 19.8L60.17 20.11L58.21 20.45L56.31 20.81L54.47 21.21L52.7 21.62L50.98 22.06L49.32 22.52L47.72 23L46.18 23.5L44.69 24.02L43.26 24.55L41.88 25.09L40.56 25.65L40.43 25.71L45.66 41.79L72.58 18.79L70.95 18.89L68.66 19.06ZM31.34 30.67L30.9 30.97L30.47 31.27L30.06 31.57L29.65 31.86L29.26 32.16L28.87 32.46L28.5 32.75L28.14 33.04L27.78 33.33L27.44 33.62L27.11 33.91L26.79 34.19L26.47 34.47L26.17 34.75L25.87 35.03L25.59 35.3L25.31 35.57L25.05 35.84L24.79 36.1L24.54 36.36L24.3 36.61L24.07 36.86L23.85 37.11L23.63 37.35L23.43 37.58L23.23 37.81L23.04 38.04L22.86 38.26L22.77 38.37L22.69 38.48L22.6 38.58L22.52 38.69L22.44 38.79L22.44 38.79L34.93 40.91L34.94 40.83L35 39.52L34.94 38.2L34.77 36.92L34.5 35.67L34.13 34.46L33.66 33.29L33.1 32.18L32.46 31.11L31.87 30.31L31.78 30.37L31.34 30.67Z" id="a10jxOoL81"></path></defs><g><g><use xlink:href="#a10jxOoL81" opacity="1" fill="#a2c719" fill-opacity="1"></use><g><use xlink:href="#a10jxOoL81" opacity="1" fill-opacity="0" stroke="#000000" stroke-width="1" stroke-opacity="0"></use></g></g></g></svg>