<svg width="104" height="59" xmlns="http://www.w3.org/2000/svg">

 <g>
  <title>background</title>
  <rect fill="none" id="canvas_background" height="51.99977" width="89.332931" y="-1" x="-1"/>
 </g>
 <g>
  <title>Layer 1</title>
  <g id="svg_10">
   <path id="svg_1" fill="#a2c719" d="m104,39.5174c0,10.7599 -8.7867,19.4825 -19.6253,19.4825c-10.8385,0 -19.6249,-8.7226 -19.6249,-19.4825c0,-10.7599 8.7864,-19.4825 19.6249,-19.4825c10.8386,0 19.6253,8.7226 19.6253,19.4825zm-4.5603,0.0002c0,8.2596 -6.7447,14.9553 -15.0647,14.9553c-8.32,0 -15.0647,-6.6957 -15.0647,-14.9553c0,-8.2596 6.7447,-14.9553 15.0647,-14.9553c8.32,0 15.0647,6.6957 15.0647,14.9553z" clip-rule="evenodd" fill-rule="evenodd"/>
   <path id="svg_2" fill="#a2c719" d="m39.2499,39.5174c0,10.7599 -8.7864,19.4825 -19.6249,19.4825c-10.8386,0 -19.625,-8.7226 -19.625,-19.4825c0,-10.7599 8.7864,-19.4825 19.625,-19.4825c10.8385,0 19.6249,8.7226 19.6249,19.4825zm-4.2547,0.0001c0,8.427 -6.8814,15.2584 -15.3701,15.2584c-8.4886,0 -15.36997,-6.8314 -15.36997,-15.2584c0,-8.427 6.88137,-15.2585 15.36997,-15.2585c8.4887,0 15.3701,6.8315 15.3701,15.2585z" clip-rule="evenodd" fill-rule="evenodd"/>
   <path id="svg_3" fill="#a2c719" d="m79.8494,0.00152l-2.8728,0.43183l6.0448,39.63285l2.8729,-0.4318l-6.0449,-39.63288z"/>
   <path id="svg_4" fill="#a2c719" d="m34.1155,6.31631l-2.7649,0.88657l12.374,38.03262l2.7649,-0.8866l-12.374,-38.03259z"/>
   <path id="svg_5" fill="#a2c719" d="m79.6621,12.7407l1.896,2.1903l-35.9454,30.7027l-2.2506,-1.8774l36.3,-31.0156z"/>
   <path id="svg_6" fill="#a2c719" d="m79.8444,2.88449l0,-2.88449l-12.8092,0l0,2.88449l12.8092,0z"/>
   <path id="svg_7" fill="#a2c719" d="m41.2051,7.99826l0,-2.88449l-12.8092,0l0,2.88449l12.8092,0z"/>
   <path id="svg_8" fill="#a2c719" d="m46.4696,42.8664l-0.8766,2.7867l-28.4451,-4.8352l-0.197,-2.9529l29.5187,5.0014z"/>
   <path id="svg_9" fill="#a2c719" d="m20.6161,39.56c0.0008,-0.0018 0.0017,-0.0036 -2.2666,-1.0546c-2.2684,-1.0511 -2.2674,-1.0531 -2.2665,-1.0552l0.0022,-0.0047l0.0052,-0.011l0.0136,-0.0286c0.0106,-0.0221 0.0242,-0.0499 0.0409,-0.0835c0.0333,-0.0671 0.0791,-0.1568 0.1381,-0.2676c0.1182,-0.2216 0.2896,-0.5277 0.5213,-0.9059c0.4636,-0.7567 1.1689,-1.8023 2.1728,-3.0388c2.0097,-2.4752 5.2087,-5.7063 10.0446,-8.9111c9.6916,-6.4227 25.8008,-12.6385 51.7731,-12.6385l0,5c-25.1463,0 -40.2597,6.0067 -49.0111,11.8064c-4.3857,2.9064 -7.2132,5.7866 -8.9248,7.8947c-0.8567,1.0552 -1.4357,1.9193 -1.7912,2.4995c-0.1778,0.2902 -0.2997,0.5093 -0.3724,0.6457c-0.0364,0.0683 -0.0605,0.1158 -0.0731,0.1413l-0.0104,0.0211l0.0009,-0.0019l0.0021,-0.0044l0.0013,-0.0029zm-0.0044,0.0094l0.0001,-0.0002l-0.0001,0.0002z" clip-rule="evenodd" fill-rule="evenodd"/>
  </g>
 </g>
</svg>