<svg width="104" height="59" viewBox="0 0 104 59" fill="none" xmlns="http://www.w3.org/2000/svg">
<path fill-rule="evenodd" clip-rule="evenodd" d="M104 39.5174C104 50.2773 95.2133 58.9999 84.3747 58.9999C73.5362 58.9999 64.7498 50.2773 64.7498 39.5174C64.7498 28.7575 73.5362 20.0349 84.3747 20.0349C95.2133 20.0349 104 28.7575 104 39.5174ZM99.4397 39.5176C99.4397 47.7772 92.695 54.4729 84.375 54.4729C76.055 54.4729 69.3103 47.7772 69.3103 39.5176C69.3103 31.258 76.055 24.5623 84.375 24.5623C92.695 24.5623 99.4397 31.258 99.4397 39.5176Z" fill="white"/>
<path fill-rule="evenodd" clip-rule="evenodd" d="M39.2499 39.5174C39.2499 50.2773 30.4635 58.9999 19.625 58.9999C8.7864 58.9999 0 50.2773 0 39.5174C0 28.7575 8.7864 20.0349 19.625 20.0349C30.4635 20.0349 39.2499 28.7575 39.2499 39.5174ZM34.9952 39.5175C34.9952 47.9445 28.1138 54.7759 19.6251 54.7759C11.1365 54.7759 4.25513 47.9445 4.25513 39.5175C4.25513 31.0905 11.1365 24.259 19.6251 24.259C28.1138 24.259 34.9952 31.0905 34.9952 39.5175Z" fill="white"/>
<path d="M79.8494 0.00151933L76.9766 0.43335L83.0214 40.0662L85.8943 39.6344L79.8494 0.00151933Z" fill="white"/>
<path d="M34.1155 6.31631L31.3506 7.20288L43.7246 45.2355L46.4895 44.3489L34.1155 6.31631Z" fill="white"/>
<path d="M79.6621 12.7407L81.5581 14.931L45.6127 45.6337L43.3621 43.7563L79.6621 12.7407Z" fill="white"/>
<path d="M79.8444 2.88449V0L67.0352 0V2.88449L79.8444 2.88449Z" fill="white"/>
<path d="M41.2051 7.99826V5.11377L28.3959 5.11377V7.99826L41.2051 7.99826Z" fill="white"/>
<path d="M46.4696 42.8664L45.593 45.6531L17.1479 40.8179L16.9509 37.865L46.4696 42.8664Z" fill="white"/>
<path fill-rule="evenodd" clip-rule="evenodd" d="M20.6161 39.56C20.6169 39.5582 20.6178 39.5564 18.3495 38.5054C16.0811 37.4543 16.0821 37.4523 16.083 37.4502L16.0852 37.4455L16.0904 37.4345L16.104 37.4059C16.1146 37.3838 16.1282 37.356 16.1449 37.3224C16.1782 37.2553 16.224 37.1656 16.283 37.0548C16.4012 36.8332 16.5726 36.5271 16.8043 36.1489C17.2679 35.3922 17.9732 34.3466 18.9771 33.1101C20.9868 30.6349 24.1858 27.4038 29.0217 24.199C38.7133 17.7763 54.8225 11.5605 80.7948 11.5605V16.5605C55.6485 16.5605 40.5351 22.5672 31.7837 28.3669C27.398 31.2733 24.5705 34.1535 22.8589 36.2616C22.0022 37.3168 21.4232 38.1809 21.0677 38.7611C20.8899 39.0513 20.768 39.2704 20.6953 39.4068C20.6589 39.4751 20.6348 39.5226 20.6222 39.5481L20.6118 39.5692L20.6127 39.5673L20.6148 39.5629L20.6161 39.56ZM20.6117 39.5694L20.6118 39.5692L20.6117 39.5694Z" fill="white"/>
</svg>
