<svg xmlns="http://www.w3.org/2000/svg" viewBox="0 0 211.18 120.68"><defs><style>.cls-1{fill:#a2c719;}.cls-2{fill:#fff;}.cls-3{fill:none;stroke:#a2c719;stroke-miterlimit:10;stroke-width:5px;}</style></defs><title>Ресурс 47icon</title><g id="Слой_2" data-name="Слой 2"><g id="Слой_1-2" data-name="Слой 1"><circle class="cls-1" cx="171.33" cy="80.83" r="39.85"/><circle class="cls-2" cx="171.33" cy="80.83" r="30.59"/><circle class="cls-1" cx="39.85" cy="80.83" r="39.85"/><circle class="cls-2" cx="39.85" cy="80.83" r="31.21"/><rect class="cls-1" x="162.41" y="-0.02" width="5.9" height="81.99" transform="translate(-4.27 25.22) rotate(-8.61)"/><rect class="cls-1" x="76.08" y="11.85" width="5.9" height="81.75" transform="translate(-12.38 26.84) rotate(-17.9)"/><polygon class="cls-1" points="161.76 26.06 165.61 30.54 92.62 93.34 88.05 89.5 161.76 26.06"/><rect class="cls-1" x="146.17" y="-10.06" width="5.9" height="26.01" transform="translate(152.07 -146.17) rotate(90)"/><rect class="cls-1" x="67.72" y="0.4" width="5.9" height="26.01" transform="translate(84.07 -57.26) rotate(90)"/><polygon class="cls-1" points="94.36 87.68 92.58 93.38 34.82 83.49 34.42 77.45 94.36 87.68"/><path class="cls-3" d="M37.26,78.76s23-50,126.8-50"/></g></g></svg>