<svg xmlns="http://www.w3.org/2000/svg" viewBox="0 0 167.33 128.66"><defs><style>.cls-1{fill:#a2c719;}</style></defs><title>Ресурс 48icon</title><g id="Слой_2" data-name="Слой 2"><g id="Слой_1-2" data-name="Слой 1"><path class="cls-1" d="M16.73,95.19a16.74,16.74,0,1,0,16.74,16.74A16.74,16.74,0,0,0,16.73,95.19Zm0,22.58a5.84,5.84,0,1,1,5.84-5.84A5.85,5.85,0,0,1,16.73,117.77Z"/><path class="cls-1" d="M150.6,95.19a16.74,16.74,0,1,0,16.73,16.74A16.74,16.74,0,0,0,150.6,95.19Zm-.07,22.58a5.84,5.84,0,1,1,5.84-5.84A5.85,5.85,0,0,1,150.53,117.77Z"/><path class="cls-1" d="M128.69,116.11a22.09,22.09,0,0,1,0-8.37h-90a22.09,22.09,0,0,1,0,8.37Z"/><path class="cls-1" d="M16.73,85.43A26.45,26.45,0,0,0,9,86.58l2.2,3.74a22.63,22.63,0,0,1,5.49-.7,22.29,22.29,0,0,1,21.91,26.49h4.23a27.52,27.52,0,0,0,.36-4.18A26.49,26.49,0,0,0,16.73,85.43Z"/><path class="cls-1" d="M150.61,85.43a26.45,26.45,0,0,1,7.69,1.15l-2.2,3.74a22.63,22.63,0,0,0-5.49-.7,22.29,22.29,0,0,0-21.91,26.49h-4.23a27.52,27.52,0,0,1-.36-4.18A26.49,26.49,0,0,1,150.61,85.43Z"/><rect class="cls-1" x="138.58" y="-0.15" width="5.95" height="105.56" transform="translate(-6.28 21.78) rotate(-8.61)"/><rect class="cls-1" x="120.5" y="-10.14" width="5.95" height="26.23" transform="translate(126.45 -120.5) rotate(90)"/></g></g></svg>