<svg xmlns="http://www.w3.org/2000/svg" viewBox="0 0 114.07 127.51"><defs><style>.cls-1{fill:#a2c719;}</style></defs><title>contact formicon</title><g id="Слой_2" data-name="Слой 2"><g id="Слой_1-2" data-name="Слой 1"><path class="cls-1" d="M36.36,122.53a5,5,0,0,1-5,5H19.92A19.94,19.94,0,0,1,0,107.59V19.92A20,20,0,0,1,19.92,0H81.16a20,20,0,0,1,19.93,19.92V49.56a5,5,0,0,1-10,0V19.92a10,10,0,0,0-10-10H19.92a10,10,0,0,0-10,10v87.67a10,10,0,0,0,10,10H31.38A5,5,0,0,1,36.36,122.53Zm44.8-87.66a5,5,0,0,0-5-5H24.88a5,5,0,0,0,0,10h51.3A5,5,0,0,0,81.16,34.87ZM61.27,54.79a5,5,0,0,0-5-5H24.88a5,5,0,0,0,0,10H56.29A5,5,0,0,0,61.27,54.79ZM24.88,69.73a5,5,0,0,0,0,10h20.7a5,5,0,0,0,0-10Zm86.9,54.08a10,10,0,0,1-7.76,3.7H55.38a10.06,10.06,0,0,1-9.84-12.13,35,35,0,0,1,12-19.86,34.61,34.61,0,0,1,7.58-4.76,19.42,19.42,0,1,1,29.16,0,35,35,0,0,1,19.47,24.15c0,.13.07.27.1.4A10.15,10.15,0,0,1,111.78,123.81ZM70.23,77.94a9.47,9.47,0,1,0,9.47-9.46A9.48,9.48,0,0,0,70.23,77.94Zm33.87,39.47h0a24.92,24.92,0,0,0-48.81,0,.13.13,0,0,0,.06.15H104A.21.21,0,0,0,104.1,117.41Z"/></g></g></svg>