<svg xmlns="http://www.w3.org/2000/svg" viewBox="0 0 142.44 110.07"><defs><style>.cls-1{fill:#a2c719;}</style></defs><title>Ресурс 4icon</title><g id="Слой_2" data-name="Слой 2"><g id="Слой_1-2" data-name="Слой 1"><path class="cls-1" d="M133.18,40.37,108.84,13.62a12.39,12.39,0,0,0-17.53,0A12.05,12.05,0,0,0,88.18,19a12.4,12.4,0,0,0-16.29,1.12,12.23,12.23,0,0,0-3.14,5.35,12.39,12.39,0,0,0-19.39,6.35L37.88,20.36A12.39,12.39,0,0,0,20.36,37.88L64.44,82,38.29,86.07A14.51,14.51,0,0,0,25.9,100.36a9.73,9.73,0,0,0,9.71,9.71H96.66a35.37,35.37,0,0,0,25.18-10.43L132,89.45a35.56,35.56,0,0,0,1.16-49.08Zm-5.73,44.51L117.26,95.06a29,29,0,0,1-20.6,8.53h-61a3.24,3.24,0,0,1-3.24-3.23,8,8,0,0,1,6.89-7.89l32.47-5.1a3.24,3.24,0,0,0,1.78-5.49L24.93,33.31a5.93,5.93,0,0,1,0-8.38,5.91,5.91,0,0,1,8.34,0L65.7,57.33a3.25,3.25,0,0,0,4.58,0,3.31,3.31,0,0,0,.94-2.3,3.27,3.27,0,0,0-1-2.29L57,39.51a5.92,5.92,0,0,1,8.37-8.37L78.65,44.38a3.25,3.25,0,0,0,4.58,0,3.26,3.26,0,0,0,0-4.59L76.47,33a5.92,5.92,0,0,1,8.37-8.37l6.78,6.78s0,0,0,0h0a3.24,3.24,0,0,0,4.51-4.65l-.27-.28a5.82,5.82,0,0,1-1.73-4.16,5.93,5.93,0,0,1,10-4.32L128.4,44.73a29.1,29.1,0,0,1-1,40.15Z"/><path class="cls-1" d="M55.66,17.18A29.11,29.11,0,1,0,17.18,55.66a3.13,3.13,0,0,0,1.33.29,3.24,3.24,0,0,0,1.33-6.19A22.64,22.64,0,1,1,49.76,19.84a3.24,3.24,0,1,0,5.9-2.66Z"/></g></g></svg>