<svg xmlns="http://www.w3.org/2000/svg" viewBox="0 0 129.78 134.1"><defs><style>.cls-1{fill:#a2c719;}</style></defs><title>newsicon</title><g id="Слой_2" data-name="Слой 2"><g id="Слой_1-2" data-name="Слой 1"><path class="cls-1" d="M19.64,45.29c1.47,0,2.94-.6,2.94-1.81V30.69l7.14,13A3.3,3.3,0,0,0,33,45.29c1.46,0,2.93-.6,2.93-1.81V19.56c0-1.25-1.47-1.77-2.93-1.77s-2.94.52-2.94,1.77V32.35L24,20.72c-1.43-2.74-2.22-2.93-4.33-2.93-1.47,0-2.93.56-2.93,1.8V43.48C16.71,44.69,18.17,45.29,19.64,45.29Z"/><path class="cls-1" d="M43.49,45.29H56.88c1.25,0,1.77-1.32,1.77-2.52,0-1.39-.64-2.6-1.77-2.6H46.8V33.78h5.65c1.24,0,1.76-1.21,1.76-2.22,0-1.21-.64-2.3-1.76-2.3H46.8V22.9H56.88c1.13,0,1.77-1.2,1.77-2.59,0-1.21-.52-2.52-1.77-2.52H43.49c-1.28,0-2.56.6-2.56,1.8V43.48C40.93,44.69,42.21,45.29,43.49,45.29Z"/><path class="cls-1" d="M67.8,43.56c.41,1.31,2.14,1.95,3.87,1.95s3.5-.64,3.8-1.95l2-8.92,1.95,8.92c.3,1.31,2.11,1.95,3.8,1.95s3.42-.64,3.88-1.95l7.48-23a1.56,1.56,0,0,0,.08-.49c0-1.28-2.11-2.33-3.8-2.33-.9,0-1.66.3-1.88,1.09l-5.72,19.3-3-12.72c-.23-1-1.55-1.54-2.82-1.54s-2.6.53-2.83,1.54l-3,12.72-5.72-19.3c-.22-.79-1-1.09-1.88-1.09-1.69,0-3.8,1.05-3.8,2.33a1.56,1.56,0,0,0,.08.49Z"/><path class="cls-1" d="M105.34,40.4c-3.5,0-4.63-2.79-6.39-2.79-1.43,0-2.56,1.88-2.56,3.16,0,2.49,4.14,4.89,9.06,4.89,5.46,0,9.41-2.93,9.41-8.35,0-9.48-11.93-8.76-11.93-12.53,0-1.16,1.09-2.25,3.77-2.25,3.08,0,3.79,1.43,5.15,1.43,1.65,0,2.33-2.07,2.33-3.09,0-2.93-5.49-3.31-7.48-3.31-4.71,0-9.63,2.15-9.63,7.79,0,8.8,11.92,8,11.92,12.56C109,39.72,107.07,40.4,105.34,40.4Z"/><path class="cls-1" d="M18.72,92.93H62a3.93,3.93,0,1,0,0-7.85H18.72a3.93,3.93,0,1,0,0,7.85Z"/><path class="cls-1" d="M18.72,77.41H62a3.93,3.93,0,0,0,0-7.86H18.72a3.93,3.93,0,1,0,0,7.86Z"/><path class="cls-1" d="M18.72,61.88h92a3.93,3.93,0,0,0,0-7.85h-92a3.93,3.93,0,1,0,0,7.85Z"/><path class="cls-1" d="M111.06,69.55H78.74a3.93,3.93,0,0,0-3.93,3.93V89.89a3.93,3.93,0,0,0,3.93,3.93h32.32A3.93,3.93,0,0,0,115,89.89V73.48A3.93,3.93,0,0,0,111.06,69.55ZM107.14,86H82.66V77.41h24.48Z"/><path class="cls-1" d="M111.06,101.49H78.74a3.93,3.93,0,1,0,0,7.85h32.32a3.93,3.93,0,1,0,0-7.85Z"/><path class="cls-1" d="M125.85,0H3.93A3.93,3.93,0,0,0,0,3.93V106.64a4,4,0,0,0,1.1,2.73L23.86,132.9a4,4,0,0,0,2.82,1.2h99.17a3.93,3.93,0,0,0,3.93-3.93V3.93A3.93,3.93,0,0,0,125.85,0ZM22.75,120.46l-9.56-9.9h9.56Zm99.17,5.78H30.61v-19.6a3.93,3.93,0,0,0-3.93-3.93H7.86V7.86H121.92Z"/></g></g></svg>