<svg xmlns="http://www.w3.org/2000/svg" viewBox="0 0 122.59 107.27"><defs><style>.cls-1{fill:#a2c719;}</style></defs><title>Ресурс 5icon</title><g id="Слой_2" data-name="Слой 2"><g id="Слой_1-2" data-name="Слой 1"><path class="cls-1" d="M107,36.9C104.62,18.1,87.3,0,69.21,0c-10.62,0-21,5.17-28,13.28l-.18-.06c-.24-.09-.47-.17-.71-.24a2.8,2.8,0,0,0-.31-.09q-.32-.11-.63-.18l-.31-.08-.66-.15-.28-.06-.72-.13-.24,0-.82-.11-.15,0c-.68-.06-1.37-.1-2.06-.1a20.91,20.91,0,0,0-4.14.42H30l-.92.22-.15,0c-.27.08-.55.15-.82.24l-.19.06-.75.25-.23.09-.69.27-.26.12-.64.29-.27.13-.61.31-.28.16q-.29.15-.57.33l-.29.17-.54.35-.28.2A4.67,4.67,0,0,0,22,16l-.29.21-.49.38-.28.24-.46.4-.27.25-.44.41-.27.27-.41.43-.26.28-.38.45-.25.3c-.13.15-.25.31-.37.46a3.55,3.55,0,0,1-.23.31l-.34.48-.22.32c-.11.17-.22.34-.32.51l-.21.32-.3.53-.18.32-.28.55c-.06.11-.11.22-.16.33s-.18.38-.26.58l-.15.32-.24.61-.12.32c-.08.21-.15.43-.22.65l-.09.29c-.08.23-.14.47-.2.71,0,.08,0,.17-.08.25l-.18.8c0,.06,0,.12,0,.19-.07.31-.12.62-.17.94,0,0,0,0,0,.05a20.34,20.34,0,0,0-.21,2.08A30.06,30.06,0,0,0,0,56.19C0,68.44,7.82,81.84,18.41,86.42l1,.42h6.16a5.11,5.11,0,1,0,0-10.22H21.59c-6.25-3.3-11.37-12.43-11.37-20.43a19.7,19.7,0,0,1,10.66-17l2.9-1.39V34.58c0-.09,0-.21,0-.41l0-.36v-.55c0-.23,0-.23,0-.39a10.49,10.49,0,0,1,7-10,10.41,10.41,0,0,1,7.87.44l.09,0,.3.15.16.08.22.13.41.26.09.05.1.07a10.38,10.38,0,0,1,4.54,8.59,5.11,5.11,0,0,0,10.22,0,20.51,20.51,0,0,0-5.06-13.52,27.32,27.32,0,0,1,19.49-8.9c11.78,0,24.16,12.24,27.16,25.22a35.58,35.58,0,0,0-4.25.31l-.42.06a5.11,5.11,0,0,0,1.53,10.1l.28,0a31,31,0,0,1,6.75-.08l1,.11c7,1.36,11.08,7,11.08,15.4,0,7.45-4.43,13.56-10.85,15.32H97.05a5.11,5.11,0,0,0,0,10.22h5.7l.57-.14c11.45-2.67,19.27-13.11,19.27-25.4C122.59,49.68,116.82,40.43,107,36.9Z"/><path class="cls-1" d="M81.73,51.08a5.11,5.11,0,0,0-5.11,5.11V61.3a25.54,25.54,0,1,0-2.55,42.55A5.11,5.11,0,1,0,69,95a15.33,15.33,0,1,1,3.76-23.5H66.41a5.11,5.11,0,0,0,0,10.22H81.73a5.11,5.11,0,0,0,5.11-5.11V56.19A5.11,5.11,0,0,0,81.73,51.08Z"/></g></g></svg>