<svg xmlns="http://www.w3.org/2000/svg" viewBox="0 0 137.83 125.26"><defs><style>.cls-1{fill:#a2c719;}</style></defs><title>Ресурс 6icon</title><g id="Слой_2" data-name="Слой 2"><g id="Слой_1-2" data-name="Слой 1"><path class="cls-1" d="M136.17,34.55a14,14,0,0,0-26,9.78l-15.13,8.1a29.05,29.05,0,0,0-20-12V27.53a14,14,0,1,0-7.29,0v12.9A29.12,29.12,0,0,0,44.56,58.21L28,53.75a14,14,0,1,0-7,12.14,13.81,13.81,0,0,0,5.11-5.1l16.55,4.46a30.54,30.54,0,0,0-.27,4A28.9,28.9,0,0,0,48.49,87L36.35,99.13a14,14,0,1,0,5.15,5.15L53.64,92.15a28.95,28.95,0,0,0,35.55,0l12.13,12.13a14,14,0,1,0,5.15-5.15L94.34,87a28.93,28.93,0,0,0,4.17-28.16l15.12-8.09a14,14,0,0,0,6.13,3.82,14.35,14.35,0,0,0,4.08.6,14,14,0,0,0,12.33-20.62ZM127,47.08a6.72,6.72,0,1,1-3.18-12.64,6.54,6.54,0,0,1,2,.29A6.72,6.72,0,0,1,127,47.08ZM93.15,69.22A21.74,21.74,0,1,1,71.41,47.48,21.76,21.76,0,0,1,93.15,69.22ZM64.69,14a6.72,6.72,0,1,1,6.72,6.71A6.73,6.73,0,0,1,64.69,14ZM12.26,60.24A6.72,6.72,0,0,1,7.52,52a6.72,6.72,0,1,1,4.74,8.23ZM34.13,116a6.72,6.72,0,1,1,0-9.5A6.74,6.74,0,0,1,34.13,116Zm84.07-9.5a6.71,6.71,0,1,1-4.75-2A6.72,6.72,0,0,1,118.2,106.51Z"/></g></g></svg>