<svg xmlns="http://www.w3.org/2000/svg" viewBox="0 0 119.68 119.68"><defs><style>.cls-1{fill:#a2c719;}</style></defs><title>Ресурс 7icon</title><g id="Слой_2" data-name="Слой 2"><g id="Слой_1-2" data-name="Слой 1"><path class="cls-1" d="M109.16,28.52H77.61v-18A10.53,10.53,0,0,0,67.09,0H10.52A10.53,10.53,0,0,0,0,10.52v98.64a10.53,10.53,0,0,0,10.52,10.52H67.09a10.53,10.53,0,0,0,10.52-10.52V89.58l12-12h19.58a10.53,10.53,0,0,0,10.52-10.52V39A10.53,10.53,0,0,0,109.16,28.52ZM7,10.52A3.52,3.52,0,0,1,10.52,7H67.09a3.51,3.51,0,0,1,3.5,3.51V14H7Zm63.58,98.64a3.51,3.51,0,0,1-3.5,3.51H10.52A3.51,3.51,0,0,1,7,109.16V98.64H70.59Zm0-17.53H7V21H70.59v7.48h-3.5A10.53,10.53,0,0,0,56.57,39V67.09A10.53,10.53,0,0,0,67.09,77.61h3.5Zm42.08-24.54a3.51,3.51,0,0,1-3.51,3.5h-21a3.49,3.49,0,0,0-2.48,1l-8,8V74.1h0a3.51,3.51,0,0,0-3.51-3.51h-7a3.51,3.51,0,0,1-3.51-3.5V39a3.51,3.51,0,0,1,3.51-3.51h42.07A3.51,3.51,0,0,1,112.67,39Z"/><path class="cls-1" d="M102.15,42.54H74.1a3.51,3.51,0,1,0,0,7h28.05a3.51,3.51,0,1,0,0-7Z"/><path class="cls-1" d="M88.13,56.57h-14a3.51,3.51,0,1,0,0,7h14a3.51,3.51,0,0,0,0-7Z"/></g></g></svg>