<svg xmlns="http://www.w3.org/2000/svg" viewBox="0 0 107.64 106.87"><defs><style>.cls-1{fill:#a2c719;}</style></defs><title>Ресурс 8icon</title><g id="Слой_2" data-name="Слой 2"><g id="Слой_1-2" data-name="Слой 1"><path class="cls-1" d="M13.46,35.5V71.38h9v-9h9v9h9V35.5ZM31.4,53.44h-9v-9h9Z"/><path class="cls-1" d="M58.31,35.5h-9V71.38h9v-9H76.25V35.5Zm9,17.94h-9v-9h9Z"/><rect class="cls-1" x="85.22" y="35.5" width="8.97" height="35.88"/><polygon class="cls-1" points="64.65 10.83 53.82 0 42.99 10.83 0 10.83 0 28.77 8.97 28.77 8.97 19.8 46.71 19.8 53.82 12.69 60.93 19.8 98.67 19.8 98.67 28.77 107.64 28.77 107.64 10.83 64.65 10.83"/><polygon class="cls-1" points="98.67 78.11 98.67 87.08 60.93 87.08 53.82 94.19 46.71 87.08 8.97 87.08 8.97 78.11 0 78.11 0 96.05 42.99 96.05 53.82 106.87 64.65 96.05 107.64 96.05 107.64 78.11 98.67 78.11"/></g></g></svg>