<svg xmlns="http://www.w3.org/2000/svg" viewBox="0 0 95.2 95.2"><defs><style>.cls-1{fill:#a2c719;}</style></defs><title>Ресурс 9icon</title><g id="Слой_2" data-name="Слой 2"><g id="Слой_1-2" data-name="Слой 1"><path class="cls-1" d="M32.54,43.32H40a7.81,7.81,0,0,1,15.62,0H63a15.24,15.24,0,0,0-6.16-12.24A11.15,11.15,0,1,0,39,30.91,15.23,15.23,0,0,0,32.54,43.32ZM48,20.64a3.72,3.72,0,1,1-3.72,3.72A3.73,3.73,0,0,1,48,20.64ZM84,72.89a10.94,10.94,0,0,0-2.88.38L68.4,54.69A31.24,31.24,0,1,0,27,54.57l-13,18.7a11,11,0,0,0-2.89-.38,11.16,11.16,0,1,0,9,4.6l13-18.66a30.93,30.93,0,0,0,10.92,3.42V73.46a11.16,11.16,0,1,0,7.43.13V62.25a31,31,0,0,0,10.77-3.34L75,77.48a11.15,11.15,0,1,0,9-4.59ZM11.16,87.76A3.72,3.72,0,1,1,14.87,84,3.73,3.73,0,0,1,11.16,87.76ZM24,31.24A23.8,23.8,0,1,1,47.79,55,23.82,23.82,0,0,1,24,31.24ZM47.6,87.76A3.72,3.72,0,1,1,51.32,84,3.73,3.73,0,0,1,47.6,87.76Zm36.44,0A3.72,3.72,0,1,1,87.76,84,3.73,3.73,0,0,1,84,87.76Z"/></g></g></svg>