<svg width="24" height="23" viewBox="0 0 24 23" fill="none" xmlns="http://www.w3.org/2000/svg">
<path fill-rule="evenodd" clip-rule="evenodd" d="M17.6117 0.454102H6.38831C3.28906 0.454102 0.776611 2.96655 0.776611 6.0658V17.2892C0.776611 20.3885 3.28906 22.9009 6.38831 22.9009H17.6117C20.711 22.9009 23.2234 20.3885 23.2234 17.2892V6.0658C23.2234 2.96655 20.711 0.454102 17.6117 0.454102ZM16.8 10.9221C16.9481 11.9208 16.7775 12.9408 16.3125 13.8369C15.8475 14.7331 15.1118 15.4598 14.21 15.9137C13.3082 16.3676 12.2862 16.5256 11.2894 16.3652C10.2926 16.2048 9.37175 15.7342 8.65785 15.0203C7.94394 14.3064 7.47332 13.3855 7.31292 12.3888C7.15252 11.392 7.31052 10.37 7.76443 9.46814C8.21834 8.56632 8.94506 7.83059 9.84122 7.36559C10.7374 6.90059 11.7573 6.73 12.756 6.8781C13.7747 7.02916 14.7179 7.50385 15.4461 8.23206C16.1743 8.96028 16.649 9.90339 16.8 10.9221ZM17.1686 4.30915C17.0233 4.58919 16.9699 4.90793 17.0162 5.22003C17.0634 5.53837 17.2118 5.83309 17.4393 6.06066C17.6669 6.28823 17.9616 6.43657 18.28 6.48377C18.5921 6.53005 18.9108 6.47675 19.1909 6.33143C19.4709 6.18612 19.698 5.9562 19.8399 5.67438C19.9817 5.39256 20.0311 5.07319 19.9809 4.7617C19.9308 4.4502 19.7838 4.16244 19.5607 3.93934C19.3376 3.71625 19.0498 3.56918 18.7383 3.51905C18.4268 3.46893 18.1074 3.5183 17.8256 3.66015C17.5438 3.802 17.3139 4.0291 17.1686 4.30915Z" fill="white"/>
</svg>
