<svg width="24" height="23" viewBox="0 0 24 23" fill="none" xmlns="http://www.w3.org/2000/svg">
<path d="M5.80109 22.9009H1.14738V7.91432H5.80109V22.9009ZM3.47173 5.87002C1.98363 5.87002 0.776611 4.63742 0.776611 3.14928C0.776611 2.43448 1.06056 1.74895 1.56599 1.2435C2.07143 0.738057 2.75694 0.454102 3.47173 0.454102C4.18652 0.454102 4.87204 0.738057 5.37747 1.2435C5.8829 1.74895 6.16685 2.43448 6.16685 3.14928C6.16685 4.63742 4.95933 5.87002 3.47173 5.87002ZM23.2184 22.9009H18.5747V15.6055C18.5747 13.8669 18.5397 11.6372 16.1552 11.6372C13.7356 11.6372 13.3649 13.5262 13.3649 15.4803V22.9009H8.71617V7.91432H13.1795V9.95863H13.2446C13.8659 8.78115 15.3836 7.53853 17.6478 7.53853C22.3576 7.53853 23.2234 10.6401 23.2234 14.6686V22.9009H23.2184Z" fill="white"/>
</svg>
