<svg width="24" height="24" viewBox="0 0 24 24" fill="none" xmlns="http://www.w3.org/2000/svg">
<path d="M4.06079 23.2752C3.04505 23.2752 2.06981 22.8548 1.29256 22.0768C-0.430789 20.3478 -0.430789 17.5357 1.29217 15.8079L14.7301 1.53809C16.8267 -0.561904 20.0383 -0.373207 22.382 1.97352C23.4322 3.02558 24.0215 4.54226 23.9994 6.13645C23.9773 7.71381 23.3611 9.22336 22.3078 10.2784L12.1519 21.0903C11.8693 21.3932 11.3953 21.407 11.0935 21.1229C10.7925 20.8383 10.7779 20.3636 11.0617 20.0618L21.233 9.23347C22.0286 8.43638 22.485 7.30567 22.5018 6.11546C22.5186 4.92452 22.0884 3.80168 21.3232 3.03454C19.8855 1.59386 17.5447 0.839444 15.8045 2.58376L2.36702 16.8536C1.21162 18.0119 1.212 19.8723 2.35204 21.0154C2.88666 21.5504 3.52126 21.8109 4.19705 21.7701C4.86573 21.7293 5.55312 21.3864 6.13269 20.8053L16.8247 9.42509C17.2122 9.03684 17.991 8.08512 17.1984 7.29065C16.7495 6.841 16.4342 6.8687 16.3305 6.87731C16.0344 6.90352 15.6884 7.10832 15.3294 7.46849L7.28171 16.0276C6.99755 16.3297 6.52318 16.3443 6.22327 16.0594C5.92188 15.7756 5.90802 15.3001 6.19144 14.9991L14.2538 6.42392C14.8876 5.78707 15.5357 5.44187 16.1954 5.38272C16.7102 5.33702 17.4758 5.44674 18.2568 6.22998C19.416 7.39134 19.2718 9.09487 17.8993 10.4704L7.20723 21.8498C6.35361 22.7065 5.32286 23.204 4.28878 23.2677C4.21277 23.2729 4.13677 23.2751 4.06077 23.2751L4.06079 23.2752Z" fill="#93C704"/>
</svg>
