<svg width="67" height="67" viewBox="0 0 67 67" fill="none" xmlns="http://www.w3.org/2000/svg">
<path d="M38.0356 30.4435C38.6293 30.4233 39.2281 30.442 39.8224 30.4398C40.2317 30.4383 45.1484 30.4015 45.5533 30.4496C45.7244 30.47 45.8894 30.5169 46.0355 30.6093C46.2188 30.7251 46.3478 30.8981 46.3865 31.1115C46.4267 31.3321 46.3818 31.6216 46.2481 31.807C46.0818 32.0375 45.8422 32.1171 45.5735 32.157C44.9198 32.1712 39.7876 32.1618 39.1337 32.1625C38.7408 32.163 38.3176 32.1937 37.9292 32.1436C37.7875 32.1253 37.6581 32.0848 37.5393 32.0046C37.5151 31.9883 37.4917 31.9707 37.4693 31.9518C37.447 31.9331 37.4256 31.9132 37.4053 31.8923C37.385 31.8713 37.3658 31.8494 37.3477 31.8265C37.3297 31.8037 37.3128 31.7799 37.2973 31.7552C37.2816 31.7306 37.2673 31.7052 37.2544 31.6792C37.2414 31.6531 37.2299 31.6264 37.2197 31.5992C37.2095 31.572 37.2008 31.5443 37.1935 31.5161C37.1862 31.4879 37.1803 31.4595 37.176 31.4307C37.1717 31.4019 37.169 31.3728 37.1677 31.3436C37.1665 31.3145 37.1668 31.2853 37.1685 31.2561C37.1703 31.227 37.1736 31.198 37.1783 31.1692C37.183 31.1404 37.1893 31.1119 37.197 31.0837C37.2047 31.0556 37.2139 31.0279 37.2245 31.0006C37.235 30.9734 37.247 30.9467 37.2603 30.9207C37.2736 30.8946 37.2882 30.8693 37.3042 30.8448C37.3201 30.8203 37.3373 30.7966 37.3557 30.7738C37.5323 30.5511 37.7626 30.4759 38.0356 30.4435Z" fill="#93C704"/>
<path d="M35.3827 39.2634C35.569 39.2627 35.7427 39.2944 35.9048 39.3898C35.9287 39.4039 35.9518 39.4192 35.9742 39.4355C35.9966 39.4518 36.0181 39.4692 36.0388 39.4877C36.0594 39.5062 36.079 39.5256 36.0978 39.546C36.1165 39.5664 36.1341 39.5876 36.1507 39.6097C36.1673 39.6319 36.1827 39.6547 36.197 39.6784C36.2113 39.702 36.2244 39.7263 36.2363 39.7513C36.2481 39.7762 36.2587 39.8016 36.268 39.8276C36.2773 39.8536 36.2854 39.8799 36.2921 39.9066C36.2991 39.9346 36.3047 39.9628 36.3088 39.9912C36.3129 40.0198 36.3156 40.0484 36.3168 40.0771C36.318 40.1059 36.3177 40.1347 36.3159 40.1634C36.3141 40.1922 36.3109 40.2207 36.3062 40.2491C36.3015 40.2775 36.2953 40.3056 36.2877 40.3334C36.2801 40.3612 36.2711 40.3885 36.2607 40.4154C36.2503 40.4422 36.2385 40.4685 36.2253 40.4943C36.2122 40.52 36.1978 40.5449 36.1821 40.5691C36.0261 40.8106 35.8024 40.911 35.5295 40.9639C35.3321 40.9646 35.1596 40.935 34.9901 40.8288C34.9663 40.8141 34.9433 40.7983 34.921 40.7813C34.8988 40.7644 34.8775 40.7463 34.8571 40.7272C34.8367 40.7082 34.8173 40.6882 34.7989 40.6672C34.7805 40.6462 34.7631 40.6243 34.747 40.6016C34.7308 40.579 34.7158 40.5555 34.7019 40.5313C34.688 40.5071 34.6755 40.4824 34.6641 40.457C34.6528 40.4315 34.6427 40.4055 34.6339 40.3791C34.6252 40.3527 34.6178 40.326 34.6118 40.2988C34.6054 40.2707 34.6005 40.2423 34.5971 40.2136C34.5936 40.185 34.5916 40.1562 34.5911 40.1273C34.5906 40.0985 34.5916 40.0697 34.594 40.0409C34.5965 40.0122 34.6003 39.9836 34.6057 39.9552C34.6111 39.9269 34.6179 39.8989 34.6262 39.8712C34.6344 39.8435 34.644 39.8163 34.6551 39.7896C34.6661 39.7629 34.6784 39.7368 34.6921 39.7113C34.7058 39.6858 34.7208 39.6611 34.737 39.6372C34.8962 39.405 35.1167 39.3161 35.3827 39.2634Z" fill="#93C704"/>
<path d="M38.4091 39.2608C38.5876 39.2489 38.7548 39.2694 38.9173 39.348C38.9428 39.3604 38.9676 39.374 38.9917 39.3887C39.0159 39.4035 39.0393 39.4194 39.0618 39.4364C39.0844 39.4535 39.106 39.4716 39.1268 39.4908C39.1475 39.5099 39.1672 39.5301 39.1859 39.5512C39.2047 39.5723 39.2223 39.5943 39.2389 39.6171C39.2555 39.6399 39.2709 39.6635 39.285 39.6878C39.2992 39.7122 39.3122 39.7372 39.324 39.7628C39.3357 39.7884 39.3461 39.8145 39.3552 39.8411C39.4328 40.0661 39.4146 40.3049 39.2996 40.5139C39.1593 40.7688 38.943 40.8877 38.6722 40.9645C38.4527 40.9817 38.2604 40.9528 38.0722 40.8324C38.0485 40.8174 38.0257 40.8012 38.0037 40.784C37.9816 40.7667 37.9605 40.7484 37.9403 40.7291C37.9201 40.7099 37.9009 40.6896 37.8827 40.6684C37.8645 40.6472 37.8474 40.6251 37.8314 40.6023C37.8155 40.5794 37.8006 40.5558 37.7869 40.5315C37.7733 40.5072 37.7609 40.4823 37.7497 40.4568C37.7385 40.4312 37.7287 40.4052 37.7201 40.3787C37.7115 40.3523 37.7042 40.3254 37.6983 40.2982C37.692 40.2696 37.6871 40.2408 37.6836 40.2117C37.6802 40.1827 37.6783 40.1535 37.6778 40.1242C37.6773 40.095 37.6783 40.0657 37.6808 40.0365C37.6833 40.0074 37.6872 39.9784 37.6926 39.9496C37.698 39.9209 37.7049 39.8925 37.7131 39.8643C37.7215 39.8363 37.7312 39.8087 37.7422 39.7815C37.7533 39.7544 37.7657 39.7278 37.7795 39.7019C37.7932 39.676 37.8083 39.6509 37.8246 39.6265C37.9634 39.4216 38.1691 39.3079 38.4091 39.2608Z" fill="#93C704"/>
<path d="M32.2177 39.2619C32.4167 39.2459 32.5921 39.262 32.7723 39.3551C32.7974 39.368 32.8218 39.3821 32.8455 39.3975C32.8692 39.4128 32.8921 39.4292 32.9141 39.4468C32.9361 39.4644 32.9572 39.4831 32.9774 39.5028C32.9976 39.5224 33.0167 39.543 33.0347 39.5646C33.0529 39.5862 33.0698 39.6086 33.0856 39.6318C33.1014 39.655 33.1161 39.679 33.1295 39.7037C33.1429 39.7284 33.1551 39.7537 33.1659 39.7795C33.1768 39.8055 33.1863 39.8318 33.1945 39.8586C33.2032 39.8862 33.2104 39.9142 33.2162 39.9425C33.2219 39.9707 33.2263 39.9992 33.2292 40.028C33.2321 40.0567 33.2335 40.0855 33.2335 40.1144C33.2335 40.1432 33.232 40.172 33.2291 40.2008C33.2261 40.2295 33.2217 40.258 33.2159 40.2863C33.21 40.3145 33.2028 40.3425 33.1941 40.3701C33.1855 40.3976 33.1754 40.4247 33.164 40.4513C33.1525 40.4778 33.1398 40.5037 33.1258 40.529C32.9906 40.7697 32.784 40.8835 32.5283 40.9609C32.3448 40.9797 32.1912 40.9711 32.0206 40.8951C31.9932 40.8828 31.9665 40.8692 31.9405 40.8542C31.9145 40.8392 31.8894 40.8229 31.8651 40.8054C31.8408 40.7877 31.8176 40.7689 31.7952 40.749C31.7729 40.729 31.7517 40.708 31.7316 40.6858C31.7115 40.6636 31.6926 40.6405 31.6749 40.6164C31.6572 40.5923 31.6409 40.5674 31.6258 40.5416C31.6107 40.5158 31.597 40.4893 31.5847 40.4621C31.5724 40.4349 31.5616 40.4072 31.5522 40.3788C31.5431 40.3506 31.5355 40.322 31.5293 40.293C31.5231 40.2641 31.5185 40.2349 31.5153 40.2054C31.5122 40.176 31.5106 40.1465 31.5105 40.1169C31.5104 40.0872 31.5117 40.0577 31.5146 40.0283C31.5175 39.9988 31.5219 39.9695 31.5278 39.9405C31.5337 39.9115 31.5411 39.8828 31.55 39.8546C31.5588 39.8262 31.5691 39.7985 31.5808 39.7712C31.5924 39.744 31.6055 39.7174 31.6199 39.6914C31.7513 39.4537 31.9597 39.3306 32.2177 39.2619Z" fill="#93C704"/>
<path fill-rule="evenodd" clip-rule="evenodd" d="M49.3125 8.04729C49.6338 8.18576 49.9207 8.37004 50.1676 8.61693C50.4844 8.93385 50.7473 9.34662 50.8631 9.78023C51.0154 10.3504 50.9995 11.0402 50.9848 11.6763V11.6766V11.6767C50.9806 11.8564 50.9765 12.0317 50.9764 12.1989L50.9762 15.0877C51.1678 15.0838 51.3594 15.0848 51.5511 15.0907C52.6704 15.1363 53.6682 15.5489 54.4294 16.3757C54.4946 16.447 54.5569 16.5207 54.6165 16.5967C54.6761 16.6726 54.7328 16.7507 54.7865 16.8308C54.8402 16.911 54.8909 16.993 54.9384 17.0769C54.986 17.1608 55.0303 17.2463 55.0714 17.3335C55.1125 17.4207 55.1503 17.5092 55.1847 17.5992C55.2192 17.6892 55.2502 17.7803 55.2778 17.8725C55.3053 17.9648 55.3294 18.0579 55.35 18.152C55.3706 18.246 55.3877 18.3406 55.4011 18.4359C55.4476 18.7601 55.4456 19.0939 55.4436 19.4232V19.4243V19.4249C55.4431 19.4936 55.4427 19.5622 55.4428 19.6304L55.443 38.3748C55.4431 38.5268 55.4449 38.6795 55.4467 38.8325C55.4511 39.2166 55.4556 39.6024 55.4348 39.9836C55.4314 40.0484 55.4263 40.1131 55.4196 40.1777C55.4129 40.2424 55.4046 40.3068 55.3946 40.371C55.3847 40.4351 55.3731 40.499 55.3599 40.5626C55.3468 40.6262 55.332 40.6895 55.3157 40.7524C55.2993 40.8153 55.2814 40.8778 55.2619 40.9398C55.2424 41.0017 55.2214 41.0632 55.1988 41.1241C55.1762 41.1851 55.1521 41.2455 55.1265 41.3052C55.1009 41.365 55.0738 41.4241 55.0452 41.4826C55.0166 41.541 54.9865 41.5987 54.955 41.6556C54.9235 41.7125 54.8906 41.7687 54.8562 41.824C54.8219 41.8794 54.7862 41.9338 54.7492 41.9873C54.7121 42.0409 54.6737 42.0935 54.6339 42.1451C54.5943 42.1968 54.5533 42.2474 54.511 42.297C54.4687 42.3466 54.4252 42.3952 54.3805 42.4427C54.3358 42.4902 54.2899 42.5365 54.2429 42.5817C54.1958 42.6269 54.1477 42.6709 54.0984 42.7138C53.5975 43.1525 52.9521 43.4758 52.2945 43.5996C51.7733 43.6979 51.2214 43.6903 50.6825 43.6829C50.5427 43.681 50.4038 43.6791 50.2665 43.6791L43.6364 43.6786C43.4315 43.6786 43.225 43.6822 43.0181 43.6857C42.5759 43.6933 42.1315 43.7009 41.6949 43.6751L41.6967 45.8617C42.1542 45.8531 42.6118 45.8493 43.0694 45.8502C43.1424 45.8498 43.2174 45.8478 43.2936 45.8458C43.5429 45.8393 43.8034 45.8325 44.0375 45.8803C44.1931 45.9121 44.3428 45.9796 44.4624 46.0841C44.484 46.1033 44.5047 46.1235 44.5243 46.1447C44.5439 46.1659 44.5623 46.188 44.5796 46.2111C44.597 46.2343 44.613 46.2582 44.6279 46.283C44.6427 46.3077 44.6562 46.3331 44.6684 46.3593C44.6806 46.3854 44.6914 46.412 44.7009 46.4393C44.7103 46.4665 44.7183 46.4941 44.7248 46.5221C44.7314 46.5502 44.7365 46.5785 44.7401 46.607C44.7438 46.6355 44.7459 46.6642 44.7466 46.693C44.7468 46.7225 44.7456 46.7518 44.7429 46.7811C44.7403 46.8104 44.7361 46.8396 44.7305 46.8685C44.7248 46.8974 44.7177 46.9259 44.7091 46.9541C44.7005 46.9823 44.6906 47.01 44.6792 47.0372C44.6678 47.0644 44.6551 47.0909 44.641 47.1168C44.6269 47.1428 44.6116 47.1679 44.595 47.1923C44.5783 47.2167 44.5605 47.2402 44.5414 47.2628C44.5223 47.2854 44.5022 47.3069 44.481 47.3276C44.3111 47.492 44.1453 47.533 43.9179 47.5548C43.5592 47.5891 43.1876 47.5822 42.8203 47.5754H42.82H42.8199C42.6714 47.5726 42.5235 47.5699 42.3775 47.5699L30.2076 47.5692L28.0233 47.5719C27.9265 47.572 27.8262 47.5746 27.7245 47.5773C27.4375 47.5849 27.1385 47.5928 26.8708 47.5442C26.8331 47.5374 26.7961 47.5282 26.7597 47.5166C26.7233 47.505 26.6879 47.491 26.6534 47.4748C26.6188 47.4585 26.5855 47.4401 26.5534 47.4194C26.5214 47.3988 26.4909 47.3762 26.4618 47.3515C26.4393 47.3325 26.4178 47.3125 26.3974 47.2913C26.377 47.2702 26.3577 47.2481 26.3396 47.225C26.3215 47.2018 26.3046 47.1778 26.2891 47.1529C26.2736 47.128 26.2593 47.1024 26.2465 47.076C26.2336 47.0497 26.2222 47.0228 26.2121 46.9952C26.2021 46.9677 26.1936 46.9397 26.1866 46.9112C26.1794 46.8828 26.1739 46.8541 26.1698 46.8251C26.1658 46.7961 26.1633 46.767 26.1623 46.7377C26.1554 46.5042 26.2463 46.2698 26.4166 46.1074C26.5403 45.9895 26.7002 45.9141 26.8673 45.8799C27.0954 45.8333 27.345 45.8393 27.5857 45.8452C27.6588 45.8469 27.731 45.8487 27.8016 45.849L29.2123 45.8557L29.2187 43.6868C27.5343 43.6539 25.8452 43.6624 24.1577 43.6708H24.1576H24.1572L24.1563 43.6708C23.434 43.6744 22.7121 43.678 21.9909 43.6784L20.2301 43.6796C20.15 43.6796 20.0695 43.6802 19.9889 43.6807C19.5238 43.6836 19.0522 43.6866 18.5976 43.5921C18.5067 43.5731 18.4167 43.551 18.3274 43.5258C18.2382 43.5006 18.1499 43.4723 18.0627 43.4408C17.9754 43.4094 17.8894 43.375 17.8046 43.3375C17.7198 43.3002 17.6365 43.2598 17.5546 43.2165C17.4727 43.1733 17.3924 43.1272 17.3138 43.0783C17.2351 43.0294 17.1583 42.9779 17.0834 42.9236C17.0084 42.8693 16.9355 42.8125 16.8646 42.7531C16.7937 42.6938 16.725 42.632 16.6585 42.5678C15.8442 41.7831 15.4762 40.7727 15.4678 39.6601L15.4682 20.753C15.4681 20.5579 15.4639 20.3558 15.4595 20.1506C15.4469 19.5522 15.4337 18.9275 15.5226 18.3723C15.538 18.2716 15.5573 18.1718 15.5807 18.0727C15.6041 17.9736 15.6314 17.8755 15.6626 17.7785C15.6939 17.6816 15.7289 17.586 15.7678 17.4918C15.8067 17.3976 15.8493 17.305 15.8956 17.2141C15.9419 17.1233 15.9918 17.0344 16.0452 16.9475C16.0986 16.8605 16.1554 16.7758 16.2156 16.6933C16.2758 16.6109 16.3392 16.5309 16.4059 16.4535C16.4725 16.376 16.5421 16.3012 16.6147 16.2292C16.6828 16.1616 16.7533 16.0966 16.8262 16.0342C16.8992 15.9717 16.9744 15.912 17.0518 15.855C17.1292 15.798 17.2086 15.744 17.29 15.6928C17.3714 15.6417 17.4546 15.5936 17.5396 15.5486C17.6246 15.5035 17.7112 15.4616 17.7993 15.4229C17.8875 15.3842 17.9769 15.3487 18.0677 15.3165C18.1584 15.2843 18.2503 15.2555 18.3432 15.23C18.4361 15.2045 18.5298 15.1825 18.6244 15.1639C19.0972 15.0717 19.5952 15.0783 20.0825 15.0847C20.2022 15.0863 20.3213 15.0878 20.4392 15.0879L22.8569 15.0901L32.0249 15.0861L32.0228 15.0546C31.9935 14.5575 32.001 14.0503 32.0084 13.5461C32.0118 13.3154 32.0151 13.0853 32.015 12.8571L32.0141 11.4111C32.0139 11.3349 32.0132 11.2581 32.0125 11.1811C32.0085 10.7558 32.0043 10.3209 32.0983 9.90804C32.1242 9.79647 32.157 9.68698 32.1968 9.57955C32.2367 9.47212 32.2833 9.36762 32.3365 9.26605C32.3898 9.16447 32.4493 9.06665 32.515 8.97257C32.5808 8.87849 32.6523 8.7889 32.7296 8.70382C32.7938 8.6344 32.8614 8.56849 32.9326 8.5061C33.0037 8.44372 33.0779 8.38519 33.1553 8.33052C33.2326 8.27584 33.3126 8.22533 33.3953 8.17898C33.478 8.13262 33.5629 8.09067 33.65 8.05314C34.0015 7.89943 34.4005 7.8067 34.786 7.71713C34.8938 7.69209 35.0005 7.66729 35.1048 7.64148L47.65 7.58301C47.7656 7.61099 47.8833 7.63787 48.0019 7.66496C48.4461 7.76644 48.9033 7.87087 49.3125 8.04729ZM50.8778 32.7404C50.8955 32.6743 50.9106 32.6076 50.923 32.5403C51.0026 32.0924 50.9925 31.6054 50.9828 31.1346C50.9797 30.9846 50.9766 30.8362 50.9765 30.6912L50.9759 16.8069C51.0748 16.8108 51.1737 16.8121 51.2727 16.8108C51.9597 16.808 52.5578 16.935 53.0597 17.4354C53.0959 17.4716 53.1307 17.509 53.1642 17.5475C53.1977 17.5861 53.2298 17.6258 53.2605 17.6666C53.2912 17.7074 53.3204 17.7492 53.3482 17.792C53.376 17.8349 53.4022 17.8786 53.4268 17.9232C53.4515 17.9678 53.4746 18.0133 53.496 18.0595C53.5174 18.1058 53.5372 18.1527 53.5554 18.2003C53.5735 18.2479 53.5899 18.2961 53.6046 18.3448C53.6194 18.3936 53.6323 18.4428 53.6436 18.4925C53.7448 18.9385 53.7302 19.5161 53.717 20.0394C53.7127 20.2086 53.7086 20.3721 53.7086 20.5236L53.7065 35.0105C53.7064 35.1551 53.7049 35.3005 53.7033 35.446L53.7033 35.4469C53.6994 35.8125 53.6955 36.1798 53.715 36.5425C52.3134 36.5575 50.9108 36.5536 49.5086 36.5497H49.5077H49.5075C48.8767 36.548 48.246 36.5462 47.6154 36.5462L31.2336 36.5466C30.97 36.5464 30.7047 36.5425 30.4388 36.5385C29.8611 36.5299 29.2807 36.5213 28.7093 36.5514C28.7488 36.4657 28.7853 36.3778 28.8071 36.2861C28.8841 35.9618 28.8668 35.4135 28.8523 34.9549C28.847 34.7873 28.8421 34.6317 28.8423 34.5034C28.8425 34.3654 28.8471 34.2244 28.8517 34.0825C28.8617 33.7694 28.872 33.4515 28.8363 33.15C28.8177 32.9924 28.7735 32.8439 28.6819 32.712C28.6609 32.6821 28.6378 32.6537 28.6128 32.6269C28.5878 32.6001 28.5611 32.5751 28.5325 32.5521C28.5041 32.5289 28.4741 32.5078 28.4426 32.4888C28.4112 32.4698 28.3786 32.453 28.3449 32.4384C28.0911 32.3285 27.7889 32.2838 27.502 32.2412C27.4153 32.2284 27.33 32.2157 27.2479 32.2016L25.6316 31.9244C25.5663 31.7221 25.4816 31.5243 25.3971 31.3272L25.3971 31.3271C25.3594 31.2392 25.3218 31.1514 25.286 31.0635C25.3971 30.8914 25.5922 30.6277 25.8085 30.3356C26.2448 29.746 26.7669 29.0405 26.8573 28.7379C26.9159 28.5414 26.8912 28.2897 26.783 28.1135C26.6258 27.8575 24.7925 26.0295 24.5003 25.8088C24.3851 25.7218 24.2599 25.6551 24.117 25.6264C23.9762 25.5981 23.8251 25.6057 23.6905 25.6565C23.4276 25.7558 23.1817 25.9378 22.9474 26.1112C22.8801 26.161 22.8138 26.2101 22.7482 26.2563C22.3061 26.5719 21.8618 26.8843 21.4152 27.1935C21.2932 27.1387 21.1694 27.0881 21.0457 27.0376C20.8716 26.9666 20.6977 26.8955 20.5287 26.8127C20.4321 26.3646 20.3561 25.9114 20.2802 25.459C20.2624 25.3526 20.2445 25.2461 20.2264 25.1398C20.2141 25.0676 20.203 24.9939 20.1918 24.9196C20.1589 24.7017 20.1252 24.4787 20.0594 24.2743C20.0172 24.143 19.9566 24.0213 19.8563 23.9237C19.7356 23.8063 19.5718 23.7352 19.4076 23.7018C19.1668 23.6529 18.9054 23.6592 18.6518 23.6653C18.5721 23.6672 18.4932 23.6691 18.4159 23.6693L17.195 23.6638C17.2132 23.3471 17.2101 23.0269 17.207 22.708C17.2058 22.5927 17.2047 22.4777 17.2046 22.363L17.2025 20.1056C17.2024 19.9886 17.2 19.8696 17.1976 19.7494C17.1894 19.3333 17.181 18.9045 17.2658 18.5077C17.2835 18.4221 17.3065 18.338 17.3348 18.2554C17.363 18.1726 17.3963 18.0919 17.4346 18.0133C17.4729 17.9347 17.5159 17.8587 17.5637 17.7853C17.6115 17.712 17.6637 17.6418 17.7202 17.5748C18.1075 17.1153 18.6379 16.8656 19.2344 16.8161C19.6099 16.7912 19.9917 16.7957 20.3713 16.8001L20.3715 16.8001L20.3717 16.8001C20.5167 16.8018 20.6615 16.8035 20.8054 16.8036L32.0316 16.8074C32.023 16.9668 32.0176 17.1263 32.0154 17.286L32.0143 30.6528C32.0143 30.7994 32.0116 30.9485 32.009 31.0989C32.0002 31.5973 31.9911 32.1094 32.076 32.5883C32.1659 33.0956 32.4468 33.5831 32.81 33.9471C33.3074 34.4455 33.8656 34.6915 34.5702 34.6989C36.7894 34.7222 39.0105 34.7145 41.2311 34.7067H41.2319H41.2323C42.3468 34.7028 43.4612 34.6989 44.5751 34.6989L47.3802 34.7007C47.5082 34.7008 47.6398 34.7039 47.7732 34.7071C48.1631 34.7164 48.5675 34.7261 48.9359 34.6604C49.3831 34.5807 49.8422 34.2826 50.1611 33.9694C50.2102 33.9212 50.2573 33.8713 50.3025 33.8195C50.3477 33.7679 50.3909 33.7145 50.432 33.6595C50.4731 33.6046 50.5121 33.5482 50.5489 33.4903C50.5857 33.4324 50.6202 33.3731 50.6525 33.3126C50.6847 33.2521 50.7146 33.1905 50.7421 33.1277C50.7696 33.065 50.7947 33.0013 50.8174 32.9367C50.8401 32.872 50.8602 32.8066 50.8778 32.7404ZM49.238 18.645L49.24 27.1198L49.2476 28.8511C49.2347 29.5474 49.2324 30.2437 49.2408 30.9401C49.2411 31.0397 49.2436 31.1418 49.246 31.2451C49.2539 31.5734 49.2621 31.9138 49.202 32.2249C49.1654 32.414 49.1037 32.5404 48.986 32.6944L48.9797 32.7012L48.9732 32.7082C48.9699 32.7118 48.9665 32.7154 48.9631 32.7189C48.8473 32.8388 48.7198 32.9425 48.5499 32.9661C48.2513 33.0076 47.9261 32.9988 47.6108 32.9903C47.4852 32.9869 47.3612 32.9836 47.2411 32.9835L44.5592 32.9813L35.1606 32.9868C35.0995 32.9869 35.0387 32.9886 34.9784 32.9902L34.9781 32.9902C34.6308 32.9996 34.2997 33.0086 34.033 32.7348C33.8866 32.5846 33.8139 32.3981 33.7772 32.1955C33.7264 31.9136 33.7341 31.6055 33.7417 31.308C33.7443 31.2041 33.7469 31.1015 33.7469 31.0017L33.7516 27.1302C33.7271 26.0726 33.7344 25.0109 33.7416 23.9503V23.95V23.9499C33.7451 23.4409 33.7486 22.9323 33.7486 22.4245L33.7501 12.3844C33.7496 12.2745 33.7461 12.1318 33.7421 11.9713C33.7277 11.3931 33.7075 10.5824 33.8059 10.2332C33.8448 10.095 33.9295 9.96954 34.0258 9.8637C34.1156 9.76505 34.2142 9.69384 34.3359 9.63863C34.6261 9.507 34.9676 9.4314 35.2941 9.35913C35.3948 9.33682 35.4942 9.31483 35.5901 9.29161C36.0462 9.27116 36.65 9.24469 36.895 9.23402C36.8872 9.26222 36.881 9.29072 36.8762 9.31952C36.8715 9.34832 36.8683 9.37729 36.8665 9.40642C36.8647 9.43562 36.8645 9.46479 36.8657 9.49392C36.8669 9.52312 36.8697 9.55215 36.8739 9.58102C36.8783 9.60975 36.8841 9.63819 36.8914 9.66633C36.8988 9.69453 36.9075 9.72223 36.9177 9.74943C36.9279 9.7767 36.9394 9.80338 36.9523 9.82945C36.9653 9.85552 36.9796 9.88087 36.9952 9.90548C37.0108 9.93015 37.0276 9.95393 37.0457 9.97681C37.0637 9.99969 37.0829 10.0216 37.1033 10.0426C37.1236 10.0635 37.1449 10.0834 37.1673 10.1021C37.1897 10.1209 37.213 10.1385 37.2373 10.1549C37.3561 10.2351 37.4854 10.2756 37.6272 10.2939C38.0156 10.344 38.4388 10.3132 38.8317 10.3127C39.4856 10.312 44.6178 10.3215 45.2715 10.3072C45.5402 10.2673 45.7797 10.1878 45.946 9.95725C46.0797 9.77188 46.1171 9.51124 46.0769 9.29065L47.376 9.2824C47.4864 9.2824 47.6331 9.29989 47.7381 9.32353C48.0208 9.3872 48.2582 9.48323 48.5196 9.5845C48.6728 9.64388 48.8169 9.72079 48.9399 9.83064C49.2932 10.1461 49.2674 11.0539 49.2476 11.7521C49.2409 11.987 49.2349 12.1981 49.2442 12.355L49.2463 12.3855L49.2443 12.3855L49.247 14.104C49.2097 15.1368 49.2195 16.1857 49.2292 17.2296C49.2336 17.7031 49.238 18.1755 49.238 18.645ZM18.0298 41.4883C17.9832 41.4515 17.9381 41.4129 17.8946 41.3725C17.1658 40.6922 17.1812 39.7785 17.1964 38.8713C17.1999 38.6651 17.2034 38.4592 17.1981 38.2565C17.4853 38.2767 17.7801 38.2712 18.0727 38.2656C18.206 38.2631 18.3389 38.2606 18.4705 38.2605L53.7092 38.2603C53.7057 38.4711 53.7104 38.6776 53.7151 38.8799C53.7354 39.7663 53.7539 40.573 53.0682 41.3114C52.6125 41.7493 52.1114 41.9337 51.4837 41.9556C50.9143 41.9757 50.3417 41.9707 49.7701 41.9658L49.7695 41.9658C49.5276 41.9638 49.2859 41.9617 49.0447 41.9615L20.4965 41.9619C20.3745 41.9619 20.251 41.9641 20.1268 41.9664C19.8079 41.9721 19.4849 41.9779 19.174 41.9463C19.1147 41.9407 19.0557 41.9326 18.997 41.9221C18.9383 41.9117 18.8802 41.8988 18.8226 41.8836C18.765 41.8684 18.7081 41.8508 18.652 41.8309C18.5958 41.8111 18.5406 41.789 18.4863 41.7646C18.432 41.7402 18.3788 41.7137 18.3266 41.685C18.2745 41.6563 18.2237 41.6255 18.1742 41.5927C18.1246 41.5599 18.0765 41.5251 18.0298 41.4883ZM17.2054 28.6611L17.2005 25.3796C17.4805 25.3999 17.767 25.3963 18.0523 25.3928C18.208 25.3909 18.3634 25.389 18.5172 25.3909C18.5214 25.4209 18.5264 25.4562 18.532 25.4961C18.6157 26.0917 18.8444 27.7189 19.0666 28.0038C19.1532 28.115 19.2696 28.1952 19.3955 28.2573C19.5515 28.3342 19.7198 28.385 19.8885 28.436C20.0422 28.4824 20.196 28.5289 20.3409 28.5952C20.4381 28.6396 20.5411 28.696 20.6474 28.7543C20.9032 28.8944 21.1778 29.0448 21.4344 29.0629C21.5812 29.0732 21.7408 29.0192 21.8708 28.9562C22.1146 28.8381 22.346 28.6682 22.571 28.5029C22.6468 28.4473 22.7218 28.3922 22.7963 28.3397C22.8902 28.2738 22.9851 28.2084 23.0803 28.1429C23.3438 27.9615 23.6089 27.779 23.856 27.5802L24.8948 28.6058C24.6635 28.9628 24.411 29.3072 24.1586 29.6515C23.9997 29.8683 23.8408 30.085 23.6873 30.3047C23.5083 30.5608 23.3453 30.8271 23.4139 31.1519C23.4564 31.3529 23.5599 31.5415 23.6629 31.7292C23.7318 31.8548 23.8006 31.9801 23.8507 32.1085C23.8902 32.2094 23.9259 32.3296 23.9631 32.4552C24.0435 32.726 24.1311 33.0215 24.2795 33.1999C24.3814 33.3224 24.5195 33.4125 24.668 33.4699C24.9832 33.5921 25.7041 33.7 26.2534 33.7822C26.4284 33.8084 26.5859 33.832 26.7074 33.8526C26.7317 33.8567 26.7622 33.8602 26.7954 33.8641C26.8984 33.876 27.028 33.8911 27.0844 33.936C27.1074 33.9542 27.1093 33.9916 27.111 34.0241C27.1115 34.0339 27.112 34.0433 27.113 34.0515C27.1124 34.1523 27.1114 34.2531 27.1104 34.354L27.1104 34.3542L27.1104 34.3548C27.1071 34.6943 27.1039 35.0343 27.1148 35.3733C26.9416 35.408 26.6736 35.448 26.3719 35.493L26.3714 35.4931L26.3712 35.4931C25.6589 35.5994 24.759 35.7337 24.4766 35.8922C24.2252 36.0334 24.1209 36.2952 24.0492 36.557C23.2897 36.5198 22.5125 36.5308 21.7487 36.5416C21.669 36.5427 21.5895 36.5438 21.5102 36.5449C21.8588 35.8474 22.0212 35.0841 21.9576 34.3068C21.9522 34.2387 21.9451 34.1708 21.9363 34.1031C21.9276 34.0353 21.9172 33.9678 21.905 33.9006C21.8928 33.8333 21.879 33.7664 21.8635 33.6999C21.848 33.6333 21.8308 33.5672 21.8119 33.5016C21.7931 33.4359 21.7726 33.3706 21.7505 33.3059C21.7284 33.2413 21.7047 33.1771 21.6793 33.1136C21.654 33.05 21.6271 32.9872 21.5987 32.925C21.5701 32.8628 21.5401 32.8013 21.5086 32.7406C21.477 32.6799 21.4439 32.62 21.4093 32.5609C21.3747 32.5019 21.3387 32.4437 21.3013 32.3863C21.2638 32.329 21.2248 32.2727 21.1845 32.2173C21.1441 32.1619 21.1025 32.1075 21.0594 32.0542C21.0164 32.0009 20.972 31.9486 20.9263 31.8975C20.8806 31.8463 20.8337 31.7963 20.7855 31.7475C20.7373 31.6987 20.6879 31.6511 20.6374 31.6046C20.5868 31.5582 20.5351 31.5131 20.4823 31.4692C19.535 30.6817 18.4142 30.405 17.1985 30.5128C17.2262 30.0926 17.219 29.662 17.2118 29.2344C17.2086 29.0423 17.2054 28.8508 17.2054 28.6611ZM30.948 45.8569C30.9538 45.3774 30.9545 44.8978 30.9501 44.4181C30.95 44.3565 30.948 44.2924 30.9461 44.2271C30.9405 44.0431 30.9347 43.8503 30.9683 43.6804C31.1668 43.7007 31.3741 43.694 31.579 43.6874C31.6725 43.6844 31.7655 43.6814 31.8568 43.681L33.6508 43.6778C34.2242 43.6775 34.7978 43.676 35.3715 43.6745H35.3717H35.3722C36.9051 43.6705 38.4386 43.6665 39.9709 43.6864C39.9642 43.7998 39.9665 44.0723 39.9693 44.3876C39.9745 44.9946 39.9812 45.7602 39.9268 45.8548C39.107 45.8343 38.2835 45.8404 37.4611 45.8464C37.0694 45.8493 36.6779 45.8522 36.2871 45.8522C35.751 45.8522 35.2148 45.8508 34.6785 45.8494H34.6783H34.678C33.4346 45.8462 32.1909 45.8431 30.948 45.8569ZM20.2248 34.4476C20.2771 35.1454 20.0526 35.7649 19.5929 36.2903C19.5209 36.3704 19.4408 36.4409 19.3602 36.512L19.3595 36.5126C19.3504 36.5207 19.3413 36.5287 19.3322 36.5368C18.7222 36.5552 18.1102 36.5485 17.4995 36.5418L17.4985 36.5418L17.4974 36.5418C17.3968 36.5407 17.2962 36.5396 17.1956 36.5386C17.2179 36.239 17.2131 35.9317 17.2084 35.6271C17.2065 35.5024 17.2045 35.378 17.2045 35.2548C17.2043 34.9603 17.2023 34.6653 17.2002 34.3701C17.1954 33.6661 17.1905 32.9612 17.2113 32.2591C17.3186 32.2356 17.428 32.2243 17.5373 32.2131L17.5696 32.2097C17.58 32.2087 17.5904 32.2076 17.6008 32.2064C18.2567 32.1725 18.8655 32.3579 19.3675 32.7833C19.3984 32.8091 19.4286 32.8356 19.4581 32.8628C19.4877 32.89 19.5165 32.918 19.5446 32.9466C19.5728 32.9753 19.6002 33.0047 19.6269 33.0347C19.6535 33.0647 19.6794 33.0954 19.7045 33.1267C19.7296 33.158 19.7539 33.1899 19.7774 33.2224C19.8009 33.2549 19.8236 33.288 19.8455 33.3216C19.8673 33.3552 19.8883 33.3894 19.9084 33.424C19.9285 33.4587 19.9478 33.4939 19.9661 33.5295C19.9845 33.5651 20.0019 33.6011 20.0184 33.6377C20.0349 33.6741 20.0506 33.711 20.0653 33.7482C20.0799 33.7854 20.0936 33.8231 20.1064 33.861C20.1192 33.899 20.131 33.9372 20.1419 33.9757C20.1527 34.0142 20.1626 34.053 20.1715 34.092C20.1804 34.131 20.1883 34.1702 20.1952 34.2095C20.2021 34.249 20.2081 34.2886 20.213 34.3283C20.2179 34.3679 20.2219 34.4077 20.2248 34.4476Z" fill="#93C704"/>
</svg>
