<svg width="67" height="67" viewBox="0 0 67 67" fill="none" xmlns="http://www.w3.org/2000/svg">
<path fill-rule="evenodd" clip-rule="evenodd" d="M29.5169 16.6573L29.5169 24.3377L37.1974 24.3377V16.6573L29.5169 16.6573ZM28.8177 14.25L37.8966 14.25C38.8399 14.25 39.6046 15.0147 39.6046 15.958V25.037C39.6046 25.9803 38.8399 26.745 37.8966 26.745H28.8177C27.8744 26.745 27.1096 25.9803 27.1096 25.037L27.1096 15.958C27.1096 15.0147 27.8744 14.25 28.8177 14.25ZM23.662 16.8952L27.035 20.2682L23.662 23.6413L21.9598 21.9391L22.427 21.4719H22.1002C21.8786 21.4719 21.699 21.6515 21.699 21.8731V25.5414H19.2917V21.8731C19.2917 20.322 20.5491 19.0646 22.1002 19.0646H22.427L21.9598 18.5974L23.662 16.8952ZM44.5912 21.4719H40.9229V19.0646L44.5912 19.0646C46.1423 19.0646 47.3997 20.322 47.3997 21.8731V22.177L47.8669 21.7098L49.5691 23.412L46.1961 26.785L42.823 23.412L44.5252 21.7098L44.9924 22.177V21.8731C44.9924 21.6515 44.8128 21.4719 44.5912 21.4719ZM49.4058 29.2669L42.5278 29.2669C42.3062 29.2669 42.1266 29.4466 42.1266 29.6681V36.5461C42.1266 36.7677 42.3062 36.9473 42.5278 36.9473H49.4058C49.6274 36.9473 49.807 36.7677 49.807 36.5461V29.6681C49.807 29.4466 49.6274 29.2669 49.4058 29.2669ZM42.5278 26.8596L49.4058 26.8596C50.9569 26.8596 52.2143 28.1171 52.2143 29.6681V36.5461C52.2143 38.0972 50.9569 39.3546 49.4058 39.3546H42.5278C40.9767 39.3546 39.7193 38.0972 39.7193 36.5461V29.6681C39.7193 28.117 40.9767 26.8596 42.5278 26.8596ZM16.9073 29.2669L16.9073 36.9473H24.5877V29.2669H16.9073ZM14.5 28.5677C14.5 27.6244 15.2647 26.8596 16.208 26.8596H25.287C26.2303 26.8596 26.995 27.6243 26.995 28.5677L26.995 37.6466C26.995 38.5899 26.2303 39.3546 25.287 39.3546H16.208C15.2647 39.3546 14.5 38.5899 14.5 37.6466L14.5 28.5677ZM27.1096 41.1773C27.1096 40.234 27.8743 39.4693 28.8177 39.4693H37.8966C38.8399 39.4693 39.6046 40.234 39.6046 41.1773V50.2562C39.6046 51.1996 38.8399 51.9643 37.8966 51.9643H28.8177C27.8744 51.9643 27.1096 51.1996 27.1096 50.2562V41.1773ZM29.5169 41.8766V49.557H37.1974L37.1974 41.8766H29.5169ZM20.4953 39.4751L24.1205 43.1003L22.4183 44.8025L21.699 44.0832V44.8685C21.699 45.0901 21.8786 45.2697 22.1002 45.2697H25.7914V47.677H22.1002C20.5491 47.677 19.2917 46.4196 19.2917 44.8685V44.0832L18.5723 44.8025L16.8701 43.1003L20.4953 39.4751ZM44.9924 44.8685V40.6729H47.3997V44.8685C47.3997 46.4196 46.1423 47.677 44.5912 47.677H44.2873L44.7545 48.1442L43.0523 49.8464L39.6792 46.4734L43.0523 43.1003L44.7545 44.8025L44.2873 45.2697H44.5912C44.8128 45.2697 44.9924 45.0901 44.9924 44.8685Z" fill="#93C704"/>
</svg>
