<svg width="67" height="67" viewBox="0 0 67 67" fill="none" xmlns="http://www.w3.org/2000/svg">
<path fill-rule="evenodd" clip-rule="evenodd" d="M23.2273 17.0291C21.5621 17.5001 20.2501 18.8121 19.7791 20.4773H15.5V23.2045H19.5909V25.9318H15.5V28.6591H19.5909V31.3864H15.5V34.1136H19.5909V36.8409H15.5V39.5682H19.5909V42.2955H15.5V45.0227H19.7791C20.2501 46.6879 21.5621 47.9999 23.2273 48.4709V52.75H25.9545V48.6591H28.6818V52.75H31.4091V48.6591H34.1364V52.75H36.8636V48.6591H39.5909V52.75H42.3182V48.6591H45.0455V52.75H47.7727V48.4709C49.4379 47.9999 50.7499 46.6879 51.2209 45.0227H55.5V42.2955H51.4091V39.5682H55.5V36.8409H51.4091V34.1136H55.5V31.3864H51.4091V28.6591H55.5V25.9318H51.4091V23.2045H55.5V20.4773H51.2209C50.7499 18.8121 49.4379 17.5001 47.7727 17.0291V12.75H45.0455V16.8409H42.3182V12.75H39.5909V16.8409H36.8636V12.75H34.1364V16.8409H31.4091V12.75H28.6818V16.8409H25.9545V12.75H23.2273V17.0291ZM24.5909 19.5682C23.3357 19.5682 22.3182 20.5857 22.3182 21.8409V43.6591C22.3182 44.9143 23.3357 45.9318 24.5909 45.9318H46.4091C47.6643 45.9318 48.6818 44.9143 48.6818 43.6591V21.8409C48.6818 20.5857 47.6643 19.5682 46.4091 19.5682H24.5909ZM26.8636 27.2955C26.8636 24.534 29.1022 22.2955 31.8636 22.2955V25.0227C30.6084 25.0227 29.5909 26.0403 29.5909 27.2955V30.1787C29.5909 31.0226 29.2557 31.8319 28.659 32.4286C28.4815 32.6061 28.4815 32.8939 28.659 33.0714C29.2557 33.6681 29.5909 34.4774 29.5909 35.3213V38.2045C29.5909 39.4597 30.6084 40.4773 31.8636 40.4773V43.2045C29.1022 43.2045 26.8636 40.966 26.8636 38.2045V35.3213C26.8636 35.2007 26.8157 35.0851 26.7305 34.9999C25.4879 33.7573 25.4879 31.7427 26.7305 30.5001C26.8157 30.4149 26.8636 30.2993 26.8636 30.1787V27.2955ZM39.1364 22.2955C41.8978 22.2955 44.1364 24.534 44.1364 27.2955V30.1787C44.1364 30.2993 44.1843 30.4149 44.2695 30.5001C45.5121 31.7427 45.5121 33.7573 44.2695 34.9999C44.1843 35.0851 44.1364 35.2007 44.1364 35.3213V38.2045C44.1364 40.966 41.8978 43.2045 39.1364 43.2045V40.4773C40.3916 40.4773 41.4091 39.4597 41.4091 38.2045V35.3213C41.4091 34.4774 41.7443 33.6681 42.341 33.0714C42.5185 32.8939 42.5185 32.6061 42.341 32.4286C41.7443 31.8319 41.4091 31.0226 41.4091 30.1787V27.2955C41.4091 26.0403 40.3916 25.0227 39.1364 25.0227V22.2955Z" fill="#93C704"/>
</svg>
