<svg width="67" height="67" viewBox="0 0 67 67" fill="none" xmlns="http://www.w3.org/2000/svg">
<path fill-rule="evenodd" clip-rule="evenodd" d="M20.9246 19.2075C19.4431 19.2075 18.2888 20.3761 18.2888 21.7607C18.2888 23.1452 19.4431 24.3139 20.9246 24.3139C21.4926 24.3139 22.0135 24.1412 22.4403 23.8497C22.8722 23.5549 23.2047 23.1406 23.391 22.6639C23.5002 22.3844 23.5603 22.0807 23.5603 21.7607C23.5603 20.3761 22.4061 19.2075 20.9246 19.2075ZM15.7356 21.7607C15.7356 18.915 18.0846 16.6543 20.9246 16.6543C23.2831 16.6543 25.303 18.2134 25.92 20.372L40.5349 18.9413C41.0266 17.5966 42.3357 16.6543 43.8398 16.6543C45.7537 16.6543 47.352 18.1801 47.352 20.1193C47.352 20.817 47.1426 21.4645 46.7865 22.0052L49.6373 29.255C49.7527 29.2437 49.8696 29.2379 49.9878 29.2379C51.9017 29.2379 53.5 30.7637 53.5 32.7029C53.5 34.6422 51.9017 36.168 49.9878 36.168C49.6524 36.168 49.3272 36.1213 49.0187 36.0341L43.2902 44.294C43.7327 44.8716 43.9986 45.5931 43.9986 46.3807C43.9986 48.32 42.4003 49.8458 40.4863 49.8458C38.9017 49.8458 37.5334 48.7998 37.1095 47.3392L28.1431 44.2672C27.3555 47.4825 24.4043 49.8458 20.9246 49.8458C16.8499 49.8458 13.5 46.6053 13.5 42.551C13.5 38.9293 16.1731 35.957 19.648 35.3639V26.7108C17.4137 26.1532 15.7356 24.1659 15.7356 21.7607ZM22.2012 26.7111V35.3636C24.2586 35.7142 26.0308 36.8975 27.1371 38.555L31.4134 37.1811L22.8193 26.5156C22.6189 26.593 22.4126 26.6584 22.2012 26.7111ZM24.9059 25.0358L34.018 36.3443L45.5453 32.6408L25.1533 24.7206C25.0749 24.829 24.9923 24.9341 24.9059 25.0358ZM27.273 22.8049L47.2305 30.5564C47.2691 30.5082 47.3089 30.461 47.35 30.415L44.6293 23.4963C44.3751 23.5539 44.1107 23.5844 43.8398 23.5844C42.412 23.5844 41.1599 22.7352 40.6159 21.4988L27.273 22.8049ZM46.6515 34.9671L35.7345 38.4746L39.4395 43.0725C39.7709 42.9705 40.1227 42.9157 40.4863 42.9157C40.6959 42.9157 40.9017 42.9339 41.1021 42.969L46.6515 34.9671ZM37.4384 44.6583L33.1299 39.3114L28.1598 40.9082C28.2144 41.1409 28.2576 41.3778 28.2889 41.6182L37.3936 44.7376C37.4082 44.711 37.4231 44.6845 37.4384 44.6583ZM43.8398 19.2075C43.2843 19.2075 42.8808 19.6413 42.8808 20.1193C42.8808 20.5974 43.2843 21.0312 43.8398 21.0312C44.0918 21.0312 44.3152 20.9405 44.484 20.7947C44.6834 20.6224 44.7988 20.3815 44.7988 20.1193C44.7988 19.6413 44.3953 19.2075 43.8398 19.2075ZM49.9878 31.7911C49.8066 31.7911 49.6417 31.8378 49.5011 31.9169C49.2762 32.0435 49.1178 32.2499 49.0572 32.4804C49.0388 32.5504 49.0287 32.6246 49.0287 32.7029C49.0287 32.7812 49.0388 32.8555 49.0572 32.9254C49.106 33.1111 49.2179 33.281 49.3786 33.4071C49.5426 33.5358 49.7525 33.6148 49.9878 33.6148C50.5432 33.6148 50.9468 33.181 50.9468 32.7029C50.9468 32.2249 50.5432 31.7911 49.9878 31.7911ZM20.9246 37.8093C18.2084 37.8093 16.0532 39.9578 16.0532 42.551C16.0532 45.1442 18.2084 47.2926 20.9246 47.2926C23.6408 47.2926 25.796 45.1442 25.796 42.551C25.796 41.8617 25.6457 41.2096 25.3758 40.6211C24.6198 38.9724 22.9183 37.8093 20.9246 37.8093ZM40.4863 45.4689C40.251 45.4689 40.0412 45.5479 39.8772 45.6766C39.6563 45.8499 39.5273 46.1042 39.5273 46.3807C39.5273 46.8588 39.9309 47.2926 40.4863 47.2926C41.0418 47.2926 41.4454 46.8588 41.4454 46.3807C41.4454 46.0583 41.2679 45.7617 40.9751 45.5959C40.8341 45.5161 40.6684 45.4689 40.4863 45.4689Z" fill="#93C704"/>
</svg>
