<svg width="67" height="67" viewBox="0 0 67 67" fill="none" xmlns="http://www.w3.org/2000/svg">
<mask id="path-1-outside-1_1244_2586" maskUnits="userSpaceOnUse" x="12.5" y="12.25" width="42" height="42" fill="black">
<rect fill="white" x="12.5" y="12.25" width="42" height="42"/>
<path d="M25.9683 13.2705C26.1123 13.2645 26.2563 13.2614 26.4004 13.2614L39.547 13.2604C40.1736 13.2603 40.8443 13.211 41.461 13.3277C41.5421 13.3433 41.6225 13.362 41.7022 13.3836C41.7819 13.4052 41.8607 13.4298 41.9386 13.4574C42.0165 13.4849 42.0932 13.5153 42.1688 13.5485C42.2444 13.5818 42.3187 13.6178 42.3917 13.6566C42.4645 13.6954 42.5359 13.7369 42.6057 13.781C42.6756 13.8252 42.7437 13.8718 42.81 13.9211C42.8763 13.9703 42.9407 14.0219 43.0032 14.0759C43.0657 14.1299 43.1261 14.1862 43.1844 14.2447C43.2415 14.3018 43.2965 14.3608 43.3493 14.4219C43.402 14.483 43.4524 14.546 43.5006 14.6108C43.5487 14.6756 43.5943 14.7421 43.6375 14.8103C43.6808 14.8785 43.7214 14.9482 43.7595 15.0194C43.7976 15.0906 43.833 15.163 43.8657 15.2368C43.8984 15.3106 43.9283 15.3855 43.9555 15.4615C43.9827 15.5376 44.0071 15.6145 44.0287 15.6923C44.0502 15.7701 44.0688 15.8486 44.0845 15.9277C44.2021 16.5309 44.1589 17.1735 44.1589 17.7865L44.1576 29.2456C44.5108 29.2466 45.3665 29.1727 45.644 29.3633C45.7472 29.4343 45.8234 29.5393 45.8749 29.6522C46.022 29.975 46.188 30.986 46.2717 31.3907C46.4838 31.4956 46.7179 31.5672 46.938 31.6558C47.2015 31.762 47.4589 31.8864 47.717 32.0051C48.1203 31.7626 48.8674 31.1924 49.2542 31.0508C49.439 30.9831 49.6361 30.9904 49.812 31.0822C50.0152 31.1883 51.3857 32.5654 51.5816 32.8159C51.6401 32.8907 51.6839 32.9646 51.7085 33.0568C51.7425 33.184 51.7385 33.3091 51.6955 33.4334C51.5673 33.8045 50.9492 34.6354 50.7179 35.0356C50.9703 35.4722 51.1514 35.9523 51.3069 36.4305C51.8185 36.6313 52.6984 36.6593 53.139 36.8988C53.2745 36.9724 53.4054 37.1035 53.4444 37.2567C53.5105 37.5169 53.5137 39.418 53.4748 39.724C53.4608 39.8334 53.4285 39.9504 53.3685 40.0437C53.2994 40.1511 53.1985 40.229 53.0843 40.2837C52.7318 40.4526 51.7814 40.5969 51.3441 40.7019C51.2234 40.905 51.155 41.1564 51.0673 41.3766C50.9648 41.634 50.843 41.8826 50.7185 42.13L51.2885 43.0014C51.4249 43.2109 51.5919 43.4285 51.6825 43.6625C51.7503 43.838 51.748 44.0326 51.6626 44.2027C51.569 44.3891 50.1482 45.8061 49.9167 45.9967C49.8481 46.0532 49.7734 46.0982 49.6888 46.1261C49.5661 46.1666 49.4294 46.1608 49.3073 46.1212C48.9112 45.9928 48.1673 45.3922 47.7306 45.164L47.7073 45.152C47.4698 45.241 47.2419 45.3704 47.0073 45.4696C46.7702 45.5698 46.5113 45.6369 46.2885 45.7664C46.125 46.2729 46.0841 46.9777 45.9003 47.4369C45.8269 47.6201 45.7007 47.7889 45.5124 47.8645C45.3463 47.9311 45.1586 47.9107 44.9975 47.8392C44.8312 47.7655 44.7105 47.6352 44.6504 47.4636C44.6232 47.3861 44.6126 47.3166 44.617 47.2343C44.6347 46.8974 45.022 45.0977 45.1618 44.8305C45.2188 44.7215 45.3265 44.6499 45.4347 44.5975C45.749 44.4449 46.1504 44.3856 46.4827 44.2469C46.8293 44.1023 47.1598 43.8473 47.5131 43.7359C47.6187 43.7027 47.7247 43.6869 47.834 43.7098C48.2577 43.7984 48.9544 44.3961 49.3864 44.614L49.4115 44.6265C49.6902 44.3796 49.9608 44.088 50.2129 43.8132C49.9802 43.4136 49.3973 42.6865 49.291 42.2915C49.2589 42.1724 49.2735 42.0636 49.3118 41.9478C49.4209 41.6187 49.7136 41.1807 49.8602 40.8149C49.9919 40.4861 50.039 40.0701 50.222 39.7713C50.278 39.6801 50.3509 39.6076 50.4461 39.5586C50.7426 39.4059 51.7597 39.2339 52.1477 39.1478C52.1581 38.7681 52.1513 38.3866 52.1522 38.0066C51.794 37.9417 50.7433 37.7408 50.4619 37.5999C50.3626 37.5501 50.2645 37.4738 50.2101 37.3749C50.1609 37.2852 50.1292 37.1863 50.1 37.0886C49.9861 36.7059 49.8753 36.3312 49.6991 35.9706C49.5762 35.7189 49.3843 35.463 49.3026 35.1968C49.2937 35.1683 49.287 35.1391 49.2823 35.1095C49.2777 35.0799 49.2753 35.0501 49.2751 35.0201C49.2748 34.9902 49.2768 34.9604 49.2809 34.9307C49.285 34.901 49.2913 34.8718 49.2998 34.843C49.421 34.4384 49.9792 33.745 50.2099 33.3254C50.0039 33.085 49.6482 32.7078 49.387 32.5296C49.0247 32.7416 48.2144 33.3498 47.8801 33.4434C47.7855 33.4699 47.6845 33.4776 47.5897 33.448C47.233 33.3368 46.9139 33.0826 46.566 32.9395C46.2214 32.7978 45.6263 32.6759 45.3495 32.5048C45.2508 32.4439 45.1857 32.3698 45.1334 32.2667C44.9772 31.9585 44.8294 30.9956 44.7427 30.5984C44.5468 30.5895 44.3555 30.6047 44.1597 30.5788C44.1497 31.9109 44.1488 33.243 44.1569 34.5751C44.3718 34.5813 44.5856 34.601 44.7981 34.6339C44.863 34.6446 44.9276 34.6568 44.9919 34.6707C45.0562 34.6845 45.1201 34.7 45.1837 34.717C45.2472 34.7339 45.3103 34.7525 45.373 34.7726C45.4356 34.7927 45.4977 34.8143 45.5592 34.8375C45.6208 34.8607 45.6817 34.8853 45.7421 34.9115C45.8025 34.9377 45.8622 34.9653 45.9211 34.9944C45.9801 35.0236 46.0384 35.0541 46.0958 35.0861C46.1533 35.1181 46.21 35.1514 46.2659 35.1862C46.3216 35.221 46.3766 35.2571 46.4306 35.2946C46.4847 35.3321 46.5378 35.3709 46.5899 35.411C46.6421 35.4511 46.6933 35.4924 46.7433 35.5351C46.7935 35.5777 46.8425 35.6215 46.8904 35.6666C46.9383 35.7116 46.9852 35.7578 47.0309 35.8051C47.0765 35.8525 47.121 35.9009 47.1642 35.9505C47.2076 36 47.2496 36.0506 47.2903 36.1022C47.3311 36.1538 47.3706 36.2064 47.4088 36.2599C47.4471 36.3136 47.4841 36.3681 47.5196 36.4237C47.5552 36.4791 47.5894 36.5354 47.6222 36.5926C47.655 36.6498 47.6864 36.7077 47.7163 36.7665C47.7463 36.8252 47.7747 36.8846 47.8017 36.9448C47.8287 37.0049 47.8541 37.0656 47.8781 37.127C47.9021 37.1884 47.9245 37.2504 47.9454 37.3129C47.9663 37.3754 47.9857 37.4384 48.0034 37.5018C48.0212 37.5653 48.0374 37.6292 48.0521 37.6934C48.0667 37.7577 48.0797 37.8223 48.0911 37.8872C48.1025 37.9521 48.1123 38.0173 48.1205 38.0827C48.1287 38.1481 48.1352 38.2137 48.1402 38.2794C48.1451 38.3451 48.1484 38.4109 48.1501 38.4768C48.1518 38.5427 48.1519 38.6086 48.1502 38.6745C48.1486 38.7404 48.1454 38.8062 48.1406 38.8719C48.1358 38.9377 48.1293 39.0032 48.1212 39.0686C48.1131 39.134 48.1034 39.1992 48.092 39.2641C47.9201 40.2705 47.3188 41.2455 46.4774 41.8303C46.2969 41.9558 46.0971 42.0395 45.8736 41.9953C45.8516 41.991 45.8299 41.9856 45.8085 41.9791C45.787 41.9727 45.766 41.9652 45.7454 41.9565C45.7248 41.9478 45.7046 41.9382 45.685 41.9274C45.6653 41.9167 45.6463 41.905 45.6278 41.8923C45.6094 41.8796 45.5916 41.8661 45.5746 41.8516C45.5575 41.837 45.5413 41.8217 45.5258 41.8055C45.5104 41.7894 45.4958 41.7724 45.482 41.7547C45.4683 41.7371 45.4555 41.7188 45.4437 41.6998C45.2927 41.4583 45.3238 41.1311 45.5016 40.9112C45.6174 40.7681 45.798 40.6606 45.9387 40.5422C46.0365 40.46 46.1234 40.3617 46.2057 40.2642C46.2746 40.1819 46.3382 40.0957 46.3964 40.0055C46.4547 39.9153 46.5071 39.8218 46.5536 39.7251C46.6002 39.6284 46.6406 39.5292 46.6749 39.4274C46.7091 39.3257 46.7369 39.2222 46.7582 39.117C46.7673 39.0742 46.7752 39.0311 46.7821 38.9879C46.789 38.9446 46.7948 38.9012 46.7995 38.8577C46.8042 38.8142 46.8079 38.7705 46.8104 38.7268C46.813 38.6831 46.8145 38.6394 46.8149 38.5956C46.8153 38.5518 46.8146 38.508 46.8129 38.4643C46.8111 38.4205 46.8082 38.3768 46.8043 38.3332C46.8003 38.2896 46.7953 38.2461 46.7892 38.2028C46.7831 38.1594 46.7759 38.1162 46.7676 38.0732C46.7594 38.0302 46.7501 37.9874 46.7397 37.9449C46.7294 37.9023 46.7179 37.8601 46.7054 37.8181C46.693 37.7761 46.6795 37.7345 46.665 37.6932C46.6504 37.6519 46.6348 37.611 46.6183 37.5704C46.6017 37.5299 46.5842 37.4898 46.5656 37.4501C46.547 37.4105 46.5275 37.3713 46.507 37.3326C46.4865 37.2939 46.4651 37.2558 46.4426 37.2181C46.4203 37.1805 46.3969 37.1434 46.3727 37.107C46.0134 36.5665 45.4486 36.1476 44.8116 36.0042C44.5972 35.956 44.3765 35.9464 44.1604 35.9031C44.1441 37.0715 44.1581 38.2419 44.1581 39.4105L44.159 48.7071C44.1591 49.2871 44.1975 49.8941 44.1032 50.4672C44.091 50.5388 44.0764 50.61 44.0595 50.6807C44.0426 50.7513 44.0233 50.8213 44.0018 50.8907C43.9802 50.96 43.9564 51.0286 43.9302 51.0964C43.9041 51.1642 43.8757 51.2311 43.8452 51.297C43.8146 51.3629 43.7819 51.4277 43.747 51.4914C43.7121 51.5552 43.6751 51.6177 43.6361 51.6789C43.597 51.7402 43.556 51.8001 43.513 51.8587C43.4699 51.9172 43.425 51.9742 43.3782 52.0298C43.3429 52.0725 43.3065 52.1142 43.2691 52.1551C43.2317 52.196 43.1932 52.2359 43.1538 52.2748C43.1144 52.3138 43.074 52.3518 43.0327 52.3887C42.9914 52.4256 42.9492 52.4615 42.9061 52.4963C42.863 52.5312 42.819 52.5649 42.7742 52.5975C42.7294 52.6302 42.6838 52.6617 42.6375 52.692C42.5911 52.7223 42.544 52.7515 42.4962 52.7795C42.4484 52.8075 42.3999 52.8343 42.3507 52.8598C42.3015 52.8854 42.2517 52.9097 42.2014 52.9328C42.151 52.9559 42.1 52.9778 42.0486 52.9983C41.9971 53.0188 41.9452 53.0381 41.8927 53.056C41.8403 53.0739 41.7875 53.0906 41.7342 53.1059C41.6809 53.1211 41.6272 53.1351 41.5733 53.1478C41.5193 53.1604 41.4651 53.1716 41.4106 53.1815C41.3561 53.1914 41.3013 53.2 41.2464 53.2071C41.1914 53.2143 41.1363 53.2201 41.0811 53.2245C40.4873 53.273 39.8686 53.2407 39.2717 53.2405L26.4757 53.2409C25.3951 53.2309 24.545 52.9983 23.7717 52.204C23.7162 52.1476 23.6629 52.0892 23.6118 52.0289C23.5607 51.9685 23.5118 51.9064 23.4653 51.8424C23.4187 51.7785 23.3746 51.713 23.3329 51.6457C23.2912 51.5786 23.252 51.5099 23.2153 51.4398C23.1787 51.3698 23.1447 51.2984 23.1133 51.2258C23.0819 51.1532 23.0532 51.0796 23.0272 51.0049C23.0013 50.9302 22.9781 50.8546 22.9577 50.7782C22.9373 50.7018 22.9198 50.6247 22.9051 50.547C22.7961 49.9611 22.84 49.3315 22.84 48.7363L22.8407 46.1525C22.841 43.1888 22.8074 40.2215 22.8445 37.2583C22.4539 37.2504 21.7495 37.3227 21.4136 37.1652C21.3878 37.1533 21.3629 37.1395 21.339 37.1239C21.3152 37.1084 21.2927 37.0911 21.2715 37.0721C21.2503 37.0531 21.2306 37.0326 21.2125 37.0106C21.1943 36.9887 21.1779 36.9655 21.1632 36.9411C21.0126 36.6918 20.8785 35.871 20.8123 35.5473C20.7879 35.4276 20.7785 35.2958 20.7355 35.1814C20.7244 35.152 20.7047 35.1154 20.6819 35.0935C20.5994 35.0147 20.363 34.9578 20.255 34.9165C19.927 34.7911 19.612 34.6446 19.2953 34.4932C18.8036 34.7056 18.1665 35.3029 17.6983 35.4618C17.5555 35.5103 17.3532 35.5121 17.2183 35.4381C16.9972 35.3167 15.607 33.9204 15.3994 33.664C15.344 33.5956 15.3026 33.5283 15.281 33.4423C15.2485 33.3129 15.2628 33.1695 15.3066 33.0446C15.449 32.6395 16.0298 31.8935 16.2738 31.4603C16.0288 31.0093 15.85 30.5441 15.6856 30.0588C15.1557 29.8675 14.4496 29.8535 13.9539 29.6454C13.7895 29.5764 13.6253 29.4576 13.5612 29.2845C13.4763 29.0553 13.4963 27.1504 13.5234 26.8132C13.5319 26.7063 13.5415 26.5943 13.5918 26.4981C13.6417 26.4027 13.7151 26.3142 13.8079 26.2584C14.2022 26.0209 15.0398 25.9941 15.5071 25.8383C15.5598 25.8208 15.6219 25.7999 15.6582 25.7565C15.7682 25.6251 15.9046 25.1591 15.9863 24.9708C16.0765 24.7682 16.1712 24.5676 16.2704 24.3692C16.071 24.0263 15.8408 23.6966 15.6245 23.3641C15.5151 23.1959 15.3883 23.0247 15.3116 22.8389C15.3031 22.8178 15.2957 22.7964 15.2894 22.7747C15.2831 22.7529 15.2779 22.7309 15.2738 22.7086C15.2698 22.6863 15.2668 22.6639 15.2651 22.6413C15.2633 22.6187 15.2626 22.5961 15.2631 22.5734C15.2636 22.5508 15.2653 22.5282 15.2681 22.5057C15.2709 22.4832 15.2748 22.4609 15.2799 22.4389C15.285 22.4168 15.2911 22.395 15.2984 22.3735C15.3057 22.352 15.3141 22.331 15.3235 22.3104C15.4302 22.0773 16.8082 20.7089 17.0713 20.4939C17.1266 20.4487 17.183 20.41 17.2504 20.3853C17.2824 20.3737 17.315 20.3647 17.3483 20.3581C17.3817 20.3516 17.4153 20.3476 17.4492 20.3461C17.4832 20.3447 17.517 20.3459 17.5507 20.3497C17.5845 20.3535 17.6178 20.3598 17.6506 20.3687C18.1007 20.4885 18.8 21.1011 19.2772 21.3318L19.3042 21.3447C19.7597 21.1051 20.2242 20.9441 20.6982 20.7512C20.8986 20.206 20.891 19.5794 21.1015 19.0395C21.1687 18.8671 21.2857 18.7153 21.4597 18.6418C21.6375 18.5666 21.844 18.5943 22.0173 18.6689C22.1721 18.7356 22.2849 18.8703 22.3416 19.0275C22.375 19.1204 22.3833 19.201 22.3751 19.299C22.3459 19.6509 21.9896 21.342 21.8446 21.6305C21.7785 21.7622 21.699 21.8224 21.5693 21.889C21.3156 22.0195 20.998 22.0742 20.7268 22.169C20.3648 22.2954 20.0479 22.4716 19.7132 22.6544C19.6202 22.7052 19.5256 22.7539 19.4233 22.7835C19.3328 22.8097 19.2406 22.8167 19.1488 22.7932C18.7689 22.6959 17.9915 22.0938 17.5881 21.8682C17.3076 22.1317 17.0361 22.4042 16.7739 22.6859C16.9731 22.9551 17.6759 23.9834 17.7147 24.2719C17.7297 24.3831 17.7017 24.4954 17.6629 24.599C17.5372 24.9356 17.3098 25.2431 17.1714 25.5802C17.0408 25.8981 16.9186 26.5371 16.7344 26.7708C16.6642 26.8598 16.5701 26.9272 16.4667 26.9726C16.168 27.1036 15.2003 27.3022 14.8535 27.3469C14.8346 27.7249 14.8471 28.1079 14.8473 28.4866C15.2048 28.5557 16.3067 28.7604 16.5696 28.9199C16.6565 28.9725 16.7406 29.0496 16.7887 29.1401C16.9433 29.4313 17.0518 29.9658 17.1968 30.3099C17.3315 30.6296 17.6293 31.0296 17.7009 31.3405C17.7285 31.4601 17.7205 31.5739 17.6802 31.6893C17.5594 32.0355 16.9986 32.8132 16.7757 33.1667C17.0228 33.4331 17.3015 33.742 17.5924 33.9597C18.0536 33.7404 18.6665 33.1708 19.1247 33.0532C19.2453 33.0223 19.3615 33.0387 19.4779 33.078C19.8361 33.1991 20.1608 33.4482 20.5173 33.5899C20.81 33.7062 21.4203 33.8461 21.6407 33.9835C21.739 34.0448 21.8282 34.1511 21.8757 34.2561C22.0163 34.5673 22.1727 35.5183 22.2542 35.9011C22.4483 35.9126 22.6429 35.91 22.8373 35.9102C22.8507 34.5826 22.8287 33.2547 22.845 31.9272C21.7912 31.8655 20.8845 31.5544 20.1017 30.8256C20.054 30.7811 20.0075 30.7354 19.9621 30.6886C19.9167 30.6418 19.8725 30.5938 19.8295 30.5448C19.7865 30.4959 19.7447 30.4458 19.7041 30.3947C19.6636 30.3436 19.6243 30.2916 19.5864 30.2386C19.5484 30.1855 19.5117 30.1316 19.4764 30.0768C19.4411 30.022 19.4072 29.9663 19.3746 29.9098C19.3421 29.8533 19.311 29.796 19.2812 29.738C19.2515 29.68 19.2233 29.6212 19.1964 29.5617C19.1696 29.5023 19.1443 29.4422 19.1205 29.3815C19.0966 29.3208 19.0743 29.2596 19.0535 29.1978C19.0327 29.136 19.0134 29.0737 18.9957 29.0109C18.9779 28.9482 18.9618 28.885 18.9471 28.8215C18.9325 28.7579 18.9195 28.694 18.9081 28.6299C18.8966 28.5656 18.8868 28.5012 18.8785 28.4365C18.8702 28.3718 18.8636 28.307 18.8585 28.2419C18.8535 28.1769 18.85 28.1118 18.8482 28.0466C18.846 27.9798 18.8455 27.9129 18.8467 27.846C18.8479 27.7791 18.8507 27.7122 18.8552 27.6455C18.8597 27.5787 18.8658 27.5121 18.8737 27.4456C18.8815 27.3792 18.8909 27.3129 18.9021 27.2469C18.9132 27.1809 18.9259 27.1153 18.9403 27.0499C18.9547 26.9845 18.9707 26.9196 18.9883 26.8551C19.0059 26.7905 19.0251 26.7264 19.046 26.6628C19.0668 26.5992 19.0892 26.5361 19.1131 26.4737C19.1371 26.4112 19.1626 26.3493 19.1896 26.2881C19.2166 26.2269 19.2452 26.1664 19.2752 26.1066C19.3053 26.0468 19.3368 25.9878 19.3698 25.9295C19.4028 25.8713 19.4372 25.814 19.473 25.7575C19.5089 25.701 19.5461 25.6454 19.5847 25.5907C19.6233 25.5361 19.6633 25.4824 19.7046 25.4297C19.7458 25.3771 19.7884 25.3255 19.8323 25.2749C19.8761 25.2244 19.9212 25.1749 19.9675 25.1266C20.2201 24.8616 20.6157 24.484 21.0059 24.4843C21.1871 24.4845 21.3506 24.5533 21.4728 24.688C21.5899 24.817 21.6743 24.999 21.6605 25.1758C21.6346 25.5104 21.351 25.6972 21.1182 25.8943C21.0846 25.9223 21.0517 25.9511 21.0196 25.9807C20.9875 26.0104 20.9561 26.0409 20.9255 26.0721C20.8949 26.1033 20.8651 26.1353 20.8361 26.1681C20.8071 26.2008 20.779 26.2342 20.7516 26.2684C20.7243 26.3026 20.6979 26.3374 20.6724 26.3728C20.6468 26.4083 20.6222 26.4444 20.5984 26.4812C20.5747 26.5179 20.5519 26.5552 20.5301 26.5931C20.5082 26.631 20.4873 26.6693 20.4674 26.7083C20.4475 26.7472 20.4286 26.7866 20.4106 26.8265C20.3927 26.8664 20.3758 26.9067 20.3599 26.9474C20.344 26.9882 20.3291 27.0293 20.3153 27.0707C20.3015 27.1123 20.2887 27.1541 20.277 27.1962C20.2653 27.2383 20.2546 27.2807 20.245 27.3234C20.2355 27.3661 20.227 27.4089 20.2195 27.452C20.2121 27.4951 20.2058 27.5383 20.2005 27.5818C20.1953 27.6252 20.1912 27.6687 20.1881 27.7123C20.1846 27.7557 20.1822 27.7992 20.1808 27.8427C20.1794 27.8862 20.1792 27.9298 20.1799 27.9734C20.1807 28.0169 20.1826 28.0604 20.1855 28.1039C20.1885 28.1473 20.1925 28.1907 20.1975 28.2339C20.2026 28.2772 20.2088 28.3203 20.216 28.3632C20.2232 28.4062 20.2314 28.449 20.2407 28.4915C20.25 28.534 20.2604 28.5763 20.2718 28.6184C20.2832 28.6604 20.2956 28.7021 20.3091 28.7435C20.3226 28.7849 20.337 28.826 20.3525 28.8667C20.368 28.9074 20.3845 28.9477 20.402 28.9876C20.4194 29.0275 20.4379 29.067 20.4573 29.1059C20.4767 29.1449 20.4971 29.1834 20.5184 29.2213C20.5397 29.2593 20.562 29.2967 20.5852 29.3337C20.6083 29.3705 20.6324 29.4068 20.6574 29.4425C20.6824 29.4782 20.7082 29.5132 20.7348 29.5477C20.7615 29.5821 20.7891 29.6158 20.8174 29.6488C21.3562 30.2739 22.036 30.5212 22.8389 30.5836L22.8399 17.7785C22.8398 17.2017 22.7995 16.5904 22.893 16.0209C22.9054 15.9478 22.9202 15.8753 22.9375 15.8032C22.9547 15.7312 22.9744 15.6598 22.9965 15.5891C23.0187 15.5184 23.0431 15.4485 23.07 15.3794C23.0968 15.3103 23.1259 15.2423 23.1573 15.1752C23.1887 15.1081 23.2224 15.0421 23.2582 14.9773C23.2941 14.9125 23.3321 14.8489 23.3723 14.7867C23.4125 14.7244 23.4547 14.6636 23.499 14.6042C23.5433 14.5448 23.5895 14.4869 23.6377 14.4307C24.2401 13.7212 25.0499 13.3496 25.9683 13.2705ZM26.2383 14.604C25.6172 14.6382 25.1008 14.7893 24.6742 15.2689C24.3745 15.6059 24.2232 16.0047 24.1852 16.4509C24.1381 17.0038 24.1729 17.5866 24.1729 18.1427L24.173 47.9507C24.1724 48.6325 24.1366 49.3336 24.1798 50.0122C24.2138 50.5485 24.4456 51.045 24.8543 51.3986C25.1545 51.6584 25.4989 51.8196 25.8937 51.8712C26.4539 51.9445 27.0626 51.8992 27.6279 51.8986L37.359 51.8982C38.5026 51.8982 39.6477 51.9103 40.791 51.8964C41.3927 51.8621 41.9072 51.6804 42.3175 51.2198C42.6271 50.8723 42.774 50.4699 42.813 50.0107C42.8607 49.4477 42.8259 48.854 42.8259 48.2879L42.8257 18.5646C42.8262 17.8914 42.8617 17.2001 42.8164 16.5297C42.7769 15.944 42.5583 15.455 42.1103 15.0665C41.8362 14.8288 41.4694 14.6728 41.1096 14.6293C40.5133 14.5572 39.878 14.6022 39.2761 14.6031L29.5271 14.6031C28.4317 14.6031 27.3333 14.5845 26.2383 14.604Z"/>
<path d="M34.0961 29.9224C34.2281 29.9171 34.3626 29.9413 34.4802 30.0026C34.6459 30.0888 34.7513 30.2329 34.8045 30.4098C34.8442 30.5412 34.8151 30.6735 34.7898 30.805C34.7174 31.1819 34.6092 31.5563 34.5161 31.9288L34.0221 33.9045C33.9211 34.3081 33.5479 35.9971 33.3959 36.2618C33.2943 36.4387 33.114 36.5273 32.9242 36.577C32.7567 36.5761 32.6284 36.5622 32.4786 36.4771C32.3283 36.3918 32.2089 36.2313 32.175 36.0608C32.1493 35.9319 32.1945 35.7441 32.2209 35.616C32.3808 34.8427 32.6034 34.0715 32.7948 33.3046C32.9038 32.8681 33.4593 30.4392 33.615 30.2042C33.7353 30.0229 33.8915 29.9599 34.0961 29.9224Z"/>
<path d="M30.1021 29.923C30.3019 29.9263 30.4614 29.9603 30.6133 30.0976C30.7459 30.2175 30.8174 30.358 30.8261 30.5377C30.8323 30.6679 30.8007 30.8072 30.7318 30.9185C30.5745 31.1725 30.2903 31.4009 30.0772 31.6133C29.5353 32.1533 28.9577 32.6821 28.4492 33.253L29.9222 34.7225C30.166 34.9658 30.4406 35.2046 30.6593 35.4699C30.782 35.6186 30.8452 35.7988 30.8221 35.9927C30.8193 36.015 30.8154 36.0371 30.8104 36.059C30.8054 36.0809 30.7993 36.1025 30.7921 36.1238C30.785 36.1451 30.7767 36.166 30.7675 36.1865C30.7582 36.2069 30.7479 36.2269 30.7367 36.2464C30.7255 36.2658 30.7133 36.2846 30.7001 36.3028C30.687 36.321 30.6729 36.3386 30.658 36.3554C30.6431 36.3722 30.6274 36.3882 30.6109 36.4035C30.5944 36.4187 30.5771 36.4331 30.5592 36.4466C30.383 36.5809 30.1956 36.5879 29.9862 36.5591C29.9393 36.5411 29.8947 36.521 29.8516 36.4948C29.5927 36.3378 29.3564 36.0459 29.1416 35.831L27.9949 34.6836C27.6812 34.3695 27.2194 33.9605 26.9568 33.6312C26.9035 33.5643 26.8699 33.4882 26.8528 33.4046C26.8166 33.2271 26.8501 33.0341 26.9513 32.8829C27.0886 32.6777 27.3062 32.4967 27.4806 32.3222L29.3017 30.5008C29.455 30.3476 29.6099 30.1734 29.7791 30.0385C29.8716 29.9649 29.9894 29.9448 30.1021 29.923Z"/>
<path d="M36.7645 29.9231C36.8297 29.921 36.8912 29.926 36.9556 29.9375C37.0741 29.9589 37.1581 30.0056 37.2505 30.0806C37.4555 30.2469 37.6389 30.4483 37.8256 30.6348L39.5485 32.3569C39.7208 32.5293 39.9258 32.7043 40.0618 32.9063C40.1469 33.0328 40.1739 33.2239 40.143 33.3716C40.1196 33.4827 40.0743 33.5778 40.0018 33.6651C39.8594 33.8366 39.6884 33.9918 39.5309 34.1496L37.7783 35.9032C37.5776 36.1037 37.3737 36.3509 37.1336 36.5018C37.049 36.5457 36.961 36.5719 36.8653 36.5777C36.8433 36.579 36.8212 36.5793 36.7992 36.5784C36.7771 36.5774 36.7551 36.5754 36.7332 36.5724C36.7114 36.5693 36.6898 36.5651 36.6683 36.5599C36.6469 36.5546 36.6257 36.5483 36.6049 36.5409C36.5841 36.5336 36.5637 36.5252 36.5437 36.5158C36.5237 36.5064 36.5043 36.496 36.4853 36.4847C36.4664 36.4734 36.4481 36.4611 36.4304 36.4479C36.4127 36.4347 36.3957 36.4207 36.3793 36.4058C36.2449 36.2855 36.1662 36.1195 36.1636 35.9387C36.163 35.9048 36.165 35.871 36.1695 35.8373C36.1739 35.8037 36.1809 35.7706 36.1903 35.738C36.1998 35.7054 36.2116 35.6737 36.2257 35.6429C36.2399 35.612 36.2562 35.5824 36.2748 35.5541C36.4602 35.2705 36.7682 35.0262 37.0092 34.7861C37.5215 34.2754 38.0411 33.7694 38.5423 33.2479C38.3748 33.0443 38.1641 32.8598 37.9775 32.6732L36.8383 31.5378C36.6617 31.3618 36.4604 31.1879 36.3094 30.9903C36.2458 30.907 36.1981 30.8237 36.1748 30.7207C36.1356 30.5473 36.1779 30.3642 36.2758 30.2176C36.398 30.0344 36.5552 29.9607 36.7645 29.9231Z"/>
</mask>
<path d="M25.9683 13.2705C26.1123 13.2645 26.2563 13.2614 26.4004 13.2614L39.547 13.2604C40.1736 13.2603 40.8443 13.211 41.461 13.3277C41.5421 13.3433 41.6225 13.362 41.7022 13.3836C41.7819 13.4052 41.8607 13.4298 41.9386 13.4574C42.0165 13.4849 42.0932 13.5153 42.1688 13.5485C42.2444 13.5818 42.3187 13.6178 42.3917 13.6566C42.4645 13.6954 42.5359 13.7369 42.6057 13.781C42.6756 13.8252 42.7437 13.8718 42.81 13.9211C42.8763 13.9703 42.9407 14.0219 43.0032 14.0759C43.0657 14.1299 43.1261 14.1862 43.1844 14.2447C43.2415 14.3018 43.2965 14.3608 43.3493 14.4219C43.402 14.483 43.4524 14.546 43.5006 14.6108C43.5487 14.6756 43.5943 14.7421 43.6375 14.8103C43.6808 14.8785 43.7214 14.9482 43.7595 15.0194C43.7976 15.0906 43.833 15.163 43.8657 15.2368C43.8984 15.3106 43.9283 15.3855 43.9555 15.4615C43.9827 15.5376 44.0071 15.6145 44.0287 15.6923C44.0502 15.7701 44.0688 15.8486 44.0845 15.9277C44.2021 16.5309 44.1589 17.1735 44.1589 17.7865L44.1576 29.2456C44.5108 29.2466 45.3665 29.1727 45.644 29.3633C45.7472 29.4343 45.8234 29.5393 45.8749 29.6522C46.022 29.975 46.188 30.986 46.2717 31.3907C46.4838 31.4956 46.7179 31.5672 46.938 31.6558C47.2015 31.762 47.4589 31.8864 47.717 32.0051C48.1203 31.7626 48.8674 31.1924 49.2542 31.0508C49.439 30.9831 49.6361 30.9904 49.812 31.0822C50.0152 31.1883 51.3857 32.5654 51.5816 32.8159C51.6401 32.8907 51.6839 32.9646 51.7085 33.0568C51.7425 33.184 51.7385 33.3091 51.6955 33.4334C51.5673 33.8045 50.9492 34.6354 50.7179 35.0356C50.9703 35.4722 51.1514 35.9523 51.3069 36.4305C51.8185 36.6313 52.6984 36.6593 53.139 36.8988C53.2745 36.9724 53.4054 37.1035 53.4444 37.2567C53.5105 37.5169 53.5137 39.418 53.4748 39.724C53.4608 39.8334 53.4285 39.9504 53.3685 40.0437C53.2994 40.1511 53.1985 40.229 53.0843 40.2837C52.7318 40.4526 51.7814 40.5969 51.3441 40.7019C51.2234 40.905 51.155 41.1564 51.0673 41.3766C50.9648 41.634 50.843 41.8826 50.7185 42.13L51.2885 43.0014C51.4249 43.2109 51.5919 43.4285 51.6825 43.6625C51.7503 43.838 51.748 44.0326 51.6626 44.2027C51.569 44.3891 50.1482 45.8061 49.9167 45.9967C49.8481 46.0532 49.7734 46.0982 49.6888 46.1261C49.5661 46.1666 49.4294 46.1608 49.3073 46.1212C48.9112 45.9928 48.1673 45.3922 47.7306 45.164L47.7073 45.152C47.4698 45.241 47.2419 45.3704 47.0073 45.4696C46.7702 45.5698 46.5113 45.6369 46.2885 45.7664C46.125 46.2729 46.0841 46.9777 45.9003 47.4369C45.8269 47.6201 45.7007 47.7889 45.5124 47.8645C45.3463 47.9311 45.1586 47.9107 44.9975 47.8392C44.8312 47.7655 44.7105 47.6352 44.6504 47.4636C44.6232 47.3861 44.6126 47.3166 44.617 47.2343C44.6347 46.8974 45.022 45.0977 45.1618 44.8305C45.2188 44.7215 45.3265 44.6499 45.4347 44.5975C45.749 44.4449 46.1504 44.3856 46.4827 44.2469C46.8293 44.1023 47.1598 43.8473 47.5131 43.7359C47.6187 43.7027 47.7247 43.6869 47.834 43.7098C48.2577 43.7984 48.9544 44.3961 49.3864 44.614L49.4115 44.6265C49.6902 44.3796 49.9608 44.088 50.2129 43.8132C49.9802 43.4136 49.3973 42.6865 49.291 42.2915C49.2589 42.1724 49.2735 42.0636 49.3118 41.9478C49.4209 41.6187 49.7136 41.1807 49.8602 40.8149C49.9919 40.4861 50.039 40.0701 50.222 39.7713C50.278 39.6801 50.3509 39.6076 50.4461 39.5586C50.7426 39.4059 51.7597 39.2339 52.1477 39.1478C52.1581 38.7681 52.1513 38.3866 52.1522 38.0066C51.794 37.9417 50.7433 37.7408 50.4619 37.5999C50.3626 37.5501 50.2645 37.4738 50.2101 37.3749C50.1609 37.2852 50.1292 37.1863 50.1 37.0886C49.9861 36.7059 49.8753 36.3312 49.6991 35.9706C49.5762 35.7189 49.3843 35.463 49.3026 35.1968C49.2937 35.1683 49.287 35.1391 49.2823 35.1095C49.2777 35.0799 49.2753 35.0501 49.2751 35.0201C49.2748 34.9902 49.2768 34.9604 49.2809 34.9307C49.285 34.901 49.2913 34.8718 49.2998 34.843C49.421 34.4384 49.9792 33.745 50.2099 33.3254C50.0039 33.085 49.6482 32.7078 49.387 32.5296C49.0247 32.7416 48.2144 33.3498 47.8801 33.4434C47.7855 33.4699 47.6845 33.4776 47.5897 33.448C47.233 33.3368 46.9139 33.0826 46.566 32.9395C46.2214 32.7978 45.6263 32.6759 45.3495 32.5048C45.2508 32.4439 45.1857 32.3698 45.1334 32.2667C44.9772 31.9585 44.8294 30.9956 44.7427 30.5984C44.5468 30.5895 44.3555 30.6047 44.1597 30.5788C44.1497 31.9109 44.1488 33.243 44.1569 34.5751C44.3718 34.5813 44.5856 34.601 44.7981 34.6339C44.863 34.6446 44.9276 34.6568 44.9919 34.6707C45.0562 34.6845 45.1201 34.7 45.1837 34.717C45.2472 34.7339 45.3103 34.7525 45.373 34.7726C45.4356 34.7927 45.4977 34.8143 45.5592 34.8375C45.6208 34.8607 45.6817 34.8853 45.7421 34.9115C45.8025 34.9377 45.8622 34.9653 45.9211 34.9944C45.9801 35.0236 46.0384 35.0541 46.0958 35.0861C46.1533 35.1181 46.21 35.1514 46.2659 35.1862C46.3216 35.221 46.3766 35.2571 46.4306 35.2946C46.4847 35.3321 46.5378 35.3709 46.5899 35.411C46.6421 35.4511 46.6933 35.4924 46.7433 35.5351C46.7935 35.5777 46.8425 35.6215 46.8904 35.6666C46.9383 35.7116 46.9852 35.7578 47.0309 35.8051C47.0765 35.8525 47.121 35.9009 47.1642 35.9505C47.2076 36 47.2496 36.0506 47.2903 36.1022C47.3311 36.1538 47.3706 36.2064 47.4088 36.2599C47.4471 36.3136 47.4841 36.3681 47.5196 36.4237C47.5552 36.4791 47.5894 36.5354 47.6222 36.5926C47.655 36.6498 47.6864 36.7077 47.7163 36.7665C47.7463 36.8252 47.7747 36.8846 47.8017 36.9448C47.8287 37.0049 47.8541 37.0656 47.8781 37.127C47.9021 37.1884 47.9245 37.2504 47.9454 37.3129C47.9663 37.3754 47.9857 37.4384 48.0034 37.5018C48.0212 37.5653 48.0374 37.6292 48.0521 37.6934C48.0667 37.7577 48.0797 37.8223 48.0911 37.8872C48.1025 37.9521 48.1123 38.0173 48.1205 38.0827C48.1287 38.1481 48.1352 38.2137 48.1402 38.2794C48.1451 38.3451 48.1484 38.4109 48.1501 38.4768C48.1518 38.5427 48.1519 38.6086 48.1502 38.6745C48.1486 38.7404 48.1454 38.8062 48.1406 38.8719C48.1358 38.9377 48.1293 39.0032 48.1212 39.0686C48.1131 39.134 48.1034 39.1992 48.092 39.2641C47.9201 40.2705 47.3188 41.2455 46.4774 41.8303C46.2969 41.9558 46.0971 42.0395 45.8736 41.9953C45.8516 41.991 45.8299 41.9856 45.8085 41.9791C45.787 41.9727 45.766 41.9652 45.7454 41.9565C45.7248 41.9478 45.7046 41.9382 45.685 41.9274C45.6653 41.9167 45.6463 41.905 45.6278 41.8923C45.6094 41.8796 45.5916 41.8661 45.5746 41.8516C45.5575 41.837 45.5413 41.8217 45.5258 41.8055C45.5104 41.7894 45.4958 41.7724 45.482 41.7547C45.4683 41.7371 45.4555 41.7188 45.4437 41.6998C45.2927 41.4583 45.3238 41.1311 45.5016 40.9112C45.6174 40.7681 45.798 40.6606 45.9387 40.5422C46.0365 40.46 46.1234 40.3617 46.2057 40.2642C46.2746 40.1819 46.3382 40.0957 46.3964 40.0055C46.4547 39.9153 46.5071 39.8218 46.5536 39.7251C46.6002 39.6284 46.6406 39.5292 46.6749 39.4274C46.7091 39.3257 46.7369 39.2222 46.7582 39.117C46.7673 39.0742 46.7752 39.0311 46.7821 38.9879C46.789 38.9446 46.7948 38.9012 46.7995 38.8577C46.8042 38.8142 46.8079 38.7705 46.8104 38.7268C46.813 38.6831 46.8145 38.6394 46.8149 38.5956C46.8153 38.5518 46.8146 38.508 46.8129 38.4643C46.8111 38.4205 46.8082 38.3768 46.8043 38.3332C46.8003 38.2896 46.7953 38.2461 46.7892 38.2028C46.7831 38.1594 46.7759 38.1162 46.7676 38.0732C46.7594 38.0302 46.7501 37.9874 46.7397 37.9449C46.7294 37.9023 46.7179 37.8601 46.7054 37.8181C46.693 37.7761 46.6795 37.7345 46.665 37.6932C46.6504 37.6519 46.6348 37.611 46.6183 37.5704C46.6017 37.5299 46.5842 37.4898 46.5656 37.4501C46.547 37.4105 46.5275 37.3713 46.507 37.3326C46.4865 37.2939 46.4651 37.2558 46.4426 37.2181C46.4203 37.1805 46.3969 37.1434 46.3727 37.107C46.0134 36.5665 45.4486 36.1476 44.8116 36.0042C44.5972 35.956 44.3765 35.9464 44.1604 35.9031C44.1441 37.0715 44.1581 38.2419 44.1581 39.4105L44.159 48.7071C44.1591 49.2871 44.1975 49.8941 44.1032 50.4672C44.091 50.5388 44.0764 50.61 44.0595 50.6807C44.0426 50.7513 44.0233 50.8213 44.0018 50.8907C43.9802 50.96 43.9564 51.0286 43.9302 51.0964C43.9041 51.1642 43.8757 51.2311 43.8452 51.297C43.8146 51.3629 43.7819 51.4277 43.747 51.4914C43.7121 51.5552 43.6751 51.6177 43.6361 51.6789C43.597 51.7402 43.556 51.8001 43.513 51.8587C43.4699 51.9172 43.425 51.9742 43.3782 52.0298C43.3429 52.0725 43.3065 52.1142 43.2691 52.1551C43.2317 52.196 43.1932 52.2359 43.1538 52.2748C43.1144 52.3138 43.074 52.3518 43.0327 52.3887C42.9914 52.4256 42.9492 52.4615 42.9061 52.4963C42.863 52.5312 42.819 52.5649 42.7742 52.5975C42.7294 52.6302 42.6838 52.6617 42.6375 52.692C42.5911 52.7223 42.544 52.7515 42.4962 52.7795C42.4484 52.8075 42.3999 52.8343 42.3507 52.8598C42.3015 52.8854 42.2517 52.9097 42.2014 52.9328C42.151 52.9559 42.1 52.9778 42.0486 52.9983C41.9971 53.0188 41.9452 53.0381 41.8927 53.056C41.8403 53.0739 41.7875 53.0906 41.7342 53.1059C41.6809 53.1211 41.6272 53.1351 41.5733 53.1478C41.5193 53.1604 41.4651 53.1716 41.4106 53.1815C41.3561 53.1914 41.3013 53.2 41.2464 53.2071C41.1914 53.2143 41.1363 53.2201 41.0811 53.2245C40.4873 53.273 39.8686 53.2407 39.2717 53.2405L26.4757 53.2409C25.3951 53.2309 24.545 52.9983 23.7717 52.204C23.7162 52.1476 23.6629 52.0892 23.6118 52.0289C23.5607 51.9685 23.5118 51.9064 23.4653 51.8424C23.4187 51.7785 23.3746 51.713 23.3329 51.6457C23.2912 51.5786 23.252 51.5099 23.2153 51.4398C23.1787 51.3698 23.1447 51.2984 23.1133 51.2258C23.0819 51.1532 23.0532 51.0796 23.0272 51.0049C23.0013 50.9302 22.9781 50.8546 22.9577 50.7782C22.9373 50.7018 22.9198 50.6247 22.9051 50.547C22.7961 49.9611 22.84 49.3315 22.84 48.7363L22.8407 46.1525C22.841 43.1888 22.8074 40.2215 22.8445 37.2583C22.4539 37.2504 21.7495 37.3227 21.4136 37.1652C21.3878 37.1533 21.3629 37.1395 21.339 37.1239C21.3152 37.1084 21.2927 37.0911 21.2715 37.0721C21.2503 37.0531 21.2306 37.0326 21.2125 37.0106C21.1943 36.9887 21.1779 36.9655 21.1632 36.9411C21.0126 36.6918 20.8785 35.871 20.8123 35.5473C20.7879 35.4276 20.7785 35.2958 20.7355 35.1814C20.7244 35.152 20.7047 35.1154 20.6819 35.0935C20.5994 35.0147 20.363 34.9578 20.255 34.9165C19.927 34.7911 19.612 34.6446 19.2953 34.4932C18.8036 34.7056 18.1665 35.3029 17.6983 35.4618C17.5555 35.5103 17.3532 35.5121 17.2183 35.4381C16.9972 35.3167 15.607 33.9204 15.3994 33.664C15.344 33.5956 15.3026 33.5283 15.281 33.4423C15.2485 33.3129 15.2628 33.1695 15.3066 33.0446C15.449 32.6395 16.0298 31.8935 16.2738 31.4603C16.0288 31.0093 15.85 30.5441 15.6856 30.0588C15.1557 29.8675 14.4496 29.8535 13.9539 29.6454C13.7895 29.5764 13.6253 29.4576 13.5612 29.2845C13.4763 29.0553 13.4963 27.1504 13.5234 26.8132C13.5319 26.7063 13.5415 26.5943 13.5918 26.4981C13.6417 26.4027 13.7151 26.3142 13.8079 26.2584C14.2022 26.0209 15.0398 25.9941 15.5071 25.8383C15.5598 25.8208 15.6219 25.7999 15.6582 25.7565C15.7682 25.6251 15.9046 25.1591 15.9863 24.9708C16.0765 24.7682 16.1712 24.5676 16.2704 24.3692C16.071 24.0263 15.8408 23.6966 15.6245 23.3641C15.5151 23.1959 15.3883 23.0247 15.3116 22.8389C15.3031 22.8178 15.2957 22.7964 15.2894 22.7747C15.2831 22.7529 15.2779 22.7309 15.2738 22.7086C15.2698 22.6863 15.2668 22.6639 15.2651 22.6413C15.2633 22.6187 15.2626 22.5961 15.2631 22.5734C15.2636 22.5508 15.2653 22.5282 15.2681 22.5057C15.2709 22.4832 15.2748 22.4609 15.2799 22.4389C15.285 22.4168 15.2911 22.395 15.2984 22.3735C15.3057 22.352 15.3141 22.331 15.3235 22.3104C15.4302 22.0773 16.8082 20.7089 17.0713 20.4939C17.1266 20.4487 17.183 20.41 17.2504 20.3853C17.2824 20.3737 17.315 20.3647 17.3483 20.3581C17.3817 20.3516 17.4153 20.3476 17.4492 20.3461C17.4832 20.3447 17.517 20.3459 17.5507 20.3497C17.5845 20.3535 17.6178 20.3598 17.6506 20.3687C18.1007 20.4885 18.8 21.1011 19.2772 21.3318L19.3042 21.3447C19.7597 21.1051 20.2242 20.9441 20.6982 20.7512C20.8986 20.206 20.891 19.5794 21.1015 19.0395C21.1687 18.8671 21.2857 18.7153 21.4597 18.6418C21.6375 18.5666 21.844 18.5943 22.0173 18.6689C22.1721 18.7356 22.2849 18.8703 22.3416 19.0275C22.375 19.1204 22.3833 19.201 22.3751 19.299C22.3459 19.6509 21.9896 21.342 21.8446 21.6305C21.7785 21.7622 21.699 21.8224 21.5693 21.889C21.3156 22.0195 20.998 22.0742 20.7268 22.169C20.3648 22.2954 20.0479 22.4716 19.7132 22.6544C19.6202 22.7052 19.5256 22.7539 19.4233 22.7835C19.3328 22.8097 19.2406 22.8167 19.1488 22.7932C18.7689 22.6959 17.9915 22.0938 17.5881 21.8682C17.3076 22.1317 17.0361 22.4042 16.7739 22.6859C16.9731 22.9551 17.6759 23.9834 17.7147 24.2719C17.7297 24.3831 17.7017 24.4954 17.6629 24.599C17.5372 24.9356 17.3098 25.2431 17.1714 25.5802C17.0408 25.8981 16.9186 26.5371 16.7344 26.7708C16.6642 26.8598 16.5701 26.9272 16.4667 26.9726C16.168 27.1036 15.2003 27.3022 14.8535 27.3469C14.8346 27.7249 14.8471 28.1079 14.8473 28.4866C15.2048 28.5557 16.3067 28.7604 16.5696 28.9199C16.6565 28.9725 16.7406 29.0496 16.7887 29.1401C16.9433 29.4313 17.0518 29.9658 17.1968 30.3099C17.3315 30.6296 17.6293 31.0296 17.7009 31.3405C17.7285 31.4601 17.7205 31.5739 17.6802 31.6893C17.5594 32.0355 16.9986 32.8132 16.7757 33.1667C17.0228 33.4331 17.3015 33.742 17.5924 33.9597C18.0536 33.7404 18.6665 33.1708 19.1247 33.0532C19.2453 33.0223 19.3615 33.0387 19.4779 33.078C19.8361 33.1991 20.1608 33.4482 20.5173 33.5899C20.81 33.7062 21.4203 33.8461 21.6407 33.9835C21.739 34.0448 21.8282 34.1511 21.8757 34.2561C22.0163 34.5673 22.1727 35.5183 22.2542 35.9011C22.4483 35.9126 22.6429 35.91 22.8373 35.9102C22.8507 34.5826 22.8287 33.2547 22.845 31.9272C21.7912 31.8655 20.8845 31.5544 20.1017 30.8256C20.054 30.7811 20.0075 30.7354 19.9621 30.6886C19.9167 30.6418 19.8725 30.5938 19.8295 30.5448C19.7865 30.4959 19.7447 30.4458 19.7041 30.3947C19.6636 30.3436 19.6243 30.2916 19.5864 30.2386C19.5484 30.1855 19.5117 30.1316 19.4764 30.0768C19.4411 30.022 19.4072 29.9663 19.3746 29.9098C19.3421 29.8533 19.311 29.796 19.2812 29.738C19.2515 29.68 19.2233 29.6212 19.1964 29.5617C19.1696 29.5023 19.1443 29.4422 19.1205 29.3815C19.0966 29.3208 19.0743 29.2596 19.0535 29.1978C19.0327 29.136 19.0134 29.0737 18.9957 29.0109C18.9779 28.9482 18.9618 28.885 18.9471 28.8215C18.9325 28.7579 18.9195 28.694 18.9081 28.6299C18.8966 28.5656 18.8868 28.5012 18.8785 28.4365C18.8702 28.3718 18.8636 28.307 18.8585 28.2419C18.8535 28.1769 18.85 28.1118 18.8482 28.0466C18.846 27.9798 18.8455 27.9129 18.8467 27.846C18.8479 27.7791 18.8507 27.7122 18.8552 27.6455C18.8597 27.5787 18.8658 27.5121 18.8737 27.4456C18.8815 27.3792 18.8909 27.3129 18.9021 27.2469C18.9132 27.1809 18.9259 27.1153 18.9403 27.0499C18.9547 26.9845 18.9707 26.9196 18.9883 26.8551C19.0059 26.7905 19.0251 26.7264 19.046 26.6628C19.0668 26.5992 19.0892 26.5361 19.1131 26.4737C19.1371 26.4112 19.1626 26.3493 19.1896 26.2881C19.2166 26.2269 19.2452 26.1664 19.2752 26.1066C19.3053 26.0468 19.3368 25.9878 19.3698 25.9295C19.4028 25.8713 19.4372 25.814 19.473 25.7575C19.5089 25.701 19.5461 25.6454 19.5847 25.5907C19.6233 25.5361 19.6633 25.4824 19.7046 25.4297C19.7458 25.3771 19.7884 25.3255 19.8323 25.2749C19.8761 25.2244 19.9212 25.1749 19.9675 25.1266C20.2201 24.8616 20.6157 24.484 21.0059 24.4843C21.1871 24.4845 21.3506 24.5533 21.4728 24.688C21.5899 24.817 21.6743 24.999 21.6605 25.1758C21.6346 25.5104 21.351 25.6972 21.1182 25.8943C21.0846 25.9223 21.0517 25.9511 21.0196 25.9807C20.9875 26.0104 20.9561 26.0409 20.9255 26.0721C20.8949 26.1033 20.8651 26.1353 20.8361 26.1681C20.8071 26.2008 20.779 26.2342 20.7516 26.2684C20.7243 26.3026 20.6979 26.3374 20.6724 26.3728C20.6468 26.4083 20.6222 26.4444 20.5984 26.4812C20.5747 26.5179 20.5519 26.5552 20.5301 26.5931C20.5082 26.631 20.4873 26.6693 20.4674 26.7083C20.4475 26.7472 20.4286 26.7866 20.4106 26.8265C20.3927 26.8664 20.3758 26.9067 20.3599 26.9474C20.344 26.9882 20.3291 27.0293 20.3153 27.0707C20.3015 27.1123 20.2887 27.1541 20.277 27.1962C20.2653 27.2383 20.2546 27.2807 20.245 27.3234C20.2355 27.3661 20.227 27.4089 20.2195 27.452C20.2121 27.4951 20.2058 27.5383 20.2005 27.5818C20.1953 27.6252 20.1912 27.6687 20.1881 27.7123C20.1846 27.7557 20.1822 27.7992 20.1808 27.8427C20.1794 27.8862 20.1792 27.9298 20.1799 27.9734C20.1807 28.0169 20.1826 28.0604 20.1855 28.1039C20.1885 28.1473 20.1925 28.1907 20.1975 28.2339C20.2026 28.2772 20.2088 28.3203 20.216 28.3632C20.2232 28.4062 20.2314 28.449 20.2407 28.4915C20.25 28.534 20.2604 28.5763 20.2718 28.6184C20.2832 28.6604 20.2956 28.7021 20.3091 28.7435C20.3226 28.7849 20.337 28.826 20.3525 28.8667C20.368 28.9074 20.3845 28.9477 20.402 28.9876C20.4194 29.0275 20.4379 29.067 20.4573 29.1059C20.4767 29.1449 20.4971 29.1834 20.5184 29.2213C20.5397 29.2593 20.562 29.2967 20.5852 29.3337C20.6083 29.3705 20.6324 29.4068 20.6574 29.4425C20.6824 29.4782 20.7082 29.5132 20.7348 29.5477C20.7615 29.5821 20.7891 29.6158 20.8174 29.6488C21.3562 30.2739 22.036 30.5212 22.8389 30.5836L22.8399 17.7785C22.8398 17.2017 22.7995 16.5904 22.893 16.0209C22.9054 15.9478 22.9202 15.8753 22.9375 15.8032C22.9547 15.7312 22.9744 15.6598 22.9965 15.5891C23.0187 15.5184 23.0431 15.4485 23.07 15.3794C23.0968 15.3103 23.1259 15.2423 23.1573 15.1752C23.1887 15.1081 23.2224 15.0421 23.2582 14.9773C23.2941 14.9125 23.3321 14.8489 23.3723 14.7867C23.4125 14.7244 23.4547 14.6636 23.499 14.6042C23.5433 14.5448 23.5895 14.4869 23.6377 14.4307C24.2401 13.7212 25.0499 13.3496 25.9683 13.2705ZM26.2383 14.604C25.6172 14.6382 25.1008 14.7893 24.6742 15.2689C24.3745 15.6059 24.2232 16.0047 24.1852 16.4509C24.1381 17.0038 24.1729 17.5866 24.1729 18.1427L24.173 47.9507C24.1724 48.6325 24.1366 49.3336 24.1798 50.0122C24.2138 50.5485 24.4456 51.045 24.8543 51.3986C25.1545 51.6584 25.4989 51.8196 25.8937 51.8712C26.4539 51.9445 27.0626 51.8992 27.6279 51.8986L37.359 51.8982C38.5026 51.8982 39.6477 51.9103 40.791 51.8964C41.3927 51.8621 41.9072 51.6804 42.3175 51.2198C42.6271 50.8723 42.774 50.4699 42.813 50.0107C42.8607 49.4477 42.8259 48.854 42.8259 48.2879L42.8257 18.5646C42.8262 17.8914 42.8617 17.2001 42.8164 16.5297C42.7769 15.944 42.5583 15.455 42.1103 15.0665C41.8362 14.8288 41.4694 14.6728 41.1096 14.6293C40.5133 14.5572 39.878 14.6022 39.2761 14.6031L29.5271 14.6031C28.4317 14.6031 27.3333 14.5845 26.2383 14.604Z" fill="#93C704"/>
<path d="M34.0961 29.9224C34.2281 29.9171 34.3626 29.9413 34.4802 30.0026C34.6459 30.0888 34.7513 30.2329 34.8045 30.4098C34.8442 30.5412 34.8151 30.6735 34.7898 30.805C34.7174 31.1819 34.6092 31.5563 34.5161 31.9288L34.0221 33.9045C33.9211 34.3081 33.5479 35.9971 33.3959 36.2618C33.2943 36.4387 33.114 36.5273 32.9242 36.577C32.7567 36.5761 32.6284 36.5622 32.4786 36.4771C32.3283 36.3918 32.2089 36.2313 32.175 36.0608C32.1493 35.9319 32.1945 35.7441 32.2209 35.616C32.3808 34.8427 32.6034 34.0715 32.7948 33.3046C32.9038 32.8681 33.4593 30.4392 33.615 30.2042C33.7353 30.0229 33.8915 29.9599 34.0961 29.9224Z" fill="#93C704"/>
<path d="M30.1021 29.923C30.3019 29.9263 30.4614 29.9603 30.6133 30.0976C30.7459 30.2175 30.8174 30.358 30.8261 30.5377C30.8323 30.6679 30.8007 30.8072 30.7318 30.9185C30.5745 31.1725 30.2903 31.4009 30.0772 31.6133C29.5353 32.1533 28.9577 32.6821 28.4492 33.253L29.9222 34.7225C30.166 34.9658 30.4406 35.2046 30.6593 35.4699C30.782 35.6186 30.8452 35.7988 30.8221 35.9927C30.8193 36.015 30.8154 36.0371 30.8104 36.059C30.8054 36.0809 30.7993 36.1025 30.7921 36.1238C30.785 36.1451 30.7767 36.166 30.7675 36.1865C30.7582 36.2069 30.7479 36.2269 30.7367 36.2464C30.7255 36.2658 30.7133 36.2846 30.7001 36.3028C30.687 36.321 30.6729 36.3386 30.658 36.3554C30.6431 36.3722 30.6274 36.3882 30.6109 36.4035C30.5944 36.4187 30.5771 36.4331 30.5592 36.4466C30.383 36.5809 30.1956 36.5879 29.9862 36.5591C29.9393 36.5411 29.8947 36.521 29.8516 36.4948C29.5927 36.3378 29.3564 36.0459 29.1416 35.831L27.9949 34.6836C27.6812 34.3695 27.2194 33.9605 26.9568 33.6312C26.9035 33.5643 26.8699 33.4882 26.8528 33.4046C26.8166 33.2271 26.8501 33.0341 26.9513 32.8829C27.0886 32.6777 27.3062 32.4967 27.4806 32.3222L29.3017 30.5008C29.455 30.3476 29.6099 30.1734 29.7791 30.0385C29.8716 29.9649 29.9894 29.9448 30.1021 29.923Z" fill="#93C704"/>
<path d="M36.7645 29.9231C36.8297 29.921 36.8912 29.926 36.9556 29.9375C37.0741 29.9589 37.1581 30.0056 37.2505 30.0806C37.4555 30.2469 37.6389 30.4483 37.8256 30.6348L39.5485 32.3569C39.7208 32.5293 39.9258 32.7043 40.0618 32.9063C40.1469 33.0328 40.1739 33.2239 40.143 33.3716C40.1196 33.4827 40.0743 33.5778 40.0018 33.6651C39.8594 33.8366 39.6884 33.9918 39.5309 34.1496L37.7783 35.9032C37.5776 36.1037 37.3737 36.3509 37.1336 36.5018C37.049 36.5457 36.961 36.5719 36.8653 36.5777C36.8433 36.579 36.8212 36.5793 36.7992 36.5784C36.7771 36.5774 36.7551 36.5754 36.7332 36.5724C36.7114 36.5693 36.6898 36.5651 36.6683 36.5599C36.6469 36.5546 36.6257 36.5483 36.6049 36.5409C36.5841 36.5336 36.5637 36.5252 36.5437 36.5158C36.5237 36.5064 36.5043 36.496 36.4853 36.4847C36.4664 36.4734 36.4481 36.4611 36.4304 36.4479C36.4127 36.4347 36.3957 36.4207 36.3793 36.4058C36.2449 36.2855 36.1662 36.1195 36.1636 35.9387C36.163 35.9048 36.165 35.871 36.1695 35.8373C36.1739 35.8037 36.1809 35.7706 36.1903 35.738C36.1998 35.7054 36.2116 35.6737 36.2257 35.6429C36.2399 35.612 36.2562 35.5824 36.2748 35.5541C36.4602 35.2705 36.7682 35.0262 37.0092 34.7861C37.5215 34.2754 38.0411 33.7694 38.5423 33.2479C38.3748 33.0443 38.1641 32.8598 37.9775 32.6732L36.8383 31.5378C36.6617 31.3618 36.4604 31.1879 36.3094 30.9903C36.2458 30.907 36.1981 30.8237 36.1748 30.7207C36.1356 30.5473 36.1779 30.3642 36.2758 30.2176C36.398 30.0344 36.5552 29.9607 36.7645 29.9231Z" fill="#93C704"/>
<path d="M25.9683 13.2705C26.1123 13.2645 26.2563 13.2614 26.4004 13.2614L39.547 13.2604C40.1736 13.2603 40.8443 13.211 41.461 13.3277C41.5421 13.3433 41.6225 13.362 41.7022 13.3836C41.7819 13.4052 41.8607 13.4298 41.9386 13.4574C42.0165 13.4849 42.0932 13.5153 42.1688 13.5485C42.2444 13.5818 42.3187 13.6178 42.3917 13.6566C42.4645 13.6954 42.5359 13.7369 42.6057 13.781C42.6756 13.8252 42.7437 13.8718 42.81 13.9211C42.8763 13.9703 42.9407 14.0219 43.0032 14.0759C43.0657 14.1299 43.1261 14.1862 43.1844 14.2447C43.2415 14.3018 43.2965 14.3608 43.3493 14.4219C43.402 14.483 43.4524 14.546 43.5006 14.6108C43.5487 14.6756 43.5943 14.7421 43.6375 14.8103C43.6808 14.8785 43.7214 14.9482 43.7595 15.0194C43.7976 15.0906 43.833 15.163 43.8657 15.2368C43.8984 15.3106 43.9283 15.3855 43.9555 15.4615C43.9827 15.5376 44.0071 15.6145 44.0287 15.6923C44.0502 15.7701 44.0688 15.8486 44.0845 15.9277C44.2021 16.5309 44.1589 17.1735 44.1589 17.7865L44.1576 29.2456C44.5108 29.2466 45.3665 29.1727 45.644 29.3633C45.7472 29.4343 45.8234 29.5393 45.8749 29.6522C46.022 29.975 46.188 30.986 46.2717 31.3907C46.4838 31.4956 46.7179 31.5672 46.938 31.6558C47.2015 31.762 47.4589 31.8864 47.717 32.0051C48.1203 31.7626 48.8674 31.1924 49.2542 31.0508C49.439 30.9831 49.6361 30.9904 49.812 31.0822C50.0152 31.1883 51.3857 32.5654 51.5816 32.8159C51.6401 32.8907 51.6839 32.9646 51.7085 33.0568C51.7425 33.184 51.7385 33.3091 51.6955 33.4334C51.5673 33.8045 50.9492 34.6354 50.7179 35.0356C50.9703 35.4722 51.1514 35.9523 51.3069 36.4305C51.8185 36.6313 52.6984 36.6593 53.139 36.8988C53.2745 36.9724 53.4054 37.1035 53.4444 37.2567C53.5105 37.5169 53.5137 39.418 53.4748 39.724C53.4608 39.8334 53.4285 39.9504 53.3685 40.0437C53.2994 40.1511 53.1985 40.229 53.0843 40.2837C52.7318 40.4526 51.7814 40.5969 51.3441 40.7019C51.2234 40.905 51.155 41.1564 51.0673 41.3766C50.9648 41.634 50.843 41.8826 50.7185 42.13L51.2885 43.0014C51.4249 43.2109 51.5919 43.4285 51.6825 43.6625C51.7503 43.838 51.748 44.0326 51.6626 44.2027C51.569 44.3891 50.1482 45.8061 49.9167 45.9967C49.8481 46.0532 49.7734 46.0982 49.6888 46.1261C49.5661 46.1666 49.4294 46.1608 49.3073 46.1212C48.9112 45.9928 48.1673 45.3922 47.7306 45.164L47.7073 45.152C47.4698 45.241 47.2419 45.3704 47.0073 45.4696C46.7702 45.5698 46.5113 45.6369 46.2885 45.7664C46.125 46.2729 46.0841 46.9777 45.9003 47.4369C45.8269 47.6201 45.7007 47.7889 45.5124 47.8645C45.3463 47.9311 45.1586 47.9107 44.9975 47.8392C44.8312 47.7655 44.7105 47.6352 44.6504 47.4636C44.6232 47.3861 44.6126 47.3166 44.617 47.2343C44.6347 46.8974 45.022 45.0977 45.1618 44.8305C45.2188 44.7215 45.3265 44.6499 45.4347 44.5975C45.749 44.4449 46.1504 44.3856 46.4827 44.2469C46.8293 44.1023 47.1598 43.8473 47.5131 43.7359C47.6187 43.7027 47.7247 43.6869 47.834 43.7098C48.2577 43.7984 48.9544 44.3961 49.3864 44.614L49.4115 44.6265C49.6902 44.3796 49.9608 44.088 50.2129 43.8132C49.9802 43.4136 49.3973 42.6865 49.291 42.2915C49.2589 42.1724 49.2735 42.0636 49.3118 41.9478C49.4209 41.6187 49.7136 41.1807 49.8602 40.8149C49.9919 40.4861 50.039 40.0701 50.222 39.7713C50.278 39.6801 50.3509 39.6076 50.4461 39.5586C50.7426 39.4059 51.7597 39.2339 52.1477 39.1478C52.1581 38.7681 52.1513 38.3866 52.1522 38.0066C51.794 37.9417 50.7433 37.7408 50.4619 37.5999C50.3626 37.5501 50.2645 37.4738 50.2101 37.3749C50.1609 37.2852 50.1292 37.1863 50.1 37.0886C49.9861 36.7059 49.8753 36.3312 49.6991 35.9706C49.5762 35.7189 49.3843 35.463 49.3026 35.1968C49.2937 35.1683 49.287 35.1391 49.2823 35.1095C49.2777 35.0799 49.2753 35.0501 49.2751 35.0201C49.2748 34.9902 49.2768 34.9604 49.2809 34.9307C49.285 34.901 49.2913 34.8718 49.2998 34.843C49.421 34.4384 49.9792 33.745 50.2099 33.3254C50.0039 33.085 49.6482 32.7078 49.387 32.5296C49.0247 32.7416 48.2144 33.3498 47.8801 33.4434C47.7855 33.4699 47.6845 33.4776 47.5897 33.448C47.233 33.3368 46.9139 33.0826 46.566 32.9395C46.2214 32.7978 45.6263 32.6759 45.3495 32.5048C45.2508 32.4439 45.1857 32.3698 45.1334 32.2667C44.9772 31.9585 44.8294 30.9956 44.7427 30.5984C44.5468 30.5895 44.3555 30.6047 44.1597 30.5788C44.1497 31.9109 44.1488 33.243 44.1569 34.5751C44.3718 34.5813 44.5856 34.601 44.7981 34.6339C44.863 34.6446 44.9276 34.6568 44.9919 34.6707C45.0562 34.6845 45.1201 34.7 45.1837 34.717C45.2472 34.7339 45.3103 34.7525 45.373 34.7726C45.4356 34.7927 45.4977 34.8143 45.5592 34.8375C45.6208 34.8607 45.6817 34.8853 45.7421 34.9115C45.8025 34.9377 45.8622 34.9653 45.9211 34.9944C45.9801 35.0236 46.0384 35.0541 46.0958 35.0861C46.1533 35.1181 46.21 35.1514 46.2659 35.1862C46.3216 35.221 46.3766 35.2571 46.4306 35.2946C46.4847 35.3321 46.5378 35.3709 46.5899 35.411C46.6421 35.4511 46.6933 35.4924 46.7433 35.5351C46.7935 35.5777 46.8425 35.6215 46.8904 35.6666C46.9383 35.7116 46.9852 35.7578 47.0309 35.8051C47.0765 35.8525 47.121 35.9009 47.1642 35.9505C47.2076 36 47.2496 36.0506 47.2903 36.1022C47.3311 36.1538 47.3706 36.2064 47.4088 36.2599C47.4471 36.3136 47.4841 36.3681 47.5196 36.4237C47.5552 36.4791 47.5894 36.5354 47.6222 36.5926C47.655 36.6498 47.6864 36.7077 47.7163 36.7665C47.7463 36.8252 47.7747 36.8846 47.8017 36.9448C47.8287 37.0049 47.8541 37.0656 47.8781 37.127C47.9021 37.1884 47.9245 37.2504 47.9454 37.3129C47.9663 37.3754 47.9857 37.4384 48.0034 37.5018C48.0212 37.5653 48.0374 37.6292 48.0521 37.6934C48.0667 37.7577 48.0797 37.8223 48.0911 37.8872C48.1025 37.9521 48.1123 38.0173 48.1205 38.0827C48.1287 38.1481 48.1352 38.2137 48.1402 38.2794C48.1451 38.3451 48.1484 38.4109 48.1501 38.4768C48.1518 38.5427 48.1519 38.6086 48.1502 38.6745C48.1486 38.7404 48.1454 38.8062 48.1406 38.8719C48.1358 38.9377 48.1293 39.0032 48.1212 39.0686C48.1131 39.134 48.1034 39.1992 48.092 39.2641C47.9201 40.2705 47.3188 41.2455 46.4774 41.8303C46.2969 41.9558 46.0971 42.0395 45.8736 41.9953C45.8516 41.991 45.8299 41.9856 45.8085 41.9791C45.787 41.9727 45.766 41.9652 45.7454 41.9565C45.7248 41.9478 45.7046 41.9382 45.685 41.9274C45.6653 41.9167 45.6463 41.905 45.6278 41.8923C45.6094 41.8796 45.5916 41.8661 45.5746 41.8516C45.5575 41.837 45.5413 41.8217 45.5258 41.8055C45.5104 41.7894 45.4958 41.7724 45.482 41.7547C45.4683 41.7371 45.4555 41.7188 45.4437 41.6998C45.2927 41.4583 45.3238 41.1311 45.5016 40.9112C45.6174 40.7681 45.798 40.6606 45.9387 40.5422C46.0365 40.46 46.1234 40.3617 46.2057 40.2642C46.2746 40.1819 46.3382 40.0957 46.3964 40.0055C46.4547 39.9153 46.5071 39.8218 46.5536 39.7251C46.6002 39.6284 46.6406 39.5292 46.6749 39.4274C46.7091 39.3257 46.7369 39.2222 46.7582 39.117C46.7673 39.0742 46.7752 39.0311 46.7821 38.9879C46.789 38.9446 46.7948 38.9012 46.7995 38.8577C46.8042 38.8142 46.8079 38.7705 46.8104 38.7268C46.813 38.6831 46.8145 38.6394 46.8149 38.5956C46.8153 38.5518 46.8146 38.508 46.8129 38.4643C46.8111 38.4205 46.8082 38.3768 46.8043 38.3332C46.8003 38.2896 46.7953 38.2461 46.7892 38.2028C46.7831 38.1594 46.7759 38.1162 46.7676 38.0732C46.7594 38.0302 46.7501 37.9874 46.7397 37.9449C46.7294 37.9023 46.7179 37.8601 46.7054 37.8181C46.693 37.7761 46.6795 37.7345 46.665 37.6932C46.6504 37.6519 46.6348 37.611 46.6183 37.5704C46.6017 37.5299 46.5842 37.4898 46.5656 37.4501C46.547 37.4105 46.5275 37.3713 46.507 37.3326C46.4865 37.2939 46.4651 37.2558 46.4426 37.2181C46.4203 37.1805 46.3969 37.1434 46.3727 37.107C46.0134 36.5665 45.4486 36.1476 44.8116 36.0042C44.5972 35.956 44.3765 35.9464 44.1604 35.9031C44.1441 37.0715 44.1581 38.2419 44.1581 39.4105L44.159 48.7071C44.1591 49.2871 44.1975 49.8941 44.1032 50.4672C44.091 50.5388 44.0764 50.61 44.0595 50.6807C44.0426 50.7513 44.0233 50.8213 44.0018 50.8907C43.9802 50.96 43.9564 51.0286 43.9302 51.0964C43.9041 51.1642 43.8757 51.2311 43.8452 51.297C43.8146 51.3629 43.7819 51.4277 43.747 51.4914C43.7121 51.5552 43.6751 51.6177 43.6361 51.6789C43.597 51.7402 43.556 51.8001 43.513 51.8587C43.4699 51.9172 43.425 51.9742 43.3782 52.0298C43.3429 52.0725 43.3065 52.1142 43.2691 52.1551C43.2317 52.196 43.1932 52.2359 43.1538 52.2748C43.1144 52.3138 43.074 52.3518 43.0327 52.3887C42.9914 52.4256 42.9492 52.4615 42.9061 52.4963C42.863 52.5312 42.819 52.5649 42.7742 52.5975C42.7294 52.6302 42.6838 52.6617 42.6375 52.692C42.5911 52.7223 42.544 52.7515 42.4962 52.7795C42.4484 52.8075 42.3999 52.8343 42.3507 52.8598C42.3015 52.8854 42.2517 52.9097 42.2014 52.9328C42.151 52.9559 42.1 52.9778 42.0486 52.9983C41.9971 53.0188 41.9452 53.0381 41.8927 53.056C41.8403 53.0739 41.7875 53.0906 41.7342 53.1059C41.6809 53.1211 41.6272 53.1351 41.5733 53.1478C41.5193 53.1604 41.4651 53.1716 41.4106 53.1815C41.3561 53.1914 41.3013 53.2 41.2464 53.2071C41.1914 53.2143 41.1363 53.2201 41.0811 53.2245C40.4873 53.273 39.8686 53.2407 39.2717 53.2405L26.4757 53.2409C25.3951 53.2309 24.545 52.9983 23.7717 52.204C23.7162 52.1476 23.6629 52.0892 23.6118 52.0289C23.5607 51.9685 23.5118 51.9064 23.4653 51.8424C23.4187 51.7785 23.3746 51.713 23.3329 51.6457C23.2912 51.5786 23.252 51.5099 23.2153 51.4398C23.1787 51.3698 23.1447 51.2984 23.1133 51.2258C23.0819 51.1532 23.0532 51.0796 23.0272 51.0049C23.0013 50.9302 22.9781 50.8546 22.9577 50.7782C22.9373 50.7018 22.9198 50.6247 22.9051 50.547C22.7961 49.9611 22.84 49.3315 22.84 48.7363L22.8407 46.1525C22.841 43.1888 22.8074 40.2215 22.8445 37.2583C22.4539 37.2504 21.7495 37.3227 21.4136 37.1652C21.3878 37.1533 21.3629 37.1395 21.339 37.1239C21.3152 37.1084 21.2927 37.0911 21.2715 37.0721C21.2503 37.0531 21.2306 37.0326 21.2125 37.0106C21.1943 36.9887 21.1779 36.9655 21.1632 36.9411C21.0126 36.6918 20.8785 35.871 20.8123 35.5473C20.7879 35.4276 20.7785 35.2958 20.7355 35.1814C20.7244 35.152 20.7047 35.1154 20.6819 35.0935C20.5994 35.0147 20.363 34.9578 20.255 34.9165C19.927 34.7911 19.612 34.6446 19.2953 34.4932C18.8036 34.7056 18.1665 35.3029 17.6983 35.4618C17.5555 35.5103 17.3532 35.5121 17.2183 35.4381C16.9972 35.3167 15.607 33.9204 15.3994 33.664C15.344 33.5956 15.3026 33.5283 15.281 33.4423C15.2485 33.3129 15.2628 33.1695 15.3066 33.0446C15.449 32.6395 16.0298 31.8935 16.2738 31.4603C16.0288 31.0093 15.85 30.5441 15.6856 30.0588C15.1557 29.8675 14.4496 29.8535 13.9539 29.6454C13.7895 29.5764 13.6253 29.4576 13.5612 29.2845C13.4763 29.0553 13.4963 27.1504 13.5234 26.8132C13.5319 26.7063 13.5415 26.5943 13.5918 26.4981C13.6417 26.4027 13.7151 26.3142 13.8079 26.2584C14.2022 26.0209 15.0398 25.9941 15.5071 25.8383C15.5598 25.8208 15.6219 25.7999 15.6582 25.7565C15.7682 25.6251 15.9046 25.1591 15.9863 24.9708C16.0765 24.7682 16.1712 24.5676 16.2704 24.3692C16.071 24.0263 15.8408 23.6966 15.6245 23.3641C15.5151 23.1959 15.3883 23.0247 15.3116 22.8389C15.3031 22.8178 15.2957 22.7964 15.2894 22.7747C15.2831 22.7529 15.2779 22.7309 15.2738 22.7086C15.2698 22.6863 15.2668 22.6639 15.2651 22.6413C15.2633 22.6187 15.2626 22.5961 15.2631 22.5734C15.2636 22.5508 15.2653 22.5282 15.2681 22.5057C15.2709 22.4832 15.2748 22.4609 15.2799 22.4389C15.285 22.4168 15.2911 22.395 15.2984 22.3735C15.3057 22.352 15.3141 22.331 15.3235 22.3104C15.4302 22.0773 16.8082 20.7089 17.0713 20.4939C17.1266 20.4487 17.183 20.41 17.2504 20.3853C17.2824 20.3737 17.315 20.3647 17.3483 20.3581C17.3817 20.3516 17.4153 20.3476 17.4492 20.3461C17.4832 20.3447 17.517 20.3459 17.5507 20.3497C17.5845 20.3535 17.6178 20.3598 17.6506 20.3687C18.1007 20.4885 18.8 21.1011 19.2772 21.3318L19.3042 21.3447C19.7597 21.1051 20.2242 20.9441 20.6982 20.7512C20.8986 20.206 20.891 19.5794 21.1015 19.0395C21.1687 18.8671 21.2857 18.7153 21.4597 18.6418C21.6375 18.5666 21.844 18.5943 22.0173 18.6689C22.1721 18.7356 22.2849 18.8703 22.3416 19.0275C22.375 19.1204 22.3833 19.201 22.3751 19.299C22.3459 19.6509 21.9896 21.342 21.8446 21.6305C21.7785 21.7622 21.699 21.8224 21.5693 21.889C21.3156 22.0195 20.998 22.0742 20.7268 22.169C20.3648 22.2954 20.0479 22.4716 19.7132 22.6544C19.6202 22.7052 19.5256 22.7539 19.4233 22.7835C19.3328 22.8097 19.2406 22.8167 19.1488 22.7932C18.7689 22.6959 17.9915 22.0938 17.5881 21.8682C17.3076 22.1317 17.0361 22.4042 16.7739 22.6859C16.9731 22.9551 17.6759 23.9834 17.7147 24.2719C17.7297 24.3831 17.7017 24.4954 17.6629 24.599C17.5372 24.9356 17.3098 25.2431 17.1714 25.5802C17.0408 25.8981 16.9186 26.5371 16.7344 26.7708C16.6642 26.8598 16.5701 26.9272 16.4667 26.9726C16.168 27.1036 15.2003 27.3022 14.8535 27.3469C14.8346 27.7249 14.8471 28.1079 14.8473 28.4866C15.2048 28.5557 16.3067 28.7604 16.5696 28.9199C16.6565 28.9725 16.7406 29.0496 16.7887 29.1401C16.9433 29.4313 17.0518 29.9658 17.1968 30.3099C17.3315 30.6296 17.6293 31.0296 17.7009 31.3405C17.7285 31.4601 17.7205 31.5739 17.6802 31.6893C17.5594 32.0355 16.9986 32.8132 16.7757 33.1667C17.0228 33.4331 17.3015 33.742 17.5924 33.9597C18.0536 33.7404 18.6665 33.1708 19.1247 33.0532C19.2453 33.0223 19.3615 33.0387 19.4779 33.078C19.8361 33.1991 20.1608 33.4482 20.5173 33.5899C20.81 33.7062 21.4203 33.8461 21.6407 33.9835C21.739 34.0448 21.8282 34.1511 21.8757 34.2561C22.0163 34.5673 22.1727 35.5183 22.2542 35.9011C22.4483 35.9126 22.6429 35.91 22.8373 35.9102C22.8507 34.5826 22.8287 33.2547 22.845 31.9272C21.7912 31.8655 20.8845 31.5544 20.1017 30.8256C20.054 30.7811 20.0075 30.7354 19.9621 30.6886C19.9167 30.6418 19.8725 30.5938 19.8295 30.5448C19.7865 30.4959 19.7447 30.4458 19.7041 30.3947C19.6636 30.3436 19.6243 30.2916 19.5864 30.2386C19.5484 30.1855 19.5117 30.1316 19.4764 30.0768C19.4411 30.022 19.4072 29.9663 19.3746 29.9098C19.3421 29.8533 19.311 29.796 19.2812 29.738C19.2515 29.68 19.2233 29.6212 19.1964 29.5617C19.1696 29.5023 19.1443 29.4422 19.1205 29.3815C19.0966 29.3208 19.0743 29.2596 19.0535 29.1978C19.0327 29.136 19.0134 29.0737 18.9957 29.0109C18.9779 28.9482 18.9618 28.885 18.9471 28.8215C18.9325 28.7579 18.9195 28.694 18.9081 28.6299C18.8966 28.5656 18.8868 28.5012 18.8785 28.4365C18.8702 28.3718 18.8636 28.307 18.8585 28.2419C18.8535 28.1769 18.85 28.1118 18.8482 28.0466C18.846 27.9798 18.8455 27.9129 18.8467 27.846C18.8479 27.7791 18.8507 27.7122 18.8552 27.6455C18.8597 27.5787 18.8658 27.5121 18.8737 27.4456C18.8815 27.3792 18.8909 27.3129 18.9021 27.2469C18.9132 27.1809 18.9259 27.1153 18.9403 27.0499C18.9547 26.9845 18.9707 26.9196 18.9883 26.8551C19.0059 26.7905 19.0251 26.7264 19.046 26.6628C19.0668 26.5992 19.0892 26.5361 19.1131 26.4737C19.1371 26.4112 19.1626 26.3493 19.1896 26.2881C19.2166 26.2269 19.2452 26.1664 19.2752 26.1066C19.3053 26.0468 19.3368 25.9878 19.3698 25.9295C19.4028 25.8713 19.4372 25.814 19.473 25.7575C19.5089 25.701 19.5461 25.6454 19.5847 25.5907C19.6233 25.5361 19.6633 25.4824 19.7046 25.4297C19.7458 25.3771 19.7884 25.3255 19.8323 25.2749C19.8761 25.2244 19.9212 25.1749 19.9675 25.1266C20.2201 24.8616 20.6157 24.484 21.0059 24.4843C21.1871 24.4845 21.3506 24.5533 21.4728 24.688C21.5899 24.817 21.6743 24.999 21.6605 25.1758C21.6346 25.5104 21.351 25.6972 21.1182 25.8943C21.0846 25.9223 21.0517 25.9511 21.0196 25.9807C20.9875 26.0104 20.9561 26.0409 20.9255 26.0721C20.8949 26.1033 20.8651 26.1353 20.8361 26.1681C20.8071 26.2008 20.779 26.2342 20.7516 26.2684C20.7243 26.3026 20.6979 26.3374 20.6724 26.3728C20.6468 26.4083 20.6222 26.4444 20.5984 26.4812C20.5747 26.5179 20.5519 26.5552 20.5301 26.5931C20.5082 26.631 20.4873 26.6693 20.4674 26.7083C20.4475 26.7472 20.4286 26.7866 20.4106 26.8265C20.3927 26.8664 20.3758 26.9067 20.3599 26.9474C20.344 26.9882 20.3291 27.0293 20.3153 27.0707C20.3015 27.1123 20.2887 27.1541 20.277 27.1962C20.2653 27.2383 20.2546 27.2807 20.245 27.3234C20.2355 27.3661 20.227 27.4089 20.2195 27.452C20.2121 27.4951 20.2058 27.5383 20.2005 27.5818C20.1953 27.6252 20.1912 27.6687 20.1881 27.7123C20.1846 27.7557 20.1822 27.7992 20.1808 27.8427C20.1794 27.8862 20.1792 27.9298 20.1799 27.9734C20.1807 28.0169 20.1826 28.0604 20.1855 28.1039C20.1885 28.1473 20.1925 28.1907 20.1975 28.2339C20.2026 28.2772 20.2088 28.3203 20.216 28.3632C20.2232 28.4062 20.2314 28.449 20.2407 28.4915C20.25 28.534 20.2604 28.5763 20.2718 28.6184C20.2832 28.6604 20.2956 28.7021 20.3091 28.7435C20.3226 28.7849 20.337 28.826 20.3525 28.8667C20.368 28.9074 20.3845 28.9477 20.402 28.9876C20.4194 29.0275 20.4379 29.067 20.4573 29.1059C20.4767 29.1449 20.4971 29.1834 20.5184 29.2213C20.5397 29.2593 20.562 29.2967 20.5852 29.3337C20.6083 29.3705 20.6324 29.4068 20.6574 29.4425C20.6824 29.4782 20.7082 29.5132 20.7348 29.5477C20.7615 29.5821 20.7891 29.6158 20.8174 29.6488C21.3562 30.2739 22.036 30.5212 22.8389 30.5836L22.8399 17.7785C22.8398 17.2017 22.7995 16.5904 22.893 16.0209C22.9054 15.9478 22.9202 15.8753 22.9375 15.8032C22.9547 15.7312 22.9744 15.6598 22.9965 15.5891C23.0187 15.5184 23.0431 15.4485 23.07 15.3794C23.0968 15.3103 23.1259 15.2423 23.1573 15.1752C23.1887 15.1081 23.2224 15.0421 23.2582 14.9773C23.2941 14.9125 23.3321 14.8489 23.3723 14.7867C23.4125 14.7244 23.4547 14.6636 23.499 14.6042C23.5433 14.5448 23.5895 14.4869 23.6377 14.4307C24.2401 13.7212 25.0499 13.3496 25.9683 13.2705ZM26.2383 14.604C25.6172 14.6382 25.1008 14.7893 24.6742 15.2689C24.3745 15.6059 24.2232 16.0047 24.1852 16.4509C24.1381 17.0038 24.1729 17.5866 24.1729 18.1427L24.173 47.9507C24.1724 48.6325 24.1366 49.3336 24.1798 50.0122C24.2138 50.5485 24.4456 51.045 24.8543 51.3986C25.1545 51.6584 25.4989 51.8196 25.8937 51.8712C26.4539 51.9445 27.0626 51.8992 27.6279 51.8986L37.359 51.8982C38.5026 51.8982 39.6477 51.9103 40.791 51.8964C41.3927 51.8621 41.9072 51.6804 42.3175 51.2198C42.6271 50.8723 42.774 50.4699 42.813 50.0107C42.8607 49.4477 42.8259 48.854 42.8259 48.2879L42.8257 18.5646C42.8262 17.8914 42.8617 17.2001 42.8164 16.5297C42.7769 15.944 42.5583 15.455 42.1103 15.0665C41.8362 14.8288 41.4694 14.6728 41.1096 14.6293C40.5133 14.5572 39.878 14.6022 39.2761 14.6031L29.5271 14.6031C28.4317 14.6031 27.3333 14.5845 26.2383 14.604Z" stroke="#93C704" stroke-width="0.8" mask="url(#path-1-outside-1_1244_2586)"/>
<path d="M34.0961 29.9224C34.2281 29.9171 34.3626 29.9413 34.4802 30.0026C34.6459 30.0888 34.7513 30.2329 34.8045 30.4098C34.8442 30.5412 34.8151 30.6735 34.7898 30.805C34.7174 31.1819 34.6092 31.5563 34.5161 31.9288L34.0221 33.9045C33.9211 34.3081 33.5479 35.9971 33.3959 36.2618C33.2943 36.4387 33.114 36.5273 32.9242 36.577C32.7567 36.5761 32.6284 36.5622 32.4786 36.4771C32.3283 36.3918 32.2089 36.2313 32.175 36.0608C32.1493 35.9319 32.1945 35.7441 32.2209 35.616C32.3808 34.8427 32.6034 34.0715 32.7948 33.3046C32.9038 32.8681 33.4593 30.4392 33.615 30.2042C33.7353 30.0229 33.8915 29.9599 34.0961 29.9224Z" stroke="#93C704" stroke-width="0.8" mask="url(#path-1-outside-1_1244_2586)"/>
<path d="M30.1021 29.923C30.3019 29.9263 30.4614 29.9603 30.6133 30.0976C30.7459 30.2175 30.8174 30.358 30.8261 30.5377C30.8323 30.6679 30.8007 30.8072 30.7318 30.9185C30.5745 31.1725 30.2903 31.4009 30.0772 31.6133C29.5353 32.1533 28.9577 32.6821 28.4492 33.253L29.9222 34.7225C30.166 34.9658 30.4406 35.2046 30.6593 35.4699C30.782 35.6186 30.8452 35.7988 30.8221 35.9927C30.8193 36.015 30.8154 36.0371 30.8104 36.059C30.8054 36.0809 30.7993 36.1025 30.7921 36.1238C30.785 36.1451 30.7767 36.166 30.7675 36.1865C30.7582 36.2069 30.7479 36.2269 30.7367 36.2464C30.7255 36.2658 30.7133 36.2846 30.7001 36.3028C30.687 36.321 30.6729 36.3386 30.658 36.3554C30.6431 36.3722 30.6274 36.3882 30.6109 36.4035C30.5944 36.4187 30.5771 36.4331 30.5592 36.4466C30.383 36.5809 30.1956 36.5879 29.9862 36.5591C29.9393 36.5411 29.8947 36.521 29.8516 36.4948C29.5927 36.3378 29.3564 36.0459 29.1416 35.831L27.9949 34.6836C27.6812 34.3695 27.2194 33.9605 26.9568 33.6312C26.9035 33.5643 26.8699 33.4882 26.8528 33.4046C26.8166 33.2271 26.8501 33.0341 26.9513 32.8829C27.0886 32.6777 27.3062 32.4967 27.4806 32.3222L29.3017 30.5008C29.455 30.3476 29.6099 30.1734 29.7791 30.0385C29.8716 29.9649 29.9894 29.9448 30.1021 29.923Z" stroke="#93C704" stroke-width="0.8" mask="url(#path-1-outside-1_1244_2586)"/>
<path d="M36.7645 29.9231C36.8297 29.921 36.8912 29.926 36.9556 29.9375C37.0741 29.9589 37.1581 30.0056 37.2505 30.0806C37.4555 30.2469 37.6389 30.4483 37.8256 30.6348L39.5485 32.3569C39.7208 32.5293 39.9258 32.7043 40.0618 32.9063C40.1469 33.0328 40.1739 33.2239 40.143 33.3716C40.1196 33.4827 40.0743 33.5778 40.0018 33.6651C39.8594 33.8366 39.6884 33.9918 39.5309 34.1496L37.7783 35.9032C37.5776 36.1037 37.3737 36.3509 37.1336 36.5018C37.049 36.5457 36.961 36.5719 36.8653 36.5777C36.8433 36.579 36.8212 36.5793 36.7992 36.5784C36.7771 36.5774 36.7551 36.5754 36.7332 36.5724C36.7114 36.5693 36.6898 36.5651 36.6683 36.5599C36.6469 36.5546 36.6257 36.5483 36.6049 36.5409C36.5841 36.5336 36.5637 36.5252 36.5437 36.5158C36.5237 36.5064 36.5043 36.496 36.4853 36.4847C36.4664 36.4734 36.4481 36.4611 36.4304 36.4479C36.4127 36.4347 36.3957 36.4207 36.3793 36.4058C36.2449 36.2855 36.1662 36.1195 36.1636 35.9387C36.163 35.9048 36.165 35.871 36.1695 35.8373C36.1739 35.8037 36.1809 35.7706 36.1903 35.738C36.1998 35.7054 36.2116 35.6737 36.2257 35.6429C36.2399 35.612 36.2562 35.5824 36.2748 35.5541C36.4602 35.2705 36.7682 35.0262 37.0092 34.7861C37.5215 34.2754 38.0411 33.7694 38.5423 33.2479C38.3748 33.0443 38.1641 32.8598 37.9775 32.6732L36.8383 31.5378C36.6617 31.3618 36.4604 31.1879 36.3094 30.9903C36.2458 30.907 36.1981 30.8237 36.1748 30.7207C36.1356 30.5473 36.1779 30.3642 36.2758 30.2176C36.398 30.0344 36.5552 29.9607 36.7645 29.9231Z" stroke="#93C704" stroke-width="0.8" mask="url(#path-1-outside-1_1244_2586)"/>
</svg>
