<svg width="67" height="67" viewBox="0 0 67 67" fill="none" xmlns="http://www.w3.org/2000/svg">
<path fill-rule="evenodd" clip-rule="evenodd" d="M27.2717 19.4413C26.5331 20.5488 26.107 21.8628 26.107 23.2628C26.107 23.4298 26.113 23.5954 26.1247 23.7592H40.8749C40.8867 23.5954 40.8927 23.4298 40.8927 23.2628C40.8927 21.6921 40.3621 20.2402 39.4571 19.0609C38.1153 17.3123 35.9531 16.168 33.4998 16.168C31.2057 16.168 29.1764 17.1633 27.8272 18.714C27.7728 18.9054 27.6719 19.0865 27.5241 19.2396C27.4471 19.3192 27.3622 19.3865 27.2717 19.4413ZM24.9265 18.4691C24.0883 19.8755 23.607 21.5107 23.607 23.2628C23.607 23.6594 23.6319 24.0509 23.6803 24.4357C23.3589 24.6706 23.0467 24.9168 22.7445 25.1737H18.9453L16.0347 22.3635C15.5381 21.884 14.7468 21.8979 14.2673 22.3946C13.7877 22.8912 13.8016 23.6825 14.2983 24.162L17.5721 27.323C17.8051 27.548 18.1164 27.6737 18.4403 27.6737H20.3715C18.6145 29.9775 17.4859 32.7643 17.2407 35.7944H15.1665C14.4761 35.7944 13.9165 36.354 13.9165 37.0444C13.9165 37.7348 14.4761 38.2944 15.1665 38.2944H17.2407C17.4859 41.3245 18.6145 44.1113 20.3715 46.4151H18.4403C18.1164 46.4151 17.8051 46.5408 17.5721 46.7658L14.2983 49.9268C13.8016 50.4063 13.7877 51.1976 14.2673 51.6943C14.7468 52.1909 15.5381 52.2048 16.0347 51.7253L18.9453 48.9151H22.7445C25.6184 51.3576 29.3849 52.8346 33.4998 52.8346C37.6148 52.8346 41.3813 51.3576 44.2552 48.9151H48.0544L50.9649 51.7253C51.4616 52.2048 52.2529 52.1909 52.7324 51.6943C53.2119 51.1976 53.1981 50.4063 52.7014 49.9268L49.4276 46.7658C49.1946 46.5408 48.8833 46.4151 48.5594 46.4151H46.6282C48.3851 44.1113 49.5138 41.3245 49.759 38.2944H51.8332C52.5235 38.2944 53.0832 37.7348 53.0832 37.0444C53.0832 36.354 52.5235 35.7944 51.8332 35.7944H49.759C49.5138 32.7643 48.3851 29.9775 46.6282 27.6737H48.5594C48.8833 27.6737 49.1946 27.548 49.4276 27.323L52.7014 24.162C53.1981 23.6825 53.2119 22.8912 52.7324 22.3946C52.2529 21.8979 51.4616 21.884 50.9649 22.3635L48.0544 25.1737H44.2552C43.9529 24.9168 43.6408 24.6706 43.3194 24.4356C43.3678 24.0509 43.3927 23.6594 43.3927 23.2628C43.3927 21.5162 42.9107 19.8788 42.072 18.4702L44.6535 15.9777C45.1502 15.4982 45.1641 14.7068 44.6846 14.2102C44.205 13.7136 43.4137 13.6997 42.9171 14.1792L40.5156 16.4979C38.7202 14.7466 36.2354 13.668 33.4998 13.668C30.7706 13.668 28.2824 14.746 26.4841 16.4978L24.0826 14.1792C23.586 13.6997 22.7946 13.7136 22.3151 14.2102C21.8356 14.7068 21.8495 15.4982 22.3461 15.9777L24.9265 18.4691ZM41.5709 26.2592H34.7498V50.281C37.9136 50.008 40.7644 48.7091 42.9475 46.7374C45.6399 44.3057 47.3094 40.8593 47.3094 37.0444C47.3094 33.2295 45.6398 29.7831 42.9475 27.3514C42.514 26.9599 42.0543 26.5949 41.5709 26.2592ZM32.2498 50.281V26.2592H25.4288C24.9454 26.5949 24.4856 26.9599 24.0522 27.3514C21.3598 29.7831 19.6903 33.2295 19.6903 37.0444C19.6903 40.8593 21.3598 44.3057 24.0522 46.7374C26.2352 48.7091 29.086 50.008 32.2498 50.281Z" fill="#93C704"/>
</svg>
