<svg width="158" height="87" viewBox="0 0 158 87" fill="none" xmlns="http://www.w3.org/2000/svg">
<path d="M13.6212 52.6491C10.7465 52.6491 8.28252 52.1824 6.22918 51.2491C4.21318 50.3157 2.55185 49.1024 1.24518 47.6091L5.05318 42.4011C6.13585 43.4464 7.33052 44.3051 8.63718 44.9771C9.94385 45.6491 11.3439 45.9851 12.8372 45.9851C14.5919 45.9851 15.9919 45.6304 17.0372 44.9211C18.0825 44.1744 18.6052 43.1291 18.6052 41.7851C18.6052 40.7397 18.3439 39.8437 17.8212 39.0971C17.2985 38.3131 16.3465 37.7157 14.9652 37.305C13.5839 36.8944 11.6052 36.6891 9.02918 36.6891V30.8651C12.2399 30.8651 14.4425 30.4357 15.6372 29.5771C16.8319 28.681 17.4292 27.5237 17.4292 26.1051C17.4292 24.873 17.0559 23.921 16.3092 23.2491C15.5625 22.5397 14.4799 22.1851 13.0612 22.1851C11.7919 22.1851 10.6345 22.4651 9.58918 23.025C8.58118 23.585 7.51718 24.3504 6.39718 25.3211L2.25318 20.281C3.89585 18.8624 5.63185 17.761 7.46118 16.9771C9.29052 16.1557 11.2879 15.745 13.4532 15.745C17.1119 15.745 20.0612 16.6037 22.3012 18.3211C24.5785 20.001 25.7172 22.3904 25.7172 25.489C25.7172 27.3184 25.1945 28.8864 24.1492 30.193C23.1412 31.4997 21.6852 32.5637 19.7812 33.385V33.6091C21.8345 34.2064 23.5145 35.2331 24.8212 36.6891C26.1652 38.1077 26.8372 39.9744 26.8372 42.2891C26.8372 44.4917 26.2212 46.3771 24.9892 47.9451C23.7945 49.4757 22.1892 50.6517 20.1732 51.4731C18.1945 52.2571 16.0105 52.6491 13.6212 52.6491Z" fill="#93C704"/>
<path d="M44.2253 28.1217C43.5533 28.1217 42.9187 27.9617 42.3213 27.6417C41.7347 27.311 41.26 26.8364 40.8973 26.2177C40.5347 25.5884 40.3533 24.8364 40.3533 23.9617C40.3533 23.0764 40.5347 22.3244 40.8973 21.7057C41.26 21.087 41.7347 20.6177 42.3213 20.2977C42.9187 19.967 43.5533 19.8017 44.2253 19.8017C44.8973 19.8017 45.5267 19.967 46.1133 20.2977C46.7 20.6177 47.1747 21.087 47.5373 21.7057C47.9 22.3244 48.0813 23.0764 48.0813 23.9617C48.0813 24.8364 47.9 25.5884 47.5373 26.2177C47.1747 26.8364 46.7 27.311 46.1133 27.6417C45.5267 27.9617 44.8973 28.1217 44.2253 28.1217ZM44.2253 26.2177C44.7053 26.2177 45.068 26.015 45.3133 25.6097C45.5587 25.1937 45.6813 24.6444 45.6813 23.9617C45.6813 23.2684 45.5587 22.719 45.3133 22.3137C45.068 21.9084 44.7053 21.7057 44.2253 21.7057C43.7347 21.7057 43.3667 21.9084 43.1213 22.3137C42.8867 22.719 42.7693 23.2684 42.7693 23.9617C42.7693 24.6444 42.8867 25.1937 43.1213 25.6097C43.3667 26.015 43.7347 26.2177 44.2253 26.2177ZM55.0702 27.9297V21.8337H52.3662V27.9297H50.0142V21.8337H48.9582V20.0897L50.0142 20.0097V19.6417C50.0142 19.0977 50.1156 18.6017 50.3182 18.1537C50.5209 17.7057 50.8409 17.3484 51.2782 17.0817C51.7262 16.815 52.3076 16.6817 53.0222 16.6817C53.3636 16.6817 53.6782 16.7137 53.9662 16.7777C54.2542 16.831 54.4889 16.895 54.6702 16.9697L54.2382 18.7137C54.1102 18.6604 53.9769 18.6177 53.8382 18.5857C53.6996 18.5537 53.5236 18.5377 53.3102 18.5377C53.0436 18.5377 52.8196 18.6284 52.6382 18.8097C52.4569 18.9804 52.3662 19.2524 52.3662 19.6257V19.9937H55.0702V19.5777C55.0702 19.0124 55.1662 18.5004 55.3582 18.0417C55.5502 17.583 55.8596 17.215 56.2862 16.9377C56.7129 16.6604 57.2836 16.5217 57.9982 16.5217C58.3289 16.5217 58.6329 16.5537 58.9102 16.6177C59.1876 16.6817 59.4116 16.7457 59.5822 16.8097L59.1502 18.5377C59.0116 18.4844 58.8729 18.447 58.7342 18.4257C58.5956 18.3937 58.4622 18.3777 58.3342 18.3777C58.0462 18.3777 57.8222 18.4684 57.6622 18.6497C57.5022 18.8204 57.4222 19.1084 57.4222 19.5137V19.9937H58.8462V21.8337H57.4222V27.9297H55.0702ZM60.1298 27.9297V19.9937H62.4818V27.9297H60.1298ZM61.2978 18.8257C60.9032 18.8257 60.5832 18.7137 60.3378 18.4897C60.0925 18.2657 59.9698 17.967 59.9698 17.5937C59.9698 17.2204 60.0925 16.9217 60.3378 16.6977C60.5832 16.4737 60.9032 16.3617 61.2978 16.3617C61.6925 16.3617 62.0125 16.4737 62.2578 16.6977C62.5032 16.9217 62.6258 17.2204 62.6258 17.5937C62.6258 17.967 62.5032 18.2657 62.2578 18.4897C62.0125 18.7137 61.6925 18.8257 61.2978 18.8257ZM68.0077 28.1217C67.2717 28.1217 66.6051 27.9617 66.0077 27.6417C65.4211 27.311 64.9517 26.8364 64.5997 26.2177C64.2584 25.5884 64.0877 24.8364 64.0877 23.9617C64.0877 23.0764 64.2797 22.3244 64.6637 21.7057C65.0477 21.087 65.5544 20.6177 66.1837 20.2977C66.8131 19.967 67.4904 19.8017 68.2157 19.8017C68.7064 19.8017 69.1384 19.8817 69.5117 20.0417C69.8957 20.2017 70.2371 20.4044 70.5357 20.6497L69.4317 22.1697C69.0584 21.8604 68.7011 21.7057 68.3597 21.7057C67.7944 21.7057 67.3411 21.9084 66.9997 22.3137C66.6691 22.719 66.5037 23.2684 66.5037 23.9617C66.5037 24.6444 66.6691 25.1937 66.9997 25.6097C67.3411 26.015 67.7677 26.2177 68.2797 26.2177C68.5357 26.2177 68.7864 26.1644 69.0317 26.0577C69.2771 25.9404 69.5011 25.8017 69.7037 25.6417L70.6317 27.1777C70.2371 27.519 69.8104 27.7644 69.3517 27.9137C68.8931 28.0524 68.4451 28.1217 68.0077 28.1217ZM75.1193 28.1217C74.362 28.1217 73.6793 27.9564 73.0713 27.6257C72.4633 27.295 71.9833 26.8204 71.6313 26.2017C71.2793 25.583 71.1033 24.8364 71.1033 23.9617C71.1033 23.0977 71.2793 22.3564 71.6313 21.7377C71.994 21.119 72.4633 20.6444 73.0393 20.3137C73.6153 19.9724 74.218 19.8017 74.8473 19.8017C75.6047 19.8017 76.2287 19.9724 76.7193 20.3137C77.2207 20.6444 77.594 21.0977 77.8393 21.6737C78.0953 22.239 78.2233 22.8844 78.2233 23.6097C78.2233 23.8124 78.2127 24.015 78.1913 24.2177C78.17 24.4097 78.1487 24.5537 78.1273 24.6497H73.3753C73.482 25.2257 73.722 25.6524 74.0953 25.9297C74.4687 26.1964 74.9167 26.3297 75.4393 26.3297C76.0047 26.3297 76.5753 26.1537 77.1513 25.8017L77.9353 27.2257C77.53 27.503 77.0767 27.7217 76.5753 27.8817C76.074 28.0417 75.5887 28.1217 75.1193 28.1217ZM73.3593 23.0977H76.2233C76.2233 22.6604 76.1167 22.303 75.9033 22.0257C75.7007 21.7377 75.3647 21.5937 74.8953 21.5937C74.5327 21.5937 74.2073 21.7217 73.9193 21.9777C73.6313 22.223 73.4447 22.5964 73.3593 23.0977ZM82.1846 28.1217C81.6619 28.1217 81.1233 28.0204 80.5686 27.8177C80.0246 27.615 79.5499 27.3484 79.1446 27.0177L80.2006 25.5457C80.5633 25.8124 80.9099 26.0204 81.2406 26.1697C81.5819 26.3084 81.9179 26.3777 82.2486 26.3777C82.6006 26.3777 82.8566 26.319 83.0166 26.2017C83.1766 26.0737 83.2566 25.9084 83.2566 25.7057C83.2566 25.5244 83.1766 25.375 83.0166 25.2577C82.8673 25.1404 82.6699 25.0337 82.4246 24.9377C82.1793 24.831 81.9179 24.7244 81.6406 24.6177C81.3206 24.4897 81.0006 24.3297 80.6806 24.1377C80.3713 23.9457 80.1099 23.7004 79.8966 23.4017C79.6833 23.0924 79.5766 22.719 79.5766 22.2817C79.5766 21.5457 79.8539 20.9484 80.4086 20.4897C80.9739 20.031 81.7099 19.8017 82.6166 19.8017C83.2246 19.8017 83.7579 19.9084 84.2166 20.1217C84.6859 20.3244 85.0859 20.5537 85.4166 20.8097L84.3606 22.2177C84.0833 22.0044 83.8059 21.839 83.5286 21.7217C83.2513 21.6044 82.9739 21.5457 82.6966 21.5457C82.0886 21.5457 81.7846 21.7537 81.7846 22.1697C81.7846 22.4257 81.9339 22.623 82.2326 22.7617C82.5419 22.8897 82.8993 23.0284 83.3046 23.1777C83.6459 23.295 83.9766 23.4497 84.2966 23.6417C84.6273 23.823 84.8993 24.0684 85.1126 24.3777C85.3366 24.6764 85.4486 25.071 85.4486 25.5617C85.4486 26.2764 85.1713 26.8844 84.6166 27.3857C84.0619 27.8764 83.2513 28.1217 82.1846 28.1217Z" fill="#3E3E3E"/>
<path d="M42.8813 48.2159C42.2307 48.2159 41.6867 48.0239 41.2493 47.6399C40.8227 47.2453 40.6093 46.7013 40.6093 46.0079C40.6093 45.1546 40.988 44.5039 41.7453 44.0559C42.5133 43.5973 43.724 43.2773 45.3773 43.0959C45.3773 42.7653 45.3293 42.4506 45.2333 42.1519C45.148 41.8533 44.988 41.6133 44.7533 41.4319C44.5293 41.2399 44.204 41.1439 43.7773 41.1439C43.3293 41.1439 42.908 41.2293 42.5133 41.3999C42.1187 41.5706 41.7667 41.7626 41.4573 41.9759L40.9453 41.0639C41.308 40.8293 41.7507 40.6053 42.2733 40.3919C42.8067 40.1679 43.3827 40.0559 44.0013 40.0559C44.9507 40.0559 45.6387 40.3493 46.0653 40.9359C46.492 41.5119 46.7053 42.2853 46.7053 43.2559V48.0239H45.6173L45.5053 47.0959H45.4573C45.0947 47.3946 44.6947 47.6559 44.2573 47.8799C43.8307 48.1039 43.372 48.2159 42.8813 48.2159ZM43.2653 47.1599C43.6387 47.1599 43.9907 47.0693 44.3213 46.8879C44.652 46.7066 45.004 46.4506 45.3773 46.1199V43.9599C44.0867 44.1199 43.18 44.3599 42.6573 44.6799C42.1453 44.9999 41.8893 45.4106 41.8893 45.9119C41.8893 46.3493 42.0227 46.6693 42.2893 46.8719C42.556 47.0639 42.8813 47.1599 43.2653 47.1599ZM52.2238 48.2159C51.5412 48.2159 50.9225 48.0559 50.3678 47.7359C49.8132 47.4159 49.3758 46.9519 49.0558 46.3439C48.7358 45.7359 48.5758 45.0053 48.5758 44.1519C48.5758 43.2773 48.7465 42.5359 49.0878 41.9279C49.4398 41.3199 49.8985 40.8559 50.4638 40.5359C51.0398 40.2159 51.6585 40.0559 52.3198 40.0559C52.8318 40.0559 53.2692 40.1466 53.6318 40.3279C54.0052 40.5093 54.3252 40.7226 54.5918 40.9679L53.9198 41.8319C53.6958 41.6293 53.4558 41.4639 53.1998 41.3359C52.9545 41.2079 52.6772 41.1439 52.3678 41.1439C51.8985 41.1439 51.4772 41.2719 51.1038 41.5279C50.7412 41.7733 50.4532 42.1253 50.2398 42.5839C50.0372 43.0319 49.9358 43.5546 49.9358 44.1519C49.9358 45.0373 50.1545 45.7573 50.5918 46.3119C51.0398 46.8559 51.6212 47.1279 52.3358 47.1279C52.6985 47.1279 53.0345 47.0533 53.3438 46.9039C53.6532 46.7439 53.9252 46.5573 54.1598 46.3439L54.7358 47.2239C54.3838 47.5333 53.9945 47.7786 53.5678 47.9599C53.1412 48.1306 52.6932 48.2159 52.2238 48.2159ZM56.4487 48.0239V40.2479H57.5367L57.6487 41.6559H57.6967C57.9634 41.1653 58.2887 40.7759 58.6727 40.4879C59.0567 40.1999 59.4674 40.0559 59.9047 40.0559C60.2141 40.0559 60.4914 40.1093 60.7367 40.2159L60.4807 41.3679C60.3527 41.3253 60.2354 41.2933 60.1287 41.2719C60.0221 41.2506 59.8887 41.2399 59.7287 41.2399C59.3981 41.2399 59.0514 41.3733 58.6887 41.6399C58.3367 41.9066 58.0274 42.3706 57.7607 43.0319V48.0239H56.4487ZM64.8633 48.2159C64.234 48.2159 63.642 48.0559 63.0873 47.7359C62.5433 47.4159 62.1007 46.9519 61.7593 46.3439C61.4287 45.7359 61.2633 45.0053 61.2633 44.1519C61.2633 43.2773 61.4287 42.5359 61.7593 41.9279C62.1007 41.3199 62.5433 40.8559 63.0873 40.5359C63.642 40.2159 64.234 40.0559 64.8633 40.0559C65.5033 40.0559 66.0953 40.2159 66.6393 40.5359C67.1833 40.8559 67.6207 41.3199 67.9513 41.9279C68.2927 42.5359 68.4633 43.2773 68.4633 44.1519C68.4633 45.0053 68.2927 45.7359 67.9513 46.3439C67.6207 46.9519 67.1833 47.4159 66.6393 47.7359C66.0953 48.0559 65.5033 48.2159 64.8633 48.2159ZM64.8633 47.1279C65.5353 47.1279 66.074 46.8559 66.4793 46.3119C66.8953 45.7573 67.1033 45.0373 67.1033 44.1519C67.1033 43.2559 66.8953 42.5306 66.4793 41.9759C66.074 41.4213 65.5353 41.1439 64.8633 41.1439C64.202 41.1439 63.6633 41.4213 63.2473 41.9759C62.8313 42.5306 62.6233 43.2559 62.6233 44.1519C62.6233 45.0373 62.8313 45.7573 63.2473 46.3119C63.6633 46.8559 64.202 47.1279 64.8633 47.1279ZM72.5432 48.2159C71.9886 48.2159 71.4606 48.1146 70.9592 47.9119C70.4579 47.6986 70.0206 47.4426 69.6472 47.1439L70.3032 46.2639C70.6446 46.5306 70.9966 46.7546 71.3592 46.9359C71.7219 47.1066 72.1326 47.1919 72.5912 47.1919C73.1032 47.1919 73.4872 47.0746 73.7432 46.8399C73.9992 46.5946 74.1272 46.3066 74.1272 45.9759C74.1272 45.7093 74.0366 45.4853 73.8552 45.3039C73.6846 45.1226 73.4606 44.9733 73.1832 44.8559C72.9166 44.7279 72.6392 44.6106 72.3512 44.5039C71.9886 44.3653 71.6312 44.2106 71.2792 44.0399C70.9272 43.8586 70.6392 43.6293 70.4152 43.3519C70.1912 43.0639 70.0792 42.7013 70.0792 42.2639C70.0792 41.6346 70.3139 41.1119 70.7832 40.6959C71.2632 40.2693 71.9246 40.0559 72.7672 40.0559C73.2472 40.0559 73.6952 40.1413 74.1112 40.3119C74.5272 40.4826 74.8846 40.6906 75.1832 40.9359L74.5432 41.7679C74.2766 41.5653 73.9992 41.3999 73.7112 41.2719C73.4232 41.1439 73.1086 41.0799 72.7672 41.0799C72.2766 41.0799 71.9139 41.1919 71.6792 41.4159C71.4552 41.6399 71.3432 41.9013 71.3432 42.1999C71.3432 42.4453 71.4232 42.6479 71.5832 42.8079C71.7432 42.9573 71.9512 43.0906 72.2072 43.2079C72.4632 43.3146 72.7352 43.4266 73.0232 43.5439C73.3966 43.6826 73.7646 43.8426 74.1272 44.0239C74.4899 44.1946 74.7886 44.4293 75.0232 44.7279C75.2686 45.0159 75.3912 45.4053 75.3912 45.8959C75.3912 46.3119 75.2792 46.6959 75.0552 47.0479C74.8419 47.3999 74.5219 47.6826 74.0952 47.8959C73.6792 48.1093 73.1619 48.2159 72.5432 48.2159ZM79.2463 48.2159C78.6917 48.2159 78.1637 48.1146 77.6623 47.9119C77.161 47.6986 76.7237 47.4426 76.3503 47.1439L77.0063 46.2639C77.3477 46.5306 77.6997 46.7546 78.0623 46.9359C78.425 47.1066 78.8357 47.1919 79.2943 47.1919C79.8063 47.1919 80.1903 47.0746 80.4463 46.8399C80.7023 46.5946 80.8303 46.3066 80.8303 45.9759C80.8303 45.7093 80.7397 45.4853 80.5583 45.3039C80.3877 45.1226 80.1637 44.9733 79.8863 44.8559C79.6197 44.7279 79.3423 44.6106 79.0543 44.5039C78.6917 44.3653 78.3343 44.2106 77.9823 44.0399C77.6303 43.8586 77.3423 43.6293 77.1183 43.3519C76.8943 43.0639 76.7823 42.7013 76.7823 42.2639C76.7823 41.6346 77.017 41.1119 77.4863 40.6959C77.9663 40.2693 78.6277 40.0559 79.4703 40.0559C79.9503 40.0559 80.3983 40.1413 80.8143 40.3119C81.2303 40.4826 81.5877 40.6906 81.8863 40.9359L81.2463 41.7679C80.9797 41.5653 80.7023 41.3999 80.4143 41.2719C80.1263 41.1439 79.8117 41.0799 79.4703 41.0799C78.9797 41.0799 78.617 41.1919 78.3823 41.4159C78.1583 41.6399 78.0463 41.9013 78.0463 42.1999C78.0463 42.4453 78.1263 42.6479 78.2863 42.8079C78.4463 42.9573 78.6543 43.0906 78.9103 43.2079C79.1663 43.3146 79.4383 43.4266 79.7263 43.5439C80.0997 43.6826 80.4677 43.8426 80.8303 44.0239C81.193 44.1946 81.4917 44.4293 81.7263 44.7279C81.9717 45.0159 82.0943 45.4053 82.0943 45.8959C82.0943 46.3119 81.9823 46.6959 81.7583 47.0479C81.545 47.3999 81.225 47.6826 80.7983 47.8959C80.3823 48.1093 79.865 48.2159 79.2463 48.2159ZM87.2486 48.0239V37.5279H93.2966V38.6479H88.5766V41.9439H92.5606V43.0799H88.5766V46.8879H93.4566V48.0239H87.2486ZM97.8301 48.2159C97.0088 48.2159 96.4061 47.9599 96.0221 47.4479C95.6381 46.9253 95.4461 46.1679 95.4461 45.1759V40.2479H96.7741V44.9999C96.7741 45.7253 96.8861 46.2533 97.1101 46.5839C97.3448 46.9146 97.7181 47.0799 98.2301 47.0799C98.6354 47.0799 98.9928 46.9786 99.3021 46.7759C99.6221 46.5626 99.9634 46.2266 100.326 45.7679V40.2479H101.638V48.0239H100.55L100.438 46.8079H100.39C100.027 47.2346 99.6434 47.5759 99.2381 47.8319C98.8328 48.0879 98.3634 48.2159 97.8301 48.2159ZM104.261 48.0239V40.2479H105.349L105.461 41.6559H105.509C105.776 41.1653 106.101 40.7759 106.485 40.4879C106.869 40.1999 107.28 40.0559 107.717 40.0559C108.027 40.0559 108.304 40.1093 108.549 40.2159L108.293 41.3679C108.165 41.3253 108.048 41.2933 107.941 41.2719C107.835 41.2506 107.701 41.2399 107.541 41.2399C107.211 41.2399 106.864 41.3733 106.501 41.6399C106.149 41.9066 105.84 42.3706 105.573 43.0319V48.0239H104.261ZM112.676 48.2159C112.047 48.2159 111.455 48.0559 110.9 47.7359C110.356 47.4159 109.913 46.9519 109.572 46.3439C109.241 45.7359 109.076 45.0053 109.076 44.1519C109.076 43.2773 109.241 42.5359 109.572 41.9279C109.913 41.3199 110.356 40.8559 110.9 40.5359C111.455 40.2159 112.047 40.0559 112.676 40.0559C113.316 40.0559 113.908 40.2159 114.452 40.5359C114.996 40.8559 115.433 41.3199 115.764 41.9279C116.105 42.5359 116.276 43.2773 116.276 44.1519C116.276 45.0053 116.105 45.7359 115.764 46.3439C115.433 46.9519 114.996 47.4159 114.452 47.7359C113.908 48.0559 113.316 48.2159 112.676 48.2159ZM112.676 47.1279C113.348 47.1279 113.887 46.8559 114.292 46.3119C114.708 45.7573 114.916 45.0373 114.916 44.1519C114.916 43.2559 114.708 42.5306 114.292 41.9759C113.887 41.4213 113.348 41.1439 112.676 41.1439C112.015 41.1439 111.476 41.4213 111.06 41.9759C110.644 42.5306 110.436 43.2559 110.436 44.1519C110.436 45.0373 110.644 45.7573 111.06 46.3119C111.476 46.8559 112.015 47.1279 112.676 47.1279ZM118.324 51.3039V40.2479H119.412L119.524 41.1439H119.572C119.924 40.8453 120.308 40.5893 120.724 40.3759C121.15 40.1626 121.593 40.0559 122.052 40.0559C123.054 40.0559 123.817 40.4186 124.34 41.1439C124.862 41.8586 125.124 42.8186 125.124 44.0239C125.124 44.8986 124.964 45.6506 124.644 46.2799C124.334 46.9093 123.924 47.3893 123.412 47.7199C122.91 48.0506 122.361 48.2159 121.764 48.2159C121.401 48.2159 121.038 48.1359 120.676 47.9759C120.324 47.8159 119.966 47.5973 119.604 47.3199L119.636 48.6799V51.3039H118.324ZM121.54 47.1119C122.18 47.1119 122.708 46.8399 123.124 46.2959C123.55 45.7413 123.764 44.9839 123.764 44.0239C123.764 43.1706 123.604 42.4826 123.284 41.9599C122.974 41.4266 122.452 41.1599 121.716 41.1599C121.385 41.1599 121.049 41.2506 120.708 41.4319C120.377 41.6133 120.02 41.8746 119.636 42.2159V46.2959C119.988 46.5946 120.329 46.8079 120.66 46.9359C120.99 47.0533 121.284 47.1119 121.54 47.1119ZM130.351 48.2159C129.657 48.2159 129.028 48.0559 128.463 47.7359C127.897 47.4053 127.449 46.9359 127.119 46.3279C126.788 45.7199 126.623 44.9946 126.623 44.1519C126.623 43.2986 126.788 42.5679 127.119 41.9599C127.46 41.3519 127.897 40.8826 128.431 40.5519C128.964 40.2213 129.524 40.0559 130.111 40.0559C131.103 40.0559 131.865 40.3866 132.399 41.0479C132.943 41.7093 133.215 42.5946 133.215 43.7039C133.215 43.8426 133.209 43.9813 133.199 44.1199C133.199 44.2479 133.188 44.3599 133.167 44.4559H127.919C127.972 45.2773 128.228 45.9333 128.687 46.4239C129.156 46.9146 129.764 47.1599 130.511 47.1599C130.884 47.1599 131.225 47.1066 131.535 46.9999C131.855 46.8826 132.159 46.7333 132.447 46.5519L132.911 47.4159C132.58 47.6293 132.201 47.8159 131.775 47.9759C131.359 48.1359 130.884 48.2159 130.351 48.2159ZM127.903 43.5119H132.063C132.063 42.7226 131.892 42.1253 131.551 41.7199C131.22 41.3039 130.751 41.0959 130.143 41.0959C129.599 41.0959 129.108 41.3093 128.671 41.7359C128.244 42.1519 127.988 42.7439 127.903 43.5119Z" fill="#3E3E3E"/>
<path d="M146.962 85.9271L127.922 66.3989H0.989258" stroke="#93C704" stroke-width="0.976408" stroke-dasharray="1.95 1.95"/>
</svg>
