<svg width="290" height="157" viewBox="0 0 290 157" fill="none" xmlns="http://www.w3.org/2000/svg">
<path d="M14.6104 107.973L28.7683 76.2399L289.957 71.3579" stroke="#93C704" stroke-width="0.976408" stroke-dasharray="1.95 1.95"/>
<path d="M75.9015 45.9011C74.9681 45.9011 74.0161 46.1811 73.0455 46.7411C72.1121 47.2637 71.2721 48.1597 70.5255 49.4291C70.8988 52.2291 71.6081 54.1704 72.6535 55.2531C73.6988 56.2984 74.8375 56.8211 76.0695 56.8211C77.3015 56.8211 78.3468 56.3731 79.2055 55.4771C80.1015 54.5437 80.5495 53.0691 80.5495 51.0531C80.5495 49.1864 80.1015 47.8611 79.2055 47.0771C78.3468 46.2931 77.2455 45.9011 75.9015 45.9011ZM76.2375 62.9811C73.9601 62.9811 71.7948 62.3837 69.7415 61.1891C67.6881 59.9571 66.0081 58.0531 64.7015 55.4771C63.4321 52.8637 62.7975 49.4851 62.7975 45.3411C62.7975 40.8984 63.4695 37.2584 64.8135 34.4211C66.1948 31.5837 67.9681 29.4931 70.1335 28.1491C72.3361 26.7677 74.6881 26.0771 77.1895 26.0771C79.5415 26.0771 81.5761 26.5064 83.2935 27.3651C85.0108 28.1864 86.4295 29.1757 87.5495 30.3331L83.2375 35.2611C82.6401 34.5891 81.8188 34.0104 80.7735 33.5251C79.7655 33.0024 78.7388 32.7411 77.6935 32.7411C76.3868 32.7411 75.1921 33.0957 74.1095 33.8051C73.0268 34.4771 72.1495 35.6344 71.4775 37.2771C70.8428 38.8824 70.4695 41.0664 70.3575 43.8291C71.2908 42.6344 72.4295 41.7197 73.7735 41.0851C75.1548 40.4131 76.3868 40.0771 77.4695 40.0771C80.5308 40.0771 83.0508 40.9731 85.0295 42.7651C87.0455 44.5197 88.0535 47.2824 88.0535 51.0531C88.0535 53.5171 87.5121 55.6451 86.4295 57.4371C85.3468 59.1917 83.9095 60.5544 82.1175 61.5251C80.3628 62.4957 78.4028 62.9811 76.2375 62.9811ZM104.871 62.9811C101.063 62.9811 97.9834 61.3944 95.6314 58.2211C93.3167 55.0477 92.1594 50.4371 92.1594 44.3891C92.1594 38.3411 93.3167 33.7864 95.6314 30.7251C97.9834 27.6264 101.063 26.0771 104.871 26.0771C108.679 26.0771 111.741 27.6264 114.055 30.7251C116.407 33.7864 117.583 38.3411 117.583 44.3891C117.583 50.4371 116.407 55.0477 114.055 58.2211C111.741 61.3944 108.679 62.9811 104.871 62.9811ZM104.871 56.5971C105.805 56.5971 106.645 56.2611 107.391 55.5891C108.138 54.8797 108.717 53.6477 109.127 51.8931C109.575 50.1384 109.799 47.6371 109.799 44.3891C109.799 41.1411 109.575 38.6584 109.127 36.9411C108.717 35.2237 108.138 34.0477 107.391 33.4131C106.645 32.7784 105.805 32.4611 104.871 32.4611C103.975 32.4611 103.154 32.7784 102.407 33.4131C101.661 34.0477 101.063 35.2237 100.615 36.9411C100.167 38.6584 99.9434 41.1411 99.9434 44.3891C99.9434 47.6371 100.167 50.1384 100.615 51.8931C101.063 53.6477 101.661 54.8797 102.407 55.5891C103.154 56.2611 103.975 56.5971 104.871 56.5971ZM131.433 57.0451V46.7411H121.577V40.9171H131.433V30.6131H137.481V40.9171H147.337V46.7411H137.481V57.0451H131.433Z" fill="#93C704"/>
<path d="M160.306 41.2057V30.3257H162.226L162.386 31.1097H162.45C162.759 30.8324 163.106 30.6031 163.49 30.4217C163.884 30.2297 164.29 30.1337 164.706 30.1337C165.666 30.1337 166.423 30.5017 166.978 31.2377C167.532 31.9631 167.81 32.9391 167.81 34.1657C167.81 35.0724 167.65 35.8457 167.33 36.4857C167.01 37.1257 166.594 37.6164 166.082 37.9577C165.58 38.2884 165.042 38.4537 164.466 38.4537C164.124 38.4537 163.794 38.3844 163.474 38.2457C163.154 38.0964 162.855 37.8884 162.578 37.6217L162.658 38.8857V41.2057H160.306ZM163.922 36.5337C164.327 36.5337 164.674 36.3471 164.962 35.9737C165.25 35.6004 165.394 35.0084 165.394 34.1977C165.394 32.7684 164.935 32.0537 164.018 32.0537C163.559 32.0537 163.106 32.2937 162.658 32.7737V36.0217C162.871 36.2137 163.084 36.3471 163.298 36.4217C163.511 36.4964 163.719 36.5337 163.922 36.5337ZM173.03 38.4537C172.272 38.4537 171.59 38.2884 170.982 37.9577C170.374 37.6271 169.894 37.1524 169.542 36.5337C169.19 35.9151 169.014 35.1684 169.014 34.2937C169.014 33.4297 169.19 32.6884 169.542 32.0697C169.904 31.4511 170.374 30.9764 170.95 30.6457C171.526 30.3044 172.128 30.1337 172.758 30.1337C173.515 30.1337 174.139 30.3044 174.63 30.6457C175.131 30.9764 175.504 31.4297 175.75 32.0057C176.006 32.5711 176.134 33.2164 176.134 33.9417C176.134 34.1444 176.123 34.3471 176.102 34.5497C176.08 34.7417 176.059 34.8857 176.038 34.9817H171.286C171.392 35.5577 171.632 35.9844 172.006 36.2617C172.379 36.5284 172.827 36.6617 173.35 36.6617C173.915 36.6617 174.486 36.4857 175.062 36.1337L175.846 37.5577C175.44 37.8351 174.987 38.0537 174.486 38.2137C173.984 38.3737 173.499 38.4537 173.03 38.4537ZM171.27 33.4297H174.134C174.134 32.9924 174.027 32.6351 173.814 32.3577C173.611 32.0697 173.275 31.9257 172.806 31.9257C172.443 31.9257 172.118 32.0537 171.83 32.3097C171.542 32.5551 171.355 32.9284 171.27 33.4297ZM181.167 38.4537C180.495 38.4537 179.86 38.2937 179.263 37.9737C178.676 37.6431 178.201 37.1684 177.839 36.5497C177.476 35.9204 177.295 35.1684 177.295 34.2937C177.295 33.4084 177.476 32.6564 177.839 32.0377C178.201 31.4191 178.676 30.9497 179.263 30.6297C179.86 30.2991 180.495 30.1337 181.167 30.1337C181.839 30.1337 182.468 30.2991 183.055 30.6297C183.641 30.9497 184.116 31.4191 184.479 32.0377C184.841 32.6564 185.023 33.4084 185.023 34.2937C185.023 35.1684 184.841 35.9204 184.479 36.5497C184.116 37.1684 183.641 37.6431 183.055 37.9737C182.468 38.2937 181.839 38.4537 181.167 38.4537ZM181.167 36.5497C181.647 36.5497 182.009 36.3471 182.255 35.9417C182.5 35.5257 182.623 34.9764 182.623 34.2937C182.623 33.6004 182.5 33.0511 182.255 32.6457C182.009 32.2404 181.647 32.0377 181.167 32.0377C180.676 32.0377 180.308 32.2404 180.063 32.6457C179.828 33.0511 179.711 33.6004 179.711 34.2937C179.711 34.9764 179.828 35.5257 180.063 35.9417C180.308 36.3471 180.676 36.5497 181.167 36.5497ZM186.634 41.2057V30.3257H188.554L188.714 31.1097H188.778C189.087 30.8324 189.434 30.6031 189.818 30.4217C190.212 30.2297 190.618 30.1337 191.034 30.1337C191.994 30.1337 192.751 30.5017 193.306 31.2377C193.86 31.9631 194.138 32.9391 194.138 34.1657C194.138 35.0724 193.978 35.8457 193.658 36.4857C193.338 37.1257 192.922 37.6164 192.41 37.9577C191.908 38.2884 191.37 38.4537 190.794 38.4537C190.452 38.4537 190.122 38.3844 189.802 38.2457C189.482 38.0964 189.183 37.8884 188.906 37.6217L188.986 38.8857V41.2057H186.634ZM190.25 36.5337C190.655 36.5337 191.002 36.3471 191.29 35.9737C191.578 35.6004 191.722 35.0084 191.722 34.1977C191.722 32.7684 191.263 32.0537 190.346 32.0537C189.887 32.0537 189.434 32.2937 188.986 32.7737V36.0217C189.199 36.2137 189.412 36.3471 189.626 36.4217C189.839 36.4964 190.047 36.5337 190.25 36.5337ZM197.966 38.4537C197.155 38.4537 196.59 38.2137 196.27 37.7337C195.96 37.2431 195.806 36.5977 195.806 35.7977V27.0457H198.158V35.8937C198.158 36.1391 198.2 36.3097 198.286 36.4057C198.382 36.5017 198.478 36.5497 198.574 36.5497C198.627 36.5497 198.67 36.5497 198.702 36.5497C198.744 36.5391 198.798 36.5284 198.862 36.5177L199.15 38.2617C199.022 38.3151 198.856 38.3577 198.654 38.3897C198.462 38.4324 198.232 38.4537 197.966 38.4537ZM203.936 38.4537C203.178 38.4537 202.496 38.2884 201.888 37.9577C201.28 37.6271 200.8 37.1524 200.448 36.5337C200.096 35.9151 199.92 35.1684 199.92 34.2937C199.92 33.4297 200.096 32.6884 200.448 32.0697C200.81 31.4511 201.28 30.9764 201.856 30.6457C202.432 30.3044 203.034 30.1337 203.664 30.1337C204.421 30.1337 205.045 30.3044 205.536 30.6457C206.037 30.9764 206.41 31.4297 206.656 32.0057C206.912 32.5711 207.04 33.2164 207.04 33.9417C207.04 34.1444 207.029 34.3471 207.008 34.5497C206.986 34.7417 206.965 34.8857 206.944 34.9817H202.192C202.298 35.5577 202.538 35.9844 202.912 36.2617C203.285 36.5284 203.733 36.6617 204.256 36.6617C204.821 36.6617 205.392 36.4857 205.968 36.1337L206.752 37.5577C206.346 37.8351 205.893 38.0537 205.392 38.2137C204.89 38.3737 204.405 38.4537 203.936 38.4537ZM202.176 33.4297H205.04C205.04 32.9924 204.933 32.6351 204.72 32.3577C204.517 32.0697 204.181 31.9257 203.712 31.9257C203.349 31.9257 203.024 32.0537 202.736 32.3097C202.448 32.5551 202.261 32.9284 202.176 33.4297Z" fill="#3E3E3E"/>
<path d="M163.602 58.548C162.972 58.548 162.38 58.388 161.826 58.068C161.282 57.748 160.839 57.284 160.498 56.676C160.167 56.068 160.002 55.3373 160.002 54.484C160.002 53.6093 160.167 52.868 160.498 52.26C160.839 51.652 161.282 51.188 161.826 50.868C162.38 50.548 162.972 50.388 163.602 50.388C164.242 50.388 164.834 50.548 165.378 50.868C165.922 51.188 166.359 51.652 166.69 52.26C167.031 52.868 167.202 53.6093 167.202 54.484C167.202 55.3373 167.031 56.068 166.69 56.676C166.359 57.284 165.922 57.748 165.378 58.068C164.834 58.388 164.242 58.548 163.602 58.548ZM163.602 57.46C164.274 57.46 164.812 57.188 165.218 56.644C165.634 56.0893 165.842 55.3693 165.842 54.484C165.842 53.588 165.634 52.8626 165.218 52.308C164.812 51.7533 164.274 51.476 163.602 51.476C162.94 51.476 162.402 51.7533 161.986 52.308C161.57 52.8626 161.362 53.588 161.362 54.484C161.362 55.3693 161.57 56.0893 161.986 56.644C162.402 57.188 162.94 57.46 163.602 57.46ZM169.25 58.356V50.58H170.338L170.45 51.7H170.498C170.871 51.3266 171.266 51.0173 171.682 50.772C172.098 50.516 172.572 50.388 173.106 50.388C173.927 50.388 174.524 50.6493 174.898 51.172C175.282 51.684 175.474 52.436 175.474 53.428V58.356H174.162V53.604C174.162 52.8786 174.044 52.3506 173.81 52.02C173.575 51.6893 173.202 51.524 172.69 51.524C172.295 51.524 171.938 51.6253 171.618 51.828C171.308 52.0306 170.956 52.3293 170.562 52.724V58.356H169.25ZM183.235 58.548C182.68 58.548 182.152 58.4466 181.651 58.244C181.149 58.0306 180.712 57.7746 180.339 57.476L180.995 56.596C181.336 56.8626 181.688 57.0866 182.051 57.268C182.413 57.4386 182.824 57.524 183.283 57.524C183.795 57.524 184.179 57.4066 184.435 57.172C184.691 56.9266 184.819 56.6386 184.819 56.308C184.819 56.0413 184.728 55.8173 184.547 55.636C184.376 55.4546 184.152 55.3053 183.875 55.188C183.608 55.06 183.331 54.9426 183.043 54.836C182.68 54.6973 182.323 54.5426 181.971 54.372C181.619 54.1906 181.331 53.9613 181.107 53.684C180.883 53.396 180.771 53.0333 180.771 52.596C180.771 51.9666 181.005 51.444 181.475 51.028C181.955 50.6013 182.616 50.388 183.459 50.388C183.939 50.388 184.387 50.4733 184.803 50.644C185.219 50.8146 185.576 51.0226 185.875 51.268L185.235 52.1C184.968 51.8973 184.691 51.732 184.403 51.604C184.115 51.476 183.8 51.412 183.459 51.412C182.968 51.412 182.605 51.524 182.371 51.748C182.147 51.972 182.035 52.2333 182.035 52.532C182.035 52.7773 182.115 52.98 182.275 53.14C182.435 53.2893 182.643 53.4226 182.899 53.54C183.155 53.6466 183.427 53.7586 183.715 53.876C184.088 54.0146 184.456 54.1746 184.819 54.356C185.181 54.5266 185.48 54.7613 185.715 55.06C185.96 55.348 186.083 55.7373 186.083 56.228C186.083 56.644 185.971 57.028 185.747 57.38C185.533 57.732 185.213 58.0146 184.787 58.228C184.371 58.4413 183.853 58.548 183.235 58.548ZM190.041 58.548C189.209 58.548 188.628 58.308 188.297 57.828C187.977 57.348 187.817 56.724 187.817 55.956V51.652H186.665V50.66L187.881 50.58L188.041 48.404H189.145V50.58H191.241V51.652H189.145V55.972C189.145 56.452 189.231 56.8253 189.401 57.092C189.583 57.348 189.897 57.476 190.345 57.476C190.484 57.476 190.633 57.4546 190.793 57.412C190.953 57.3586 191.097 57.3106 191.225 57.268L191.481 58.26C191.268 58.3346 191.033 58.3986 190.777 58.452C190.532 58.516 190.287 58.548 190.041 58.548ZM194.448 58.548C193.797 58.548 193.253 58.356 192.816 57.972C192.389 57.5773 192.176 57.0333 192.176 56.34C192.176 55.4866 192.554 54.836 193.312 54.388C194.08 53.9293 195.29 53.6093 196.944 53.428C196.944 53.0973 196.896 52.7826 196.8 52.484C196.714 52.1853 196.554 51.9453 196.32 51.764C196.096 51.572 195.77 51.476 195.344 51.476C194.896 51.476 194.474 51.5613 194.08 51.732C193.685 51.9026 193.333 52.0946 193.024 52.308L192.512 51.396C192.874 51.1613 193.317 50.9373 193.84 50.724C194.373 50.5 194.949 50.388 195.568 50.388C196.517 50.388 197.205 50.6813 197.632 51.268C198.058 51.844 198.272 52.6173 198.272 53.588V58.356H197.184L197.072 57.428H197.024C196.661 57.7266 196.261 57.988 195.824 58.212C195.397 58.436 194.938 58.548 194.448 58.548ZM194.832 57.492C195.205 57.492 195.557 57.4013 195.888 57.22C196.218 57.0386 196.57 56.7826 196.944 56.452V54.292C195.653 54.452 194.746 54.692 194.224 55.012C193.712 55.332 193.456 55.7426 193.456 56.244C193.456 56.6813 193.589 57.0013 193.856 57.204C194.122 57.396 194.448 57.492 194.832 57.492ZM205.502 58.356V51.652H202.254V58.356H200.942V51.652H199.886V50.66L200.942 50.58V49.556C200.942 48.7453 201.14 48.1053 201.534 47.636C201.94 47.1666 202.548 46.932 203.358 46.932C203.892 46.932 204.366 47.028 204.782 47.22L204.51 48.212C204.19 48.0733 203.844 48.004 203.47 48.004C203.086 48.004 202.788 48.1426 202.574 48.42C202.361 48.6866 202.254 49.076 202.254 49.588V50.58H205.502V49.348C205.502 48.5586 205.684 47.9346 206.046 47.476C206.42 47.0066 206.996 46.772 207.774 46.772C208.02 46.772 208.254 46.7986 208.478 46.852C208.702 46.8946 208.9 46.9533 209.07 47.028L208.782 48.036C208.494 47.908 208.201 47.844 207.902 47.844C207.177 47.844 206.814 48.3453 206.814 49.348V50.58H208.462V51.652H206.814V58.356H205.502Z" fill="#3E3E3E"/>
</svg>
