<svg width="224" height="116" viewBox="0 0 224 116" fill="none" xmlns="http://www.w3.org/2000/svg">
<path d="M20.6213 52.438C20.8453 48.4807 21.2746 44.934 21.9093 41.798C22.544 38.662 23.5146 35.6567 24.8213 32.782C26.128 29.9073 27.9013 26.9207 30.1413 23.822H14.1813V16.878H38.9333V21.918C36.88 24.4193 35.2186 26.7713 33.9493 28.974C32.7173 31.1767 31.7466 33.4353 31.0373 35.75C30.3653 38.0273 29.88 40.51 29.5813 43.198C29.2826 45.886 29.0586 48.966 28.9093 52.438H20.6213Z" fill="#93C704"/>
<path d="M53.4014 31.4946C53.1668 31.4946 52.9588 31.4786 52.7774 31.4466C52.6068 31.4146 52.4414 31.3773 52.2814 31.3346L52.6974 29.5426C52.7721 29.5533 52.8574 29.5693 52.9534 29.5906C53.0494 29.6226 53.1401 29.6386 53.2254 29.6386C53.6201 29.6386 53.9241 29.5426 54.1374 29.3506C54.3508 29.1586 54.5108 28.908 54.6174 28.5986L54.7294 28.1826L51.6734 20.4546H54.0414L55.1774 23.8626C55.2948 24.2253 55.4014 24.5933 55.4974 24.9666C55.5934 25.34 55.6948 25.724 55.8014 26.1186H55.8654C55.9508 25.7453 56.0361 25.372 56.1214 24.9986C56.2174 24.6146 56.3134 24.236 56.4094 23.8626L57.3694 20.4546H59.6254L56.8734 28.4706C56.6281 29.132 56.3561 29.6866 56.0574 30.1346C55.7588 30.5933 55.3961 30.9346 54.9694 31.1586C54.5534 31.3826 54.0308 31.4946 53.4014 31.4946ZM64.2922 28.5826C63.5349 28.5826 62.8522 28.4173 62.2442 28.0866C61.6362 27.756 61.1562 27.2813 60.8042 26.6626C60.4522 26.044 60.2762 25.2973 60.2762 24.4226C60.2762 23.5586 60.4522 22.8173 60.8042 22.1986C61.1669 21.58 61.6362 21.1053 62.2122 20.7746C62.7882 20.4333 63.3909 20.2626 64.0202 20.2626C64.7775 20.2626 65.4015 20.4333 65.8922 20.7746C66.3935 21.1053 66.7669 21.5586 67.0122 22.1346C67.2682 22.7 67.3962 23.3453 67.3962 24.0706C67.3962 24.2733 67.3855 24.476 67.3642 24.6786C67.3429 24.8706 67.3215 25.0146 67.3002 25.1106H62.5482C62.6549 25.6866 62.8949 26.1133 63.2682 26.3906C63.6415 26.6573 64.0895 26.7906 64.6122 26.7906C65.1775 26.7906 65.7482 26.6146 66.3242 26.2626L67.1082 27.6866C66.7029 27.964 66.2495 28.1826 65.7482 28.3426C65.2469 28.5026 64.7615 28.5826 64.2922 28.5826ZM62.5322 23.5586H65.3962C65.3962 23.1213 65.2895 22.764 65.0762 22.4866C64.8735 22.1986 64.5375 22.0546 64.0682 22.0546C63.7055 22.0546 63.3802 22.1826 63.0922 22.4386C62.8042 22.684 62.6175 23.0573 62.5322 23.5586ZM70.8496 28.5826C70.1242 28.5826 69.5482 28.3533 69.1216 27.8946C68.6949 27.4253 68.4816 26.8546 68.4816 26.1826C68.4816 25.3506 68.8336 24.7 69.5376 24.2306C70.2416 23.7613 71.3776 23.4466 72.9456 23.2866C72.9242 22.9346 72.8176 22.6573 72.6256 22.4546C72.4442 22.2413 72.1349 22.1346 71.6976 22.1346C71.3669 22.1346 71.0309 22.1986 70.6896 22.3266C70.3482 22.4546 69.9856 22.6306 69.6016 22.8546L68.7536 21.3026C69.2549 20.9933 69.7882 20.7426 70.3536 20.5506C70.9296 20.3586 71.5269 20.2626 72.1456 20.2626C73.1589 20.2626 73.9376 20.556 74.4816 21.1426C75.0256 21.7293 75.2976 22.6306 75.2976 23.8466V28.3906H73.3776L73.2176 27.5746H73.1536C72.8229 27.8733 72.4656 28.1186 72.0816 28.3106C71.7082 28.492 71.2976 28.5826 70.8496 28.5826ZM71.6496 26.7586C71.9162 26.7586 72.1456 26.7 72.3376 26.5826C72.5402 26.4546 72.7429 26.2893 72.9456 26.0866V24.6946C72.1136 24.8013 71.5376 24.972 71.2176 25.2066C70.8976 25.4306 70.7376 25.6973 70.7376 26.0066C70.7376 26.2626 70.8176 26.4546 70.9776 26.5826C71.1482 26.7 71.3722 26.7586 71.6496 26.7586ZM77.2871 28.3906V20.4546H79.2071L79.3671 21.8466H79.4311C79.7191 21.3133 80.0657 20.9186 80.4711 20.6626C80.8764 20.396 81.2817 20.2626 81.6871 20.2626C81.9111 20.2626 82.0977 20.2786 82.2471 20.3106C82.3964 20.332 82.5244 20.3693 82.6311 20.4226L82.2471 22.4546C82.1084 22.412 81.9697 22.38 81.8311 22.3586C81.7031 22.3373 81.5537 22.3266 81.3831 22.3266C81.0844 22.3266 80.7697 22.4386 80.4391 22.6626C80.1191 22.876 79.8524 23.2493 79.6391 23.7826V28.3906H77.2871ZM85.8731 28.5826C85.3504 28.5826 84.8117 28.4813 84.2571 28.2786C83.7131 28.076 83.2384 27.8093 82.8331 27.4786L83.8891 26.0066C84.2517 26.2733 84.5984 26.4813 84.9291 26.6306C85.2704 26.7693 85.6064 26.8386 85.9371 26.8386C86.2891 26.8386 86.5451 26.78 86.7051 26.6626C86.8651 26.5346 86.9451 26.3693 86.9451 26.1666C86.9451 25.9853 86.8651 25.836 86.7051 25.7186C86.5557 25.6013 86.3584 25.4946 86.1131 25.3986C85.8677 25.292 85.6064 25.1853 85.3291 25.0786C85.0091 24.9506 84.6891 24.7906 84.3691 24.5986C84.0597 24.4066 83.7984 24.1613 83.5851 23.8626C83.3717 23.5533 83.2651 23.18 83.2651 22.7426C83.2651 22.0066 83.5424 21.4093 84.0971 20.9506C84.6624 20.492 85.3984 20.2626 86.3051 20.2626C86.9131 20.2626 87.4464 20.3693 87.9051 20.5826C88.3744 20.7853 88.7744 21.0146 89.1051 21.2706L88.0491 22.6786C87.7717 22.4653 87.4944 22.3 87.2171 22.1826C86.9397 22.0653 86.6624 22.0066 86.3851 22.0066C85.7771 22.0066 85.4731 22.2146 85.4731 22.6306C85.4731 22.8866 85.6224 23.084 85.9211 23.2226C86.2304 23.3506 86.5877 23.4893 86.9931 23.6386C87.3344 23.756 87.6651 23.9106 87.9851 24.1026C88.3157 24.284 88.5877 24.5293 88.8011 24.8386C89.0251 25.1373 89.1371 25.532 89.1371 26.0226C89.1371 26.7373 88.8597 27.3453 88.3051 27.8466C87.7504 28.3373 86.9397 28.5826 85.8731 28.5826Z" fill="#3E3E3E"/>
<path d="M59.0206 48.6769C58.3912 48.6769 57.7992 48.5169 57.2446 48.1969C56.7006 47.8769 56.2579 47.4129 55.9166 46.8049C55.5859 46.1969 55.4206 45.4662 55.4206 44.6129C55.4206 43.7382 55.5859 42.9969 55.9166 42.3889C56.2579 41.7809 56.7006 41.3169 57.2446 40.9969C57.7992 40.6769 58.3912 40.5169 59.0206 40.5169C59.6606 40.5169 60.2526 40.6769 60.7966 40.9969C61.3406 41.3169 61.7779 41.7809 62.1086 42.3889C62.4499 42.9969 62.6206 43.7382 62.6206 44.6129C62.6206 45.4662 62.4499 46.1969 62.1086 46.8049C61.7779 47.4129 61.3406 47.8769 60.7966 48.1969C60.2526 48.5169 59.6606 48.6769 59.0206 48.6769ZM59.0206 47.5889C59.6926 47.5889 60.2312 47.3169 60.6366 46.7729C61.0526 46.2182 61.2606 45.4982 61.2606 44.6129C61.2606 43.7169 61.0526 42.9915 60.6366 42.4369C60.2312 41.8822 59.6926 41.6049 59.0206 41.6049C58.3592 41.6049 57.8206 41.8822 57.4046 42.4369C56.9886 42.9915 56.7806 43.7169 56.7806 44.6129C56.7806 45.4982 56.9886 46.2182 57.4046 46.7729C57.8206 47.3169 58.3592 47.5889 59.0206 47.5889ZM64.8924 48.4849V41.7809H63.8364V40.7889L64.8924 40.7089V39.4769C64.8924 38.6875 65.0738 38.0635 65.4364 37.6049C65.8098 37.1355 66.3858 36.9009 67.1644 36.9009C67.4098 36.9009 67.6444 36.9275 67.8684 36.9809C68.0924 37.0235 68.2898 37.0822 68.4604 37.1569L68.1724 38.1649C67.8844 38.0369 67.5911 37.9729 67.2924 37.9729C66.5671 37.9729 66.2044 38.4742 66.2044 39.4769V40.7089H67.8524V41.7809H66.2044V48.4849H64.8924ZM75.6954 48.6769C75.0021 48.6769 74.3728 48.5169 73.8074 48.1969C73.2421 47.8662 72.7941 47.3969 72.4634 46.7889C72.1328 46.1809 71.9674 45.4555 71.9674 44.6129C71.9674 43.7595 72.1328 43.0289 72.4634 42.4209C72.8048 41.8129 73.2421 41.3435 73.7754 41.0129C74.3088 40.6822 74.8688 40.5169 75.4554 40.5169C76.4474 40.5169 77.2101 40.8475 77.7434 41.5089C78.2874 42.1702 78.5594 43.0555 78.5594 44.1649C78.5594 44.3035 78.5541 44.4422 78.5434 44.5809C78.5434 44.7089 78.5328 44.8209 78.5114 44.9169H73.2634C73.3168 45.7382 73.5728 46.3942 74.0314 46.8849C74.5008 47.3755 75.1088 47.6209 75.8554 47.6209C76.2288 47.6209 76.5701 47.5675 76.8794 47.4609C77.1994 47.3435 77.5034 47.1942 77.7914 47.0129L78.2554 47.8769C77.9248 48.0902 77.5461 48.2769 77.1194 48.4369C76.7034 48.5969 76.2288 48.6769 75.6954 48.6769ZM73.2474 43.9729H77.4074C77.4074 43.1835 77.2368 42.5862 76.8954 42.1809C76.5648 41.7649 76.0954 41.5569 75.4874 41.5569C74.9434 41.5569 74.4528 41.7702 74.0154 42.1969C73.5888 42.6129 73.3328 43.2049 73.2474 43.9729ZM79.2836 48.4849L81.8276 44.4209L79.4756 40.7089H80.8996L81.9396 42.4209C82.0569 42.6235 82.1796 42.8369 82.3076 43.0609C82.4356 43.2849 82.5689 43.5035 82.7076 43.7169H82.7716C82.8889 43.5035 83.0062 43.2849 83.1236 43.0609C83.2409 42.8369 83.3582 42.6235 83.4756 42.4209L84.4196 40.7089H85.7956L83.4436 44.5649L85.9716 48.4849H84.5476L83.4116 46.6769C83.2729 46.4422 83.1342 46.2075 82.9956 45.9729C82.8569 45.7382 82.7129 45.5089 82.5636 45.2849H82.4996C82.3609 45.5089 82.2276 45.7382 82.0996 45.9729C81.9716 46.1969 81.8436 46.4315 81.7156 46.6769L80.6596 48.4849H79.2836ZM87.5122 51.7649V40.7089H88.6002L88.7122 41.6049H88.7602C89.1122 41.3062 89.4962 41.0502 89.9122 40.8369C90.3389 40.6235 90.7815 40.5169 91.2402 40.5169C92.2429 40.5169 93.0055 40.8795 93.5282 41.6049C94.0509 42.3195 94.3122 43.2795 94.3122 44.4849C94.3122 45.3595 94.1522 46.1115 93.8322 46.7409C93.5229 47.3702 93.1122 47.8502 92.6002 48.1809C92.0989 48.5115 91.5495 48.6769 90.9522 48.6769C90.5895 48.6769 90.2269 48.5969 89.8642 48.4369C89.5122 48.2769 89.1549 48.0582 88.7922 47.7809L88.8242 49.1409V51.7649H87.5122ZM90.7282 47.5729C91.3682 47.5729 91.8962 47.3009 92.3122 46.7569C92.7389 46.2022 92.9522 45.4449 92.9522 44.4849C92.9522 43.6315 92.7922 42.9435 92.4722 42.4209C92.1629 41.8875 91.6402 41.6209 90.9042 41.6209C90.5735 41.6209 90.2375 41.7115 89.8962 41.8929C89.5655 42.0742 89.2082 42.3355 88.8242 42.6769V46.7569C89.1762 47.0555 89.5175 47.2689 89.8482 47.3969C90.1789 47.5142 90.4722 47.5729 90.7282 47.5729ZM99.5392 48.6769C98.8459 48.6769 98.2165 48.5169 97.6512 48.1969C97.0859 47.8662 96.6379 47.3969 96.3072 46.7889C95.9765 46.1809 95.8112 45.4555 95.8112 44.6129C95.8112 43.7595 95.9765 43.0289 96.3072 42.4209C96.6485 41.8129 97.0859 41.3435 97.6192 41.0129C98.1525 40.6822 98.7125 40.5169 99.2992 40.5169C100.291 40.5169 101.054 40.8475 101.587 41.5089C102.131 42.1702 102.403 43.0555 102.403 44.1649C102.403 44.3035 102.398 44.4422 102.387 44.5809C102.387 44.7089 102.377 44.8209 102.355 44.9169H97.1072C97.1605 45.7382 97.4165 46.3942 97.8752 46.8849C98.3445 47.3755 98.9525 47.6209 99.6992 47.6209C100.073 47.6209 100.414 47.5675 100.723 47.4609C101.043 47.3435 101.347 47.1942 101.635 47.0129L102.099 47.8769C101.769 48.0902 101.39 48.2769 100.963 48.4369C100.547 48.5969 100.073 48.6769 99.5392 48.6769ZM97.0912 43.9729H101.251C101.251 43.1835 101.081 42.5862 100.739 42.1809C100.409 41.7649 99.9392 41.5569 99.3312 41.5569C98.7872 41.5569 98.2965 41.7702 97.8592 42.1969C97.4325 42.6129 97.1765 43.2049 97.0912 43.9729ZM104.325 48.4849V40.7089H105.413L105.525 42.1169H105.573C105.839 41.6262 106.165 41.2369 106.549 40.9489C106.933 40.6609 107.343 40.5169 107.781 40.5169C108.09 40.5169 108.367 40.5702 108.613 40.6769L108.357 41.8289C108.229 41.7862 108.111 41.7542 108.005 41.7329C107.898 41.7115 107.765 41.7009 107.605 41.7009C107.274 41.7009 106.927 41.8342 106.565 42.1009C106.213 42.3675 105.903 42.8315 105.637 43.4929V48.4849H104.325ZM109.872 48.4849V40.7089H111.184V48.4849H109.872ZM110.544 39.1089C110.288 39.1089 110.074 39.0342 109.904 38.8849C109.744 38.7249 109.664 38.5115 109.664 38.2449C109.664 37.9889 109.744 37.7809 109.904 37.6209C110.074 37.4609 110.288 37.3809 110.544 37.3809C110.8 37.3809 111.008 37.4609 111.168 37.6209C111.338 37.7809 111.424 37.9889 111.424 38.2449C111.424 38.5115 111.338 38.7249 111.168 38.8849C111.008 39.0342 110.8 39.1089 110.544 39.1089ZM116.961 48.6769C116.268 48.6769 115.638 48.5169 115.073 48.1969C114.508 47.8662 114.06 47.3969 113.729 46.7889C113.398 46.1809 113.233 45.4555 113.233 44.6129C113.233 43.7595 113.398 43.0289 113.729 42.4209C114.07 41.8129 114.508 41.3435 115.041 41.0129C115.574 40.6822 116.134 40.5169 116.721 40.5169C117.713 40.5169 118.476 40.8475 119.009 41.5089C119.553 42.1702 119.825 43.0555 119.825 44.1649C119.825 44.3035 119.82 44.4422 119.809 44.5809C119.809 44.7089 119.798 44.8209 119.777 44.9169H114.529C114.582 45.7382 114.838 46.3942 115.297 46.8849C115.766 47.3755 116.374 47.6209 117.121 47.6209C117.494 47.6209 117.836 47.5675 118.145 47.4609C118.465 47.3435 118.769 47.1942 119.057 47.0129L119.521 47.8769C119.19 48.0902 118.812 48.2769 118.385 48.4369C117.969 48.5969 117.494 48.6769 116.961 48.6769ZM114.513 43.9729H118.673C118.673 43.1835 118.502 42.5862 118.161 42.1809C117.83 41.7649 117.361 41.5569 116.753 41.5569C116.209 41.5569 115.718 41.7702 115.281 42.1969C114.854 42.6129 114.598 43.2049 114.513 43.9729ZM121.747 48.4849V40.7089H122.835L122.947 41.8289H122.995C123.368 41.4555 123.763 41.1462 124.179 40.9009C124.595 40.6449 125.069 40.5169 125.603 40.5169C126.424 40.5169 127.021 40.7782 127.395 41.3009C127.779 41.8129 127.971 42.5649 127.971 43.5569V48.4849H126.659V43.7329C126.659 43.0075 126.541 42.4795 126.307 42.1489C126.072 41.8182 125.699 41.6529 125.187 41.6529C124.792 41.6529 124.435 41.7542 124.115 41.9569C123.805 42.1595 123.453 42.4582 123.059 42.8529V48.4849H121.747ZM133.569 48.6769C132.886 48.6769 132.267 48.5169 131.713 48.1969C131.158 47.8769 130.721 47.4129 130.401 46.8049C130.081 46.1969 129.921 45.4662 129.921 44.6129C129.921 43.7382 130.091 42.9969 130.433 42.3889C130.785 41.7809 131.243 41.3169 131.809 40.9969C132.385 40.6769 133.003 40.5169 133.665 40.5169C134.177 40.5169 134.614 40.6075 134.977 40.7889C135.35 40.9702 135.67 41.1835 135.937 41.4289L135.265 42.2929C135.041 42.0902 134.801 41.9249 134.545 41.7969C134.299 41.6689 134.022 41.6049 133.713 41.6049C133.243 41.6049 132.822 41.7329 132.449 41.9889C132.086 42.2342 131.798 42.5862 131.585 43.0449C131.382 43.4929 131.281 44.0155 131.281 44.6129C131.281 45.4982 131.499 46.2182 131.937 46.7729C132.385 47.3169 132.966 47.5889 133.681 47.5889C134.043 47.5889 134.379 47.5142 134.689 47.3649C134.998 47.2049 135.27 47.0182 135.505 46.8049L136.081 47.6849C135.729 47.9942 135.339 48.2395 134.913 48.4209C134.486 48.5915 134.038 48.6769 133.569 48.6769ZM140.602 48.6769C139.908 48.6769 139.279 48.5169 138.714 48.1969C138.148 47.8662 137.7 47.3969 137.37 46.7889C137.039 46.1809 136.874 45.4555 136.874 44.6129C136.874 43.7595 137.039 43.0289 137.37 42.4209C137.711 41.8129 138.148 41.3435 138.682 41.0129C139.215 40.6822 139.775 40.5169 140.362 40.5169C141.354 40.5169 142.116 40.8475 142.65 41.5089C143.194 42.1702 143.466 43.0555 143.466 44.1649C143.466 44.3035 143.46 44.4422 143.45 44.5809C143.45 44.7089 143.439 44.8209 143.418 44.9169H138.17C138.223 45.7382 138.479 46.3942 138.938 46.8849C139.407 47.3755 140.015 47.6209 140.762 47.6209C141.135 47.6209 141.476 47.5675 141.786 47.4609C142.106 47.3435 142.41 47.1942 142.698 47.0129L143.162 47.8769C142.831 48.0902 142.452 48.2769 142.026 48.4369C141.61 48.5969 141.135 48.6769 140.602 48.6769ZM138.154 43.9729H142.314C142.314 43.1835 142.143 42.5862 141.802 42.1809C141.471 41.7649 141.002 41.5569 140.394 41.5569C139.85 41.5569 139.359 41.7702 138.922 42.1969C138.495 42.6129 138.239 43.2049 138.154 43.9729Z" fill="#3E3E3E"/>
<path d="M219.5 0.437988L146.461 72.7192L4.66808e-09 72.7192" stroke="#93C704" stroke-width="0.976408" stroke-dasharray="1.95 1.95"/>
</svg>
