<svg width="301" height="121" viewBox="0 0 301 121" fill="none" xmlns="http://www.w3.org/2000/svg">
<path d="M43.5 31.438L73.7188 68.2915H281.694" stroke="#93C704" stroke-width="0.976408" stroke-dasharray="1.95 1.95"/>
<path d="M81.1238 59.9225C78.7718 59.9225 76.6624 59.5118 74.7958 58.6905C72.9291 57.8692 71.4544 56.7305 70.3718 55.2745C69.2891 53.7812 68.7478 52.0825 68.7478 50.1785C68.7478 48.0132 69.3264 46.2398 70.4838 44.8585C71.6784 43.4772 73.1158 42.3385 74.7958 41.4425V41.2185C73.4144 40.1732 72.2758 38.9785 71.3798 37.6345C70.4838 36.2905 70.0358 34.6852 70.0358 32.8185C70.0358 30.8025 70.5211 29.0665 71.4918 27.6105C72.4624 26.1172 73.8064 24.9785 75.5238 24.1945C77.2411 23.4105 79.2011 23.0185 81.4038 23.0185C84.6518 23.0185 87.2651 23.9145 89.2438 25.7065C91.2224 27.4612 92.2118 29.8132 92.2118 32.7625C92.2118 34.4798 91.7451 36.0105 90.8118 37.3545C89.8784 38.6612 88.7958 39.7252 87.5638 40.5465V40.7705C89.2811 41.7038 90.7371 42.8985 91.9318 44.3545C93.1264 45.8105 93.7238 47.7145 93.7238 50.0665C93.7238 51.9332 93.2011 53.6132 92.1558 55.1065C91.1104 56.5998 89.6358 57.7758 87.7318 58.6345C85.8651 59.4932 83.6624 59.9225 81.1238 59.9225ZM83.3638 38.5305C84.8198 36.8505 85.5478 35.1145 85.5478 33.3225C85.5478 31.9412 85.1558 30.8398 84.3718 30.0185C83.6251 29.1598 82.5798 28.7305 81.2358 28.7305C80.1531 28.7305 79.2198 29.0665 78.4358 29.7385C77.6518 30.4105 77.2598 31.4372 77.2598 32.8185C77.2598 34.2745 77.8198 35.4132 78.9398 36.2345C80.0598 37.0558 81.5344 37.8212 83.3638 38.5305ZM81.2918 54.2105C82.6731 54.2105 83.8118 53.8558 84.7078 53.1465C85.6038 52.3998 86.0518 51.2798 86.0518 49.7865C86.0518 48.7412 85.7344 47.8825 85.0998 47.2105C84.4651 46.5012 83.5878 45.8852 82.4678 45.3625C81.3478 44.8025 80.0411 44.2052 78.5478 43.5705C77.7638 44.2798 77.1104 45.1385 76.5878 46.1465C76.0651 47.1172 75.8038 48.1438 75.8038 49.2265C75.8038 50.7945 76.3451 52.0265 77.4278 52.9225C78.5104 53.7812 79.7984 54.2105 81.2918 54.2105ZM104.886 59.2505C105.11 55.2932 105.539 51.7465 106.174 48.6105C106.808 45.4745 107.779 42.4692 109.086 39.5945C110.392 36.7198 112.166 33.7332 114.406 30.6345H98.4457V23.6905H123.198V28.7305C121.144 31.2318 119.483 33.5838 118.214 35.7865C116.982 37.9892 116.011 40.2478 115.302 42.5625C114.63 44.8398 114.144 47.3225 113.846 50.0105C113.547 52.6985 113.323 55.7785 113.174 59.2505H104.886ZM136.096 45.2505C133.482 45.2505 131.317 44.2238 129.6 42.1705C127.882 40.1172 127.024 37.2612 127.024 33.6025C127.024 29.9438 127.882 27.1065 129.6 25.0905C131.317 23.0745 133.482 22.0665 136.096 22.0665C138.746 22.0665 140.93 23.0745 142.648 25.0905C144.365 27.1065 145.224 29.9438 145.224 33.6025C145.224 37.2612 144.365 40.1172 142.648 42.1705C140.93 44.2238 138.746 45.2505 136.096 45.2505ZM136.096 40.6585C137.029 40.6585 137.813 40.1358 138.448 39.0905C139.12 38.0452 139.456 36.2158 139.456 33.6025C139.456 30.9892 139.12 29.1785 138.448 28.1705C137.813 27.1625 137.029 26.6585 136.096 26.6585C135.162 26.6585 134.36 27.1625 133.688 28.1705C133.053 29.1785 132.736 30.9892 132.736 33.6025C132.736 36.2158 133.053 38.0452 133.688 39.0905C134.36 40.1358 135.162 40.6585 136.096 40.6585ZM137.328 59.9225L157.04 22.0665H161.8L142.088 59.9225H137.328ZM163.032 59.9225C160.418 59.9225 158.253 58.8958 156.536 56.8425C154.818 54.7892 153.96 51.9332 153.96 48.2745C153.96 44.6158 154.818 41.7785 156.536 39.7625C158.253 37.7465 160.418 36.7385 163.032 36.7385C165.682 36.7385 167.866 37.7465 169.584 39.7625C171.301 41.7785 172.16 44.6158 172.16 48.2745C172.16 51.9332 171.301 54.7892 169.584 56.8425C167.866 58.8958 165.682 59.9225 163.032 59.9225ZM163.032 55.3305C163.965 55.3305 164.749 54.8078 165.384 53.7625C166.056 52.7172 166.392 50.8878 166.392 48.2745C166.392 45.6612 166.056 43.8505 165.384 42.8425C164.749 41.8345 163.965 41.3305 163.032 41.3305C162.098 41.3305 161.296 41.8345 160.624 42.8425C159.989 43.8505 159.672 45.6612 159.672 48.2745C159.672 50.8878 159.989 52.7172 160.624 53.7625C161.296 54.8078 162.098 55.3305 163.032 55.3305Z" fill="#93C704"/>
<path d="M188.496 35.3951C187.867 35.3951 187.275 35.2351 186.72 34.9151C186.176 34.5951 185.733 34.1311 185.392 33.5231C185.061 32.9151 184.896 32.1845 184.896 31.3311C184.896 30.4565 185.061 29.7151 185.392 29.1071C185.733 28.4991 186.176 28.0351 186.72 27.7151C187.275 27.3951 187.867 27.2351 188.496 27.2351C189.136 27.2351 189.728 27.3951 190.272 27.7151C190.816 28.0351 191.253 28.4991 191.584 29.1071C191.925 29.7151 192.096 30.4565 192.096 31.3311C192.096 32.1845 191.925 32.9151 191.584 33.5231C191.253 34.1311 190.816 34.5951 190.272 34.9151C189.728 35.2351 189.136 35.3951 188.496 35.3951ZM188.496 34.3071C189.168 34.3071 189.707 34.0351 190.112 33.4911C190.528 32.9365 190.736 32.2165 190.736 31.3311C190.736 30.4351 190.528 29.7098 190.112 29.1551C189.707 28.6005 189.168 28.3231 188.496 28.3231C187.835 28.3231 187.296 28.6005 186.88 29.1551C186.464 29.7098 186.256 30.4351 186.256 31.3311C186.256 32.2165 186.464 32.9365 186.88 33.4911C187.296 34.0351 187.835 34.3071 188.496 34.3071ZM194.368 35.2031V28.4991H193.312V27.5071L194.368 27.4271V26.1951C194.368 25.4058 194.549 24.7818 194.912 24.3231C195.285 23.8538 195.861 23.6191 196.64 23.6191C196.885 23.6191 197.12 23.6458 197.344 23.6991C197.568 23.7418 197.765 23.8005 197.936 23.8751L197.648 24.8831C197.36 24.7551 197.066 24.6911 196.768 24.6911C196.042 24.6911 195.68 25.1925 195.68 26.1951V27.4271H197.328V28.4991H195.68V35.2031H194.368ZM205.043 35.3951C204.413 35.3951 203.821 35.2351 203.267 34.9151C202.723 34.5951 202.28 34.1311 201.939 33.5231C201.608 32.9151 201.443 32.1845 201.443 31.3311C201.443 30.4565 201.608 29.7151 201.939 29.1071C202.28 28.4991 202.723 28.0351 203.267 27.7151C203.821 27.3951 204.413 27.2351 205.043 27.2351C205.683 27.2351 206.275 27.3951 206.819 27.7151C207.363 28.0351 207.8 28.4991 208.131 29.1071C208.472 29.7151 208.643 30.4565 208.643 31.3311C208.643 32.1845 208.472 32.9151 208.131 33.5231C207.8 34.1311 207.363 34.5951 206.819 34.9151C206.275 35.2351 205.683 35.3951 205.043 35.3951ZM205.043 34.3071C205.715 34.3071 206.253 34.0351 206.659 33.4911C207.075 32.9365 207.283 32.2165 207.283 31.3311C207.283 30.4351 207.075 29.7098 206.659 29.1551C206.253 28.6005 205.715 28.3231 205.043 28.3231C204.381 28.3231 203.843 28.6005 203.427 29.1551C203.011 29.7098 202.803 30.4351 202.803 31.3311C202.803 32.2165 203.011 32.9365 203.427 33.4911C203.843 34.0351 204.381 34.3071 205.043 34.3071ZM212.963 35.3951C212.141 35.3951 211.539 35.1391 211.155 34.6271C210.771 34.1045 210.579 33.3471 210.579 32.3551V27.4271H211.907V32.1791C211.907 32.9045 212.019 33.4325 212.243 33.7631C212.477 34.0938 212.851 34.2591 213.363 34.2591C213.768 34.2591 214.125 34.1578 214.435 33.9551C214.755 33.7418 215.096 33.4058 215.459 32.9471V27.4271H216.771V35.2031H215.683L215.571 33.9871H215.523C215.16 34.4138 214.776 34.7551 214.371 35.0111C213.965 35.2671 213.496 35.3951 212.963 35.3951ZM219.394 35.2031V27.4271H220.482L220.594 28.8351H220.642C220.908 28.3445 221.234 27.9551 221.618 27.6671C222.002 27.3791 222.412 27.2351 222.85 27.2351C223.159 27.2351 223.436 27.2885 223.682 27.3951L223.426 28.5471C223.298 28.5045 223.18 28.4725 223.074 28.4511C222.967 28.4298 222.834 28.4191 222.674 28.4191C222.343 28.4191 221.996 28.5525 221.634 28.8191C221.282 29.0858 220.972 29.5498 220.706 30.2111V35.2031H219.394ZM231.216 35.3951C230.533 35.3951 229.914 35.2351 229.36 34.9151C228.805 34.5951 228.368 34.1311 228.048 33.5231C227.728 32.9151 227.568 32.1845 227.568 31.3311C227.568 30.4565 227.738 29.7151 228.08 29.1071C228.432 28.4991 228.89 28.0351 229.456 27.7151C230.032 27.3951 230.65 27.2351 231.312 27.2351C231.824 27.2351 232.261 27.3258 232.624 27.5071C232.997 27.6885 233.317 27.9018 233.584 28.1471L232.912 29.0111C232.688 28.8085 232.448 28.6431 232.192 28.5151C231.946 28.3871 231.669 28.3231 231.36 28.3231C230.89 28.3231 230.469 28.4511 230.096 28.7071C229.733 28.9525 229.445 29.3045 229.232 29.7631C229.029 30.2111 228.928 30.7338 228.928 31.3311C228.928 32.2165 229.146 32.9365 229.584 33.4911C230.032 34.0351 230.613 34.3071 231.328 34.3071C231.69 34.3071 232.026 34.2325 232.336 34.0831C232.645 33.9231 232.917 33.7365 233.152 33.5231L233.728 34.4031C233.376 34.7125 232.986 34.9578 232.56 35.1391C232.133 35.3098 231.685 35.3951 231.216 35.3951ZM236.833 35.3951C236.342 35.3951 235.985 35.2458 235.761 34.9471C235.547 34.6378 235.441 34.2005 235.441 33.6351V23.8111H236.753V33.7311C236.753 33.9338 236.79 34.0831 236.865 34.1791C236.939 34.2645 237.025 34.3071 237.121 34.3071C237.163 34.3071 237.201 34.3071 237.233 34.3071C237.275 34.2965 237.334 34.2858 237.409 34.2751L237.585 35.2671C237.499 35.3098 237.398 35.3418 237.281 35.3631C237.163 35.3845 237.014 35.3951 236.833 35.3951ZM239.519 35.2031V27.4271H240.831V35.2031H239.519ZM240.191 25.8271C239.935 25.8271 239.721 25.7525 239.551 25.6031C239.391 25.4431 239.311 25.2298 239.311 24.9631C239.311 24.7071 239.391 24.4991 239.551 24.3391C239.721 24.1791 239.935 24.0991 240.191 24.0991C240.447 24.0991 240.655 24.1791 240.815 24.3391C240.985 24.4991 241.071 24.7071 241.071 24.9631C241.071 25.2298 240.985 25.4431 240.815 25.6031C240.655 25.7525 240.447 25.8271 240.191 25.8271ZM246.608 35.3951C245.915 35.3951 245.286 35.2351 244.72 34.9151C244.155 34.5845 243.707 34.1151 243.376 33.5071C243.046 32.8991 242.88 32.1738 242.88 31.3311C242.88 30.4778 243.046 29.7471 243.376 29.1391C243.718 28.5311 244.155 28.0618 244.688 27.7311C245.222 27.4005 245.782 27.2351 246.368 27.2351C247.36 27.2351 248.123 27.5658 248.656 28.2271C249.2 28.8885 249.472 29.7738 249.472 30.8831C249.472 31.0218 249.467 31.1605 249.456 31.2991C249.456 31.4271 249.446 31.5391 249.424 31.6351H244.176C244.23 32.4565 244.486 33.1125 244.944 33.6031C245.414 34.0938 246.022 34.3391 246.768 34.3391C247.142 34.3391 247.483 34.2858 247.792 34.1791C248.112 34.0618 248.416 33.9125 248.704 33.7311L249.168 34.5951C248.838 34.8085 248.459 34.9951 248.032 35.1551C247.616 35.3151 247.142 35.3951 246.608 35.3951ZM244.16 30.6911H248.32C248.32 29.9018 248.15 29.3045 247.808 28.8991C247.478 28.4831 247.008 28.2751 246.4 28.2751C245.856 28.2751 245.366 28.4885 244.928 28.9151C244.502 29.3311 244.246 29.9231 244.16 30.6911ZM251.394 35.2031V27.4271H252.482L252.594 28.5471H252.642C253.015 28.1738 253.41 27.8645 253.826 27.6191C254.242 27.3631 254.716 27.2351 255.25 27.2351C256.071 27.2351 256.668 27.4965 257.042 28.0191C257.426 28.5311 257.618 29.2831 257.618 30.2751V35.2031H256.306V30.4511C256.306 29.7258 256.188 29.1978 255.954 28.8671C255.719 28.5365 255.346 28.3711 254.834 28.3711C254.439 28.3711 254.082 28.4725 253.762 28.6751C253.452 28.8778 253.1 29.1765 252.706 29.5711V35.2031H251.394ZM262.592 35.3951C261.76 35.3951 261.178 35.1551 260.848 34.6751C260.528 34.1951 260.368 33.5711 260.368 32.8031V28.4991H259.216V27.5071L260.432 27.4271L260.592 25.2511H261.696V27.4271H263.792V28.4991H261.696V32.8191C261.696 33.2991 261.781 33.6725 261.952 33.9391C262.133 34.1951 262.448 34.3231 262.896 34.3231C263.034 34.3231 263.184 34.3018 263.344 34.2591C263.504 34.2058 263.648 34.1578 263.776 34.1151L264.032 35.1071C263.818 35.1818 263.584 35.2458 263.328 35.2991C263.082 35.3631 262.837 35.3951 262.592 35.3951ZM267.426 35.3951C266.871 35.3951 266.343 35.2938 265.842 35.0911C265.34 34.8778 264.903 34.6218 264.53 34.3231L265.186 33.4431C265.527 33.7098 265.879 33.9338 266.242 34.1151C266.604 34.2858 267.015 34.3711 267.474 34.3711C267.986 34.3711 268.37 34.2538 268.626 34.0191C268.882 33.7738 269.01 33.4858 269.01 33.1551C269.01 32.8885 268.919 32.6645 268.738 32.4831C268.567 32.3018 268.343 32.1525 268.066 32.0351C267.799 31.9071 267.522 31.7898 267.234 31.6831C266.871 31.5445 266.514 31.3898 266.162 31.2191C265.81 31.0378 265.522 30.8085 265.298 30.5311C265.074 30.2431 264.962 29.8805 264.962 29.4431C264.962 28.8138 265.196 28.2911 265.666 27.8751C266.146 27.4485 266.807 27.2351 267.65 27.2351C268.13 27.2351 268.578 27.3205 268.994 27.4911C269.41 27.6618 269.767 27.8698 270.066 28.1151L269.426 28.9471C269.159 28.7445 268.882 28.5791 268.594 28.4511C268.306 28.3231 267.991 28.2591 267.65 28.2591C267.159 28.2591 266.796 28.3711 266.562 28.5951C266.338 28.8191 266.226 29.0805 266.226 29.3791C266.226 29.6245 266.306 29.8271 266.466 29.9871C266.626 30.1365 266.834 30.2698 267.09 30.3871C267.346 30.4938 267.618 30.6058 267.906 30.7231C268.279 30.8618 268.647 31.0218 269.01 31.2031C269.372 31.3738 269.671 31.6085 269.906 31.9071C270.151 32.1951 270.274 32.5845 270.274 33.0751C270.274 33.4911 270.162 33.8751 269.938 34.2271C269.724 34.5791 269.404 34.8618 268.978 35.0751C268.562 35.2885 268.044 35.3951 267.426 35.3951ZM277.092 35.3951C276.441 35.3951 275.897 35.2031 275.46 34.8191C275.033 34.4245 274.82 33.8805 274.82 33.1871C274.82 32.3338 275.199 31.6831 275.956 31.2351C276.724 30.7765 277.935 30.4565 279.588 30.2751C279.588 29.9445 279.54 29.6298 279.444 29.3311C279.359 29.0325 279.199 28.7925 278.964 28.6111C278.74 28.4191 278.415 28.3231 277.988 28.3231C277.54 28.3231 277.119 28.4085 276.724 28.5791C276.329 28.7498 275.977 28.9418 275.668 29.1551L275.156 28.2431C275.519 28.0085 275.961 27.7845 276.484 27.5711C277.017 27.3471 277.593 27.2351 278.212 27.2351C279.161 27.2351 279.849 27.5285 280.276 28.1151C280.703 28.6911 280.916 29.4645 280.916 30.4351V35.2031H279.828L279.716 34.2751H279.668C279.305 34.5738 278.905 34.8351 278.468 35.0591C278.041 35.2831 277.583 35.3951 277.092 35.3951ZM277.476 34.3391C277.849 34.3391 278.201 34.2485 278.532 34.0671C278.863 33.8858 279.215 33.6298 279.588 33.2991V31.1391C278.297 31.2991 277.391 31.5391 276.868 31.8591C276.356 32.1791 276.1 32.5898 276.1 33.0911C276.1 33.5285 276.233 33.8485 276.5 34.0511C276.767 34.2431 277.092 34.3391 277.476 34.3391ZM283.363 35.2031V27.4271H284.451L284.563 28.8351H284.611C284.877 28.3445 285.203 27.9551 285.587 27.6671C285.971 27.3791 286.381 27.2351 286.819 27.2351C287.128 27.2351 287.405 27.2885 287.651 27.3951L287.395 28.5471C287.267 28.5045 287.149 28.4725 287.043 28.4511C286.936 28.4298 286.803 28.4191 286.643 28.4191C286.312 28.4191 285.965 28.5525 285.603 28.8191C285.251 29.0858 284.941 29.5498 284.675 30.2111V35.2031H283.363ZM291.905 35.3951C291.212 35.3951 290.582 35.2351 290.017 34.9151C289.452 34.5845 289.004 34.1151 288.673 33.5071C288.342 32.8991 288.177 32.1738 288.177 31.3311C288.177 30.4778 288.342 29.7471 288.673 29.1391C289.014 28.5311 289.452 28.0618 289.985 27.7311C290.518 27.4005 291.078 27.2351 291.665 27.2351C292.657 27.2351 293.42 27.5658 293.953 28.2271C294.497 28.8885 294.769 29.7738 294.769 30.8831C294.769 31.0218 294.764 31.1605 294.753 31.2991C294.753 31.4271 294.742 31.5391 294.721 31.6351H289.473C289.526 32.4565 289.782 33.1125 290.241 33.6031C290.71 34.0938 291.318 34.3391 292.065 34.3391C292.438 34.3391 292.78 34.2858 293.089 34.1791C293.409 34.0618 293.713 33.9125 294.001 33.7311L294.465 34.5951C294.134 34.8085 293.756 34.9951 293.329 35.1551C292.913 35.3151 292.438 35.3951 291.905 35.3951ZM289.457 30.6911H293.617C293.617 29.9018 293.446 29.3045 293.105 28.8991C292.774 28.4831 292.305 28.2751 291.697 28.2751C291.153 28.2751 290.662 28.4885 290.225 28.9151C289.798 29.3311 289.542 29.9231 289.457 30.6911Z" fill="#3E3E3E"/>
<path d="M185.6 55.2974V49.2014H184.544V47.4574L185.6 47.3774V46.9454C185.6 46.38 185.696 45.868 185.888 45.4094C186.08 44.9507 186.389 44.5827 186.816 44.3054C187.243 44.028 187.813 43.8894 188.528 43.8894C188.859 43.8894 189.163 43.9214 189.44 43.9854C189.717 44.0494 189.941 44.1134 190.112 44.1774L189.68 45.9054C189.541 45.852 189.403 45.8147 189.264 45.7934C189.125 45.7614 188.992 45.7454 188.864 45.7454C188.576 45.7454 188.352 45.836 188.192 46.0174C188.032 46.188 187.952 46.476 187.952 46.8814V47.3614H189.376V49.2014H187.952V55.2974H185.6ZM190.653 55.2974V47.3614H192.573L192.733 48.7534H192.797C193.085 48.22 193.432 47.8254 193.837 47.5694C194.242 47.3027 194.648 47.1694 195.053 47.1694C195.277 47.1694 195.464 47.1854 195.613 47.2174C195.762 47.2387 195.89 47.276 195.997 47.3294L195.613 49.3614C195.474 49.3187 195.336 49.2867 195.197 49.2654C195.069 49.244 194.92 49.2334 194.749 49.2334C194.45 49.2334 194.136 49.3454 193.805 49.5694C193.485 49.7827 193.218 50.156 193.005 50.6894V55.2974H190.653ZM200.28 55.4894C199.608 55.4894 198.973 55.3294 198.376 55.0094C197.789 54.6787 197.314 54.204 196.952 53.5854C196.589 52.956 196.408 52.204 196.408 51.3294C196.408 50.444 196.589 49.692 196.952 49.0734C197.314 48.4547 197.789 47.9854 198.376 47.6654C198.973 47.3347 199.608 47.1694 200.28 47.1694C200.952 47.1694 201.581 47.3347 202.168 47.6654C202.754 47.9854 203.229 48.4547 203.592 49.0734C203.954 49.692 204.136 50.444 204.136 51.3294C204.136 52.204 203.954 52.956 203.592 53.5854C203.229 54.204 202.754 54.6787 202.168 55.0094C201.581 55.3294 200.952 55.4894 200.28 55.4894ZM200.28 53.5854C200.76 53.5854 201.122 53.3827 201.368 52.9774C201.613 52.5614 201.736 52.012 201.736 51.3294C201.736 50.636 201.613 50.0867 201.368 49.6814C201.122 49.276 200.76 49.0734 200.28 49.0734C199.789 49.0734 199.421 49.276 199.176 49.6814C198.941 50.0867 198.824 50.636 198.824 51.3294C198.824 52.012 198.941 52.5614 199.176 52.9774C199.421 53.3827 199.789 53.5854 200.28 53.5854ZM205.747 55.2974V47.3614H207.667L207.827 48.3854H207.891C208.221 48.0547 208.573 47.772 208.947 47.5374C209.32 47.292 209.768 47.1694 210.291 47.1694C210.856 47.1694 211.309 47.2867 211.651 47.5214C212.003 47.7454 212.28 48.0707 212.483 48.4974C212.835 48.1347 213.208 47.8254 213.603 47.5694C213.997 47.3027 214.456 47.1694 214.979 47.1694C215.832 47.1694 216.456 47.4574 216.851 48.0334C217.256 48.5987 217.459 49.3774 217.459 50.3694V55.2974H215.107V50.6734C215.107 50.0974 215.027 49.7027 214.867 49.4894C214.717 49.276 214.472 49.1694 214.131 49.1694C213.736 49.1694 213.283 49.4254 212.771 49.9374V55.2974H210.419V50.6734C210.419 50.0974 210.339 49.7027 210.179 49.4894C210.029 49.276 209.784 49.1694 209.443 49.1694C209.048 49.1694 208.6 49.4254 208.099 49.9374V55.2974H205.747ZM222.861 55.2974V44.8654H229.389V46.8494H225.213V48.9454H228.765V50.9134H225.213V53.3134H229.549V55.2974H222.861ZM233.818 55.4894C232.954 55.4894 232.325 55.2067 231.93 54.6414C231.546 54.0654 231.354 53.2814 231.354 52.2894V47.3614H233.706V51.9854C233.706 52.5507 233.786 52.9454 233.946 53.1694C234.106 53.3827 234.357 53.4894 234.698 53.4894C234.997 53.4894 235.248 53.42 235.45 53.2814C235.653 53.1427 235.872 52.9187 236.106 52.6094V47.3614H238.458V55.2974H236.538L236.362 54.1934H236.314C235.984 54.588 235.621 54.9027 235.226 55.1374C234.832 55.372 234.362 55.4894 233.818 55.4894ZM240.528 55.2974V47.3614H242.448L242.608 48.7534H242.672C242.96 48.22 243.307 47.8254 243.712 47.5694C244.117 47.3027 244.523 47.1694 244.928 47.1694C245.152 47.1694 245.339 47.1854 245.488 47.2174C245.637 47.2387 245.765 47.276 245.872 47.3294L245.488 49.3614C245.349 49.3187 245.211 49.2867 245.072 49.2654C244.944 49.244 244.795 49.2334 244.624 49.2334C244.325 49.2334 244.011 49.3454 243.68 49.5694C243.36 49.7827 243.093 50.156 242.88 50.6894V55.2974H240.528ZM250.155 55.4894C249.483 55.4894 248.848 55.3294 248.251 55.0094C247.664 54.6787 247.189 54.204 246.827 53.5854C246.464 52.956 246.283 52.204 246.283 51.3294C246.283 50.444 246.464 49.692 246.827 49.0734C247.189 48.4547 247.664 47.9854 248.251 47.6654C248.848 47.3347 249.483 47.1694 250.155 47.1694C250.827 47.1694 251.456 47.3347 252.043 47.6654C252.629 47.9854 253.104 48.4547 253.467 49.0734C253.829 49.692 254.011 50.444 254.011 51.3294C254.011 52.204 253.829 52.956 253.467 53.5854C253.104 54.204 252.629 54.6787 252.043 55.0094C251.456 55.3294 250.827 55.4894 250.155 55.4894ZM250.155 53.5854C250.635 53.5854 250.997 53.3827 251.243 52.9774C251.488 52.5614 251.611 52.012 251.611 51.3294C251.611 50.636 251.488 50.0867 251.243 49.6814C250.997 49.276 250.635 49.0734 250.155 49.0734C249.664 49.0734 249.296 49.276 249.051 49.6814C248.816 50.0867 248.699 50.636 248.699 51.3294C248.699 52.012 248.816 52.5614 249.051 52.9774C249.296 53.3827 249.664 53.5854 250.155 53.5854ZM255.622 58.2414V47.3614H257.542L257.702 48.1454H257.766C258.075 47.868 258.422 47.6387 258.806 47.4574C259.2 47.2654 259.606 47.1694 260.022 47.1694C260.982 47.1694 261.739 47.5374 262.294 48.2734C262.848 48.9987 263.126 49.9747 263.126 51.2014C263.126 52.108 262.966 52.8814 262.646 53.5214C262.326 54.1614 261.91 54.652 261.398 54.9934C260.896 55.324 260.358 55.4894 259.782 55.4894C259.44 55.4894 259.11 55.42 258.79 55.2814C258.47 55.132 258.171 54.924 257.894 54.6574L257.974 55.9214V58.2414H255.622ZM259.238 53.5694C259.643 53.5694 259.99 53.3827 260.278 53.0094C260.566 52.636 260.71 52.044 260.71 51.2334C260.71 49.804 260.251 49.0894 259.334 49.0894C258.875 49.0894 258.422 49.3294 257.974 49.8094V53.0574C258.187 53.2494 258.4 53.3827 258.614 53.4574C258.827 53.532 259.035 53.5694 259.238 53.5694ZM268.346 55.4894C267.588 55.4894 266.906 55.324 266.298 54.9934C265.69 54.6627 265.21 54.188 264.858 53.5694C264.506 52.9507 264.33 52.204 264.33 51.3294C264.33 50.4654 264.506 49.724 264.858 49.1054C265.22 48.4867 265.69 48.012 266.266 47.6814C266.842 47.34 267.444 47.1694 268.074 47.1694C268.831 47.1694 269.455 47.34 269.946 47.6814C270.447 48.012 270.82 48.4654 271.066 49.0414C271.322 49.6067 271.45 50.252 271.45 50.9774C271.45 51.18 271.439 51.3827 271.418 51.5854C271.396 51.7774 271.375 51.9214 271.354 52.0174H266.602C266.708 52.5934 266.948 53.02 267.322 53.2974C267.695 53.564 268.143 53.6974 268.666 53.6974C269.231 53.6974 269.802 53.5214 270.378 53.1694L271.162 54.5934C270.756 54.8707 270.303 55.0894 269.802 55.2494C269.3 55.4094 268.815 55.4894 268.346 55.4894ZM266.586 50.4654H269.45C269.45 50.028 269.343 49.6707 269.13 49.3934C268.927 49.1054 268.591 48.9614 268.122 48.9614C267.759 48.9614 267.434 49.0894 267.146 49.3454C266.858 49.5907 266.671 49.964 266.586 50.4654Z" fill="#3E3E3E"/>
</svg>
