<svg width="51" height="51" viewBox="0 0 51 51" fill="none" xmlns="http://www.w3.org/2000/svg">
<g clip-path="url(#clip0_212_1233)">
<path d="M21.2111 4.78997C21.2302 4.78668 21.2492 4.78325 21.2684 4.78104C21.4385 4.76147 21.6102 4.7855 21.7448 4.89983C21.9484 5.07282 22.1157 5.36509 22.2745 5.58295L23.211 6.86972L24.468 8.59127C24.6775 8.87855 24.9111 9.16463 25.0997 9.46568C25.1677 9.57424 25.2331 9.70323 25.2402 9.83338C25.248 9.97666 25.1789 10.1228 25.0783 10.2225C24.7854 10.5125 23.9236 10.4188 23.5211 10.4143L23.5237 13.4452C23.524 13.9125 23.5685 14.4323 23.5097 14.8952C23.4931 15.0256 23.4427 15.1502 23.3474 15.243C23.0776 15.5058 21.9211 15.4112 21.5284 15.4096C21.094 15.407 20.6595 15.4157 20.2251 15.416C19.9701 15.4161 19.5919 15.4309 19.404 15.2283C19.3283 15.1466 19.2914 15.0447 19.278 14.9357C19.2191 14.457 19.2644 13.922 19.2649 13.4381L19.269 10.4169C18.8718 10.4106 18.3918 10.4725 18.0059 10.3858C17.8399 10.3485 17.6924 10.2611 17.605 10.112C17.5267 9.97846 17.5249 9.8445 17.5693 9.6991C17.5998 9.59939 17.6519 9.5139 17.7095 9.42813C18.2672 8.59846 18.8928 7.80081 19.4813 6.99162C19.9607 6.33252 20.4406 5.5942 20.9654 4.97861C21.0388 4.89256 21.111 4.84159 21.2111 4.78997ZM21.3673 6.28301C21.1306 6.65033 20.8561 6.99941 20.598 7.35228L19.1923 9.28468C19.5079 9.28152 19.9723 9.21944 20.221 9.45329C20.3226 9.54871 20.3471 9.73568 20.3605 9.86847C20.4073 10.3291 20.3704 10.8301 20.3701 11.2942L20.3683 14.2764C20.706 14.2804 21.0442 14.2889 21.3819 14.2865C21.7201 14.286 22.0619 14.2747 22.3997 14.2871C22.4199 13.2881 22.4063 12.2868 22.4056 11.2875C22.4053 10.8329 22.3706 10.3482 22.4172 9.89665C22.4308 9.76502 22.4584 9.54248 22.5543 9.44842C22.7985 9.20865 23.2833 9.27863 23.5959 9.28984L22.1388 7.29062C21.9599 7.04477 21.5889 6.45042 21.3673 6.28301Z" fill="#93C704"/>
<path d="M30.3161 4.78577C30.3688 4.78006 30.4209 4.77518 30.474 4.77447C30.6267 4.77243 30.7693 4.82959 30.8771 4.93821C31.0683 5.13093 31.2241 5.38454 31.3836 5.6041L32.2144 6.74439L33.5059 8.51691C33.7515 8.85324 34.0202 9.18757 34.2384 9.54217C34.2968 9.63704 34.3292 9.70573 34.3287 9.8199C34.3282 9.97734 34.2862 10.1187 34.1696 10.2293C33.8742 10.5094 33.0145 10.4189 32.6169 10.4122C32.6277 11.3916 32.617 12.3726 32.618 13.3522C32.6184 13.8159 32.6672 14.4931 32.597 14.9397C32.5784 15.0581 32.5272 15.1559 32.4411 15.2396C32.3768 15.3022 32.3069 15.3453 32.2204 15.37C31.8807 15.467 31.0236 15.4113 30.6349 15.4098C30.1761 15.4072 29.1521 15.476 28.7642 15.3768C28.6622 15.3507 28.5661 15.2924 28.4937 15.2164C28.4155 15.1344 28.3829 15.0413 28.3687 14.9306C28.3089 14.4672 28.3556 13.9261 28.3558 13.4527L28.3577 10.4166C27.9752 10.4161 27.4225 10.472 27.0589 10.3747C26.9147 10.3361 26.7757 10.2576 26.7044 10.1216C26.6275 9.97486 26.6228 9.82081 26.6761 9.66542C26.7804 9.36129 27.2742 8.77926 27.4808 8.49572L28.8017 6.68174L29.6066 5.57736C29.7552 5.37351 29.8977 5.15362 30.0638 4.96432C30.1376 4.88023 30.2165 4.83476 30.3161 4.78577ZM30.461 6.28378C29.9752 7.02365 29.4146 7.73173 28.8922 8.44787C28.6905 8.72435 28.4716 9.00056 28.2919 9.29199C28.6201 9.28091 29.0597 9.21722 29.3169 9.46302C29.5042 9.64195 29.4723 10.0782 29.4723 10.3192C29.4727 11.6361 29.4977 12.9597 29.4691 14.2759C29.8471 14.283 30.2251 14.2866 30.6032 14.2867C30.8991 14.2865 31.2034 14.2725 31.4983 14.2925L31.5019 11.3511C31.5012 10.8769 31.4624 10.3647 31.5105 9.89435C31.5252 9.7504 31.547 9.54893 31.6583 9.44646C31.9134 9.21182 32.3705 9.27867 32.6882 9.29059C32.4149 8.91481 30.6615 6.42026 30.461 6.28378Z" fill="#93C704"/>
<path d="M41.8528 1.0984C42.0085 1.09136 42.1444 1.11254 42.2693 1.21178C42.5703 1.45094 42.928 2.04456 43.1612 2.36876L44.1106 3.67251L46.1398 6.45617C46.4859 6.93094 46.8548 7.40061 47.1806 7.88905C47.2565 8.0028 47.318 8.10863 47.3281 8.24806C47.3396 8.40591 47.2765 8.57162 47.1668 8.68546C47.0694 8.78667 46.8914 8.82634 46.7579 8.84375C46.5172 8.87513 46.2584 8.85577 46.0159 8.85547C45.6141 8.85499 45.2122 8.86267 44.8106 8.85436L44.8112 16.7508L44.8129 19.1732C44.8133 19.5851 44.8466 20.0266 44.7989 20.4345C44.7837 20.5637 44.7345 20.6853 44.6425 20.7797C44.5501 20.8744 44.4108 20.9142 44.284 20.9357C44.0269 20.9793 43.7369 20.9543 43.4758 20.9537L42.0362 20.9498C41.533 20.9487 41.0298 20.9502 40.5267 20.9541C40.2342 20.9565 39.9137 20.9839 39.6248 20.9417C39.4986 20.9233 39.3518 20.8906 39.2577 20.7977C39.1785 20.7193 39.1194 20.6315 39.1042 20.5194C39.0501 20.118 39.0843 19.6721 39.0848 19.2666L39.0876 16.9179L39.09 8.85901C38.6352 8.8526 37.212 8.92538 36.8811 8.78116C36.7503 8.72415 36.6288 8.62792 36.579 8.48998C36.5286 8.35062 36.56 8.15827 36.6277 8.02979C36.7941 7.71357 37.0521 7.4129 37.2631 7.12372L38.5462 5.36683L40.4793 2.7137C40.8201 2.24397 41.1454 1.72386 41.528 1.28877C41.6276 1.17535 41.7098 1.14277 41.8528 1.0984ZM41.9347 2.61806C41.3139 3.42877 40.7232 4.26491 40.122 5.09034C39.477 5.9674 38.8383 6.84904 38.2059 7.73525C38.6125 7.72554 39.7453 7.62683 40.0267 7.89459C40.1217 7.985 40.167 8.10895 40.1791 8.23696C40.2215 8.68642 40.1911 9.16569 40.1909 9.61758L40.1893 12.2525C40.1881 14.7729 40.2236 17.2983 40.1855 19.818C40.8105 19.8307 41.4355 19.8347 42.0606 19.8299C42.6005 19.8296 43.1608 19.8017 43.6987 19.8371C43.6725 17.3194 43.6977 14.7985 43.6976 12.2804L43.6963 9.69385C43.6957 9.21966 43.6686 8.72716 43.711 8.25571C43.7232 8.12065 43.7643 7.98957 43.8596 7.88942C44.0967 7.64023 45.0899 7.72078 45.446 7.72831C45.5278 7.73004 45.6095 7.73248 45.6912 7.73561C45.2771 7.16707 42.0834 2.70942 41.9347 2.61806Z" fill="#93C704"/>
<path d="M9.8383 1.09668C9.99631 1.08776 10.1579 1.11817 10.28 1.22547C10.5383 1.45253 10.7495 1.8221 10.9526 2.10118L12.1408 3.73306L14.122 6.45289C14.4776 6.9394 14.8675 7.42237 15.1916 7.92945C15.266 8.04597 15.3169 8.1517 15.3173 8.29353C15.3175 8.44062 15.2498 8.58622 15.1448 8.68798C15.0669 8.76359 14.9792 8.80468 14.8732 8.82571C14.6062 8.87871 14.3109 8.85556 14.039 8.85605C13.6249 8.85967 13.2108 8.85806 12.7966 8.85122L12.7962 16.7034L12.7978 19.1291C12.7981 19.5482 12.8266 19.9889 12.7859 20.4049C12.7715 20.5526 12.7271 20.6811 12.6201 20.7882C12.5335 20.8749 12.405 20.9114 12.2875 20.9322C12.0176 20.9798 11.7189 20.9543 11.4448 20.9537L10.0048 20.9498L8.52246 20.9544C8.22968 20.9567 7.91042 20.9849 7.62185 20.9432C7.4804 20.9228 7.31128 20.8782 7.20749 20.7731C7.12543 20.69 7.08675 20.5666 7.07673 20.4529C7.03812 20.0153 7.06567 19.5536 7.06615 19.1133L7.06725 16.6826L7.06898 8.8584C6.60491 8.85156 5.23461 8.92764 4.88375 8.78856C4.74907 8.73517 4.62427 8.64269 4.56971 8.50423C4.51275 8.35964 4.53429 8.17918 4.60434 8.04267C4.79465 7.67177 5.10734 7.32129 5.35422 6.98285L6.93199 4.8182L8.63463 2.47612C8.91883 2.08486 9.19315 1.65103 9.51489 1.29009C9.61367 1.17928 9.6979 1.14137 9.8383 1.09668ZM9.92535 2.62039C9.38875 3.28464 8.90343 4.00026 8.40046 4.69093C7.65849 5.70188 6.92198 6.71678 6.19093 7.73565C6.59595 7.72471 7.35264 7.66806 7.72692 7.75733C7.85054 7.78681 7.96037 7.84092 8.05348 7.92789C8.1768 8.04306 8.17866 8.43938 8.18105 8.60238C8.2139 10.8456 8.17989 13.0943 8.18028 15.3382L8.18068 18.2603C8.18074 18.777 8.19822 19.301 8.17588 19.817C8.77729 19.8317 9.37878 19.8361 9.98034 19.8301C10.5435 19.8297 11.1255 19.8019 11.6865 19.8393C11.6688 19.007 11.6843 18.1717 11.6844 17.3392L11.6845 12.5909L11.6836 9.78846C11.6831 9.28911 11.6548 8.77017 11.6938 8.27333C11.7041 8.14287 11.7411 8.00258 11.8321 7.90372C12.003 7.71819 12.3333 7.72141 12.5673 7.72147C12.936 7.72155 13.3062 7.7216 13.6747 7.73544L10.988 4.04305C10.8078 3.79569 10.0888 2.73554 9.92535 2.62039Z" fill="#93C704"/>
<path d="M22.4693 16.6802C22.5522 16.6778 22.6352 16.6759 22.7182 16.6747C24.1746 16.6546 25.6338 16.6758 27.0904 16.6754L28.5297 16.6716C28.8244 16.6707 29.1294 16.6548 29.4222 16.6899C29.5707 16.7078 29.7003 16.744 29.8075 16.8539C29.8799 16.9281 29.9222 16.9922 29.9395 17.0949C30.0151 17.5461 29.967 18.0677 29.9666 18.5258L29.9651 21.2808C30.2115 21.3916 30.4716 21.4786 30.7225 21.5797C31.0286 21.7031 31.3287 21.8428 31.6321 21.9727C31.6627 21.9312 31.6944 21.8907 31.7295 21.8529C32.2896 21.2495 32.8991 20.6788 33.4816 20.0966C33.8026 19.7757 34.2013 19.3125 34.5571 19.0449C34.6483 18.9763 34.754 18.9476 34.8676 18.9471C35.1255 18.9459 35.2948 19.1299 35.4635 19.2979L38.7206 22.5548L39.691 23.5246C39.8701 23.7036 40.0755 23.8829 40.2302 24.0828C40.302 24.1755 40.3296 24.2893 40.3268 24.4057C40.3239 24.5265 40.2968 24.6055 40.2264 24.7033C39.9573 25.0777 39.5493 25.4157 39.2219 25.7431L37.3075 27.655C37.3712 27.8136 37.9664 29.2306 37.9985 29.2523C38.2332 29.4116 41.4687 29.2172 42.069 29.3226C42.2079 29.347 42.3504 29.3985 42.4561 29.4947C42.6075 29.6325 42.5927 29.841 42.6012 30.0318C42.6219 30.5008 42.6051 30.9768 42.6052 31.4466L42.6057 34.0895V35.8626C42.6056 36.1668 42.6266 36.4871 42.5954 36.7892C42.5797 36.9408 42.5371 37.0844 42.4287 37.1959C42.3255 37.302 42.218 37.3242 42.0739 37.3442C41.6364 37.405 41.1501 37.3649 40.7075 37.3643C39.7995 37.3578 38.8915 37.3609 37.9835 37.3734C37.7765 37.9284 37.5201 38.4604 37.3091 39.0114L39.2378 40.9326C39.5524 41.2468 39.9226 41.5621 40.1948 41.9115C40.2703 42.0083 40.3253 42.0894 40.328 42.2151C40.3339 42.4836 40.213 42.6115 40.0364 42.7934C38.9691 43.8927 37.8669 44.9627 36.7836 46.0466L35.7675 47.0632C35.5896 47.2413 35.4078 47.4556 35.2056 47.6053C35.093 47.6885 34.9784 47.727 34.8381 47.7255C34.7016 47.724 34.6113 47.6512 34.5088 47.5689C34.1479 47.2794 33.8272 46.9072 33.5 46.5788L31.6291 44.7076C31.3449 44.7866 31.0615 44.9442 30.7882 45.0605C30.5187 45.1753 30.2394 45.2671 29.9771 45.398C29.9463 45.7513 29.966 46.1217 29.9665 46.4764L29.9697 48.4644C29.9701 48.7825 29.9898 49.1156 29.957 49.432C29.9454 49.5437 29.9235 49.6579 29.859 49.7521C29.7612 49.8951 29.6171 49.9551 29.4523 49.9843C28.9758 50.0135 28.491 49.9957 28.0134 49.9958L25.4889 49.9966L23.5573 49.9968C23.1832 49.9968 22.7947 50.0178 22.4229 49.9791C22.2901 49.9652 22.188 49.9323 22.088 49.8398C22.0135 49.771 21.9539 49.6838 21.9368 49.5826C21.865 49.156 21.9122 48.6568 21.9127 48.2236C21.917 47.2775 21.9159 46.3314 21.9093 45.3853C21.3541 45.1721 20.8078 44.9528 20.2698 44.6981C19.6046 45.3407 18.9585 46.0053 18.3049 46.6599C18.0009 46.9643 17.6989 47.3161 17.3606 47.5806C17.2587 47.6602 17.167 47.7257 17.0335 47.7267C16.7846 47.7287 16.6696 47.6084 16.5005 47.4448C15.405 46.3852 14.3404 45.288 13.2621 44.2105L12.2013 43.1491C12.0073 42.9546 11.7846 42.7593 11.6183 42.5411C11.5604 42.4651 11.5507 42.3564 11.551 42.2643C11.5514 42.1173 11.6094 42.0264 11.6953 41.9097C11.942 41.5738 12.3102 41.2671 12.6059 40.9718L14.5758 39.0023C14.3191 38.4719 14.0958 37.9276 13.9061 37.3696C13.0042 37.3614 12.1022 37.3597 11.2003 37.3646C10.7568 37.366 10.2793 37.4028 9.83896 37.3523C9.70689 37.3371 9.56683 37.317 9.46644 37.2227C9.30118 37.0677 9.29745 36.8831 9.28849 36.6701C9.26939 36.2165 9.29054 35.756 9.29081 35.3017L9.29046 32.5676L9.28675 30.8496C9.2851 30.5423 9.26554 30.2236 9.2902 29.9177C9.3023 29.7675 9.3317 29.5914 9.44116 29.4793C9.46042 29.4597 9.48107 29.4417 9.50313 29.4253C9.52518 29.4089 9.54836 29.3943 9.57267 29.3815C9.59698 29.3687 9.62213 29.3578 9.64812 29.3489C9.67411 29.3401 9.70064 29.3332 9.72769 29.3284C10.1451 29.256 10.6384 29.3064 11.0645 29.3068L13.8891 29.3102C14.0011 29.0128 14.1124 28.7136 14.239 28.4222C14.3505 28.1658 14.4825 27.9113 14.5696 27.6455C13.9756 27.0727 13.3992 26.4797 12.8146 25.8972C12.4533 25.5372 12.0569 25.1855 11.727 24.7984C11.6576 24.7169 11.557 24.6041 11.5492 24.4938C11.5376 24.3313 11.5853 24.1726 11.6871 24.0468C11.9311 23.7449 12.2386 23.4731 12.5136 23.1983L14.0681 21.647L15.7145 19.999C16.0187 19.6934 16.3175 19.3609 16.6461 19.0819C16.7416 19.0008 16.8271 18.9587 16.9537 18.9481C17.1051 18.9355 17.1949 18.9737 17.3198 19.0584C17.6125 19.2566 17.8688 19.5654 18.119 19.8162L19.4815 21.1833C19.7347 21.4373 19.9832 21.7112 20.257 21.9424L20.281 21.9623C20.8254 21.7381 21.3512 21.4994 21.9051 21.2943C21.9331 20.9299 21.9161 20.5536 21.9157 20.1882L21.914 18.234C21.9138 17.8793 21.8833 17.4936 21.9369 17.1431C21.9518 17.0451 21.978 16.9729 22.0362 16.8926C22.1463 16.7404 22.2923 16.7074 22.4693 16.6802ZM23.0345 17.8074C23.0256 18.7018 23.0241 19.5962 23.0299 20.4906C23.0303 20.906 23.0705 21.356 23.0115 21.7655C22.9937 21.8892 22.947 22.0038 22.8546 22.0902C22.6181 22.3111 21.9641 22.4635 21.6352 22.591C21.4424 22.6657 21.247 22.7394 21.0621 22.832C20.8549 22.9357 20.6497 23.0636 20.434 23.1475C20.3367 23.1852 20.2302 23.2137 20.125 23.2097C20.0125 23.2055 19.9373 23.1656 19.8473 23.1C19.5625 22.8922 19.3133 22.5998 19.0637 22.3494L17.7884 21.069C17.5276 20.8076 17.2709 20.5331 16.9909 20.292C16.64 20.6713 16.2632 21.0299 15.8973 21.3947L14.017 23.2726C13.6441 23.6455 13.2172 24.0165 12.8832 24.4234C13.3461 24.7861 13.8001 25.3068 14.2212 25.7268C14.6772 26.1816 15.1885 26.6309 15.6037 27.122C15.6829 27.2156 15.7937 27.3562 15.8138 27.4788C15.8311 27.5845 15.7814 27.7226 15.744 27.8211C15.5723 28.2723 15.312 28.6916 15.1377 29.1457C15.0095 29.4794 14.944 29.9383 14.7192 30.2179C14.5975 30.3692 14.462 30.407 14.2749 30.422C13.674 30.4697 13.0408 30.4305 12.4368 30.4304C11.762 30.4302 11.0704 30.4635 10.3974 30.4337C10.3756 31.6383 10.3909 32.8453 10.391 34.0502C10.391 34.7722 10.3542 35.5143 10.3939 36.2343C11.2932 36.2433 12.1925 36.2455 13.0919 36.2407C13.5088 36.2405 13.9865 36.1961 14.3969 36.2641C14.5041 36.2817 14.611 36.3332 14.6871 36.4112C14.8685 36.5976 15.1972 37.6685 15.3372 37.9994C15.4564 38.2813 15.6357 38.5439 15.7411 38.8297C15.7777 38.9289 15.8067 39.035 15.8029 39.1417C15.7994 39.24 15.7689 39.3182 15.7141 39.3994C15.5241 39.6815 15.2365 39.9235 14.9954 40.1633L13.6061 41.5482C13.3665 41.7875 13.0928 42.0261 12.8836 42.2913C13.2405 42.562 13.5581 42.9333 13.876 43.2515L15.9528 45.3302C16.2968 45.6745 16.6386 46.0679 17.0142 46.3752C17.6351 45.7414 18.26 45.1115 18.8889 44.4856C19.1889 44.1852 19.4906 43.8235 19.8304 43.5703C19.8524 43.5539 19.8755 43.5394 19.8997 43.5268C19.924 43.5141 19.949 43.5034 19.975 43.4947C20.0009 43.4861 20.0274 43.4796 20.0545 43.4753C20.0815 43.4709 20.1087 43.4686 20.136 43.4686C20.475 43.4677 20.8542 43.7382 21.1582 43.8843C21.6293 44.1107 22.1406 44.2247 22.6134 44.4342C22.7155 44.4794 22.8166 44.5377 22.8919 44.6215C22.9652 44.7031 22.9973 44.7984 23.0122 44.9058C23.0771 45.3764 23.03 46.0273 23.0297 46.5132C23.0291 47.2908 23.063 48.0867 23.0233 48.8628C24.9642 48.8987 26.9066 48.8517 28.8477 48.876L28.8486 46.2671C28.8479 45.8162 28.8005 45.3035 28.8752 44.8593C28.8921 44.7583 28.9334 44.6623 29.0055 44.5883C29.2104 44.378 30.1869 44.1145 30.5396 43.9631C30.8363 43.8356 31.1117 43.6519 31.4116 43.535C31.5088 43.4971 31.6146 43.4684 31.7196 43.4687C31.8358 43.469 31.9311 43.5053 32.0255 43.5713C32.3225 43.779 32.5826 44.0873 32.8379 44.3443L34.1593 45.6684C34.3963 45.9046 34.6281 46.1579 34.8832 46.3739C35.516 45.708 36.178 45.0665 36.8278 44.4171C37.5435 43.7018 38.2521 42.9767 38.9777 42.2717C38.3379 41.5771 37.6429 40.9214 36.9736 40.2548C36.7044 39.9867 36.3546 39.7022 36.1401 39.3912C36.0872 39.3146 36.0664 39.2236 36.0693 39.1312C36.0808 38.7643 36.3837 38.3516 36.532 38.0223C36.7317 37.5783 36.8419 37.0971 37.0371 36.656C37.0818 36.5549 37.1404 36.45 37.2243 36.3761C37.2962 36.3128 37.3852 36.2741 37.4796 36.2605C37.9609 36.191 38.645 36.2413 39.1481 36.2417C39.9208 36.2424 40.7118 36.2061 41.4823 36.2492L41.4848 30.4335L38.8001 30.4309C38.3683 30.4311 37.8824 30.4797 37.4587 30.4055C37.3527 30.3869 37.2725 30.3504 37.1967 30.2732C36.9266 29.9979 36.8398 29.3741 36.6837 29.0107C36.5129 28.6133 36.2748 28.2269 36.126 27.8257C36.0909 27.7309 36.0713 27.639 36.0748 27.5375C36.078 27.4405 36.1009 27.3401 36.1561 27.259C36.3974 26.9043 36.9742 26.4017 37.2933 26.0829C37.8433 25.5336 38.3812 24.9475 38.9585 24.4295L38.9779 24.4123C38.7527 24.1499 38.4973 23.9101 38.2525 23.6659L37.086 22.5021C36.3686 21.7842 35.6114 20.9603 34.8599 20.2916C34.2752 20.8992 33.669 21.4881 33.0724 22.0842C32.7385 22.4179 32.4027 22.8148 32.027 23.0993C31.941 23.1644 31.8613 23.2 31.7527 23.2042C31.6494 23.2082 31.5481 23.1835 31.4519 23.1475C31.0184 22.9846 30.6243 22.7152 30.1843 22.5567C29.8444 22.4343 29.2213 22.3065 28.9768 22.0555C28.9002 21.9768 28.8814 21.8998 28.8656 21.794C28.805 21.3894 28.846 20.9313 28.8469 20.5202C28.8493 19.6172 28.8637 18.711 28.846 17.8083C27.582 17.854 26.3047 17.8119 25.0391 17.8123L23.8207 17.8159C23.5628 17.8184 23.2898 17.8411 23.0345 17.8074Z" fill="#93C704"/>
<path d="M25.3764 24.3448C27.7074 24.246 29.9038 24.9322 31.7064 26.4288C31.7624 26.4755 31.8179 26.5229 31.8727 26.571C31.9276 26.6191 31.9819 26.6678 32.0356 26.7171C32.0892 26.7665 32.1423 26.8166 32.1948 26.8672C32.2472 26.9179 32.2991 26.9692 32.3503 27.0211C32.4016 27.0731 32.4521 27.1256 32.5021 27.1787C32.552 27.2319 32.6013 27.2857 32.6499 27.3401C32.6986 27.3944 32.7465 27.4494 32.7938 27.5049C32.841 27.5604 32.8877 27.6166 32.9336 27.6733C32.9795 27.7299 33.0247 27.7871 33.0693 27.8449C33.1138 27.9027 33.1576 27.961 33.2007 28.0199C33.2438 28.0786 33.2862 28.138 33.3279 28.1979C33.3695 28.2578 33.4105 28.3182 33.4507 28.379C33.4909 28.4399 33.5303 28.5012 33.569 28.563C33.6077 28.6249 33.6457 28.6872 33.6828 28.7499C33.72 28.8127 33.7564 28.8759 33.792 28.9395C33.8277 29.0032 33.8626 29.0673 33.8966 29.1318C33.9307 29.1962 33.964 29.2611 33.9965 29.3264C34.029 29.3917 34.0607 29.4574 34.0916 29.5235C34.1225 29.5896 34.1526 29.656 34.1819 29.7228C34.2112 29.7896 34.2396 29.8567 34.2673 29.9243C34.2949 29.9918 34.3217 30.0596 34.3477 30.1278C34.3737 30.1959 34.3989 30.2643 34.4232 30.3331C34.4475 30.4019 34.471 30.4709 34.4937 30.5403C34.5163 30.6096 34.5381 30.6792 34.559 30.7491C34.58 30.8189 34.6001 30.889 34.6194 30.9594C34.6386 31.0298 34.6569 31.1004 34.6744 31.1711C34.692 31.242 34.7086 31.313 34.7244 31.3842C34.7402 31.4554 34.7551 31.5268 34.7692 31.5984C34.7832 31.6699 34.7964 31.7417 34.8087 31.8136C34.821 31.8855 34.8325 31.9575 34.843 32.0297C34.8535 32.1019 34.8632 32.1742 34.872 32.2466C34.8808 32.319 34.8887 32.3915 34.8957 32.4641C34.903 32.5382 34.9093 32.6125 34.9147 32.6868C34.9201 32.7611 34.9246 32.8355 34.9282 32.9099C34.9317 32.9843 34.9343 33.0588 34.936 33.1333C34.9377 33.2078 34.9384 33.2823 34.9383 33.3568C34.9381 33.4313 34.937 33.5058 34.935 33.5803C34.933 33.6548 34.93 33.7292 34.9261 33.8036C34.9223 33.8781 34.9175 33.9524 34.9118 34.0267C34.906 34.101 34.8993 34.1752 34.8917 34.2493C34.8842 34.3234 34.8757 34.3975 34.8662 34.4714C34.8568 34.5453 34.8464 34.6191 34.8352 34.6927C34.8239 34.7664 34.8117 34.8399 34.7987 34.9132C34.7856 34.9866 34.7715 35.0598 34.7566 35.1327C34.7417 35.2057 34.7258 35.2785 34.7091 35.3512C34.6924 35.4238 34.6747 35.4962 34.6562 35.5684C34.6377 35.6405 34.6183 35.7124 34.5979 35.7841C34.5776 35.8558 34.5563 35.9272 34.5342 35.9984C34.5121 36.0695 34.4892 36.1404 34.4653 36.211C34.4414 36.2815 34.4166 36.3518 34.3909 36.4218C34.3654 36.4918 34.3389 36.5614 34.3115 36.6307C34.2841 36.7 34.2559 36.769 34.2268 36.8375C34.1977 36.9062 34.1677 36.9744 34.1369 37.0422C34.1061 37.1101 34.0745 37.1775 34.0421 37.2447C34.0096 37.3117 33.9763 37.3784 33.9422 37.4446C33.9081 37.5108 33.8731 37.5766 33.8373 37.6419C33.8016 37.7073 33.765 37.7722 33.7277 37.8367C33.6902 37.9011 33.652 37.9651 33.613 38.0286C33.5741 38.0921 33.5343 38.1551 33.4938 38.2176C33.4532 38.2802 33.4119 38.3422 33.3698 38.4036C33.3277 38.4651 33.2849 38.526 33.2412 38.5865C33.1976 38.6469 33.1533 38.7067 33.1081 38.766C33.063 38.8254 33.0172 38.8841 32.9706 38.9422C32.924 39.0004 32.8767 39.058 32.8287 39.115C31.2428 41.0123 29.0077 42.1059 26.5603 42.3265C24.2189 42.4176 22.0772 41.8029 20.2508 40.3071C20.1934 40.2603 20.1366 40.2129 20.0803 40.1647C20.0241 40.1165 19.9684 40.0676 19.9134 40.0181C19.8583 39.9686 19.8039 39.9184 19.7501 39.8675C19.6964 39.8166 19.6432 39.765 19.5907 39.7128C19.5381 39.6606 19.4863 39.6078 19.4351 39.5543C19.3839 39.5008 19.3333 39.4467 19.2834 39.392C19.2336 39.3373 19.1844 39.2819 19.1359 39.226C19.0873 39.17 19.0395 39.1135 18.9924 39.0564C18.9453 38.9992 18.8989 38.9415 18.8532 38.8832C18.8075 38.825 18.7626 38.7661 18.7183 38.7068C18.6741 38.6474 18.6306 38.5875 18.5878 38.527C18.5451 38.4665 18.5031 38.4055 18.4618 38.3441C18.4206 38.2826 18.3801 38.2205 18.3404 38.158C18.3006 38.0955 18.2617 38.0326 18.2236 37.9691C18.1854 37.9057 18.148 37.8418 18.1115 37.7774C18.0749 37.713 18.0391 37.6481 18.0041 37.5828C17.9692 37.5175 17.935 37.4519 17.9016 37.3858C17.8683 37.3196 17.8357 37.2531 17.804 37.1863C17.7723 37.1193 17.7415 37.052 17.7115 36.9843C17.6814 36.9167 17.6521 36.8486 17.6238 36.7802C17.5954 36.7118 17.5679 36.643 17.5412 36.574C17.5146 36.5049 17.4888 36.4355 17.4638 36.3658C17.4389 36.296 17.4148 36.226 17.3916 36.1557C17.3684 36.0854 17.346 36.0148 17.3245 35.9439C17.3031 35.873 17.2825 35.802 17.2627 35.7306C17.2431 35.6592 17.2242 35.5876 17.2063 35.5158C17.1883 35.4439 17.1713 35.3718 17.1551 35.2995C17.139 35.2273 17.1237 35.1549 17.1093 35.0823C17.0949 35.0096 17.0814 34.9368 17.0689 34.8638C17.0563 34.7908 17.0446 34.7177 17.0338 34.6445C17.0231 34.5712 17.0132 34.4978 17.0042 34.4243C16.9953 34.3507 16.9873 34.2771 16.9801 34.2035C16.973 34.1298 16.9668 34.056 16.9616 33.9822C16.9563 33.9083 16.9519 33.8344 16.9484 33.7605C16.9449 33.6865 16.9424 33.6125 16.9408 33.5385C16.9391 33.4645 16.9383 33.3906 16.9385 33.3165C16.9387 33.2425 16.9398 33.1685 16.9418 33.0945C16.9438 33.0204 16.9467 32.9465 16.9505 32.8726C16.9544 32.7986 16.9591 32.7247 16.9647 32.6509C16.9703 32.5771 16.9769 32.5034 16.9844 32.4297C16.9918 32.3561 17.0002 32.2826 17.0094 32.2091C17.0187 32.1357 17.0289 32.0624 17.04 31.9892C17.051 31.9159 17.063 31.8429 17.0759 31.7701C17.0887 31.6971 17.1025 31.6244 17.1171 31.5518C17.1318 31.4793 17.1474 31.4069 17.1638 31.3347C17.1803 31.2625 17.1976 31.1905 17.2159 31.1188C17.234 31.047 17.2531 30.9755 17.2731 30.9042C17.2931 30.8329 17.3139 30.7619 17.3357 30.6911C17.3574 30.6204 17.3799 30.5499 17.4034 30.4797C17.4269 30.4095 17.4512 30.3396 17.4764 30.27C17.5016 30.2004 17.5276 30.1311 17.5545 30.0621C17.5814 29.9931 17.6091 29.9245 17.6377 29.8562C17.6663 29.7879 17.6957 29.72 17.7259 29.6525C17.7562 29.5849 17.7873 29.5177 17.8192 29.4509C17.8511 29.3841 17.8838 29.3177 17.9173 29.2517C17.9508 29.1857 17.9852 29.1201 18.0203 29.055C18.0555 28.9898 18.0915 28.9251 18.1283 28.8609C18.165 28.7966 18.2025 28.7328 18.2409 28.6695C18.2791 28.6061 18.3182 28.5433 18.358 28.4809C18.3979 28.4185 18.4386 28.3566 18.48 28.2952C18.5214 28.2339 18.5635 28.173 18.6064 28.1127C18.6493 28.0524 18.6929 27.9925 18.7372 27.9332C18.7816 27.874 18.8267 27.8153 18.8725 27.7572C18.9183 27.699 18.9648 27.6414 19.012 27.5844C20.6668 25.5823 22.8222 24.5911 25.3764 24.3448ZM25.4643 25.4684C23.1909 25.6909 21.3119 26.5394 19.8425 28.3297C19.8012 28.38 19.7604 28.4309 19.7203 28.4823C19.6803 28.5336 19.6409 28.5854 19.6021 28.6377C19.5633 28.6901 19.5251 28.7429 19.4876 28.7961C19.4501 28.8494 19.4133 28.9031 19.3772 28.9574C19.341 29.0115 19.3055 29.0661 19.2707 29.1211C19.2359 29.1762 19.2018 29.2317 19.1683 29.2876C19.1349 29.3436 19.1022 29.3999 19.0701 29.4566C19.0381 29.5133 19.0068 29.5704 18.9762 29.6279C18.9456 29.6854 18.9157 29.7432 18.8865 29.8015C18.8573 29.8597 18.8288 29.9183 18.8011 29.9773C18.7734 30.0362 18.7464 30.0955 18.7201 30.1551C18.6939 30.2147 18.6684 30.2747 18.6436 30.3349C18.6188 30.3951 18.5948 30.4557 18.5715 30.5165C18.5483 30.5773 18.5258 30.6384 18.504 30.6998C18.4822 30.7612 18.4612 30.8229 18.441 30.8849C18.4208 30.9468 18.4013 31.009 18.3826 31.0713C18.364 31.1338 18.3461 31.1964 18.3289 31.2592C18.3118 31.322 18.2955 31.3851 18.2799 31.4484C18.2644 31.5116 18.2496 31.575 18.2356 31.6386C18.2216 31.7023 18.2084 31.7661 18.1959 31.83C18.1835 31.8939 18.1719 31.958 18.1611 32.0223C18.1503 32.0865 18.1402 32.1508 18.131 32.2154C18.1217 32.2798 18.1133 32.3444 18.1057 32.4091C18.0981 32.4738 18.0912 32.5385 18.0852 32.6035C18.0792 32.6683 18.074 32.7332 18.0696 32.7982C18.0651 32.8632 18.0615 32.9282 18.0587 32.9933C18.0559 33.0584 18.0539 33.1235 18.0528 33.1886C18.0516 33.2537 18.0512 33.3188 18.0517 33.384C18.0521 33.4492 18.0533 33.5143 18.0554 33.5794C18.0574 33.6445 18.0603 33.7096 18.0639 33.7746C18.0675 33.8396 18.072 33.9046 18.0773 33.9696C18.0826 34.0345 18.0886 34.0993 18.0955 34.1641C18.1091 34.292 18.1258 34.4194 18.1456 34.5464C18.1655 34.6735 18.1884 34.8 18.2144 34.9259C18.2404 35.0518 18.2695 35.177 18.3016 35.3015C18.3338 35.426 18.3689 35.5497 18.4071 35.6724C18.4453 35.7952 18.4865 35.917 18.5306 36.0377C18.5747 36.1585 18.6218 36.2781 18.6718 36.3966C18.7218 36.515 18.7747 36.6322 18.8304 36.7481C18.8861 36.864 18.9447 36.9784 19.006 37.0914C19.0673 37.2045 19.1314 37.3159 19.1982 37.4257C19.265 37.5356 19.3344 37.6438 19.4065 37.7503C19.4785 37.8568 19.5532 37.9614 19.6303 38.0642C19.7075 38.1671 19.7872 38.2679 19.8694 38.3668C19.9515 38.4658 20.036 38.5627 20.1229 38.6575C20.2097 38.7522 20.2989 38.8449 20.3903 38.9353C20.4817 39.0257 20.5752 39.1139 20.6709 39.1997C20.7666 39.2856 20.8644 39.3691 20.9642 39.4501C22.5278 40.7243 24.4159 41.2852 26.417 41.2063C28.6013 41.0205 30.5285 40.1035 31.9538 38.4238C31.9955 38.3748 32.0366 38.3253 32.0771 38.2753C32.1176 38.2253 32.1574 38.1749 32.1966 38.124C32.2359 38.073 32.2745 38.0215 32.3124 37.9697C32.3505 37.9177 32.3878 37.8653 32.4244 37.8125C32.4611 37.7597 32.4971 37.7065 32.5326 37.6528C32.5679 37.599 32.6026 37.5448 32.6367 37.4903C32.6707 37.4357 32.7041 37.3807 32.7368 37.3253C32.7694 37.27 32.8014 37.2142 32.8327 37.158C32.8641 37.1019 32.8947 37.0453 32.9246 36.9884C32.9546 36.9314 32.9838 36.8742 33.0123 36.8165C33.0409 36.7589 33.0687 36.7008 33.0957 36.6425C33.1228 36.5842 33.1492 36.5256 33.1748 36.4666C33.2005 36.4076 33.2254 36.3483 33.2495 36.2887C33.2738 36.2291 33.2972 36.1693 33.32 36.1091C33.3427 36.049 33.3646 35.9885 33.3859 35.9278C33.4071 35.8671 33.4276 35.8062 33.4473 35.745C33.467 35.6837 33.486 35.6222 33.5042 35.5606C33.5225 35.4989 33.5399 35.437 33.5567 35.3749C33.5733 35.3128 33.5893 35.2505 33.6044 35.188C33.6196 35.1255 33.634 35.0628 33.6477 34.9999C33.6613 34.9371 33.6742 34.8741 33.6863 34.811C33.6983 34.7478 33.7096 34.6844 33.7201 34.621C33.7306 34.5576 33.7404 34.494 33.7493 34.4303C33.7583 34.3666 33.7664 34.3028 33.7739 34.2389C33.7813 34.175 33.7879 34.1111 33.7937 34.047C33.7995 33.9829 33.8045 33.9188 33.8087 33.8547C33.813 33.7905 33.8164 33.7263 33.8191 33.662C33.8217 33.5978 33.8236 33.5335 33.8247 33.4692C33.8258 33.4049 33.8261 33.3406 33.8256 33.2763C33.8251 33.212 33.8238 33.1477 33.8217 33.0833C33.8196 33.0191 33.8168 32.9548 33.8131 32.8907C33.8094 32.8265 33.8049 32.7623 33.7997 32.6982C33.7945 32.6335 33.7884 32.5689 33.7816 32.5044C33.7747 32.44 33.7671 32.3756 33.7586 32.3113C33.7502 32.2469 33.7409 32.1827 33.7309 32.1187C33.7209 32.0546 33.7101 31.9907 33.6985 31.9269C33.6869 31.8631 33.6745 31.7994 33.6613 31.7359C33.6481 31.6724 33.6341 31.6091 33.6194 31.5459C33.6047 31.4827 33.5892 31.4197 33.5729 31.357C33.5565 31.2942 33.5395 31.2316 33.5216 31.1693C33.5038 31.1069 33.4852 31.0448 33.4659 30.9828C33.4465 30.921 33.4263 30.8594 33.4054 30.798C33.3845 30.7366 33.3629 30.6755 33.3405 30.6146C33.3181 30.5537 33.2949 30.4931 33.271 30.4328C33.2471 30.3725 33.2224 30.3125 33.1971 30.2529C33.1717 30.1932 33.1456 30.1338 33.1187 30.0747C33.0919 30.0157 33.0643 29.957 33.036 29.8987C33.0077 29.8403 32.9787 29.7823 32.949 29.7246C32.9192 29.667 32.8888 29.6098 32.8576 29.5529C32.8265 29.496 32.7947 29.4395 32.7621 29.3833C32.7296 29.3272 32.6964 29.2715 32.6624 29.2162C32.6285 29.161 32.5939 29.1061 32.5586 29.0517C32.5234 28.9973 32.4875 28.9433 32.4509 28.8897C32.4143 28.8362 32.377 28.7831 32.3391 28.7305C32.3012 28.6778 32.2627 28.6257 32.2235 28.5741C32.1843 28.5224 32.1444 28.4712 32.1039 28.4204C32.0635 28.3698 32.0224 28.3196 31.9807 28.27C31.939 28.2203 31.8967 28.1711 31.8537 28.1225C31.8108 28.0739 31.7673 28.0257 31.7233 27.9782C31.6791 27.9306 31.6344 27.8836 31.5892 27.8371C31.5439 27.7907 31.4981 27.7449 31.4517 27.6995C31.4053 27.6542 31.3584 27.6094 31.3109 27.5653C31.2633 27.5211 31.2153 27.4776 31.1667 27.4346C31.1182 27.3916 31.0691 27.3492 31.0195 27.3075C30.924 27.2268 30.8267 27.1484 30.7276 27.0724C30.6284 26.9964 30.5275 26.9228 30.4248 26.8516C30.3222 26.7804 30.2178 26.7117 30.1118 26.6454C30.0059 26.5792 29.8984 26.5156 29.7894 26.4545C29.6804 26.3935 29.57 26.335 29.4582 26.2791C29.3464 26.2233 29.2333 26.1702 29.119 26.1199C29.0047 26.0695 28.8892 26.0218 28.7726 25.9769C28.656 25.932 28.5384 25.89 28.4198 25.8507C28.3011 25.8114 28.1816 25.775 28.0613 25.7414C27.9409 25.7078 27.8198 25.6772 27.698 25.6494C27.5762 25.6216 27.4537 25.5968 27.3307 25.5748C27.2077 25.553 27.0842 25.534 26.9603 25.5179C26.8364 25.5019 26.7122 25.4888 26.5876 25.4787C26.4631 25.4687 26.3384 25.4616 26.2135 25.4575C26.0886 25.4533 25.9637 25.4521 25.8388 25.4539C25.7139 25.4558 25.589 25.4606 25.4643 25.4684Z" fill="#93C704"/>
<path d="M24.7541 30.9568C24.8687 30.9482 24.9883 30.9521 25.0958 30.9968C25.1706 31.028 25.2452 31.0803 25.2955 31.1445C25.4562 31.3494 25.5802 31.5965 25.7102 31.8221L26.3422 32.9168L27.0917 34.2111C27.2362 34.4612 27.4085 34.719 27.5138 34.9881C27.5672 35.1244 27.5555 35.2753 27.4913 35.4071C27.4129 35.5677 27.2771 35.6539 27.1148 35.7133C27.0089 35.7174 26.9008 35.7226 26.7993 35.6863C26.7011 35.6511 26.6179 35.5842 26.5566 35.5005C26.4117 35.3025 26.295 35.0728 26.1725 34.8599L25.5241 33.7325L24.7904 32.4658C24.6498 32.2224 24.4911 31.9777 24.3761 31.7215C24.3179 31.592 24.3248 31.4001 24.3802 31.27C24.4541 31.0959 24.5864 31.0241 24.7541 30.9568Z" fill="#93C704"/>
<path d="M22.7336 30.956C22.8064 30.9524 22.8763 30.9515 22.9486 30.9635C23.1177 30.9918 23.2526 31.1059 23.3436 31.2479C23.412 31.3543 23.4336 31.4762 23.4005 31.5988C23.3599 31.749 23.2501 31.8728 23.1343 31.9715C22.9006 32.1708 22.6027 32.33 22.3452 32.4993C21.9254 32.7753 21.5105 33.0728 21.0744 33.3217C21.61 33.7206 22.1942 34.0574 22.7458 34.4343C22.8964 34.5372 23.0709 34.6285 23.2056 34.7515C23.2431 34.7856 23.2763 34.8235 23.3052 34.8652C23.334 34.9068 23.3578 34.9512 23.3765 34.9983C23.4238 35.1202 23.4231 35.254 23.3686 35.3734C23.3026 35.5178 23.177 35.6265 23.0281 35.6794C22.844 35.7448 22.7039 35.7054 22.5318 35.6274L20.6385 34.3836C20.3357 34.1845 19.9765 33.9917 19.7063 33.752C19.6243 33.679 19.5618 33.6066 19.5266 33.5007C19.4852 33.3763 19.4889 33.2456 19.5476 33.1277C19.611 33.0004 19.7086 32.9027 19.819 32.8154C20.0473 32.635 20.3189 32.4946 20.5624 32.334C20.9989 32.0461 22.338 31.0883 22.7336 30.956Z" fill="#93C704"/>
<path d="M28.8796 30.9604C28.944 30.9548 29.0086 30.9516 29.073 30.9587C29.1744 30.9699 29.2747 31.0147 29.3632 31.0634C29.6984 31.2473 32.1305 32.8324 32.2596 33.0025C32.3543 33.1271 32.3895 33.3031 32.3608 33.4558C32.3363 33.5865 32.2199 33.7019 32.123 33.785C31.8438 34.0249 31.4951 34.2169 31.1867 34.4181L29.4686 35.5438C29.2278 35.6987 29.0875 35.7306 28.803 35.6946C28.717 35.6289 28.6292 35.5639 28.5659 35.4746C28.4865 35.3628 28.4444 35.2365 28.4698 35.0992C28.4926 34.975 28.5534 34.8747 28.6405 34.785C28.8465 34.5725 29.1418 34.415 29.3892 34.2538C29.856 33.9498 30.332 33.6541 30.7878 33.3337C30.3599 32.996 28.6535 32.0628 28.5018 31.6965C28.4499 31.571 28.4575 31.4323 28.5091 31.3079C28.5846 31.1262 28.7037 31.0351 28.8796 30.9604Z" fill="#93C704"/>
</g>
<defs>
<clipPath id="clip0_212_1233">
<rect width="50" height="50" fill="white" transform="translate(0.910645 0.458496)"/>
</clipPath>
</defs>
</svg>
