<svg width="51" height="51" viewBox="0 0 51 51" fill="none" xmlns="http://www.w3.org/2000/svg">
<path d="M41.5356 21.9404H38.4106V25.0654H41.5356C42.7784 25.0668 43.9699 25.5611 44.8487 26.4399C45.7275 27.3187 46.2218 28.5101 46.2231 29.7529V36.0029H49.3481V29.7529C49.3457 27.6817 48.5219 25.6959 47.0573 24.2313C45.5927 22.7667 43.6069 21.9428 41.5356 21.9404Z" fill="#93C704"/>
<path d="M38.4106 6.31543C39.3377 6.31543 40.244 6.59035 41.0149 7.10542C41.7857 7.62048 42.3865 8.35257 42.7413 9.2091C43.0961 10.0656 43.1889 11.0081 43.0081 11.9174C42.8272 12.8267 42.3808 13.6619 41.7252 14.3175C41.0697 14.9731 40.2344 15.4195 39.3251 15.6004C38.4158 15.7812 37.4733 15.6884 36.6168 15.3336C35.7603 14.9788 35.0282 14.378 34.5131 13.6072C33.9981 12.8363 33.7231 11.93 33.7231 11.0029C33.7231 9.75973 34.217 8.56744 35.0961 7.68837C35.9752 6.80929 37.1674 6.31543 38.4106 6.31543ZM38.4106 3.19043C36.8655 3.19043 35.355 3.64862 34.0703 4.50707C32.7855 5.36552 31.7841 6.58567 31.1928 8.01321C30.6015 9.44076 30.4468 11.0116 30.7483 12.5271C31.0497 14.0425 31.7938 15.4346 32.8864 16.5272C33.979 17.6198 35.371 18.3639 36.8865 18.6653C38.402 18.9668 39.9728 18.812 41.4004 18.2207C42.8279 17.6294 44.0481 16.6281 44.9065 15.3433C45.765 14.0586 46.2231 12.5481 46.2231 11.0029C46.2231 8.93093 45.4 6.94379 43.9349 5.47866C42.4698 4.01353 40.4827 3.19043 38.4106 3.19043Z" fill="#93C704"/>
<path d="M36.8481 46.9404H33.7231V43.8154C33.7218 42.5726 33.2275 41.3812 32.3487 40.5024C31.4699 39.6236 30.2784 39.1293 29.0356 39.1279H22.7856C21.5429 39.1293 20.3514 39.6236 19.4726 40.5024C18.5938 41.3812 18.0995 42.5726 18.0981 43.8154V46.9404H14.9731V43.8154C14.9756 41.7442 15.7995 39.7585 17.2641 38.2939C18.7287 36.8293 20.7144 36.0054 22.7856 36.0029H29.0356C31.1069 36.0054 33.0926 36.8293 34.5572 38.2939C36.0218 39.7585 36.8457 41.7442 36.8481 43.8154V46.9404Z" fill="#93C704"/>
<path d="M25.9106 20.3779C26.8377 20.3779 27.744 20.6528 28.5149 21.1679C29.2857 21.683 29.8865 22.4151 30.2413 23.2716C30.5961 24.1281 30.6889 25.0706 30.5081 25.9799C30.3272 26.8892 29.8808 27.7244 29.2252 28.38C28.5697 29.0356 27.7344 29.482 26.8251 29.6629C25.9158 29.8437 24.9733 29.7509 24.1168 29.3961C23.2603 29.0413 22.5282 28.4405 22.0131 27.6697C21.4981 26.8988 21.2231 25.9925 21.2231 25.0654C21.2231 23.8222 21.717 22.6299 22.5961 21.7509C23.4752 20.8718 24.6674 20.3779 25.9106 20.3779ZM25.9106 17.2529C24.3655 17.2529 22.855 17.7111 21.5703 18.5696C20.2855 19.428 19.2841 20.6482 18.6928 22.0757C18.1015 23.5033 17.9468 25.0741 18.2483 26.5896C18.5497 28.1051 19.2938 29.4971 20.3864 30.5897C21.479 31.6823 22.871 32.4264 24.3865 32.7278C25.902 33.0293 27.4728 32.8745 28.9004 32.2832C30.3279 31.6919 31.5481 30.6906 32.4065 29.4058C33.265 28.1211 33.7231 26.6106 33.7231 25.0654C33.7231 22.9934 32.9 21.0063 31.4349 19.5412C29.9698 18.076 27.9827 17.2529 25.9106 17.2529Z" fill="#93C704"/>
<path d="M13.4106 21.9404H10.2856C8.21439 21.9429 6.22867 22.7668 4.76407 24.2314C3.29947 25.696 2.47558 27.6817 2.47314 29.7529V36.0029H5.59814V29.7529C5.59951 28.5101 6.09381 27.3187 6.97259 26.4399C7.85137 25.5611 9.04286 25.0668 10.2856 25.0654H13.4106V21.9404Z" fill="#93C704"/>
<path d="M13.4106 6.31543C14.3377 6.31543 15.244 6.59035 16.0149 7.10542C16.7857 7.62048 17.3865 8.35257 17.7413 9.2091C18.0961 10.0656 18.1889 11.0081 18.0081 11.9174C17.8272 12.8267 17.3808 13.6619 16.7252 14.3175C16.0697 14.9731 15.2344 15.4195 14.3251 15.6004C13.4158 15.7812 12.4733 15.6884 11.6168 15.3336C10.7603 14.9788 10.0282 14.378 9.51313 13.6072C8.99806 12.8363 8.72315 11.93 8.72315 11.0029C8.72315 9.75973 9.21701 8.56744 10.0961 7.68837C10.9752 6.80929 12.1674 6.31543 13.4106 6.31543ZM13.4106 3.19043C11.8655 3.19043 10.355 3.64862 9.07026 4.50707C7.7855 5.36552 6.78415 6.58567 6.19284 8.01321C5.60153 9.44076 5.44682 11.0116 5.74826 12.5271C6.04971 14.0425 6.79378 15.4346 7.88638 16.5272C8.97897 17.6198 10.371 18.3639 11.8865 18.6653C13.402 18.9668 14.9728 18.812 16.4004 18.2207C17.8279 17.6294 19.0481 16.6281 19.9065 15.3433C20.765 14.0586 21.2231 12.5481 21.2231 11.0029C21.2231 8.93093 20.4 6.94379 18.9349 5.47866C17.4698 4.01353 15.4827 3.19043 13.4106 3.19043Z" fill="#93C704"/>
</svg>
