<svg width="53" height="53" viewBox="0 0 53 53" fill="none" xmlns="http://www.w3.org/2000/svg">
<path d="M26.5771 51.0654C40.3843 51.0654 51.5771 39.8725 51.5771 26.0654C51.5771 12.2583 40.3843 1.06543 26.5771 1.06543C12.77 1.06543 1.57715 12.2583 1.57715 26.0654C1.57715 39.8725 12.77 51.0654 26.5771 51.0654Z" stroke="#93C704" stroke-width="2" stroke-miterlimit="10" stroke-linecap="round" stroke-linejoin="round"/>
<path d="M26.5776 1.06543V51.0654M26.5776 1.06543C18.9344 1.06543 12.7383 12.2583 12.7383 26.0654C12.7383 39.8726 18.9344 51.0654 26.5776 51.0654M26.5776 1.06543C34.2208 1.06543 40.4169 12.2583 40.4169 26.0654C40.4169 39.8726 34.2208 51.0654 26.5776 51.0654" stroke="#93C704" stroke-width="2" stroke-miterlimit="10" stroke-linecap="round" stroke-linejoin="round"/>
<path d="M51.5771 26.0654H1.57715" stroke="#93C704" stroke-width="2" stroke-miterlimit="10" stroke-linecap="round" stroke-linejoin="round"/>
<path d="M48.0056 13.5654H5.14844" stroke="#93C704" stroke-width="2" stroke-miterlimit="10" stroke-linecap="round" stroke-linejoin="round"/>
<path d="M48.0056 38.5654H5.14844" stroke="#93C704" stroke-width="2" stroke-miterlimit="10" stroke-linecap="round" stroke-linejoin="round"/>
</svg>
