<svg width="51" height="51" viewBox="0 0 51 51" fill="none" xmlns="http://www.w3.org/2000/svg">
<path d="M25.2437 50.0654C11.453 50.0654 0.243652 38.8561 0.243652 25.0654C0.243652 11.2747 11.453 0.0654297 25.2437 0.0654297C39.0343 0.0654297 50.2437 11.2747 50.2437 25.0654C50.2437 38.8561 39.0343 50.0654 25.2437 50.0654ZM25.2437 3.5538C13.3832 3.5538 3.73202 13.205 3.73202 25.0654C3.73202 36.9259 13.3832 46.5771 25.2437 46.5771C37.1041 46.5771 46.7553 36.9259 46.7553 25.0654C46.7553 13.205 37.1041 3.5538 25.2437 3.5538Z" fill="#93C704"/>
<path d="M33.8709 34.2045C33.5686 34.2045 33.2663 34.1347 32.9872 33.9487L25.7779 29.6463C23.9872 28.5766 22.6616 26.2277 22.6616 24.158V14.6231C22.6616 13.6696 23.4523 12.8789 24.4058 12.8789C25.3593 12.8789 26.15 13.6696 26.15 14.6231V24.158C26.15 24.9952 26.8477 26.2277 27.5686 26.6463L34.7779 30.9487C35.6151 31.437 35.8709 32.5068 35.3826 33.344C35.0337 33.9021 34.4523 34.2045 33.8709 34.2045Z" fill="#93C704"/>
</svg>
