<svg width="51" height="51" viewBox="0 0 51 51" fill="none" xmlns="http://www.w3.org/2000/svg">
<g clip-path="url(#clip0_212_1250)">
<path d="M19.3224 43.9148C18.3424 43.8989 17.4857 43.6961 16.7797 42.9671C16.7442 42.9311 16.7097 42.8942 16.676 42.8565C16.6423 42.8187 16.6097 42.7801 16.578 42.7408C16.5463 42.7014 16.5155 42.6613 16.4858 42.6203C16.4561 42.5795 16.4274 42.5378 16.3998 42.4954C16.3722 42.4531 16.3457 42.41 16.3202 42.3663C16.2947 42.3227 16.2703 42.2784 16.2471 42.2335C16.2239 42.1886 16.2018 42.1431 16.1808 42.0971C16.1598 42.0511 16.14 42.0046 16.1214 41.9576C16.1028 41.9105 16.0853 41.8631 16.0691 41.8153C16.0528 41.7674 16.0377 41.7191 16.0239 41.6704C16.0101 41.6218 15.9975 41.5729 15.9861 41.5237C15.9747 41.4744 15.9645 41.4248 15.9556 41.375C15.9467 41.3253 15.939 41.2753 15.9326 41.2251C15.9262 41.175 15.921 41.1247 15.9171 41.0744C15.9133 41.0239 15.9107 40.9734 15.9093 40.9229C15.9079 40.8723 15.9078 40.8217 15.909 40.7712C15.9101 40.7198 15.9124 40.6684 15.9159 40.6171C15.9196 40.5658 15.9245 40.5147 15.9306 40.4636C15.9368 40.4126 15.9442 40.3617 15.9529 40.311C15.9616 40.2603 15.9715 40.2099 15.9827 40.1597C15.9939 40.1095 16.0064 40.0596 16.02 40.0101C16.0338 39.9605 16.0487 39.9113 16.0649 39.8624C16.081 39.8136 16.0984 39.7652 16.1169 39.7173C16.1355 39.6693 16.1552 39.6219 16.1762 39.5749C16.1971 39.5279 16.2192 39.4815 16.2424 39.4357C16.2657 39.3898 16.29 39.3445 16.3156 39.2998C16.3411 39.2552 16.3677 39.2112 16.3953 39.1679C16.423 39.1245 16.4518 39.0819 16.4817 39.0401C16.5115 38.9981 16.5423 38.957 16.5742 38.9166C16.6061 38.8763 16.6389 38.8368 16.6728 38.7981C16.7066 38.7593 16.7414 38.7215 16.7772 38.6845C16.8129 38.6475 16.8495 38.6115 16.887 38.5763C17.2363 38.2463 17.6256 38.0454 18.0744 37.8841C18.3338 37.7909 18.6672 37.7736 18.9419 37.7619C19.7746 37.7269 20.6195 37.7544 21.4534 37.7543L26.1535 37.7546L29.7284 37.7549C30.3841 37.7548 31.0584 37.7239 31.712 37.7731C32.1222 37.8039 32.4884 37.8904 32.8587 38.072C33.5483 38.4103 34.1588 39.0677 34.401 39.8016C34.6639 40.5983 34.6262 41.457 34.2433 42.2088C34.22 42.2543 34.1956 42.2992 34.1701 42.3435C34.1446 42.3878 34.118 42.4315 34.0904 42.4744C34.0628 42.5175 34.0341 42.5598 34.0043 42.6014C33.9746 42.6429 33.9439 42.6838 33.9122 42.7239C33.8805 42.764 33.8477 42.8033 33.8141 42.8417C33.7805 42.8802 33.7459 42.9178 33.7104 42.9546C33.6749 42.9914 33.6385 43.0273 33.6013 43.0622C33.564 43.0973 33.5259 43.1314 33.4869 43.1645C33.448 43.1976 33.4083 43.2297 33.3678 43.2609C33.3273 43.2921 33.2861 43.3222 33.2441 43.3514C33.2021 43.3805 33.1594 43.4086 33.116 43.4357C33.0727 43.4628 33.0287 43.4887 32.984 43.5136C32.9394 43.5385 32.8941 43.5623 32.8484 43.585C32.8025 43.6077 32.7562 43.6292 32.7093 43.6495C32.6624 43.67 32.6151 43.6892 32.5673 43.7073C32.5195 43.7254 32.4712 43.7423 32.4226 43.7579C32.0254 43.8854 31.58 43.9347 31.1642 43.9122C31.1509 44.4064 31.1524 44.9074 31.0839 45.3975C31.0719 45.4792 31.0581 45.5606 31.0427 45.6417C31.0273 45.7229 31.0102 45.8037 30.9913 45.8841C30.9725 45.9645 30.952 46.0445 30.9299 46.1242C30.9078 46.2037 30.8839 46.2827 30.8584 46.3613C30.833 46.4398 30.8059 46.5179 30.7772 46.5953C30.7485 46.6728 30.7181 46.7495 30.6862 46.8257C30.6542 46.9019 30.6207 46.9773 30.5856 47.0521C30.5505 47.1269 30.5138 47.2009 30.4756 47.2741C30.4374 47.3473 30.3977 47.4197 30.3565 47.4912C30.3152 47.5629 30.2725 47.6335 30.2283 47.7033C30.1841 47.773 30.1385 47.8419 30.0914 47.9098C30.0444 47.9776 29.9959 48.0445 29.946 48.1103C29.8962 48.1762 29.8449 48.241 29.7923 48.3046C29.7398 48.3683 29.6859 48.4309 29.6307 48.4923C29.5755 48.5538 29.519 48.614 29.4613 48.6731C29.4036 48.7322 29.3447 48.79 29.2845 48.8466C28.613 49.4793 27.7527 49.997 26.8578 50.2369C26.5712 50.3137 26.2058 50.3328 25.9431 50.4587H24.5711C24.5561 50.4531 24.541 50.4472 24.5259 50.4416C24.1534 50.3056 23.7141 50.2726 23.3212 50.1388C23.2299 50.107 23.1395 50.073 23.0499 50.0368C22.9603 50.0005 22.8717 49.9621 22.7839 49.9216C22.6962 49.8811 22.6095 49.8384 22.5239 49.7937C22.4382 49.7489 22.3537 49.7021 22.2703 49.6532C22.1869 49.6043 22.1048 49.5535 22.024 49.5006C21.943 49.4478 21.8634 49.3929 21.7852 49.3362C21.707 49.2795 21.6302 49.2209 21.5548 49.1604C21.4794 49.0999 21.4056 49.0376 21.3332 48.9736C21.2608 48.9095 21.1901 48.8437 21.1209 48.7762C21.0518 48.7087 20.9843 48.6396 20.9186 48.5688C20.8528 48.498 20.7887 48.4256 20.7265 48.3517C20.6642 48.2778 20.6037 48.2024 20.5451 48.1255C20.4866 48.0487 20.4298 47.9705 20.375 47.8909C20.3203 47.8112 20.2675 47.7303 20.2166 47.6482C20.1658 47.566 20.117 47.4827 20.0701 47.3981C20.0233 47.3135 19.9786 47.2279 19.936 47.1411C19.4303 46.1061 19.3179 45.0492 19.3224 43.9148ZM18.9085 39.3354C18.4662 39.3828 18.126 39.4744 17.8289 39.8361C17.5619 40.1612 17.458 40.619 17.5076 41.0324C17.5549 41.4265 17.7396 41.799 18.0612 42.0408C18.2932 42.2153 18.5637 42.2933 18.8489 42.3183C19.3693 42.364 19.8999 42.3125 20.4215 42.3091L23.2986 42.3107H29.2416C30.0166 42.3109 30.7921 42.3369 31.5669 42.3246C32.0078 42.2796 32.365 42.1632 32.6556 41.8041C32.9157 41.4828 33.0217 41.0516 32.9783 40.6435C32.9369 40.2538 32.7543 39.8778 32.4483 39.6281C32.2009 39.4263 31.9554 39.3778 31.6479 39.3482C31.0361 39.2893 30.3909 39.3278 29.7758 39.3276L26.3708 39.3272L21.4732 39.3275C20.6236 39.3277 19.7565 39.2931 18.9085 39.3354ZM20.9134 43.9201C20.8841 44.1447 20.8935 44.3903 20.9041 44.6169C20.9486 45.566 21.2169 46.4332 21.8007 47.1931C21.8441 47.2497 21.8888 47.3052 21.9349 47.3596C21.981 47.414 22.0284 47.4673 22.0772 47.5194C22.1259 47.5714 22.1759 47.6222 22.2272 47.6718C22.2784 47.7214 22.3309 47.7696 22.3845 47.8166C22.4381 47.8636 22.4929 47.9093 22.5489 47.9535C22.6048 47.9978 22.6617 48.0407 22.7198 48.0821C22.7778 48.1235 22.8368 48.1635 22.8968 48.2021C22.9568 48.2406 23.0178 48.2776 23.0796 48.3131C23.1415 48.3486 23.2042 48.3826 23.2677 48.415C23.3312 48.4473 23.3955 48.4781 23.4606 48.5074C23.5256 48.5366 23.5913 48.5642 23.6577 48.5902C23.7242 48.6161 23.7912 48.6404 23.8588 48.663C23.9265 48.6857 23.9946 48.7066 24.0632 48.7259C24.1319 48.7452 24.201 48.7627 24.2705 48.7786C24.3401 48.7944 24.4099 48.8085 24.4801 48.8208C24.5504 48.8332 24.6209 48.8438 24.6916 48.8528C24.7623 48.862 24.8332 48.8695 24.9043 48.8752C24.9754 48.881 25.0466 48.8849 25.1179 48.8871C25.1892 48.8893 25.2605 48.8897 25.3318 48.8883C25.4031 48.8869 25.4743 48.8838 25.5454 48.8788C25.6166 48.8739 25.6876 48.8672 25.7583 48.8587C25.8292 48.8502 25.8997 48.8399 25.97 48.828C26.0404 48.8159 26.1103 48.8021 26.1799 48.7867C26.2495 48.7712 26.3187 48.7539 26.3874 48.735C26.4562 48.7161 26.5244 48.6954 26.5921 48.673C26.6599 48.6507 26.727 48.6266 26.7935 48.6009C26.86 48.5752 26.9259 48.5479 26.991 48.5189C27.0562 48.4898 27.1206 48.4592 27.1842 48.427C27.2478 48.3948 27.3106 48.3611 27.3726 48.3257C27.4345 48.2904 27.4955 48.2535 27.5556 48.2151C27.6157 48.1767 27.6748 48.1368 27.7329 48.0954C27.791 48.0541 27.848 48.0113 27.904 47.9671C28.0507 47.8523 28.1863 47.7236 28.3194 47.5933C29.4425 46.3985 29.5633 45.4908 29.5866 43.924L23.6262 43.9206L21.8512 43.9223C21.5415 43.9232 21.2215 43.9441 20.9134 43.9201Z" fill="#93C704"/>
<path d="M24.1498 0.458496H26.3109C26.656 0.579198 27.3054 0.583521 27.6994 0.646624C28.1585 0.721547 28.6133 0.81646 29.064 0.931363C29.5147 1.04627 29.9595 1.18072 30.3984 1.33471C30.5195 1.37749 30.64 1.42174 30.7601 1.46748C30.8801 1.51322 30.9996 1.56042 31.1185 1.60908C31.2374 1.65775 31.3556 1.70787 31.4733 1.75944C31.5909 1.81101 31.7079 1.86402 31.8242 1.91847C31.9406 1.97291 32.0562 2.02878 32.1712 2.08606C32.2862 2.14334 32.4005 2.20203 32.514 2.26212C32.6275 2.32221 32.7403 2.38368 32.8524 2.44654C32.9644 2.5094 33.0756 2.57362 33.1861 2.63921C33.2965 2.7048 33.4061 2.77174 33.5149 2.84002C33.6237 2.9083 33.7317 2.97791 33.8388 3.04884C33.9459 3.11977 34.0521 3.19201 34.1574 3.26555C34.2627 3.33909 34.3671 3.41391 34.4706 3.49001C34.5741 3.56611 34.6766 3.64347 34.7782 3.7221C34.8798 3.80072 34.9804 3.88057 35.08 3.96166C35.1796 4.04275 35.2782 4.12506 35.3758 4.20856C35.4735 4.29207 35.57 4.37677 35.6656 4.46266C35.7611 4.54854 35.8555 4.63558 35.9489 4.72378C36.0423 4.81198 36.1346 4.90132 36.2258 4.99179C36.317 5.08226 36.407 5.17383 36.4959 5.2665C36.5849 5.35919 36.6727 5.45295 36.7593 5.54778C36.846 5.64261 36.9314 5.7385 37.0158 5.83543C37.1001 5.93236 37.1831 6.03032 37.265 6.1293C37.3469 6.22827 37.4275 6.32823 37.507 6.42918C37.5864 6.53014 37.6646 6.63205 37.7415 6.73492C37.8184 6.83779 37.8941 6.94159 37.9685 7.04633C38.0428 7.15106 38.1159 7.25669 38.1877 7.36321C38.2595 7.46974 38.3299 7.57713 38.3991 7.68538C38.4682 7.79364 38.536 7.90272 38.6025 8.01265C38.6689 8.12257 38.7341 8.23329 38.7979 8.3448C38.8616 8.45632 38.924 8.56861 38.985 8.68166C39.046 8.79471 39.1056 8.90849 39.1638 9.023C39.2219 9.13752 39.2787 9.25273 39.3341 9.36863C40.5659 11.957 40.9665 14.642 40.7974 17.4885C40.6664 19.6917 40.1704 21.7938 38.8789 23.6165C38.2325 24.5289 37.4506 25.3338 36.7414 26.1958C36.0355 27.0538 35.4431 27.9852 35.0222 29.0154C34.4465 30.4248 34.1665 31.9519 34.0517 33.465C34.0293 33.7596 34.0041 34.0559 33.9926 34.3511C33.9777 34.7346 34.0253 35.6406 33.9003 35.9529C33.8239 36.1439 33.6471 36.3047 33.4589 36.3813C33.3195 36.4382 33.1855 36.4468 33.0368 36.4518C32.1821 36.4804 31.3181 36.454 30.4623 36.4539L25.437 36.4542L20.2198 36.4551C19.3119 36.4558 18.3972 36.4812 17.4904 36.4538C17.3187 36.4486 17.1239 36.4387 16.9675 36.362C16.7961 36.278 16.6137 36.1128 16.5658 35.9213C16.4491 35.455 16.5063 34.6415 16.4781 34.1289C16.395 32.6183 16.191 31.0994 15.7027 29.662C15.6124 29.3951 15.5114 29.1322 15.3998 28.8734C15.2882 28.6146 15.1663 28.3608 15.0342 28.1119C14.9021 27.863 14.7602 27.6198 14.6083 27.3823C14.4565 27.1449 14.2954 26.914 14.1249 26.6896C13.5924 25.9766 12.9822 25.325 12.4066 24.6474C11.4462 23.517 10.6949 22.3122 10.2559 20.8879C9.92425 19.8118 9.76808 18.6994 9.69207 17.5787C9.48268 14.4913 10.0003 11.4998 11.4603 8.75349C11.5214 8.63801 11.584 8.52332 11.648 8.40942C11.712 8.29552 11.7774 8.18245 11.8443 8.0702C11.9111 7.95794 11.9794 7.84655 12.0491 7.73601C12.1187 7.62547 12.1898 7.51583 12.2622 7.40708C12.3346 7.29833 12.4084 7.19051 12.4835 7.0836C12.5587 6.97671 12.6351 6.87078 12.7129 6.76581C12.7907 6.66084 12.8698 6.55686 12.9502 6.45388C13.0306 6.3509 13.1123 6.24894 13.1952 6.14802C13.2783 6.04709 13.3625 5.94722 13.448 5.84841C13.5335 5.7496 13.6202 5.65188 13.7081 5.55525C13.7961 5.45863 13.8852 5.36312 13.9755 5.26874C14.0659 5.17435 14.1574 5.08112 14.2501 4.98903C14.3428 4.89695 14.4366 4.80605 14.5316 4.71633C14.6266 4.6266 14.7227 4.53809 14.8199 4.45078C14.9171 4.36348 15.0154 4.27741 15.1148 4.19257C15.2141 4.10774 15.3145 4.02417 15.416 3.94186C15.5175 3.85954 15.6199 3.77853 15.7235 3.6988C15.827 3.61907 15.9315 3.54065 16.0369 3.46354C16.1424 3.38644 16.2489 3.31068 16.3563 3.23626C16.4636 3.16183 16.5719 3.08877 16.6812 3.01707C16.7904 2.94537 16.9005 2.87506 17.0115 2.80612C17.1225 2.73719 17.2343 2.66966 17.347 2.60354C17.4597 2.53743 17.5732 2.47273 17.6875 2.40947C17.8019 2.34621 17.917 2.28439 18.0328 2.22402C18.1487 2.16366 18.2653 2.10476 18.3826 2.04732C18.5 1.98988 18.6181 1.93393 18.7368 1.87946C18.8556 1.825 18.975 1.77204 19.0951 1.72058C19.2152 1.66911 19.3359 1.61917 19.4573 1.57074C19.5786 1.52232 19.7005 1.47543 19.8231 1.43007C19.9456 1.38471 20.0687 1.3409 20.1923 1.29864C20.3159 1.25638 20.4401 1.21568 20.5648 1.17654C20.6894 1.1374 20.8146 1.09983 20.9402 1.06384C21.5923 0.875199 22.254 0.730116 22.9253 0.628585C23.2895 0.573942 23.7923 0.573044 24.1293 0.465494C24.1363 0.463297 24.143 0.460829 24.1498 0.458496ZM25.1111 2.03275C24.9955 2.03374 24.88 2.03616 24.7646 2.04C24.6491 2.04385 24.5337 2.04912 24.4183 2.05582C24.3029 2.06253 24.1877 2.07065 24.0726 2.08021C23.9574 2.08976 23.8424 2.10074 23.7275 2.11314C23.6126 2.12555 23.4979 2.13937 23.3834 2.15461C23.2688 2.16984 23.1545 2.1865 23.0404 2.20457C22.9263 2.22264 22.8124 2.24212 22.6988 2.26301C22.5852 2.28389 22.4718 2.30618 22.3586 2.32987C22.2455 2.35357 22.1328 2.37866 22.0203 2.40515C21.9078 2.43163 21.7957 2.4595 21.6839 2.48876C21.5722 2.51802 21.4608 2.54866 21.3497 2.58067C21.2387 2.61269 21.1281 2.64608 21.0179 2.68083C20.9077 2.71559 20.798 2.7517 20.6887 2.78917C20.5794 2.82664 20.4706 2.86546 20.3622 2.90562C20.2539 2.94579 20.1461 2.98729 20.0388 3.03012C19.9314 3.07295 19.8247 3.1171 19.7185 3.16258C19.6122 3.20805 19.5066 3.25483 19.4016 3.30292C19.2965 3.35101 19.1921 3.4004 19.0882 3.45107C18.9844 3.50174 18.8812 3.55369 18.7786 3.60692C18.6761 3.66015 18.5742 3.71464 18.473 3.77039C18.3718 3.82614 18.2713 3.88313 18.1715 3.94137C18.0717 3.99961 17.9727 4.05908 17.8743 4.11977C17.776 4.18045 17.6784 4.24234 17.5817 4.30545C17.4849 4.36855 17.3889 4.43285 17.2937 4.49832C17.1984 4.5638 17.1041 4.63045 17.0106 4.69826C16.917 4.76608 16.8243 4.83504 16.7324 4.90515C16.6406 4.97526 16.5496 5.04649 16.4596 5.11886C16.3695 5.19121 16.2803 5.26468 16.192 5.33925C16.1038 5.41381 16.0165 5.48946 15.9301 5.56619C15.8437 5.64292 15.7583 5.7207 15.6738 5.79954C15.5893 5.87839 15.5059 5.95826 15.4234 6.03917C15.3409 6.12008 15.2594 6.202 15.1789 6.28492C15.098 6.36803 15.0181 6.45214 14.9393 6.53723C14.8604 6.62231 14.7827 6.70837 14.706 6.79539C14.6293 6.88241 14.5537 6.97036 14.4792 7.05926C14.4047 7.14815 14.3313 7.23796 14.259 7.32867C14.1867 7.41939 14.1155 7.51099 14.0455 7.60347C13.9755 7.69595 13.9067 7.78928 13.839 7.88348C13.7713 7.97766 13.7047 8.07268 13.6394 8.16852C13.5741 8.26435 13.51 8.36098 13.447 8.45842C13.384 8.55585 13.3223 8.65404 13.2617 8.753C13.2013 8.85196 13.142 8.95165 13.0839 9.05209C13.0259 9.15252 12.9691 9.25365 12.9136 9.35549C12.8581 9.45733 12.8038 9.55984 12.7508 9.66303C12.6978 9.76621 12.6461 9.87004 12.5957 9.97451C12.5453 10.079 12.4962 10.1841 12.4484 10.2897C12.4006 10.3954 12.3541 10.5017 12.3089 10.6085C12.2637 10.7153 12.2199 10.8227 12.1775 10.9307C12.135 11.0386 12.0938 11.147 12.0539 11.256C12.0141 11.3649 11.9756 11.4744 11.9386 11.5843C11.9015 11.6942 11.8658 11.8045 11.8314 11.9153C11.797 12.0261 11.764 12.1372 11.7324 12.2488C11.7008 12.3605 11.6706 12.4725 11.6417 12.5848C11.6129 12.6971 11.5855 12.8098 11.5595 12.9229C11.5335 13.0359 11.5088 13.1493 11.4856 13.2629C11.4623 13.3766 11.4405 13.4905 11.4201 13.6047C11.3998 13.7189 11.3808 13.8333 11.3632 13.9479C11.3456 14.0626 11.3295 14.1774 11.3148 14.2925C11.3001 14.4076 11.2868 14.5228 11.2749 14.6382C11.2631 14.7535 11.2527 14.8691 11.2437 14.9848C11.2347 15.1004 11.2271 15.2161 11.221 15.3319C11.2149 15.4478 11.2102 15.5636 11.207 15.6796C11.2038 15.7955 11.202 15.9115 11.2016 16.0275C11.2012 16.1436 11.2023 16.2595 11.2048 16.3755C11.2397 18.5532 11.5957 20.7064 12.791 22.5653C13.1738 23.1604 13.6268 23.7064 14.0868 24.2427C14.926 25.2208 15.7658 26.1634 16.3961 27.2964C17.665 29.5766 18.0113 32.284 18.073 34.8552C19.009 34.8858 19.9491 34.869 20.8856 34.8688L25.4754 34.8687L30.0486 34.8683C30.8299 34.8683 31.6338 34.83 32.412 34.8764C32.4056 34.051 32.4837 33.1996 32.5824 32.3804C32.9212 29.5652 33.6928 27.4289 35.5272 25.2459C36.4768 24.1157 37.5045 23.0558 38.1732 21.7236C38.8231 20.429 39.1055 19.0099 39.2217 17.5752C39.5708 13.2642 38.207 9.13435 35.0973 6.07709C35.0157 5.99626 34.933 5.91644 34.8493 5.83764C34.7658 5.75884 34.6812 5.68109 34.5956 5.60438C34.5101 5.52766 34.4236 5.45201 34.3363 5.37743C34.2488 5.30285 34.1605 5.22936 34.0713 5.15695C33.9821 5.08455 33.892 5.01326 33.801 4.94308C33.7101 4.87289 33.6182 4.80384 33.5255 4.73593C33.4329 4.668 33.3394 4.60124 33.245 4.53562C33.1507 4.47001 33.0556 4.40557 32.9597 4.3423C32.8638 4.27904 32.7671 4.21696 32.6697 4.15607C32.5722 4.09519 32.474 4.03551 32.3751 3.97705C32.2762 3.91859 32.1766 3.86135 32.0763 3.80534C31.976 3.74933 31.875 3.69457 31.7733 3.64104C31.6716 3.58753 31.5693 3.53527 31.4663 3.48428C31.3633 3.43328 31.2598 3.38356 31.1556 3.33512C31.0514 3.28667 30.9466 3.23952 30.8412 3.19366C30.7359 3.1478 30.63 3.10325 30.5236 3.06C30.4171 3.01675 30.3102 2.97482 30.2027 2.93421C30.0952 2.8936 29.9872 2.85432 29.8787 2.81637C29.7703 2.77842 29.6615 2.74181 29.5521 2.70655C29.4427 2.67129 29.3329 2.63737 29.2228 2.60481C29.1126 2.57226 29.002 2.54106 28.891 2.51123C28.7801 2.48139 28.6688 2.45293 28.5572 2.42585C28.4454 2.39876 28.3335 2.37305 28.2212 2.34872C28.1089 2.32439 27.9963 2.30145 27.8834 2.2799C27.7706 2.25835 27.6575 2.23819 27.5442 2.21942C27.4308 2.20066 27.3172 2.1833 27.2034 2.16733C27.0896 2.15137 26.9757 2.13681 26.8616 2.12366C26.7474 2.1105 26.6331 2.09876 26.5187 2.08843C26.4042 2.07809 26.2897 2.06916 26.175 2.06165C26.0604 2.05414 25.9456 2.04804 25.8308 2.04336C25.716 2.03868 25.6012 2.03541 25.4863 2.03355C25.3714 2.0317 25.2565 2.03126 25.1416 2.03225L25.1111 2.03275Z" fill="#93C704"/>
<path d="M24.3043 4.78885C24.8039 4.75417 25.9805 4.73398 26.4531 4.84265C26.5443 4.86353 26.6326 4.89299 26.7181 4.93103C26.8036 4.96907 26.8846 5.01499 26.961 5.06877C27.3212 5.32353 27.4755 5.67458 27.5491 6.09617C27.9426 6.26404 28.3701 6.35749 28.7692 6.51947C29.1437 6.67146 29.5103 6.92234 29.8945 7.03003C30.0655 6.90904 30.2267 6.80324 30.4276 6.73807C30.7852 6.62204 31.1381 6.68085 31.4652 6.85067C31.642 6.94248 31.8055 7.06014 31.9575 7.18836C32.3003 7.47732 33.3182 8.48513 33.4984 8.81913C33.6208 9.04633 33.6762 9.32376 33.6524 9.57974C33.6248 9.87621 33.3423 10.3327 33.3737 10.4895C33.4229 10.7344 33.7035 11.127 33.8175 11.3817C34.0038 11.7981 34.1473 12.2381 34.2833 12.6731C34.5185 12.766 34.7729 12.8106 34.9962 12.9333C35.3221 13.1123 35.4939 13.4121 35.5878 13.76C35.7496 14.3598 35.7842 16.3068 35.4701 16.836C35.2192 17.2589 34.8125 17.4482 34.3544 17.5585C34.244 17.8371 34.1727 18.1337 34.0709 18.4166C33.8913 18.9162 33.662 19.3856 33.4129 19.8538C33.547 20.0315 33.6707 20.2204 33.7404 20.4336C33.8494 20.7662 33.8031 21.0952 33.6468 21.4028C33.3795 21.9285 31.9601 23.4117 31.3907 23.5764C30.8979 23.7191 30.4631 23.5596 30.0397 23.315C29.6672 23.468 29.3181 23.6941 28.9463 23.8574C28.5819 24.0174 28.0779 24.1167 27.7537 24.3246C27.6636 24.6623 27.5685 24.9734 27.3246 25.234C27.0214 25.558 26.6684 25.635 26.2458 25.6563C25.4353 25.6838 24.1593 25.8207 23.4738 25.3519C23.1031 25.0983 23.0029 24.7513 22.9236 24.3355C22.6301 24.2297 22.3235 24.1573 22.029 24.05C21.5387 23.8712 21.0724 23.6418 20.6046 23.4119C20.3952 23.5516 20.1764 23.6924 19.9286 23.7521C19.5279 23.8486 19.1732 23.7092 18.8408 23.4955C18.4086 23.2172 17.3253 22.1386 17.0375 21.7094C16.9487 21.5771 16.8885 21.441 16.8576 21.2839C16.7651 20.8123 16.9113 20.4097 17.1711 20.0227C16.7819 19.362 16.4998 18.7002 16.268 17.9702C16.2524 17.9213 16.2241 17.8301 16.1902 17.7935C16.1027 17.6993 15.6772 17.6159 15.5213 17.5328C15.4846 17.5136 15.449 17.4926 15.4145 17.4698C15.38 17.447 15.3467 17.4225 15.3146 17.3964C15.2825 17.3702 15.2519 17.3424 15.2227 17.3131C15.1934 17.2839 15.1658 17.2531 15.1397 17.221C15.1136 17.1889 15.0891 17.1555 15.0664 17.121C15.0436 17.0864 15.0227 17.0507 15.0036 17.014C14.9845 16.9773 14.9673 16.9397 14.9521 16.9012C14.9368 16.8628 14.9235 16.8237 14.9121 16.7839C14.7529 16.2252 14.7491 14.6713 14.8487 14.0966C14.8645 14.0047 14.888 13.9147 14.9194 13.8268C14.9506 13.7389 14.9891 13.6543 15.035 13.573C15.2841 13.1413 15.6761 13.0172 16.1256 12.9004C16.2456 12.589 16.3271 12.2597 16.4433 11.9456C16.6175 11.4743 16.842 11.0307 17.0694 10.5835C16.9204 10.4154 16.8007 10.2197 16.7353 10.004C16.6246 9.6389 16.6998 9.27811 16.8825 8.95214C17.139 8.49449 18.4055 7.18729 18.8744 6.95444C19.1074 6.8387 19.365 6.79917 19.6229 6.8283C19.8772 6.85701 20.3503 7.11354 20.4873 7.08735C20.7767 7.03202 21.1019 6.77929 21.3751 6.65615C21.8011 6.4687 22.2387 6.31405 22.6878 6.19221C22.8242 5.87577 22.8549 5.56058 23.0817 5.28219C23.3832 4.91192 23.8563 4.83009 24.3043 4.78885ZM24.3 6.37462C24.2359 6.72626 24.2062 7.22463 23.8903 7.44928C23.57 7.67712 23.0523 7.68509 22.6804 7.81039C22.172 7.98171 21.7026 8.21413 21.246 8.49363C21.0581 8.60865 20.5796 8.96197 20.3488 8.9154C20.0332 8.85169 19.7535 8.63557 19.5175 8.42596C19.104 8.81897 18.7062 9.22746 18.301 9.62882C18.5141 9.90458 18.8484 10.2846 18.7891 10.6603C18.7307 11.03 18.4053 11.3643 18.2328 11.6895C18.091 11.9568 17.9735 12.2462 17.8749 12.5319C17.7311 12.9494 17.6013 13.7577 17.417 14.0814C17.3737 14.1576 17.3073 14.2119 17.2354 14.2598C17.0057 14.4127 16.6574 14.4688 16.3851 14.4749C16.365 15.0395 16.3912 15.605 16.3677 16.1693C16.704 16.2108 17.2174 16.2571 17.4414 16.5447C17.6435 16.8042 17.7847 17.6883 17.9207 18.0638C18.0596 18.4472 18.2704 18.8221 18.4834 19.1697C18.6385 19.4228 18.9568 19.8126 18.9134 20.1163C18.8719 20.4072 18.4877 20.846 18.4823 20.9733C18.6609 21.2217 19.4116 21.9556 19.6722 22.1602C19.9387 21.9452 20.2634 21.6334 20.6313 21.6723C20.9956 21.7109 21.3696 22.0285 21.6844 22.2045C21.9173 22.3347 22.1569 22.453 22.4082 22.5434C22.7011 22.6475 22.999 22.7343 23.3019 22.804C23.5064 22.8528 23.7241 22.8861 23.9196 22.9628C24.0525 23.0148 24.1697 23.085 24.257 23.1993C24.4372 23.4351 24.4606 23.7872 24.4776 24.0744C25.0442 24.0831 25.6227 24.1071 26.1884 24.0787C26.2435 23.7349 26.2722 23.2245 26.5762 23.0036C26.8425 22.81 27.2531 22.7958 27.5648 22.7121C27.7827 22.6536 27.9997 22.5689 28.2078 22.482C28.8064 22.2319 29.313 21.8397 29.8983 21.5795C30.0443 21.5145 30.2196 21.5554 30.3627 21.6127C30.5892 21.7034 30.7853 21.8721 30.977 22.0198C31.3715 21.6145 31.7786 21.222 32.174 20.8179C31.9959 20.5769 31.6268 20.1609 31.6782 19.8429C31.7439 19.4371 32.1583 18.9241 32.3428 18.5475C32.577 18.0693 32.7338 17.5781 32.8485 17.0595C32.9207 16.7332 32.9598 16.3633 33.2685 16.1695C33.5063 16.0202 33.8357 16.0114 34.1089 15.9799C34.1075 15.4201 34.1344 14.8456 34.1008 14.2872C33.768 14.2438 33.251 14.1834 33.0277 13.9029C32.8006 13.6177 32.7655 12.9853 32.6473 12.6257C32.5385 12.2952 32.3879 11.9718 32.2235 11.6655C32.03 11.3047 31.5243 10.6945 31.5792 10.2891C31.6212 9.97946 31.8621 9.73007 32.0368 9.48409C31.6312 9.08901 31.2288 8.69057 30.8298 8.28877C30.5581 8.48366 30.1768 8.83558 29.8179 8.77719C29.4227 8.7129 28.8173 8.23023 28.4133 8.04283C27.9955 7.84901 27.5325 7.73019 27.0853 7.62677C26.7859 7.55754 26.3713 7.49541 26.1914 7.21597C26.0413 6.98289 26.0317 6.66043 26.0087 6.39108C25.6165 6.39057 24.6043 6.44051 24.3 6.37462Z" fill="#93C704"/>
<path d="M24.8961 9.45248C24.9839 9.44742 25.0717 9.44436 25.1596 9.4433C25.2475 9.44223 25.3354 9.44317 25.4233 9.44611C25.5111 9.44905 25.5988 9.45398 25.6864 9.4609C25.7741 9.46784 25.8615 9.47676 25.9487 9.48767C26.036 9.49858 26.1229 9.51146 26.2095 9.52633C26.2961 9.5412 26.3824 9.55803 26.4683 9.57682C26.5541 9.59562 26.6395 9.61635 26.7244 9.63903C26.8094 9.66171 26.8938 9.68631 26.9776 9.71284C27.0613 9.73935 27.1445 9.76777 27.2271 9.79807C27.3096 9.82838 27.3913 9.86054 27.4724 9.89457C27.5534 9.9286 27.6337 9.96445 27.7131 10.0021C27.7925 10.0398 27.871 10.0793 27.9486 10.1205C28.0263 10.1618 28.1029 10.2048 28.1786 10.2495C28.2543 10.2943 28.3289 10.3407 28.4025 10.3889C28.476 10.437 28.5484 10.4868 28.6196 10.5382C28.6909 10.5896 28.761 10.6427 28.8299 10.6973C28.9051 10.7568 28.9788 10.8181 29.0509 10.8814C29.123 10.9446 29.1935 11.0095 29.2624 11.0762C29.3313 11.1429 29.3985 11.2113 29.464 11.2814C29.5295 11.3514 29.5932 11.4231 29.6551 11.4963C29.717 11.5695 29.7771 11.6443 29.8353 11.7205C29.8935 11.7967 29.9497 11.8743 30.004 11.9533C30.0584 12.0324 30.1107 12.1127 30.161 12.1944C30.2114 12.276 30.2596 12.3588 30.3058 12.4429C30.352 12.5269 30.3961 12.612 30.438 12.6983C30.48 12.7845 30.5198 12.8717 30.5573 12.9599C30.595 13.0481 30.6304 13.1372 30.6635 13.2272C30.6967 13.3172 30.7276 13.408 30.7563 13.4994C30.7849 13.591 30.8113 13.6832 30.8354 13.776C30.8594 13.8688 30.8811 13.9622 30.9005 14.0561C30.9199 14.15 30.937 14.2444 30.9517 14.3391C30.9664 14.4339 30.9787 14.529 30.9887 14.6243C30.9985 14.7182 31.006 14.8123 31.0112 14.9066C31.0165 15.0008 31.0193 15.0952 31.0198 15.1897C31.0204 15.2841 31.0187 15.3784 31.0146 15.4728C31.0105 15.5671 31.004 15.6613 30.9953 15.7553C30.9866 15.8493 30.9756 15.943 30.9623 16.0364C30.949 16.1299 30.9333 16.223 30.9154 16.3157C30.8975 16.4084 30.8773 16.5006 30.8549 16.5923C30.8324 16.684 30.8077 16.7751 30.7808 16.8656C30.7538 16.9561 30.7247 17.0459 30.6934 17.135C30.662 17.224 30.6285 17.3123 30.5928 17.3996C30.5571 17.4871 30.5193 17.5736 30.4793 17.6591C30.4394 17.7446 30.3974 17.8291 30.3532 17.9126C30.3092 17.9961 30.263 18.0785 30.2149 18.1597C30.1667 18.2409 30.1166 18.3208 30.0645 18.3996C30.0124 18.4783 29.9584 18.5557 29.9026 18.6319C29.8466 18.708 29.7889 18.7826 29.7293 18.8559C28.647 20.1996 27.2579 20.8297 25.5722 21.0061C25.4816 21.0106 25.3909 21.0131 25.3002 21.0134C25.2095 21.0137 25.1188 21.0118 25.0281 21.0079C24.9374 21.004 24.8469 20.998 24.7566 20.9899C24.6662 20.9817 24.5761 20.9715 24.4862 20.9591C24.3963 20.9468 24.3068 20.9324 24.2176 20.9158C24.1283 20.8994 24.0395 20.8808 23.9512 20.8601C23.8628 20.8394 23.775 20.8167 23.6878 20.792C23.6005 20.7673 23.5138 20.7405 23.4277 20.7116C23.3417 20.6829 23.2564 20.6521 23.1718 20.6194C23.0872 20.5865 23.0034 20.5518 22.9204 20.5152C22.8374 20.4784 22.7553 20.4398 22.6741 20.3993C22.5929 20.3588 22.5128 20.3165 22.4336 20.2722C22.3544 20.228 22.2762 20.1819 22.1991 20.134C22.1221 20.0861 22.0462 20.0365 21.9715 19.9851C21.8968 19.9336 21.8233 19.8805 21.751 19.8256C21.6787 19.7707 21.6078 19.7142 21.5381 19.6561C21.4661 19.5962 21.3956 19.5347 21.3266 19.4715C21.2576 19.4082 21.1901 19.3433 21.1243 19.2768C21.0585 19.2102 20.9943 19.1421 20.9318 19.0724C20.8694 19.0027 20.8087 18.9315 20.7496 18.8588C20.6906 18.7861 20.6334 18.7121 20.578 18.6366C20.5227 18.5612 20.4692 18.4844 20.4176 18.4064C20.366 18.3282 20.3163 18.2489 20.2685 18.1685C20.2207 18.0879 20.175 18.0063 20.1313 17.9236C20.0875 17.8408 20.0458 17.757 20.0062 17.6722C19.9665 17.5874 19.929 17.5017 19.8935 17.4151C19.8581 17.3285 19.8248 17.241 19.7936 17.1528C19.7624 17.0645 19.7334 16.9755 19.7066 16.8859C19.6797 16.7961 19.6551 16.7058 19.6327 16.615C19.6103 16.5241 19.5901 16.4327 19.5722 16.3408C19.5543 16.249 19.5386 16.1567 19.5251 16.0641C19.5117 15.9714 19.5006 15.8785 19.4917 15.7854C19.4825 15.6904 19.4757 15.5952 19.4712 15.4998C19.4668 15.4044 19.4647 15.309 19.4649 15.2136C19.4651 15.1181 19.4677 15.0228 19.4727 14.9275C19.4776 14.8321 19.4849 14.7369 19.4945 14.642C19.5042 14.547 19.5163 14.4523 19.5306 14.3579C19.5449 14.2636 19.5615 14.1696 19.5805 14.076C19.5994 13.9824 19.6207 13.8894 19.6443 13.797C19.6678 13.7045 19.6936 13.6126 19.7217 13.5213C19.7498 13.4301 19.7802 13.3396 19.8127 13.2499C19.8453 13.1601 19.88 13.0713 19.917 12.9833C19.9539 12.8953 19.993 12.8082 20.0343 12.7221C20.0756 12.636 20.1189 12.551 20.1644 12.4671C20.2098 12.3831 20.2573 12.3003 20.3068 12.2188C20.3564 12.1372 20.4079 12.0569 20.4613 11.9778C20.5149 11.8987 20.5703 11.821 20.6276 11.7447C20.685 11.6684 20.7442 11.5935 20.8052 11.5201C21.862 10.2696 23.2744 9.59031 24.8961 9.45248ZM24.8926 11.0385C23.7141 11.1715 22.7014 11.6523 21.9492 12.5914C21.9056 12.6462 21.8634 12.7021 21.8225 12.759C21.7816 12.8159 21.7422 12.8738 21.7042 12.9326C21.6663 12.9915 21.6298 13.0513 21.5947 13.1119C21.5597 13.1726 21.5262 13.2341 21.4943 13.2965C21.4623 13.3589 21.4319 13.422 21.4031 13.4858C21.3743 13.5496 21.3471 13.6142 21.3215 13.6794C21.2958 13.7446 21.2719 13.8104 21.2495 13.8768C21.2272 13.9432 21.2065 14.0101 21.1875 14.0776C21.1685 14.145 21.1512 14.2129 21.1356 14.2812C21.1199 14.3494 21.1059 14.418 21.0938 14.487C21.0815 14.556 21.071 14.6253 21.0622 14.6947C21.0534 14.7643 21.0464 14.834 21.041 14.9038C21.0357 14.9737 21.0321 15.0436 21.0303 15.1136C21.0285 15.1836 21.0284 15.2537 21.03 15.3237C21.0316 15.3938 21.035 15.4638 21.0401 15.5336C21.0452 15.6035 21.0521 15.6732 21.0607 15.7427C21.0691 15.8109 21.0793 15.8789 21.0911 15.9467C21.1029 16.0145 21.1164 16.0819 21.1315 16.149C21.1466 16.2161 21.1633 16.2828 21.1817 16.349C21.2 16.4153 21.22 16.4811 21.2416 16.5464C21.2632 16.6117 21.2864 16.6764 21.3111 16.7406C21.3359 16.8048 21.3622 16.8683 21.3901 16.9312C21.418 16.9941 21.4474 17.0562 21.4782 17.1177C21.5092 17.1791 21.5416 17.2398 21.5755 17.2996C21.6094 17.3595 21.6447 17.4184 21.6815 17.4766C21.7182 17.5347 21.7564 17.5919 21.7959 17.6482C21.8355 17.7044 21.8764 17.7597 21.9187 17.8139C21.961 17.8682 22.0046 17.9214 22.0494 17.9735C22.0943 18.0256 22.1404 18.0766 22.1878 18.1265C22.2352 18.1763 22.2838 18.225 22.3335 18.2725C22.3832 18.32 22.4341 18.3663 22.4861 18.4112C22.5382 18.4562 22.5913 18.4999 22.6454 18.5423C23.5009 19.2058 24.5162 19.4911 25.5914 19.4211C26.7624 19.3059 27.7799 18.7649 28.528 17.8533C28.5707 17.8005 28.612 17.7466 28.652 17.6916C28.692 17.6367 28.7306 17.5809 28.7679 17.5241C28.8052 17.4673 28.8411 17.4096 28.8755 17.3511C28.91 17.2926 28.943 17.2332 28.9746 17.1731C29.0062 17.113 29.0363 17.0521 29.065 16.9904C29.0935 16.9289 29.1206 16.8666 29.1462 16.8036C29.1718 16.7407 29.1958 16.6772 29.2183 16.6131C29.2408 16.549 29.2617 16.4844 29.2811 16.4193C29.3004 16.3542 29.3181 16.2886 29.3343 16.2226C29.3504 16.1566 29.365 16.0903 29.3778 16.0236C29.3907 15.9569 29.402 15.8899 29.4117 15.8227C29.4214 15.7554 29.4293 15.688 29.4357 15.6204C29.442 15.5528 29.4468 15.485 29.4498 15.4171C29.4529 15.3493 29.4543 15.2814 29.454 15.2135C29.4538 15.1455 29.4519 15.0776 29.4484 15.0098C29.4448 14.9419 29.4396 14.8742 29.4327 14.8067C29.426 14.7378 29.4176 14.6693 29.4075 14.6009C29.3974 14.5325 29.3856 14.4644 29.3721 14.3966C29.3586 14.3288 29.3435 14.2614 29.3267 14.1944C29.3099 14.1273 29.2914 14.0607 29.2713 13.9945C29.2512 13.9284 29.2295 13.8628 29.2062 13.7978C29.1828 13.7327 29.1578 13.6682 29.1313 13.6044C29.1048 13.5405 29.0767 13.4774 29.047 13.415C29.0174 13.3525 28.9862 13.2909 28.9534 13.23C28.9207 13.1691 28.8866 13.109 28.8509 13.0498C28.8152 12.9906 28.7781 12.9323 28.7396 12.8749C28.701 12.8176 28.6611 12.7612 28.6197 12.7058C28.5784 12.6504 28.5357 12.596 28.4916 12.5427C28.4476 12.4894 28.4023 12.4373 28.3557 12.3862C28.3091 12.3352 28.2612 12.2853 28.2121 12.2366C28.1631 12.1879 28.1129 12.1405 28.0614 12.0943C28.01 12.0481 27.9575 12.0032 27.9038 11.9596C27.1001 11.3053 25.9784 10.9173 24.9371 11.0331L24.8926 11.0385Z" fill="#93C704"/>
<path d="M26.6175 13.4536C26.8008 13.4651 26.952 13.5115 27.0961 13.6298C27.1164 13.6461 27.1357 13.6635 27.1541 13.6818C27.1726 13.7002 27.1901 13.7194 27.2067 13.7396C27.2231 13.7596 27.2386 13.7805 27.253 13.8021C27.2674 13.8238 27.2807 13.8462 27.2928 13.8692C27.305 13.8922 27.3159 13.9158 27.3256 13.9399C27.3354 13.9641 27.3439 13.9886 27.3511 14.0136C27.3584 14.0386 27.3644 14.0639 27.3691 14.0895C27.3737 14.1151 27.3771 14.1409 27.3792 14.1668C27.3966 14.3915 27.3121 14.5877 27.1692 14.7565C26.8511 15.1321 26.4596 15.4741 26.1092 15.8218C25.8047 16.1238 25.3463 16.6463 25.0109 16.8708C24.8986 16.9459 24.7436 16.9967 24.6085 17.002C24.3396 17.0124 24.0944 16.811 23.9066 16.641C23.6436 16.3796 23.1788 16.0184 23.1115 15.6348C23.0747 15.4245 23.1328 15.1954 23.254 15.0212C23.3626 14.8651 23.5231 14.7531 23.7129 14.7242C24.0675 14.6701 24.354 14.9007 24.6239 15.0924C25.0056 14.6339 25.7169 13.8512 26.2261 13.5773C26.3552 13.5079 26.4748 13.4782 26.6175 13.4536Z" fill="#93C704"/>
</g>
<defs>
<clipPath id="clip0_212_1250">
<rect width="50" height="50" fill="white" transform="translate(0.243652 0.458496)"/>
</clipPath>
</defs>
</svg>
