<svg width="51" height="51" viewBox="0 0 51 51" fill="none" xmlns="http://www.w3.org/2000/svg">
<g clip-path="url(#clip0_212_1266)">
<path d="M0.577148 0.458496H9.91481H14.1896H40.0368H41.7319H50.5771V9.28536V11.0255V47.2478V48.1049V50.4585H48.2563H47.3357H11.161H9.41979H0.577148V41.5422V39.9955V14.0539V9.8114V0.458496ZM28.7417 14.6045C26.6291 14.7059 24.5495 15.201 22.6638 16.1756C22.1145 16.4595 21.6124 16.7999 21.0774 17.1031C21.2889 17.3992 21.7685 17.9934 21.725 18.3634C21.7104 18.4885 21.575 18.6356 21.4937 18.73C21.0188 19.2811 20.448 19.7856 19.9326 20.3025C19.6423 20.5937 19.0158 21.2858 18.7199 21.4891C18.628 21.5522 18.4953 21.5899 18.3878 21.6176C17.9695 21.5058 17.5691 21.2107 17.2162 20.962C16.8487 21.564 16.4737 22.168 16.1709 22.8058C14.7851 25.7254 14.3246 29.1618 15.0833 32.3212L15.1057 32.3378C15.4506 32.5896 15.8356 32.7811 16.1714 33.0475C18.0923 34.5716 19.4558 36.7125 19.8491 39.1516C19.9107 39.5339 19.9371 39.9202 19.9818 40.3048C20.1316 40.4282 20.2839 40.5485 20.4386 40.6657C20.5932 40.783 20.7501 40.8971 20.9094 41.008C21.0687 41.1189 21.2301 41.2267 21.3937 41.3312C21.5573 41.4356 21.7229 41.5367 21.8905 41.6345C22.0582 41.7323 22.2277 41.8267 22.3991 41.9177C22.5706 42.0086 22.7438 42.0961 22.9188 42.1801C23.0937 42.2641 23.2702 42.3446 23.4484 42.4215C23.6266 42.4984 23.8063 42.5717 23.9875 42.6414C24.1686 42.7111 24.3511 42.7771 24.5349 42.8395C24.7187 42.9018 24.9036 42.9604 25.0898 43.0153C25.276 43.0702 25.4632 43.1214 25.6514 43.1688C25.8396 43.2161 26.0287 43.2597 26.2187 43.2995C26.4086 43.3393 26.5993 43.3752 26.7907 43.4073C26.9821 43.4394 27.1741 43.4677 27.3666 43.4921C27.5592 43.5164 27.7521 43.5369 27.9455 43.5536C28.1389 43.5702 28.3325 43.5829 28.5264 43.5918C29.3285 43.6131 30.1315 43.6065 30.9295 43.5129C31.1217 43.49 31.3133 43.4634 31.5045 43.4329C31.6956 43.4025 31.8861 43.3683 32.076 43.3304C32.2658 43.2924 32.4547 43.2506 32.6429 43.2052C32.831 43.1597 33.0182 43.1105 33.2044 43.0576C33.3906 43.0047 33.5756 42.9481 33.7596 42.888C33.9436 42.8278 34.1262 42.7639 34.3076 42.6965C34.4891 42.629 34.6691 42.5579 34.8478 42.4834C35.0263 42.4088 35.2034 42.3307 35.3789 42.2491C35.5544 42.1675 35.7283 42.0825 35.9004 41.9939C36.0726 41.9055 36.2429 41.8136 36.4114 41.7185C36.5799 41.6232 36.7465 41.5247 36.9111 41.4229C37.0757 41.321 37.2383 41.216 37.3987 41.1077C37.5591 40.9994 37.7174 40.8881 37.8734 40.7735C38.0294 40.659 38.1831 40.5414 38.3346 40.4208C38.4859 40.3002 38.6349 40.1766 38.7813 40.05C38.9278 39.9235 39.0717 39.7941 39.2131 39.6619C39.2979 39.5817 39.3816 39.5005 39.4645 39.4183C39.5472 39.336 39.629 39.2528 39.7098 39.1686C39.7905 39.0844 39.8702 38.9992 39.9489 38.913C40.0276 38.8268 40.1052 38.7397 40.1817 38.6517C40.2584 38.5636 40.3339 38.4746 40.4082 38.3847C40.4826 38.2948 40.5559 38.204 40.6281 38.1123C40.7003 38.0206 40.7713 37.9281 40.8413 37.8347C40.9112 37.7412 40.98 37.647 41.0477 37.552C41.1152 37.4568 41.1817 37.3609 41.247 37.2643C41.3123 37.1675 41.3764 37.07 41.4394 36.9718C41.5022 36.8735 41.564 36.7744 41.6245 36.6747C41.685 36.5749 41.7443 36.4744 41.8023 36.3731C41.8604 36.272 41.9173 36.1701 41.9729 36.0675C42.0284 35.9649 42.0827 35.8616 42.1357 35.7576C42.1888 35.6537 42.2406 35.5492 42.2911 35.4439C42.3416 35.3387 42.3909 35.2329 42.4388 35.1266C42.4868 35.0202 42.5334 34.9132 42.5787 34.8058C42.6241 34.6982 42.6681 34.5901 42.7107 34.4815C42.7534 34.3729 42.7948 34.2638 42.8349 34.1542C42.8749 34.0446 42.9136 33.9346 42.951 33.824C42.9883 33.7135 43.0244 33.6025 43.0591 33.491C43.0937 33.3796 43.127 33.2678 43.1589 33.1556C43.1909 33.0433 43.2214 32.9307 43.2506 32.8178C43.2798 32.7048 43.3076 32.5914 43.3341 32.4778C43.3605 32.3642 43.3855 32.2502 43.4092 32.1359C43.4328 32.0217 43.4551 31.9071 43.476 31.7923C43.4968 31.6775 43.5163 31.5625 43.5344 31.4472C43.5524 31.3319 43.569 31.2164 43.5843 31.1007C43.5996 30.985 43.6134 30.8691 43.6258 30.7531C43.6382 30.6371 43.6493 30.5209 43.6589 30.4046C43.6685 30.2883 43.6766 30.1719 43.6834 30.0555C43.6902 29.9389 43.6955 29.8224 43.6994 29.7058C43.7184 28.9674 43.7111 28.2254 43.6369 27.4898C43.6079 27.2253 43.5717 26.9618 43.5283 26.6992C43.4848 26.4367 43.4342 26.1756 43.3764 25.9158C43.3186 25.6561 43.2537 25.3981 43.1817 25.1419C43.1097 24.8857 43.0308 24.6317 42.9448 24.3799C42.8589 24.1281 42.7661 23.8788 42.6664 23.632C42.5667 23.3853 42.4604 23.1415 42.3474 22.9006C42.2343 22.6597 42.1147 22.4221 41.9886 22.1878C41.8625 21.9534 41.73 21.7227 41.5912 21.4957C41.2355 20.9188 40.8266 20.3966 40.4311 19.8493C39.875 19.7855 39.3179 19.7364 38.7703 19.6153C38.6348 19.5853 38.5 19.5523 38.3659 19.5165C38.2319 19.4806 38.0986 19.4419 37.9662 19.4004C37.8338 19.3589 37.7023 19.3145 37.5718 19.2673C37.4413 19.2201 37.3119 19.1702 37.1835 19.1174C37.0551 19.0646 36.9279 19.0092 36.802 18.9511C36.6759 18.8929 36.5512 18.832 36.4278 18.7685C36.3045 18.7049 36.1825 18.6388 36.0619 18.57C35.9414 18.5013 35.8224 18.4299 35.7049 18.3561C35.5874 18.2822 35.4715 18.2058 35.3573 18.127C35.2431 18.0481 35.1306 17.9669 35.0198 17.8832C34.9091 17.7995 34.8003 17.7136 34.6932 17.6253C34.5861 17.5369 34.481 17.4464 34.3778 17.3535C34.2747 17.2607 34.1736 17.1657 34.0745 17.0686C33.9754 16.9714 33.8784 16.8721 33.7836 16.7708C33.6887 16.6694 33.5961 16.5661 33.5058 16.4608C33.4153 16.3555 33.3272 16.2483 33.2414 16.1393C32.9506 15.7715 32.6804 15.3667 32.4496 14.9589C31.5563 14.7169 29.6577 14.492 28.7417 14.6045ZM10.5971 1.63028C10.5209 2.09203 10.2919 3.38539 10.1275 3.76934C10.0781 3.88456 10.0257 3.97471 9.92061 4.0468C9.69032 4.20481 9.38296 4.24599 9.12713 4.35354C8.79407 4.49356 8.4597 4.69084 8.11767 4.80161C8.01253 4.83566 7.91166 4.86053 7.80117 4.83857C7.4458 4.76795 6.15351 3.86096 5.79451 3.60864C5.48562 3.96648 5.1424 4.29562 4.8082 4.62955C4.45492 4.98256 4.10602 5.34207 3.73983 5.68165C4.04379 6.12284 4.72191 7.0651 4.90832 7.51807C4.95181 7.62372 4.9848 7.74698 4.96493 7.86166C4.90021 8.23507 4.61104 8.67653 4.46555 9.04059C4.38364 9.2455 4.33793 9.46763 4.24772 9.66791C4.21106 9.74931 4.15367 9.85593 4.07674 9.90565C3.72304 10.1343 2.21579 10.38 1.74797 10.4785C1.77593 11.4459 1.76729 12.4216 1.75369 13.3895L3.07653 13.6653C3.33647 13.7201 3.62341 13.7588 3.86912 13.8604C3.99057 13.9106 4.12123 13.9898 4.19476 14.102C4.24187 14.1738 4.26802 14.2612 4.29716 14.3415C4.39388 14.6078 4.48064 14.8824 4.59447 15.1419C4.7015 15.3857 4.84774 15.6237 4.93051 15.8768C4.96207 15.9732 4.99342 16.0946 4.96996 16.1962C4.88062 16.5827 4.01067 17.761 3.74043 18.1901C4.17521 18.6075 4.60407 19.0308 5.02698 19.4602C5.28599 19.7194 5.57282 19.9751 5.79839 20.2635C6.17624 19.9766 7.30392 19.183 7.70965 19.0392C7.78187 19.0136 7.85612 19.0068 7.93208 19.0154C8.29777 19.057 8.66906 19.3292 9.0114 19.4635C9.25889 19.5604 9.53257 19.6265 9.7703 19.7437C9.86077 19.7883 9.97557 19.8456 10.0371 19.9281C10.2289 20.1849 10.5446 21.8374 10.5934 22.2342C11.5587 22.225 12.5404 22.1962 13.5044 22.2386C13.6082 21.7084 13.827 20.3895 14.0362 19.9662C14.0671 19.9039 14.1149 19.8571 14.1717 19.8179C14.4163 19.6487 14.7579 19.5988 15.0312 19.4852C15.3503 19.3525 15.6601 19.165 15.9877 19.0598C16.1007 19.0234 16.1985 19.0032 16.3163 19.0283C16.6733 19.1045 17.9592 20.0044 18.3065 20.2576C18.9417 19.5295 19.6818 18.8623 20.3663 18.1786C20.1203 17.8318 19.8908 17.4728 19.6581 17.117C19.5015 16.8775 19.3199 16.6315 19.202 16.3708C19.1526 16.2617 19.1173 16.1522 19.1363 16.0318C19.2006 15.6261 19.4905 15.2129 19.6414 14.8282C19.7269 14.6103 19.7744 14.3657 19.882 14.1585C19.9238 14.078 19.9789 13.994 20.0549 13.942C20.343 13.7447 21.9201 13.4824 22.3629 13.3828C22.3189 12.4205 22.3436 11.4439 22.352 10.4804C21.9021 10.377 20.4472 10.1251 20.1321 9.96814C20.0385 9.9215 19.9678 9.84801 19.9136 9.75946C19.7639 9.51505 19.7092 9.20294 19.5998 8.93763C19.458 8.5934 19.2447 8.25568 19.1488 7.89669C19.1249 7.80697 19.1324 7.72085 19.1574 7.6321C19.272 7.22551 20.0883 6.0986 20.362 5.68111L19.0346 4.35886C18.7907 4.11483 18.5242 3.8739 18.3042 3.60843C17.9764 3.85469 17.6205 4.07046 17.277 4.29418C17.0383 4.44952 16.7956 4.63267 16.5388 4.75495C16.414 4.81441 16.2796 4.86455 16.1396 4.8421C15.8254 4.79169 15.5313 4.57162 15.2379 4.45236C14.8591 4.29836 14.4359 4.20211 14.0867 3.988C13.8312 3.57581 13.6191 2.18068 13.4998 1.63146C12.5357 1.63305 11.5604 1.6621 10.5971 1.63028ZM40.2995 1.66483C37.9302 1.85857 35.8653 2.92817 34.3213 4.7344C32.9281 6.36419 32.2144 8.67073 32.389 10.8017C32.3942 10.8729 32.4003 10.9441 32.4073 11.0152C32.4144 11.0863 32.4223 11.1574 32.4311 11.2283C32.4398 11.2992 32.4495 11.37 32.4601 11.4406C32.4707 11.5113 32.4821 11.5819 32.4944 11.6522C32.5068 11.7226 32.5201 11.7928 32.5342 11.8629C32.5482 11.9329 32.5632 12.0028 32.5791 12.0725C32.595 12.1422 32.6117 12.2117 32.6293 12.2809C32.6469 12.3501 32.6654 12.4192 32.6848 12.488C32.7041 12.5567 32.7243 12.6253 32.7454 12.6936C32.7665 12.7618 32.7884 12.8299 32.8111 12.8976C32.8339 12.9653 32.8576 13.0328 32.882 13.0999C32.9065 13.167 32.9318 13.2339 32.958 13.3004C32.9841 13.3669 33.0111 13.433 33.039 13.4988C33.0668 13.5646 33.0954 13.6301 33.1248 13.6952C33.1543 13.7603 33.1846 13.8251 33.2156 13.8895C33.2467 13.9538 33.2786 14.0177 33.3113 14.0812C33.344 14.1448 33.3775 14.2079 33.4118 14.2706C33.4461 14.3333 33.4811 14.3956 33.517 14.4574C33.5528 14.5192 33.5894 14.5806 33.6269 14.6415C33.6642 14.7024 33.7023 14.7628 33.7412 14.8228C33.7801 14.8826 33.8198 14.9421 33.8603 15.0011C33.9006 15.06 33.9417 15.1184 33.9836 15.1764C34.0255 15.2342 34.068 15.2916 34.1113 15.3484C34.1547 15.4053 34.1987 15.4616 34.2434 15.5173C34.2881 15.573 34.3335 15.6282 34.3797 15.6828C34.4258 15.7374 34.4726 15.7914 34.52 15.8448C34.5675 15.8983 34.6156 15.9511 34.6644 16.0032C34.7132 16.0554 34.7626 16.107 34.8127 16.158C34.8628 16.209 34.9135 16.2593 34.9648 16.309C35.0162 16.3587 35.0682 16.4078 35.1208 16.4562C35.1734 16.5045 35.2266 16.5522 35.2804 16.5993C35.3341 16.6463 35.3885 16.6927 35.4435 16.7384C37.107 18.1405 39.3626 18.84 41.5256 18.673C43.8832 18.4825 45.9551 17.3592 47.4831 15.5581C48.8479 13.9494 49.5581 11.6501 49.377 9.55105C49.1747 7.20829 48.1206 5.11996 46.3135 3.60429C46.2098 3.51791 46.1042 3.43407 45.9965 3.35275C45.8888 3.27143 45.7792 3.19273 45.6678 3.11666C45.5563 3.04059 45.4431 2.96722 45.3281 2.89655C45.2132 2.8259 45.0966 2.75802 44.9784 2.69294C44.8602 2.62786 44.7405 2.56564 44.6193 2.50629C44.4981 2.44693 44.3756 2.3905 44.2517 2.33701C44.1278 2.28352 44.0027 2.23301 43.8765 2.18551C43.7502 2.13799 43.6228 2.09353 43.4943 2.05212C43.3659 2.0107 43.2366 1.97238 43.1063 1.93715C42.9761 1.90192 42.845 1.86983 42.7132 1.84087C42.5814 1.8119 42.449 1.78611 42.316 1.76349C42.1829 1.74086 42.0494 1.72143 41.9155 1.7052C41.7815 1.68895 41.6473 1.67592 41.5127 1.66611C41.3781 1.6563 41.2434 1.6497 41.1085 1.64634C40.9736 1.64297 40.8387 1.64282 40.7038 1.64591C40.5688 1.64899 40.4341 1.6553 40.2995 1.66483ZM9.92919 32.3068C7.75054 32.3849 5.59798 33.3153 4.10198 34.9129C4.05308 34.9645 4.00482 35.0166 3.95723 35.0694C3.90963 35.1222 3.8627 35.1755 3.81644 35.2295C3.77018 35.2834 3.7246 35.3379 3.67971 35.3931C3.63481 35.4481 3.59061 35.5038 3.54711 35.56C3.50361 35.6161 3.46081 35.6729 3.41873 35.7302C3.37665 35.7874 3.33529 35.8452 3.29466 35.9035C3.25402 35.9618 3.21412 36.0206 3.17496 36.0799C3.1358 36.1392 3.09739 36.199 3.05972 36.2593C3.02205 36.3196 2.98515 36.3803 2.94901 36.4414C2.91287 36.5026 2.87749 36.5643 2.84289 36.6264C2.80829 36.6884 2.77448 36.7509 2.74145 36.8139C2.70841 36.8768 2.67617 36.9401 2.64472 37.0038C2.61327 37.0675 2.58262 37.1317 2.55278 37.1962C2.52294 37.2606 2.49391 37.3255 2.46568 37.3907C2.43747 37.456 2.41007 37.5215 2.3835 37.5874C2.35692 37.6534 2.33117 37.7196 2.30625 37.7861C2.28133 37.8527 2.25726 37.9195 2.23401 37.9867C2.21077 38.0538 2.18837 38.1213 2.16682 38.1891C2.14526 38.2568 2.12456 38.3247 2.10471 38.393C2.08486 38.4612 2.06586 38.5297 2.04772 38.5983C2.02959 38.6671 2.01231 38.736 1.9959 38.8052C1.97949 38.8743 1.96395 38.9436 1.94928 39.0132C1.9346 39.0827 1.9208 39.1524 1.90787 39.2223C1.89494 39.2922 1.88289 39.3622 1.87172 39.4324C1.86055 39.5026 1.85025 39.5729 1.84084 39.6434C1.83143 39.7138 1.8229 39.7843 1.81525 39.855C1.8076 39.9256 1.80084 39.9964 1.79497 40.0672C1.78909 40.138 1.7841 40.2089 1.78001 40.2799C1.77591 40.3508 1.7727 40.4217 1.77038 40.4928C1.76806 40.5638 1.76662 40.6349 1.76608 40.706C1.76554 40.7771 1.76589 40.8481 1.76713 40.9191C1.76837 40.9902 1.77049 41.0612 1.77351 41.1322C1.7766 41.2014 1.78055 41.2706 1.78533 41.3397C1.79011 41.4089 1.79573 41.478 1.80219 41.547C1.80865 41.6159 1.81594 41.6848 1.82406 41.7536C1.83219 41.8224 1.84116 41.8911 1.85096 41.9598C1.86076 42.0284 1.87139 42.0969 1.88285 42.1652C1.89431 42.2335 1.9066 42.3017 1.91972 42.3697C1.93284 42.4378 1.94678 42.5056 1.96154 42.5733C1.97631 42.641 1.99189 42.7086 2.0083 42.776C2.0247 42.8433 2.04192 42.9104 2.05995 42.9772C2.07799 43.0442 2.09683 43.1109 2.11648 43.1773C2.13614 43.2438 2.1566 43.3099 2.17786 43.3759C2.19912 43.4418 2.22118 43.5075 2.24403 43.5729C2.26688 43.6384 2.29053 43.7035 2.31497 43.7684C2.3394 43.8332 2.36463 43.8978 2.39063 43.962C2.41664 44.0262 2.44341 44.0901 2.47097 44.1537C2.49853 44.2173 2.52685 44.2805 2.55594 44.3434C2.58503 44.4062 2.61488 44.4688 2.64549 44.531C2.6761 44.5931 2.70746 44.6549 2.73957 44.7164C2.77168 44.7778 2.80453 44.8388 2.83812 44.8994C2.87171 44.96 2.90603 45.0202 2.94108 45.08C2.97614 45.1397 3.01191 45.1991 3.04841 45.258C3.0849 45.3169 3.1221 45.3754 3.16002 45.4333C3.19793 45.4913 3.23654 45.5489 3.27585 45.606C3.31516 45.663 3.35516 45.7196 3.39584 45.7757C3.43652 45.8318 3.47788 45.8874 3.51991 45.9425C3.56195 45.9976 3.60465 46.0521 3.64801 46.1062C3.69137 46.1603 3.73537 46.2138 3.78003 46.2668C3.82469 46.3197 3.86999 46.3721 3.91592 46.424C3.96185 46.4759 4.0084 46.5272 4.05558 46.578C4.10276 46.6288 4.15054 46.679 4.19894 46.7285C4.24733 46.7781 4.29632 46.8271 4.34591 46.8756C4.39549 46.924 4.44566 46.9717 4.49641 47.0189C5.7544 48.1756 7.40909 48.9832 9.11091 49.1968C9.37842 49.2304 9.65164 49.2638 9.92125 49.2697C10.1511 49.2748 10.3811 49.2599 10.6107 49.2724C10.9698 49.2475 11.3309 49.2218 11.6859 49.1604C11.8049 49.1399 11.9233 49.117 12.0413 49.0915C12.1593 49.066 12.2767 49.038 12.3935 49.0075C12.5102 48.9771 12.6263 48.9441 12.7417 48.9088C12.8571 48.8734 12.9716 48.8355 13.0855 48.7953C13.1993 48.7551 13.3121 48.7124 13.4241 48.6674C13.5361 48.6224 13.6471 48.575 13.757 48.5253C13.867 48.4756 13.9758 48.4235 14.0836 48.3692C14.1914 48.3149 14.298 48.2583 14.4033 48.1994C14.5087 48.1406 14.6128 48.0795 14.7155 48.0163C14.8183 47.953 14.9197 47.8876 15.0197 47.82C15.1198 47.7525 15.2183 47.6829 15.3153 47.6111C15.4124 47.5394 15.5079 47.4657 15.6019 47.3899C15.6958 47.3142 15.7881 47.2364 15.8788 47.1567C15.9694 47.077 16.0583 46.9955 16.1455 46.912C16.2327 46.8285 16.3181 46.7433 16.4017 46.6562C16.4853 46.5692 16.567 46.4804 16.6468 46.3898C16.6918 46.338 16.7362 46.2857 16.78 46.2328C16.8237 46.1799 16.8668 46.1265 16.9093 46.0726C16.9518 46.0187 16.9936 45.9642 17.0348 45.9093C17.0759 45.8543 17.1164 45.7989 17.1562 45.743C17.1959 45.687 17.235 45.6306 17.2734 45.5737C17.3118 45.5169 17.3496 45.4596 17.3866 45.4018C17.4237 45.3439 17.46 45.2857 17.4956 45.2271C17.5312 45.1684 17.5661 45.1093 17.6003 45.0497C17.6345 44.9902 17.6679 44.9303 17.7007 44.8699C17.7334 44.8096 17.7653 44.7488 17.7966 44.6877C17.8278 44.6266 17.8583 44.5652 17.8881 44.5033C17.9178 44.4414 17.9468 44.3792 17.9751 44.3166C18.0034 44.254 18.0308 44.1911 18.0575 44.1279C18.0842 44.0647 18.1102 44.0012 18.1354 43.9373C18.1605 43.8734 18.1849 43.8093 18.2085 43.7448C18.2321 43.6804 18.2549 43.6157 18.277 43.5507C18.299 43.4856 18.3203 43.4204 18.3407 43.3549C18.3612 43.2893 18.3808 43.2235 18.3996 43.1575C18.4185 43.0916 18.4366 43.0254 18.4538 42.9589C18.4711 42.8924 18.4875 42.8258 18.5031 42.759C18.5187 42.6921 18.5335 42.6251 18.5475 42.5579C18.5615 42.4907 18.5746 42.4234 18.587 42.3559C18.5994 42.2883 18.6109 42.2206 18.6217 42.1528C18.6324 42.0851 18.6422 42.0172 18.6513 41.9491C18.6603 41.881 18.6686 41.8129 18.676 41.7446C18.6834 41.6764 18.69 41.6081 18.6957 41.5396C18.7014 41.4713 18.7063 41.4028 18.7104 41.3343C18.7146 41.2658 18.7178 41.1972 18.7202 41.1286C18.7226 41.0601 18.7242 40.9914 18.725 40.9228C18.7257 40.8541 18.7256 40.7855 18.7247 40.7169C18.7238 40.6483 18.722 40.5797 18.7194 40.511C18.7168 40.4424 18.7134 40.3739 18.7092 40.3054C18.7051 40.2351 18.7001 40.1649 18.6942 40.0947C18.6884 40.0246 18.6816 39.9546 18.674 39.8846C18.6664 39.8146 18.6579 39.7447 18.6486 39.675C18.6393 39.6052 18.629 39.5356 18.618 39.4661C18.6069 39.3966 18.595 39.3272 18.5822 39.258C18.5694 39.1888 18.5558 39.1198 18.5413 39.0509C18.5268 38.982 18.5114 38.9133 18.4952 38.8448C18.479 38.7763 18.4619 38.708 18.444 38.6399C18.4261 38.5719 18.4074 38.5041 18.3878 38.4364C18.3682 38.3689 18.3478 38.3015 18.3265 38.2345C18.3052 38.1674 18.2831 38.1005 18.2602 38.034C18.2372 37.9674 18.2135 37.9012 18.189 37.8353C18.1644 37.7692 18.139 37.7036 18.1128 37.6383C18.0866 37.573 18.0596 37.508 18.0317 37.4433C18.0039 37.3786 17.9753 37.3143 17.9459 37.2504C17.9165 37.1865 17.8863 37.1229 17.8553 37.0597C17.8243 36.9965 17.7925 36.9337 17.76 36.8713C17.7274 36.8089 17.6941 36.7469 17.6601 36.6854C17.6259 36.6238 17.5911 36.5626 17.5555 36.5019C17.5199 36.4412 17.4835 36.3809 17.4464 36.3211C17.4093 36.2613 17.3715 36.202 17.3329 36.1431C17.2943 36.0842 17.255 36.0258 17.2149 35.968C17.1749 35.9101 17.1342 35.8527 17.0928 35.7958C17.0513 35.7389 17.0091 35.6826 16.9663 35.6268C16.9234 35.5709 16.8799 35.5156 16.8356 35.4608C16.7914 35.4061 16.7465 35.3519 16.7009 35.2982C16.6553 35.2446 16.6091 35.1915 16.5622 35.1391C16.5153 35.0866 16.4678 35.0347 16.4196 34.9834C16.3715 34.9321 16.3226 34.8814 16.2731 34.8312C16.2237 34.7812 16.1737 34.7317 16.1229 34.6829C16.0723 34.634 16.021 34.5858 15.9691 34.5383C15.9173 34.4907 15.8649 34.4437 15.8118 34.3975C14.0838 32.9035 12.1969 32.2981 9.92919 32.3068ZM39.1899 41.2727C38.7913 41.649 38.296 41.9706 37.8387 42.2705C37.7004 42.3615 37.5607 42.4502 37.4195 42.5366C37.2785 42.6231 37.136 42.7073 36.9922 42.7893C36.8484 42.8712 36.7033 42.9508 36.5569 43.0281C36.4106 43.1054 36.263 43.1803 36.1143 43.2529C35.9655 43.3255 35.8156 43.3957 35.6646 43.4636C35.5137 43.5313 35.3617 43.5967 35.2086 43.6597C35.0555 43.7226 34.9015 43.7831 34.7465 43.8412C34.5915 43.8993 34.4356 43.9549 34.2788 44.0079C34.122 44.061 33.9645 44.1115 33.8061 44.1596C33.6477 44.2076 33.4886 44.2531 33.3288 44.2961C33.169 44.3391 33.0085 44.3795 32.8474 44.4174C32.6862 44.4552 32.5245 44.4905 32.3623 44.5231C32.2 44.5558 32.0372 44.5859 31.874 44.6135C31.7109 44.6409 31.5473 44.6658 31.3832 44.6881C31.2192 44.7104 31.0549 44.7301 30.8903 44.7471C30.7257 44.7641 30.5608 44.7785 30.3957 44.7903C30.2057 44.8042 30.0154 44.8146 29.825 44.8216C29.6345 44.8285 29.444 44.832 29.2534 44.832C29.0629 44.832 28.8724 44.8286 28.6819 44.8218C28.4915 44.8149 28.3012 44.8045 28.1111 44.7907C27.9211 44.7769 27.7313 44.7597 27.5419 44.7391C27.3525 44.7184 27.1635 44.6942 26.9749 44.6667C26.7864 44.6392 26.5984 44.6082 26.4109 44.5738C26.2235 44.5395 26.0368 44.5017 25.8507 44.4605C25.6646 44.4194 25.4793 44.3749 25.2948 44.327C25.1104 44.2791 24.9269 44.2279 24.7443 44.1733C24.5617 44.1188 24.3802 44.0609 24.1997 43.9998C24.0192 43.9387 23.8398 43.8743 23.6617 43.8066C23.4835 43.739 23.3066 43.6681 23.1311 43.594C22.9555 43.52 22.7814 43.4428 22.6086 43.3624C22.4358 43.282 22.2646 43.1985 22.0948 43.1119C21.925 43.0253 21.7569 42.9356 21.5904 42.8429C21.0217 42.5276 20.4189 42.1764 19.9239 41.7544C19.8687 42.8301 19.5081 43.9488 19.0547 44.9181C19.0187 44.9934 18.9817 45.0682 18.9438 45.1426C18.906 45.217 18.8671 45.2909 18.8273 45.3643C18.7876 45.4376 18.7468 45.5105 18.7052 45.5828C18.6635 45.6551 18.6209 45.7269 18.5773 45.7981C18.5339 45.8694 18.4895 45.94 18.4441 46.0102C18.3988 46.0802 18.3526 46.1497 18.3055 46.2187C18.2583 46.2875 18.2104 46.3558 18.1615 46.4235C18.1126 46.4912 18.0629 46.5582 18.0123 46.6246C17.9617 46.691 17.9103 46.7568 17.858 46.8219C17.8058 46.8869 17.7527 46.9513 17.6987 47.015C17.6448 47.0788 17.5901 47.1418 17.5346 47.2041C17.479 47.2664 17.4227 47.328 17.3655 47.3889C17.3084 47.4497 17.2506 47.5099 17.1919 47.5692C17.1332 47.6286 17.0738 47.6872 17.0136 47.7451C16.9534 47.8029 16.8925 47.86 16.8309 47.9163C16.7693 47.9726 16.7069 48.028 16.6438 48.0827C16.5808 48.1374 16.517 48.1913 16.4525 48.2443C16.3882 48.2974 16.323 48.3496 16.2572 48.401C16.1915 48.4524 16.125 48.503 16.0579 48.5526C15.9909 48.6023 15.9231 48.6511 15.8548 48.699C15.7864 48.7469 15.7175 48.794 15.6479 48.8401C15.5784 48.8863 15.5083 48.9316 15.4376 48.976C15.3669 49.0203 15.2956 49.0638 15.2238 49.1063C15.152 49.1489 15.0797 49.1905 15.0067 49.2312C14.9338 49.2718 14.8604 49.3116 14.7865 49.3503C14.7126 49.3891 14.6382 49.427 14.5634 49.4639C14.4884 49.5007 14.4131 49.5366 14.3373 49.5716C14.2615 49.6065 14.1853 49.6405 14.1086 49.6735C14.0319 49.7065 13.9548 49.7385 13.8773 49.7695C13.7998 49.8005 13.7219 49.8305 13.6437 49.8596C13.5654 49.8885 13.4868 49.9165 13.4078 49.9436C13.3288 49.9706 13.2494 49.9965 13.1698 50.0215C12.8121 50.1361 12.4485 50.2268 12.0789 50.2935C11.8179 50.3395 11.4391 50.3486 11.2016 50.4418C11.188 50.4472 11.1745 50.4529 11.161 50.4585H47.3357C47.2422 50.4089 47.1274 50.3891 47.0267 50.3552C46.725 50.2538 46.4222 50.1341 46.1615 49.9486C45.812 49.7 45.5003 49.3484 45.1975 49.0457L43.7788 47.6274L41.2527 45.1035C40.7905 44.6424 40.31 44.1903 39.8653 43.7124C39.7237 43.5603 39.5443 43.3706 39.5581 43.151C39.5803 42.7973 39.9536 42.5236 40.1939 42.2989C39.8563 41.9646 39.4957 41.6363 39.1899 41.2727ZM50.5771 11.0255C50.5747 11.0335 50.5722 11.0415 50.5698 11.0495C50.4894 11.3289 50.4771 11.6407 50.4332 11.9286C50.3874 12.2291 50.3085 12.527 50.2235 12.8186C50.2017 12.8947 50.1789 12.9705 50.1552 13.046C50.1315 13.1215 50.1069 13.1967 50.0813 13.2717C50.0558 13.3466 50.0294 13.4212 50.002 13.4954C49.9746 13.5697 49.9464 13.6437 49.9172 13.7173C49.888 13.7909 49.8579 13.8641 49.827 13.9369C49.796 14.0098 49.7641 14.0822 49.7314 14.1543C49.6987 14.2264 49.6651 14.298 49.6306 14.3692C49.5961 14.4405 49.5607 14.5113 49.5244 14.5816C49.4882 14.652 49.4511 14.722 49.4132 14.7915C49.3752 14.861 49.3365 14.9299 49.2969 14.9984C49.2572 15.067 49.2168 15.135 49.1755 15.2025C49.1341 15.2701 49.092 15.3371 49.0491 15.4036C49.0062 15.4701 48.9625 15.536 48.9179 15.6015C48.8733 15.6669 48.828 15.7318 48.7818 15.7961C48.7357 15.8604 48.6888 15.9242 48.6411 15.9874C48.5934 16.0506 48.5449 16.1131 48.4957 16.1751C48.4465 16.2371 48.3965 16.2985 48.3458 16.3593C48.2951 16.42 48.2436 16.4801 48.1914 16.5396C48.1392 16.5992 48.0863 16.658 48.0326 16.7162C47.979 16.7744 47.9246 16.832 47.8695 16.8889C47.8145 16.9457 47.7588 17.0019 47.7023 17.0574C47.6459 17.113 47.5888 17.1678 47.5311 17.2219C47.4732 17.276 47.4148 17.3294 47.3558 17.382C47.2967 17.4348 47.237 17.4867 47.1767 17.5379C47.1163 17.5891 47.0553 17.6396 46.9938 17.6894C46.9322 17.7391 46.87 17.7881 46.8071 17.8362C46.7444 17.8845 46.681 17.9319 46.6171 17.9786C46.5532 18.0252 46.4886 18.0711 46.4235 18.1162C46.3585 18.1613 46.2929 18.2055 46.2268 18.249C46.1606 18.2925 46.0939 18.3352 46.0268 18.377C45.9595 18.4188 45.8918 18.4598 45.8236 18.5C45.7554 18.5402 45.6867 18.5796 45.6176 18.6181C44.5268 19.2334 43.1395 19.7084 41.8841 19.8071C42.2739 20.2529 42.587 20.8061 42.8827 21.3187C42.9793 21.4871 43.0727 21.6574 43.163 21.8294C43.2532 22.0013 43.3402 22.1749 43.424 22.3501C43.5079 22.5253 43.5884 22.702 43.6656 22.8802C43.7429 23.0584 43.8168 23.2379 43.8874 23.4188C43.958 23.5998 44.0252 23.782 44.089 23.9654C44.1528 24.1488 44.2132 24.3334 44.2701 24.519C44.3271 24.7047 44.3806 24.8914 44.4306 25.0791C44.4806 25.2667 44.5271 25.4552 44.5701 25.6446C44.6132 25.834 44.6527 26.0242 44.6887 26.215C44.7246 26.4059 44.757 26.5973 44.7858 26.7894C44.8147 26.9814 44.84 27.174 44.8617 27.367C44.8834 27.56 44.9015 27.7533 44.916 27.947C44.9305 28.1407 44.9415 28.3345 44.9488 28.5286C44.9561 28.7227 44.9598 28.9168 44.96 29.111C44.9601 29.3052 44.9566 29.4994 44.9495 29.6935C44.9424 29.8875 44.9317 30.0814 44.9174 30.2751C44.9051 30.442 44.8901 30.6087 44.8725 30.7751C44.8548 30.9415 44.8345 31.1076 44.8116 31.2733C44.7887 31.4392 44.7631 31.6045 44.7349 31.7694C44.7066 31.9344 44.6757 32.0989 44.6423 32.2629C44.6088 32.4268 44.5727 32.5902 44.534 32.753C44.4952 32.9159 44.4539 33.078 44.4101 33.2395C44.3662 33.401 44.3197 33.5618 44.2707 33.7218C44.2216 33.8817 44.17 34.0409 44.1159 34.1993C44.0618 34.3577 44.0052 34.5151 43.946 34.6717C43.8868 34.8282 43.8252 34.9837 43.761 35.1383C43.6969 35.2929 43.6303 35.4464 43.5612 35.5988C43.4922 35.7513 43.4208 35.9026 43.3469 36.0527C43.273 36.2029 43.1967 36.3519 43.1181 36.4996C43.0394 36.6473 42.9584 36.7938 42.8751 36.9389C42.7918 37.084 42.7062 37.2278 42.6183 37.3702C42.5304 37.5126 42.4402 37.6535 42.3478 37.7931C42.0659 38.2183 41.7548 38.7023 41.3936 39.0632C41.7445 39.3957 42.0871 39.7365 42.4215 40.0856C42.6199 39.85 42.9154 39.4619 43.2478 39.4408C43.4572 39.4274 43.6544 39.5783 43.7973 39.7146C44.2654 40.161 44.7151 40.6303 45.1725 41.0882L47.732 43.6461L49.0576 44.967C49.433 45.3397 49.8321 45.7061 50.1427 46.1369C50.3669 46.4479 50.4831 46.8801 50.5771 47.2478V11.0255ZM0.577148 14.0539V39.9955C0.683396 39.7654 0.657528 39.363 0.710543 39.0975C0.888398 38.2067 1.14453 37.3103 1.55385 36.4964C2.72593 34.1658 4.66042 32.4078 7.14943 31.5801C7.26171 31.5422 7.37463 31.5064 7.4882 31.4727C7.60178 31.4389 7.71594 31.4072 7.83066 31.3776C7.94539 31.348 8.06062 31.3205 8.17635 31.2951C8.29208 31.2697 8.40823 31.2464 8.52481 31.2252C8.64138 31.204 8.7583 31.1849 8.87557 31.168C8.99284 31.151 9.11038 31.1363 9.22818 31.1236C9.34599 31.1109 9.46399 31.1004 9.58218 31.0921C9.70037 31.0837 9.81867 31.0775 9.93709 31.0734C10.0555 31.0693 10.174 31.0674 10.2924 31.0677C10.411 31.0679 10.5294 31.0703 10.6478 31.0749C10.7662 31.0795 10.8845 31.0862 11.0026 31.095C11.1207 31.1039 11.2387 31.1148 11.3564 31.1279C11.4742 31.1411 11.5917 31.1564 11.7089 31.1738C11.8261 31.1912 11.9429 31.2107 12.0594 31.2324C12.1759 31.2541 12.292 31.2779 12.4076 31.3037C12.5232 31.3296 12.6383 31.3576 12.7529 31.3877C13.0837 31.477 13.4442 31.5687 13.7512 31.7221C13.6992 31.5174 13.6717 31.308 13.6479 31.0985C13.286 27.9238 13.7575 24.9443 15.1932 22.0777C15.5027 21.4595 15.85 20.7956 16.2811 20.2536C15.8768 20.4343 15.4666 20.6002 15.0503 20.7513C14.9399 21.2267 14.846 21.7065 14.7476 22.1846C14.6909 22.4592 14.6487 22.7535 14.5513 23.0167C14.5164 23.1107 14.462 23.1937 14.4071 23.2769C14.3433 23.3079 14.2778 23.3403 14.2097 23.361C13.9306 23.4461 10.5276 23.4413 10.0962 23.3963C9.9474 23.3808 9.83754 23.3475 9.70478 23.2772C9.41049 22.8326 9.1918 21.3562 9.05838 20.7529C8.68296 20.6096 8.28919 20.4767 7.94007 20.2761C7.45587 20.5756 6.29826 21.4421 5.84937 21.5754C5.70809 21.6174 5.5581 21.5975 5.43038 21.5223C5.16461 21.3657 4.33042 20.4604 4.06433 20.194C3.58547 19.7145 3.06086 19.2442 2.61458 18.7361C2.52301 18.6318 2.39667 18.4788 2.36814 18.3428C2.30274 18.0311 3.47452 16.4062 3.70031 16.0538C3.49141 15.7013 3.38301 15.2906 3.21196 14.9193C2.53078 14.7487 1.81973 14.6624 1.14512 14.474C0.874992 14.3986 0.716114 14.2981 0.577148 14.0539ZM14.1896 0.458496C14.3155 0.543259 14.4119 0.612249 14.4881 0.748696C14.6922 1.11452 14.93 2.52775 15.0283 3.02489L15.0436 3.10476C15.4083 3.28135 15.818 3.36718 16.1611 3.58886L16.1829 3.57619C16.7269 3.25535 17.6863 2.46694 18.2101 2.29688C18.3062 2.26567 18.3967 2.25888 18.4949 2.28384C18.6052 2.31186 18.6988 2.36882 18.7856 2.44122C19.0805 2.68714 21.5663 5.16261 21.6476 5.31945C21.7229 5.46497 21.7406 5.62704 21.6865 5.78194C21.6104 5.99964 21.465 6.19776 21.3397 6.38924C21.0568 6.8219 20.6444 7.36184 20.4195 7.80547C20.5414 8.18244 20.7347 8.56003 20.8742 8.93689C21.3073 9.04021 21.7423 9.13448 22.1794 9.21971C22.4818 9.28011 22.8202 9.32696 23.1083 9.43729C23.235 9.48579 23.3599 9.54807 23.4358 9.66469C23.4938 9.75371 23.5164 9.83867 23.5269 9.9438C23.5618 10.2957 23.582 13.7571 23.5188 14.0238C23.4894 14.1482 23.4003 14.2929 23.2888 14.3593C22.8966 14.5931 21.4353 14.7591 20.8648 14.9285C20.7262 15.354 20.5633 15.7624 20.3637 16.163C20.5384 16.0423 20.7156 15.9253 20.8951 15.8119C21.0747 15.6985 21.2565 15.5888 21.4405 15.4829C21.6246 15.3769 21.8107 15.2748 21.999 15.1765C22.1872 15.0782 22.3774 14.9838 22.5695 14.8933C22.7616 14.8027 22.9554 14.7161 23.1511 14.6336C23.3468 14.551 23.544 14.4724 23.7429 14.398C23.9418 14.3235 24.1421 14.2531 24.3438 14.1867C24.5456 14.1204 24.7486 14.0583 24.9529 14.0004C25.1572 13.9424 25.3626 13.8886 25.5691 13.8391C25.7757 13.7895 25.9831 13.7442 26.1914 13.7031C26.3997 13.6621 26.6089 13.6254 26.8187 13.5929C27.0286 13.5604 27.239 13.5322 27.4501 13.5083C27.6611 13.4845 27.8725 13.4649 28.0843 13.4497C28.2961 13.4345 28.5082 13.4237 28.7204 13.4172C28.9327 13.4107 29.1451 13.4085 29.3574 13.4106C29.5697 13.4129 29.7819 13.4194 29.994 13.4303C30.5269 13.4578 31.0834 13.4859 31.6079 13.5844C31.6852 13.5989 31.7613 13.6188 31.837 13.6399C30.9014 11.3642 30.9769 8.69818 31.9193 6.43767C31.9494 6.36354 31.9804 6.28981 32.0123 6.21647C32.0442 6.14313 32.0771 6.07021 32.1108 5.9977C32.1446 5.92518 32.1792 5.85309 32.2147 5.78145C32.2504 5.7098 32.2868 5.63862 32.3241 5.56789C32.3615 5.49716 32.3997 5.4269 32.4389 5.35714C32.4779 5.28737 32.5179 5.2181 32.5588 5.14933C32.5996 5.08056 32.6413 5.01232 32.6839 4.9446C32.7265 4.87688 32.7699 4.8097 32.8141 4.74308C32.8583 4.67644 32.9034 4.61038 32.9493 4.54488C32.9952 4.47938 33.042 4.41447 33.0896 4.35015C33.1371 4.28582 33.1854 4.22211 33.2345 4.15899C33.2836 4.09588 33.3336 4.0334 33.3843 3.97154C33.435 3.90969 33.4865 3.84848 33.5387 3.78791C33.591 3.72734 33.644 3.66744 33.6978 3.60821C33.7515 3.54897 33.8059 3.49042 33.8611 3.43256C33.9163 3.37469 33.9723 3.31753 34.029 3.26106C34.0856 3.2046 34.143 3.14886 34.2011 3.09384C34.2591 3.03882 34.3178 2.98453 34.3772 2.93099C34.4366 2.87744 34.4967 2.82465 34.5574 2.77261C34.6182 2.72057 34.6796 2.6693 34.7416 2.6188C34.8036 2.5683 34.8663 2.51859 34.9296 2.46967C34.9929 2.42075 35.0567 2.37263 35.1212 2.3253C35.1857 2.27799 35.2508 2.23148 35.3164 2.18579C35.3821 2.14011 35.4483 2.09525 35.515 2.05123C35.5818 2.00721 35.6492 1.96403 35.7171 1.92169C35.7849 1.87936 35.8533 1.83788 35.9222 1.79727C35.9911 1.75665 36.0605 1.7169 36.1304 1.67803C36.2003 1.63915 36.2707 1.60117 36.3415 1.56406C36.4124 1.52695 36.4837 1.49074 36.5555 1.45543C36.6272 1.42011 36.6994 1.3857 36.7721 1.3522C36.8447 1.31869 36.9178 1.28611 36.9912 1.25444C37.0646 1.22277 37.1385 1.19203 37.2127 1.16221C37.7048 0.960065 38.2478 0.789 38.7685 0.678369C39.0597 0.616481 39.8537 0.546879 40.0368 0.458496H14.1896ZM0.577148 0.458496V9.8114C0.597625 9.77778 0.61853 9.74444 0.639865 9.71137C0.691008 9.63244 0.740731 9.56214 0.824591 9.51483C1.16767 9.32132 2.73963 9.05082 3.21488 8.94795C3.39681 8.58064 3.51211 8.18289 3.69814 7.8127C3.31681 7.17717 2.80456 6.5613 2.47331 5.90698C2.38363 5.72984 2.35062 5.59274 2.42001 5.401C2.45095 5.31452 2.49578 5.23597 2.55452 5.16536C2.90671 4.73391 3.34399 4.35101 3.73932 3.95765C4.22355 3.47579 4.69938 2.96079 5.21596 2.51455C5.31989 2.42476 5.4428 2.33037 5.57067 2.27958C6.0254 2.09896 7.38606 3.34862 7.8776 3.53499C7.99508 3.57953 8.92359 3.16035 9.07729 3.09287C9.18968 2.45578 9.31829 1.80713 9.46784 1.17738C9.54206 0.864837 9.63147 0.633771 9.91481 0.458496H0.577148ZM0.577148 41.5422V50.4585H9.41979C9.1746 50.3607 8.64041 50.3192 8.35042 50.262C7.95642 50.1843 7.56902 50.0816 7.1882 49.9541C6.80738 49.8266 6.43629 49.6752 6.07492 49.5C5.99888 49.4637 5.92332 49.4264 5.84825 49.3881C5.77318 49.3498 5.69862 49.3105 5.62458 49.2703C5.55054 49.2301 5.47703 49.1889 5.40406 49.1468C5.3311 49.1046 5.2587 49.0615 5.18686 49.0175C5.11502 48.9734 5.04377 48.9284 4.97311 48.8825C4.90244 48.8366 4.83239 48.7898 4.76295 48.742C4.69351 48.6943 4.62471 48.6456 4.55654 48.5961C4.48837 48.5465 4.42086 48.4961 4.35401 48.4448C4.28716 48.3935 4.221 48.3413 4.15551 48.2883C4.09003 48.2353 4.02525 48.1814 3.96117 48.1267C3.8971 48.0719 3.83374 48.0163 3.77111 47.96C3.70849 47.9036 3.64661 47.8464 3.58549 47.7884C3.52436 47.7304 3.464 47.6716 3.4044 47.612C3.34481 47.5524 3.28601 47.4921 3.228 47.431C3.16998 47.3698 3.11278 47.3079 3.05639 47.2453C2.99999 47.1827 2.94442 47.1194 2.88968 47.0554C2.83494 46.9913 2.78104 46.9265 2.728 46.861C2.67495 46.7955 2.62277 46.7294 2.57145 46.6626C2.52013 46.5957 2.4697 46.5282 2.42015 46.4601C2.37059 46.3919 2.32193 46.3231 2.27418 46.2537C2.22643 46.1842 2.17959 46.1142 2.13366 46.0436C2.08774 45.9729 2.04275 45.9017 1.99869 45.8298C1.95463 45.758 1.91151 45.6856 1.86935 45.6126C1.82718 45.5397 1.78597 45.4662 1.74572 45.3921C1.70548 45.3181 1.66621 45.2435 1.62791 45.1685C1.58962 45.0934 1.55231 45.0178 1.51598 44.9418C1.47966 44.8658 1.44434 44.7893 1.41002 44.7123C1.37569 44.6354 1.34238 44.5579 1.31008 44.4801C1.27779 44.4023 1.24651 44.3241 1.21626 44.2454C1.186 44.1668 1.15678 44.0877 1.1286 44.0083C1.10041 43.9289 1.07327 43.8491 1.04717 43.769C1.02106 43.6889 0.996014 43.6084 0.972016 43.5276C0.86627 43.1828 0.775634 42.8245 0.721824 42.4679C0.678756 42.1823 0.682121 41.8292 0.584391 41.5607C0.582117 41.5545 0.579563 41.5483 0.577148 41.5422ZM41.7319 0.458496C41.7448 0.464638 41.7574 0.471134 41.7705 0.476922C41.9537 0.558485 42.562 0.587566 42.8229 0.637403C43.1668 0.703128 43.5093 0.802744 43.8436 0.90659C43.926 0.932894 44.0081 0.960296 44.0898 0.988797C44.1716 1.0173 44.2529 1.04689 44.3338 1.07756C44.4147 1.10824 44.4952 1.13999 44.5753 1.17282C44.6553 1.20565 44.7349 1.23955 44.8141 1.27451C44.8932 1.30947 44.9719 1.34549 45.0502 1.38255C45.1284 1.41962 45.2061 1.45773 45.2832 1.49688C45.3604 1.53602 45.4371 1.57619 45.5132 1.61739C45.5893 1.65858 45.6648 1.70079 45.7397 1.74401C45.8147 1.78723 45.8892 1.83144 45.963 1.87665C46.0368 1.92186 46.1099 1.96805 46.1825 2.01521C46.255 2.06238 46.327 2.11051 46.3982 2.1596C46.4695 2.20869 46.5401 2.25873 46.6101 2.30972C46.68 2.36069 46.7492 2.4126 46.8178 2.46543C46.8863 2.51827 46.9541 2.57201 47.0212 2.62666C47.0883 2.68131 47.1547 2.73684 47.2203 2.79326C47.2859 2.84969 47.3508 2.90698 47.4148 2.96514C47.4789 3.0233 47.5422 3.08231 47.6048 3.14216C47.6673 3.20201 47.729 3.2627 47.7898 3.3242C47.8507 3.3857 47.9108 3.44801 47.97 3.51112C48.0292 3.57423 48.0875 3.63812 48.145 3.70279C48.2026 3.76747 48.2592 3.8329 48.3149 3.89909C48.3707 3.96528 48.4255 4.0322 48.4795 4.09985C48.5335 4.16751 48.5865 4.23588 48.6387 4.30495C48.6908 4.37403 48.742 4.44379 48.7923 4.51424C48.8425 4.58469 48.8919 4.65579 48.9402 4.72756C48.9886 4.79932 49.036 4.87172 49.0824 4.94476C49.1288 5.01779 49.1743 5.09143 49.2188 5.16568C49.2632 5.23993 49.3067 5.31477 49.3491 5.39018C49.3916 5.46559 49.433 5.54155 49.4734 5.61808C49.5139 5.6946 49.5533 5.77165 49.5916 5.84923C49.6299 5.9268 49.6673 6.00487 49.7035 6.08345C49.7398 6.16202 49.775 6.24107 49.8092 6.32059C50.0366 6.85698 50.2305 7.42228 50.3494 7.99336C50.3944 8.20933 50.4445 8.42682 50.4798 8.64445C50.5124 8.84529 50.493 9.10214 50.5771 9.28536V0.458496H41.7319ZM44.7559 42.3449C44.2842 42.8362 43.8061 43.3212 43.3215 43.7998C43.0439 44.0769 42.7719 44.3699 42.481 44.6322C42.6247 44.8141 46.0389 48.2144 46.0826 48.2404C46.2663 47.9733 46.5506 47.737 46.7812 47.5072C47.304 46.9862 47.8425 46.4752 48.3501 45.9397C48.1221 45.7506 47.9161 45.5247 47.7064 45.3155L46.6288 44.2373L45.4464 43.0518C45.2153 42.8199 44.9697 42.5925 44.7559 42.3449ZM43.2866 40.8787C42.518 41.6291 41.7328 42.3813 40.9991 43.1652C41.216 43.379 41.44 43.5894 41.6474 43.8123C41.8806 43.4955 42.2013 43.2167 42.48 42.9383L43.9122 41.5158C43.7041 41.3086 43.4748 41.1036 43.2866 40.8787ZM49.1435 46.8365C48.3972 47.5618 47.6454 48.2958 46.9324 49.0536C47.0425 49.099 47.1521 49.1457 47.2644 49.1852C47.7363 49.3014 48.1812 49.3033 48.6083 49.0446C48.9712 48.8248 49.2401 48.474 49.3366 48.0585C49.4198 47.7003 49.3961 47.195 49.1877 46.8814C49.1722 46.8581 49.1629 46.8523 49.1435 46.8365ZM48.2563 50.4585H50.5771V48.1049L50.5702 48.1244C50.51 48.2967 50.4726 48.4741 50.4064 48.6447C50.1308 49.3564 49.6532 49.8738 48.9656 50.2075C48.7379 50.318 48.482 50.3511 48.2563 50.4585ZM40.6061 39.9516C40.4477 40.1415 40.2746 40.3273 40.0809 40.4818C40.2771 40.7132 40.8182 41.2931 41.0532 41.4578C41.2048 41.2646 41.39 41.0844 41.5728 40.9205C41.2484 40.6007 40.9378 40.2631 40.6061 39.9516Z" fill="#93C704"/>
<path d="M43.0115 5.20066C43.7061 5.18784 44.4121 5.17419 45.1064 5.19427C45.3192 5.20044 45.5644 5.23815 45.7124 5.4058C45.8116 5.51814 45.8417 5.65359 45.8549 5.79911C45.8909 6.19848 45.8664 6.61388 45.8651 7.01504L45.8636 9.15963L45.8642 12.1741C45.8643 12.7558 45.8837 13.3452 45.85 13.926C46.127 13.9054 46.5192 13.8678 46.7665 14.0156C46.9709 14.1376 47.0184 14.3051 47.0699 14.5213C47.0376 14.6715 46.9988 14.8096 46.8908 14.9244C46.7889 15.0326 46.6595 15.0689 46.516 15.0853C46.1928 15.1223 45.8617 15.1065 45.5368 15.106L43.961 15.1056L38.749 15.1048L36.5663 15.1038C36.1523 15.1066 35.6884 15.1524 35.2796 15.092C35.1379 15.0712 35.0012 15.029 34.89 14.9352C34.767 14.8312 34.7109 14.6491 34.7046 14.4925C34.6992 14.361 34.7401 14.2425 34.8313 14.1466C35.0986 13.8654 35.5533 13.9073 35.9077 13.8994C35.8971 13.8026 35.8949 13.7065 35.8929 13.6093C35.8847 13.201 35.7885 12.2354 36.09 11.9394C36.1876 11.8437 36.3119 11.7955 36.4449 11.7728C36.7995 11.7122 37.7007 11.7589 38.1082 11.7594C38.1051 11.7116 38.1029 11.6638 38.1018 11.6159C38.0951 11.2306 38.043 10.4017 38.1167 10.0567C38.1413 9.94131 38.1898 9.83133 38.2756 9.74843C38.3631 9.66379 38.4726 9.6163 38.5906 9.59128C38.939 9.51736 39.8729 9.5655 40.2895 9.56454C40.2841 9.51598 40.2793 9.46718 40.2781 9.41831C40.2684 9.02548 40.2258 8.2748 40.2936 7.91424C40.3184 7.78264 40.3685 7.65522 40.4666 7.56075C40.5424 7.48769 40.6406 7.44141 40.7425 7.41791C41.1006 7.33527 42.0733 7.39082 42.489 7.3927C42.4517 7.08049 42.4407 6.00608 42.4965 5.70868C42.5158 5.60571 42.5525 5.51131 42.6135 5.42564C42.7135 5.28506 42.8476 5.23243 43.0115 5.20066ZM43.6819 6.37526C43.6633 6.55295 43.6755 6.74044 43.6732 6.91964C43.6707 7.39687 43.6711 7.87408 43.6742 8.35128L43.674 11.9543C43.6745 12.6116 43.6962 13.2772 43.6674 13.9332C43.8509 13.9106 44.5814 13.953 44.6685 13.883C44.6419 13.3961 44.6562 12.9045 44.6565 12.4168L44.6568 10.0065L44.6566 7.62949C44.6564 7.2144 44.6379 6.7921 44.6592 6.37787C44.3454 6.38462 43.9916 6.41989 43.6819 6.37526ZM41.4661 8.58266C41.5243 9.56773 41.4895 10.5699 41.489 11.5567C41.4887 12.3395 41.5303 13.1462 41.4749 13.926C41.8143 13.9107 42.1538 13.9078 42.4933 13.9172C42.4345 12.9619 42.4789 11.9795 42.4791 11.0218C42.4793 10.2504 42.431 9.33974 42.4951 8.58212C42.1531 8.58675 41.8078 8.59656 41.4661 8.58266ZM39.286 10.7536C39.3281 11.2372 39.299 11.7401 39.2984 12.2261C39.2976 12.7915 39.3198 13.3656 39.2919 13.9295C39.619 13.9011 39.9544 13.9067 40.2826 13.9135C40.2664 13.2902 40.2749 12.6651 40.2743 12.0414C40.2739 11.6153 40.2574 11.1828 40.2765 10.7574C39.9536 10.7603 39.6066 10.7875 39.286 10.7536ZM38.0712 12.9493L37.1007 12.9572C37.1009 13.1155 37.0704 13.8444 37.133 13.9243C37.4563 13.9037 37.7848 13.9075 38.1088 13.9161C38.1014 13.7127 38.1418 13.0934 38.0822 12.9539L38.0712 12.9493Z" fill="#93C704"/>
<path d="M11.9958 6.91504C13.3221 6.93 14.4877 7.3576 15.4737 8.24996C16.4652 9.14735 17.0201 10.4295 17.0781 11.7566C17.0814 11.8394 17.0826 11.9224 17.0818 12.0054C17.081 12.0883 17.0781 12.1712 17.0732 12.254C17.0682 12.3368 17.0612 12.4195 17.0522 12.502C17.0431 12.5844 17.0319 12.6666 17.0188 12.7485C17.0056 12.8304 16.9905 12.912 16.9733 12.9932C16.956 13.0744 16.9368 13.1551 16.9156 13.2353C16.8943 13.3155 16.871 13.3951 16.8458 13.4741C16.8206 13.5532 16.7935 13.6315 16.7643 13.7092C16.7352 13.7869 16.7042 13.8638 16.6712 13.94C16.6383 14.0161 16.6034 14.0914 16.5667 14.1658C16.53 14.2402 16.4915 14.3137 16.4511 14.3861C16.4107 14.4586 16.3686 14.5301 16.3247 14.6005C16.2808 14.6709 16.2351 14.7401 16.1877 14.8082C16.1404 14.8763 16.0914 14.9432 16.0407 15.0089C15.9899 15.0746 15.9376 15.1389 15.8837 15.202C15.8298 15.265 15.7743 15.3267 15.7173 15.387C14.7694 16.4017 13.5057 16.8984 12.1363 16.9516C10.8084 16.9445 9.56397 16.507 8.58992 15.5852C8.53049 15.5293 8.47248 15.472 8.41588 15.4132C8.35928 15.3544 8.30417 15.2943 8.25054 15.2328C8.19691 15.1714 8.14483 15.1086 8.09431 15.0445C8.04378 14.9805 7.99487 14.9152 7.94757 14.8487C7.90026 14.7823 7.85463 14.7147 7.81066 14.646C7.7667 14.5773 7.72446 14.5075 7.68395 14.4366C7.64342 14.3659 7.60468 14.2941 7.56771 14.2214C7.53073 14.1487 7.49558 14.0751 7.46225 14.0006C7.42891 13.9261 7.39743 13.8509 7.36781 13.7748C7.33819 13.6988 7.31046 13.6221 7.28463 13.5447C7.2588 13.4674 7.2349 13.3894 7.21292 13.3109C7.19094 13.2323 7.17092 13.1532 7.15284 13.0736C7.13477 12.9941 7.11867 12.9141 7.10454 12.8338C7.09042 12.7535 7.07829 12.6728 7.06814 12.5918C7.05801 12.5109 7.04987 12.4297 7.04374 12.3483C7.03761 12.267 7.0335 12.1856 7.03139 12.104C7.02846 12.0201 7.02763 11.9361 7.02889 11.8522C7.03014 11.7682 7.03349 11.6843 7.03893 11.6005C7.04436 11.5166 7.05187 11.433 7.06146 11.3496C7.07105 11.2662 7.08272 11.183 7.09645 11.1001C7.11018 11.0173 7.12596 10.9348 7.14379 10.8527C7.16162 10.7707 7.18148 10.6891 7.20338 10.608C7.22527 10.527 7.24916 10.4465 7.27506 10.3665C7.30096 10.2866 7.32882 10.2074 7.35866 10.129C7.38851 10.0504 7.42028 9.97273 7.45398 9.89581C7.48769 9.81888 7.52328 9.74284 7.56077 9.66769C7.59827 9.59253 7.6376 9.51835 7.67878 9.44516C7.71996 9.37196 7.76293 9.29983 7.80771 9.22877C7.85248 9.15771 7.89899 9.08781 7.94724 9.01906C7.99548 8.95032 8.0454 8.88282 8.09701 8.81655C8.14862 8.7503 8.20184 8.68536 8.25668 8.62175C8.31152 8.55813 8.3679 8.49592 8.42584 8.43512C9.36907 7.44609 10.6411 6.95271 11.9958 6.91504ZM11.7762 8.10987C10.7246 8.21085 9.78335 8.66825 9.10821 9.49142C9.06747 9.54064 9.02798 9.59085 8.98975 9.64204C8.95151 9.69323 8.91457 9.74534 8.87894 9.79838C8.8433 9.85141 8.809 9.9053 8.77606 9.96004C8.74311 10.0148 8.71154 10.0703 8.68136 10.1266C8.65118 10.183 8.62243 10.24 8.59509 10.2978C8.56775 10.3555 8.54187 10.4139 8.51745 10.473C8.49303 10.532 8.4701 10.5916 8.44865 10.6518C8.4272 10.712 8.40727 10.7727 8.38885 10.8339C8.37042 10.895 8.35354 10.9566 8.33819 11.0187C8.32285 11.0807 8.30906 11.1431 8.29682 11.2058C8.28458 11.2685 8.27391 11.3315 8.26482 11.3947C8.25572 11.458 8.24821 11.5214 8.24228 11.585C8.23634 11.6486 8.232 11.7124 8.22925 11.7762C8.22649 11.84 8.22534 11.9039 8.22577 11.9678C8.2262 12.0317 8.22823 12.0955 8.23185 12.1593C8.23547 12.2231 8.24067 12.2868 8.24746 12.3503C8.25406 12.4123 8.26217 12.4742 8.2718 12.5358C8.28143 12.5974 8.29256 12.6588 8.30519 12.7198C8.31782 12.7809 8.33195 12.8416 8.34757 12.902C8.36318 12.9624 8.38026 13.0223 8.39882 13.0818C8.41737 13.1414 8.43738 13.2005 8.45883 13.259C8.48027 13.3176 8.50314 13.3756 8.52744 13.433C8.55174 13.4904 8.57743 13.5472 8.6045 13.6034C8.63159 13.6596 8.66003 13.7151 8.68982 13.7699C8.71963 13.8247 8.75076 13.8787 8.7832 13.9319C8.81566 13.9852 8.84939 14.0376 8.88441 14.0893C8.91943 14.1409 8.9557 14.1916 8.99321 14.2414C9.03072 14.2912 9.06943 14.3401 9.10934 14.3881C9.14924 14.436 9.19029 14.4829 9.2325 14.5288C9.27471 14.5747 9.31801 14.6196 9.36242 14.6634C9.40683 14.7072 9.45228 14.7499 9.49878 14.7914C9.54528 14.833 9.59277 14.8733 9.64125 14.9126C9.68783 14.9506 9.73527 14.9874 9.78358 15.0231C9.8319 15.0588 9.88103 15.0933 9.93099 15.1267C9.98094 15.1601 10.0317 15.1923 10.0831 15.2233C10.1346 15.2542 10.1868 15.284 10.2397 15.3125C10.2926 15.341 10.3461 15.3682 10.4002 15.3941C10.4544 15.4201 10.5092 15.4448 10.5646 15.4682C10.6199 15.4915 10.6758 15.5136 10.7322 15.5344C10.7885 15.5551 10.8454 15.5745 10.9027 15.5925C10.96 15.6105 11.0177 15.6272 11.0758 15.6425C11.1339 15.6578 11.1923 15.6717 11.251 15.6843C11.3098 15.6969 11.3688 15.708 11.4281 15.7177C11.4874 15.7275 11.5469 15.7358 11.6066 15.7427C11.6662 15.7497 11.726 15.7552 11.786 15.7593C11.8459 15.7634 11.9059 15.7661 11.9659 15.7673C12.026 15.7685 12.0861 15.7684 12.1461 15.7668C12.2062 15.7652 12.2662 15.7622 12.3261 15.7577C13.4032 15.6642 14.3467 15.15 15.0378 14.3197C15.7021 13.5217 15.9459 12.5049 15.848 11.4846C15.7531 10.4958 15.2117 9.56393 14.4459 8.94196C14.3996 8.90432 14.3524 8.8678 14.3043 8.8324C14.2563 8.79701 14.2074 8.76277 14.1576 8.72969C14.108 8.69661 14.0575 8.66474 14.0063 8.63406C13.9551 8.60338 13.9032 8.57393 13.8506 8.54572C13.798 8.51751 13.7448 8.49057 13.6909 8.46489C13.6369 8.43921 13.5825 8.41482 13.5275 8.39174C13.4724 8.36865 13.4168 8.34687 13.3608 8.32643C13.3047 8.30597 13.2481 8.28686 13.1911 8.2691C13.1341 8.25134 13.0767 8.23494 13.019 8.2199C12.9612 8.20486 12.9031 8.19121 12.8447 8.17894C12.7863 8.16666 12.7276 8.15578 12.6687 8.14629C12.6097 8.1368 12.5506 8.12872 12.4912 8.12205C12.4319 8.11538 12.3725 8.11011 12.3129 8.10626C12.2534 8.10241 12.1937 8.09998 12.134 8.09896C12.0743 8.09794 12.0146 8.09834 11.955 8.10017C11.8953 8.10198 11.8357 8.10522 11.7762 8.10987Z" fill="#93C704"/>
<path d="M28.9814 17.0227C32.0181 16.9908 35.0561 18.035 37.3172 20.0964C37.4421 20.2085 37.5646 20.3232 37.6847 20.4404C37.8048 20.5575 37.9225 20.6772 38.0376 20.7992C38.1528 20.9213 38.2654 21.0457 38.3753 21.1724C38.4854 21.2991 38.5927 21.4281 38.6974 21.5592C38.8021 21.6904 38.904 21.8237 39.0032 21.959C39.1023 22.0944 39.1986 22.2318 39.2921 22.3712C39.3856 22.5105 39.4762 22.6518 39.5638 22.7949C39.6514 22.938 39.736 23.0829 39.8176 23.2295C39.8993 23.3761 39.9778 23.5244 40.0534 23.6742C40.1288 23.8241 40.2012 23.9755 40.2705 24.1283C40.3397 24.2812 40.4057 24.4354 40.4685 24.591C40.5313 24.7466 40.5909 24.9035 40.6473 25.0615C40.7037 25.2196 40.7568 25.3788 40.8065 25.5391C40.8562 25.6993 40.9027 25.8605 40.9457 26.0228C40.9888 26.185 41.0286 26.3479 41.0649 26.5117C41.1012 26.6756 41.1342 26.8401 41.1637 27.0053C41.2736 27.6446 41.3197 28.2875 41.3443 28.9346C41.4565 31.8861 40.2038 35.1126 38.196 37.2685C35.8862 39.7489 32.9254 41.0908 29.5381 41.2114C29.4426 41.2137 29.347 41.2149 29.2513 41.215C29.1557 41.215 29.0601 41.2139 28.9645 41.2116C28.8689 41.2094 28.7734 41.2061 28.6779 41.2016C28.5824 41.1971 28.4869 41.1915 28.3916 41.1848C28.2962 41.178 28.2009 41.1701 28.1057 41.1612C28.0105 41.1522 27.9154 41.142 27.8205 41.1308C27.7255 41.1195 27.6307 41.1072 27.5361 41.0937C27.4414 41.0801 27.3469 41.0655 27.2526 41.0498C27.1583 41.0341 27.0641 41.0172 26.9703 40.9992C26.8763 40.9813 26.7826 40.9622 26.6892 40.942C26.5957 40.9218 26.5025 40.9005 26.4095 40.8781C26.3166 40.8558 26.2239 40.8322 26.1315 40.8076C26.0391 40.7831 25.947 40.7574 25.8552 40.7307C25.7634 40.7039 25.672 40.6761 25.5808 40.6471C25.4897 40.6182 25.3989 40.5882 25.3084 40.5571C25.2181 40.526 25.128 40.4939 25.0383 40.4607C24.9487 40.4275 24.8594 40.3932 24.7706 40.3578C24.6818 40.3225 24.5933 40.2862 24.5053 40.2488C24.4174 40.2113 24.3298 40.1729 24.2427 40.1334C24.1556 40.0939 24.069 40.0534 23.983 40.0118C23.8968 39.9703 23.8112 39.9278 23.726 39.8842C23.6409 39.8406 23.5564 39.796 23.4723 39.7504C23.3883 39.7048 23.3048 39.6583 23.2218 39.6108C23.1389 39.5632 23.0565 39.5147 22.9747 39.4652C22.8928 39.4157 22.8116 39.3652 22.731 39.3138C22.6504 39.2624 22.5704 39.21 22.4911 39.1567C22.4117 39.1033 22.333 39.0491 22.2548 38.994C22.1768 38.9388 22.0994 38.8826 22.0226 38.8256C21.9458 38.7686 21.8698 38.7107 21.7944 38.6519C21.719 38.5931 21.6443 38.5334 21.5704 38.4728C21.4964 38.4122 21.4232 38.3508 21.3506 38.2885C21.2781 38.2261 21.2063 38.1629 21.1353 38.0989C18.7081 35.9243 17.3251 32.8756 17.1503 29.6363C16.9852 26.5744 18.1422 23.367 20.1911 21.092C22.5644 18.4566 25.4588 17.2031 28.9814 17.0227ZM28.8038 18.2175C28.7132 18.2212 28.6227 18.226 28.5324 18.232C28.4419 18.2379 28.3516 18.245 28.2614 18.2532C28.1711 18.2614 28.081 18.2708 27.991 18.2813C27.901 18.2917 27.8111 18.3032 27.7214 18.3159C27.6317 18.3286 27.5422 18.3425 27.4528 18.3574C27.3634 18.3724 27.2742 18.3884 27.1853 18.4055C27.0963 18.4227 27.0076 18.4409 26.9191 18.4603C26.8305 18.4796 26.7423 18.5001 26.6542 18.5216C26.5662 18.5432 26.4785 18.5658 26.3911 18.5896C26.3036 18.6133 26.2165 18.6382 26.1296 18.6641C26.0429 18.69 25.9564 18.717 25.8702 18.745C25.784 18.7731 25.6983 18.8022 25.6128 18.8324C25.5274 18.8627 25.4424 18.8939 25.3578 18.9262C25.2731 18.9586 25.1888 18.9919 25.105 19.0263C25.0212 19.0607 24.9379 19.0962 24.8549 19.1327C24.772 19.1692 24.6895 19.2067 24.6075 19.2452C24.5255 19.2838 24.444 19.3234 24.3629 19.364C24.2819 19.4045 24.2015 19.4461 24.1215 19.4887C24.0415 19.5313 23.9621 19.5749 23.8832 19.6195C23.8043 19.664 23.726 19.7095 23.6482 19.7561C23.5705 19.8026 23.4933 19.85 23.4167 19.8985C23.3402 19.947 23.2642 19.9964 23.1888 20.0467C23.1135 20.097 23.0388 20.1483 22.9647 20.2004C22.8907 20.2526 22.8173 20.3058 22.7445 20.3598C22.6718 20.4138 22.5997 20.4687 22.5284 20.5245C22.4569 20.5803 22.3863 20.637 22.3164 20.6947C22.2464 20.7522 22.1771 20.8106 22.1086 20.8699C22.0401 20.9293 21.9723 20.9894 21.9053 21.0504C21.8383 21.1114 21.7721 21.1731 21.7066 21.2358C21.6412 21.2985 21.5765 21.3619 21.5125 21.4261C21.4487 21.4904 21.3856 21.5554 21.3233 21.6212C21.2611 21.687 21.1996 21.7536 21.139 21.821C19.1477 24.0168 18.2103 26.9064 18.3626 29.8471C18.5089 32.672 19.9161 35.4198 22.0107 37.2953C24.0504 39.1217 26.9192 40.1662 29.6557 40.0216C29.6776 40.0206 29.6994 40.019 29.7211 40.0169C29.8101 40.0128 29.8991 40.0076 29.9879 40.0013C30.0768 39.995 30.1656 39.9877 30.2542 39.9792C30.3429 39.9708 30.4315 39.9612 30.52 39.9506C30.6084 39.9401 30.6967 39.9284 30.7848 39.9156C30.873 39.9029 30.9611 39.8891 31.0489 39.8741C31.1367 39.8592 31.2243 39.8433 31.3118 39.8262C31.3992 39.8092 31.4864 39.7911 31.5734 39.7719C31.6604 39.7528 31.7472 39.7325 31.8336 39.7113C31.9202 39.69 32.0064 39.6677 32.0923 39.6443C32.1783 39.6209 32.264 39.5965 32.3494 39.571C32.4347 39.5456 32.5198 39.5191 32.6045 39.4915C32.6892 39.464 32.7736 39.4354 32.8577 39.4059C32.9416 39.3763 33.0253 39.3457 33.1085 39.3141C33.1919 39.2824 33.2748 39.2498 33.3573 39.2161C33.4398 39.1825 33.5218 39.1478 33.6035 39.1122C33.6851 39.0766 33.7663 39.0399 33.847 39.0023C33.9277 38.9646 34.008 38.926 34.0878 38.8864C34.1677 38.8469 34.247 38.8063 34.3257 38.7649C34.4046 38.7233 34.4829 38.6808 34.5607 38.6374C34.6385 38.594 34.7157 38.5496 34.7924 38.5043C34.8691 38.4591 34.9453 38.4128 35.0208 38.3656C35.0964 38.3185 35.1714 38.2705 35.2458 38.2215C35.3203 38.1725 35.3941 38.1226 35.4672 38.0718C35.5404 38.021 35.613 37.9694 35.6849 37.9168C35.7568 37.8643 35.8281 37.8109 35.8988 37.7566C35.9694 37.7023 36.0394 37.6471 36.1086 37.5911C36.1779 37.5351 36.2465 37.4783 36.3144 37.4206C36.3823 37.363 36.4495 37.3045 36.516 37.2452C36.5824 37.1859 36.6482 37.1258 36.7132 37.0649C36.7783 37.004 36.8425 36.9423 36.906 36.8798C36.9695 36.8174 37.0323 36.7542 37.0942 36.6902C37.1562 36.6262 37.2174 36.5614 37.2778 36.4959C39.1848 34.3911 40.2746 31.5403 40.1277 28.6895C39.9742 25.7084 38.7155 22.9669 36.4869 20.9656C36.3803 20.8708 36.2719 20.7782 36.1617 20.6877C36.0514 20.5972 35.9395 20.5089 35.8258 20.4229C35.7122 20.3367 35.5968 20.2529 35.4798 20.1713C35.3628 20.0897 35.2443 20.0105 35.1243 19.9336C35.0042 19.8567 34.8827 19.7821 34.7596 19.71C34.6366 19.6378 34.5123 19.5681 34.3866 19.5008C34.2608 19.4336 34.1338 19.3688 34.0055 19.3065C33.8773 19.2442 33.7478 19.1844 33.6171 19.1272C33.4865 19.0699 33.3549 19.0153 33.2221 18.9633C33.0893 18.9112 32.9555 18.8618 32.8208 18.8151C32.6861 18.7683 32.5506 18.7241 32.4142 18.6825C32.2778 18.6411 32.1405 18.6023 32.0026 18.5662C31.8646 18.5301 31.726 18.4967 31.5868 18.466C31.4475 18.4354 31.3077 18.4074 31.1673 18.3822C31.027 18.3571 30.8861 18.3347 30.7449 18.3151C30.6037 18.2954 30.4621 18.2785 30.3202 18.2644C29.8473 18.2158 29.3676 18.1844 28.8923 18.2116C28.8628 18.2133 28.8333 18.2153 28.8038 18.2175Z" fill="#93C704"/>
<path d="M9.6063 46.376L8.3578 46.0137C8.22681 45.9769 8.15312 45.8397 8.18997 45.7087L10.9838 36.085C11.0206 35.954 11.1577 35.8803 11.2887 35.9172L12.5372 36.2795C12.6682 36.3163 12.7419 36.4534 12.7051 36.5844L9.91126 46.2081C9.87238 46.3391 9.73729 46.4149 9.6063 46.376ZM7.27303 44.0795L8.16336 43.1299C8.25751 43.0296 8.25137 42.8699 8.14698 42.7778L6.29265 41.1466L8.14698 39.5153C8.25137 39.4232 8.25955 39.2636 8.16336 39.1633L7.27303 38.2136C7.18093 38.1154 7.02538 38.1092 6.92509 38.2034L3.97575 40.9665C3.87137 41.0627 3.87137 41.2285 3.97575 41.3246L6.92509 44.0898C7.02538 44.1839 7.18093 44.1798 7.27303 44.0795ZM13.9699 44.0918L16.9193 41.3267C17.0237 41.2305 17.0237 41.0647 16.9193 40.9685L13.9699 38.2013C13.8717 38.1092 13.7161 38.1133 13.622 38.2116L12.7317 39.1613C12.6375 39.2615 12.6437 39.4212 12.748 39.5133L14.6024 41.1466L12.748 42.7778C12.6437 42.8699 12.6355 43.0296 12.7317 43.1299L13.622 44.0795C13.7141 44.1798 13.8696 44.1839 13.9699 44.0918Z" fill="#93C704"/>
</g>
<defs>
<clipPath id="clip0_212_1266">
<rect width="50" height="50" fill="white" transform="translate(0.577148 0.458496)"/>
</clipPath>
</defs>
</svg>
