<svg width="555" height="336" viewBox="0 0 555 336" fill="none" xmlns="http://www.w3.org/2000/svg">
<g filter="url(#filter0_i_121_43)">
<path d="M258 309.81C259.454 255.376 212.526 49.6604 142.373 47.787C72.2203 45.9136 7.07573 255.375 5.62207 309.81L128 309.81L258 309.81Z" fill="url(#paint0_linear_121_43)"/>
</g>
<g filter="url(#filter1_i_121_43)">
<path d="M555 310C555 270.008 499.164 119 433.571 119C367.979 119 311.5 270.008 311.5 310L426.5 310L555 310Z" fill="url(#paint1_linear_121_43)"/>
</g>
<g filter="url(#filter2_i_121_43)">
<path d="M409 311C409 288.596 353.05 204 287.322 204C221.595 204 165 288.596 165 311L280.236 311L409 311Z" fill="url(#paint2_linear_121_43)"/>
</g>
<path d="M269 45V291" stroke="white"/>
<path d="M296 44V292" stroke="white"/>
<path d="M323 45V291" stroke="white"/>
<path d="M350 44V292" stroke="white"/>
<path d="M377 45V291" stroke="white"/>
<path d="M404 44V292" stroke="white"/>
<path d="M431 44V292" stroke="white"/>
<path d="M452 68L245 68" stroke="white"/>
<path d="M453 95L244 95" stroke="white"/>
<path d="M452 122L245 122" stroke="white"/>
<path d="M453 149L244 149" stroke="white"/>
<path d="M452 176L245 176" stroke="white"/>
<path d="M453 203L244 203" stroke="white"/>
<path d="M453 230L244 230" stroke="white"/>
<path d="M453 256L244 256" stroke="white"/>
<rect x="291" y="162" width="137" height="137" rx="14.4211" fill="url(#paint3_linear_121_43)"/>
<g filter="url(#filter3_i_121_43)">
<rect x="303.979" y="178.584" width="25.9579" height="25.9579" rx="4" fill="#E0E0E0"/>
</g>
<g filter="url(#filter4_i_121_43)">
<rect x="346.521" y="178.584" width="25.9579" height="25.9579" rx="4" fill="#93C704"/>
</g>
<g filter="url(#filter5_i_121_43)">
<rect x="389.063" y="178.584" width="25.9579" height="25.9579" rx="4" fill="#E0E0E0"/>
</g>
<g filter="url(#filter6_i_121_43)">
<rect x="303.979" y="221.126" width="25.9579" height="25.9579" rx="4" fill="#E0E0E0"/>
</g>
<g filter="url(#filter7_i_121_43)">
<rect x="346.521" y="221.126" width="25.9579" height="25.9579" rx="4" fill="#E0E0E0"/>
</g>
<g filter="url(#filter8_i_121_43)">
<rect x="389.063" y="221.126" width="25.9579" height="25.9579" rx="4" fill="#93C704"/>
</g>
<g filter="url(#filter9_i_121_43)">
<rect x="303.979" y="263.668" width="25.9579" height="25.9579" rx="4" fill="#E0E0E0"/>
</g>
<g filter="url(#filter10_i_121_43)">
<rect x="346.521" y="263.668" width="25.9579" height="25.9579" rx="4" fill="#93C704"/>
</g>
<g filter="url(#filter11_i_121_43)">
<rect x="389.063" y="263.668" width="25.9579" height="25.9579" rx="4" fill="#E0E0E0"/>
</g>
<path d="M343 158V173" stroke="url(#paint4_linear_121_43)" stroke-width="2.16316" stroke-linecap="round"/>
<path d="M360 158V173" stroke="url(#paint5_linear_121_43)" stroke-width="2.16316" stroke-linecap="round"/>
<path d="M376 157V173" stroke="url(#paint6_linear_121_43)" stroke-width="2.16316" stroke-linecap="round"/>
<path d="M245 63L270 54L280 79.5L254.5 88.5L245 63Z" fill="url(#paint7_linear_121_43)"/>
<path d="M270 54L280 79.5L283.5 72.5L273.5 48L270 54Z" fill="url(#paint8_linear_121_43)"/>
<path d="M245 63L270 54L273.5 48L250 56.5L245 63Z" fill="url(#paint9_linear_121_43)"/>
<path d="M66 291.926L23.1429 276.37L6 320.444L49.7143 336L66 291.926Z" fill="url(#paint10_linear_121_43)"/>
<path d="M23.1429 276.37L6 320.444L0 308.346L17.1429 266L23.1429 276.37Z" fill="url(#paint11_linear_121_43)"/>
<path d="M66 291.926L23.1429 276.37L17.1429 266L57.4286 280.691L66 291.926Z" fill="url(#paint12_linear_121_43)"/>
<path d="M447.799 192.458L489.883 218.06L464.724 262.17L422.057 235.846L447.799 192.458Z" fill="url(#paint13_linear_121_43)"/>
<path d="M489.883 218.06L464.724 262.17L478.899 259.074L502.616 216.128L489.883 218.06Z" fill="url(#paint14_linear_121_43)"/>
<path d="M447.799 192.458L489.883 218.06L502.616 216.128L462.998 192.108L447.799 192.458Z" fill="url(#paint15_linear_121_43)"/>
<g filter="url(#filter12_i_121_43)">
<rect width="197.089" height="134.224" rx="4.2476" transform="matrix(-1 0 0 1 244.089 119)" fill="url(#paint16_linear_121_43)"/>
</g>
<g filter="url(#filter13_i_121_43)">
<path fill-rule="evenodd" clip-rule="evenodd" d="M47 135.979L47 123.148C47 120.802 48.9017 118.9 51.2476 118.9L239.841 118.9C242.187 118.9 244.089 120.802 244.089 123.148L244.089 135.982C244.089 133.636 242.187 131.734 239.841 131.734L51.2476 131.734C48.9028 131.734 47.0018 133.634 47 135.979Z" fill="#86B505"/>
</g>
<ellipse cx="2.54856" cy="2.54856" rx="2.54856" ry="2.54856" transform="matrix(-1 0 0 1 232.196 123.248)" fill="white"/>
<ellipse cx="2.54856" cy="2.54856" rx="2.54856" ry="2.54856" transform="matrix(-1 0 0 1 224.55 123.248)" fill="white"/>
<ellipse cx="2.54856" cy="2.54856" rx="2.54856" ry="2.54856" transform="matrix(-1 0 0 1 216.904 123.248)" fill="white"/>
<circle cx="66.9638" cy="150.857" r="9.76949" fill="white"/>
<line x1="80.1932" y1="146.088" x2="226.006" y2="146.088" stroke="white" stroke-width="5.09713" stroke-dasharray="16.6 9.48"/>
<line x1="80.1313" y1="152.131" x2="116.661" y2="152.131" stroke="#5D7B0B" stroke-width="3.39808"/>
<circle cx="66.9638" cy="178.891" r="9.76949" fill="white"/>
<line x1="80.1932" y1="174.54" x2="226.006" y2="174.54" stroke="white" stroke-width="5.09713" stroke-dasharray="23.71 23.71"/>
<line x1="80.1313" y1="180.166" x2="116.661" y2="180.166" stroke="#5D7B0B" stroke-width="3.39808"/>
<circle cx="66.9638" cy="206.925" r="9.76949" fill="white"/>
<line x1="80.1932" y1="201.805" x2="226.006" y2="201.805" stroke="white" stroke-width="5.09713" stroke-dasharray="21.34 11.85"/>
<line x1="80.1313" y1="208.2" x2="116.661" y2="208.2" stroke="#5D7B0B" stroke-width="3.39808"/>
<circle cx="66.9638" cy="234.96" r="9.76949" fill="white"/>
<line x1="80.1932" y1="230.257" x2="226.006" y2="230.257" stroke="white" stroke-width="5.09713" stroke-dasharray="35.56 35.56"/>
<line x1="80.1313" y1="236.234" x2="116.661" y2="236.234" stroke="#5D7B0B" stroke-width="3.39808"/>
<path d="M89.677 123.742L67.6272 147.985L61.2257 143.124H57.6693L67.6272 159.306L93.2334 123.742H89.677Z" fill="url(#paint17_linear_121_43)"/>
<path d="M89.677 180.645L67.6272 204.887L61.2257 200.027H57.6693L67.6272 216.209L93.2334 180.645H89.677Z" fill="url(#paint18_linear_121_43)"/>
<rect x="392.988" width="110.36" height="110.36" rx="7.5589" transform="rotate(24.6271 392.988 0)" fill="url(#paint19_linear_121_43)"/>
<mask id="path-59-outside-1_121_43" maskUnits="userSpaceOnUse" x="370.445" y="31.8838" width="94.6576" height="84.3187" fill="black">
<rect fill="white" x="370.445" y="31.8838" width="94.6576" height="84.3187"/>
<path d="M390.952 89.6973C387.425 88.0803 384.72 86.1199 382.838 83.8159C381.023 81.4871 379.725 79.1182 378.945 76.7093L385.055 73.357C385.774 75.2944 386.761 77.1326 388.015 78.8716C389.29 80.5647 391.027 81.9153 393.226 82.9232C395.608 84.0152 397.794 84.3245 399.785 83.8513C401.843 83.3532 403.344 82.0735 404.289 80.0121C404.982 78.5004 405.191 77.0164 404.916 75.56C404.708 74.0787 403.802 72.6099 402.197 71.1534C400.637 69.7179 398.186 68.2337 394.842 66.7008L397.487 60.9289C401.793 62.9028 405.076 63.6035 407.334 63.031C409.592 62.4585 411.183 61.1645 412.107 59.1489C412.947 57.3165 413.025 55.634 412.342 54.1012C411.68 52.5226 410.341 51.2713 408.325 50.3474C406.63 49.5704 404.894 49.2458 403.117 49.3736C401.361 49.4555 399.535 49.8105 397.64 50.4383L395.822 43.7013C398.456 42.9131 401.058 42.4981 403.627 42.4563C406.242 42.4354 408.855 43.0235 411.466 44.2205C415.681 46.1524 418.631 48.7246 420.319 51.9372C422.027 55.1039 422.03 58.5425 420.329 62.253C419.216 64.6809 417.584 66.4273 415.433 67.4923C413.349 68.5324 410.905 68.9646 408.103 68.7888L407.977 69.0637C410.228 70.9268 411.803 73.1735 412.704 75.8038C413.605 78.4341 413.394 81.1923 412.071 84.0782C410.853 86.7351 409.103 88.6772 406.822 89.9044C404.587 91.1526 402.07 91.7451 399.272 91.6819C396.52 91.6398 393.746 90.9782 390.952 89.6973ZM413.091 98.8482L416.052 92.3892L425.809 96.862L438.976 68.1398L430.936 64.4544L433.204 59.5071C435.546 60.0818 437.645 60.4617 439.5 60.647C441.377 60.7864 443.191 60.7589 444.943 60.5643L450.852 63.2732L433.78 100.516L442.369 104.453L439.408 110.912L413.091 98.8482Z"/>
</mask>
<path d="M382.838 83.8159L380.453 85.6746L380.475 85.7018L380.496 85.7286L382.838 83.8159ZM378.945 76.7093L377.49 74.0585L375.297 75.2617L376.068 77.6413L378.945 76.7093ZM385.055 73.357L387.889 72.3044L386.67 69.0219L383.601 70.7062L385.055 73.357ZM388.015 78.8716L385.563 80.64L385.581 80.6654L385.6 80.6903L388.015 78.8716ZM399.785 83.8513L400.484 86.7929L400.496 86.79L399.785 83.8513ZM404.916 75.56L401.922 75.9803L401.932 76.0507L401.945 76.1205L404.916 75.56ZM402.197 71.1534L400.149 73.3779L400.157 73.3853L400.165 73.3926L402.197 71.1534ZM394.842 66.7008L392.093 65.4408L390.833 68.1894L393.582 69.4493L394.842 66.7008ZM397.487 60.9289L398.747 58.1803L395.999 56.9204L394.739 59.6689L397.487 60.9289ZM407.334 63.031L408.077 65.9618L408.077 65.9618L407.334 63.031ZM412.342 54.1012L409.554 55.2709L409.567 55.3017L409.58 55.3322L412.342 54.1012ZM403.117 49.3736L403.258 52.3939L403.296 52.3921L403.334 52.3894L403.117 49.3736ZM397.64 50.4383L394.721 51.2259L395.554 54.3144L398.591 53.3085L397.64 50.4383ZM395.822 43.7013L394.955 40.8046L392.136 41.648L392.903 44.4889L395.822 43.7013ZM403.627 42.4563L403.603 39.4328L403.59 39.4329L403.578 39.4331L403.627 42.4563ZM420.319 51.9372L417.642 53.343L417.65 53.3578L417.658 53.3726L420.319 51.9372ZM415.433 67.4923L414.092 64.7826L414.083 64.7869L415.433 67.4923ZM408.103 68.7888L408.293 65.7712L406.22 65.6412L405.355 67.5289L408.103 68.7888ZM407.977 69.0637L405.229 67.8037L404.262 69.9129L406.049 71.3926L407.977 69.0637ZM412.704 75.8038L409.844 76.7834L409.844 76.7834L412.704 75.8038ZM406.822 89.9044L405.39 87.2417L405.369 87.253L405.348 87.2645L406.822 89.9044ZM399.272 91.6819L399.34 88.6591L399.329 88.6589L399.318 88.6587L399.272 91.6819ZM392.212 86.9487C388.981 85.4678 386.695 83.7579 385.18 81.9032L380.496 85.7286C382.745 88.4818 385.868 90.6928 389.692 92.4458L392.212 86.9487ZM385.223 81.9572C383.589 79.861 382.477 77.8005 381.821 75.7773L376.068 77.6413C376.974 80.436 378.457 83.1131 380.453 85.6746L385.223 81.9572ZM380.399 79.3601L386.509 76.0078L383.601 70.7062L377.49 74.0585L380.399 79.3601ZM382.22 74.4096C383.038 76.6111 384.156 78.6889 385.563 80.64L390.467 77.1031C389.366 75.5763 388.511 73.9777 387.889 72.3044L382.22 74.4096ZM385.6 80.6903C387.217 82.8381 389.376 84.4845 391.966 85.6718L394.486 80.1747C392.678 79.3461 391.363 78.2913 390.43 77.0528L385.6 80.6903ZM391.966 85.6718C394.787 86.965 397.672 87.4613 400.484 86.7929L399.086 80.9097C397.916 81.1878 396.429 81.0653 394.486 80.1747L391.966 85.6718ZM400.496 86.79C403.526 86.0567 405.738 84.1065 407.038 81.272L401.541 78.7521C400.95 80.0404 400.16 80.6497 399.074 80.9126L400.496 86.79ZM407.038 81.272C407.958 79.2636 408.292 77.1449 407.887 74.9994L401.945 76.1205C402.09 76.8878 402.006 77.7372 401.541 78.7521L407.038 81.272ZM407.911 75.1396C407.568 72.7028 406.128 70.6376 404.228 68.9142L400.165 73.3926C401.476 74.5822 401.848 75.4546 401.922 75.9803L407.911 75.1396ZM404.244 68.9289C402.341 67.1766 399.555 65.5353 396.101 63.9522L393.582 69.4493C396.816 70.9321 398.934 72.2592 400.149 73.3779L404.244 68.9289ZM397.59 67.9607L400.236 62.1888L394.739 59.6689L392.093 65.4408L397.59 67.9607ZM396.227 63.6774C400.619 65.6903 404.739 66.808 408.077 65.9618L406.591 60.1002C405.412 60.399 402.968 60.1153 398.747 58.1803L396.227 63.6774ZM408.077 65.9618C411.17 65.1776 413.528 63.3035 414.855 60.4088L409.358 57.8889C408.837 59.0254 408.014 59.7394 406.591 60.1002L408.077 65.9618ZM414.855 60.4088C415.978 57.9602 416.211 55.3558 415.103 52.8702L409.58 55.3322C409.839 55.9122 409.916 56.6729 409.358 57.8889L414.855 60.4088ZM415.13 52.9315C414.096 50.4665 412.08 48.7427 409.585 47.5988L407.065 53.0959C408.601 53.8 409.263 54.5787 409.554 55.2709L415.13 52.9315ZM409.585 47.5988C407.45 46.6203 405.208 46.1919 402.9 46.3578L403.334 52.3894C404.58 52.2997 405.81 52.5205 407.065 53.0959L409.585 47.5988ZM402.976 46.3533C400.91 46.4497 398.811 46.8651 396.689 47.5681L398.591 53.3085C400.259 52.7558 401.812 52.4614 403.258 52.3939L402.976 46.3533ZM400.559 49.6507L398.741 42.9137L392.903 44.4889L394.721 51.2259L400.559 49.6507ZM396.689 46.5979C399.076 45.8836 401.403 45.5165 403.676 45.4794L403.578 39.4331C400.713 39.4798 397.836 39.9426 394.955 40.8046L396.689 46.5979ZM403.651 45.4797C405.781 45.4628 407.958 45.9383 410.206 46.969L412.726 41.4719C409.752 40.1087 406.703 39.4081 403.603 39.4328L403.651 45.4797ZM410.206 46.969C413.984 48.7005 416.343 50.8695 417.642 53.343L422.995 50.5313C420.92 46.5798 417.378 43.6042 412.726 41.4719L410.206 46.969ZM417.658 53.3726C418.85 55.5839 418.947 58.0125 417.581 60.9931L423.078 63.513C425.114 59.0725 425.203 54.6239 422.98 50.5017L417.658 53.3726ZM417.581 60.9931C416.722 62.8661 415.551 64.0601 414.092 64.7826L416.775 70.202C419.618 68.7945 421.711 66.4957 423.078 63.513L417.581 60.9931ZM414.083 64.7869C412.564 65.5447 410.672 65.9205 408.293 65.7712L407.914 71.8065C411.139 72.0087 414.133 71.5202 416.783 70.1977L414.083 64.7869ZM405.355 67.5289L405.229 67.8037L410.726 70.3236L410.852 70.0488L405.355 67.5289ZM406.049 71.3926C407.893 72.9193 409.133 74.7075 409.844 76.7834L415.565 74.8242C414.474 71.6395 412.562 68.9343 409.906 66.7347L406.049 71.3926ZM409.844 76.7834C410.457 78.5755 410.372 80.5291 409.322 82.8183L414.819 85.3382C416.416 81.8554 416.752 78.2928 415.565 74.8242L409.844 76.7834ZM409.322 82.8183C408.342 84.9574 407.018 86.3659 405.39 87.2417L408.255 92.5671C411.189 90.9885 413.364 88.5129 414.819 85.3382L409.322 82.8183ZM405.348 87.2645C403.627 88.2257 401.651 88.7113 399.34 88.6591L399.204 94.7047C402.489 94.7789 405.547 94.0795 408.296 92.5442L405.348 87.2645ZM399.318 88.6587C397.032 88.6237 394.67 88.0754 392.212 86.9487L389.692 92.4458C392.823 93.881 396.008 94.6558 399.226 94.7051L399.318 88.6587ZM413.091 98.8482L410.343 97.5883L409.083 100.337L411.831 101.597L413.091 98.8482ZM416.052 92.3892L417.312 89.6406L414.563 88.3807L413.303 91.1292L416.052 92.3892ZM425.809 96.862L424.549 99.6105L427.298 100.87L428.558 98.1219L425.809 96.862ZM438.976 68.1398L441.724 69.3997L442.984 66.6512L440.236 65.3913L438.976 68.1398ZM430.936 64.4544L428.188 63.1945L426.928 65.943L429.676 67.203L430.936 64.4544ZM433.204 59.5071L433.925 56.5706L431.497 55.975L430.456 58.2471L433.204 59.5071ZM439.5 60.647L439.2 63.6556L439.238 63.6594L439.276 63.6622L439.5 60.647ZM444.943 60.5643L446.203 57.8158L445.442 57.4668L444.609 57.5592L444.943 60.5643ZM450.852 63.2732L453.601 64.5331L454.861 61.7846L452.112 60.5247L450.852 63.2732ZM433.78 100.516L431.032 99.2559L429.772 102.004L432.52 103.264L433.78 100.516ZM442.369 104.453L445.118 105.713L446.378 102.965L443.629 101.705L442.369 104.453ZM439.408 110.912L438.148 113.661L440.897 114.921L442.157 112.172L439.408 110.912ZM415.84 100.108L418.801 93.6491L413.303 91.1292L410.343 97.5883L415.84 100.108ZM414.792 95.1377L424.549 99.6105L427.069 94.1134L417.312 89.6406L414.792 95.1377ZM428.558 98.1219L441.724 69.3997L436.227 66.8798L423.061 95.602L428.558 98.1219ZM440.236 65.3913L432.196 61.7059L429.676 67.203L437.716 70.8883L440.236 65.3913ZM433.685 65.7144L435.953 60.767L430.456 58.2471L428.188 63.1945L433.685 65.7144ZM432.484 62.4435C434.926 63.0428 437.169 63.4528 439.2 63.6556L439.801 57.6384C438.121 57.4707 436.166 57.1207 433.925 56.5706L432.484 62.4435ZM439.276 63.6622C441.326 63.8146 443.327 63.7859 445.277 63.5694L444.609 57.5592C443.054 57.7319 441.427 57.7583 439.724 57.6318L439.276 63.6622ZM443.683 63.3128L449.592 66.0217L452.112 60.5247L446.203 57.8158L443.683 63.3128ZM448.104 62.0132L431.032 99.2559L436.529 101.776L453.601 64.5331L448.104 62.0132ZM432.52 103.264L441.109 107.202L443.629 101.705L435.04 97.7673L432.52 103.264ZM439.621 103.193L436.66 109.652L442.157 112.172L445.118 105.713L439.621 103.193ZM440.668 108.164L414.351 96.0997L411.831 101.597L438.148 113.661L440.668 108.164Z" fill="#93C704" mask="url(#path-59-outside-1_121_43)"/>
<rect x="426.313" y="25.2549" width="28.7238" height="5.29123" rx="2.26767" transform="rotate(24.6271 426.313 25.2549)" fill="#565656"/>
<defs>
<filter id="filter0_i_121_43" x="5.62207" y="47.7747" width="258.411" height="268.035" filterUnits="userSpaceOnUse" color-interpolation-filters="sRGB">
<feFlood flood-opacity="0" result="BackgroundImageFix"/>
<feBlend mode="normal" in="SourceGraphic" in2="BackgroundImageFix" result="shape"/>
<feColorMatrix in="SourceAlpha" type="matrix" values="0 0 0 0 0 0 0 0 0 0 0 0 0 0 0 0 0 0 127 0" result="hardAlpha"/>
<feOffset dx="6" dy="6"/>
<feGaussianBlur stdDeviation="15"/>
<feComposite in2="hardAlpha" operator="arithmetic" k2="-1" k3="1"/>
<feColorMatrix type="matrix" values="0 0 0 0 0.891398 0 0 0 0 0.991667 0 0 0 0 0.61566 0 0 0 1 0"/>
<feBlend mode="normal" in2="shape" result="effect1_innerShadow_121_43"/>
</filter>
<filter id="filter1_i_121_43" x="311.5" y="119" width="247.5" height="195" filterUnits="userSpaceOnUse" color-interpolation-filters="sRGB">
<feFlood flood-opacity="0" result="BackgroundImageFix"/>
<feBlend mode="normal" in="SourceGraphic" in2="BackgroundImageFix" result="shape"/>
<feColorMatrix in="SourceAlpha" type="matrix" values="0 0 0 0 0 0 0 0 0 0 0 0 0 0 0 0 0 0 127 0" result="hardAlpha"/>
<feOffset dx="4" dy="4"/>
<feGaussianBlur stdDeviation="10"/>
<feComposite in2="hardAlpha" operator="arithmetic" k2="-1" k3="1"/>
<feColorMatrix type="matrix" values="0 0 0 0 0.891398 0 0 0 0 0.991667 0 0 0 0 0.61566 0 0 0 1 0"/>
<feBlend mode="normal" in2="shape" result="effect1_innerShadow_121_43"/>
</filter>
<filter id="filter2_i_121_43" x="165" y="204" width="248" height="111" filterUnits="userSpaceOnUse" color-interpolation-filters="sRGB">
<feFlood flood-opacity="0" result="BackgroundImageFix"/>
<feBlend mode="normal" in="SourceGraphic" in2="BackgroundImageFix" result="shape"/>
<feColorMatrix in="SourceAlpha" type="matrix" values="0 0 0 0 0 0 0 0 0 0 0 0 0 0 0 0 0 0 127 0" result="hardAlpha"/>
<feOffset dx="4" dy="4"/>
<feGaussianBlur stdDeviation="10"/>
<feComposite in2="hardAlpha" operator="arithmetic" k2="-1" k3="1"/>
<feColorMatrix type="matrix" values="0 0 0 0 0.891398 0 0 0 0 0.991667 0 0 0 0 0.61566 0 0 0 1 0"/>
<feBlend mode="normal" in2="shape" result="effect1_innerShadow_121_43"/>
</filter>
<filter id="filter3_i_121_43" x="303.979" y="178.584" width="29.9579" height="29.958" filterUnits="userSpaceOnUse" color-interpolation-filters="sRGB">
<feFlood flood-opacity="0" result="BackgroundImageFix"/>
<feBlend mode="normal" in="SourceGraphic" in2="BackgroundImageFix" result="shape"/>
<feColorMatrix in="SourceAlpha" type="matrix" values="0 0 0 0 0 0 0 0 0 0 0 0 0 0 0 0 0 0 127 0" result="hardAlpha"/>
<feOffset dx="4" dy="4"/>
<feGaussianBlur stdDeviation="3"/>
<feComposite in2="hardAlpha" operator="arithmetic" k2="-1" k3="1"/>
<feColorMatrix type="matrix" values="0 0 0 0 1 0 0 0 0 1 0 0 0 0 1 0 0 0 1 0"/>
<feBlend mode="normal" in2="shape" result="effect1_innerShadow_121_43"/>
</filter>
<filter id="filter4_i_121_43" x="346.521" y="178.584" width="29.9579" height="29.958" filterUnits="userSpaceOnUse" color-interpolation-filters="sRGB">
<feFlood flood-opacity="0" result="BackgroundImageFix"/>
<feBlend mode="normal" in="SourceGraphic" in2="BackgroundImageFix" result="shape"/>
<feColorMatrix in="SourceAlpha" type="matrix" values="0 0 0 0 0 0 0 0 0 0 0 0 0 0 0 0 0 0 127 0" result="hardAlpha"/>
<feOffset dx="4" dy="4"/>
<feGaussianBlur stdDeviation="3"/>
<feComposite in2="hardAlpha" operator="arithmetic" k2="-1" k3="1"/>
<feColorMatrix type="matrix" values="0 0 0 0 0.891398 0 0 0 0 0.991667 0 0 0 0 0.61566 0 0 0 1 0"/>
<feBlend mode="normal" in2="shape" result="effect1_innerShadow_121_43"/>
</filter>
<filter id="filter5_i_121_43" x="389.063" y="178.584" width="29.9579" height="29.958" filterUnits="userSpaceOnUse" color-interpolation-filters="sRGB">
<feFlood flood-opacity="0" result="BackgroundImageFix"/>
<feBlend mode="normal" in="SourceGraphic" in2="BackgroundImageFix" result="shape"/>
<feColorMatrix in="SourceAlpha" type="matrix" values="0 0 0 0 0 0 0 0 0 0 0 0 0 0 0 0 0 0 127 0" result="hardAlpha"/>
<feOffset dx="4" dy="4"/>
<feGaussianBlur stdDeviation="3"/>
<feComposite in2="hardAlpha" operator="arithmetic" k2="-1" k3="1"/>
<feColorMatrix type="matrix" values="0 0 0 0 1 0 0 0 0 1 0 0 0 0 1 0 0 0 1 0"/>
<feBlend mode="normal" in2="shape" result="effect1_innerShadow_121_43"/>
</filter>
<filter id="filter6_i_121_43" x="303.979" y="221.126" width="29.9579" height="29.958" filterUnits="userSpaceOnUse" color-interpolation-filters="sRGB">
<feFlood flood-opacity="0" result="BackgroundImageFix"/>
<feBlend mode="normal" in="SourceGraphic" in2="BackgroundImageFix" result="shape"/>
<feColorMatrix in="SourceAlpha" type="matrix" values="0 0 0 0 0 0 0 0 0 0 0 0 0 0 0 0 0 0 127 0" result="hardAlpha"/>
<feOffset dx="4" dy="4"/>
<feGaussianBlur stdDeviation="3"/>
<feComposite in2="hardAlpha" operator="arithmetic" k2="-1" k3="1"/>
<feColorMatrix type="matrix" values="0 0 0 0 1 0 0 0 0 1 0 0 0 0 1 0 0 0 1 0"/>
<feBlend mode="normal" in2="shape" result="effect1_innerShadow_121_43"/>
</filter>
<filter id="filter7_i_121_43" x="346.521" y="221.126" width="29.9579" height="29.958" filterUnits="userSpaceOnUse" color-interpolation-filters="sRGB">
<feFlood flood-opacity="0" result="BackgroundImageFix"/>
<feBlend mode="normal" in="SourceGraphic" in2="BackgroundImageFix" result="shape"/>
<feColorMatrix in="SourceAlpha" type="matrix" values="0 0 0 0 0 0 0 0 0 0 0 0 0 0 0 0 0 0 127 0" result="hardAlpha"/>
<feOffset dx="4" dy="4"/>
<feGaussianBlur stdDeviation="3"/>
<feComposite in2="hardAlpha" operator="arithmetic" k2="-1" k3="1"/>
<feColorMatrix type="matrix" values="0 0 0 0 1 0 0 0 0 1 0 0 0 0 1 0 0 0 1 0"/>
<feBlend mode="normal" in2="shape" result="effect1_innerShadow_121_43"/>
</filter>
<filter id="filter8_i_121_43" x="389.063" y="221.126" width="29.9579" height="29.958" filterUnits="userSpaceOnUse" color-interpolation-filters="sRGB">
<feFlood flood-opacity="0" result="BackgroundImageFix"/>
<feBlend mode="normal" in="SourceGraphic" in2="BackgroundImageFix" result="shape"/>
<feColorMatrix in="SourceAlpha" type="matrix" values="0 0 0 0 0 0 0 0 0 0 0 0 0 0 0 0 0 0 127 0" result="hardAlpha"/>
<feOffset dx="4" dy="4"/>
<feGaussianBlur stdDeviation="3"/>
<feComposite in2="hardAlpha" operator="arithmetic" k2="-1" k3="1"/>
<feColorMatrix type="matrix" values="0 0 0 0 0.891398 0 0 0 0 0.991667 0 0 0 0 0.61566 0 0 0 1 0"/>
<feBlend mode="normal" in2="shape" result="effect1_innerShadow_121_43"/>
</filter>
<filter id="filter9_i_121_43" x="303.979" y="263.668" width="29.9579" height="29.958" filterUnits="userSpaceOnUse" color-interpolation-filters="sRGB">
<feFlood flood-opacity="0" result="BackgroundImageFix"/>
<feBlend mode="normal" in="SourceGraphic" in2="BackgroundImageFix" result="shape"/>
<feColorMatrix in="SourceAlpha" type="matrix" values="0 0 0 0 0 0 0 0 0 0 0 0 0 0 0 0 0 0 127 0" result="hardAlpha"/>
<feOffset dx="4" dy="4"/>
<feGaussianBlur stdDeviation="3"/>
<feComposite in2="hardAlpha" operator="arithmetic" k2="-1" k3="1"/>
<feColorMatrix type="matrix" values="0 0 0 0 1 0 0 0 0 1 0 0 0 0 1 0 0 0 1 0"/>
<feBlend mode="normal" in2="shape" result="effect1_innerShadow_121_43"/>
</filter>
<filter id="filter10_i_121_43" x="346.521" y="263.668" width="29.9579" height="29.958" filterUnits="userSpaceOnUse" color-interpolation-filters="sRGB">
<feFlood flood-opacity="0" result="BackgroundImageFix"/>
<feBlend mode="normal" in="SourceGraphic" in2="BackgroundImageFix" result="shape"/>
<feColorMatrix in="SourceAlpha" type="matrix" values="0 0 0 0 0 0 0 0 0 0 0 0 0 0 0 0 0 0 127 0" result="hardAlpha"/>
<feOffset dx="4" dy="4"/>
<feGaussianBlur stdDeviation="3"/>
<feComposite in2="hardAlpha" operator="arithmetic" k2="-1" k3="1"/>
<feColorMatrix type="matrix" values="0 0 0 0 0.876472 0 0 0 0 0.945833 0 0 0 0 0.685729 0 0 0 1 0"/>
<feBlend mode="normal" in2="shape" result="effect1_innerShadow_121_43"/>
</filter>
<filter id="filter11_i_121_43" x="389.063" y="263.668" width="29.9579" height="29.958" filterUnits="userSpaceOnUse" color-interpolation-filters="sRGB">
<feFlood flood-opacity="0" result="BackgroundImageFix"/>
<feBlend mode="normal" in="SourceGraphic" in2="BackgroundImageFix" result="shape"/>
<feColorMatrix in="SourceAlpha" type="matrix" values="0 0 0 0 0 0 0 0 0 0 0 0 0 0 0 0 0 0 127 0" result="hardAlpha"/>
<feOffset dx="4" dy="4"/>
<feGaussianBlur stdDeviation="3"/>
<feComposite in2="hardAlpha" operator="arithmetic" k2="-1" k3="1"/>
<feColorMatrix type="matrix" values="0 0 0 0 1 0 0 0 0 1 0 0 0 0 1 0 0 0 1 0"/>
<feBlend mode="normal" in2="shape" result="effect1_innerShadow_121_43"/>
</filter>
<filter id="filter12_i_121_43" x="47" y="119" width="203.089" height="140.224" filterUnits="userSpaceOnUse" color-interpolation-filters="sRGB">
<feFlood flood-opacity="0" result="BackgroundImageFix"/>
<feBlend mode="normal" in="SourceGraphic" in2="BackgroundImageFix" result="shape"/>
<feColorMatrix in="SourceAlpha" type="matrix" values="0 0 0 0 0 0 0 0 0 0 0 0 0 0 0 0 0 0 127 0" result="hardAlpha"/>
<feOffset dx="6" dy="6"/>
<feGaussianBlur stdDeviation="5"/>
<feComposite in2="hardAlpha" operator="arithmetic" k2="-1" k3="1"/>
<feColorMatrix type="matrix" values="0 0 0 0 0.878431 0 0 0 0 0.878431 0 0 0 0 0.878431 0 0 0 1 0"/>
<feBlend mode="normal" in2="shape" result="effect1_innerShadow_121_43"/>
</filter>
<filter id="filter13_i_121_43" x="47" y="118.9" width="197.089" height="19.082" filterUnits="userSpaceOnUse" color-interpolation-filters="sRGB">
<feFlood flood-opacity="0" result="BackgroundImageFix"/>
<feBlend mode="normal" in="SourceGraphic" in2="BackgroundImageFix" result="shape"/>
<feColorMatrix in="SourceAlpha" type="matrix" values="0 0 0 0 0 0 0 0 0 0 0 0 0 0 0 0 0 0 127 0" result="hardAlpha"/>
<feOffset dy="2"/>
<feGaussianBlur stdDeviation="2"/>
<feComposite in2="hardAlpha" operator="arithmetic" k2="-1" k3="1"/>
<feColorMatrix type="matrix" values="0 0 0 0 1 0 0 0 0 1 0 0 0 0 1 0 0 0 1 0"/>
<feBlend mode="normal" in2="shape" result="effect1_innerShadow_121_43"/>
</filter>
<linearGradient id="paint0_linear_121_43" x1="22.5262" y1="249.05" x2="151.578" y2="59.0076" gradientUnits="userSpaceOnUse">
<stop stop-color="#E3FD9D" stop-opacity="0.57"/>
<stop offset="1" stop-color="#93C704"/>
</linearGradient>
<linearGradient id="paint1_linear_121_43" x1="337.617" y1="252.519" x2="431.702" y2="101.694" gradientUnits="userSpaceOnUse">
<stop stop-color="#93C704"/>
<stop offset="1" stop-color="#93C704" stop-opacity="0"/>
<stop offset="1" stop-color="#E3FD9D"/>
</linearGradient>
<linearGradient id="paint2_linear_121_43" x1="191.171" y1="278.798" x2="227.665" y2="174.153" gradientUnits="userSpaceOnUse">
<stop stop-color="#93C704"/>
<stop offset="1" stop-color="#93C704" stop-opacity="0"/>
<stop offset="1" stop-color="#E3FD9D"/>
</linearGradient>
<linearGradient id="paint3_linear_121_43" x1="291" y1="162" x2="428" y2="302.245" gradientUnits="userSpaceOnUse">
<stop stop-color="#F7E650"/>
<stop offset="1" stop-color="#9AD5FF"/>
</linearGradient>
<linearGradient id="paint4_linear_121_43" x1="343.5" y1="158" x2="343.5" y2="173" gradientUnits="userSpaceOnUse">
<stop stop-color="#3E3E3E" stop-opacity="0"/>
<stop offset="1" stop-color="#3E3E3E"/>
</linearGradient>
<linearGradient id="paint5_linear_121_43" x1="360.5" y1="158" x2="360.5" y2="173" gradientUnits="userSpaceOnUse">
<stop stop-color="#3E3E3E" stop-opacity="0"/>
<stop offset="1" stop-color="#3E3E3E"/>
</linearGradient>
<linearGradient id="paint6_linear_121_43" x1="376.5" y1="157" x2="376.5" y2="173" gradientUnits="userSpaceOnUse">
<stop stop-color="#3E3E3E" stop-opacity="0"/>
<stop offset="1" stop-color="#3E3E3E"/>
</linearGradient>
<linearGradient id="paint7_linear_121_43" x1="245" y1="63" x2="279" y2="79.5" gradientUnits="userSpaceOnUse">
<stop stop-color="#93C704"/>
<stop offset="0.955444" stop-color="#E0F1AF"/>
</linearGradient>
<linearGradient id="paint8_linear_121_43" x1="269" y1="55" x2="279" y2="79.5" gradientUnits="userSpaceOnUse">
<stop stop-color="#62752D"/>
<stop offset="0.955444" stop-color="#B7DD4C"/>
</linearGradient>
<linearGradient id="paint9_linear_121_43" x1="271" y1="48" x2="250" y2="64.5" gradientUnits="userSpaceOnUse">
<stop stop-color="#7BA702"/>
<stop offset="1" stop-color="#E0F1AF"/>
</linearGradient>
<linearGradient id="paint10_linear_121_43" x1="66" y1="291.926" x2="7.53307" y2="320.068" gradientUnits="userSpaceOnUse">
<stop stop-color="#93C704"/>
<stop offset="0.955444" stop-color="#E0F1AF"/>
</linearGradient>
<linearGradient id="paint11_linear_121_43" x1="24.8571" y1="278.099" x2="7.47198" y2="320.345" gradientUnits="userSpaceOnUse">
<stop stop-color="#62752D"/>
<stop offset="0.955444" stop-color="#B7DD4C"/>
</linearGradient>
<linearGradient id="paint12_linear_121_43" x1="21.4286" y1="266" x2="57.6534" y2="294.23" gradientUnits="userSpaceOnUse">
<stop stop-color="#7BA702"/>
<stop offset="1" stop-color="#E0F1AF"/>
</linearGradient>
<linearGradient id="paint13_linear_121_43" x1="447.799" y1="192.458" x2="463.56" y2="260.727" gradientUnits="userSpaceOnUse">
<stop stop-color="#93C704"/>
<stop offset="0.955444" stop-color="#E0F1AF"/>
</linearGradient>
<linearGradient id="paint14_linear_121_43" x1="487.276" y1="217.781" x2="463.56" y2="260.727" gradientUnits="userSpaceOnUse">
<stop stop-color="#62752D"/>
<stop offset="0.955444" stop-color="#B7DD4C"/>
</linearGradient>
<linearGradient id="paint15_linear_121_43" x1="499.706" y1="212.52" x2="451.453" y2="201.419" gradientUnits="userSpaceOnUse">
<stop stop-color="#7BA702"/>
<stop offset="1" stop-color="#E0F1AF"/>
</linearGradient>
<linearGradient id="paint16_linear_121_43" x1="197.253" y1="9.99999" x2="32.7534" y2="143" gradientUnits="userSpaceOnUse">
<stop stop-color="#4EABEC"/>
<stop offset="1" stop-color="#E3FD9D"/>
</linearGradient>
<linearGradient id="paint17_linear_121_43" x1="67.153" y1="158.121" x2="68.9312" y2="126.113" gradientUnits="userSpaceOnUse">
<stop stop-color="#3E3E3E"/>
<stop offset="1" stop-color="#3E3E3E" stop-opacity="0"/>
</linearGradient>
<linearGradient id="paint18_linear_121_43" x1="67.153" y1="215.023" x2="68.9312" y2="183.015" gradientUnits="userSpaceOnUse">
<stop stop-color="#3E3E3E"/>
<stop offset="1" stop-color="#3E3E3E" stop-opacity="0"/>
</linearGradient>
<linearGradient id="paint19_linear_121_43" x1="392.988" y1="0" x2="503.348" y2="116.203" gradientUnits="userSpaceOnUse">
<stop stop-color="#E0F1AF"/>
<stop offset="1" stop-color="#A0D7FF"/>
</linearGradient>
</defs>
</svg>
