<svg width="84" height="66" viewBox="0 0 84 66" fill="none" xmlns="http://www.w3.org/2000/svg">
<g id="&#240;&#159;&#166;&#134; icon &#34;quote&#34;">
<path id="Vector" d="M35.4925 4.63955L32.4768 0C11.5989 14.0346 0 31.085 0 45.1196C0 58.6903 9.97503 65.0697 18.4422 65.0697C29.1132 65.0697 36.6524 56.0226 36.6524 46.5115C36.6524 38.5083 31.5489 31.6649 24.7056 29.1132C22.7338 28.4172 20.878 27.8373 20.878 24.4736C20.878 20.182 24.0097 13.8027 35.4925 4.63955ZM81.5401 4.63955L78.5244 0C57.8784 14.0346 46.0475 31.085 46.0475 45.1196C46.0475 58.6903 56.2545 65.0697 64.7217 65.0697C75.5087 65.0697 83.1639 56.0226 83.1639 46.5115C83.1639 38.5083 77.9444 31.6649 70.8691 29.1132C68.8973 28.4172 67.1575 27.8373 67.1575 24.4736C67.1575 20.182 70.4052 13.8027 81.5401 4.63955Z" fill="#93C704"/>
</g>
</svg>
