<svg width="34" height="58" viewBox="0 0 34 58" fill="none" xmlns="http://www.w3.org/2000/svg">
<g id="Group">
<g id="Group_2">
<path id="Vector" d="M33 17.1303C33 21.0143 31.2743 22.8885 29.3708 27.3641C28.8847 28.5063 25.2997 40.4048 25.2997 40.4048H8.7003C8.7003 40.4048 5.81837 29.0307 5.27214 28.1048C2.98091 24.2082 1 21.37 1 17.1303C1 8.22112 8.16375 1 17 1C25.8372 1 33 8.2221 33 17.1303Z" stroke="#3E3E3E" stroke-width="1.93353" stroke-miterlimit="10" stroke-linecap="round" stroke-linejoin="round"/>
<g id="Vector_2">
<path d="M17.0001 40.0051V28.3679V40.0051Z" fill="#3E3E3E"/>
<path d="M17.0001 40.0051V28.3679" stroke="#3E3E3E" stroke-width="1.93353" stroke-miterlimit="10" stroke-linecap="round" stroke-linejoin="round"/>
</g>
<g id="Vector_3">
<path d="M22.7716 28.3679H11.2284H22.7716Z" fill="#3E3E3E"/>
<path d="M22.7716 28.3679H11.2284" stroke="#3E3E3E" stroke-width="1.93353" stroke-miterlimit="10" stroke-linecap="round" stroke-linejoin="round"/>
</g>
</g>
<path id="Vector_4" d="M24.8888 51.2817C24.8888 54.4396 21.3592 57 17.0048 57C12.6505 57 9.12085 54.4396 9.12085 51.2817H24.8888Z" stroke="#3E3E3E" stroke-width="1.63964" stroke-miterlimit="10" stroke-linecap="round" stroke-linejoin="round"/>
<g id="Vector_5">
<path d="M9.25623 47.5684L24.7438 44.1864L9.25623 47.5684Z" fill="#3E3E3E"/>
<path d="M9.25623 47.5684L24.7438 44.1864" stroke="#3E3E3E" stroke-width="1.8997" stroke-miterlimit="10" stroke-linecap="round" stroke-linejoin="round"/>
</g>
<g id="Vector_6">
<path d="M19.127 48.6307L24.7149 47.4806L19.127 48.6307Z" fill="#3E3E3E"/>
<path d="M19.127 48.6307L24.7149 47.4806" stroke="#3E3E3E" stroke-width="1.93353" stroke-miterlimit="10" stroke-linecap="round" stroke-linejoin="round"/>
</g>
<g id="Vector_7">
<path d="M9.28516 44.2741L14.8731 43.124L9.28516 44.2741Z" fill="#3E3E3E"/>
<path d="M9.28516 44.2741L14.8731 43.124" stroke="#3E3E3E" stroke-width="1.93353" stroke-miterlimit="10" stroke-linecap="round" stroke-linejoin="round"/>
</g>
</g>
</svg>
