<svg width="555" height="336" viewBox="0 0 555 336" fill="none" xmlns="http://www.w3.org/2000/svg">
<g filter="url(#filter0_i_85_218)">
<path d="M258 309.81C259.454 255.376 212.526 49.6604 142.373 47.787C72.2203 45.9136 7.07573 255.375 5.62207 309.81L128 309.81L258 309.81Z" fill="url(#paint0_linear_85_218)"/>
</g>
<g filter="url(#filter1_i_85_218)">
<path d="M555 310C555 270.008 499.164 119 433.571 119C367.979 119 311.5 270.008 311.5 310L426.5 310L555 310Z" fill="url(#paint1_linear_85_218)"/>
</g>
<g filter="url(#filter2_i_85_218)">
<path d="M409 311C409 288.596 353.05 204 287.322 204C221.595 204 165 288.596 165 311L280.236 311L409 311Z" fill="url(#paint2_linear_85_218)"/>
</g>
<path d="M269 45V291" stroke="white"/>
<path d="M296 44V292" stroke="white"/>
<path d="M323 45V291" stroke="white"/>
<path d="M350 44V292" stroke="white"/>
<path d="M377 45V291" stroke="white"/>
<path d="M404 44V292" stroke="white"/>
<path d="M431 44V292" stroke="white"/>
<path d="M452 68L245 68" stroke="white"/>
<path d="M453 95L244 95" stroke="white"/>
<path d="M452 122L245 122" stroke="white"/>
<path d="M453 149L244 149" stroke="white"/>
<path d="M452 176L245 176" stroke="white"/>
<path d="M453 203L244 203" stroke="white"/>
<path d="M453 230L244 230" stroke="white"/>
<path d="M453 256L244 256" stroke="white"/>
<rect x="291" y="162" width="137" height="137" rx="14.4211" fill="url(#paint3_linear_85_218)"/>
<g filter="url(#filter3_i_85_218)">
<rect x="303.979" y="178.584" width="25.9579" height="25.9579" rx="4" fill="#E0E0E0"/>
</g>
<g filter="url(#filter4_i_85_218)">
<rect x="346.521" y="178.584" width="25.9579" height="25.9579" rx="4" fill="#93C704"/>
</g>
<g filter="url(#filter5_i_85_218)">
<rect x="389.063" y="178.584" width="25.9579" height="25.9579" rx="4" fill="#E0E0E0"/>
</g>
<g filter="url(#filter6_i_85_218)">
<rect x="303.979" y="221.126" width="25.9579" height="25.9579" rx="4" fill="#E0E0E0"/>
</g>
<g filter="url(#filter7_i_85_218)">
<rect x="346.521" y="221.126" width="25.9579" height="25.9579" rx="4" fill="#E0E0E0"/>
</g>
<g filter="url(#filter8_i_85_218)">
<rect x="389.063" y="221.126" width="25.9579" height="25.9579" rx="4" fill="#93C704"/>
</g>
<g filter="url(#filter9_i_85_218)">
<rect x="303.979" y="263.668" width="25.9579" height="25.9579" rx="4" fill="#E0E0E0"/>
</g>
<g filter="url(#filter10_i_85_218)">
<rect x="346.521" y="263.668" width="25.9579" height="25.9579" rx="4" fill="#93C704"/>
</g>
<g filter="url(#filter11_i_85_218)">
<rect x="389.063" y="263.668" width="25.9579" height="25.9579" rx="4" fill="#E0E0E0"/>
</g>
<path d="M343 158V173" stroke="url(#paint4_linear_85_218)" stroke-width="2.16316" stroke-linecap="round"/>
<path d="M360 158V173" stroke="url(#paint5_linear_85_218)" stroke-width="2.16316" stroke-linecap="round"/>
<path d="M376 157V173" stroke="url(#paint6_linear_85_218)" stroke-width="2.16316" stroke-linecap="round"/>
<path d="M245 63L270 54L280 79.5L254.5 88.5L245 63Z" fill="url(#paint7_linear_85_218)"/>
<path d="M270 54L280 79.5L283.5 72.5L273.5 48L270 54Z" fill="url(#paint8_linear_85_218)"/>
<path d="M245 63L270 54L273.5 48L250 56.5L245 63Z" fill="url(#paint9_linear_85_218)"/>
<path d="M66 291.926L23.1429 276.37L6 320.444L49.7143 336L66 291.926Z" fill="url(#paint10_linear_85_218)"/>
<path d="M23.1429 276.37L6 320.444L0 308.346L17.1429 266L23.1429 276.37Z" fill="url(#paint11_linear_85_218)"/>
<path d="M66 291.926L23.1429 276.37L17.1429 266L57.4286 280.691L66 291.926Z" fill="url(#paint12_linear_85_218)"/>
<path d="M447.799 192.458L489.883 218.06L464.724 262.17L422.057 235.846L447.799 192.458Z" fill="url(#paint13_linear_85_218)"/>
<path d="M489.883 218.06L464.724 262.17L478.899 259.074L502.616 216.128L489.883 218.06Z" fill="url(#paint14_linear_85_218)"/>
<path d="M447.799 192.458L489.883 218.06L502.616 216.128L462.998 192.108L447.799 192.458Z" fill="url(#paint15_linear_85_218)"/>
<g filter="url(#filter12_i_85_218)">
<rect width="197.089" height="134.224" rx="4.2476" transform="matrix(-1 0 0 1 244.089 119)" fill="url(#paint16_linear_85_218)"/>
</g>
<g filter="url(#filter13_i_85_218)">
<path fill-rule="evenodd" clip-rule="evenodd" d="M47 135.979L47 123.148C47 120.802 48.9017 118.9 51.2476 118.9L239.841 118.9C242.187 118.9 244.089 120.802 244.089 123.148L244.089 135.982C244.089 133.636 242.187 131.734 239.841 131.734L51.2476 131.734C48.9028 131.734 47.0018 133.634 47 135.979Z" fill="#86B505"/>
</g>
<ellipse cx="2.54856" cy="2.54856" rx="2.54856" ry="2.54856" transform="matrix(-1 0 0 1 232.196 123.248)" fill="white"/>
<ellipse cx="2.54856" cy="2.54856" rx="2.54856" ry="2.54856" transform="matrix(-1 0 0 1 224.55 123.248)" fill="white"/>
<ellipse cx="2.54856" cy="2.54856" rx="2.54856" ry="2.54856" transform="matrix(-1 0 0 1 216.904 123.248)" fill="white"/>
<circle cx="66.9638" cy="150.857" r="9.76949" fill="white"/>
<line x1="80.1932" y1="146.088" x2="226.006" y2="146.088" stroke="white" stroke-width="5.09713" stroke-dasharray="16.6 9.48"/>
<line x1="80.1313" y1="152.131" x2="116.661" y2="152.131" stroke="#5D7B0B" stroke-width="3.39808"/>
<circle cx="66.9638" cy="178.891" r="9.76949" fill="white"/>
<line x1="80.1932" y1="174.54" x2="226.006" y2="174.54" stroke="white" stroke-width="5.09713" stroke-dasharray="23.71 23.71"/>
<line x1="80.1313" y1="180.166" x2="116.661" y2="180.166" stroke="#5D7B0B" stroke-width="3.39808"/>
<circle cx="66.9638" cy="206.925" r="9.76949" fill="white"/>
<line x1="80.1932" y1="201.805" x2="226.006" y2="201.805" stroke="white" stroke-width="5.09713" stroke-dasharray="21.34 11.85"/>
<line x1="80.1313" y1="208.2" x2="116.661" y2="208.2" stroke="#5D7B0B" stroke-width="3.39808"/>
<circle cx="66.9638" cy="234.96" r="9.76949" fill="white"/>
<line x1="80.1932" y1="230.257" x2="226.006" y2="230.257" stroke="white" stroke-width="5.09713" stroke-dasharray="35.56 35.56"/>
<line x1="80.1313" y1="236.234" x2="116.661" y2="236.234" stroke="#5D7B0B" stroke-width="3.39808"/>
<path d="M89.677 123.742L67.6272 147.985L61.2257 143.124H57.6693L67.6272 159.306L93.2334 123.742H89.677Z" fill="url(#paint17_linear_85_218)"/>
<path d="M89.677 180.645L67.6272 204.887L61.2257 200.027H57.6693L67.6272 216.209L93.2334 180.645H89.677Z" fill="url(#paint18_linear_85_218)"/>
<defs>
<filter id="filter0_i_85_218" x="5.62207" y="47.7747" width="258.411" height="268.035" filterUnits="userSpaceOnUse" color-interpolation-filters="sRGB">
<feFlood flood-opacity="0" result="BackgroundImageFix"/>
<feBlend mode="normal" in="SourceGraphic" in2="BackgroundImageFix" result="shape"/>
<feColorMatrix in="SourceAlpha" type="matrix" values="0 0 0 0 0 0 0 0 0 0 0 0 0 0 0 0 0 0 127 0" result="hardAlpha"/>
<feOffset dx="6" dy="6"/>
<feGaussianBlur stdDeviation="15"/>
<feComposite in2="hardAlpha" operator="arithmetic" k2="-1" k3="1"/>
<feColorMatrix type="matrix" values="0 0 0 0 0.891398 0 0 0 0 0.991667 0 0 0 0 0.61566 0 0 0 1 0"/>
<feBlend mode="normal" in2="shape" result="effect1_innerShadow_85_218"/>
</filter>
<filter id="filter1_i_85_218" x="311.5" y="119" width="247.5" height="195" filterUnits="userSpaceOnUse" color-interpolation-filters="sRGB">
<feFlood flood-opacity="0" result="BackgroundImageFix"/>
<feBlend mode="normal" in="SourceGraphic" in2="BackgroundImageFix" result="shape"/>
<feColorMatrix in="SourceAlpha" type="matrix" values="0 0 0 0 0 0 0 0 0 0 0 0 0 0 0 0 0 0 127 0" result="hardAlpha"/>
<feOffset dx="4" dy="4"/>
<feGaussianBlur stdDeviation="10"/>
<feComposite in2="hardAlpha" operator="arithmetic" k2="-1" k3="1"/>
<feColorMatrix type="matrix" values="0 0 0 0 0.891398 0 0 0 0 0.991667 0 0 0 0 0.61566 0 0 0 1 0"/>
<feBlend mode="normal" in2="shape" result="effect1_innerShadow_85_218"/>
</filter>
<filter id="filter2_i_85_218" x="165" y="204" width="248" height="111" filterUnits="userSpaceOnUse" color-interpolation-filters="sRGB">
<feFlood flood-opacity="0" result="BackgroundImageFix"/>
<feBlend mode="normal" in="SourceGraphic" in2="BackgroundImageFix" result="shape"/>
<feColorMatrix in="SourceAlpha" type="matrix" values="0 0 0 0 0 0 0 0 0 0 0 0 0 0 0 0 0 0 127 0" result="hardAlpha"/>
<feOffset dx="4" dy="4"/>
<feGaussianBlur stdDeviation="10"/>
<feComposite in2="hardAlpha" operator="arithmetic" k2="-1" k3="1"/>
<feColorMatrix type="matrix" values="0 0 0 0 0.891398 0 0 0 0 0.991667 0 0 0 0 0.61566 0 0 0 1 0"/>
<feBlend mode="normal" in2="shape" result="effect1_innerShadow_85_218"/>
</filter>
<filter id="filter3_i_85_218" x="303.979" y="178.584" width="29.9579" height="29.958" filterUnits="userSpaceOnUse" color-interpolation-filters="sRGB">
<feFlood flood-opacity="0" result="BackgroundImageFix"/>
<feBlend mode="normal" in="SourceGraphic" in2="BackgroundImageFix" result="shape"/>
<feColorMatrix in="SourceAlpha" type="matrix" values="0 0 0 0 0 0 0 0 0 0 0 0 0 0 0 0 0 0 127 0" result="hardAlpha"/>
<feOffset dx="4" dy="4"/>
<feGaussianBlur stdDeviation="3"/>
<feComposite in2="hardAlpha" operator="arithmetic" k2="-1" k3="1"/>
<feColorMatrix type="matrix" values="0 0 0 0 1 0 0 0 0 1 0 0 0 0 1 0 0 0 1 0"/>
<feBlend mode="normal" in2="shape" result="effect1_innerShadow_85_218"/>
</filter>
<filter id="filter4_i_85_218" x="346.521" y="178.584" width="29.9579" height="29.958" filterUnits="userSpaceOnUse" color-interpolation-filters="sRGB">
<feFlood flood-opacity="0" result="BackgroundImageFix"/>
<feBlend mode="normal" in="SourceGraphic" in2="BackgroundImageFix" result="shape"/>
<feColorMatrix in="SourceAlpha" type="matrix" values="0 0 0 0 0 0 0 0 0 0 0 0 0 0 0 0 0 0 127 0" result="hardAlpha"/>
<feOffset dx="4" dy="4"/>
<feGaussianBlur stdDeviation="3"/>
<feComposite in2="hardAlpha" operator="arithmetic" k2="-1" k3="1"/>
<feColorMatrix type="matrix" values="0 0 0 0 0.891398 0 0 0 0 0.991667 0 0 0 0 0.61566 0 0 0 1 0"/>
<feBlend mode="normal" in2="shape" result="effect1_innerShadow_85_218"/>
</filter>
<filter id="filter5_i_85_218" x="389.063" y="178.584" width="29.9579" height="29.958" filterUnits="userSpaceOnUse" color-interpolation-filters="sRGB">
<feFlood flood-opacity="0" result="BackgroundImageFix"/>
<feBlend mode="normal" in="SourceGraphic" in2="BackgroundImageFix" result="shape"/>
<feColorMatrix in="SourceAlpha" type="matrix" values="0 0 0 0 0 0 0 0 0 0 0 0 0 0 0 0 0 0 127 0" result="hardAlpha"/>
<feOffset dx="4" dy="4"/>
<feGaussianBlur stdDeviation="3"/>
<feComposite in2="hardAlpha" operator="arithmetic" k2="-1" k3="1"/>
<feColorMatrix type="matrix" values="0 0 0 0 1 0 0 0 0 1 0 0 0 0 1 0 0 0 1 0"/>
<feBlend mode="normal" in2="shape" result="effect1_innerShadow_85_218"/>
</filter>
<filter id="filter6_i_85_218" x="303.979" y="221.126" width="29.9579" height="29.958" filterUnits="userSpaceOnUse" color-interpolation-filters="sRGB">
<feFlood flood-opacity="0" result="BackgroundImageFix"/>
<feBlend mode="normal" in="SourceGraphic" in2="BackgroundImageFix" result="shape"/>
<feColorMatrix in="SourceAlpha" type="matrix" values="0 0 0 0 0 0 0 0 0 0 0 0 0 0 0 0 0 0 127 0" result="hardAlpha"/>
<feOffset dx="4" dy="4"/>
<feGaussianBlur stdDeviation="3"/>
<feComposite in2="hardAlpha" operator="arithmetic" k2="-1" k3="1"/>
<feColorMatrix type="matrix" values="0 0 0 0 1 0 0 0 0 1 0 0 0 0 1 0 0 0 1 0"/>
<feBlend mode="normal" in2="shape" result="effect1_innerShadow_85_218"/>
</filter>
<filter id="filter7_i_85_218" x="346.521" y="221.126" width="29.9579" height="29.958" filterUnits="userSpaceOnUse" color-interpolation-filters="sRGB">
<feFlood flood-opacity="0" result="BackgroundImageFix"/>
<feBlend mode="normal" in="SourceGraphic" in2="BackgroundImageFix" result="shape"/>
<feColorMatrix in="SourceAlpha" type="matrix" values="0 0 0 0 0 0 0 0 0 0 0 0 0 0 0 0 0 0 127 0" result="hardAlpha"/>
<feOffset dx="4" dy="4"/>
<feGaussianBlur stdDeviation="3"/>
<feComposite in2="hardAlpha" operator="arithmetic" k2="-1" k3="1"/>
<feColorMatrix type="matrix" values="0 0 0 0 1 0 0 0 0 1 0 0 0 0 1 0 0 0 1 0"/>
<feBlend mode="normal" in2="shape" result="effect1_innerShadow_85_218"/>
</filter>
<filter id="filter8_i_85_218" x="389.063" y="221.126" width="29.9579" height="29.958" filterUnits="userSpaceOnUse" color-interpolation-filters="sRGB">
<feFlood flood-opacity="0" result="BackgroundImageFix"/>
<feBlend mode="normal" in="SourceGraphic" in2="BackgroundImageFix" result="shape"/>
<feColorMatrix in="SourceAlpha" type="matrix" values="0 0 0 0 0 0 0 0 0 0 0 0 0 0 0 0 0 0 127 0" result="hardAlpha"/>
<feOffset dx="4" dy="4"/>
<feGaussianBlur stdDeviation="3"/>
<feComposite in2="hardAlpha" operator="arithmetic" k2="-1" k3="1"/>
<feColorMatrix type="matrix" values="0 0 0 0 0.891398 0 0 0 0 0.991667 0 0 0 0 0.61566 0 0 0 1 0"/>
<feBlend mode="normal" in2="shape" result="effect1_innerShadow_85_218"/>
</filter>
<filter id="filter9_i_85_218" x="303.979" y="263.668" width="29.9579" height="29.958" filterUnits="userSpaceOnUse" color-interpolation-filters="sRGB">
<feFlood flood-opacity="0" result="BackgroundImageFix"/>
<feBlend mode="normal" in="SourceGraphic" in2="BackgroundImageFix" result="shape"/>
<feColorMatrix in="SourceAlpha" type="matrix" values="0 0 0 0 0 0 0 0 0 0 0 0 0 0 0 0 0 0 127 0" result="hardAlpha"/>
<feOffset dx="4" dy="4"/>
<feGaussianBlur stdDeviation="3"/>
<feComposite in2="hardAlpha" operator="arithmetic" k2="-1" k3="1"/>
<feColorMatrix type="matrix" values="0 0 0 0 1 0 0 0 0 1 0 0 0 0 1 0 0 0 1 0"/>
<feBlend mode="normal" in2="shape" result="effect1_innerShadow_85_218"/>
</filter>
<filter id="filter10_i_85_218" x="346.521" y="263.668" width="29.9579" height="29.958" filterUnits="userSpaceOnUse" color-interpolation-filters="sRGB">
<feFlood flood-opacity="0" result="BackgroundImageFix"/>
<feBlend mode="normal" in="SourceGraphic" in2="BackgroundImageFix" result="shape"/>
<feColorMatrix in="SourceAlpha" type="matrix" values="0 0 0 0 0 0 0 0 0 0 0 0 0 0 0 0 0 0 127 0" result="hardAlpha"/>
<feOffset dx="4" dy="4"/>
<feGaussianBlur stdDeviation="3"/>
<feComposite in2="hardAlpha" operator="arithmetic" k2="-1" k3="1"/>
<feColorMatrix type="matrix" values="0 0 0 0 0.876472 0 0 0 0 0.945833 0 0 0 0 0.685729 0 0 0 1 0"/>
<feBlend mode="normal" in2="shape" result="effect1_innerShadow_85_218"/>
</filter>
<filter id="filter11_i_85_218" x="389.063" y="263.668" width="29.9579" height="29.958" filterUnits="userSpaceOnUse" color-interpolation-filters="sRGB">
<feFlood flood-opacity="0" result="BackgroundImageFix"/>
<feBlend mode="normal" in="SourceGraphic" in2="BackgroundImageFix" result="shape"/>
<feColorMatrix in="SourceAlpha" type="matrix" values="0 0 0 0 0 0 0 0 0 0 0 0 0 0 0 0 0 0 127 0" result="hardAlpha"/>
<feOffset dx="4" dy="4"/>
<feGaussianBlur stdDeviation="3"/>
<feComposite in2="hardAlpha" operator="arithmetic" k2="-1" k3="1"/>
<feColorMatrix type="matrix" values="0 0 0 0 1 0 0 0 0 1 0 0 0 0 1 0 0 0 1 0"/>
<feBlend mode="normal" in2="shape" result="effect1_innerShadow_85_218"/>
</filter>
<filter id="filter12_i_85_218" x="47" y="119" width="203.089" height="140.224" filterUnits="userSpaceOnUse" color-interpolation-filters="sRGB">
<feFlood flood-opacity="0" result="BackgroundImageFix"/>
<feBlend mode="normal" in="SourceGraphic" in2="BackgroundImageFix" result="shape"/>
<feColorMatrix in="SourceAlpha" type="matrix" values="0 0 0 0 0 0 0 0 0 0 0 0 0 0 0 0 0 0 127 0" result="hardAlpha"/>
<feOffset dx="6" dy="6"/>
<feGaussianBlur stdDeviation="5"/>
<feComposite in2="hardAlpha" operator="arithmetic" k2="-1" k3="1"/>
<feColorMatrix type="matrix" values="0 0 0 0 0.878431 0 0 0 0 0.878431 0 0 0 0 0.878431 0 0 0 1 0"/>
<feBlend mode="normal" in2="shape" result="effect1_innerShadow_85_218"/>
</filter>
<filter id="filter13_i_85_218" x="47" y="118.9" width="197.089" height="19.082" filterUnits="userSpaceOnUse" color-interpolation-filters="sRGB">
<feFlood flood-opacity="0" result="BackgroundImageFix"/>
<feBlend mode="normal" in="SourceGraphic" in2="BackgroundImageFix" result="shape"/>
<feColorMatrix in="SourceAlpha" type="matrix" values="0 0 0 0 0 0 0 0 0 0 0 0 0 0 0 0 0 0 127 0" result="hardAlpha"/>
<feOffset dy="2"/>
<feGaussianBlur stdDeviation="2"/>
<feComposite in2="hardAlpha" operator="arithmetic" k2="-1" k3="1"/>
<feColorMatrix type="matrix" values="0 0 0 0 1 0 0 0 0 1 0 0 0 0 1 0 0 0 1 0"/>
<feBlend mode="normal" in2="shape" result="effect1_innerShadow_85_218"/>
</filter>
<linearGradient id="paint0_linear_85_218" x1="22.5262" y1="249.05" x2="151.578" y2="59.0076" gradientUnits="userSpaceOnUse">
<stop stop-color="#E3FD9D" stop-opacity="0.57"/>
<stop offset="1" stop-color="#93C704"/>
</linearGradient>
<linearGradient id="paint1_linear_85_218" x1="337.617" y1="252.519" x2="431.702" y2="101.694" gradientUnits="userSpaceOnUse">
<stop stop-color="#93C704"/>
<stop offset="1" stop-color="#93C704" stop-opacity="0"/>
<stop offset="1" stop-color="#E3FD9D"/>
</linearGradient>
<linearGradient id="paint2_linear_85_218" x1="191.171" y1="278.798" x2="227.665" y2="174.153" gradientUnits="userSpaceOnUse">
<stop stop-color="#93C704"/>
<stop offset="1" stop-color="#93C704" stop-opacity="0"/>
<stop offset="1" stop-color="#E3FD9D"/>
</linearGradient>
<linearGradient id="paint3_linear_85_218" x1="291" y1="162" x2="428" y2="302.245" gradientUnits="userSpaceOnUse">
<stop stop-color="#F7E650"/>
<stop offset="1" stop-color="#9AD5FF"/>
</linearGradient>
<linearGradient id="paint4_linear_85_218" x1="343.5" y1="158" x2="343.5" y2="173" gradientUnits="userSpaceOnUse">
<stop stop-color="#3E3E3E" stop-opacity="0"/>
<stop offset="1" stop-color="#3E3E3E"/>
</linearGradient>
<linearGradient id="paint5_linear_85_218" x1="360.5" y1="158" x2="360.5" y2="173" gradientUnits="userSpaceOnUse">
<stop stop-color="#3E3E3E" stop-opacity="0"/>
<stop offset="1" stop-color="#3E3E3E"/>
</linearGradient>
<linearGradient id="paint6_linear_85_218" x1="376.5" y1="157" x2="376.5" y2="173" gradientUnits="userSpaceOnUse">
<stop stop-color="#3E3E3E" stop-opacity="0"/>
<stop offset="1" stop-color="#3E3E3E"/>
</linearGradient>
<linearGradient id="paint7_linear_85_218" x1="245" y1="63" x2="279" y2="79.5" gradientUnits="userSpaceOnUse">
<stop stop-color="#93C704"/>
<stop offset="0.955444" stop-color="#E0F1AF"/>
</linearGradient>
<linearGradient id="paint8_linear_85_218" x1="269" y1="55" x2="279" y2="79.5" gradientUnits="userSpaceOnUse">
<stop stop-color="#62752D"/>
<stop offset="0.955444" stop-color="#B7DD4C"/>
</linearGradient>
<linearGradient id="paint9_linear_85_218" x1="271" y1="48" x2="250" y2="64.5" gradientUnits="userSpaceOnUse">
<stop stop-color="#7BA702"/>
<stop offset="1" stop-color="#E0F1AF"/>
</linearGradient>
<linearGradient id="paint10_linear_85_218" x1="66" y1="291.926" x2="7.53307" y2="320.068" gradientUnits="userSpaceOnUse">
<stop stop-color="#93C704"/>
<stop offset="0.955444" stop-color="#E0F1AF"/>
</linearGradient>
<linearGradient id="paint11_linear_85_218" x1="24.8571" y1="278.099" x2="7.47198" y2="320.345" gradientUnits="userSpaceOnUse">
<stop stop-color="#62752D"/>
<stop offset="0.955444" stop-color="#B7DD4C"/>
</linearGradient>
<linearGradient id="paint12_linear_85_218" x1="21.4286" y1="266" x2="57.6534" y2="294.23" gradientUnits="userSpaceOnUse">
<stop stop-color="#7BA702"/>
<stop offset="1" stop-color="#E0F1AF"/>
</linearGradient>
<linearGradient id="paint13_linear_85_218" x1="447.799" y1="192.458" x2="463.56" y2="260.727" gradientUnits="userSpaceOnUse">
<stop stop-color="#93C704"/>
<stop offset="0.955444" stop-color="#E0F1AF"/>
</linearGradient>
<linearGradient id="paint14_linear_85_218" x1="487.276" y1="217.781" x2="463.56" y2="260.727" gradientUnits="userSpaceOnUse">
<stop stop-color="#62752D"/>
<stop offset="0.955444" stop-color="#B7DD4C"/>
</linearGradient>
<linearGradient id="paint15_linear_85_218" x1="499.706" y1="212.52" x2="451.453" y2="201.419" gradientUnits="userSpaceOnUse">
<stop stop-color="#7BA702"/>
<stop offset="1" stop-color="#E0F1AF"/>
</linearGradient>
<linearGradient id="paint16_linear_85_218" x1="197.253" y1="9.99999" x2="32.7534" y2="143" gradientUnits="userSpaceOnUse">
<stop stop-color="#4EABEC"/>
<stop offset="1" stop-color="#E3FD9D"/>
</linearGradient>
<linearGradient id="paint17_linear_85_218" x1="67.153" y1="158.121" x2="68.9312" y2="126.113" gradientUnits="userSpaceOnUse">
<stop stop-color="#3E3E3E"/>
<stop offset="1" stop-color="#3E3E3E" stop-opacity="0"/>
</linearGradient>
<linearGradient id="paint18_linear_85_218" x1="67.153" y1="215.023" x2="68.9312" y2="183.015" gradientUnits="userSpaceOnUse">
<stop stop-color="#3E3E3E"/>
<stop offset="1" stop-color="#3E3E3E" stop-opacity="0"/>
</linearGradient>
</defs>
</svg>
