<svg width="37" height="36" viewBox="0 0 37 36" fill="none" xmlns="http://www.w3.org/2000/svg">
<path d="M7.67068 22.7171C7.67068 23.7604 6.84845 24.607 5.83534 24.607C4.82223 24.607 4 23.7604 4 22.7171V14.2126C4 13.1694 4.82223 12.3227 5.83534 12.3227C6.84845 12.3227 7.67068 13.1694 7.67068 14.2126V22.7171Z" fill="white"/>
<path d="M33.3655 22.7171C33.3655 23.7604 32.5433 24.607 31.5302 24.607C30.5171 24.607 29.6949 23.7604 29.6949 22.7171V14.2126C29.6949 13.1694 30.5171 12.3227 31.5302 12.3227C32.5433 12.3227 33.3655 13.1694 33.3655 14.2126V22.7171Z" fill="white"/>
<path d="M15.0117 35C16.0248 35 16.847 34.1533 16.847 33.1101V28.3859H13.1763V33.1101C13.1763 34.1533 13.9986 35 15.0117 35Z" fill="white"/>
<path fill-rule="evenodd" clip-rule="evenodd" d="M20.5178 28.3859V33.1101C20.5178 34.1533 21.3401 35 22.3532 35C23.3663 35 24.1885 34.1533 24.1885 33.1101V28.3859H20.5178Z" fill="white"/>
<path d="M9.50579 12.3227V26.496C9.50579 27.5392 10.328 28.3859 11.3411 28.3859H13.1763H16.847H20.5178H24.1885H26.0238C27.037 28.3859 27.8592 27.5392 27.8592 26.496V12.3227H9.50579Z" fill="white"/>
<path d="M18.6825 2.87182C17.3847 2.87182 16.2065 3.06318 15.1594 3.40957C14.5232 3.62001 13.9355 3.88768 13.3988 4.20444C11.0708 5.57828 9.70243 7.87544 9.50579 10.4314H27.8592C27.6587 7.8334 26.2484 5.50278 23.8503 4.13739C23.3024 3.82542 22.7029 3.56383 22.0545 3.36097C21.0456 3.04532 19.9183 2.87182 18.6825 2.87182ZM15.0118 8.16165C14.5053 8.16165 14.0941 7.73831 14.0941 7.2167C14.0941 6.69508 14.5053 6.27175 15.0118 6.27175C15.5184 6.27175 15.9295 6.69508 15.9295 7.2167C15.9295 7.73831 15.5184 8.16165 15.0118 8.16165ZM22.3532 8.16165C21.8457 8.16165 21.4355 7.73831 21.4355 7.2167C21.4355 6.69508 21.8457 6.27175 22.3532 6.27175C22.8606 6.27175 23.2708 6.69508 23.2708 7.2167C23.2708 7.73831 22.8606 8.16165 22.3532 8.16165Z" fill="white"/>
<path d="M25.0021 2.51029C25.3075 2.07881 25.2053 1.48143 24.7738 1.176C24.3424 0.870576 23.745 0.97276 23.4396 1.40424L22.0545 3.36097C22.7029 3.56383 23.3024 3.82542 23.8503 4.13739L25.0021 2.51029Z" fill="white"/>
<path d="M13.9971 1.54838C13.7171 1.1 13.1266 0.963507 12.6782 1.24352C12.2298 1.52354 12.0933 2.11402 12.3733 2.56241L13.3988 4.20444C13.9355 3.88768 14.5232 3.62001 15.1594 3.40957L13.9971 1.54838Z" fill="white"/>
</svg>
