<svg width="36" height="36" viewBox="0 0 36 36" fill="none" xmlns="http://www.w3.org/2000/svg">
<path d="M27.6837 18.7244C27.6685 15.9387 28.9286 13.836 31.479 12.2875C30.052 10.2457 27.8962 9.12224 25.0497 8.90211C22.3551 8.68957 19.4099 10.4734 18.332 10.4734C17.1934 10.4734 14.5822 8.97802 12.5327 8.97802C8.29716 9.04633 3.7959 12.3559 3.7959 19.0888C3.7959 21.0775 4.16025 23.1321 4.88895 25.2524C5.86056 28.0382 9.36744 34.8698 13.0261 34.7559C14.939 34.7104 16.2901 33.3972 18.7799 33.3972C21.1937 33.3972 22.4461 34.7559 24.5791 34.7559C28.2682 34.7028 31.4411 28.4936 32.3671 25.7003C27.418 23.3699 27.6837 18.8687 27.6837 18.7244ZM23.3874 6.26056C25.4596 3.80118 25.2699 1.56193 25.2091 0.757324C23.3798 0.863594 21.262 2.00219 20.0551 3.40647C18.7267 4.90942 17.9449 6.76913 18.1119 8.86416C20.093 9.01597 21.8996 7.99882 23.3874 6.26056Z" fill="white"/>
</svg>
