<svg width="37" height="36" viewBox="0 0 37 36" fill="none" xmlns="http://www.w3.org/2000/svg">
<path d="M27.9133 7.31016C27.9133 7.69728 27.5991 8.01146 27.212 8.01146C26.8249 8.01146 26.5107 7.69728 26.5107 7.31016C26.5107 6.92304 26.8249 6.60885 27.212 6.60885C27.5991 6.60885 27.9133 6.92304 27.9133 7.31016Z" fill="white"/>
<path d="M24.4068 6.60885C24.0197 6.60885 23.7055 6.92304 23.7055 7.31016C23.7055 7.69728 24.0197 8.01146 24.4068 8.01146C24.7939 8.01146 25.1081 7.69728 25.1081 7.31016C25.1081 6.92304 24.7939 6.60885 24.4068 6.60885Z" fill="white"/>
<path d="M21.6016 6.60885C21.2144 6.60885 20.9003 6.92304 20.9003 7.31016C20.9003 7.69728 21.2144 8.01146 21.6016 8.01146C21.9887 8.01146 22.3029 7.69728 22.3029 7.31016C22.3029 6.92304 21.9887 6.60885 21.6016 6.60885Z" fill="white"/>
<path fill-rule="evenodd" clip-rule="evenodd" d="M27.9133 7.31016C27.9133 7.69728 27.5991 8.01146 27.212 8.01146C26.8249 8.01146 26.5107 7.69728 26.5107 7.31016C26.5107 6.92304 26.8249 6.60885 27.212 6.60885C27.5991 6.60885 27.9133 6.92304 27.9133 7.31016ZM24.4068 6.60885C24.0197 6.60885 23.7055 6.92304 23.7055 7.31016C23.7055 7.69728 24.0197 8.01146 24.4068 8.01146C24.7939 8.01146 25.1081 7.69728 25.1081 7.31016C25.1081 6.92304 24.7939 6.60885 24.4068 6.60885ZM21.6016 6.60885C21.2144 6.60885 20.9003 6.92304 20.9003 7.31016C20.9003 7.69728 21.2144 8.01146 21.6016 8.01146C21.9887 8.01146 22.3029 7.69728 22.3029 7.31016C22.3029 6.92304 21.9887 6.60885 21.6016 6.60885Z" fill="white"/>
<path fill-rule="evenodd" clip-rule="evenodd" d="M1.47412 31.1545C1.47412 31.4336 1.69994 31.6595 1.97906 31.6595H24.7147C24.2589 31.3797 23.8372 31.0498 23.4574 30.6773C23.448 30.6681 23.4387 30.6588 23.4294 30.6496H2.484V10.6203H29.5249V18.6513C29.871 18.7063 30.2087 18.7865 30.5362 18.8898V4.50494C30.5362 4.22582 30.3104 4 30.0312 4H1.97906C1.69994 4 1.47412 4.22582 1.47412 4.50494V31.1545ZM29.5263 9.61044H2.484V5.00988H29.5263V9.61044Z" fill="white"/>
<path fill-rule="evenodd" clip-rule="evenodd" d="M29.5249 10.6203H2.484V30.6496H23.4294C22.1381 29.3689 21.3384 27.5934 21.3384 25.6311C21.3384 21.7277 24.5028 18.5633 28.4063 18.5633C28.7869 18.5633 29.1606 18.5934 29.5249 18.6513V10.6203ZM4.77025 23.2438H15.9911V22.2339H4.77025V23.2438ZM4.77025 19.036H15.9911V18.0261H4.77025V19.036ZM4.76885 14.8281H15.9897V13.8183H4.76885V14.8281Z" fill="white"/>
<path fill-rule="evenodd" clip-rule="evenodd" d="M27.9133 7.31016C27.9133 7.69728 27.5991 8.01146 27.212 8.01146C26.8249 8.01146 26.5107 7.69728 26.5107 7.31016C26.5107 6.92304 26.8249 6.60885 27.212 6.60885C27.5991 6.60885 27.9133 6.92304 27.9133 7.31016ZM24.4068 6.60885C24.0197 6.60885 23.7055 6.92304 23.7055 7.31016C23.7055 7.69728 24.0197 8.01146 24.4068 8.01146C24.7939 8.01146 25.1081 7.69728 25.1081 7.31016C25.1081 6.92304 24.7939 6.60885 24.4068 6.60885ZM21.6016 6.60885C21.2144 6.60885 20.9003 6.92304 20.9003 7.31016C20.9003 7.69728 21.2144 8.01146 21.6016 8.01146C21.9887 8.01146 22.3029 7.69728 22.3029 7.31016C22.3029 6.92304 21.9887 6.60885 21.6016 6.60885Z" fill="white"/>
<path d="M26.5227 22.804H30.2899C29.9208 20.7064 29.171 19.2701 28.4063 19.2701C27.6416 19.2701 26.8917 20.7064 26.5227 22.804Z" fill="white"/>
<path d="M22.7064 22.804H25.8009C26.0401 21.3642 26.4618 20.1728 27.0125 19.4232C25.1212 19.846 23.5478 21.111 22.7064 22.804Z" fill="white"/>
<path d="M34.1061 22.804C33.2648 21.111 31.6914 19.846 29.8 19.4232C30.3507 20.1728 30.7725 21.3642 31.0117 22.804H34.1061Z" fill="white"/>
<path d="M34.4054 27.7515C34.6398 27.0883 34.7673 26.3746 34.7673 25.6311C34.7673 24.8876 34.6398 24.174 34.4054 23.5108H31.1119C31.1914 24.1805 31.2334 24.8929 31.2334 25.6311C31.2334 26.3693 31.1914 27.0817 31.1119 27.7515H34.4054Z" fill="white"/>
<path d="M34.1061 28.4583H31.0117C30.7725 29.8981 30.3507 31.0895 29.8 31.839C31.6914 31.4162 33.2648 30.1513 34.1061 28.4583Z" fill="white"/>
<path d="M26.4162 27.7515H30.3963C30.48 27.0888 30.5266 26.3752 30.5266 25.6311C30.5266 24.887 30.48 24.1735 30.3963 23.5108H26.4162C26.3325 24.1735 26.2859 24.887 26.2859 25.6311C26.2859 26.3752 26.3325 27.0888 26.4162 27.7515Z" fill="white"/>
<path d="M26.5227 28.4583C26.8917 30.5559 27.6416 31.9922 28.4063 31.9922C29.171 31.9922 29.9208 30.5559 30.2899 28.4583H26.5227Z" fill="white"/>
<path d="M22.7064 28.4583C23.5478 30.1513 25.1212 31.4162 27.0125 31.839C26.4618 31.0895 26.0401 29.8981 25.8009 28.4583H22.7064Z" fill="white"/>
<path d="M22.4072 27.7515H25.7006C25.6212 27.0817 25.5791 26.3693 25.5791 25.6311C25.5791 24.8929 25.6212 24.1805 25.7006 23.5108H22.4072C22.1728 24.174 22.0452 24.8876 22.0452 25.6311C22.0452 26.3746 22.1728 27.0883 22.4072 27.7515Z" fill="white"/>
</svg>
