<svg width="31" height="31" viewBox="0 0 31 31" fill="none" xmlns="http://www.w3.org/2000/svg">
<path d="M15.0307 0.539588L0.0357555 5.37152L2.54383 23.7546L15.2627 30.3358L27.9519 23.8385L30.193 5.48808L15.0307 0.539588Z" fill="#B3B3B3"/>
<path d="M28.7014 6.53956L15.0071 2.10156L15.2005 28.7837L26.6078 22.9507L28.7014 6.53956Z" fill="#A6120D"/>
<path d="M1.72958 6.43566L3.88445 22.8758L15.2001 28.7838L15.0067 2.10119L1.72958 6.43566Z" fill="#DD1B16"/>
<path d="M18.8709 16.3315L15.1219 17.9465L11.1578 17.9197L9.32568 22.2539L5.86045 22.2906L15.0141 3.07063L18.8709 16.3315ZM18.5012 15.5031L15.0837 9.25345L12.3617 15.3545L15.103 15.373L18.5012 15.5031Z" fill="#F2F2F2"/>
<path d="M15.0139 3.07031L15.0836 9.25313L18.2669 15.3988L15.11 15.3775L15.1217 17.9421L19.4868 17.9757L21.5587 22.3968L24.8754 22.4765L15.0139 3.07031Z" fill="#B3B3B3"/>
</svg>
