<svg width="51" height="31" viewBox="0 0 51 31" fill="none" xmlns="http://www.w3.org/2000/svg">
<path d="M14.1376 11.3334C14.1376 11.9508 14.2044 12.4513 14.3212 12.8184C14.4546 13.1855 14.6215 13.5859 14.8551 14.0198C14.9385 14.1532 14.9719 14.2867 14.9719 14.4035C14.9719 14.5704 14.8718 14.7372 14.6549 14.9041L13.6037 15.6048C13.4535 15.705 13.3034 15.755 13.1699 15.755C13.003 15.755 12.8362 15.6716 12.6693 15.5214C12.4357 15.2711 12.2355 15.0042 12.0687 14.7372C11.9018 14.4536 11.735 14.1366 11.5514 13.7528C10.25 15.2878 8.61482 16.0554 6.64597 16.0554C5.24441 16.0554 4.1265 15.6549 3.30892 14.854C2.49135 14.0531 2.07422 12.9853 2.07422 11.6505C2.07422 10.2322 2.57478 9.08093 3.59257 8.2133C4.61037 7.34567 5.96187 6.91185 7.68045 6.91185C8.24775 6.91185 8.83173 6.96191 9.44908 7.04533C10.0664 7.12876 10.7005 7.26224 11.3679 7.41241V6.19439C11.3679 4.92631 11.1009 4.04199 10.5837 3.52475C10.0498 3.00751 9.14875 2.75723 7.86399 2.75723C7.28001 2.75723 6.67934 2.82397 6.06199 2.97414C5.44463 3.12431 4.84396 3.30785 4.25998 3.54144C3.99302 3.65823 3.7928 3.72498 3.676 3.75835C3.5592 3.79172 3.47578 3.8084 3.40904 3.8084C3.17544 3.8084 3.05865 3.64155 3.05865 3.29116V2.47358C3.05865 2.20662 3.09202 2.0064 3.17544 1.8896C3.25887 1.77281 3.40904 1.65601 3.64263 1.53921C4.22661 1.23888 4.92739 0.9886 5.74497 0.788378C6.56254 0.57147 7.43017 0.471359 8.34786 0.471359C10.3334 0.471359 11.785 0.921859 12.7194 1.82286C13.6371 2.72386 14.1043 4.09205 14.1043 5.92742V11.3334H14.1376ZM7.36343 13.8696C7.91404 13.8696 8.48134 13.7695 9.08201 13.5693C9.68268 13.369 10.2166 13.002 10.6671 12.5014C10.9341 12.1844 11.1343 11.834 11.2344 11.4335C11.3345 11.0331 11.4013 10.5492 11.4013 9.98193V9.28115C10.9174 9.16436 10.4001 9.06425 9.86621 8.9975C9.33229 8.93076 8.81505 8.89739 8.2978 8.89739C7.17989 8.89739 6.36232 9.1143 5.81171 9.5648C5.26109 10.0153 4.99413 10.6493 4.99413 11.4836C4.99413 12.2678 5.19435 12.8518 5.61148 13.2522C6.01193 13.6694 6.59591 13.8696 7.36343 13.8696ZM20.7617 15.6716C20.4613 15.6716 20.2611 15.6215 20.1276 15.5047C19.9941 15.4046 19.8773 15.171 19.7772 14.854L15.8562 1.95634C15.7561 1.62264 15.706 1.40573 15.706 1.28893C15.706 1.02197 15.8395 0.871804 16.1065 0.871804H17.7416C18.0587 0.871804 18.2756 0.92186 18.3924 1.03866C18.5258 1.13877 18.626 1.37236 18.7261 1.68938L21.5292 12.735L24.1321 1.68938C24.2155 1.35568 24.3156 1.13877 24.4491 1.03866C24.5826 0.938545 24.8162 0.871804 25.1165 0.871804H26.4513C26.7683 0.871804 26.9852 0.92186 27.1187 1.03866C27.2522 1.13877 27.369 1.37236 27.4357 1.68938L30.072 12.8685L32.9586 1.68938C33.0587 1.35568 33.1755 1.13877 33.2923 1.03866C33.4257 0.938545 33.6426 0.871804 33.943 0.871804H35.4947C35.7617 0.871804 35.9118 1.00529 35.9118 1.28893C35.9118 1.37236 35.8952 1.45579 35.8785 1.5559C35.8618 1.65601 35.8284 1.78949 35.7617 1.97303L31.7405 14.8707C31.6404 15.2044 31.5236 15.4213 31.3901 15.5214C31.2567 15.6215 31.0398 15.6883 30.7561 15.6883H29.3212C29.0042 15.6883 28.7873 15.6382 28.6538 15.5214C28.5203 15.4046 28.4035 15.1877 28.3367 14.854L25.7505 4.09205L23.181 14.8373C23.0976 15.171 22.9975 15.3879 22.864 15.5047C22.7305 15.6215 22.4969 15.6716 22.1966 15.6716H20.7617ZM42.2022 16.1221C41.3345 16.1221 40.4669 16.022 39.6326 15.8218C38.7984 15.6215 38.1477 15.4046 37.7138 15.1543C37.4469 15.0042 37.2633 14.8373 37.1966 14.6872C37.1299 14.537 37.0965 14.3701 37.0965 14.22V13.369C37.0965 13.0186 37.23 12.8518 37.4802 12.8518C37.5804 12.8518 37.6805 12.8685 37.7806 12.9018C37.8807 12.9352 38.0309 13.002 38.1977 13.0687C38.765 13.319 39.3824 13.5192 40.0331 13.6527C40.7005 13.7862 41.3512 13.8529 42.0186 13.8529C43.0698 13.8529 43.8874 13.6694 44.4547 13.3023C45.022 12.9352 45.3223 12.4013 45.3223 11.7172C45.3223 11.25 45.1721 10.8662 44.8718 10.5492C44.5715 10.2322 44.0042 9.94856 43.1866 9.6816L40.7672 8.93076C39.5492 8.547 38.6482 7.97971 38.0976 7.22887C37.547 6.49472 37.2633 5.67715 37.2633 4.80951C37.2633 4.10874 37.4135 3.49138 37.7138 2.95746C38.0142 2.42353 38.4146 1.95634 38.9152 1.58927C39.4157 1.20551 39.983 0.92186 40.6504 0.721637C41.3178 0.521414 42.0186 0.437988 42.7528 0.437988C43.1199 0.437988 43.5036 0.454673 43.8707 0.504729C44.2544 0.554785 44.6048 0.621526 44.9552 0.688267C45.2889 0.771693 45.6059 0.855119 45.9063 0.95523C46.2066 1.05534 46.4402 1.15545 46.6071 1.25556C46.8407 1.38905 47.0075 1.52253 47.1076 1.67269C47.2077 1.80618 47.2578 1.98971 47.2578 2.22331V3.00751C47.2578 3.3579 47.1243 3.54144 46.874 3.54144C46.7405 3.54144 46.5236 3.4747 46.24 3.34122C45.2889 2.9074 44.2211 2.69049 43.0364 2.69049C42.0854 2.69049 41.3345 2.84066 40.8173 3.15768C40.3 3.4747 40.0331 3.95857 40.0331 4.64266C40.0331 5.10985 40.1999 5.51029 40.5336 5.82731C40.8673 6.14433 41.4847 6.46135 42.369 6.745L44.7383 7.49583C45.9397 7.87959 46.8073 8.41352 47.3245 9.09762C47.8418 9.78171 48.092 10.5659 48.092 11.4335C48.092 12.151 47.9419 12.8017 47.6582 13.369C47.3579 13.9363 46.9575 14.4369 46.4402 14.8373C45.923 15.2545 45.3056 15.5548 44.5882 15.7717C43.8373 16.0053 43.0531 16.1221 42.2022 16.1221Z" fill="#252F3E"/>
<path d="M45.3558 24.2314C39.8663 28.2859 31.8908 30.4383 25.0332 30.4383C15.4225 30.4383 6.76285 26.8843 0.22225 20.9778C-0.294992 20.5106 0.172194 19.8766 0.789547 20.2436C7.86408 24.3482 16.5904 26.8343 25.6171 26.8343C31.7072 26.8343 38.398 25.5662 44.5549 22.9633C45.4725 22.5462 46.2568 23.564 45.3558 24.2314ZM47.6416 21.6285C46.9408 20.7275 43.0031 21.1947 41.2178 21.4116C40.6839 21.4783 40.6005 21.0112 41.0843 20.6608C44.2212 18.4583 49.3769 19.0924 49.9776 19.8265C50.5782 20.5773 49.8107 25.7331 46.8741 28.2025C46.4236 28.5862 45.9898 28.386 46.19 27.8855C46.8574 26.2336 48.3424 22.5128 47.6416 21.6285Z" fill="#FF9900"/>
</svg>
