<svg width="54" height="19" viewBox="0 0 54 19" fill="none" xmlns="http://www.w3.org/2000/svg">
<path d="M38.0423 15.1475C40.8506 17.7657 45.821 17.3783 49.1443 14.2826C52.465 11.1844 52.8828 6.54857 50.0771 3.92791C47.2688 1.30969 42.2984 1.69711 38.9751 4.79282C35.6544 7.89099 35.2366 12.5268 38.0423 15.1475Z" stroke="#58C6E9" stroke-width="3" stroke-linecap="round" stroke-linejoin="round"/>
<path d="M30.0246 2.65682C27.1661 1.41859 23.3311 2.14238 20.6002 4.66601C17.248 7.76397 16.8275 12.3998 19.6569 15.0206C22.4888 17.639 27.5013 17.2519 30.8509 14.1563C32.2424 12.8906 33.182 11.2544 33.5447 9.46509L27.1648 9.42109" stroke="#58C6E9" stroke-width="3" stroke-linecap="round" stroke-linejoin="round"/>
<path d="M11.2551 16.6659L7.31201 16.6387" stroke="#58C6E9" stroke-width="3" stroke-linecap="round" stroke-linejoin="round"/>
<path d="M12.4606 1.96448L7.20312 1.92822" stroke="#58C6E9" stroke-width="3" stroke-linecap="round" stroke-linejoin="round"/>
<path d="M9.88618 9.30146L2 9.24707" stroke="#58C6E9" stroke-width="3" stroke-linecap="round" stroke-linejoin="round"/>
</svg>
