<svg width="29" height="31" viewBox="0 0 29 31" fill="none" xmlns="http://www.w3.org/2000/svg">
<path d="M22.0194 10.3505V6.79296C22.4902 6.57283 22.889 6.22367 23.1693 5.78602C23.4496 5.34837 23.6001 4.84019 23.6032 4.32046V4.23671C23.6012 3.51018 23.3118 2.81395 22.7982 2.30009C22.2846 1.78624 21.5885 1.49652 20.8619 1.49421H20.7782C20.0519 1.49651 19.356 1.78607 18.8424 2.29965C18.3288 2.81324 18.0392 3.50914 18.0369 4.23546V4.31921C18.0392 4.83592 18.1873 5.34149 18.4642 5.77777C18.741 6.21406 19.1354 6.56335 19.6019 6.78546L19.6182 6.79296V10.358C18.258 10.5658 16.9773 11.1309 15.9069 11.9955L15.9219 11.983L6.13692 4.36421C6.32322 3.66628 6.26167 2.92534 5.96276 2.26772C5.66386 1.6101 5.14611 1.07651 4.49779 0.75793C3.84947 0.439352 3.11072 0.355509 2.4075 0.520697C1.70428 0.685884 1.08012 1.08987 0.641444 1.66379C0.20277 2.2377 -0.0232589 2.946 0.00189392 3.66793C0.0270467 4.38985 0.301824 5.08071 0.779378 5.6227C1.25693 6.16469 1.90769 6.52426 2.62071 6.6401C3.33372 6.75595 4.06485 6.62089 4.68942 6.25796L4.67442 6.26546L14.2957 13.7542C13.4451 15.0294 12.9935 16.5289 12.9982 18.0617C12.9982 19.7405 13.5294 21.2967 14.4319 22.5705L14.4157 22.5455L11.4882 25.4742C11.2538 25.3986 11.0094 25.3586 10.7632 25.3555H10.7607C10.2581 25.3555 9.76674 25.5045 9.34883 25.7838C8.93093 26.063 8.60521 26.4599 8.41286 26.9242C8.22052 27.3886 8.1702 27.8996 8.26825 28.3925C8.36631 28.8855 8.60834 29.3383 8.96374 29.6937C9.31914 30.0491 9.77195 30.2911 10.2649 30.3892C10.7579 30.4872 11.2688 30.4369 11.7332 30.2445C12.1975 30.0522 12.5944 29.7265 12.8736 29.3086C13.1529 28.8907 13.3019 28.3993 13.3019 27.8967C13.2985 27.6439 13.2564 27.3931 13.1769 27.153L13.1832 27.1705L16.0794 24.2742C17.0234 24.9945 18.1193 25.4901 19.2836 25.7232C20.4479 25.9562 21.6501 25.9207 22.7986 25.6193C23.9472 25.3178 25.0118 24.7584 25.9116 23.9836C26.8114 23.2088 27.5227 22.239 27.9913 21.1479C28.4599 20.0569 28.6735 18.8733 28.6159 17.6873C28.5583 16.5012 28.2309 15.344 27.6587 14.3035C27.0865 13.263 26.2846 12.3667 25.3139 11.6828C24.3432 10.9989 23.2293 10.5454 22.0569 10.3567L22.0119 10.3505H22.0194ZM20.8144 22.073C20.0224 22.0708 19.2487 21.8339 18.5912 21.3922C17.9337 20.9506 17.4218 20.324 17.1201 19.5916C16.8185 18.8592 16.7407 18.0538 16.8965 17.2772C17.0523 16.5006 17.4347 15.7876 17.9955 15.2282C18.5563 14.6688 19.2702 14.2882 20.0472 14.1343C20.8242 13.9805 21.6294 14.0603 22.361 14.3638C23.0927 14.6672 23.718 15.1807 24.158 15.8393C24.598 16.4979 24.8329 17.2721 24.8332 18.0642V18.0667C24.8334 18.5932 24.7298 19.1146 24.5284 19.601C24.327 20.0874 24.0317 20.5294 23.6594 20.9017C23.2871 21.274 22.8452 21.5693 22.3587 21.7707C21.8723 21.9721 21.3509 22.0756 20.8244 22.0755L20.8144 22.073Z" fill="black"/>
</svg>
