<svg width="24" height="31" viewBox="0 0 24 31" fill="none" xmlns="http://www.w3.org/2000/svg">
<path d="M7.66236 23.561C7.66236 23.561 6.44227 24.2178 8.54119 24.4555C11.0838 24.7418 12.3822 24.7109 15.1785 24.2349C15.1785 24.2349 15.9193 24.6696 16.9494 25.0487C10.6884 27.5176 2.74039 24.8151 7.66236 23.561ZM6.87279 20.2827C6.87279 20.2827 5.50544 21.223 7.60571 21.4384C10.322 21.7164 12.465 21.7513 16.1715 21.1082C16.1715 21.1082 16.6867 21.5967 17.4949 21.8663C9.91998 23.8893 1.45455 21.9297 6.87279 20.2827Z" fill="#0074BD"/>
<path d="M13.3025 14.77C14.8614 16.4409 12.9178 17.9224 12.9178 17.9224C12.9178 17.9224 16.8327 16.0564 15.0133 13.6771C13.3136 11.4591 12.015 10.3548 18.9824 6.61671C18.9824 6.61671 8.02269 9.10406 13.3025 14.77Z" fill="#EA2D2E"/>
<path d="M21.6802 26.0694C21.6802 26.0694 22.5916 26.7722 20.6898 27.2993C17.0738 28.3 5.61814 28.5376 2.42704 27.2265C1.2807 26.7552 3.42157 26.1246 4.0952 25.9935C4.79787 25.8557 5.2 25.8843 5.2 25.8843C3.92218 25.0409 -3.01284 27.4739 1.68491 28.2134C14.4964 30.2272 25.0088 27.4871 21.6802 26.0694ZM8.20727 16.8994C8.20727 16.8994 2.3882 18.1542 6.15551 18.647C7.74677 18.8551 10.9137 18.8292 13.8646 18.6167C16.2754 18.4429 18.6935 18.0542 18.6935 18.0542C18.6935 18.0542 17.8459 18.389 17.2329 18.7767C11.3236 20.1915 -0.112923 19.4442 3.16856 17.9807C5.94297 16.7425 8.20727 16.8994 8.20727 16.8994ZM18.6983 22.4128C24.6952 19.5358 21.8945 16.7175 19.9555 17.0827C19.4814 17.1722 19.2687 17.2508 19.2687 17.2508C19.2687 17.2508 19.444 16.9932 19.78 16.8844C23.613 15.6496 26.5997 20.6404 18.5792 22.5598C18.5792 22.5598 18.6708 22.4825 18.6983 22.4128Z" fill="#0074BD"/>
<path d="M14.9258 0.484051C14.9258 0.484051 18.2781 3.6128 11.8179 8.35082C6.63731 12.1525 10.6707 14.3631 11.8724 16.8686C8.8164 14.2928 6.57235 12.028 8.05363 9.94275C10.229 6.88208 16.3025 5.42862 14.9258 0.484051Z" fill="#EA2D2E"/>
<path d="M8.8881 30.2522C14.664 30.6323 23.5293 30.1516 23.7222 27.6053C23.7222 27.6053 23.3252 28.5684 18.9613 29.3075C14.0384 30.142 7.95802 30.0037 4.34936 29.4264C4.34936 29.4264 5.09146 30.0012 8.8881 30.2522Z" fill="#0074BD"/>
</svg>
