<svg width="49" height="31" viewBox="0 0 49 31" fill="none" xmlns="http://www.w3.org/2000/svg">
<path d="M8.98442 30.3689C6.18321 30.0448 3.26655 28.2861 1.76922 26.0182C0.4679 24.0471 -0.0860056 22.0918 0.0107519 19.811C0.126143 17.0922 1.02084 15.0338 2.91844 13.1215C4.42308 11.6052 5.71364 10.8518 7.73616 10.3092C8.53907 10.0937 8.84059 10.0629 10.1692 10.0606C11.418 10.0606 11.8195 10.0938 12.4439 10.2589C12.8609 10.3693 13.268 10.4856 13.3483 10.5174C13.4606 10.5616 13.5675 10.3931 13.8095 9.79051C15.6679 5.16141 19.589 1.86039 24.6071 0.700686C25.6638 0.456446 28.3799 0.355303 29.5822 0.515346C36.1866 1.39465 41.3916 6.51333 42.4565 13.1763C42.6991 14.6941 42.5539 17.539 42.1651 18.8869L42.0762 19.1949H42.662C44.8215 19.2018 46.8268 20.4407 47.7336 22.3305C48.2132 23.3299 48.3579 24.0659 48.2959 25.1905C48.1658 27.5492 46.6496 29.4419 44.243 30.2498C43.7444 30.4172 42.9801 30.4253 26.7085 30.437C17.3512 30.4439 9.37538 30.4122 8.98442 30.3671V30.3689ZM25.2153 21.4647C25.4106 21.4102 25.7199 21.2123 25.9025 21.0242L26.2346 20.6824V21.076V21.4697H26.9454H27.6563V19.0527V16.6359H26.9454H26.2346V18.1857C26.2346 19.6424 26.2215 19.7549 26.0181 20.0576C25.8317 20.3351 25.7413 20.3837 25.3653 20.4082C24.9871 20.433 24.9021 20.4013 24.7287 20.1821C24.5424 19.9453 24.5285 19.8132 24.5285 18.2817V16.6359H23.758H22.9875L23.0344 18.4604C23.0627 19.5451 23.1275 20.4002 23.1951 20.5693C23.5187 21.3784 24.292 21.7212 25.2153 21.4647ZM36.3051 21.3637C36.6569 21.2494 36.6605 21.2432 36.6605 20.7429C36.6605 20.465 36.6446 20.2375 36.6246 20.2375C36.6046 20.2375 36.4356 20.3017 36.2485 20.3797C35.8008 20.5668 34.8356 20.5634 34.4683 20.3728C34.2349 20.252 33.9117 19.7622 33.9117 19.5291C33.9117 19.5015 34.6155 19.4787 35.4757 19.4787H37.0395V18.7915C37.0326 17.3896 36.2323 16.5415 34.9091 16.5415C33.3385 16.5415 32.2794 17.9483 32.5664 19.6529C32.7295 20.6221 33.2748 21.2421 34.1592 21.4639C34.6115 21.5774 35.8223 21.5205 36.3071 21.3632L36.3051 21.3637ZM33.9713 18.5509C33.876 18.3968 34.2677 17.7194 34.518 17.6054C34.8336 17.4616 34.9757 17.4595 35.2712 17.5944C35.5296 17.7121 35.7127 18.0437 35.7127 18.394C35.7127 18.6234 35.7016 18.6265 34.8652 18.6265C34.3991 18.6265 33.9968 18.5924 33.9713 18.5509ZM12.9561 20.6851L13.195 19.948L14.4251 19.9742L15.6551 20.0004L15.8933 20.735L16.1315 21.4695H16.9243C17.7031 21.4695 17.7158 21.4626 17.6501 21.2563C17.6135 21.139 17.083 19.6355 16.4717 17.9152L15.3602 14.7874L14.4612 14.7605L13.5622 14.7336L12.3631 18.0306C11.7036 19.8438 11.1642 21.3612 11.1642 21.4024C11.1643 21.4438 11.5138 21.4652 11.9408 21.45L12.7172 21.4224L12.9561 20.6851ZM13.5339 18.7448C13.5339 18.7062 13.7008 18.162 13.9047 17.5364C14.1086 16.9107 14.3055 16.2709 14.3422 16.1145C14.4023 15.8602 14.4322 15.9153 14.629 16.6359C14.75 17.0789 14.9369 17.6934 15.0445 18.0013C15.3385 18.8432 15.3605 18.8158 14.3869 18.8158C13.9177 18.8158 13.5339 18.784 13.5339 18.7448ZM22.2538 20.9484V20.427H21.1694C20.5729 20.427 20.0662 20.3953 20.0433 20.356C20.0206 20.3166 20.5084 19.6263 21.1277 18.8214C22.1126 17.5412 22.2538 17.3126 22.2538 16.9969V16.6359H20.2159H18.1782V17.1571V17.6785H19.2682C19.8676 17.6785 20.3572 17.7102 20.3561 17.7495C20.3561 17.7889 19.822 18.503 19.1717 19.3371C18.2129 20.5668 17.9892 20.9118 17.9889 21.1617V21.4697H20.1215H22.2541L22.2538 20.9484ZM30.4199 20.0717C30.4475 18.8699 30.4793 18.6271 30.6466 18.3419C30.9131 17.8872 31.2657 17.7281 31.7406 17.8486L32.111 17.9426V17.3002C32.111 16.577 32.007 16.4782 31.4215 16.6444C31.0099 16.7614 30.943 16.8135 30.6539 17.2415L30.4049 17.6101V17.1229V16.6359H29.6941H28.9832V19.0527V21.4697H29.6854H30.3875L30.4199 20.0717Z" fill="#00BCF2"/>
</svg>
