<svg width="52" height="31" viewBox="0 0 52 31" fill="none" xmlns="http://www.w3.org/2000/svg">
<path d="M25.7908 30.2185C25.6172 30.2163 25.4546 30.1704 25.3031 30.0918L23.7517 29.2068C23.5186 29.0834 23.6337 29.041 23.7028 29.02C24.0138 28.9253 24.0713 28.9042 24.3928 28.733C24.4272 28.7115 24.4736 28.723 24.5087 28.7454L25.6985 29.4286C25.7451 29.4511 25.8029 29.4519 25.8373 29.4304L30.4179 26.9581C30.4638 26.9367 30.4864 26.8932 30.4856 26.8384L30.4132 21.7877C30.4124 21.7329 30.3886 21.6888 30.342 21.6663L25.689 19.088C25.6424 19.0655 25.5846 19.0648 25.5502 19.0862L20.9695 21.5476C20.9235 21.569 20.9012 21.6234 20.9018 21.6673L20.9742 26.718C20.9748 26.7618 20.9988 26.8169 21.0454 26.8394L22.3165 27.5455C23.0039 27.8829 23.4265 27.5048 23.421 27.1214L23.3496 22.1364C23.3486 22.0707 23.4055 22.0057 23.4865 22.0067L24.0766 22.0142C24.1461 22.0151 24.2163 22.0707 24.2174 22.1474L24.2889 27.1324C24.3013 27.9979 23.8109 28.4956 22.9431 28.4846C22.677 28.4812 22.4687 28.4786 21.8747 28.1972L20.6503 27.5244C20.3471 27.3563 20.1575 27.0472 20.1528 26.7185L20.0804 21.6678C20.0757 21.3391 20.2564 21.0347 20.5549 20.8742L25.1355 18.4018C25.4225 18.2521 25.816 18.2571 26.1074 18.4141L30.7605 21.0034C31.0637 21.1716 31.2533 21.4807 31.258 21.8094L31.3304 26.8601C31.3351 27.1887 31.1544 27.4932 30.8559 27.6537L26.2754 30.1261C26.1259 30.1899 25.9528 30.2206 25.7908 30.2185ZM27.1642 26.7635C25.1393 26.7378 24.7102 25.8561 24.6995 25.1111C24.6986 25.0454 24.7555 24.9803 24.8365 24.9814L25.4382 24.989C25.5076 24.9899 25.5661 25.0344 25.567 25.1002C25.6679 25.682 25.9381 25.9702 27.1646 25.9858C28.1366 25.9981 28.5502 25.7952 28.5431 25.3022C28.539 25.0173 28.4203 24.8077 26.9025 24.6461C25.6395 24.5096 24.8489 24.2367 24.8353 23.2835C24.8225 22.3961 25.6018 21.8801 26.9209 21.8968C28.402 21.9156 29.1379 22.4069 29.2455 23.4598C29.246 23.4927 29.2349 23.5254 29.2122 23.558C29.1894 23.5796 29.155 23.6011 29.1203 23.6007L28.5186 23.593C28.4607 23.5923 28.4023 23.5478 28.3899 23.4928C28.2424 22.8885 27.8809 22.6867 26.9321 22.6747C25.8675 22.6612 25.7453 23.0102 25.749 23.2732C25.7536 23.5909 25.9054 23.6914 27.3428 23.8849C28.7685 24.0782 29.4432 24.3387 29.4567 25.2809C29.459 26.2449 28.6337 26.7821 27.1642 26.7635Z" fill="#539E43"/>
<path d="M11.0976 10.4639C11.0948 10.2666 10.9763 10.0788 10.7896 9.97777L5.84215 7.24092C5.76048 7.19605 5.66754 7.17295 5.57475 7.16082L5.52844 7.16023C5.43582 7.15905 5.34366 7.19077 5.26325 7.23358L0.392514 9.846C0.20868 9.94231 0.0955732 10.1272 0.0984046 10.3245L0.21317 17.5155C0.214585 17.6141 0.273891 17.7135 0.367145 17.7585C0.460557 17.8145 0.576338 17.816 0.656598 17.7622L3.55163 16.2207C3.73546 16.1244 3.84857 15.9395 3.84574 15.7422L3.79745 12.377C3.79462 12.1797 3.90772 11.9948 4.09156 11.8985L5.32066 11.2346C5.4125 11.1809 5.51639 11.1603 5.62059 11.1617C5.72479 11.163 5.82931 11.1862 5.91114 11.2421L7.15975 11.9374C7.34642 12.0384 7.46487 12.2262 7.4677 12.4235L7.516 15.7887C7.51883 15.986 7.63728 16.1738 7.82395 16.2748L10.7643 17.8903C10.8577 17.9463 10.9735 17.9477 11.0653 17.8941C11.1573 17.8514 11.2138 17.7535 11.2124 17.6549L11.0976 10.4639Z" fill="#333333"/>
<path d="M34.769 0.7644C34.6762 0.719514 34.5609 0.718073 34.4808 0.760798C34.3894 0.814311 34.333 0.901057 34.3344 0.999456L34.4348 8.10606C34.4357 8.17166 34.4021 8.23683 34.3335 8.2797C34.2648 8.31163 34.1956 8.31077 34.126 8.2771L32.8947 7.5949C32.7089 7.4942 32.4899 7.49146 32.3068 7.58755L27.4571 10.2051C27.274 10.3012 27.1614 10.4856 27.1642 10.6824L27.2397 16.0288C27.2425 16.2256 27.3604 16.4129 27.5462 16.5136L32.4716 19.2533C32.6575 19.354 32.8765 19.3568 33.0595 19.2607L37.9092 16.6431C38.0923 16.547 38.2049 16.3626 38.2022 16.1658L38.0139 2.83819C38.0109 2.63046 37.893 2.44315 37.7072 2.34244L34.769 0.7644ZM34.5116 14.3597C34.5124 14.4144 34.4899 14.4578 34.4441 14.4791L32.7857 15.3766C32.7399 15.3979 32.6822 15.3972 32.6358 15.3748L30.9514 14.4355C30.905 14.413 30.8811 14.3581 30.8805 14.3143L30.8546 12.4776C30.8538 12.4229 30.8762 12.3794 30.922 12.3582L32.5805 11.4607C32.6263 11.4394 32.6839 11.4401 32.7304 11.4625L34.4148 12.4018C34.4612 12.4243 34.485 12.4792 34.4857 12.5229L34.5116 14.3597Z" fill="#333333"/>
<path d="M51.3212 12.6218C51.503 12.5258 51.6027 12.3404 51.5988 12.1422L51.5726 10.8321C51.5687 10.634 51.45 10.4449 51.2757 10.3429L46.3844 7.57513C46.1986 7.47295 45.9803 7.46927 45.7984 7.56526L40.98 10.1804C40.7982 10.2764 40.687 10.4616 40.6909 10.6598L40.7983 16.0433C40.8023 16.2415 40.9209 16.4305 41.1068 16.5327L45.9972 19.2565C46.183 19.3586 46.4013 19.3623 46.5717 19.2661L49.4707 17.7522C49.5618 17.7097 49.6172 17.6116 49.6153 17.5125C49.6133 17.4134 49.5539 17.3134 49.461 17.2678L44.5121 14.4881C44.4191 14.4315 44.3599 14.3424 44.3579 14.2433L44.3243 12.5589C44.3223 12.4598 44.3778 12.3617 44.4688 12.3192L45.9804 11.5083C46.0713 11.4548 46.1862 11.4567 46.2792 11.5133L47.8242 12.3758C47.9172 12.4324 47.9764 12.5214 47.9784 12.6205L48.0048 13.9416C48.0067 14.0407 48.0662 14.1407 48.159 14.1863C48.252 14.2429 48.3669 14.2449 48.4577 14.1914L51.3212 12.6218Z" fill="#333333"/>
<path d="M46.1095 12.2801C46.1435 12.2586 46.1895 12.2594 46.2244 12.282L47.1652 12.8149C47.2001 12.8375 47.2238 12.8709 47.2246 12.9149L47.245 13.9497C47.2459 13.9937 47.2236 14.0263 47.1895 14.0478L46.2691 14.5496C46.235 14.5711 46.1891 14.5703 46.1542 14.5477L45.2134 14.0148C45.1785 13.9922 45.1548 13.9588 45.154 13.9148L45.1336 12.88C45.1327 12.836 45.155 12.8034 45.1891 12.7819L46.1095 12.2801Z" fill="#539E43"/>
<path d="M19.3279 7.39808C19.1421 7.29594 18.9238 7.29229 18.7419 7.38831L13.9572 9.98277C13.7753 10.0788 13.6756 10.2642 13.6795 10.4624L13.7851 15.8237C13.789 16.0218 13.9076 16.2109 14.0819 16.3129L18.9721 19.0687C19.1579 19.1708 19.3763 19.1745 19.5582 19.0785L24.3429 16.484C24.5248 16.388 24.6245 16.2026 24.6206 16.0044L24.5149 10.6431C24.511 10.4449 24.3924 10.2559 24.2181 10.1539L19.3279 7.39808Z" fill="url(#paint0_linear_516_13721)"/>
<mask id="mask0_516_13721" style="mask-type:luminance" maskUnits="userSpaceOnUse" x="13" y="7" width="12" height="13">
<path d="M19.2768 7.36084C19.092 7.25708 18.876 7.2523 18.6968 7.34802L13.9839 9.93516C13.8047 10.0309 13.7076 10.217 13.7131 10.4165L13.8628 15.8134C13.8684 16.0129 13.9873 16.2038 14.1607 16.3073L19.023 19.1061C19.2077 19.2098 19.4238 19.2146 19.603 19.1189L24.3159 16.5318C24.4951 16.436 24.5922 16.2499 24.5866 16.0504L24.4369 10.6535C24.4314 10.454 24.3124 10.2631 24.1391 10.1596L19.2768 7.36084Z" fill="white"/>
</mask>
<g mask="url(#mask0_516_13721)">
<path d="M24.1487 10.1601L19.2656 7.36266C19.2195 7.33951 19.162 7.31611 19.1163 7.30403L13.9755 16.1801C14.0226 16.2365 14.0806 16.282 14.1384 16.3165L19.0215 19.114C19.1601 19.1945 19.3199 19.2201 19.4664 19.1791L24.2768 10.2736C24.2415 10.2286 24.1951 10.1943 24.1487 10.1601Z" fill="url(#paint1_linear_516_13721)"/>
</g>
<mask id="mask1_516_13721" style="mask-type:luminance" maskUnits="userSpaceOnUse" x="13" y="7" width="12" height="13">
<path d="M19.2768 7.36084C19.092 7.25708 18.876 7.2523 18.6968 7.34802L13.9839 9.93516C13.8047 10.0309 13.7076 10.217 13.7131 10.4165L13.8628 15.8134C13.8684 16.0129 13.9873 16.2038 14.1607 16.3073L19.023 19.1061C19.2077 19.2098 19.4238 19.2146 19.603 19.1189L24.3159 16.5318C24.4951 16.436 24.5922 16.2499 24.5866 16.0504L24.4369 10.6535C24.4314 10.454 24.3124 10.2631 24.1391 10.1596L19.2768 7.36084Z" fill="white"/>
</mask>
<g mask="url(#mask1_516_13721)">
<path fill-rule="evenodd" clip-rule="evenodd" d="M24.3243 16.5533C24.4573 16.4789 24.5546 16.348 24.5951 16.2046L19.0683 7.26839C18.9321 7.24277 18.7856 7.25021 18.6639 7.32492L14.008 9.89666L19.4227 19.2078C19.4901 19.1983 19.5685 19.1781 19.6352 19.1464L24.3243 16.5533Z" fill="url(#paint2_linear_516_13721)"/>
<path fill-rule="evenodd" clip-rule="evenodd" d="M24.3295 16.396L19.5886 19.0151C19.521 19.0472 19.4531 19.0681 19.3733 19.0773L19.4704 19.2487L24.7275 16.3271L24.7253 16.2594L24.5807 16.0305C24.5629 16.1878 24.4643 16.3205 24.3295 16.396Z" fill="url(#paint3_linear_516_13721)"/>
<path fill-rule="evenodd" clip-rule="evenodd" d="M24.3295 16.396L19.5886 19.0151C19.521 19.0472 19.4531 19.0681 19.3733 19.0773L19.4704 19.2487L24.7275 16.3271L24.7253 16.2594L24.5807 16.0305C24.5629 16.1878 24.4643 16.3205 24.3295 16.396Z" fill="url(#paint4_linear_516_13721)"/>
</g>
<defs>
<linearGradient id="paint0_linear_516_13721" x1="756.548" y1="226.405" x2="260.739" y2="1027.38" gradientUnits="userSpaceOnUse">
<stop stop-color="#41873F"/>
<stop offset="0.3288" stop-color="#418B3D"/>
<stop offset="0.6352" stop-color="#419637"/>
<stop offset="0.9319" stop-color="#3FA92D"/>
<stop offset="1" stop-color="#3FAE2A"/>
</linearGradient>
<linearGradient id="paint1_linear_516_13721" x1="484.953" y1="673.499" x2="1744.18" y2="-54.4449" gradientUnits="userSpaceOnUse">
<stop offset="0.1376" stop-color="#41873F"/>
<stop offset="0.4032" stop-color="#54A044"/>
<stop offset="0.7136" stop-color="#66B848"/>
<stop offset="0.9081" stop-color="#6CC04A"/>
</linearGradient>
<linearGradient id="paint2_linear_516_13721" x1="-12.2544" y1="603.472" x2="1085.91" y2="567.761" gradientUnits="userSpaceOnUse">
<stop offset="0.0919165" stop-color="#6CC04A"/>
<stop offset="0.2864" stop-color="#66B848"/>
<stop offset="0.5968" stop-color="#54A044"/>
<stop offset="0.8624" stop-color="#41873F"/>
</linearGradient>
<linearGradient id="paint3_linear_516_13721" x1="-541.081" y1="170.121" x2="571.772" y2="134.049" gradientUnits="userSpaceOnUse">
<stop offset="0.0919165" stop-color="#6CC04A"/>
<stop offset="0.2864" stop-color="#66B848"/>
<stop offset="0.5968" stop-color="#54A044"/>
<stop offset="0.8624" stop-color="#41873F"/>
</linearGradient>
<linearGradient id="paint4_linear_516_13721" x1="707.909" y1="-673.107" x2="403.866" y2="763.283" gradientUnits="userSpaceOnUse">
<stop stop-color="#41873F"/>
<stop offset="0.3288" stop-color="#418B3D"/>
<stop offset="0.6352" stop-color="#419637"/>
<stop offset="0.9319" stop-color="#3FA92D"/>
<stop offset="1" stop-color="#3FAE2A"/>
</linearGradient>
</defs>
</svg>
