<svg width="63" height="31" viewBox="0 0 63 31" fill="none" xmlns="http://www.w3.org/2000/svg">
<path d="M31.2505 0.664205C13.992 0.539274 0.0513278 7.05257 0.114641 15.2118C0.177955 23.371 14.2213 30.0868 31.4798 30.2118C48.7384 30.3367 62.679 23.8234 62.6157 15.6642C62.5524 7.50501 48.5091 0.789137 31.2505 0.664205ZM23.256 18.2574C22.5152 18.9029 21.6892 19.1656 20.7793 19.4357C19.8694 19.7064 18.7083 19.6407 17.297 19.6305L14.0985 19.6073L13.2491 24.3726L9.51453 24.3456L12.7212 8.14582L19.9028 8.19781C22.0635 8.21345 23.644 8.80462 24.643 9.86969C25.642 10.9348 25.9513 12.4386 25.5712 14.3315C25.4141 15.1115 25.145 15.8358 24.7623 16.48C24.3791 17.1247 23.8769 17.7256 23.256 18.2574ZM34.1679 19.7526L35.5881 12.8824C35.7497 12.0782 35.6836 11.4793 35.3903 11.1847C35.0965 10.8896 34.475 10.689 33.5272 10.6822L30.5655 10.6607L28.7274 19.7132L25.022 19.6864L28.2323 3.96378L31.9377 3.9906L31.0851 8.27875L34.3859 8.30265C36.4632 8.31768 37.8984 8.71695 38.6919 9.39833C39.4854 10.0797 39.7289 11.0071 39.4256 12.5185L37.9316 19.7798L34.1679 19.7526ZM54.7196 14.5678C54.563 15.3478 54.2933 16.0596 53.9111 16.7034C53.5284 17.3481 53.0266 17.9366 52.4052 18.4684C51.6644 19.1139 50.8379 19.3766 49.9285 19.6467C49.0191 19.9174 47.857 19.8517 46.4458 19.8415L43.2473 19.8183L42.3983 24.5837L38.6638 24.5566L41.8699 8.35682L49.0521 8.40881C51.2127 8.42445 52.7932 9.01563 53.7917 10.0807C54.7897 11.1458 55.0998 12.6753 54.7196 14.5678ZM47.6552 10.7844L45.0971 10.7659L43.7541 17.4363L46.0262 17.4527C47.5311 17.4636 48.6523 17.3333 49.3848 16.809C50.1183 16.2856 50.6086 15.4685 50.8573 14.2331C51.0956 13.0462 50.9759 12.1182 50.4995 11.6262C50.0225 11.1341 49.0742 10.7947 47.6552 10.7844ZM18.5065 10.5734L15.9479 10.5549L14.6048 17.2253L16.8765 17.2417C18.3819 17.2526 19.5026 17.1223 20.2355 16.598C20.9685 16.0746 21.4593 15.2575 21.7076 14.022C21.9459 12.8352 21.8262 11.9072 21.3497 11.4152C20.8733 10.9231 19.9254 10.5837 18.5065 10.5734Z" fill="#6181B6"/>
</svg>
