<svg width="34" height="31" viewBox="0 0 34 31" fill="none" xmlns="http://www.w3.org/2000/svg">
<path d="M25.8206 8.67369L24.8532 8.3855C24.8519 8.18394 24.9513 7.96956 25.0076 7.76835C25.7062 4.46713 25.2129 1.8035 23.521 0.919577C21.8291 0.0356514 19.4138 0.89407 16.8341 3.01456C16.5904 3.21461 16.3325 3.428 16.1033 3.64158L15.6683 3.23576C12.9438 0.921074 10.2281 -0.0498334 8.6056 0.826946C6.98306 1.70372 6.59593 4.16033 7.20764 7.295C7.26737 7.6089 7.34148 7.91842 7.42998 8.22355C7.05592 8.31528 6.68195 8.42046 6.32248 8.53916C3.15886 9.54074 0.893023 11.1929 0.903942 12.8323C0.914861 14.4717 3.34808 16.3143 6.69841 17.3832L7.50704 17.6301C7.42281 17.9655 7.3529 18.2875 7.28308 18.623C6.68391 21.6964 7.17576 24.1451 8.76652 24.988C10.3573 25.831 13.0898 25.0149 15.6838 22.8676L16.2999 22.334C16.5609 22.5774 16.8361 22.7941 17.1115 23.0243C19.6758 25.0827 22.2032 25.918 23.754 25.0946C25.3049 24.2711 25.8492 21.6139 25.1504 18.3846C25.1487 18.1293 25.0318 17.8867 24.9724 17.631L25.5334 17.4733C28.9561 16.433 31.4235 14.7418 31.4117 12.9814C31.4 11.2211 29.0697 9.68822 25.8206 8.67369ZM17.7477 3.88022C19.9406 2.09325 22.0543 1.39421 22.9512 1.91039C23.848 2.42658 24.4102 4.60689 23.752 7.47837C23.7532 7.6665 23.668 7.85409 23.6116 8.04186C22.2908 7.74953 20.9508 7.54365 19.6014 7.42572C18.8265 6.38409 17.9723 5.39529 17.0455 4.4671C17.2747 4.25352 17.504 4.06683 17.7477 3.88022ZM10.9387 15.7702C11.2446 16.2558 11.5649 16.7415 11.885 17.2138C10.9621 17.114 10.0388 16.9605 9.12975 16.7802C9.38378 15.9755 9.70977 15.1579 10.0788 14.3136C10.3559 14.7991 10.6329 15.2845 10.9387 15.7702ZM9.09261 9.0401C9.94169 8.87069 10.863 8.72861 11.799 8.62692C11.485 9.08184 11.1854 9.52788 10.9001 9.96506C10.6006 10.4335 10.33 10.9156 10.0594 11.3976C9.69124 10.6054 9.36837 9.79605 9.09216 8.97292L9.09261 9.0401ZM10.7468 12.9203C11.1308 12.1568 11.5581 11.4069 12 10.6706C12.4418 9.93432 12.9414 9.22525 13.4267 8.52953C14.3202 8.53508 15.2275 8.44666 16.1642 8.45247C17.1009 8.45829 18.0088 8.46393 18.8885 8.56345C19.3975 9.26535 19.8918 9.91341 20.3438 10.709C20.7959 11.5046 21.2472 12.2061 21.6558 12.9612C21.2574 13.7246 20.8445 14.4745 20.3882 15.2107C19.932 15.947 19.4182 16.6963 18.9759 17.3654C18.0829 17.427 17.1608 17.4482 16.2385 17.4424C15.3162 17.4367 14.3939 17.431 13.5143 17.3449C12.9908 16.6429 12.5104 15.9143 12.0588 15.1725C11.6071 14.4306 11.1554 13.6888 10.7468 12.9203ZM21.5163 15.8224C21.8157 15.3406 22.0862 14.8451 22.3711 14.3496C22.7512 15.1582 23.088 15.9666 23.3963 16.815C22.4752 16.9974 21.5395 17.1394 20.6035 17.2411C20.9174 16.7728 21.2169 16.3043 21.5163 15.8224ZM22.3383 11.5814C22.0564 11.0959 21.765 10.6103 21.464 10.1247C21.1726 9.65262 20.8668 9.18041 20.5471 8.77531C21.4684 8.88278 22.3834 9.03649 23.2882 9.23576C23.015 10.0328 22.6979 10.8157 22.3383 11.5814ZM16.1577 5.30813C16.7846 5.93287 17.3712 6.59163 17.9145 7.28087C16.752 7.27365 15.5799 7.26637 14.3982 7.25903C14.9487 6.58113 15.536 5.93 16.1577 5.30813ZM9.23207 1.85206C10.2228 1.30729 12.4472 2.10046 14.7947 4.05L15.2585 4.44256C14.3434 5.36715 13.4978 6.34958 12.7274 7.38303C11.3856 7.48735 10.0536 7.67208 8.73941 7.93606C8.73753 7.65387 8.59145 7.35734 8.53193 7.07479C7.952 4.38375 8.29876 2.35688 9.23207 1.85206ZM7.88844 16.4768L7.15204 16.2573C5.80378 15.8744 4.53267 15.2803 3.39364 14.5005C3.09454 14.3101 2.84044 14.0641 2.6475 13.7784C2.45456 13.4926 2.32702 13.1733 2.27299 12.8408C2.26618 11.8195 4.13102 10.5411 6.83438 9.67107L7.84109 9.36826C8.24812 10.5763 8.73734 11.7597 9.30573 12.9113C8.75285 14.0699 8.27947 15.2607 7.88844 16.4768ZM14.8708 21.9623C13.893 22.79 12.7596 23.4432 11.526 23.8899C11.1947 24.0395 10.8327 24.1227 10.4631 24.1343C10.0936 24.1459 9.72446 24.0856 9.3793 23.9572C8.43918 23.4407 8.02261 21.4763 8.53827 18.8458C8.53621 18.5368 8.67827 18.2286 8.76267 17.9201C10.0944 18.1947 11.4439 18.3827 12.8013 18.4826C13.5949 19.5271 14.4583 20.5243 15.3863 21.4683L14.8275 21.962L14.8708 21.9623ZM16.3029 20.6274C15.6624 19.9801 15.0567 19.3037 14.4881 18.6006L16.2463 18.6115C16.2463 18.6115 17.4568 18.619 18.0476 18.6227C17.505 19.3718 16.9182 19.9728 16.3028 20.614L16.3029 20.6274ZM24.0816 22.342C24.0592 22.6785 23.9615 23.0061 23.7947 23.3036C23.6279 23.6011 23.3957 23.8619 23.1132 24.0694C22.1798 24.5742 20.1579 23.9032 17.9702 22.1428L17.2022 21.5065C18.1078 20.5753 18.9392 19.5836 19.6899 18.5388C21.0577 18.4445 22.4147 18.2553 23.7498 17.9728C23.7514 18.2013 23.8682 18.4304 23.9128 18.6457C24.2138 19.8558 24.271 21.1048 24.0815 22.3285L24.0816 22.342ZM25.1802 16.3692L24.6624 16.5138C24.2438 15.3001 23.7302 14.1158 23.1257 12.9703C23.6827 11.8409 24.1564 10.6766 24.5435 9.48543L25.4387 9.7463C28.2259 10.6505 30.1803 11.9929 30.187 13.0007C30.1937 14.0085 28.0563 15.4734 25.1802 16.3692ZM16.2687 15.4808C16.8054 15.4762 17.3266 15.3237 17.7669 15.0426C18.2072 14.7615 18.5469 14.3643 18.7433 13.9008C18.9398 13.4373 18.9842 12.9283 18.871 12.4376C18.7578 11.9469 18.4921 11.4966 18.1072 11.143C17.7222 10.7895 17.2353 10.5485 16.7076 10.4505C16.1798 10.3524 15.6347 10.4017 15.1409 10.5919C14.647 10.7822 14.2263 11.1051 13.9316 11.52C13.637 11.9349 13.4816 12.4233 13.4848 12.9239C13.487 13.2574 13.5597 13.5881 13.6986 13.8971C13.8376 14.206 14.04 14.4873 14.2945 14.7247C14.549 14.9621 14.8505 15.151 15.1818 15.2807C15.5131 15.4104 15.8677 15.4783 16.2254 15.4805L16.2687 15.4808ZM2.60756 28.4569C2.87491 28.374 3.10472 28.2114 3.26197 27.9941C3.41922 27.7767 3.49528 27.5165 3.47858 27.253C3.49012 27.0735 3.46037 26.8933 3.39134 26.7245C3.3223 26.5556 3.21556 26.402 3.07826 26.274C2.94097 26.1459 2.77629 26.0463 2.59525 25.9818C2.41421 25.9174 2.22099 25.8896 2.02853 25.9002L0.169509 25.8887L0.197791 30.135L0.903929 30.1394L0.893368 28.5538L1.88773 28.5599L2.82086 30.1916L3.6567 30.1968L2.60756 28.4569ZM1.89838 27.9956L0.889609 27.9894L0.879764 26.5112L1.87412 26.5174C1.98559 26.5045 2.09904 26.5142 2.20668 26.5461C2.31432 26.5779 2.41357 26.631 2.49759 26.7018C2.58162 26.7726 2.64842 26.8593 2.6934 26.956C2.73838 27.0527 2.76046 27.1571 2.75812 27.2619C2.76403 27.3662 2.74532 27.4701 2.7033 27.5663C2.66129 27.6625 2.597 27.7486 2.51499 27.8186C2.43297 27.8886 2.33523 27.9407 2.22868 27.9713C2.12213 28.0019 2.00937 28.0102 1.89838 27.9956ZM6.78872 28.7785L6.78728 28.5635C6.78057 27.5557 6.20002 26.9339 5.23448 26.9279C5.00629 26.9248 4.78066 26.9673 4.57273 27.0524C4.3648 27.1375 4.17939 27.2634 4.02894 27.4216C3.87849 27.5797 3.76648 27.7665 3.70044 27.9694C3.6344 28.1722 3.61585 28.3865 3.64605 28.5977C3.61822 28.8074 3.63951 29.0207 3.70845 29.2231C3.77739 29.4255 3.89234 29.6121 4.0454 29.7701C4.19846 29.9281 4.38599 30.0538 4.59509 30.1384C4.80419 30.2231 5.0299 30.2647 5.25668 30.2605C5.57283 30.2769 5.88464 30.1959 6.14397 30.0299C6.40331 29.8639 6.59575 29.6223 6.6916 29.3423L6.10075 29.3386C6.02075 29.471 5.90049 29.578 5.7549 29.6464C5.60932 29.7148 5.44484 29.7415 5.28192 29.7232C5.15519 29.7246 5.02919 29.7013 4.91204 29.6548C4.79489 29.6082 4.68918 29.5394 4.60173 29.4528C4.51427 29.3661 4.447 29.2636 4.40426 29.1518C4.36151 29.0401 4.34423 28.9215 4.35353 28.8037L6.78872 28.7785ZM5.23779 27.4251C5.35306 27.4218 5.4681 27.4412 5.57542 27.482C5.68274 27.5228 5.77994 27.5841 5.86067 27.6619C5.94139 27.7397 6.00385 27.8323 6.04397 27.9337C6.08409 28.035 6.10096 28.1429 6.0935 28.2501L4.34977 28.2393C4.36315 28.0291 4.46291 27.8328 4.62834 27.6912C4.79377 27.5496 5.01216 27.4736 5.23815 27.4789L5.23779 27.4251ZM8.44777 26.8941C7.66958 26.8893 7.10997 27.2486 7.01276 27.799L7.67567 27.8031C7.67414 27.5746 8.0047 27.4423 8.3938 27.4447C8.78289 27.4472 9.08687 27.6506 9.08911 27.9865L9.0909 28.2553L8.16859 28.2496C7.34717 28.2445 6.88852 28.6179 6.89237 29.1957C6.8946 29.3317 6.92713 29.4662 6.9879 29.5905C7.04867 29.7149 7.13635 29.8264 7.24537 29.9181C7.35439 30.0097 7.48237 30.0795 7.62118 30.1229C7.75999 30.1664 7.9066 30.1825 8.05169 30.1704C8.25573 30.1799 8.45805 30.1381 8.63747 30.0494C8.81688 29.9607 8.96678 29.8283 9.07147 29.6661L9.07451 30.123L9.72301 30.127L9.70914 28.0441C9.79122 27.3862 9.29838 26.9532 8.44813 26.9479L8.44777 26.8941ZM9.12464 28.9946C9.11807 29.0947 9.09008 29.1923 9.0423 29.2816C8.99453 29.371 8.92794 29.4503 8.84647 29.5149C8.76499 29.5795 8.67026 29.6281 8.56786 29.6578C8.46547 29.6875 8.35747 29.6977 8.25022 29.6879C7.87554 29.6855 7.60057 29.5091 7.59869 29.227C7.59681 28.9448 7.81199 28.7983 8.28737 28.7744L9.12321 28.7796L9.12464 28.9946ZM12.5335 28.0348C12.4855 27.869 12.3764 27.7235 12.2254 27.6242C12.0744 27.5249 11.8913 27.4781 11.7085 27.4922C11.1465 27.4887 10.8033 27.8897 10.8079 28.575C10.8124 29.2603 11.1611 29.6791 11.7231 29.6826C11.9052 29.7052 12.0891 29.6649 12.2398 29.5693C12.3906 29.4736 12.4977 29.3293 12.541 29.1636L13.2039 29.1677C13.1593 29.4857 12.9862 29.7744 12.7198 29.9749C12.4535 30.1754 12.1138 30.2728 11.7701 30.2472C11.5407 30.2537 11.312 30.2133 11.1 30.1287C10.8879 30.0441 10.6978 29.9175 10.5429 29.7577C10.3879 29.5979 10.272 29.4088 10.2033 29.2038C10.1345 28.9987 10.1146 28.7827 10.145 28.5709C10.1214 28.3664 10.1441 28.16 10.2117 27.9653C10.2793 27.7706 10.3903 27.5919 10.5375 27.4407C10.6846 27.2896 10.8646 27.1694 11.0657 27.088C11.2669 27.0065 11.4847 26.9657 11.705 26.9681C12.0483 26.9656 12.3828 27.0775 12.6484 27.2836C12.914 27.4897 13.0931 27.7765 13.1535 28.0924L12.5335 28.0348ZM14.4379 26.2057L14.4433 27.012L15.1638 27.0165L15.1674 27.554L14.4469 27.5495L14.4579 29.2024C14.46 29.5249 14.6051 29.6736 14.951 29.6757L15.1816 29.6772L15.185 30.2012C15.0655 30.2145 14.9445 30.2138 14.8248 30.199C14.0754 30.1943 13.7712 29.9506 13.767 29.3324L13.7555 27.599L13.2223 27.5957L13.2187 27.0582L13.7231 27.0613L13.7177 26.255L14.4379 26.2057ZM16.8858 30.2521L16.8581 26.0864L17.4921 26.0903L19.8468 29.1149L19.8267 26.1048L20.504 26.109L20.5323 30.3554L19.8982 30.3514L17.5435 27.3134L17.5637 30.3369L16.8858 30.2521ZM22.4987 27.0083C21.7205 27.0035 21.1609 27.3628 21.0637 27.9131L21.7266 27.9172C21.725 27.6888 22.0556 27.5565 22.4447 27.5589C22.8338 27.5613 23.1378 27.7647 23.14 28.1007L23.1418 28.3694L22.2195 28.3637C21.3981 28.3586 20.9394 28.732 20.9433 29.3098C20.9455 29.4458 20.978 29.5803 21.0388 29.7046C21.0996 29.829 21.1872 29.9406 21.2963 30.0322C21.4053 30.1239 21.5333 30.1936 21.6721 30.2371C21.8109 30.2805 21.9575 30.2967 22.1026 30.2845C22.3066 30.294 22.5089 30.2522 22.6884 30.1635C22.8678 30.0748 23.0177 29.9424 23.1224 29.7802L23.1254 30.2371L23.8315 30.2415L23.8175 28.1318C23.8131 27.4733 23.3635 27.0405 22.4988 27.0352L22.4987 27.0083ZM23.1755 29.1087C23.169 29.2088 23.141 29.3064 23.0932 29.3958C23.0454 29.4851 22.9788 29.5644 22.8974 29.629C22.8159 29.6936 22.7212 29.7422 22.6188 29.7719C22.5164 29.8016 22.4084 29.8119 22.3011 29.802C21.9264 29.7997 21.6515 29.6233 21.6496 29.3411C21.6477 29.0589 21.8629 28.9124 22.3383 28.8885L23.1741 28.8937L23.1755 29.1087ZM25.2465 26.3266L25.2519 27.1329L26.0013 27.1375L26.0048 27.675L25.2555 27.6704L25.2665 29.3232C25.2686 29.6457 25.4281 29.7945 25.7596 29.7966L26.019 29.7982L26.0225 30.3223C25.8982 30.3367 25.7722 30.3359 25.6478 30.32C24.8984 30.3153 24.5942 30.0715 24.59 29.4534L24.5781 27.6662L24.0305 27.6628L24.0269 27.1253L24.5746 27.1287L24.5692 26.3224L25.2465 26.3266ZM26.2255 26.1849C26.2162 26.1006 26.2346 26.0161 26.2782 25.9424C26.3218 25.8688 26.3887 25.8096 26.4698 25.7727C26.5509 25.7358 26.6424 25.7229 26.7323 25.7358C26.8221 25.7487 26.906 25.7867 26.9727 25.8449C27.0394 25.903 27.0858 25.9784 27.1057 26.0612C27.1256 26.144 27.1181 26.2301 27.0842 26.3082C27.0503 26.3862 26.9916 26.4525 26.9159 26.4981C26.8402 26.5438 26.751 26.5667 26.6603 26.5638C26.6006 26.5675 26.5405 26.559 26.4843 26.5392C26.428 26.5193 26.3768 26.4884 26.3342 26.4487C26.2915 26.4089 26.2584 26.3612 26.2372 26.3087C26.2159 26.2562 26.2069 26.2002 26.2108 26.1445L26.2255 26.1849ZM26.3326 27.1262L27.0099 27.1304L27.0313 30.342L26.354 30.3378L26.3326 27.1262ZM29.2362 30.3557L28.5157 30.3512L27.2549 27.1319L27.9755 27.1364L28.8425 29.6679L29.676 27.1469L30.3965 27.1514L29.2362 30.3557ZM33.5499 28.9447L33.5485 28.7297C33.5785 28.5255 33.5605 28.3171 33.4956 28.1189C33.4308 27.9208 33.3207 27.7376 33.173 27.582C33.0253 27.4264 32.8435 27.3022 32.6403 27.218C32.437 27.1337 32.217 27.0915 31.9957 27.0941C31.7687 27.093 31.5447 27.1368 31.3385 27.2228C31.1324 27.3088 30.9487 27.435 30.7998 27.5929C30.651 27.7508 30.5402 27.937 30.475 28.1389C30.4098 28.3408 30.3916 28.5539 30.4217 28.764C30.3915 28.9729 30.4107 29.186 30.4779 29.3884C30.545 29.5908 30.6586 29.7777 30.8105 29.936C30.9625 30.0943 31.1493 30.2202 31.3578 30.305C31.5663 30.3897 31.7916 30.4313 32.0179 30.4267C32.334 30.4431 32.6458 30.3621 32.9052 30.1961C33.1645 30.0301 33.357 29.7885 33.4528 29.5085L32.7899 29.5043C32.7154 29.6382 32.5982 29.7468 32.4543 29.8157C32.3104 29.8845 32.1468 29.9101 31.9855 29.889C31.8588 29.8905 31.7328 29.8672 31.6156 29.8206C31.4985 29.774 31.3928 29.7052 31.3053 29.6186C31.2178 29.532 31.1506 29.4295 31.1078 29.3177C31.0651 29.2059 31.0478 29.0873 31.0571 28.9695L33.5499 28.9447ZM31.999 27.5913C32.1137 27.5901 32.2277 27.6108 32.334 27.6523C32.4404 27.6938 32.5366 27.7552 32.6169 27.8326C32.6972 27.91 32.7597 28.0017 32.8006 28.1022C32.8415 28.2026 32.8599 28.3095 32.8547 28.4163L31.0245 28.405C31.0378 28.1971 31.1355 28.0028 31.2979 27.8615C31.4602 27.7202 31.675 27.6426 31.8985 27.6445L31.999 27.5913Z" fill="#080736"/>
</svg>
