<svg width="36" height="31" viewBox="0 0 36 31" fill="none" xmlns="http://www.w3.org/2000/svg">
<path d="M17.8619 18.3799C19.6022 18.3976 20.9975 17.0813 20.9786 15.4399C20.9596 13.7984 19.5335 12.4535 17.7933 12.4358C16.0531 12.4181 14.6577 13.7344 14.6767 15.3759C14.6956 17.0173 16.1217 18.3622 17.8619 18.3799Z" fill="#00D8FF"/>
<path d="M17.7678 10.0739C21.8419 10.1161 25.7186 10.6979 28.6721 11.6838C31.9524 12.7787 33.9642 14.3681 33.9785 15.5769C33.9936 16.8645 31.8607 18.5138 28.3782 19.57C25.6057 20.4109 21.8882 20.8464 17.8943 20.8051C13.6986 20.7617 9.92804 20.258 7.16716 19.3428C5.43872 18.7699 4.00823 18.0337 3.02428 17.2363C2.14011 16.5198 1.68965 15.8128 1.68293 15.2429C1.66863 14.03 3.5674 12.5028 6.7523 11.4844C9.68443 10.5469 13.6428 10.0313 17.7678 10.0739ZM17.751 8.65102C13.4658 8.60671 9.34161 9.14396 6.23984 10.1357C2.5157 11.3265 0.150816 13.2286 0.174383 15.2273C0.198723 17.2916 2.78627 19.3885 6.69512 20.6842C9.63328 21.6582 13.5624 22.1831 17.9111 22.228C22.0556 22.2709 25.9295 21.8171 28.8686 20.9257C32.9019 19.7024 35.5117 17.6843 35.487 15.5925C35.4634 13.5866 32.9759 11.6213 29.1473 10.3434C26.0253 9.30133 21.984 8.6948 17.751 8.65102ZM12.8717 12.7081C14.8677 9.40017 17.2647 6.5336 19.5893 4.63099C22.1711 2.51796 24.5978 1.69817 25.715 2.3135C26.9052 2.96896 27.3955 5.56783 26.6927 8.96187C26.1331 11.664 24.7471 14.9282 22.7904 18.171C20.7348 21.5776 18.4606 24.398 16.2934 26.1798C14.9366 27.2952 13.5731 28.0825 12.3679 28.4731C11.2849 28.824 10.419 28.8255 9.89221 28.5353C8.7712 27.9179 8.28053 25.5739 8.87517 22.4426C9.42259 19.56 10.8506 16.0574 12.8717 12.7081ZM11.5565 11.9837C9.45692 15.4632 7.96907 19.1125 7.38998 22.1619C6.69466 25.8233 7.30578 28.7427 9.15311 29.7602C11.0612 30.811 14.2306 29.784 17.2988 27.2613C19.6052 25.3652 21.975 22.4262 24.1056 18.8953C26.1361 15.5303 27.5804 12.1287 28.1736 9.26426C28.9876 5.33335 28.3876 2.15352 26.4541 1.08865C24.6001 0.0675495 21.5997 1.08118 18.5864 3.54737C16.1292 5.55847 13.6304 8.54682 11.5565 11.9837ZM12.9397 18.0769C10.8593 14.73 9.37689 11.2843 8.74541 8.39752C8.04406 5.19151 8.45637 2.78288 9.55832 2.18875C10.7321 1.55583 13.3553 2.50265 16.1359 4.83714C18.3496 6.69569 20.6828 9.52116 22.7223 12.8022C24.8648 16.2489 26.3638 19.5704 26.9599 22.2658C27.3331 23.9532 27.4015 25.4759 27.1815 26.6636C26.9838 27.7308 26.5692 28.4393 26.0497 28.7195C24.944 29.3156 22.5548 28.5012 19.9637 26.3914C17.5783 24.4492 15.0462 21.4656 12.9397 18.0769ZM11.6425 18.7763C13.8309 22.2967 16.469 25.4052 18.9924 27.4598C22.0223 29.9268 24.998 30.9411 26.82 29.9587C28.7018 28.9441 29.2805 25.8208 28.4365 22.0048C27.8021 19.1363 26.2401 15.6752 24.0195 12.1028C21.9031 8.69806 19.4717 5.75371 17.1249 3.78348C13.9045 1.07972 10.6949 -0.0787494 8.788 0.94948C6.95939 1.9354 6.44959 4.91359 7.26816 8.65544C7.93565 11.7068 9.48102 15.2989 11.6425 18.7763Z" fill="#00D8FF"/>
</svg>
