<svg width="27" height="31" viewBox="0 0 27 31" fill="none" xmlns="http://www.w3.org/2000/svg">
<path d="M23.1055 6.27907C23.0848 6.12821 22.9527 6.04482 22.8435 6.03567C22.7346 6.02651 20.4287 5.85564 20.4287 5.85564C20.4287 5.85564 18.8273 4.26577 18.6516 4.08984C18.4757 3.91391 18.1323 3.96741 17.999 4.0067C17.9792 4.01248 17.6491 4.11442 17.1027 4.28336C16.5677 2.7441 15.6237 1.32944 13.9627 1.32944C13.917 1.32944 13.8697 1.33137 13.8225 1.33402C13.3501 0.709353 12.765 0.437988 12.2596 0.437988C8.39061 0.437988 6.54215 5.27459 5.96255 7.73254C4.4592 8.19839 3.39109 8.52952 3.25469 8.57242C2.41553 8.83559 2.38902 8.8621 2.27888 9.65281C2.19574 10.2515 0 27.2322 0 27.2322L17.1097 30.438L26.3804 28.4324C26.3804 28.4324 23.126 6.42994 23.1055 6.27907ZM16.157 4.57594C15.7273 4.70897 15.2388 4.86007 14.7094 5.02395C14.7098 4.92201 14.7103 4.82151 14.7103 4.71186C14.7103 3.75509 14.5775 2.98486 14.3645 2.37417C15.2203 2.48166 15.7902 3.45529 16.157 4.57594ZM13.3029 2.56384C13.5408 3.16007 13.6955 4.01561 13.6955 5.17024C13.6955 5.22928 13.695 5.28327 13.6945 5.33797C12.7529 5.62958 11.7299 5.94625 10.7044 6.26389C11.2802 4.04188 12.3594 2.96872 13.3029 2.56384ZM12.1533 1.47573C12.3203 1.47573 12.4886 1.53236 12.6495 1.64322C11.4096 2.22668 10.0805 3.69629 9.51921 6.63093C8.69885 6.88494 7.89705 7.13317 7.15573 7.36284C7.81318 5.12445 9.37437 1.47573 12.1533 1.47573Z" fill="#95BF46"/>
<path d="M22.8435 6.03541C22.7345 6.02625 20.4287 5.85538 20.4287 5.85538C20.4287 5.85538 18.8272 4.26551 18.6515 4.08958C18.5857 4.02403 18.4971 3.99053 18.4043 3.97607L17.1106 30.4375L26.3804 28.4321C26.3804 28.4321 23.1259 6.42968 23.1054 6.27882C23.0847 6.12795 22.9526 6.04457 22.8435 6.03541Z" fill="#5E8E3E"/>
<path d="M13.9628 11.158L12.8197 14.5582C12.8197 14.5582 11.8181 14.0237 10.5905 14.0237C8.79069 14.0237 8.70008 15.1533 8.70008 15.4379C8.70008 16.9909 12.7484 17.5859 12.7484 21.2235C12.7484 24.0854 10.9332 25.9283 8.48559 25.9283C5.54853 25.9283 4.04663 24.1003 4.04663 24.1003L4.83301 21.5021C4.83301 21.5021 6.37685 22.8276 7.67969 22.8276C8.53089 22.8276 8.87721 22.1574 8.87721 21.6677C8.87721 19.6419 5.55601 19.5515 5.55601 16.2228C5.55601 13.4212 7.5669 10.71 11.626 10.71C13.1901 10.71 13.9628 11.158 13.9628 11.158Z" fill="white"/>
</svg>
