<svg width="33" height="31" viewBox="0 0 33 31" fill="none" xmlns="http://www.w3.org/2000/svg">
<path d="M32.0453 8.88952L32.0393 7.98815C32.0048 7.3401 31.9701 6.66388 31.8449 6.01527C31.7198 5.36666 31.5042 4.74565 31.168 4.15206C30.8318 3.55848 30.4355 3.02085 29.919 2.56698C29.4022 2.08494 28.8259 1.7152 28.2196 1.4016C27.5832 1.08782 26.9173 0.886532 26.2218 0.769553C25.5262 0.652574 24.8311 0.591929 24.1061 0.587434L7.88432 0.486867C7.70307 0.485744 7.52182 0.484622 7.37097 0.511853C6.85762 0.536838 6.31406 0.561634 5.80108 0.642955C5.28811 0.724275 4.7755 0.861929 4.2933 1.02794C4.14263 1.08334 3.96195 1.16672 3.81128 1.22212C3.32945 1.44447 2.90841 1.72353 2.48755 2.03075C2.36747 2.14267 2.21718 2.2544 2.0971 2.36633C1.58674 2.842 1.19759 3.37476 0.869051 3.93605C0.540694 4.52552 0.333358 5.14391 0.216833 5.79102C0.100308 6.43813 0.0744052 7.08581 0.0486917 7.76165L0.149259 22.8878C0.183774 23.5359 0.218479 24.2121 0.343619 24.8607C0.468759 25.5093 0.684334 26.1303 1.02056 26.7239C1.35678 27.3175 1.75304 27.8551 2.26958 28.309C2.7863 28.791 3.36269 29.1608 3.96891 29.4744C4.60534 29.7882 5.27123 29.9895 5.96677 30.1064C6.6623 30.2234 7.35746 30.284 8.08246 30.2885L24.3042 30.3891C24.9988 30.3652 25.7236 30.3416 26.4177 30.2332C27.1117 30.1249 27.775 29.9318 28.4073 29.6259C29.0396 29.32 29.6111 28.9573 30.0913 28.4815C30.6016 28.0058 30.9908 27.4731 31.3193 26.9118C31.6477 26.3223 31.855 25.7039 31.9715 25.0568C32.088 24.4097 32.1442 23.7622 32.1397 23.0862L32.0453 8.88952Z" fill="#F05138"/>
<path d="M25.4368 19.0169L25.5251 18.6795C26.8215 13.7583 23.5503 7.87933 18.032 4.77494C20.4689 7.83206 21.5507 11.5286 20.6356 14.734C20.5468 15.0151 20.4581 15.2962 20.3391 15.5771C20.2177 15.4919 20.0661 15.4064 19.8541 15.3206C19.8541 15.3206 14.3655 12.1319 8.40779 6.54612C8.25581 6.40434 11.609 10.9881 15.3794 14.7014C13.5909 13.7608 8.64472 10.3783 5.48547 7.71101C5.88211 8.30497 6.33916 8.8993 6.82605 9.43749C9.44455 12.5521 12.8833 16.3759 16.9809 19.3307C14.122 20.9466 10.0751 21.0623 6.04558 19.2629C5.0459 18.8342 4.10589 18.2932 3.22593 17.6962C4.93444 20.2418 7.57715 22.4552 10.7878 23.7708C14.6042 25.3154 18.4098 25.2545 21.2098 23.8636C21.2098 23.8636 21.24 23.8637 21.2398 23.8356C21.3603 23.78 21.4806 23.6962 21.601 23.6406C22.9561 23.0012 25.6101 22.3698 27.0773 24.9703C27.5042 25.5644 28.2369 22.1889 25.4368 19.0169Z" fill="white"/>
</svg>
