<svg width="33" height="31" viewBox="0 0 33 31" fill="none" xmlns="http://www.w3.org/2000/svg">
<path d="M2.38953 15.3318C2.43138 20.3836 5.61377 24.7731 10.1932 26.8774L3.53068 10.1471C2.76209 11.7753 2.37323 13.542 2.38953 15.3318ZM25.2951 14.8649C25.3041 15.9574 24.8647 17.2218 24.2877 18.9824L22.9589 23.2256L17.9025 9.46853C18.7251 9.43458 19.467 9.35896 19.467 9.35896C20.2031 9.28331 20.108 8.27219 19.3705 8.30704C19.3705 8.30704 17.1571 8.45189 15.7267 8.44084C14.3828 8.43045 12.1227 8.25102 12.1227 8.25102C11.3853 8.20477 11.3076 9.25559 12.045 9.3016C12.045 9.3016 12.7434 9.38835 13.4802 9.43435L15.6566 14.8984L12.7325 23.2515L7.63723 9.38943C8.46139 9.3555 9.20193 9.27987 9.20193 9.27987C9.93752 9.20421 9.84222 8.19309 9.10525 8.22794C9.10525 8.22794 6.89207 8.3728 5.46144 8.36175C5.20483 8.35976 4.9021 8.35135 4.58113 8.33989C6.99806 4.89397 11.183 2.63892 15.9613 2.67585C19.5222 2.70337 22.7747 3.99847 25.2256 6.09744C25.1662 6.09382 25.1087 6.08633 25.048 6.08587C23.7048 6.07548 22.7606 7.16016 22.7703 8.33331C22.779 9.38456 23.436 10.2798 24.138 11.3364C24.6658 12.1906 25.282 13.2876 25.2951 14.8649ZM16.3163 16.5557L20.61 27.3355C20.6371 27.3969 20.6702 27.4561 20.7088 27.5121C19.2908 27.9673 17.7655 28.2127 16.1728 28.2004C14.8648 28.1903 13.5622 28.005 12.3047 27.6503L16.3163 16.5557ZM28.0178 9.40732C29.1361 11.2924 29.73 13.4031 29.744 15.5432C29.783 20.2516 27.0821 24.341 23.0341 26.5221L27.1187 15.2835C27.8844 13.4692 28.1315 12.0154 28.1208 10.7203C28.1169 10.2512 28.08 9.81429 28.0178 9.40732ZM15.9438 0.561213C24.7348 0.629155 31.9435 7.35789 32.0117 15.5607C32.0796 23.7648 24.9812 30.3827 16.1903 30.3148C7.39882 30.2468 0.191173 23.5181 0.123221 15.3143C0.0552763 7.11143 7.15263 0.493269 15.9438 0.561213ZM16.1846 29.6326C24.5722 29.6974 31.3439 23.3822 31.279 15.5551C31.2142 7.72863 24.3373 1.30842 15.9495 1.24359C7.56116 1.17876 0.789454 7.49348 0.854281 15.3199C0.919113 23.1471 7.79656 29.5678 16.1846 29.6326Z" fill="#00749A"/>
</svg>
