<svg width="51" height="51" viewBox="0 0 51 51" fill="none" xmlns="http://www.w3.org/2000/svg">
<g clip-path="url(#clip0_1094_1086)">
<path d="M45.378 50.4381C45.0857 50.2755 44.7708 50.0996 44.6713 49.7534C44.5613 49.3706 44.5702 47.4099 44.6246 46.9818C44.6417 46.8474 44.6724 46.7258 44.7392 46.6065C44.7568 46.5757 44.776 46.5458 44.7966 46.5168C44.8173 46.4879 44.8394 46.4601 44.8628 46.4333C44.8863 46.4065 44.911 46.3811 44.9369 46.3568C44.9629 46.3326 44.9901 46.3096 45.0184 46.2881C45.0467 46.2665 45.0759 46.2464 45.1062 46.2278C45.1365 46.2091 45.1676 46.1921 45.1996 46.1766C45.2316 46.1611 45.2643 46.1472 45.2977 46.135C45.3311 46.1227 45.365 46.1122 45.3995 46.1033C45.6936 46.0292 45.9708 46.0838 46.2226 46.2467C46.4682 46.4056 46.6204 46.6331 46.6741 46.9209C46.7331 47.2372 46.7333 49.2313 46.6851 49.5414C46.6584 49.7127 46.5972 49.8744 46.4961 50.0157C46.3282 50.2503 46.1381 50.3007 45.9043 50.4381H45.378Z" fill="#93C704"/>
<path d="M5.82709 50.439C5.50876 50.2671 5.21952 50.0853 5.10446 49.7194C5.0117 49.4243 5.01379 47.4281 5.05714 47.0571C5.07636 46.8925 5.1172 46.7349 5.19981 46.5899C5.21592 46.5613 5.23341 46.5335 5.25226 46.5065C5.27111 46.4795 5.29125 46.4536 5.31267 46.4287C5.33409 46.4037 5.35668 46.3799 5.38045 46.3572C5.40423 46.3345 5.42906 46.3129 5.45496 46.2926C5.48085 46.2724 5.50768 46.2534 5.53544 46.2358C5.56321 46.2182 5.59178 46.202 5.62115 46.1872C5.65051 46.1724 5.68053 46.1591 5.71122 46.1472C5.74189 46.1354 5.77308 46.1251 5.80478 46.1164C6.07348 46.0428 6.39007 46.0697 6.63223 46.2117C6.88283 46.3587 7.04356 46.617 7.10862 46.8958C7.17721 47.1895 7.17532 49.2192 7.13124 49.5417C7.11081 49.6911 7.06583 49.8372 6.98458 49.9651C6.85503 50.1691 6.6264 50.3153 6.40754 50.4083C6.37057 50.424 6.38661 50.4156 6.35208 50.439H5.82709Z" fill="#93C704"/>
<path d="M31.3621 50.4376C31.0343 50.2565 30.746 50.0744 30.637 49.6905C30.5156 49.2622 30.581 47.8705 30.5802 47.3456C30.579 46.6468 30.5345 45.9158 30.5926 45.2202C30.6074 45.0431 30.6368 44.8661 30.7262 44.7099C30.8633 44.4708 31.1096 44.2802 31.3783 44.2164C31.4129 44.2083 31.4478 44.2019 31.483 44.1972C31.5182 44.1926 31.5536 44.1897 31.589 44.1885C31.6246 44.1874 31.6601 44.188 31.6955 44.1904C31.7309 44.1927 31.7662 44.1968 31.8012 44.2027C31.8363 44.2085 31.8709 44.2161 31.9052 44.2253C31.9395 44.2346 31.9732 44.2455 32.0064 44.2581C32.0396 44.2708 32.0721 44.285 32.104 44.3008C32.1358 44.3166 32.1667 44.334 32.1968 44.3529C32.2248 44.3703 32.2519 44.3891 32.2781 44.4092C32.3043 44.4293 32.3294 44.4507 32.3536 44.4733C32.3777 44.4959 32.4006 44.5196 32.4223 44.5444C32.4442 44.5692 32.4647 44.595 32.484 44.6219C32.5032 44.6487 32.5211 44.6764 32.5377 44.705C32.5542 44.7336 32.5693 44.7629 32.5829 44.793C32.5966 44.8231 32.6087 44.8538 32.6194 44.885C32.6301 44.9163 32.6392 44.948 32.6468 44.9801C32.7293 45.3414 32.6852 45.7767 32.6844 46.1487L32.6818 47.9688C32.6813 48.4361 32.7291 49.0454 32.6764 49.4915C32.6571 49.6557 32.6124 49.8074 32.5218 49.9471C32.3438 50.2214 32.1404 50.279 31.8844 50.4376H31.3621Z" fill="#93C704"/>
<path d="M19.7069 50.4377C19.3878 50.2693 19.0997 50.0829 18.9833 49.7191C18.9516 49.62 18.9352 49.5163 18.9288 49.4127C18.8863 48.7172 18.9262 47.9942 18.9253 47.2962C18.9244 46.6207 18.8804 45.8852 18.9331 45.2159C18.9467 45.0434 18.9765 44.8771 19.0613 44.7239C19.1969 44.4794 19.4301 44.2912 19.7019 44.2215C19.9767 44.151 20.2922 44.2008 20.5343 44.3486C20.7549 44.4833 20.918 44.697 20.9783 44.9486C21.0736 45.3461 21.0294 45.8179 21.0289 46.2257L21.0261 48.039C21.0253 48.5052 21.0679 49.0118 21.025 49.4735C21.0103 49.6331 20.9714 49.7784 20.8859 49.9154C20.7255 50.1728 20.5116 50.2945 20.2499 50.4212C20.2409 50.4256 20.2332 50.4322 20.2249 50.4377H19.7069Z" fill="#93C704"/>
<path d="M49.526 50.4385C49.2174 50.2652 48.9278 50.107 48.8193 49.7436C48.6875 49.3016 48.7421 48.7641 48.7429 48.3058L48.7457 46.6888C48.748 45.013 48.6598 42.9657 46.9984 42.0443C46.4587 41.7449 45.8075 41.5818 45.2204 41.3956C44.9145 41.2987 44.5746 41.2166 44.3075 41.0312C44.2852 41.0156 44.2637 40.9991 44.2428 40.9818C44.2219 40.9644 44.2017 40.9462 44.1823 40.9272C44.163 40.9081 44.1445 40.8883 44.1267 40.8677C44.109 40.8471 44.0922 40.8257 44.0763 40.8037C44.0603 40.7817 44.0453 40.7591 44.0313 40.7359C44.0173 40.7126 44.0042 40.6888 43.9922 40.6644C43.9801 40.64 43.9691 40.6152 43.9592 40.59C43.9492 40.5647 43.9403 40.5391 43.9325 40.513C43.9225 40.4789 43.9142 40.4444 43.9076 40.4094C43.901 40.3744 43.8962 40.3392 43.8932 40.3037C43.8901 40.2683 43.8888 40.2328 43.8892 40.1973C43.8897 40.1617 43.8919 40.1263 43.8959 40.0909C43.8999 40.0556 43.9056 40.0205 43.9131 39.9858C43.9205 39.9509 43.9297 39.9166 43.9406 39.8827C43.9515 39.8489 43.964 39.8156 43.9782 39.783C43.9923 39.7504 44.0081 39.7186 44.0255 39.6875C44.157 39.4563 44.368 39.2677 44.6271 39.1966C44.781 39.1544 44.9407 39.1517 45.0977 39.1763C45.4017 39.224 45.704 39.348 45.9961 39.4442C46.7299 39.6859 47.4907 39.9002 48.1576 40.2995C49.4513 41.0741 50.2445 42.3685 50.6006 43.8098C50.7083 44.2601 50.7796 44.7162 50.8144 45.178C50.882 46.0341 50.8456 46.9116 50.8466 47.7707C50.8472 48.3174 50.8913 48.9049 50.8387 49.4468C50.8215 49.6242 50.7867 49.7928 50.6932 49.9473C50.5273 50.2215 50.2989 50.2838 50.0492 50.4385H49.526Z" fill="#93C704"/>
<path d="M0.910645 45.1031C0.913 45.0966 0.915482 45.0901 0.917712 45.0835C1.02081 44.7794 1.05317 44.2086 1.14268 43.8414C1.52797 42.2611 2.42354 40.8734 3.90155 40.1241C4.27384 39.9353 6.31047 39.2007 6.68504 39.1599C6.84054 39.143 7.01821 39.1689 7.16558 39.2192C7.42881 39.3092 7.65395 39.5046 7.76967 39.7588C7.78435 39.7902 7.79741 39.8223 7.80885 39.8551C7.82029 39.8878 7.83005 39.9211 7.83813 39.9549C7.84622 39.9886 7.85259 40.0226 7.85724 40.057C7.86189 40.0914 7.8648 40.1259 7.86597 40.1606C7.86713 40.1953 7.86655 40.23 7.86422 40.2645C7.86189 40.2992 7.85782 40.3336 7.85202 40.3679C7.84621 40.402 7.8387 40.4359 7.82949 40.4693C7.82027 40.5028 7.8094 40.5357 7.79687 40.568C7.676 40.8739 7.43229 41.0782 7.1341 41.2006C6.89934 41.297 6.64926 41.3598 6.40719 41.4359C5.05039 41.8618 4.03527 42.1524 3.43117 43.5762C2.98962 44.6169 3.00311 45.7207 3.00231 46.8275L3.00395 48.5043C3.00602 48.895 3.06946 49.4073 2.92764 49.7745C2.79748 50.1114 2.53026 50.2821 2.2199 50.4273C2.21347 50.4304 2.20771 50.4346 2.20161 50.4383H1.68918H0.910645V49.6527V45.1031ZM0.910645 49.6527V50.4383H1.68918C1.3762 50.2642 1.1542 50.1268 0.982691 49.7929L0.910645 49.6527Z" fill="#93C704"/>
<path d="M36.0645 50.4383C35.7446 50.2685 35.447 50.0974 35.3396 49.7239C35.208 49.2667 35.2804 48.68 35.2819 48.2041L35.2812 45.7508C35.2809 44.037 35.3592 41.8439 33.6589 40.8501C33.1316 40.5419 32.4708 40.375 31.8914 40.191C31.6023 40.0992 31.291 40.0257 31.0379 39.8522C30.846 39.7206 30.7 39.534 30.6395 39.3075C30.5679 39.0399 30.6018 38.7283 30.7414 38.4878C30.8806 38.2484 31.1194 38.0651 31.39 38.0026C31.5522 37.9652 31.7154 37.9723 31.878 38.0016C32.2065 38.0609 32.5419 38.1985 32.8583 38.3048C33.3138 38.4578 33.7818 38.597 34.2217 38.7911C34.4654 38.8989 34.6988 39.0256 34.9219 39.1713C36.1347 39.9655 36.8953 41.2587 37.1813 42.6652C37.2595 43.0491 37.3234 43.4423 37.3494 43.8336C37.4278 45.019 37.3794 46.231 37.3798 47.4199L37.3797 48.7329C37.3795 49.0101 37.3938 49.3004 37.3561 49.5754C37.3357 49.7231 37.2785 49.861 37.1961 49.985C37.0309 50.2338 36.8129 50.2961 36.5764 50.4383H36.0645Z" fill="#93C704"/>
<path d="M15.2263 50.4385C14.9074 50.2623 14.5918 50.0785 14.4929 49.698C14.3801 49.2646 14.4394 48.02 14.4395 47.5114L14.4408 45.4358C14.4426 43.7466 14.5127 42.1527 15.4337 40.6653C16.2676 39.3187 17.3158 38.8504 18.7519 38.3739C19.1233 38.2507 19.5021 38.1036 19.8819 38.0127C20.1734 37.9429 20.4612 37.9572 20.7186 38.1229C20.9604 38.2786 21.1343 38.5085 21.1956 38.7917C21.2556 39.0688 21.2068 39.3685 21.0451 39.6034C20.8304 39.9156 20.4729 40.0242 20.1303 40.1337C18.4438 40.6726 17.2859 40.9198 16.7637 42.8274C16.4952 43.808 16.5427 44.8459 16.5429 45.8535L16.5445 48.1879C16.5449 48.6425 16.6158 49.4029 16.4545 49.8185C16.3289 50.1422 16.0536 50.2793 15.7658 50.4255C15.7586 50.4291 15.7525 50.4342 15.7458 50.4385H15.2263Z" fill="#93C704"/>
<path d="M25.5334 16.074C25.8232 16.0549 26.1199 16.0628 26.4098 16.0809C26.5371 16.0889 26.664 16.0999 26.7906 16.1141C26.9173 16.1282 27.0435 16.1455 27.1693 16.1659C27.2951 16.1863 27.4203 16.2097 27.545 16.2362C27.6697 16.2627 27.7936 16.2922 27.9168 16.3248C28.04 16.3574 28.1624 16.393 28.2839 16.4315C28.4053 16.4701 28.5257 16.5116 28.6452 16.5561C28.7646 16.6006 28.8829 16.6479 29 16.6982C29.1171 16.7485 29.2329 16.8016 29.3474 16.8576C29.4619 16.9136 29.575 16.9723 29.6866 17.0337C29.7982 17.0953 29.9083 17.1595 30.0168 17.2263C30.1252 17.2932 30.232 17.3628 30.3371 17.4349C30.4421 17.5071 30.5453 17.5817 30.6468 17.6589C30.7482 17.7361 30.8476 17.8157 30.9451 17.8978C31.0426 17.9798 31.1381 18.0642 31.2314 18.151C31.3248 18.2377 31.416 18.3267 31.505 18.4179C31.594 18.5092 31.6807 18.6026 31.7651 18.698C31.8077 18.746 31.8497 18.7946 31.8911 18.8438C31.9325 18.8929 31.9733 18.9425 32.0134 18.9926C32.0535 19.0428 32.0931 19.0933 32.132 19.1444C32.1709 19.1955 32.2092 19.2471 32.2469 19.2992C32.2845 19.3512 32.3215 19.4037 32.3578 19.4566C32.3941 19.5096 32.4298 19.563 32.4648 19.6168C32.4999 19.6706 32.5342 19.7249 32.568 19.7795C32.6016 19.8342 32.6346 19.8893 32.667 19.9448C32.6993 20.0003 32.7309 20.0562 32.7618 20.1125C32.7928 20.1688 32.8231 20.2254 32.8526 20.2825C32.8821 20.3394 32.9109 20.3968 32.939 20.4545C32.9672 20.5123 32.9947 20.5704 33.0214 20.6288C33.0481 20.6872 33.074 20.7459 33.0992 20.805C33.1245 20.8641 33.149 20.9234 33.1727 20.9831C33.1966 21.0427 33.2196 21.1026 33.2419 21.1628C33.2642 21.2231 33.2858 21.2836 33.3065 21.3444C33.3274 21.4051 33.3474 21.4661 33.3667 21.5274C33.386 21.5887 33.4046 21.6501 33.4223 21.7119C33.4401 21.7736 33.4571 21.8355 33.4734 21.8976C33.4896 21.9597 33.5051 22.0221 33.5198 22.0846C33.5345 22.1471 33.5485 22.2098 33.5616 22.2726C33.5748 22.3355 33.5872 22.3985 33.5988 22.4617C33.6104 22.5248 33.6212 22.5881 33.6313 22.6516C33.6414 22.715 33.6506 22.7786 33.6591 22.8422C33.6675 22.9059 33.6752 22.9696 33.6821 23.0335C33.689 23.0973 33.6951 23.1612 33.7005 23.2252C33.7058 23.2892 33.7104 23.3533 33.7141 23.4174C33.7179 23.4816 33.7208 23.5457 33.7229 23.6099C33.7251 23.6741 33.7264 23.7383 33.727 23.8025C33.7276 23.8668 33.7274 23.931 33.7264 23.9952C33.7254 24.0594 33.7236 24.1236 33.721 24.1877C33.7184 24.2519 33.715 24.3161 33.7108 24.3801C33.664 25.1135 33.3973 26.803 32.8231 27.2854C32.796 27.3078 32.7679 27.3288 32.7388 27.3484C32.7096 27.368 32.6795 27.3861 32.6485 27.4026C32.6175 27.4191 32.5857 27.4341 32.5532 27.4474C32.5207 27.4608 32.4875 27.4724 32.4539 27.4825C32.4202 27.4925 32.3861 27.5008 32.3515 27.5073C32.317 27.5139 32.2822 27.5187 32.2472 27.5217C32.2122 27.5247 32.1771 27.526 32.142 27.5255C32.1068 27.525 32.0718 27.5227 32.0369 27.5187C31.7586 27.4879 31.4843 27.321 31.3144 27.0998C30.902 26.5625 31.2644 25.942 31.4235 25.3871C31.5098 25.0861 31.564 24.7839 31.5972 24.4728C31.6071 24.3786 31.6147 24.2842 31.6199 24.1895C31.6251 24.0949 31.628 24.0002 31.6285 23.9055C31.629 23.8108 31.6272 23.7161 31.623 23.6214C31.6188 23.5268 31.6123 23.4323 31.6034 23.3379C31.5945 23.2436 31.5833 23.1495 31.5698 23.0557C31.5563 22.962 31.5405 22.8686 31.5223 22.7755C31.5042 22.6826 31.4837 22.5901 31.4609 22.4981C31.4382 22.4061 31.4132 22.3148 31.3859 22.2241C31.3586 22.1333 31.3292 22.0433 31.2974 21.9541C31.2657 21.8647 31.2318 21.7763 31.1957 21.6887C31.1596 21.6011 31.1213 21.5144 31.0808 21.4288C31.0404 21.3431 30.9979 21.2585 30.9533 21.1749C30.9087 21.0913 30.8621 21.0088 30.8134 20.9275C30.7647 20.8462 30.714 20.7662 30.6613 20.6875C30.6086 20.6087 30.5541 20.5313 30.4975 20.4552C30.441 20.3792 30.3827 20.3046 30.3224 20.2314C29.3104 18.998 27.8945 18.3221 26.3229 18.1682C25.9562 18.1518 25.5963 18.1539 25.2314 18.1978C25.1382 18.2089 25.0453 18.2223 24.9528 18.2379C24.8602 18.2536 24.7681 18.2716 24.6764 18.2918C24.5848 18.3121 24.4937 18.3346 24.4032 18.3592C24.3126 18.384 24.2227 18.4109 24.1335 18.4401C24.0443 18.4693 23.9558 18.5006 23.8681 18.5341C23.7805 18.5677 23.6937 18.6033 23.6078 18.6412C23.5219 18.6789 23.4369 18.7188 23.353 18.7608C23.269 18.8029 23.1861 18.8469 23.1044 18.8929C23.0226 18.939 22.942 18.9871 22.8626 19.0372C22.7832 19.0872 22.7051 19.1392 22.6283 19.1932C22.5514 19.2471 22.4759 19.3029 22.4018 19.3605C22.3278 19.4182 22.2552 19.4776 22.1841 19.5388C22.1129 19.6 22.0433 19.663 21.9753 19.7277C21.9072 19.7923 21.8408 19.8586 21.7761 19.9265C21.7113 19.9945 21.6482 20.064 21.5868 20.135C21.5255 20.2061 21.4659 20.2786 21.4082 20.3526C21.3764 20.3933 21.3451 20.4344 21.3143 20.4759C21.2836 20.5175 21.2534 20.5594 21.2238 20.6018C21.1943 20.6441 21.1653 20.6869 21.1368 20.73C21.1084 20.7732 21.0805 20.8167 21.0532 20.8606C21.026 20.9045 20.9994 20.9488 20.9733 20.9934C20.9472 21.038 20.9218 21.083 20.897 21.1283C20.8721 21.1736 20.8479 21.2192 20.8243 21.2652C20.8007 21.3112 20.7777 21.3574 20.7554 21.4041C20.733 21.4506 20.7113 21.4975 20.6902 21.5447C20.6692 21.5919 20.6488 21.6393 20.629 21.6871C20.6092 21.7348 20.5901 21.7828 20.5716 21.831C20.5531 21.8793 20.5352 21.9278 20.5181 21.9765C20.5009 22.0253 20.4844 22.0742 20.4685 22.1234C20.4527 22.1726 20.4375 22.222 20.423 22.2715C20.4085 22.3211 20.3947 22.371 20.3815 22.421C20.3684 22.4709 20.3559 22.521 20.3441 22.5713C20.3323 22.6217 20.3212 22.6721 20.3108 22.7227C20.3004 22.7733 20.2907 22.824 20.2816 22.875C20.2726 22.9258 20.2642 22.9768 20.2565 23.0279C20.2488 23.079 20.2419 23.1302 20.2356 23.1815C20.2293 23.2327 20.2237 23.2841 20.2188 23.3356C20.2139 23.387 20.2098 23.4385 20.2063 23.4901C20.2028 23.5416 20.2 23.5932 20.1979 23.6448C20.1959 23.6964 20.1945 23.7481 20.1937 23.7998C20.193 23.8515 20.193 23.9031 20.1937 23.9547C20.1945 24.0064 20.1959 24.0581 20.198 24.1097C20.2001 24.1613 20.2029 24.2129 20.2064 24.2645C20.2099 24.3161 20.2141 24.3676 20.219 24.419C20.2239 24.4704 20.2295 24.5218 20.2358 24.5731C20.2421 24.6243 20.2491 24.6755 20.2568 24.7266C20.2645 24.7777 20.2729 24.8287 20.2819 24.8795C20.291 24.9305 20.3008 24.9812 20.3112 25.0318C20.4117 25.5073 20.6577 25.9832 20.7059 26.4614C20.7303 26.7017 20.6273 26.9565 20.475 27.1392C20.4523 27.1665 20.4284 27.1926 20.4031 27.2174C20.3779 27.2423 20.3515 27.2659 20.3239 27.2881C20.2963 27.3104 20.2677 27.3312 20.2381 27.3506C20.2084 27.3701 20.1779 27.388 20.1465 27.4044C20.1151 27.4209 20.083 27.4357 20.0501 27.4489C20.0172 27.4621 19.9837 27.4737 19.9497 27.4835C19.9157 27.4935 19.8813 27.5017 19.8465 27.5082C19.8116 27.5147 19.7765 27.5195 19.7412 27.5225C19.7063 27.5252 19.6714 27.5263 19.6364 27.5255C19.6014 27.5248 19.5666 27.5222 19.5319 27.5178C19.4972 27.5135 19.4628 27.5075 19.4287 27.4998C19.3946 27.4919 19.361 27.4824 19.3278 27.4712C19.2947 27.46 19.2623 27.4472 19.2305 27.4327C19.1986 27.4182 19.1676 27.4022 19.1374 27.3845C19.1072 27.3669 19.0779 27.3478 19.0496 27.3272C19.0213 27.3066 18.9942 27.2847 18.9681 27.2613C18.437 26.7871 18.154 25.0787 18.1124 24.3643C18.1083 24.3001 18.105 24.2357 18.1025 24.1713C18.1001 24.107 18.0984 24.0426 18.0974 23.9782C18.0965 23.9138 18.0964 23.8494 18.0972 23.7849C18.0979 23.7205 18.0994 23.6561 18.1016 23.5918C18.1039 23.5274 18.107 23.463 18.1109 23.3988C18.1148 23.3345 18.1194 23.2702 18.1249 23.206C18.1304 23.1418 18.1366 23.0777 18.1437 23.0137C18.1508 22.9497 18.1586 22.8857 18.1673 22.8219C18.1759 22.7581 18.1853 22.6943 18.1955 22.6307C18.2057 22.5672 18.2167 22.5037 18.2285 22.4404C18.2403 22.377 18.2528 22.3139 18.2662 22.2508C18.2795 22.1878 18.2937 22.125 18.3086 22.0624C18.3235 21.9997 18.3391 21.9372 18.3556 21.8749C18.372 21.8126 18.3892 21.7506 18.4072 21.6887C18.4252 21.6269 18.4439 21.5653 18.4635 21.5039C18.4829 21.4425 18.5032 21.3813 18.5242 21.3204C18.5452 21.2595 18.567 21.1989 18.5895 21.1385C18.6121 21.0782 18.6353 21.0181 18.6594 20.9584C18.6833 20.8986 18.7081 20.8391 18.7336 20.7799C18.759 20.7208 18.7852 20.6619 18.8121 20.6034C18.839 20.5449 18.8667 20.4867 18.8951 20.4289C18.9235 20.371 18.9526 20.3136 18.9823 20.2565C19.0121 20.1994 19.0426 20.1427 19.0738 20.0863C19.105 20.0299 19.1369 19.9739 19.1694 19.9184C19.202 19.8628 19.2353 19.8076 19.2692 19.7529C19.3032 19.6981 19.3378 19.6438 19.3731 19.59C19.4084 19.5361 19.4444 19.4826 19.4809 19.4296C19.5175 19.3766 19.5548 19.3241 19.5927 19.272C19.6306 19.2199 19.6692 19.1683 19.7084 19.1171C19.7475 19.066 19.7873 19.0154 19.8278 18.9653C19.8682 18.9152 19.9093 18.8655 19.951 18.8164C19.9926 18.7673 20.0349 18.7187 20.0777 18.6706C20.1208 18.6223 20.1644 18.5746 20.2086 18.5274C20.2527 18.4803 20.2975 18.4336 20.3429 18.3876C20.3882 18.3415 20.4342 18.296 20.4806 18.2511C20.5271 18.2063 20.5742 18.162 20.6218 18.1182C20.6694 18.0745 20.7175 18.0313 20.7662 17.9888C20.8148 17.9462 20.864 17.9043 20.9138 17.863C20.9635 17.8217 21.0137 17.781 21.0644 17.741C21.1152 17.7009 21.1664 17.6614 21.2181 17.6227C21.2698 17.5839 21.322 17.5458 21.3746 17.5083C21.4273 17.4708 21.4804 17.4339 21.534 17.3978C21.5875 17.3617 21.6416 17.3262 21.6961 17.2914C21.7505 17.2565 21.8054 17.2224 21.8607 17.1889C21.9161 17.1555 21.9718 17.1228 22.0279 17.0907C22.084 17.0586 22.1405 17.0273 22.1974 16.9966C22.2543 16.966 22.3116 16.936 22.3693 16.9068C22.4269 16.8776 22.4849 16.8491 22.5433 16.8213C22.6017 16.7935 22.6604 16.7665 22.7194 16.7402C22.7785 16.7139 22.8378 16.6883 22.8975 16.6634C22.9572 16.6386 23.0171 16.6145 23.0774 16.5912C23.1377 16.5678 23.1983 16.5452 23.2592 16.5234C23.32 16.5016 23.3811 16.4805 23.4425 16.4602C23.5038 16.4399 23.5654 16.4203 23.6272 16.4015C23.6891 16.3828 23.7512 16.3648 23.8135 16.3475C23.8758 16.3303 23.9383 16.3139 24.001 16.2982C24.0637 16.2825 24.1266 16.2676 24.1897 16.2535C24.2528 16.2394 24.316 16.2261 24.3794 16.2135C24.4429 16.201 24.5064 16.1893 24.5701 16.1784C24.6338 16.1674 24.6977 16.1572 24.7616 16.1479C24.8255 16.1385 24.8896 16.13 24.9538 16.1222C25.018 16.1145 25.0822 16.1075 25.1466 16.1013C25.2109 16.0951 25.2753 16.0898 25.3398 16.0852C25.4043 16.0807 25.4688 16.0769 25.5334 16.074Z" fill="#93C704"/>
<path d="M39.4159 27.8153C40.581 27.6948 41.8046 27.9371 42.7628 28.6282C42.8234 28.6711 42.8829 28.7156 42.9413 28.7615C42.9996 28.8074 43.0568 28.8547 43.1127 28.9035C43.1687 28.9522 43.2235 29.0024 43.2769 29.0539C43.3304 29.1054 43.3825 29.1582 43.4334 29.2123C43.4842 29.2664 43.5336 29.3218 43.5817 29.3784C43.6298 29.4349 43.6765 29.4927 43.7216 29.5516C43.7668 29.6105 43.8105 29.6705 43.8527 29.7317C43.8949 29.7928 43.9355 29.8549 43.9746 29.918C44.0136 29.9812 44.0511 30.0452 44.087 30.1102C44.1228 30.1752 44.1571 30.2411 44.1897 30.3078C44.2223 30.3745 44.2531 30.442 44.2824 30.5103C44.3116 30.5785 44.3391 30.6475 44.3649 30.7171C44.3906 30.7867 44.4146 30.8569 44.4369 30.9278C44.4591 30.9986 44.4796 31.07 44.4983 31.1418C44.517 31.2137 44.5339 31.286 44.549 31.3586C44.564 31.4314 44.5773 31.5044 44.5887 31.5778C44.8032 32.9859 44.6735 35.1554 44.2386 36.5086C44.1891 36.6614 44.1336 36.812 44.072 36.9604C44.0104 37.1088 43.943 37.2544 43.8697 37.3973C43.7964 37.5403 43.7176 37.6801 43.6331 37.8166C43.5486 37.9533 43.4587 38.0863 43.3635 38.2157C42.6465 39.1799 41.6786 39.7556 40.4945 39.9315C39.3336 40.0329 38.2645 39.7769 37.3553 39.0223C35.9953 37.8934 35.5067 36.2383 35.3458 34.5438C35.2829 33.9063 35.2626 33.2674 35.2848 32.6272C35.3269 31.3716 35.5177 30.3937 36.3465 29.3982C37.117 28.4729 38.2221 27.9215 39.4159 27.8153ZM40.1268 29.8926C39.3439 29.8947 38.6815 30.0064 38.1027 30.5834C37.3815 31.3026 37.3686 32.2327 37.3732 33.1879C37.3798 34.5631 37.5124 36.2727 38.5498 37.2861C38.9112 37.6392 39.3563 37.8371 39.8608 37.8671C40.4665 37.8694 40.9681 37.7068 41.4063 37.2755C42.4713 36.2274 42.5675 34.4631 42.5711 33.0536C42.5735 32.138 42.5417 31.2892 41.8593 30.5983C41.8319 30.5704 41.8037 30.5431 41.775 30.5165C41.7461 30.49 41.7167 30.4642 41.6866 30.4391C41.6564 30.414 41.6257 30.3897 41.5944 30.3662C41.5631 30.3426 41.5312 30.3198 41.4988 30.2979C41.4663 30.276 41.4333 30.2548 41.3999 30.2345C41.3663 30.2142 41.3323 30.1947 41.2979 30.1761C41.2634 30.1574 41.2285 30.1397 41.1931 30.1228C41.1578 30.1059 41.122 30.09 41.0859 30.0748C41.0498 30.0597 41.0133 30.0455 40.9764 30.0322C40.9396 30.0189 40.9024 30.0066 40.8649 29.9952C40.8274 29.9837 40.7897 29.9732 40.7517 29.9636C40.7137 29.954 40.6755 29.9455 40.6371 29.9378C40.5987 29.9302 40.56 29.9234 40.5212 29.9177C40.4825 29.912 40.4436 29.9072 40.4046 29.9035C40.3656 29.8996 40.3266 29.8968 40.2875 29.895C40.2483 29.8931 40.2092 29.8922 40.17 29.8923C40.1556 29.8923 40.1412 29.8925 40.1268 29.8926Z" fill="#93C704"/>
<path d="M11.2223 27.8156C12.3769 27.7375 13.4889 27.8966 14.4655 28.5588C14.5271 28.6 14.5876 28.6428 14.647 28.687C14.7065 28.7312 14.7648 28.7769 14.8219 28.8241C14.8791 28.8711 14.9351 28.9196 14.9899 28.9696C15.0447 29.0195 15.0981 29.0708 15.1503 29.1234C15.2025 29.1759 15.2533 29.2298 15.3029 29.2849C15.3524 29.3401 15.4005 29.3964 15.4472 29.4539C15.494 29.5113 15.5392 29.57 15.583 29.6297C15.6268 29.6895 15.6691 29.7503 15.7098 29.8123C15.7506 29.8741 15.7898 29.937 15.8274 30.0008C15.865 30.0646 15.9011 30.1293 15.9355 30.195C15.9699 30.2606 16.0026 30.327 16.0337 30.3943C16.0649 30.4615 16.0943 30.5295 16.1219 30.5982C16.1497 30.6669 16.1756 30.7363 16.1999 30.8063C16.2241 30.8763 16.2467 30.9469 16.2674 31.018C16.2881 31.0892 16.3071 31.1608 16.3243 31.2329C16.3415 31.3049 16.3568 31.3774 16.3704 31.4502C16.6177 32.797 16.4636 35.1697 16.05 36.485C16.005 36.6273 15.9546 36.7676 15.899 36.9061C15.8434 37.0446 15.7826 37.1807 15.7168 37.3146C15.6508 37.4485 15.5799 37.5796 15.5042 37.7082C15.4283 37.8367 15.3477 37.9622 15.2625 38.0846C14.5423 39.1116 13.5819 39.715 12.3519 39.9267C11.165 40.0358 10.0844 39.7903 9.15148 39.0186C7.74477 37.8549 7.30339 36.1706 7.13667 34.4336C7.08867 33.9082 7.07081 33.3817 7.0831 32.8542C7.10086 31.5387 7.27791 30.446 8.14896 29.4002C8.92268 28.4712 10.0248 27.9246 11.2223 27.8156ZM11.2886 29.9137C10.6245 30.0136 10.0627 30.3261 9.66201 30.8725C9.57747 30.9863 9.50446 31.107 9.44298 31.2347C9.38149 31.3624 9.33265 31.4948 9.29645 31.6319C9.06132 32.5222 9.18015 34.1366 9.32829 35.0609C9.47285 35.9628 9.83026 36.9376 10.5971 37.4956C11.0603 37.8326 11.6085 37.926 12.168 37.8342C12.2046 37.8283 12.2408 37.8219 12.2769 37.8138C12.9739 37.5954 13.4366 37.1411 13.7749 36.4995C13.8517 36.3538 13.9192 36.204 13.9774 36.05C14.0355 35.8958 14.084 35.7388 14.1227 35.5788C14.3588 34.6126 14.5234 32.459 14.235 31.5415C14.2233 31.5047 14.2107 31.4683 14.1971 31.4321C14.1836 31.3959 14.1692 31.3602 14.154 31.3248C14.1387 31.2893 14.1225 31.2543 14.1055 31.2197C14.0885 31.185 14.0707 31.1508 14.0521 31.117C14.0334 31.0833 14.014 31.0499 13.9937 31.0171C13.9735 30.9843 13.9524 30.952 13.9305 30.9202C13.9087 30.8884 13.886 30.8571 13.8627 30.8264C13.8393 30.7958 13.8152 30.7657 13.7903 30.7362C13.7655 30.7066 13.7399 30.6777 13.7136 30.6495C13.6874 30.6212 13.6605 30.5936 13.6329 30.5666C13.6053 30.5397 13.577 30.5134 13.5481 30.4878C13.5193 30.4623 13.4898 30.4374 13.4596 30.4132C13.4296 30.3891 13.3989 30.3658 13.3676 30.3431C13.3364 30.3205 13.3046 30.2986 13.2723 30.2775C13.24 30.2565 13.2072 30.2362 13.1739 30.2166C13.1406 30.1972 13.1068 30.1785 13.0726 30.1607C12.515 29.87 11.902 29.8624 11.2886 29.9137Z" fill="#93C704"/>
<path d="M25.2935 24.8874C26.6298 24.7588 27.9905 25.0786 29.0618 25.9008C29.1265 25.9502 29.19 26.0011 29.2522 26.0536C29.3144 26.1061 29.3753 26.1601 29.4348 26.2156C29.4943 26.2711 29.5524 26.3281 29.6091 26.3865C29.6657 26.4449 29.7209 26.5047 29.7746 26.5659C29.8283 26.627 29.8805 26.6895 29.9311 26.7532C29.9816 26.8169 30.0306 26.8819 30.078 26.9481C30.1254 27.0143 30.171 27.0816 30.215 27.1501C30.259 27.2186 30.3013 27.2881 30.3419 27.3587C30.3825 27.4292 30.4213 27.5007 30.4583 27.5732C30.4953 27.6457 30.5304 27.719 30.5638 27.7933C30.5971 27.8675 30.6286 27.9425 30.6582 28.0183C30.6878 28.0942 30.7156 28.1707 30.7414 28.2478C30.7672 28.325 30.791 28.4028 30.813 28.4812C30.8349 28.5596 30.8549 28.6385 30.8729 28.7178C30.891 28.7972 30.907 28.877 30.9211 28.9571C30.9352 29.0372 30.9472 29.1177 30.9572 29.1985C31.158 30.7412 31.0379 33.0395 30.5691 34.5251C30.5118 34.7084 30.4466 34.8889 30.3737 35.0667C30.3008 35.2444 30.2204 35.4187 30.1325 35.5895C30.0446 35.7603 29.9494 35.927 29.8471 36.0895C29.7447 36.2521 29.6356 36.41 29.5196 36.5632C28.7203 37.5993 27.6524 38.228 26.356 38.3946C25.0706 38.5066 23.8808 38.185 22.8874 37.3434C21.3687 36.0566 20.8491 34.1407 20.6884 32.2345C20.6284 31.567 20.6103 30.8984 20.6343 30.2286C20.6827 28.8242 20.9089 27.7077 21.8499 26.6046C22.7247 25.5792 23.956 24.9887 25.2935 24.8874ZM25.3417 26.9855C24.5488 27.0834 23.8559 27.4316 23.3617 28.0707C23.304 28.1452 23.2502 28.2223 23.2002 28.3021C23.1502 28.382 23.1043 28.4642 23.0625 28.5486C23.0208 28.633 22.9833 28.7193 22.9501 28.8075C22.917 28.8956 22.8883 28.9853 22.8642 29.0763C22.6163 30.0097 22.715 31.6697 22.8454 32.6469C23.0038 33.8339 23.3704 35.0988 24.3713 35.8555C24.9561 36.2975 25.6193 36.3881 26.3306 36.2868C27.1303 36.0859 27.687 35.6131 28.1098 34.9099C28.2215 34.7231 28.3199 34.5295 28.4048 34.3291C28.4897 34.1286 28.5603 33.9232 28.6166 33.713C28.9124 32.6105 29.0887 30.1914 28.8049 29.0964C28.7932 29.0508 28.7803 29.0055 28.7663 28.9605C28.7523 28.9155 28.7372 28.8709 28.7209 28.8267C28.7047 28.7825 28.6874 28.7388 28.6689 28.6955C28.6506 28.6521 28.6311 28.6092 28.6105 28.5669C28.59 28.5245 28.5685 28.4827 28.5458 28.4414C28.5231 28.4001 28.4995 28.3594 28.4748 28.3193C28.4502 28.2792 28.4245 28.2397 28.3979 28.2008C28.3712 28.162 28.3436 28.1239 28.3151 28.0864C28.2866 28.049 28.2572 28.0122 28.2268 27.9762C28.1964 27.9403 28.1652 27.9051 28.133 27.8707C28.1009 27.8362 28.068 27.8026 28.0342 27.7698C28.0004 27.737 27.9658 27.7051 27.9304 27.6741C27.895 27.643 27.8588 27.6129 27.8219 27.5836C27.785 27.5543 27.7474 27.526 27.7091 27.4987C27.6708 27.4713 27.6318 27.4449 27.5922 27.4194C27.5525 27.394 27.5123 27.3696 27.4715 27.3462C26.8156 26.9706 26.0796 26.9286 25.3417 26.9855Z" fill="#93C704"/>
<path d="M16.4915 0.437988H17.3824H34.6548H35.549H50.9106V20.4811V26.6812C50.5025 27.5183 50.2064 28.0423 49.3521 28.4974C48.9945 28.6878 47.4641 29.3911 47.1142 29.4602C47.0719 29.4687 47.0293 29.4744 46.9862 29.4774C46.9433 29.4804 46.9003 29.4806 46.8572 29.478C46.8142 29.4754 46.7715 29.4701 46.7292 29.4619C46.6869 29.4538 46.6452 29.443 46.6043 29.4295C46.5706 29.4184 46.5375 29.4056 46.5051 29.3911C46.4727 29.3767 46.441 29.3606 46.4103 29.3431C46.3794 29.3254 46.3495 29.3063 46.3206 29.2857C46.2917 29.2652 46.2639 29.2432 46.2371 29.2198C46.2104 29.1965 46.1849 29.1718 46.1606 29.1459C46.1364 29.12 46.1135 29.0929 46.092 29.0647C46.0704 29.0365 46.0503 29.0073 46.0316 28.9771C46.013 28.9468 45.9959 28.9158 45.9804 28.8839C45.9649 28.8526 45.951 28.8206 45.9389 28.7879C45.9267 28.7552 45.9162 28.722 45.9075 28.6882C45.8988 28.6543 45.8919 28.6201 45.8867 28.5856C45.8815 28.5511 45.8781 28.5165 45.8766 28.4816C45.875 28.4467 45.8752 28.4119 45.8772 28.3771C45.8793 28.3422 45.8832 28.3076 45.8888 28.273C45.8944 28.2386 45.9019 28.2046 45.911 28.1709C45.9201 28.1372 45.931 28.1041 45.9436 28.0716C45.9609 28.0267 45.9811 27.9833 46.0043 27.9412C46.0275 27.8991 46.0535 27.8588 46.0822 27.8203C46.1109 27.7818 46.1421 27.7453 46.1758 27.711C46.2095 27.6768 46.2454 27.645 46.2834 27.6156C46.6458 27.336 47.6606 26.9743 48.1317 26.7635C48.4459 26.6229 48.7493 26.438 48.8706 26.0955C48.8954 26.0257 48.91 25.9512 48.9208 25.878C48.9688 25.5528 48.9472 25.209 48.9457 24.8811L48.9424 23.3373C48.944 22.825 49.0251 21.3509 48.8366 20.9581C48.75 20.7775 48.5635 20.6319 48.3956 20.5289C47.9902 20.2802 47.4843 20.1083 47.0479 19.917L44.3606 18.7354C43.8228 18.498 43.236 18.2798 42.7857 17.8932C42.6773 17.7993 42.5754 17.699 42.48 17.592C42.3845 17.4851 42.2964 17.3725 42.2154 17.2542C42.0051 16.951 41.8285 16.6231 41.6444 16.3036L40.824 14.8773C40.4129 14.1634 39.9359 13.4466 39.5864 12.7024C39.4519 12.416 39.3482 12.1027 39.3143 11.787C39.2353 11.0543 39.3722 10.2884 39.4522 9.55837L39.7337 7.00049C39.7798 6.57948 39.8651 6.12079 39.8468 5.69817C39.8395 5.52996 39.8128 5.35294 39.7369 5.2008C39.6586 5.04375 39.4839 4.9055 39.3404 4.80688C38.7818 4.4227 38.0801 4.07492 37.486 3.73179L36.2025 2.98923C35.9516 2.84471 35.7002 2.66657 35.4226 2.57898C35.2012 2.50913 34.9761 2.51232 34.7608 2.59985C34.3554 2.76481 33.9599 3.12678 33.6057 3.38662L31.3365 5.05116C30.8499 5.40755 30.3602 5.81669 29.8226 6.09003C28.9038 6.55715 27.5503 6.42679 26.5334 6.42552L24.5894 6.42583C24.1282 6.42643 23.6551 6.44946 23.1978 6.38189C22.8648 6.33267 22.5501 6.23689 22.2501 6.08381C21.7433 5.82525 21.283 5.44583 20.8249 5.10981L18.7324 3.57374C18.3322 3.27989 17.6573 2.69955 17.2145 2.56631C16.9502 2.48674 16.6923 2.53801 16.4523 2.66507C15.7444 3.03999 15.056 3.4692 14.3611 3.86883C13.8081 4.18688 13.2156 4.48547 12.6876 4.84123C12.6031 4.89817 12.5244 4.96313 12.4578 5.04062C12.3244 5.19597 12.2492 5.38883 12.2267 5.59146C12.1806 6.00585 12.2887 6.49219 12.3343 6.90783L12.6276 9.60599C12.6927 10.1975 12.7901 10.8051 12.7845 11.4004C12.7814 11.7104 12.7395 12.0295 12.6453 12.3256C12.4983 12.7876 12.2102 13.2247 11.9686 13.6436L11.155 15.0532L10.4052 16.3504C10.1517 16.7887 9.91139 17.2364 9.57582 17.6192C9.37844 17.8443 9.14414 18.028 8.8883 18.183C8.45532 18.4452 7.96423 18.6296 7.50131 18.8336L5.04964 19.9123C4.62125 20.1004 4.16817 20.2728 3.75502 20.4906C3.5193 20.6149 3.266 20.8167 3.19218 21.0834C3.06547 21.5412 3.12839 23.0183 3.12882 23.5929C3.1292 24.0941 3.07656 25.6694 3.17197 26.0139C3.45855 27.0484 5.67851 27.0903 6.14464 27.9806C6.27379 28.2272 6.31296 28.5184 6.22744 28.7859C6.21642 28.8193 6.20375 28.852 6.18943 28.8841C6.17511 28.9161 6.15922 28.9474 6.14173 28.9778C6.12426 29.0083 6.1053 29.0378 6.08484 29.0663C6.06438 29.0949 6.04254 29.1223 6.01931 29.1486C5.99608 29.175 5.97159 29.2001 5.94583 29.2239C5.92006 29.2478 5.89316 29.2703 5.86512 29.2915C5.83709 29.3127 5.80806 29.3323 5.77803 29.3505C5.74801 29.3687 5.71714 29.3854 5.68544 29.4005C5.3911 29.544 5.07637 29.5275 4.77522 29.4185C4.42127 29.2902 4.06816 29.1047 3.72285 28.9518C2.6921 28.4954 1.82381 28.1281 1.32448 27.0365C1.25589 26.8864 1.19943 26.7318 1.15509 26.5729C1.11075 26.4139 1.07908 26.2524 1.06008 26.0885C0.976781 25.3809 1.0312 24.4447 1.03037 23.7134L1.02905 22.166C1.02881 21.8554 1.01681 21.5389 1.04251 21.2294C1.0544 21.0772 1.07657 20.9265 1.10902 20.7773C1.14148 20.6282 1.18392 20.4819 1.23634 20.3386C1.261 20.2716 1.28795 20.2057 1.31717 20.1406C1.34639 20.0756 1.37782 20.0117 1.41147 19.9488C1.44511 19.8859 1.48088 19.8243 1.51879 19.7639C1.55669 19.7035 1.59663 19.6445 1.63861 19.5868C1.6806 19.5292 1.72452 19.4731 1.77038 19.4186C1.81624 19.3639 1.86393 19.311 1.91345 19.2597C1.96297 19.2084 2.0142 19.1588 2.06714 19.111C2.12009 19.0633 2.17463 19.0174 2.23074 18.9734C2.78706 18.5399 3.53113 18.2913 4.17273 18.0085C5.27527 17.5227 6.39223 17.057 7.4856 16.5519C7.65851 16.472 7.83781 16.3828 7.9758 16.2489C8.30065 15.9337 8.76569 14.9905 9.0164 14.5533L10.0238 12.8131C10.235 12.449 10.5315 12.0396 10.6495 11.6366C10.7651 11.2412 10.6329 10.6757 10.5888 10.2718L10.2713 7.38494C10.2072 6.80065 10.1021 6.18949 10.1206 5.60166C10.1254 5.4343 10.1438 5.26845 10.1757 5.1041C10.2076 4.93975 10.2527 4.77909 10.3109 4.6221C10.4687 4.19929 10.7326 3.76876 11.064 3.45925C11.482 3.06878 12.0085 2.80207 12.5006 2.51794L14.0005 1.65122C14.5395 1.33994 15.0822 0.977062 15.6477 0.719728C15.9052 0.60253 16.2108 0.574313 16.4581 0.454723C16.4693 0.449304 16.4804 0.443567 16.4915 0.437988ZM35.549 0.437988C35.5602 0.443801 35.5712 0.449806 35.5824 0.455427C35.8071 0.567935 36.1517 0.593072 36.4083 0.712047C37.0912 1.02859 37.8047 1.49618 38.4617 1.87652C39.1354 2.26655 40.396 2.91293 40.9282 3.39188C41.0231 3.47643 41.1124 3.56655 41.196 3.66226C41.2796 3.75797 41.3569 3.85851 41.428 3.9639C41.4991 4.06928 41.5632 4.17868 41.6206 4.2921C41.678 4.40552 41.728 4.52207 41.7708 4.64175C41.8275 4.7997 41.8712 4.96119 41.9019 5.1262C41.9325 5.29121 41.9497 5.45762 41.9534 5.62541C41.9677 6.25582 41.858 6.9083 41.7888 7.53417L41.4826 10.3355C41.4406 10.7049 41.3073 11.2728 41.4149 11.6297C41.5295 12.0097 41.8136 12.3989 42.0134 12.7443L43.092 14.6144L43.6665 15.61C43.7651 15.7813 43.8605 15.9913 43.988 16.1418C44.1241 16.3022 44.3055 16.4155 44.493 16.5061C44.8782 16.6921 45.2791 16.8529 45.671 17.0249L47.9774 18.0399C48.474 18.2589 49.0007 18.4581 49.4696 18.73C49.712 18.8705 49.9425 19.0391 50.1401 19.2383C50.4009 19.501 50.59 19.8017 50.7491 20.1341C50.8027 20.2461 50.8472 20.3756 50.9106 20.4811V0.437988H35.549ZM17.3824 0.437988C17.5102 0.492372 17.6458 0.516419 17.779 0.553755C18.0552 0.631124 18.3262 0.734403 18.5713 0.88471C18.9764 1.13312 19.3557 1.43897 19.7394 1.71961L21.7699 3.20687C22.1251 3.46755 23.0225 4.20604 23.3839 4.29106C23.7353 4.37376 24.1741 4.328 24.5352 4.32778L26.5389 4.32479C27.003 4.32397 28.4654 4.40138 28.8206 4.24609C29.2005 4.07999 29.672 3.6677 30.0191 3.41342L32.2218 1.79884C32.6635 1.47517 33.0991 1.12602 33.569 0.844584C33.8123 0.698913 34.0767 0.615273 34.3467 0.534485C34.4484 0.504048 34.559 0.483649 34.6548 0.437988H17.3824Z" fill="#93C704"/>
</g>
<defs>
<clipPath id="clip0_1094_1086">
<rect width="50" height="50" fill="white" transform="translate(0.910645 0.437988)"/>
</clipPath>
</defs>
</svg>
