<svg width="80" height="66" viewBox="0 0 80 66" fill="none" xmlns="http://www.w3.org/2000/svg">
<path d="M35.6862 65C35.6862 44.4297 52.1597 33.9362 61.2032 30.9284C61.6736 30.772 61.9172 30.2515 61.7183 29.801L59.8453 25.558C59.5767 24.9494 60.1135 24.294 60.7697 24.4295L77.8425 27.9547C78.4068 28.0713 78.6798 28.7109 78.371 29.1934L69.1128 43.6634C68.7587 44.2167 67.9248 44.1534 67.6598 43.5532L65.685 39.0793C65.5184 38.7019 65.0947 38.5047 64.7002 38.634C57.4969 40.995 44.3509 49.1653 44.3509 65M35.6862 46.5979V16.7455C35.6862 16.2938 35.3168 15.9276 34.861 15.9276H30.6491C29.9855 15.9276 29.5933 15.1907 29.9681 14.6479L39.144 1.35603C39.4682 0.886403 40.1652 0.880287 40.4977 1.34416L50.0266 14.636C50.4148 15.1775 50.0241 15.9276 49.3539 15.9276H45.1761C44.7203 15.9276 44.3509 16.2938 44.3509 16.7455V35.9655M33.2106 53.9587C31.4609 50.0902 25.47 41.7309 15.3152 38.6157C14.93 38.4975 14.5178 38.6841 14.3461 39.0457L12.0041 43.9782C11.7225 44.5713 10.8866 44.6115 10.5483 44.0483L1.61672 29.1765C1.32765 28.6951 1.60129 28.0747 2.15408 27.9582L18.8481 24.4378C19.5052 24.2992 20.0451 24.9555 19.7758 25.5656L17.9231 29.7627C17.7184 30.2265 17.9818 30.7616 18.4706 30.9085C21.5647 31.8383 27.1731 34.1857 30.735 38.0102" stroke="#93C704" stroke-width="2" stroke-linecap="round" stroke-linejoin="round"/>
</svg>
