<svg width="51" height="51" viewBox="0 0 51 51" fill="none" xmlns="http://www.w3.org/2000/svg">
<path d="M26.1313 4.67236C27.0747 4.68879 28.0266 4.76165 28.9691 4.81605L32.8167 5.01945L35.3833 5.15432C36.3235 5.19943 37.2932 5.21308 38.2146 5.41548C38.4531 5.46628 38.687 5.53285 38.9164 5.6152C39.1459 5.69753 39.3689 5.7949 39.5852 5.9073C39.7889 6.01487 39.9809 6.14219 40.1856 6.24838C40.901 6.15903 41.579 6.04548 42.3046 6.05851C44.4968 6.09787 46.7329 6.89282 48.2734 8.49012C49.2672 9.5206 49.9231 10.9089 49.8895 12.3592C49.8539 13.8933 49.1316 15.2684 48.0263 16.3088C46.8166 17.4475 45.1992 18.1547 43.5656 18.4029C43.2688 18.448 42.9559 18.5047 42.6556 18.495C42.6721 19.0618 42.6993 19.6282 42.7372 20.1941C42.7576 20.5469 42.8109 20.9311 42.7664 21.2821C42.7623 21.3156 42.756 21.3487 42.7474 21.3813C42.7389 21.414 42.7282 21.4459 42.7153 21.4771C42.7024 21.5083 42.6874 21.5385 42.6705 21.5677C42.6535 21.5969 42.6347 21.6248 42.6139 21.6514C42.4871 21.8178 42.2897 21.9388 42.0805 21.9624C41.8748 21.9854 41.6637 21.9082 41.5045 21.7801C41.3972 21.6938 41.3066 21.5772 41.2657 21.4444C41.1808 21.1692 41.1936 20.8364 41.1779 20.5501C41.1395 19.8566 41.1371 19.1543 41.0684 18.4636C40.658 18.3653 40.2367 18.3233 39.8258 18.2185C38.1165 17.7825 36.6378 16.8851 35.5244 15.5061C35.2792 15.4722 35.0258 15.4819 34.7789 15.4539C34.0419 15.3703 33.3846 15.0219 32.8678 14.4952C32.2782 13.8942 31.9669 13.0552 31.983 12.2168C31.9842 12.1639 31.9866 12.1111 31.9903 12.0583C31.9939 12.0055 31.9989 11.9529 32.0052 11.9004C32.0115 11.8478 32.019 11.7955 32.0279 11.7433C32.0367 11.6912 32.0468 11.6393 32.0581 11.5877C32.0695 11.536 32.0822 11.4846 32.096 11.4336C32.1099 11.3825 32.125 11.3319 32.1414 11.2816C32.1578 11.2313 32.1753 11.1814 32.1941 11.132C32.2129 11.0825 32.2329 11.0336 32.2541 10.9851C32.2753 10.9367 32.2977 10.8888 32.3212 10.8414C32.3447 10.794 32.3694 10.7473 32.3953 10.701C32.4211 10.6549 32.4481 10.6094 32.4761 10.5646C32.5042 10.5198 32.5333 10.4756 32.5635 10.4322C32.5937 10.3888 32.625 10.3461 32.6573 10.3043C32.6896 10.2623 32.7229 10.2213 32.7572 10.181C32.7915 10.1408 32.8268 10.1014 32.863 10.0629C32.8992 10.0243 32.9364 9.98669 32.9745 9.94998C33.0127 9.91406 33.0519 9.87909 33.0918 9.84507C33.1319 9.81106 33.1727 9.77804 33.2143 9.74602C33.2559 9.714 33.2983 9.68301 33.3414 9.65306C33.3844 9.6231 33.4283 9.59422 33.4728 9.56641C33.5173 9.53859 33.5625 9.51188 33.6083 9.48627C33.6542 9.46066 33.7006 9.43619 33.7476 9.41284C33.7946 9.3895 33.8422 9.36732 33.8903 9.34631C33.9384 9.32529 33.987 9.30545 34.0361 9.28681C34.0852 9.26816 34.1347 9.25072 34.1846 9.23449C34.2345 9.21826 34.2848 9.20326 34.3355 9.18949C34.3861 9.17572 34.4371 9.16319 34.4884 9.1519C34.5397 9.14062 34.5912 9.13059 34.6429 9.12182C34.6947 9.11305 34.7466 9.10555 34.7988 9.09932C34.8509 9.09309 34.9032 9.08813 34.9555 9.08444C35.0079 9.08076 35.0604 9.07836 35.1128 9.07724C35.1653 9.07612 35.2178 9.07628 35.2703 9.07771C35.3231 9.07945 35.3758 9.08247 35.4285 9.08679C35.4811 9.0911 35.5336 9.09669 35.586 9.10357C35.6383 9.11046 35.6905 9.11861 35.7425 9.12804C35.7945 9.13746 35.8462 9.14816 35.8976 9.16012C35.9491 9.17208 36.0002 9.18529 36.051 9.19975C36.1018 9.2142 36.1522 9.22989 36.2023 9.24681C36.2524 9.26373 36.302 9.28187 36.3511 9.30122C36.4003 9.32056 36.4489 9.3411 36.497 9.36282C36.5452 9.38455 36.5928 9.40744 36.6398 9.43149C36.6869 9.45554 36.7333 9.48073 36.779 9.50705C36.8249 9.53337 36.87 9.5608 36.9145 9.58933C36.959 9.61785 37.0027 9.64745 37.0456 9.67812C37.0887 9.70878 37.1309 9.74048 37.1724 9.77321C37.2139 9.80594 37.2545 9.83966 37.2943 9.87438C37.3341 9.9091 37.3731 9.94477 37.4112 9.98139C37.4492 10.018 37.4863 10.0555 37.5226 10.094C37.5585 10.1323 37.5935 10.1714 37.6275 10.2115C37.6615 10.2515 37.6944 10.2924 37.7264 10.334C37.7584 10.3757 37.7893 10.4182 37.8192 10.4614C37.849 10.5046 37.8777 10.5486 37.9054 10.5932C37.9331 10.6378 37.9596 10.6831 37.985 10.7292C38.0105 10.7751 38.0347 10.8217 38.0579 10.8688C38.0809 10.916 38.1028 10.9637 38.1236 11.012C38.1443 11.0602 38.1638 11.1089 38.1821 11.1582C38.2004 11.2074 38.2175 11.2571 38.2333 11.3072C38.2492 11.3573 38.2637 11.4077 38.277 11.4585C38.2903 11.5093 38.3024 11.5604 38.3132 11.6118C38.324 11.6632 38.3335 11.7149 38.3417 11.7668C38.3499 11.8186 38.3568 11.8706 38.3624 11.9229C38.3681 11.9751 38.3724 12.0274 38.3754 12.0798C38.3785 12.1323 38.3802 12.1847 38.3806 12.2373C38.3811 12.2898 38.3802 12.3423 38.378 12.3948C38.3354 13.5398 37.8427 14.1715 37.0374 14.9159C38.1924 16.0588 39.4212 16.5676 40.9939 16.8472C40.9129 16.3211 40.9299 15.7587 40.9006 15.2258L40.7128 11.6518C40.6719 10.8535 40.6581 10.0194 40.4263 9.24905C40.267 8.71955 40.0005 8.24217 39.6084 7.84981C39.1454 7.38652 38.57 7.10915 37.9354 6.96643C37.1969 6.80033 36.4239 6.78819 35.6702 6.75435L33.5392 6.64621L28.3512 6.36945C27.6749 6.33932 26.9999 6.27349 26.3226 6.27432C25.9692 6.27475 25.6613 6.28247 25.365 6.49917C25.1355 6.66704 24.9335 6.89503 24.7324 7.09579L23.6959 8.13245L20.0843 11.7446L7.18994 24.6388L4.50023 27.3304C4.06593 27.7646 3.53844 28.2168 3.15647 28.6887C3.12649 28.7258 3.09842 28.7643 3.07226 28.8043C3.04609 28.8442 3.02197 28.8853 2.99988 28.9276C2.97779 28.9699 2.95785 29.0131 2.94005 29.0574C2.92225 29.1017 2.90669 29.1467 2.89335 29.1925C2.88002 29.2384 2.86898 29.2847 2.86024 29.3316C2.8515 29.3785 2.8451 29.4258 2.84105 29.4733C2.83699 29.5208 2.83529 29.5684 2.83595 29.6162C2.83661 29.6639 2.83964 29.7115 2.84501 29.7588C2.88091 30.0496 3.00776 30.3061 3.19828 30.5254C3.48521 30.8557 3.81877 31.1581 4.12849 31.4673L5.91203 33.2476L11.5372 38.8721L15.2441 42.5778L16.3509 43.6875C16.5788 43.9157 16.8082 44.1738 17.0662 44.3675C17.4558 44.6604 18.0399 44.6992 18.475 44.4881C18.9362 44.2645 19.7041 43.3888 20.0994 42.9923L23.464 39.6254L24.3883 38.7018C24.6025 38.4844 24.8174 38.2319 25.0595 38.0476C25.1978 37.9422 25.3468 37.8726 25.5206 37.8524C25.7128 37.8301 25.8911 37.8705 26.041 37.9961C26.2158 38.1424 26.3437 38.3604 26.3537 38.5907C26.3641 38.8308 26.2756 39.007 26.1211 39.1809C25.7208 39.6317 25.2633 40.0474 24.8368 40.4741L22.3525 42.9588L20.6881 44.6226C20.3324 44.9783 19.9704 45.3943 19.5575 45.6824C19.1129 45.9926 18.5507 46.1813 18.0102 46.2096C17.1991 46.2521 16.407 45.9167 15.8143 45.3753C15.451 45.0434 15.1102 44.6773 14.7627 44.3286L12.8839 42.4484L6.89821 36.463L3.57743 33.1445C3.0583 32.6259 2.27048 31.9194 1.84462 31.356C1.80068 31.2975 1.75902 31.2374 1.71966 31.1757C1.6803 31.114 1.64335 31.0509 1.6088 30.9865C1.57426 30.922 1.54222 30.8562 1.51269 30.7892C1.48317 30.7223 1.45623 30.6543 1.43189 30.5853C1.40755 30.5163 1.38588 30.4465 1.36687 30.3758C1.34786 30.3051 1.33157 30.2338 1.318 30.162C1.30443 30.0901 1.29362 30.0178 1.28557 29.945C1.27752 29.8723 1.27225 29.7993 1.26976 29.7262C1.23534 28.8785 1.53428 28.1171 2.10958 27.4995C2.66774 26.9004 3.27079 26.3326 3.85072 25.7536L7.1123 22.4927L16.7928 12.8151L21.9821 7.62302L23.4184 6.18665C23.7112 5.89219 24.0021 5.55998 24.3275 5.30232C24.8562 4.88368 25.4632 4.69676 26.1313 4.67236ZM41.942 7.65113C41.7769 7.6554 41.6115 7.66157 41.4462 7.66298C41.7462 8.17252 41.9418 8.74378 42.0605 9.32162C42.2451 10.2204 42.2601 11.1518 42.3047 12.0659L42.4684 15.1508C42.4998 15.7341 42.5122 16.3251 42.5691 16.9065C43.9902 16.8154 45.3682 16.4305 46.516 15.5531C47.4075 14.9016 48.0977 13.9414 48.2726 12.8366C48.4316 11.8326 48.1507 10.8476 47.5543 10.0339C46.6123 8.74854 45.0209 7.98569 43.4711 7.74763C42.9646 7.66604 42.4549 7.63387 41.942 7.65113ZM35.01 10.6806C34.6035 10.7041 34.243 10.8801 33.9695 11.1831C33.9336 11.2234 33.8998 11.2654 33.8681 11.309C33.8364 11.3527 33.8069 11.3979 33.7796 11.4445C33.7524 11.491 33.7275 11.5388 33.7049 11.5879C33.6824 11.6369 33.6623 11.687 33.6448 11.7379C33.6271 11.789 33.6121 11.8408 33.5997 11.8933C33.5872 11.9458 33.5773 11.9988 33.5701 12.0523C33.5628 12.1058 33.5582 12.1595 33.5563 12.2134C33.5543 12.2674 33.5551 12.3213 33.5584 12.3752C33.5615 12.4294 33.5673 12.4833 33.5757 12.537C33.5842 12.5906 33.5953 12.6436 33.6091 12.6962C33.623 12.7487 33.6394 12.8004 33.6583 12.8512C33.6774 12.9021 33.6989 12.9518 33.7229 13.0005C33.7469 13.0492 33.7733 13.0966 33.8021 13.1427C33.8309 13.1888 33.8619 13.2333 33.8952 13.2762C33.9284 13.3191 33.9637 13.3603 34.0011 13.3997C34.0385 13.4391 34.0777 13.4765 34.1189 13.5119C34.2722 13.6444 34.4417 13.7358 34.6303 13.8082C34.4893 13.2953 34.2389 12.3917 34.5108 11.8898C34.5215 11.87 34.533 11.8507 34.5455 11.832C34.5578 11.8132 34.571 11.7951 34.5851 11.7776C34.5991 11.76 34.6139 11.7431 34.6294 11.7269C34.645 11.7106 34.6612 11.6951 34.6782 11.6803C34.6951 11.6656 34.7126 11.6516 34.7308 11.6383C34.749 11.6251 34.7678 11.6127 34.7871 11.6011C34.8063 11.5896 34.8261 11.579 34.8463 11.5692C34.8666 11.5594 34.8872 11.5506 34.9082 11.5426L34.9421 11.5351C35.1852 11.4827 35.4053 11.4965 35.6204 11.635C35.8062 11.7546 35.9072 11.9399 35.9478 12.1538C36.0303 12.5883 35.9772 13.0734 36.1833 13.4817L36.2204 13.4987C36.4968 13.3403 36.662 13.0386 36.7445 12.7379C36.8636 12.3042 36.8151 11.841 36.5872 11.4504C36.3799 11.0952 36.0343 10.8221 35.6342 10.7199C35.4237 10.6661 35.225 10.6693 35.01 10.6806Z" fill="#93C704"/>
<path d="M23.1887 15.4393C23.3533 15.4366 23.518 15.4381 23.6826 15.4439C23.8472 15.4497 24.0115 15.4597 24.1756 15.4741C24.3396 15.4884 24.5032 15.507 24.6663 15.5298C24.8295 15.5527 24.9919 15.5797 25.1535 15.611C25.3152 15.6423 25.476 15.6778 25.6359 15.7174C25.7958 15.757 25.9545 15.8008 26.112 15.8487C26.2696 15.8966 26.4259 15.9485 26.5808 16.0045C26.7356 16.0605 26.889 16.1205 27.0407 16.1845C27.171 16.2396 27.3 16.2976 27.4277 16.3584C27.5555 16.4193 27.6818 16.4829 27.8066 16.5494C27.9315 16.6158 28.0548 16.685 28.1767 16.757C28.2985 16.8289 28.4186 16.9035 28.5372 16.9808C28.6557 17.058 28.7724 17.1379 28.8873 17.2204C29.0023 17.3028 29.1154 17.3878 29.2266 17.4752C29.3377 17.5627 29.4469 17.6526 29.5541 17.745C29.6613 17.8373 29.7663 17.9319 29.8693 18.029C29.9723 18.126 30.073 18.2252 30.1716 18.3267C30.2701 18.4282 30.3664 18.5318 30.4603 18.6375C30.5544 18.7433 30.6459 18.8511 30.7351 18.9609C30.8242 19.0707 30.9109 19.1825 30.9951 19.2961C31.0794 19.4098 31.161 19.5253 31.24 19.6426C31.3191 19.7599 31.3956 19.879 31.4693 19.9997C31.5432 20.1204 31.6143 20.2426 31.6826 20.3665C31.751 20.4903 31.8165 20.6157 31.8793 20.7424C32.156 21.3063 32.3005 21.8405 32.5328 22.4058L32.5449 22.4347C32.5598 22.4204 32.5749 22.4064 32.5902 22.3927C32.8079 22.1997 33.078 22.0434 33.3314 21.9029C33.4729 21.8247 33.6169 21.7515 33.7635 21.6834C33.91 21.6153 34.0588 21.5524 34.2098 21.4947C34.3607 21.4369 34.5135 21.3845 34.6681 21.3374C34.8227 21.2904 34.9788 21.2487 35.1363 21.2125C35.2938 21.1764 35.4524 21.1458 35.6121 21.1207C35.7717 21.0956 35.9321 21.0761 36.0931 21.0623C36.2541 21.0483 36.4155 21.0401 36.577 21.0374C36.7386 21.0348 36.9001 21.0378 37.0615 21.0464C37.1756 21.0529 37.2895 21.0622 37.4032 21.0743C37.5169 21.0863 37.6302 21.1012 37.7431 21.1188C37.856 21.1364 37.9685 21.1568 38.0804 21.18C38.1923 21.2032 38.3036 21.2291 38.4143 21.2578C38.5249 21.2864 38.6347 21.3178 38.7438 21.3518C38.853 21.3859 38.9612 21.4226 39.0685 21.462C39.1758 21.5013 39.2821 21.5433 39.3873 21.5879C39.4925 21.6325 39.5966 21.6797 39.6995 21.7294C39.8024 21.7792 39.9041 21.8314 40.0044 21.8862C40.1048 21.9409 40.2037 21.9981 40.3013 22.0577C40.3988 22.1173 40.4948 22.1793 40.5893 22.2436C40.6837 22.3079 40.7766 22.3745 40.8678 22.4434C40.959 22.5123 41.0484 22.5834 41.1361 22.6567C41.2239 22.73 41.3098 22.8054 41.3937 22.8829C41.4777 22.9604 41.5598 23.04 41.6398 23.1215C41.7199 23.203 41.7979 23.2865 41.8739 23.3719C41.9347 23.4394 41.9942 23.5081 42.0523 23.578C42.1105 23.6478 42.1672 23.7187 42.2227 23.7907C42.2781 23.8627 42.3322 23.9357 42.3848 24.0098C42.4374 24.0839 42.4885 24.159 42.5383 24.235C42.588 24.311 42.6363 24.388 42.683 24.466C42.7298 24.5438 42.7751 24.6226 42.8188 24.7023C42.8626 24.7819 42.9048 24.8624 42.9454 24.9436C42.9861 25.0249 43.0252 25.1068 43.0627 25.1896C43.1002 25.2724 43.1361 25.3559 43.1704 25.44C43.2047 25.5241 43.2374 25.6089 43.2685 25.6943C43.2995 25.7797 43.3289 25.8657 43.3566 25.9522C43.3844 26.0387 43.4104 26.1257 43.4349 26.2132C43.4593 26.3008 43.482 26.3888 43.503 26.4772C43.5241 26.5655 43.5434 26.6543 43.5609 26.7435C43.5786 26.8326 43.5945 26.9221 43.6087 27.0118C43.6228 27.1015 43.6353 27.1915 43.646 27.2818C43.7046 27.7885 43.7019 28.2933 43.7027 28.8026C43.7034 29.203 43.7112 29.6048 43.6921 30.0048L43.7872 30.0044C44.4999 30.0033 45.1436 30.0527 45.671 30.5853C45.7057 30.6198 45.739 30.6556 45.7709 30.6927C45.8028 30.7298 45.8332 30.7681 45.8622 30.8076C45.8911 30.847 45.9185 30.8875 45.9442 30.9291C45.9701 30.9707 45.9942 31.0132 46.0167 31.0567C46.0392 31.1001 46.06 31.1444 46.0791 31.1894C46.0982 31.2345 46.1155 31.2802 46.1311 31.3266C46.1465 31.373 46.1602 31.42 46.1722 31.4674C46.184 31.5149 46.194 31.5627 46.2022 31.611C46.2769 32.0422 46.2372 32.5287 46.2366 32.9666L46.2362 35.1707L46.2371 43.4115C46.2376 44.261 46.2977 45.0095 45.6454 45.6532C45.3904 45.9048 45.039 46.1005 44.6865 46.1707C44.1162 46.2844 42.9579 46.2189 42.3222 46.2186L37.6013 46.2195L31.573 46.219L29.9372 46.222C29.5461 46.2227 29.1368 46.2491 28.7513 46.1776C28.3537 46.1039 27.9978 45.9305 27.7101 45.6431C27.4252 45.3586 27.239 45.0125 27.1736 44.615C27.1036 44.1887 27.1373 43.7279 27.1384 43.2957L27.1402 41.2348L27.1427 33.6299C26.0792 34.0399 25.029 34.346 23.8823 34.3989C23.805 34.4028 23.7276 34.4057 23.6502 34.4077C23.5727 34.4097 23.4953 34.4107 23.4179 34.4108C23.3404 34.4109 23.2629 34.4101 23.1854 34.4082C23.108 34.4065 23.0307 34.4038 22.9533 34.4C22.8759 34.3964 22.7986 34.3918 22.7214 34.3862C22.6441 34.3806 22.5669 34.3741 22.4898 34.3666C22.4128 34.3592 22.3358 34.3508 22.2589 34.3415C22.182 34.3321 22.1052 34.3218 22.0286 34.3106C21.952 34.2994 21.8755 34.2873 21.7991 34.2742C21.7228 34.2611 21.6466 34.2471 21.5706 34.2321C21.4946 34.2172 21.4188 34.2013 21.3433 34.1845C21.2676 34.1677 21.1922 34.15 21.117 34.1313C21.0419 34.1127 20.9669 34.0931 20.8922 34.0727C20.8175 34.0522 20.7431 34.0308 20.6689 34.0085C20.5947 33.9862 20.5208 33.963 20.4473 33.9389C20.3736 33.9148 20.3003 33.8899 20.2273 33.864C20.1544 33.8381 20.0817 33.8113 20.0093 33.7836C19.9369 33.756 19.865 33.7274 19.7934 33.698C19.7217 33.6686 19.6504 33.6383 19.5795 33.6072C19.5086 33.576 19.4381 33.544 19.368 33.5111C19.2978 33.4782 19.2281 33.4444 19.1588 33.4098C19.0895 33.3752 19.0207 33.3398 18.9522 33.3036C18.8838 33.2673 18.8158 33.2302 18.7482 33.1922C18.6807 33.1543 18.6137 33.1155 18.5471 33.0759C18.4805 33.0364 18.4144 32.996 18.3488 32.9548C18.2833 32.9136 18.2182 32.8716 18.1536 32.8289C18.089 32.7861 18.025 32.7425 17.9615 32.6982C17.898 32.6539 17.835 32.6087 17.7727 32.5628C17.7102 32.5169 17.6484 32.4703 17.5871 32.4229C17.5258 32.3755 17.4652 32.3274 17.4052 32.2786C17.3451 32.2297 17.2856 32.1801 17.2267 32.1297C17.1678 32.0794 17.1096 32.0284 17.0519 31.9766C15.1554 30.2431 14.0109 27.8935 13.9025 25.3171C13.8994 25.2397 13.8972 25.1623 13.896 25.0849C13.8948 25.0074 13.8945 24.93 13.8951 24.8526C13.8958 24.7751 13.8974 24.6977 13.8999 24.6203C13.9024 24.5429 13.906 24.4655 13.9104 24.3881C13.9149 24.3108 13.9202 24.2335 13.9266 24.1564C13.9329 24.0792 13.9401 24.0021 13.9483 23.925C13.9566 23.848 13.9658 23.7711 13.9759 23.6944C13.9859 23.6176 13.9969 23.5409 14.0089 23.4644C14.0209 23.3878 14.0338 23.3115 14.0476 23.2353C14.0614 23.1591 14.0762 23.083 14.0919 23.0072C14.1076 22.9313 14.1242 22.8557 14.1417 22.7802C14.1593 22.7048 14.1777 22.6296 14.1971 22.5546C14.2165 22.4796 14.2367 22.4049 14.2579 22.3304C14.2791 22.2559 14.3012 22.1817 14.3242 22.1078C14.3473 22.0338 14.3712 21.9601 14.396 21.8868C14.4208 21.8134 14.4465 21.7403 14.4731 21.6675C14.4997 21.5948 14.5272 21.5224 14.5556 21.4503C14.5839 21.3783 14.6132 21.3066 14.6434 21.2352C14.6734 21.1638 14.7044 21.0929 14.7363 21.0223C14.7682 20.9517 14.8008 20.8815 14.8344 20.8117C14.868 20.7419 14.9024 20.6725 14.9377 20.6036C14.9729 20.5346 15.009 20.4661 15.046 20.398C15.0829 20.3299 15.1207 20.2623 15.1593 20.1952C15.1979 20.128 15.2373 20.0613 15.2775 19.9952C15.3177 19.929 15.3587 19.8633 15.4006 19.7981C15.4424 19.7329 15.485 19.6682 15.5284 19.604C15.5718 19.5399 15.616 19.4763 15.6609 19.4132C15.7059 19.3501 15.7517 19.2876 15.7981 19.2257C15.8446 19.1638 15.8919 19.1024 15.9398 19.0416C15.9878 18.9808 16.0366 18.9206 16.086 18.861C16.1355 18.8014 16.1857 18.7424 16.2366 18.684C16.2875 18.6256 16.3391 18.5679 16.3914 18.5108C18.1781 16.5685 20.5703 15.5478 23.1887 15.4393ZM29.0454 31.6028C28.9425 31.6192 28.8576 31.6395 28.7938 31.7288C28.7148 31.8393 28.7091 32.0142 28.7046 32.146C28.6766 32.9789 28.7086 33.8207 28.7074 34.6545L28.7062 40.332L28.7048 42.9218C28.7047 43.3812 28.6481 43.9231 28.7452 44.3726C28.7645 44.4624 28.7831 44.5183 28.8665 44.5654C28.9721 44.625 29.1478 44.6224 29.2672 44.6252C30.1479 44.6459 31.0333 44.6259 31.9146 44.6253L36.9145 44.6249L41.7784 44.6252C42.6304 44.6253 43.4872 44.6445 44.3385 44.6214C44.4496 44.5977 44.529 44.5755 44.592 44.4747C44.6551 44.3734 44.6584 44.2494 44.6611 44.1335C44.6851 43.1249 44.6658 42.1113 44.6659 41.102L44.6658 35.3874L44.6661 33.0842C44.6662 32.7646 44.7165 32.0948 44.6344 31.8232C44.6115 31.7477 44.5739 31.6876 44.5014 31.651C44.3916 31.5955 44.1905 31.5981 44.0674 31.5946C43.1994 31.5699 42.3257 31.5912 41.4569 31.5916L36.5399 31.5925L31.7969 31.5917C30.8809 31.5916 29.9609 31.574 29.0454 31.6028ZM22.7105 17.0494C22.2047 17.1138 21.71 17.1857 21.2174 17.3206C21.1166 17.3489 21.0164 17.3793 20.9168 17.4118C20.8172 17.4441 20.7184 17.4785 20.6201 17.5148C20.5219 17.5512 20.4245 17.5895 20.3278 17.6296C20.2311 17.6699 20.1353 17.712 20.0403 17.756C19.9453 17.8001 19.8512 17.846 19.758 17.8938C19.6648 17.9416 19.5727 17.9912 19.4815 18.0426C19.3903 18.0941 19.3002 18.1474 19.2111 18.2025C19.1221 18.2575 19.0341 18.3143 18.9473 18.3729C18.8605 18.4314 18.7749 18.4917 18.6905 18.5537C18.6061 18.6156 18.5229 18.6793 18.4411 18.7446C18.3592 18.8099 18.2787 18.8768 18.1995 18.9453C18.1203 19.0138 18.0424 19.0838 17.966 19.1554C17.8896 19.227 17.8147 19.3 17.7412 19.3747C17.6677 19.4493 17.5957 19.5253 17.5253 19.6027C17.4548 19.6802 17.3859 19.759 17.3185 19.8392C17.2512 19.9194 17.1855 20.0009 17.1215 20.0837C17.0817 20.1351 17.0425 20.187 17.004 20.2393C16.9655 20.2917 16.9276 20.3445 16.8903 20.3978C16.8532 20.4511 16.8166 20.5048 16.7807 20.559C16.7448 20.6132 16.7096 20.6678 16.675 20.7229C16.6405 20.7779 16.6066 20.8334 16.5734 20.8893C16.5402 20.9452 16.5077 21.0014 16.476 21.0582C16.4442 21.1149 16.4131 21.172 16.3827 21.2294C16.3523 21.2869 16.3226 21.3447 16.2936 21.4029C16.2647 21.4611 16.2365 21.5196 16.209 21.5785C16.1814 21.6374 16.1547 21.6966 16.1286 21.7562C16.1026 21.8157 16.0773 21.8756 16.0527 21.9358C16.0281 21.9959 16.0043 22.0564 15.9812 22.1171C15.9581 22.1779 15.9358 22.2389 15.9143 22.3002C15.8926 22.3616 15.8718 22.4232 15.8518 22.485C15.8317 22.5468 15.8124 22.6088 15.7938 22.6711C15.7754 22.7334 15.7576 22.796 15.7406 22.8587C15.7236 22.9214 15.7074 22.9844 15.692 23.0475C15.6766 23.1107 15.6619 23.174 15.648 23.2375C15.6342 23.301 15.6211 23.3647 15.6088 23.4285C15.5965 23.4923 15.585 23.5563 15.5742 23.6204C15.5635 23.6845 15.5535 23.7487 15.5444 23.813C15.5353 23.8774 15.527 23.9419 15.5194 24.0065C15.5119 24.071 15.5051 24.1356 15.4991 24.2003C15.4932 24.2651 15.488 24.3299 15.4837 24.3948C15.4793 24.4596 15.4758 24.5245 15.473 24.5894C15.4702 24.6544 15.4683 24.7193 15.4672 24.7843C15.466 24.8493 15.4657 24.9143 15.4661 24.9793C15.4666 25.0443 15.4678 25.1093 15.4699 25.1743C15.4719 25.2392 15.4748 25.3041 15.4784 25.369C15.4821 25.4339 15.4865 25.4987 15.4918 25.5635C15.4971 25.6283 15.5031 25.693 15.51 25.7577C15.5168 25.8223 15.5244 25.8869 15.5329 25.9513C15.5414 26.0154 15.5507 26.0793 15.5608 26.1432C15.5709 26.207 15.5818 26.2707 15.5935 26.3343C15.6051 26.3979 15.6175 26.4613 15.6307 26.5246C15.6439 26.5878 15.6579 26.6509 15.6727 26.7138C15.6874 26.7768 15.7029 26.8395 15.7191 26.9021C15.7354 26.9646 15.7525 27.0269 15.7703 27.0891C15.7881 27.1512 15.8066 27.2131 15.826 27.2748C15.8453 27.3364 15.8654 27.3978 15.8862 27.459C15.9071 27.5202 15.9286 27.5812 15.9509 27.6418C15.9732 27.7025 15.9963 27.7628 16.0201 27.8229C16.0439 27.883 16.0684 27.9428 16.0936 28.0023C16.1189 28.0618 16.1449 28.121 16.1716 28.1798C16.1983 28.2387 16.2257 28.2972 16.2538 28.3554C16.282 28.4136 16.3109 28.4714 16.3404 28.5289C16.3699 28.5863 16.4002 28.6435 16.4311 28.7002C16.4621 28.7569 16.4937 28.8133 16.5261 28.8693C16.5584 28.9252 16.5914 28.9808 16.6251 29.036C16.6588 29.0911 16.6931 29.1458 16.7281 29.2001C16.7631 29.2544 16.7989 29.3083 16.8352 29.3618C16.8716 29.4152 16.9086 29.4682 16.9462 29.5207C16.9838 29.5733 17.0221 29.6254 17.061 29.677C17.1 29.7286 17.1395 29.7797 17.1797 29.8303C17.2199 29.881 17.2606 29.9311 17.302 29.9807C17.3435 30.0303 17.3854 30.0794 17.428 30.1281C17.4706 30.1766 17.5138 30.2247 17.5576 30.2723C17.6014 30.3198 17.6457 30.3668 17.6906 30.4133C17.7355 30.4598 17.781 30.5057 17.827 30.551C17.8731 30.5964 17.9198 30.6412 17.9669 30.6854C18.014 30.7296 18.0617 30.7732 18.1099 30.8163C18.1581 30.8593 18.2068 30.9017 18.2561 30.9436C18.3053 30.9855 18.3551 31.0267 18.4054 31.0673C18.4556 31.108 18.5064 31.148 18.5576 31.1874C20.148 32.4134 21.9529 32.8952 23.9456 32.8073C25.0749 32.703 26.1111 32.4067 27.1174 31.8803C27.2355 31.2535 27.4305 30.7251 27.9778 30.3478C28.4818 30.0003 29.0807 29.9941 29.6706 30.0126C29.6819 28.1259 29.5616 26.6242 30.4752 24.8607C30.6852 24.4553 30.9644 24.1101 31.1872 23.7187C30.8103 21.5652 29.6977 19.7115 27.9021 18.4481C26.3752 17.3738 24.5655 16.9148 22.7105 17.0494ZM36.2685 22.6397C34.7536 22.7968 33.4442 23.4413 32.4787 24.6402C31.0988 26.3537 31.2393 27.974 31.2439 30.0132C31.6613 29.9882 32.1091 29.9933 32.5268 30.0181C32.5037 29.6348 32.5237 29.2433 32.5247 28.8589C32.5285 27.4582 32.6249 26.423 33.6029 25.3214C33.6483 25.2703 33.6949 25.2202 33.7427 25.1713C33.7905 25.1225 33.8395 25.0749 33.8897 25.0284C33.9399 24.9819 33.9912 24.9368 34.0436 24.8929C34.0961 24.849 34.1496 24.8064 34.2041 24.7652C34.2587 24.724 34.3142 24.6841 34.3707 24.6456C34.4273 24.6071 34.4847 24.57 34.5431 24.5344C34.6014 24.4987 34.6606 24.4646 34.7207 24.4319C34.7807 24.3992 34.8416 24.368 34.9032 24.3383C34.9648 24.3086 35.0271 24.2805 35.09 24.2539C35.1531 24.2273 35.2167 24.2023 35.281 24.1789C35.3452 24.1554 35.41 24.1336 35.4753 24.1133C35.5406 24.0931 35.6064 24.0745 35.6727 24.0576C35.7389 24.0406 35.8055 24.0253 35.8725 24.0117C35.9395 23.998 36.0068 23.986 36.0744 23.9756C36.142 23.9653 36.2098 23.9567 36.2778 23.9498C36.3459 23.9428 36.414 23.9375 36.4823 23.9339C36.6955 23.9223 36.9081 23.9288 37.1202 23.9532C38.2978 24.124 39.3041 24.6709 40.0197 25.6357C40.7938 26.6794 40.8471 27.6366 40.8494 28.8784C40.8501 29.2475 40.8736 29.6335 40.8398 30.0008C41.268 30.0055 41.699 30.0011 42.1267 30.0215C42.1097 28.4117 42.2724 27.0526 41.4894 25.5555C41.4221 25.4274 41.35 25.3021 41.273 25.1795C41.1961 25.0569 41.1145 24.9375 41.0284 24.8213C40.9423 24.7051 40.8518 24.5923 40.7569 24.483C40.6621 24.3736 40.5631 24.2682 40.4602 24.1665C40.3977 24.1046 40.3338 24.0443 40.2685 23.9856C40.2031 23.9268 40.1363 23.8697 40.0681 23.8143C39.9998 23.7588 39.9303 23.7051 39.8595 23.6531C39.7886 23.6011 39.7165 23.5508 39.6432 23.5024C39.5698 23.454 39.4953 23.4073 39.4196 23.3625C39.344 23.3178 39.2673 23.2749 39.1895 23.2339C39.1117 23.193 39.033 23.154 38.9533 23.1168C38.8736 23.0797 38.7931 23.0446 38.7116 23.0116C38.6302 22.9784 38.548 22.9473 38.465 22.9183C38.382 22.8893 38.2984 22.8623 38.2141 22.8374C38.1297 22.8125 38.0449 22.7897 37.9595 22.769C37.8741 22.7483 37.7882 22.7297 37.7019 22.7132C37.6155 22.6968 37.5287 22.6824 37.4417 22.6703C37.3547 22.6581 37.2673 22.6481 37.1798 22.6402C37.0922 22.6323 37.0045 22.6266 36.9167 22.6231C36.8289 22.6196 36.741 22.6182 36.6531 22.619C36.5248 22.6208 36.3958 22.6237 36.2685 22.6397ZM36.8391 25.5219C36.0284 25.5342 35.415 25.7009 34.8338 26.3034C33.8423 27.3312 34.1394 28.7145 34.0859 30.0066L36.6003 30.0102C37.4897 30.0099 38.3905 29.9794 39.2785 30.021L39.2768 29.9913C39.2034 28.5837 39.5874 27.2531 38.3998 26.1711C37.9818 25.7903 37.4101 25.5286 36.8391 25.5219Z" fill="#93C704"/>
<path d="M23.1863 18.6559C23.2425 18.6495 23.2993 18.6427 23.3559 18.6413C23.5622 18.6364 23.7767 18.7113 23.9216 18.8602C24.2023 19.1488 24.1646 19.5659 24.1593 19.9355C24.454 20.0102 24.7415 20.1025 25.0155 20.2354C25.7126 20.5736 26.4187 21.2488 26.6628 22.001C26.7329 22.2168 26.7267 22.4667 26.6122 22.6672C26.5003 22.863 26.2721 23.0161 26.055 23.0684C25.4507 23.2142 25.2272 22.5263 24.9471 22.1545C24.8772 22.0624 24.7988 21.9781 24.7121 21.9016C24.6253 21.8252 24.5318 21.758 24.4316 21.7002C23.9368 21.4123 23.2893 21.3854 22.7456 21.5366C22.3651 21.6423 21.996 21.8696 21.8053 22.2244C21.6626 22.4896 21.6164 22.8335 21.7078 23.1231C21.9748 23.9691 23.4879 24.086 24.1976 24.2683C24.6287 24.3791 25.0497 24.5273 25.4394 24.7443C26.1059 25.1152 26.6299 25.6792 26.8386 26.4248C27.0237 27.086 26.9778 27.7929 26.6341 28.3941C26.1073 29.3158 25.138 29.6824 24.1682 29.9463C24.1627 30.1297 24.1727 30.3223 24.1428 30.5035C24.1059 30.7276 24.0012 30.9523 23.8077 31.0823C23.5896 31.2287 23.3522 31.215 23.1061 31.1739C23.0042 31.1178 22.8997 31.0619 22.8163 30.9793C22.5377 30.7037 22.5827 30.278 22.5848 29.9188C22.0852 29.7914 21.6132 29.6326 21.178 29.3492C20.5569 28.9449 19.9844 28.2432 19.8363 27.5019C19.7878 27.2595 19.7999 27.0132 19.9474 26.8068C19.9624 26.7855 19.9784 26.765 19.9956 26.7453C20.0127 26.7257 20.0307 26.7069 20.0498 26.6891C20.0688 26.6713 20.0887 26.6546 20.1095 26.6388C20.1303 26.6231 20.1518 26.6084 20.1741 26.5949C20.1963 26.5814 20.2193 26.569 20.2428 26.5579C20.2664 26.5467 20.2904 26.5368 20.315 26.5281C20.3396 26.5194 20.3646 26.512 20.3899 26.5059C20.4152 26.4998 20.4408 26.495 20.4666 26.4915C20.5056 26.4859 20.5447 26.4831 20.584 26.4832C20.6234 26.4834 20.6625 26.4864 20.7014 26.4923C20.7403 26.4982 20.7786 26.507 20.8162 26.5186C20.8538 26.5302 20.8903 26.5445 20.9258 26.5615C21.3199 26.7521 21.3269 27.134 21.5079 27.4746C21.609 27.6651 21.7643 27.8322 21.9354 27.962C22.4766 28.3723 23.219 28.4631 23.8748 28.3683C24.3405 28.301 24.9189 28.1147 25.2028 27.7133C25.3596 27.4916 25.4054 27.2355 25.351 26.9712C25.1117 25.8085 23.5065 25.7657 22.5918 25.5237C22.1327 25.4021 21.6839 25.2192 21.2859 24.958C20.7099 24.5801 20.2888 24.0418 20.1515 23.3583C20.0056 22.6318 20.1318 21.8674 20.5449 21.2492C21.0115 20.5506 21.7697 20.1234 22.5812 19.9577C22.58 19.6646 22.5525 19.3116 22.6917 19.0431C22.7989 18.8367 22.9702 18.726 23.1863 18.6559Z" fill="#93C704"/>
<path d="M39.4732 35.4084C39.5361 35.4005 39.5993 35.3944 39.6626 35.3903C39.8714 35.3783 40.0886 35.4639 40.2417 35.6046C40.2597 35.6209 40.2768 35.638 40.293 35.6561C40.3093 35.674 40.3246 35.6928 40.339 35.7123C40.3533 35.7319 40.3667 35.7521 40.3791 35.773C40.3914 35.7939 40.4026 35.8153 40.4128 35.8373C40.4231 35.8593 40.4321 35.8818 40.4401 35.9047C40.448 35.9276 40.4548 35.9509 40.4604 35.9744C40.466 35.998 40.4704 36.0218 40.4737 36.0459C40.4769 36.0699 40.4789 36.0941 40.4797 36.1183C40.4884 36.3939 40.3606 36.5962 40.1791 36.7884C39.3887 37.6255 38.5467 38.4253 37.7325 39.2399L36.8256 40.1464C36.6453 40.3266 36.4653 40.5262 36.2641 40.6827C36.1339 40.7842 35.9603 40.8523 35.794 40.8517C35.6499 40.8511 35.5158 40.7936 35.3966 40.7159C35.1347 40.5451 34.916 40.2828 34.6965 40.0615L33.7965 39.1589C33.5006 38.8652 32.9529 38.4512 32.896 38.0271C32.8925 38.0015 32.8902 37.9758 32.8892 37.9499C32.8882 37.9241 32.8886 37.8983 32.8903 37.8725C32.892 37.8466 32.895 37.821 32.8993 37.7955C32.9036 37.77 32.9092 37.7448 32.9161 37.7199C32.923 37.695 32.9311 37.6705 32.9405 37.6464C32.9499 37.6223 32.9604 37.5988 32.9722 37.5757C32.984 37.5527 32.9969 37.5304 33.011 37.5087C33.025 37.487 33.0402 37.466 33.0564 37.4459C33.073 37.4253 33.0906 37.4055 33.1092 37.3866C33.1278 37.3678 33.1474 37.35 33.1678 37.3331C33.1883 37.3163 33.2095 37.3005 33.2316 37.2859C33.2537 37.2712 33.2764 37.2577 33.2999 37.2453C33.3234 37.233 33.3474 37.222 33.3719 37.2121C33.3965 37.2022 33.4216 37.1936 33.447 37.1864C33.4725 37.1791 33.4983 37.1731 33.5244 37.1685C33.5505 37.1639 33.5767 37.1606 33.6032 37.1586C33.7824 37.145 33.9578 37.1948 34.1095 37.2894C34.318 37.4193 34.4923 37.6276 34.6648 37.8016C35.0414 38.1815 35.4104 38.5905 35.8187 38.9357C36.3602 38.3159 37.0453 37.6914 37.6326 37.1033C38.1037 36.6316 38.6901 35.9793 39.1895 35.5671C39.2789 35.4933 39.3657 35.4506 39.4732 35.4084Z" fill="#93C704"/>
</svg>
