<svg width="51" height="51" viewBox="0 0 51 51" fill="none" xmlns="http://www.w3.org/2000/svg">
<path d="M21.2111 4.76946C21.2302 4.76618 21.2492 4.76274 21.2684 4.76053C21.4385 4.74096 21.6102 4.76499 21.7448 4.87932C21.9484 5.05231 22.1157 5.34458 22.2745 5.56245L23.211 6.84921L24.468 8.57077C24.6775 8.85804 24.9111 9.14412 25.0997 9.44517C25.1677 9.55373 25.2331 9.68272 25.2402 9.81287C25.248 9.95616 25.1789 10.1023 25.0783 10.202C24.7854 10.492 23.9236 10.3983 23.5211 10.3938L23.5237 13.4247C23.524 13.892 23.5685 14.4118 23.5097 14.8746C23.4931 15.0051 23.4427 15.1297 23.3474 15.2225C23.0776 15.4853 21.9211 15.3907 21.5284 15.3891C21.094 15.3865 20.6595 15.3952 20.2251 15.3954C19.9701 15.3956 19.5919 15.4104 19.404 15.2077C19.3283 15.1261 19.2914 15.0242 19.278 14.9152C19.2191 14.4365 19.2644 13.9015 19.2649 13.4176L19.269 10.3964C18.8718 10.3901 18.3918 10.452 18.0059 10.3653C17.8399 10.328 17.6924 10.2406 17.605 10.0915C17.5267 9.95795 17.5249 9.82399 17.5693 9.67859C17.5998 9.57888 17.6519 9.49339 17.7095 9.40762C18.2672 8.57795 18.8928 7.7803 19.4813 6.97111C19.9607 6.31202 20.4406 5.5737 20.9654 4.9581C21.0388 4.87205 21.111 4.82108 21.2111 4.76946ZM21.3673 6.2625C21.1306 6.62982 20.8561 6.9789 20.598 7.33177L19.1923 9.26417C19.5079 9.26101 19.9723 9.19893 20.221 9.43278C20.3226 9.5282 20.3471 9.71517 20.3605 9.84796C20.4073 10.3086 20.3704 10.8096 20.3701 11.2737L20.3683 14.2559C20.706 14.2599 21.0442 14.2684 21.3819 14.266C21.7201 14.2655 22.0619 14.2542 22.3997 14.2666C22.4199 13.2676 22.4063 12.2663 22.4056 11.267C22.4053 10.8124 22.3706 10.3277 22.4172 9.87615C22.4308 9.74452 22.4584 9.52197 22.5543 9.42791C22.7985 9.18814 23.2833 9.25812 23.5959 9.26933L22.1388 7.27011C21.9599 7.02426 21.5889 6.42992 21.3673 6.2625Z" fill="#93C704"/>
<path d="M30.3159 4.76575C30.3685 4.76004 30.4207 4.75516 30.4737 4.75445C30.6264 4.75241 30.769 4.80957 30.8768 4.91819C31.068 5.11091 31.2238 5.36453 31.3834 5.58408L32.2141 6.72437L33.5056 8.49689C33.7512 8.83322 34.02 9.16755 34.2382 9.52215C34.2966 9.61702 34.329 9.68571 34.3285 9.79988C34.3279 9.95732 34.2859 10.0987 34.1693 10.2093C33.8739 10.4894 33.0142 10.3989 32.6167 10.3921C32.6274 11.3716 32.6168 12.3526 32.6178 13.3322C32.6181 13.7958 32.667 14.4731 32.5968 14.9197C32.5781 15.0381 32.5269 15.1359 32.4409 15.2196C32.3765 15.2822 32.3066 15.3252 32.2202 15.3499C31.8804 15.447 31.0233 15.3913 30.6346 15.3898C30.1759 15.3872 29.1518 15.456 28.7639 15.3568C28.662 15.3307 28.5659 15.2724 28.4934 15.1964C28.4152 15.1144 28.3827 15.0212 28.3684 14.9106C28.3087 14.4472 28.3554 13.9061 28.3555 13.4327L28.3575 10.3966C27.975 10.396 27.4222 10.452 27.0587 10.3546C26.9144 10.3161 26.7755 10.2375 26.7042 10.1016C26.6272 9.95484 26.6225 9.80079 26.6759 9.6454C26.7802 9.34127 27.2739 8.75924 27.4805 8.4757L28.8014 6.66172L29.6063 5.55734C29.755 5.35349 29.8974 5.1336 30.0636 4.9443C30.1374 4.86021 30.2163 4.81474 30.3159 4.76575ZM30.4607 6.26376C29.975 7.00363 29.4143 7.71171 28.892 8.42785C28.6902 8.70433 28.4714 8.98054 28.2917 9.27197C28.6199 9.26089 29.0595 9.1972 29.3167 9.443C29.504 9.62193 29.4721 10.0582 29.4721 10.2992C29.4724 11.6161 29.4974 12.9397 29.4688 14.2559C29.8468 14.263 30.2248 14.2666 30.6029 14.2666C30.8989 14.2664 31.2032 14.2525 31.498 14.2725L31.5016 11.3311C31.501 10.8569 31.4622 10.3447 31.5102 9.87433C31.525 9.73038 31.5468 9.52891 31.6581 9.42644C31.9132 9.1918 32.3703 9.25865 32.688 9.27057C32.4146 8.89479 30.6612 6.40024 30.4607 6.26376Z" fill="#93C704"/>
<path d="M41.8525 1.0779C42.0083 1.07085 42.1441 1.09203 42.269 1.19127C42.5701 1.43043 42.9277 2.02405 43.1609 2.34826L44.1103 3.65201L46.1395 6.43566C46.4856 6.91043 46.8546 7.3801 47.1804 7.86854C47.2562 7.98229 47.3178 8.08812 47.3278 8.22755C47.3393 8.3854 47.2763 8.55111 47.1666 8.66496C47.0691 8.76617 46.8912 8.80583 46.7577 8.82325C46.517 8.85462 46.2582 8.83526 46.0156 8.83496C45.6139 8.83448 45.212 8.84216 44.8103 8.83385L44.8109 16.7303L44.8127 19.1527C44.8131 19.5646 44.8464 20.0061 44.7986 20.414C44.7835 20.5432 44.7343 20.6648 44.6423 20.7592C44.5499 20.8539 44.4105 20.8937 44.2838 20.9152C44.0266 20.9588 43.7367 20.9338 43.4756 20.9332L42.0359 20.9293C41.5327 20.9282 41.0296 20.9296 40.5264 20.9336C40.234 20.936 39.9135 20.9634 39.6246 20.9212C39.4983 20.9028 39.3515 20.8701 39.2575 20.7772C39.1782 20.6988 39.1191 20.611 39.104 20.4989C39.0499 20.0975 39.0841 19.6516 39.0846 19.2461L39.0874 16.8974L39.0897 8.8385C38.6349 8.83209 37.2118 8.90487 36.8808 8.76065C36.7501 8.70364 36.6286 8.60741 36.5788 8.46947C36.5284 8.33011 36.5597 8.13776 36.6274 8.00928C36.7938 7.69306 37.0518 7.39239 37.2629 7.10321L38.546 5.34632L40.4791 2.69319C40.8198 2.22346 41.1452 1.70335 41.5277 1.26826C41.6273 1.15484 41.7096 1.12226 41.8525 1.0779ZM41.9345 2.59755C41.3137 3.40827 40.7229 4.2444 40.1218 5.06983C39.4767 5.94689 38.838 6.82853 38.2056 7.71474C38.6123 7.70503 39.7451 7.60632 40.0264 7.87408C40.1215 7.96449 40.1668 8.08844 40.1789 8.21645C40.2213 8.66591 40.1909 9.14518 40.1906 9.59707L40.189 12.232C40.1879 14.7524 40.2233 17.2778 40.1852 19.7975C40.8102 19.8102 41.4353 19.8142 42.0603 19.8094C42.6003 19.8091 43.1605 19.7812 43.6984 19.8166C43.6722 17.2989 43.6974 14.778 43.6973 12.2599L43.6961 9.67334C43.6955 9.19915 43.6683 8.70665 43.7107 8.2352C43.7229 8.10014 43.764 7.96906 43.8594 7.86891C44.0965 7.61972 45.0896 7.70027 45.4458 7.7078C45.5276 7.70954 45.6093 7.71197 45.691 7.7151C45.2768 7.14656 42.0832 2.68891 41.9345 2.59755Z" fill="#93C704"/>
<path d="M9.83854 1.07618C9.99655 1.06725 10.1582 1.09766 10.2803 1.20497C10.5386 1.43202 10.7497 1.80159 10.9528 2.08067L12.141 3.71255L14.1223 6.43238C14.4778 6.91889 14.8678 7.40186 15.1918 7.90894C15.2662 8.02546 15.3171 8.13119 15.3175 8.27302C15.3178 8.42011 15.25 8.56571 15.145 8.66747C15.0671 8.74308 14.9794 8.78417 14.8735 8.80521C14.6065 8.8582 14.3111 8.83505 14.0393 8.83554C13.6251 8.83916 13.211 8.83755 12.7969 8.83071L12.7964 16.6829L12.7981 19.1086C12.7984 19.5276 12.8269 19.9684 12.7861 20.3844C12.7717 20.532 12.7274 20.6606 12.6203 20.7677C12.5337 20.8544 12.4053 20.8909 12.2877 20.9117C12.0179 20.9593 11.7192 20.9338 11.445 20.9332L10.005 20.9293L8.5227 20.9339C8.22993 20.9361 7.91066 20.9644 7.6221 20.9227C7.48064 20.9023 7.31152 20.8577 7.20773 20.7525C7.12567 20.6694 7.08699 20.5461 7.07697 20.4324C7.03837 19.9948 7.06592 19.5331 7.06639 19.0928L7.0675 16.6621L7.06923 8.83789C6.60515 8.83106 5.23485 8.90713 4.88399 8.76805C4.74931 8.71466 4.62451 8.62218 4.56996 8.48372C4.513 8.33913 4.53454 8.15867 4.60459 8.02216C4.79489 7.65126 5.10759 7.30078 5.35446 6.96235L6.93223 4.7977L8.63487 2.45562C8.91907 2.06436 9.1934 1.63052 9.51513 1.26959C9.61391 1.15877 9.69814 1.12086 9.83854 1.07618ZM9.92559 2.59988C9.38899 3.26413 8.90368 3.97975 8.4007 4.67042C7.65873 5.68137 6.92223 6.69628 6.19118 7.71514C6.5962 7.7042 7.35289 7.64755 7.72717 7.73682C7.85079 7.7663 7.96061 7.82041 8.05373 7.90738C8.17705 8.02255 8.1789 8.41887 8.1813 8.58187C8.21415 10.8251 8.18013 13.0738 8.18052 15.3177L8.18093 18.2398C8.18098 18.7565 8.19846 19.2805 8.17612 19.7965C8.77753 19.8112 9.37902 19.8156 9.98058 19.8096C10.5437 19.8092 11.1257 19.7814 11.6867 19.8188C11.6691 18.9865 11.6846 18.1512 11.6847 17.3187L11.6848 12.5704L11.6838 9.76795C11.6833 9.2686 11.655 8.74966 11.6941 8.25282C11.7043 8.12236 11.7413 7.98207 11.8323 7.88321C12.0032 7.69769 12.3335 7.7009 12.5675 7.70096C12.9362 7.70105 13.3065 7.70109 13.6749 7.71493L10.9882 4.02254C10.808 3.77519 10.0891 2.71503 9.92559 2.59988Z" fill="#93C704"/>
<path d="M22.4691 16.6592C22.552 16.6568 22.635 16.6549 22.718 16.6537C24.1743 16.6336 25.6335 16.6548 27.0901 16.6544L28.5295 16.6506C28.8241 16.6497 29.1291 16.6338 29.422 16.6689C29.5704 16.6868 29.7 16.723 29.8072 16.8329C29.8797 16.9071 29.922 16.9712 29.9393 17.0739C30.0149 17.5251 29.9667 18.0467 29.9663 18.5048L29.9649 21.2598C30.2112 21.3706 30.4714 21.4576 30.7223 21.5587C31.0283 21.6821 31.3284 21.8218 31.6318 21.9517C31.6624 21.9102 31.6942 21.8697 31.7292 21.8319C32.2894 21.2285 32.8988 20.6578 33.4814 20.0756C33.8024 19.7547 34.2011 19.2915 34.5568 19.0239C34.6481 18.9553 34.7537 18.9266 34.8674 18.9261C35.1253 18.9249 35.2945 19.1089 35.4633 19.2769L38.7203 22.5338L39.6907 23.5036C39.8698 23.6826 40.0753 23.8619 40.23 24.0618C40.3018 24.1545 40.3294 24.2683 40.3266 24.3847C40.3236 24.5055 40.2966 24.5845 40.2262 24.6823C39.957 25.0567 39.549 25.3947 39.2217 25.7221L37.3072 27.634C37.3709 27.7926 37.9661 29.2096 37.9983 29.2313C38.2329 29.3906 41.4685 29.1962 42.0688 29.3016C42.2076 29.326 42.3501 29.3775 42.4559 29.4737C42.6072 29.6115 42.5925 29.82 42.601 30.0108C42.6217 30.4798 42.6049 30.9558 42.605 31.4256L42.6055 34.0685V35.8416C42.6054 36.1458 42.6264 36.4661 42.5951 36.7682C42.5795 36.9198 42.5368 37.0634 42.4284 37.1749C42.3253 37.281 42.2178 37.3032 42.0736 37.3232C41.6361 37.384 41.1498 37.3439 40.7072 37.3434C39.7992 37.3368 38.8912 37.3399 37.9832 37.3524C37.7763 37.9074 37.5198 38.4394 37.3089 38.9904L39.2375 40.9116C39.5522 41.2258 39.9224 41.5411 40.1945 41.8905C40.27 41.9873 40.325 42.0684 40.3277 42.1941C40.3337 42.4626 40.2128 42.5905 40.0361 42.7724C38.9689 43.8717 37.8666 44.9417 36.7833 46.0256L35.7673 47.0422C35.5894 47.2203 35.4075 47.4346 35.2054 47.5843C35.0928 47.6675 34.9781 47.706 34.8379 47.7045C34.7014 47.703 34.611 47.6302 34.5086 47.5479C34.1477 47.2584 33.827 46.8862 33.4997 46.5578L31.6288 44.6866C31.3446 44.7656 31.0612 44.9232 30.788 45.0395C30.5185 45.1543 30.2392 45.2461 29.9769 45.377C29.946 45.7303 29.9657 46.1007 29.9662 46.4554L29.9694 48.4434C29.9698 48.7615 29.9896 49.0946 29.9568 49.411C29.9451 49.5227 29.9233 49.6369 29.8588 49.7311C29.7609 49.8741 29.6168 49.9341 29.4521 49.9633C28.9756 49.9925 28.4907 49.9747 28.0132 49.9748L25.4887 49.9756L23.557 49.9758C23.1829 49.9758 22.7944 49.9968 22.4227 49.9581C22.2899 49.9442 22.1877 49.9113 22.0877 49.8188C22.0133 49.75 21.9536 49.6628 21.9365 49.5616C21.8648 49.135 21.9119 48.6358 21.9124 48.2026C21.9168 47.2565 21.9157 46.3104 21.9091 45.3643C21.3538 45.1511 20.8075 44.9318 20.2695 44.6771C19.6044 45.3197 18.9582 45.9843 18.3047 46.6389C18.0007 46.9433 17.6986 47.2951 17.3604 47.5596C17.2584 47.6392 17.1667 47.7047 17.0332 47.7057C16.7844 47.7077 16.6693 47.5874 16.5003 47.4238C15.4048 46.3642 14.3401 45.267 13.2618 44.1895L12.2011 43.1281C12.007 42.9336 11.7844 42.7383 11.6181 42.5201C11.5602 42.4441 11.5505 42.3354 11.5508 42.2433C11.5512 42.0963 11.6092 42.0054 11.695 41.8887C11.9417 41.5528 12.31 41.2461 12.6057 40.9508L14.5756 38.9813C14.3188 38.4509 14.0956 37.9066 13.9059 37.3486C13.0039 37.3404 12.102 37.3387 11.2 37.3436C10.7566 37.345 10.2791 37.3818 9.83871 37.3313C9.70664 37.3161 9.56658 37.296 9.46619 37.2017C9.30094 37.0467 9.29721 36.8621 9.28824 36.6491C9.26914 36.1955 9.29029 35.735 9.29057 35.2807L9.29022 32.5466L9.2865 30.8286C9.28485 30.5213 9.26529 30.2026 9.28995 29.8967C9.30205 29.7465 9.33146 29.5704 9.44092 29.4583C9.46018 29.4387 9.48083 29.4207 9.50288 29.4043C9.52493 29.3879 9.54811 29.3733 9.57242 29.3605C9.59673 29.3477 9.62188 29.3368 9.64787 29.3279C9.67387 29.3191 9.70039 29.3122 9.72744 29.3074C10.1449 29.235 10.6382 29.2854 11.0643 29.2858L13.8889 29.2892C14.0009 28.9918 14.1121 28.6926 14.2388 28.4012C14.3503 28.1448 14.4822 27.8903 14.5693 27.6245C13.9754 27.0518 13.3989 26.4587 12.8144 25.8762C12.453 25.5162 12.0567 25.1645 11.7268 24.7774C11.6573 24.6959 11.5567 24.5831 11.5489 24.4728C11.5373 24.3103 11.5851 24.1517 11.6868 24.0258C11.9309 23.7239 12.2384 23.4521 12.5134 23.1773L14.0679 21.626L15.7143 19.978C16.0185 19.6724 16.3173 19.3399 16.6458 19.0609C16.7413 18.9798 16.8269 18.9377 16.9534 18.9271C17.1049 18.9145 17.1946 18.9527 17.3195 19.0374C17.6122 19.2356 17.8686 19.5444 18.1188 19.7952L19.4813 21.1623C19.7345 21.4163 19.9829 21.6902 20.2567 21.9214L20.2808 21.9413C20.8252 21.7171 21.351 21.4784 21.9049 21.2733C21.9328 20.9089 21.9158 20.5326 21.9154 20.1672L21.9138 18.213C21.9136 17.8583 21.883 17.4726 21.9366 17.1221C21.9516 17.0241 21.9777 16.9519 22.0359 16.8716C22.1461 16.7194 22.2921 16.6864 22.4691 16.6592ZM23.0343 17.7864C23.0254 18.6808 23.0238 19.5752 23.0297 20.4696C23.0301 20.8851 23.0702 21.3351 23.0112 21.7445C22.9935 21.8682 22.9468 21.9828 22.8543 22.0692C22.6179 22.2901 21.9639 22.4425 21.635 22.57C21.4422 22.6447 21.2468 22.7184 21.0618 22.811C20.8547 22.9147 20.6494 23.0426 20.4338 23.1265C20.3364 23.1642 20.23 23.1927 20.1247 23.1887C20.0122 23.1845 19.937 23.1446 19.8471 23.079C19.5622 22.8712 19.3131 22.5788 19.0635 22.3284L17.7882 21.048C17.5274 20.7866 17.2706 20.5121 16.9906 20.271C16.6398 20.6503 16.263 21.0089 15.8971 21.3737L14.0167 23.2516C13.6439 23.6245 13.217 23.9955 12.8829 24.4024C13.3458 24.7651 13.7998 25.2858 14.2209 25.7058C14.677 26.1606 15.1883 26.61 15.6034 27.101C15.6826 27.1946 15.7935 27.3352 15.8136 27.4578C15.8309 27.5635 15.7812 27.7016 15.7438 27.8001C15.5721 28.2513 15.3117 28.6706 15.1374 29.1247C15.0093 29.4584 14.9438 29.9173 14.719 30.1969C14.5973 30.3482 14.4617 30.386 14.2746 30.401C13.6737 30.4487 13.0405 30.4095 12.4365 30.4094C11.7617 30.4092 11.0701 30.4425 10.3972 30.4127C10.3754 31.6173 10.3907 32.8243 10.3907 34.0292C10.3907 34.7512 10.3539 35.4933 10.3936 36.2133C11.2929 36.2223 12.1923 36.2245 13.0916 36.2197C13.5085 36.2195 13.9862 36.1751 14.3967 36.2431C14.5038 36.2607 14.6108 36.3122 14.6868 36.3902C14.8683 36.5766 15.197 37.6475 15.3369 37.9784C15.4562 38.2603 15.6355 38.5229 15.7408 38.8087C15.7775 38.9079 15.8065 39.014 15.8026 39.1207C15.7991 39.219 15.7687 39.2972 15.7139 39.3784C15.5238 39.6605 15.2362 39.9025 14.9951 40.1423L13.6059 41.5272C13.3662 41.7665 13.0926 42.0051 12.8833 42.2703C13.2402 42.541 13.5578 42.9123 13.8758 43.2305L15.9525 45.3092C16.2966 45.6535 16.6384 46.0469 17.014 46.3542C17.6349 45.7204 18.2598 45.0905 18.8887 44.4646C19.1887 44.1642 19.4903 43.8025 19.8302 43.5493C19.8521 43.5329 19.8752 43.5184 19.8994 43.5058C19.9237 43.4931 19.9488 43.4824 19.9747 43.4737C20.0007 43.4651 20.0272 43.4586 20.0542 43.4543C20.0812 43.4499 20.1084 43.4476 20.1358 43.4476C20.4747 43.4467 20.8539 43.7172 21.1579 43.8633C21.629 44.0897 22.1403 44.2037 22.6132 44.4132C22.7152 44.4584 22.8163 44.5167 22.8916 44.6005C22.965 44.6821 22.9971 44.7774 23.0119 44.8848C23.0769 45.3554 23.0298 46.0063 23.0295 46.4922C23.0288 47.2698 23.0628 48.0657 23.0231 48.8418C24.964 48.8777 26.9064 48.8307 28.8475 48.855L28.8484 46.2461C28.8477 45.7952 28.8003 45.2825 28.8749 44.8383C28.8918 44.7373 28.9331 44.6413 29.0053 44.5673C29.2102 44.357 30.1866 44.0935 30.5394 43.9421C30.836 43.8146 31.1114 43.6309 31.4113 43.514C31.5085 43.4761 31.6144 43.4474 31.7193 43.4477C31.8356 43.448 31.9309 43.4843 32.0253 43.5503C32.3223 43.758 32.5823 44.0663 32.8376 44.3233L34.1591 45.6474C34.3961 45.8836 34.6278 46.1369 34.8829 46.3529C35.5157 45.687 36.1777 45.0455 36.8275 44.3961C37.5433 43.6807 38.2519 42.9557 38.9774 42.2507C38.3376 41.5561 37.6427 40.9004 36.9733 40.2338C36.7041 39.9657 36.3544 39.6812 36.1399 39.3702C36.0869 39.2936 36.0661 39.2026 36.0691 39.1102C36.0806 38.7433 36.3835 38.3306 36.5317 38.0013C36.7315 37.5573 36.8416 37.0761 37.0368 36.635C37.0816 36.5339 37.1401 36.429 37.224 36.3551C37.2959 36.2918 37.385 36.2531 37.4794 36.2395C37.9607 36.17 38.6447 36.2203 39.1479 36.2207C39.9205 36.2214 40.7115 36.1851 41.482 36.2282L41.4846 30.4125L38.7998 30.4099C38.3681 30.4101 37.8821 30.4587 37.4584 30.3845C37.3525 30.3659 37.2723 30.3294 37.1965 30.2522C36.9264 29.9769 36.8396 29.3531 36.6834 28.9897C36.5127 28.5923 36.2745 28.2059 36.1258 27.8047C36.0906 27.7099 36.0711 27.618 36.0745 27.5165C36.0777 27.4195 36.1007 27.3191 36.1559 27.238C36.3972 26.8833 36.9739 26.3807 37.2931 26.0619C37.8431 25.5126 38.381 24.9265 38.9582 24.4085L38.9776 24.3913C38.7525 24.1289 38.4971 23.8892 38.2523 23.6449L37.0858 22.4811C36.3684 21.7632 35.6111 20.9393 34.8597 20.2706C34.2749 20.8782 33.6688 21.4671 33.0722 22.0632C32.7383 22.3969 32.4025 22.7938 32.0268 23.0783C31.9407 23.1434 31.861 23.179 31.7525 23.1832C31.6491 23.1872 31.5479 23.1625 31.4517 23.1265C31.0182 22.9636 30.624 22.6942 30.1841 22.5357C29.8442 22.4133 29.2211 22.2855 28.9766 22.0345C28.8999 21.9559 28.8812 21.8788 28.8653 21.773C28.8048 21.3684 28.8457 20.9103 28.8467 20.4992C28.849 19.5962 28.8635 18.69 28.8457 17.7873C27.5817 17.833 26.3045 17.7909 25.0389 17.7913L23.8204 17.7949C23.5625 17.7974 23.2896 17.8201 23.0343 17.7864Z" fill="#93C704"/>
<path d="M25.3762 24.3242C27.7071 24.2255 29.9036 24.9117 31.7061 26.4083C31.7622 26.455 31.8176 26.5024 31.8724 26.5505C31.9273 26.5986 31.9816 26.6473 32.0353 26.6966C32.089 26.746 32.142 26.7961 32.1945 26.8467C32.247 26.8974 32.2988 26.9487 32.3501 27.0006C32.4013 27.0526 32.4519 27.1051 32.5018 27.1582C32.5518 27.2114 32.6011 27.2652 32.6497 27.3196C32.6983 27.3739 32.7463 27.4289 32.7935 27.4844C32.8408 27.5399 32.8874 27.5961 32.9334 27.6528C32.9793 27.7094 33.0245 27.7666 33.069 27.8243C33.1136 27.8822 33.1574 27.9405 33.2005 27.9993C33.2436 28.0581 33.2859 28.1175 33.3276 28.1774C33.3693 28.2373 33.4102 28.2977 33.4505 28.3585C33.4906 28.4194 33.5301 28.4807 33.5687 28.5425C33.6075 28.6044 33.6454 28.6667 33.6826 28.7294C33.7198 28.7922 33.7562 28.8554 33.7918 28.919C33.8275 28.9826 33.8623 29.0467 33.8964 29.1113C33.9305 29.1757 33.9638 29.2406 33.9963 29.3059C34.0288 29.3712 34.0605 29.4369 34.0914 29.503C34.1222 29.569 34.1523 29.6355 34.1816 29.7023C34.2109 29.7691 34.2394 29.8362 34.2671 29.9037C34.2947 29.9713 34.3215 30.0391 34.3474 30.1073C34.3735 30.1754 34.3986 30.2438 34.4229 30.3126C34.4473 30.3814 34.4708 30.4504 34.4934 30.5198C34.5161 30.5891 34.5379 30.6587 34.5588 30.7285C34.5797 30.7984 34.5999 30.8685 34.6191 30.9389C34.6383 31.0093 34.6567 31.0798 34.6742 31.1506C34.6917 31.2214 34.7084 31.2925 34.7242 31.3637C34.74 31.4349 34.7549 31.5063 34.7689 31.5779C34.783 31.6494 34.7962 31.7212 34.8085 31.7931C34.8208 31.865 34.8322 31.937 34.8428 32.0092C34.8533 32.0813 34.863 32.1536 34.8718 32.2261C34.8805 32.2985 34.8885 32.371 34.8955 32.4436C34.9027 32.5177 34.909 32.592 34.9144 32.6663C34.9198 32.7406 34.9243 32.815 34.9279 32.8894C34.9314 32.9638 34.934 33.0383 34.9357 33.1128C34.9374 33.1873 34.9382 33.2618 34.9381 33.3363C34.9379 33.4108 34.9368 33.4853 34.9347 33.5598C34.9327 33.6343 34.9298 33.7087 34.9259 33.7831C34.922 33.8575 34.9172 33.9319 34.9115 34.0062C34.9058 34.0805 34.8991 34.1547 34.8915 34.2288C34.8839 34.3029 34.8754 34.377 34.866 34.4509C34.8566 34.5248 34.8462 34.5986 34.8349 34.6722C34.8237 34.7459 34.8115 34.8194 34.7984 34.8927C34.7853 34.9661 34.7713 35.0393 34.7563 35.1122C34.7414 35.1852 34.7256 35.258 34.7089 35.3307C34.6921 35.4033 34.6745 35.4757 34.6559 35.5479C34.6374 35.62 34.618 35.6919 34.5976 35.7636C34.5773 35.8353 34.5561 35.9067 34.534 35.9779C34.5119 36.049 34.4889 36.1199 34.465 36.1905C34.4411 36.261 34.4164 36.3313 34.3907 36.4013C34.3651 36.4713 34.3386 36.5409 34.3112 36.6102C34.2839 36.6795 34.2556 36.7485 34.2265 36.817C34.1974 36.8856 34.1675 36.9539 34.1367 37.0217C34.1059 37.0896 34.0743 37.157 34.0419 37.2242C34.0094 37.2912 33.9761 37.3578 33.942 37.4241C33.9079 37.4903 33.8729 37.5561 33.8371 37.6214C33.8013 37.6868 33.7648 37.7517 33.7274 37.8161C33.69 37.8806 33.6518 37.9446 33.6128 38.0081C33.5738 38.0716 33.5341 38.1346 33.4935 38.1971C33.453 38.2597 33.4116 38.3217 33.3695 38.3831C33.3275 38.4446 33.2846 38.5055 33.241 38.5659C33.1974 38.6264 33.153 38.6862 33.1079 38.7455C33.0628 38.8048 33.0169 38.8636 32.9704 38.9217C32.9238 38.9799 32.8765 39.0375 32.8285 39.0945C31.2426 40.9918 29.0075 42.0854 26.56 42.306C24.2186 42.3971 22.0769 41.7824 20.2506 40.2866C20.1931 40.2398 20.1363 40.1923 20.0801 40.1442C20.0238 40.096 19.9682 40.0471 19.9132 39.9976C19.8581 39.948 19.8037 39.8979 19.7499 39.847C19.6961 39.7961 19.643 39.7445 19.5904 39.6923C19.5379 39.6401 19.486 39.5873 19.4348 39.5338C19.3836 39.4803 19.3331 39.4262 19.2832 39.3715C19.2333 39.3168 19.1841 39.2614 19.1356 39.2055C19.0871 39.1495 19.0392 39.093 18.9922 39.0359C18.945 38.9787 18.8986 38.921 18.8529 38.8627C18.8073 38.8045 18.7623 38.7456 18.718 38.6863C18.6738 38.6269 18.6304 38.567 18.5876 38.5065C18.5448 38.446 18.5028 38.385 18.4616 38.3236C18.4203 38.262 18.3798 38.2 18.3401 38.1375C18.3004 38.075 18.2615 38.012 18.2233 37.9486C18.1852 37.8852 18.1478 37.8213 18.1112 37.7569C18.0746 37.6925 18.0388 37.6276 18.0039 37.5623C17.9689 37.497 17.9347 37.4313 17.9013 37.3653C17.868 37.2991 17.8355 37.2326 17.8038 37.1658C17.7721 37.0988 17.7412 37.0315 17.7112 36.9638C17.6811 36.8962 17.6519 36.8281 17.6235 36.7597C17.5952 36.6913 17.5677 36.6225 17.541 36.5534C17.5144 36.4844 17.4886 36.415 17.4636 36.3452C17.4386 36.2755 17.4146 36.2055 17.3914 36.1352C17.3681 36.0649 17.3458 35.9943 17.3243 35.9234C17.3028 35.8525 17.2822 35.7814 17.2625 35.7101C17.2428 35.6387 17.224 35.5671 17.206 35.4952C17.1881 35.4234 17.171 35.3513 17.1549 35.279C17.1387 35.2068 17.1235 35.1343 17.1091 35.0617C17.0947 34.9891 17.0812 34.9163 17.0686 34.8433C17.0561 34.7703 17.0444 34.6972 17.0336 34.624C17.0228 34.5506 17.013 34.4772 17.004 34.4037C16.9951 34.3302 16.987 34.2566 16.9799 34.1829C16.9728 34.1092 16.9666 34.0355 16.9613 33.9617C16.956 33.8878 16.9516 33.8139 16.9481 33.74C16.9447 33.666 16.9421 33.592 16.9405 33.518C16.9388 33.444 16.9381 33.3701 16.9383 33.296C16.9385 33.222 16.9396 33.148 16.9416 33.074C16.9435 32.9999 16.9464 32.926 16.9503 32.8521C16.9541 32.7781 16.9588 32.7042 16.9644 32.6304C16.9701 32.5566 16.9767 32.4829 16.9842 32.4092C16.9916 32.3356 16.9999 32.262 17.0092 32.1886C17.0185 32.1152 17.0287 32.0419 17.0397 31.9687C17.0508 31.8954 17.0628 31.8224 17.0757 31.7495C17.0885 31.6766 17.1022 31.6039 17.1169 31.5313C17.1316 31.4588 17.1472 31.3864 17.1636 31.3142C17.18 31.242 17.1974 31.17 17.2156 31.0983C17.2338 31.0265 17.2528 30.955 17.2728 30.8837C17.2928 30.8124 17.3137 30.7414 17.3354 30.6706C17.3571 30.5999 17.3797 30.5294 17.4032 30.4592C17.4266 30.389 17.451 30.3191 17.4762 30.2494C17.5013 30.1798 17.5274 30.1106 17.5543 30.0416C17.5812 29.9726 17.6089 29.904 17.6375 29.8357C17.6661 29.7674 17.6955 29.6995 17.7257 29.632C17.7559 29.5644 17.787 29.4972 17.8189 29.4304C17.8508 29.3636 17.8835 29.2972 17.9171 29.2312C17.9506 29.1652 17.9849 29.0996 18.0201 29.0345C18.0553 28.9693 18.0912 28.9046 18.128 28.8404C18.1647 28.7761 18.2023 28.7123 18.2406 28.649C18.2789 28.5856 18.318 28.5228 18.3578 28.4604C18.3977 28.398 18.4384 28.3361 18.4798 28.2747C18.5211 28.2133 18.5632 28.1525 18.6061 28.0922C18.649 28.0319 18.6927 27.972 18.737 27.9127C18.7813 27.8535 18.8264 27.7948 18.8722 27.7367C18.9181 27.6785 18.9646 27.6209 19.0118 27.5639C20.6666 25.5617 22.822 24.5706 25.3762 24.3242ZM25.464 25.4479C23.1906 25.6704 21.3117 26.5189 19.8423 28.3092C19.8009 28.3595 19.7602 28.4104 19.7201 28.4617C19.6801 28.5131 19.6406 28.5649 19.6018 28.6172C19.563 28.6696 19.5249 28.7224 19.4874 28.7756C19.4499 28.8289 19.4131 28.8826 19.3769 28.9368C19.3407 28.991 19.3053 29.0456 19.2705 29.1006C19.2357 29.1557 19.2015 29.2112 19.168 29.2671C19.1347 29.323 19.1019 29.3794 19.0699 29.4361C19.0379 29.4928 19.0066 29.5499 18.976 29.6074C18.9454 29.6648 18.9154 29.7227 18.8862 29.781C18.857 29.8392 18.8286 29.8978 18.8009 29.9568C18.7731 30.0157 18.7461 30.075 18.7199 30.1346C18.6937 30.1942 18.6681 30.2542 18.6433 30.3144C18.6186 30.3746 18.5946 30.4352 18.5713 30.496C18.548 30.5568 18.5255 30.6179 18.5038 30.6793C18.482 30.7407 18.461 30.8024 18.4408 30.8644C18.4206 30.9263 18.4011 30.9884 18.3824 31.0508C18.3637 31.1132 18.3458 31.1759 18.3287 31.2387C18.3116 31.3015 18.2952 31.3646 18.2797 31.4279C18.2641 31.4911 18.2493 31.5545 18.2353 31.6181C18.2213 31.6818 18.2081 31.7456 18.1957 31.8095C18.1833 31.8734 18.1716 31.9375 18.1608 32.0018C18.15 32.066 18.14 32.1303 18.1307 32.1949C18.1215 32.2593 18.1131 32.3239 18.1055 32.3886C18.0978 32.4533 18.091 32.518 18.0849 32.5829C18.079 32.6478 18.0737 32.7127 18.0693 32.7777C18.0649 32.8426 18.0613 32.9077 18.0585 32.9728C18.0557 33.0379 18.0537 33.103 18.0525 33.1681C18.0513 33.2332 18.051 33.2983 18.0514 33.3635C18.0518 33.4287 18.0531 33.4938 18.0552 33.5589C18.0572 33.624 18.06 33.6891 18.0637 33.7541C18.0673 33.8191 18.0718 33.8841 18.077 33.9491C18.0823 34.014 18.0884 34.0788 18.0953 34.1436C18.1089 34.2714 18.1256 34.3989 18.1454 34.5259C18.1652 34.653 18.1882 34.7795 18.2141 34.9054C18.2402 35.0313 18.2693 35.1565 18.3013 35.281C18.3335 35.4055 18.3687 35.5292 18.4068 35.6519C18.445 35.7747 18.4862 35.8965 18.5304 36.0172C18.5745 36.138 18.6216 36.2576 18.6716 36.3761C18.7216 36.4945 18.7744 36.6117 18.8302 36.7276C18.8859 36.8435 18.9444 36.9579 19.0057 37.0709C19.0671 37.184 19.1311 37.2954 19.1979 37.4052C19.2647 37.5151 19.3342 37.6233 19.4062 37.7298C19.4783 37.8363 19.5529 37.9409 19.6301 38.0437C19.7073 38.1465 19.787 38.2474 19.8691 38.3463C19.9512 38.4453 20.0357 38.5422 20.1226 38.6369C20.2095 38.7317 20.2986 38.8243 20.39 38.9148C20.4814 39.0052 20.575 39.0934 20.6707 39.1792C20.7664 39.2651 20.8641 39.3486 20.9639 39.4296C22.5275 40.7037 24.4156 41.2647 26.4168 41.1858C28.6011 41 30.5283 40.0829 31.9536 38.4033C31.9953 38.3543 32.0363 38.3048 32.0768 38.2548C32.1173 38.2048 32.1572 38.1544 32.1964 38.1034C32.2356 38.0525 32.2742 38.001 32.3122 37.9492C32.3502 37.8972 32.3875 37.8448 32.4242 37.792C32.4609 37.7392 32.4969 37.686 32.5323 37.6323C32.5677 37.5785 32.6024 37.5243 32.6364 37.4698C32.6705 37.4152 32.7038 37.3602 32.7365 37.3048C32.7692 37.2495 32.8012 37.1937 32.8325 37.1375C32.8638 37.0813 32.8944 37.0248 32.9244 36.9679C32.9543 36.9109 32.9836 36.8536 33.0121 36.796C33.0406 36.7383 33.0684 36.6803 33.0955 36.622C33.1226 36.5637 33.1489 36.5051 33.1746 36.4461C33.2002 36.3871 33.2251 36.3278 33.2493 36.2682C33.2735 36.2086 33.297 36.1488 33.3197 36.0886C33.3424 36.0284 33.3644 35.968 33.3856 35.9073C33.4069 35.8466 33.4273 35.7856 33.4471 35.7244C33.4668 35.6632 33.4858 35.6017 33.504 35.5401C33.5222 35.4784 33.5397 35.4165 33.5564 35.3544C33.5731 35.2923 33.589 35.23 33.6042 35.1675C33.6193 35.105 33.6338 35.0423 33.6474 34.9794C33.6611 34.9166 33.6739 34.8536 33.686 34.7905C33.6981 34.7272 33.7094 34.6639 33.7199 34.6005C33.7304 34.537 33.7401 34.4735 33.7491 34.4098C33.758 34.3461 33.7662 34.2823 33.7736 34.2184C33.781 34.1545 33.7876 34.0906 33.7934 34.0265C33.7992 33.9624 33.8042 33.8983 33.8085 33.8342C33.8127 33.77 33.8162 33.7058 33.8188 33.6415C33.8215 33.5773 33.8234 33.513 33.8245 33.4487C33.8255 33.3843 33.8258 33.32 33.8254 33.2558C33.8249 33.1915 33.8235 33.1271 33.8215 33.0628C33.8194 32.9986 33.8165 32.9343 33.8129 32.8701C33.8092 32.806 33.8047 32.7418 33.7995 32.6777C33.7942 32.613 33.7882 32.5484 33.7813 32.4839C33.7745 32.4195 33.7668 32.3551 33.7584 32.2908C33.7499 32.2264 33.7407 32.1622 33.7306 32.0982C33.7206 32.0341 33.7098 31.9702 33.6982 31.9064C33.6866 31.8426 33.6742 31.7789 33.661 31.7154C33.6479 31.6519 33.6339 31.5886 33.6191 31.5254C33.6044 31.4622 33.5889 31.3992 33.5726 31.3365C33.5563 31.2737 33.5392 31.2111 33.5214 31.1488C33.5035 31.0864 33.4849 31.0243 33.4656 30.9623C33.4462 30.9005 33.4261 30.8389 33.4052 30.7775C33.3843 30.7161 33.3626 30.6549 33.3402 30.5941C33.3178 30.5332 33.2947 30.4726 33.2708 30.4123C33.2468 30.352 33.2222 30.292 33.1969 30.2324C33.1715 30.1727 33.1453 30.1133 33.1184 30.0542C33.0916 29.9952 33.064 29.9365 33.0357 29.8782C33.0075 29.8198 32.9785 29.7618 32.9487 29.7041C32.919 29.6465 32.8885 29.5893 32.8574 29.5324C32.8263 29.4755 32.7944 29.4189 32.7619 29.3628C32.7293 29.3067 32.6961 29.251 32.6622 29.1957C32.6283 29.1405 32.5937 29.0856 32.5584 29.0312C32.5232 28.9768 32.4873 28.9228 32.4507 28.8692C32.414 28.8157 32.3767 28.7626 32.3388 28.71C32.301 28.6573 32.2624 28.6052 32.2232 28.5535C32.184 28.5019 32.1442 28.4506 32.1037 28.3999C32.0633 28.3493 32.0222 28.2991 31.9805 28.2494C31.9388 28.1998 31.8965 28.1506 31.8535 28.102C31.8106 28.0534 31.7671 28.0052 31.723 27.9576C31.6789 27.9101 31.6342 27.8631 31.5889 27.8166C31.5437 27.7702 31.4979 27.7243 31.4514 27.679C31.4051 27.6337 31.3582 27.5889 31.3106 27.5448C31.2631 27.5006 31.2151 27.4571 31.1665 27.4141C31.1179 27.3711 31.0688 27.3287 31.0192 27.2869C30.9238 27.2063 30.8265 27.1279 30.7273 27.0519C30.6282 26.9759 30.5273 26.9023 30.4246 26.8311C30.3219 26.7599 30.2176 26.6911 30.1116 26.6249C30.0056 26.5587 29.8981 26.4951 29.7891 26.434C29.6802 26.3729 29.5698 26.3145 29.458 26.2586C29.3461 26.2028 29.2331 26.1497 29.1187 26.0993C29.0044 26.049 28.8889 26.0013 28.7723 25.9564C28.6557 25.9115 28.5381 25.8695 28.4195 25.8302C28.3009 25.7909 28.1814 25.7545 28.061 25.7209C27.9406 25.6873 27.8195 25.6567 27.6977 25.6289C27.5759 25.6011 27.4535 25.5763 27.3305 25.5543C27.2075 25.5325 27.084 25.5135 26.96 25.4974C26.8361 25.4814 26.7119 25.4683 26.5874 25.4582C26.4628 25.4481 26.3381 25.441 26.2133 25.4369C26.0884 25.4328 25.9635 25.4316 25.8386 25.4334C25.7136 25.4353 25.5888 25.4401 25.464 25.4479Z" fill="#93C704"/>
<path d="M24.7543 30.9358C24.869 30.9272 24.9885 30.9311 25.096 30.9758C25.1708 31.007 25.2454 31.0593 25.2957 31.1235C25.4565 31.3284 25.5804 31.5755 25.7105 31.8011L26.3424 32.8958L27.0919 34.1901C27.2365 34.4402 27.4087 34.698 27.5141 34.9671C27.5674 35.1034 27.5558 35.2544 27.4915 35.3861C27.4131 35.5467 27.2774 35.6329 27.1151 35.6923C27.0091 35.6964 26.901 35.7016 26.7995 35.6653C26.7013 35.6301 26.6182 35.5632 26.5569 35.4795C26.4119 35.2815 26.2952 35.0518 26.1728 34.8389L25.5243 33.7115L24.7907 32.4448C24.65 32.2014 24.4913 31.9567 24.3763 31.7005C24.3182 31.5711 24.325 31.3791 24.3804 31.249C24.4543 31.0749 24.5866 31.0031 24.7543 30.9358Z" fill="#93C704"/>
<path d="M22.7333 30.9345C22.8062 30.9309 22.8761 30.93 22.9484 30.942C23.1175 30.9703 23.2524 31.0844 23.3434 31.2264C23.4117 31.3328 23.4333 31.4547 23.4002 31.5773C23.3597 31.7275 23.2498 31.8513 23.134 31.95C22.9003 32.1493 22.6025 32.3085 22.3449 32.4779C21.9251 32.7538 21.5103 33.0513 21.0741 33.3002C21.6098 33.6992 22.194 34.0359 22.7455 34.4128C22.8961 34.5158 23.0706 34.607 23.2054 34.73C23.2429 34.7641 23.2761 34.802 23.3049 34.8437C23.3337 34.8854 23.3575 34.9297 23.3763 34.9768C23.4236 35.0988 23.4229 35.2326 23.3684 35.3519C23.3024 35.4963 23.1768 35.605 23.0279 35.6579C22.8438 35.7233 22.7036 35.6839 22.5316 35.6059L20.6382 34.3621C20.3355 34.163 19.9763 33.9702 19.7061 33.7305C19.624 33.6576 19.5615 33.5851 19.5264 33.4792C19.485 33.3548 19.4887 33.2242 19.5474 33.1062C19.6108 32.9789 19.7083 32.8812 19.8188 32.7939C20.0471 32.6135 20.3187 32.4731 20.5621 32.3125C20.9987 32.0246 22.3377 31.0668 22.7333 30.9345Z" fill="#93C704"/>
<path d="M28.8796 30.9398C28.944 30.9343 29.0086 30.9311 29.073 30.9382C29.1744 30.9494 29.2747 30.9942 29.3632 31.0429C29.6984 31.2268 32.1305 32.8119 32.2596 32.982C32.3543 33.1066 32.3895 33.2826 32.3608 33.4353C32.3363 33.566 32.2199 33.6813 32.123 33.7644C31.8438 34.0044 31.4951 34.1964 31.1867 34.3976L29.4686 35.5233C29.2278 35.6782 29.0875 35.7101 28.803 35.6741C28.717 35.6084 28.6292 35.5434 28.5659 35.4541C28.4865 35.3423 28.4444 35.216 28.4698 35.0787C28.4926 34.9545 28.5534 34.8542 28.6405 34.7645C28.8465 34.552 29.1418 34.3945 29.3892 34.2333C29.856 33.9293 30.332 33.6336 30.7878 33.3132C30.3599 32.9755 28.6535 32.0423 28.5018 31.676C28.4499 31.5505 28.4575 31.4118 28.5091 31.2874C28.5846 31.1057 28.7037 31.0145 28.8796 30.9398Z" fill="#93C704"/>
</svg>
