<svg width="51" height="51" viewBox="0 0 51 51" fill="none" xmlns="http://www.w3.org/2000/svg">
<g clip-path="url(#clip0_1094_12620)">
<path d="M19.3226 43.8938C18.3427 43.8779 17.4859 43.6751 16.78 42.9461C16.7445 42.9101 16.7099 42.8732 16.6763 42.8355C16.6426 42.7977 16.6099 42.7591 16.5782 42.7198C16.5465 42.6804 16.5158 42.6403 16.486 42.5993C16.4563 42.5585 16.4277 42.5168 16.4001 42.4744C16.3725 42.4321 16.3459 42.389 16.3205 42.3453C16.295 42.3017 16.2706 42.2574 16.2473 42.2125C16.2241 42.1676 16.202 42.1221 16.181 42.0761C16.1601 42.0301 16.1403 41.9836 16.1217 41.9366C16.103 41.8896 16.0856 41.8421 16.0693 41.7943C16.053 41.7464 16.038 41.6981 16.0241 41.6494C16.0103 41.6008 15.9977 41.5519 15.9863 41.5027C15.9749 41.4534 15.9648 41.4038 15.9558 41.354C15.9469 41.3043 15.9393 41.2543 15.9329 41.2041C15.9264 41.154 15.9213 41.1037 15.9174 41.0534C15.9135 41.0029 15.9109 40.9524 15.9096 40.9019C15.9082 40.8513 15.9081 40.8007 15.9093 40.7502C15.9103 40.6988 15.9126 40.6474 15.9162 40.5961C15.9198 40.5448 15.9247 40.4937 15.9308 40.4426C15.937 40.3916 15.9444 40.3407 15.9531 40.29C15.9618 40.2393 15.9718 40.1889 15.983 40.1387C15.9942 40.0885 16.0066 40.0386 16.0203 39.9891C16.034 39.9395 16.049 39.8903 16.0651 39.8414C16.0813 39.7926 16.0986 39.7442 16.1172 39.6963C16.1357 39.6483 16.1555 39.6009 16.1764 39.5539C16.1973 39.5069 16.2194 39.4605 16.2427 39.4147C16.2659 39.3688 16.2903 39.3235 16.3158 39.2788C16.3413 39.2342 16.3679 39.1902 16.3956 39.1469C16.4233 39.1035 16.452 39.0609 16.4819 39.0191C16.5117 38.9772 16.5426 38.936 16.5744 38.8956C16.6063 38.8553 16.6392 38.8158 16.673 38.7771C16.7069 38.7383 16.7417 38.7005 16.7774 38.6635C16.8131 38.6265 16.8497 38.5905 16.8873 38.5553C17.2365 38.2253 17.6259 38.0244 18.0747 37.8631C18.3341 37.7699 18.6675 37.7526 18.9422 37.741C19.7749 37.7059 20.6197 37.7334 21.4536 37.7333L26.1538 37.7336L29.7287 37.7339C30.3844 37.7338 31.0587 37.7029 31.7123 37.7521C32.1224 37.7829 32.4887 37.8694 32.859 38.051C33.5485 38.3893 34.1591 39.0467 34.4013 39.7806C34.6641 40.5773 34.6264 41.436 34.2435 42.1878C34.2202 42.2333 34.1958 42.2782 34.1704 42.3225C34.1449 42.3668 34.1183 42.4105 34.0906 42.4535C34.063 42.4965 34.0343 42.5388 34.0046 42.5804C33.9749 42.6219 33.9442 42.6628 33.9125 42.7029C33.8807 42.743 33.848 42.7823 33.8143 42.8207C33.7807 42.8592 33.7462 42.8968 33.7106 42.9336C33.6751 42.9704 33.6388 43.0063 33.6015 43.0412C33.5642 43.0763 33.5261 43.1104 33.4872 43.1435C33.4483 43.1766 33.4085 43.2087 33.368 43.2399C33.3276 43.2711 33.2863 43.3012 33.2443 43.3304C33.2023 43.3595 33.1596 43.3876 33.1163 43.4147C33.0729 43.4418 33.0289 43.4677 32.9843 43.4926C32.9396 43.5175 32.8944 43.5413 32.8486 43.564C32.8028 43.5867 32.7564 43.6082 32.7096 43.6285C32.6627 43.649 32.6153 43.6682 32.5676 43.6863C32.5197 43.7044 32.4715 43.7213 32.4228 43.7369C32.0257 43.8644 31.5803 43.9137 31.1644 43.8912C31.1512 44.3854 31.1526 44.8864 31.0842 45.3765C31.0721 45.4582 31.0584 45.5396 31.0429 45.6207C31.0275 45.7019 31.0104 45.7827 30.9916 45.8631C30.9728 45.9435 30.9523 46.0235 30.9302 46.1032C30.908 46.1827 30.8842 46.2618 30.8587 46.3403C30.8332 46.4188 30.8061 46.4969 30.7774 46.5744C30.7487 46.6518 30.7184 46.7285 30.6864 46.8047C30.6544 46.8809 30.6209 46.9563 30.5858 47.0311C30.5507 47.1059 30.5141 47.1799 30.4759 47.2531C30.4376 47.3263 30.3979 47.3987 30.3567 47.4702C30.3154 47.5419 30.2727 47.6125 30.2286 47.6823C30.1844 47.7521 30.1388 47.8209 30.0917 47.8888C30.0446 47.9566 29.9961 48.0235 29.9463 48.0893C29.8964 48.1552 29.8452 48.22 29.7926 48.2836C29.74 48.3473 29.6861 48.4099 29.6309 48.4713C29.5757 48.5328 29.5193 48.593 29.4615 48.6521C29.4038 48.7112 29.3449 48.769 29.2847 48.8256C28.6133 49.4583 27.7529 49.976 26.8581 50.2159C26.5715 50.2927 26.206 50.3119 25.9433 50.4377H24.5714C24.5563 50.4321 24.5413 50.4262 24.5262 50.4206C24.1536 50.2846 23.7143 50.2516 23.3215 50.1178C23.2302 50.086 23.1398 50.052 23.0502 50.0158C22.9606 49.9795 22.8719 49.9411 22.7842 49.9006C22.6965 49.8601 22.6098 49.8174 22.5241 49.7727C22.4385 49.7279 22.354 49.6811 22.2706 49.6322C22.1872 49.5833 22.1051 49.5325 22.0242 49.4796C21.9433 49.4268 21.8637 49.3719 21.7854 49.3152C21.7072 49.2585 21.6305 49.1999 21.5551 49.1394C21.4797 49.0789 21.4058 49.0166 21.3335 48.9526C21.2611 48.8885 21.1903 48.8227 21.1212 48.7552C21.052 48.6877 20.9846 48.6186 20.9188 48.5478C20.853 48.477 20.789 48.4046 20.7267 48.3307C20.6644 48.2568 20.604 48.1814 20.5454 48.1045C20.4868 48.0277 20.4301 47.9495 20.3753 47.8699C20.3205 47.7902 20.2677 47.7093 20.2169 47.6272C20.166 47.545 20.1172 47.4617 20.0704 47.3771C20.0236 47.2925 19.9789 47.2069 19.9362 47.1202C19.4305 46.0851 19.3181 45.0282 19.3226 43.8938ZM18.9088 39.3144C18.4665 39.3618 18.1263 39.4535 17.8292 39.8151C17.5622 40.1402 17.4583 40.598 17.5079 41.0114C17.5552 41.4055 17.7398 41.778 18.0614 42.0198C18.2934 42.1943 18.5639 42.2723 18.8491 42.2973C19.3695 42.343 19.9002 42.2915 20.4218 42.2881L23.2988 42.2897H29.2419C30.0169 42.2899 30.7924 42.3159 31.5672 42.3036C32.0081 42.2586 32.3652 42.1422 32.6558 41.7831C32.9159 41.4618 33.022 41.0306 32.9786 40.6225C32.9372 40.2328 32.7546 39.8568 32.4485 39.6071C32.2012 39.4053 31.9556 39.3568 31.6481 39.3272C31.0363 39.2683 30.3911 39.3068 29.7761 39.3066L26.3711 39.3062L21.4734 39.3065C20.6238 39.3067 19.7567 39.2721 18.9088 39.3144ZM20.9137 43.8991C20.8844 44.1237 20.8937 44.3693 20.9044 44.5959C20.9488 45.5451 21.2172 46.4122 21.801 47.1721C21.8443 47.2287 21.889 47.2842 21.9351 47.3386C21.9812 47.393 22.0287 47.4463 22.0774 47.4984C22.1261 47.5504 22.1761 47.6012 22.2274 47.6508C22.2787 47.7004 22.3311 47.7486 22.3847 47.7956C22.4384 47.8426 22.4932 47.8883 22.5491 47.9326C22.605 47.9768 22.662 48.0197 22.72 48.0611C22.778 48.1025 22.837 48.1425 22.8971 48.1811C22.9571 48.2196 23.018 48.2566 23.0799 48.2921C23.1417 48.3276 23.2044 48.3616 23.2679 48.394C23.3314 48.4263 23.3957 48.4571 23.4608 48.4864C23.5259 48.5156 23.5916 48.5432 23.658 48.5692C23.7244 48.5951 23.7914 48.6194 23.8591 48.642C23.9267 48.6647 23.9948 48.6856 24.0635 48.7049C24.1321 48.7242 24.2013 48.7417 24.2708 48.7576C24.3403 48.7734 24.4102 48.7875 24.4804 48.7998C24.5506 48.8122 24.6211 48.8229 24.6919 48.8318C24.7626 48.841 24.8335 48.8485 24.9046 48.8542C24.9757 48.86 25.0469 48.8639 25.1181 48.8661C25.1894 48.8683 25.2607 48.8687 25.332 48.8673C25.4033 48.866 25.4745 48.8628 25.5457 48.8578C25.6168 48.8529 25.6878 48.8462 25.7586 48.8377C25.8294 48.8292 25.9 48.8189 25.9703 48.807C26.0406 48.7949 26.1106 48.7812 26.1802 48.7657C26.2498 48.7502 26.3189 48.7329 26.3877 48.714C26.4564 48.6951 26.5247 48.6744 26.5924 48.652C26.6601 48.6297 26.7273 48.6056 26.7937 48.5799C26.8603 48.5542 26.9261 48.5269 26.9913 48.4979C27.0565 48.4688 27.1208 48.4382 27.1845 48.406C27.2481 48.3738 27.3109 48.3401 27.3728 48.3047C27.4347 48.2694 27.4957 48.2325 27.5558 48.1941C27.6159 48.1557 27.675 48.1158 27.7332 48.0744C27.7913 48.0331 27.8483 47.9903 27.9043 47.9461C28.051 47.8313 28.1865 47.7026 28.3196 47.5723C29.4428 46.3775 29.5636 45.4698 29.5868 43.903L23.6264 43.8996L21.8514 43.9013C21.5418 43.9022 21.2218 43.9231 20.9137 43.8991Z" fill="#93C704"/>
<path d="M24.1501 0.437988H26.3111C26.6562 0.55869 27.3056 0.563013 27.6997 0.626116C28.1587 0.701039 28.6136 0.795952 29.0642 0.910855C29.515 1.02576 29.9597 1.16021 30.3986 1.31421C30.5197 1.35698 30.6403 1.40124 30.7603 1.44697C30.8804 1.49271 30.9998 1.53991 31.1187 1.58857C31.2376 1.63725 31.3559 1.68737 31.4735 1.73894C31.5912 1.7905 31.7081 1.84351 31.8245 1.89796C31.9408 1.95241 32.0565 2.00827 32.1715 2.06556C32.2864 2.12284 32.4007 2.18152 32.5142 2.24161C32.6278 2.3017 32.7406 2.36318 32.8526 2.42603C32.9646 2.48889 33.0758 2.55312 33.1863 2.6187C33.2967 2.68429 33.4063 2.75123 33.5151 2.81951C33.624 2.88779 33.7319 2.9574 33.839 3.02833C33.9461 3.09926 34.0523 3.1715 34.1576 3.24504C34.2629 3.31858 34.3674 3.3934 34.4709 3.4695C34.5743 3.5456 34.6768 3.62297 34.7784 3.70159C34.88 3.78021 34.9806 3.86006 35.0803 3.94115C35.1799 4.02225 35.2785 4.10455 35.3761 4.18806C35.4737 4.27157 35.5703 4.35626 35.6658 4.44215C35.7613 4.52803 35.8557 4.61507 35.9491 4.70327C36.0425 4.79147 36.1348 4.88081 36.2261 4.97128C36.3172 5.06175 36.4072 5.15332 36.4962 5.246C36.5852 5.33868 36.673 5.43244 36.7595 5.52728C36.8462 5.62211 36.9317 5.71799 37.016 5.81492C37.1003 5.91185 37.1834 6.00981 37.2652 6.10879C37.3471 6.20776 37.4278 6.30772 37.5072 6.40867C37.5866 6.50963 37.6648 6.61154 37.7418 6.71441C37.8187 6.81728 37.8943 6.92109 37.9687 7.02582C38.0431 7.13055 38.1162 7.23618 38.188 7.3427C38.2597 7.44923 38.3302 7.55662 38.3993 7.66487C38.4684 7.77313 38.5362 7.88222 38.6027 7.99214C38.6692 8.10206 38.7343 8.21278 38.7981 8.3243C38.8619 8.43581 38.9242 8.5481 38.9852 8.66115C39.0462 8.7742 39.1058 8.88798 39.164 9.00249C39.2222 9.11701 39.2789 9.23222 39.3344 9.34812C40.5662 11.9365 40.9668 14.6215 40.7976 17.468C40.6667 19.6712 40.1707 21.7733 38.8792 23.596C38.2328 24.5084 37.4509 25.3133 36.7417 26.1753C36.0357 27.0333 35.4433 27.9646 35.0224 28.9949C34.4468 30.4043 34.1668 31.9313 34.0519 33.4445C34.0296 33.7391 34.0044 34.0353 33.9928 34.3306C33.9779 34.7141 34.0256 35.6201 33.9006 35.9324C33.8241 36.1234 33.6473 36.2842 33.4592 36.3608C33.3197 36.4177 33.1857 36.4263 33.0371 36.4312C32.1823 36.4599 31.3183 36.4335 30.4626 36.4334L25.4373 36.4337L20.22 36.4346C19.3122 36.4353 18.3974 36.4606 17.4906 36.4333C17.3189 36.4281 17.1241 36.4182 16.9678 36.3415C16.7964 36.2575 16.6139 36.0923 16.566 35.9008C16.4493 35.4345 16.5065 34.621 16.4783 34.1084C16.3953 32.5978 16.1913 31.0789 15.7029 29.6415C15.6126 29.3746 15.5117 29.1117 15.4001 28.8529C15.2884 28.5941 15.1665 28.3403 15.0345 28.0914C14.9024 27.8424 14.7604 27.5993 14.6086 27.3618C14.4567 27.1244 14.2956 26.8935 14.1252 26.669C13.5927 25.9561 12.9824 25.3045 12.4068 24.6269C11.4465 23.4965 10.6952 22.2917 10.2561 20.8674C9.92449 19.7913 9.76833 18.6789 9.69231 17.5582C9.48293 14.4708 10.0005 11.4793 11.4605 8.73298C11.5217 8.6175 11.5842 8.50282 11.6482 8.38892C11.7122 8.27502 11.7776 8.16194 11.8445 8.04969C11.9114 7.93743 11.9796 7.82604 12.0493 7.7155C12.119 7.60496 12.19 7.49532 12.2625 7.38657C12.3349 7.27782 12.4086 7.17 12.4838 7.0631C12.5589 6.9562 12.6354 6.85027 12.7132 6.7453C12.791 6.64033 12.8701 6.53635 12.9505 6.43337C13.0309 6.33039 13.1125 6.22843 13.1955 6.12751C13.2785 6.02658 13.3627 5.92671 13.4482 5.8279C13.5337 5.72909 13.6204 5.63137 13.7084 5.53475C13.7963 5.43812 13.8855 5.34261 13.9758 5.24823C14.0661 5.15384 14.1577 5.06061 14.2504 4.96852C14.3431 4.87644 14.4369 4.78554 14.5318 4.69582C14.6268 4.60609 14.7229 4.51758 14.8201 4.43027C14.9173 4.34297 15.0156 4.2569 15.115 4.17206C15.2144 4.08723 15.3148 4.00366 15.4163 3.92135C15.5177 3.83904 15.6202 3.75802 15.7237 3.67829C15.8272 3.59856 15.9317 3.52014 16.0372 3.44304C16.1427 3.36593 16.2491 3.29017 16.3565 3.21575C16.4639 3.14132 16.5722 3.06826 16.6814 2.99656C16.7907 2.92486 16.9008 2.85455 17.0117 2.78561C17.1227 2.71668 17.2345 2.64916 17.3472 2.58304C17.4599 2.51692 17.5734 2.45223 17.6878 2.38896C17.8021 2.3257 17.9172 2.26389 18.0331 2.20352C18.149 2.14315 18.2656 2.08425 18.3829 2.02682C18.5003 1.96937 18.6183 1.91342 18.7371 1.85896C18.8558 1.8045 18.9753 1.75153 19.0954 1.70007C19.2154 1.6486 19.3361 1.59866 19.4575 1.55023C19.5789 1.50181 19.7008 1.45492 19.8233 1.40956C19.9458 1.3642 20.0689 1.32039 20.1926 1.27813C20.3162 1.23587 20.4403 1.19517 20.565 1.15603C20.6897 1.11689 20.8148 1.07932 20.9404 1.04333C21.5926 0.854691 22.2543 0.709608 22.9256 0.608077C23.2897 0.553435 23.7926 0.552536 24.1296 0.444986C24.1365 0.44279 24.1432 0.440321 24.1501 0.437988ZM25.1113 2.01225C24.9957 2.01324 24.8802 2.01565 24.7648 2.01949C24.6493 2.02334 24.5339 2.02861 24.4185 2.03531C24.3032 2.04202 24.1879 2.05015 24.0728 2.0597C23.9577 2.06925 23.8426 2.08023 23.7277 2.09264C23.6129 2.10504 23.4982 2.11886 23.3837 2.1341C23.2691 2.14934 23.1547 2.16599 23.0406 2.18406C22.9265 2.20213 22.8127 2.22161 22.699 2.2425C22.5854 2.26339 22.472 2.28567 22.3589 2.30937C22.2458 2.33306 22.133 2.35815 22.0206 2.38464C21.9081 2.41112 21.7959 2.43899 21.6842 2.46825C21.5724 2.49752 21.461 2.52815 21.35 2.56017C21.239 2.59218 21.1284 2.62557 21.0181 2.66032C20.908 2.69508 20.7983 2.73119 20.6889 2.76866C20.5796 2.80614 20.4708 2.84495 20.3625 2.88512C20.2541 2.92528 20.1463 2.96678 20.039 3.00961C19.9317 3.05244 19.8249 3.09659 19.7187 3.14207C19.6125 3.18755 19.5068 3.23433 19.4018 3.28241C19.2968 3.3305 19.1923 3.37989 19.0885 3.43057C18.9846 3.48124 18.8814 3.53319 18.7789 3.58642C18.6763 3.63964 18.5745 3.69413 18.4732 3.74988C18.372 3.80563 18.2716 3.86262 18.1718 3.92086C18.0719 3.9791 17.9729 4.03857 17.8746 4.09926C17.7762 4.15994 17.6787 4.22184 17.5819 4.28494C17.4851 4.34805 17.3891 4.41234 17.2939 4.47781C17.1987 4.54329 17.1043 4.60994 17.0108 4.67775C16.9173 4.74557 16.8246 4.81453 16.7327 4.88464C16.6408 4.95475 16.5499 5.02599 16.4598 5.09835C16.3697 5.17071 16.2805 5.24417 16.1923 5.31874C16.104 5.3933 16.0167 5.46895 15.9303 5.54568C15.844 5.62241 15.7585 5.70019 15.674 5.77903C15.5896 5.85788 15.5061 5.93776 15.4236 6.01866C15.3411 6.09957 15.2596 6.18149 15.1792 6.26441C15.0983 6.34753 15.0184 6.43163 14.9395 6.51672C14.8607 6.6018 14.7829 6.68786 14.7062 6.77488C14.6295 6.8619 14.554 6.94986 14.4795 7.03875C14.4049 7.12764 14.3315 7.21745 14.2593 7.30816C14.1869 7.39888 14.1158 7.49048 14.0458 7.58296C13.9758 7.67544 13.9069 7.76878 13.8392 7.86297C13.7715 7.95715 13.705 8.05217 13.6396 8.14801C13.5743 8.24384 13.5102 8.34047 13.4472 8.43791C13.3843 8.53534 13.3225 8.63353 13.262 8.73249C13.2015 8.83145 13.1422 8.93114 13.0842 9.03158C13.0261 9.13201 12.9694 9.23314 12.9138 9.33498C12.8583 9.43682 12.804 9.53934 12.7511 9.64252C12.6981 9.7457 12.6464 9.84953 12.596 9.954C12.5456 10.0585 12.4965 10.1635 12.4486 10.2692C12.4008 10.3749 12.3543 10.4812 12.3092 10.588C12.264 10.6948 12.2202 10.8022 12.1777 10.9102C12.1352 11.0181 12.094 11.1265 12.0542 11.2354C12.0143 11.3444 11.9759 11.4539 11.9388 11.5638C11.9017 11.6737 11.866 11.784 11.8316 11.8948C11.7972 12.0056 11.7643 12.1167 11.7327 12.2283C11.7011 12.34 11.6708 12.452 11.642 12.5643C11.6131 12.6766 11.5857 12.7893 11.5597 12.9023C11.5337 13.0154 11.5091 13.1288 11.4858 13.2424C11.4626 13.3561 11.4408 13.47 11.4204 13.5842C11.4 13.6984 11.381 13.8128 11.3635 13.9274C11.3459 14.0421 11.3297 14.1569 11.315 14.272C11.3003 14.3871 11.287 14.5023 11.2752 14.6177C11.2633 14.733 11.2529 14.8486 11.2439 14.9643C11.2349 15.0799 11.2274 15.1956 11.2213 15.3114C11.2151 15.4272 11.2105 15.5431 11.2072 15.6591C11.204 15.775 11.2022 15.891 11.2018 16.007C11.2014 16.123 11.2025 16.239 11.2051 16.355C11.2399 18.5327 11.596 20.6859 12.7913 22.5448C13.174 23.1399 13.627 23.6859 14.0871 24.2222C14.9262 25.2003 15.766 26.1429 16.3964 27.2759C17.6652 29.5561 18.0115 32.2635 18.0732 34.8347C19.0093 34.8653 19.9493 34.8485 20.8858 34.8483L25.4757 34.8482L30.0488 34.8478C30.8302 34.8478 31.6341 34.8095 32.4123 34.8559C32.4058 34.0305 32.484 33.1791 32.5826 32.3599C32.9215 29.5447 33.693 27.4084 35.5274 25.2254C36.477 24.0952 37.5048 23.0353 38.1734 21.7031C38.8233 20.4085 39.1057 18.9894 39.2219 17.5547C39.5711 13.2437 38.2072 9.11384 35.0975 6.05658C35.0159 5.97575 34.9332 5.89593 34.8496 5.81713C34.766 5.73833 34.6814 5.66058 34.5959 5.58387C34.5103 5.50715 34.4239 5.43151 34.3365 5.35692C34.2491 5.28234 34.1608 5.20885 34.0716 5.13645C33.9823 5.06404 33.8922 4.99275 33.8012 4.92257C33.7103 4.85239 33.6185 4.78334 33.5258 4.71542C33.4331 4.6475 33.3396 4.58073 33.2453 4.51512C33.151 4.4495 33.0558 4.38506 32.9599 4.3218C32.864 4.25853 32.7674 4.19645 32.6699 4.13557C32.5724 4.07468 32.4743 4.01501 32.3754 3.95654C32.2765 3.89808 32.1769 3.84084 32.0765 3.78483C31.9762 3.72882 31.8752 3.67406 31.7735 3.62054C31.6718 3.56702 31.5695 3.51477 31.4666 3.46377C31.3636 3.41277 31.26 3.36305 31.1558 3.31461C31.0517 3.26617 30.9469 3.21901 30.8415 3.17315C30.7361 3.12729 30.6302 3.08274 30.5238 3.03949C30.4174 2.99624 30.3104 2.95431 30.2029 2.9137C30.0954 2.87309 29.9874 2.83381 29.879 2.79586C29.7706 2.75791 29.6617 2.72131 29.5523 2.68604C29.4429 2.65078 29.3332 2.61687 29.223 2.58431C29.1128 2.55175 29.0022 2.52055 28.8913 2.49072C28.7803 2.46089 28.6691 2.43243 28.5574 2.40534C28.4457 2.37825 28.3337 2.35254 28.2215 2.32821C28.1092 2.30388 27.9966 2.28094 27.8837 2.25939C27.7708 2.23784 27.6578 2.21768 27.5444 2.19892C27.431 2.18015 27.3174 2.16279 27.2037 2.14683C27.0899 2.13086 26.9759 2.11631 26.8618 2.10315C26.7476 2.09 26.6333 2.07825 26.5189 2.06792C26.4045 2.05758 26.2899 2.04866 26.1753 2.04114C26.0606 2.03363 25.9459 2.02753 25.831 2.02285C25.7163 2.01817 25.6014 2.0149 25.4865 2.01305C25.3717 2.01119 25.2568 2.01076 25.1419 2.01174L25.1113 2.01225Z" fill="#93C704"/>
<path d="M24.3046 4.76834C24.8042 4.73366 25.9807 4.71347 26.4534 4.82214C26.5445 4.84302 26.6328 4.87248 26.7183 4.91052C26.8038 4.94857 26.8848 4.99448 26.9613 5.04826C27.3214 5.30302 27.4757 5.65408 27.5494 6.07567C27.9428 6.24353 28.3704 6.33699 28.7694 6.49896C29.1439 6.65095 29.5105 6.90183 29.8948 7.00952C30.0658 6.88853 30.2269 6.78273 30.4278 6.71756C30.7854 6.60154 31.1383 6.66034 31.4654 6.83016C31.6422 6.92198 31.8057 7.03963 31.9578 7.16785C32.3005 7.45681 33.3184 8.46462 33.4986 8.79863C33.6211 9.02582 33.6764 9.30325 33.6526 9.55923C33.6251 9.85571 33.3425 10.3122 33.374 10.469C33.4231 10.7139 33.7038 11.1065 33.8177 11.3612C34.0041 11.7776 34.1475 12.2176 34.2836 12.6526C34.5187 12.7455 34.7731 12.7901 34.9964 12.9128C35.3223 13.0918 35.4941 13.3916 35.588 13.7395C35.7499 14.3393 35.7844 16.2863 35.4704 16.8155C35.2194 17.2383 34.8128 17.4277 34.3547 17.5379C34.2442 17.8166 34.1729 18.1131 34.0712 18.3961C33.8916 18.8957 33.6623 19.3651 33.4131 19.8333C33.5472 20.011 33.671 20.1999 33.7407 20.413C33.8497 20.7457 33.8034 21.0747 33.647 21.3823C33.3797 21.908 31.9603 23.3912 31.391 23.5559C30.8981 23.6986 30.4633 23.5391 30.0399 23.2945C29.6674 23.4475 29.3183 23.6736 28.9465 23.8369C28.5821 23.9969 28.0782 24.0962 27.754 24.3041C27.6638 24.6418 27.5687 24.9529 27.3249 25.2135C27.0216 25.5375 26.6686 25.6145 26.2461 25.6358C25.4355 25.6632 24.1595 25.8002 23.4741 25.3314C23.1034 25.0778 23.0032 24.7308 22.9239 24.315C22.6303 24.2092 22.3237 24.1368 22.0293 24.0295C21.5389 23.8506 21.0726 23.6213 20.6048 23.3914C20.3955 23.5311 20.1766 23.6719 19.9289 23.7316C19.5282 23.8281 19.1734 23.6887 18.8411 23.475C18.4089 23.1967 17.3256 22.1181 17.0378 21.6889C16.949 21.5566 16.8887 21.4205 16.8579 21.2634C16.7653 20.7918 16.9116 20.3892 17.1714 20.0022C16.7822 19.3415 16.5001 18.6796 16.2682 17.9497C16.2526 17.9007 16.2244 17.8096 16.1904 17.773C16.103 17.6788 15.6774 17.5954 15.5215 17.5123C15.4849 17.4931 15.4493 17.4721 15.4147 17.4493C15.3802 17.4265 15.3469 17.402 15.3148 17.3758C15.2828 17.3497 15.2521 17.3219 15.2229 17.2926C15.1937 17.2633 15.166 17.2326 15.1399 17.2004C15.1138 17.1684 15.0894 17.135 15.0667 17.1005C15.0439 17.0659 15.0229 17.0302 15.0039 16.9935C14.9847 16.9568 14.9675 16.9192 14.9523 16.8807C14.937 16.8423 14.9237 16.8032 14.9124 16.7633C14.7532 16.2046 14.7494 14.6507 14.849 14.0761C14.8647 13.9841 14.8883 13.8942 14.9196 13.8063C14.9508 13.7184 14.9894 13.6338 15.0352 13.5525C15.2843 13.1208 15.6763 12.9966 16.1258 12.8798C16.2459 12.5685 16.3273 12.2392 16.4435 11.9251C16.6177 11.4538 16.8423 11.0102 17.0697 10.563C16.9207 10.3949 16.8009 10.1992 16.7355 9.98349C16.6249 9.61839 16.7001 9.2576 16.8828 8.93163C17.1392 8.47398 18.4057 7.16678 18.8747 6.93393C19.1077 6.8182 19.3652 6.77866 19.6231 6.8078C19.8774 6.83651 20.3506 7.09303 20.4876 7.06684C20.7769 7.01152 21.1021 6.75878 21.3754 6.63564C21.8013 6.44819 22.2389 6.29354 22.6881 6.1717C22.8245 5.85527 22.8551 5.54007 23.0819 5.26168C23.3835 4.89141 23.8565 4.80958 24.3046 4.76834ZM24.3003 6.35411C24.2361 6.70575 24.2064 7.20412 23.8906 7.42877C23.5703 7.65661 23.0525 7.66458 22.6806 7.78989C22.1722 7.9612 21.7028 8.19363 21.2463 8.47312C21.0584 8.58815 20.5798 8.94146 20.3491 8.89489C20.0335 8.83118 19.7538 8.61506 19.5177 8.40545C19.1043 8.79846 18.7064 9.20696 18.3012 9.60831C18.5143 9.88407 18.8486 10.2641 18.7893 10.6398C18.7309 11.0095 18.4055 11.3438 18.2331 11.669C18.0913 11.9363 17.9737 12.2256 17.8752 12.5114C17.7313 12.9289 17.6015 13.7372 17.4172 14.0609C17.374 14.1371 17.3076 14.1914 17.2356 14.2393C17.0059 14.3921 16.6577 14.4483 16.3853 14.4544C16.3652 15.019 16.3915 15.5845 16.3679 16.1488C16.7043 16.1903 17.2176 16.2366 17.4417 16.5242C17.6437 16.7837 17.7849 17.6678 17.921 18.0433C18.0598 18.4267 18.2707 18.8016 18.4837 19.1492C18.6387 19.4023 18.9571 19.7921 18.9136 20.0958C18.8721 20.3867 18.488 20.8254 18.4826 20.9528C18.6611 21.2012 19.4119 21.9351 19.6724 22.1397C19.9389 21.9247 20.2636 21.6129 20.6315 21.6518C20.9959 21.6904 21.3699 22.008 21.6846 22.1839C21.9175 22.3142 22.1572 22.4325 22.4085 22.5229C22.7014 22.6269 22.9992 22.7138 23.3021 22.7835C23.5066 22.8323 23.7244 22.8656 23.9199 22.9422C24.0527 22.9943 24.17 23.0645 24.2573 23.1788C24.4375 23.4146 24.4608 23.7667 24.4778 24.0539C25.0444 24.0626 25.6229 24.0866 26.1886 24.0582C26.2437 23.7144 26.2724 23.204 26.5764 22.9831C26.8427 22.7895 27.2534 22.7753 27.565 22.6916C27.783 22.6331 28 22.5484 28.2081 22.4615C28.8066 22.2114 29.3132 21.8192 29.8985 21.5589C30.0445 21.494 30.2199 21.5349 30.363 21.5921C30.5894 21.6829 30.7855 21.8516 30.9772 21.9993C31.3717 21.594 31.7789 21.2015 32.1743 20.7974C31.9962 20.5564 31.627 20.1404 31.6785 19.8224C31.7441 19.4166 32.1586 18.9036 32.343 18.527C32.5772 18.0488 32.734 17.5576 32.8488 17.039C32.921 16.7127 32.96 16.3428 33.2687 16.149C33.5065 15.9997 33.8359 15.9909 34.1091 15.9594C34.1078 15.3996 34.1346 14.8251 34.101 14.2667C33.7682 14.2233 33.2512 14.1629 33.0279 13.8824C32.8008 13.5972 32.7658 12.9648 32.6475 12.6052C32.5387 12.2747 32.3881 11.9513 32.2238 11.645C32.0302 11.2841 31.5246 10.674 31.5795 10.2686C31.6214 9.95895 31.8624 9.70956 32.0371 9.46358C31.6314 9.0685 31.2291 8.67006 30.83 8.26826C30.5584 8.46315 30.177 8.81507 29.8181 8.75668C29.4229 8.69239 28.8175 8.20972 28.4135 8.02232C27.9958 7.8285 27.5328 7.70968 27.0855 7.60626C26.7861 7.53703 26.3715 7.4749 26.1917 7.19546C26.0416 6.96239 26.0319 6.63992 26.0089 6.37057C25.6168 6.37006 24.6046 6.42 24.3003 6.35411Z" fill="#93C704"/>
<path d="M24.8963 9.43197C24.9841 9.42691 25.0719 9.42385 25.1598 9.42279C25.2477 9.42172 25.3356 9.42266 25.4235 9.4256C25.5113 9.42854 25.5991 9.43347 25.6867 9.4404C25.7743 9.44733 25.8617 9.45625 25.949 9.46716C26.0362 9.47807 26.1231 9.49096 26.2097 9.50583C26.2964 9.5207 26.3826 9.53753 26.4685 9.55631C26.5544 9.57511 26.6398 9.59585 26.7247 9.61852C26.8096 9.6412 26.894 9.66581 26.9778 9.69233C27.0616 9.71885 27.1448 9.74726 27.2273 9.77756C27.3098 9.80787 27.3916 9.84004 27.4726 9.87406C27.5537 9.90809 27.6339 9.94394 27.7133 9.98162C27.7928 10.0193 27.8713 10.0588 27.9489 10.1C28.0265 10.1413 28.1032 10.1843 28.1789 10.229C28.2545 10.2737 28.3291 10.3202 28.4027 10.3684C28.4762 10.4165 28.5486 10.4663 28.6199 10.5177C28.6912 10.5691 28.7613 10.6222 28.8301 10.6768C28.9053 10.7363 28.979 10.7976 29.0511 10.8609C29.1233 10.9241 29.1938 10.989 29.2627 11.0557C29.3315 11.1224 29.3987 11.1908 29.4642 11.2609C29.5297 11.3309 29.5934 11.4026 29.6553 11.4758C29.7172 11.549 29.7773 11.6238 29.8355 11.7C29.8937 11.7762 29.95 11.8538 30.0043 11.9328C30.0586 12.0119 30.111 12.0922 30.1613 12.1738C30.2116 12.2555 30.2599 12.3383 30.306 12.4224C30.3522 12.5064 30.3963 12.5915 30.4382 12.6777C30.4802 12.7639 30.52 12.8512 30.5576 12.9394C30.5952 13.0276 30.6306 13.1167 30.6637 13.2067C30.6969 13.2967 30.7279 13.3875 30.7565 13.4789C30.7852 13.5705 30.8115 13.6626 30.8356 13.7555C30.8596 13.8483 30.8813 13.9417 30.9007 14.0356C30.9201 14.1295 30.9372 14.2238 30.9519 14.3186C30.9666 14.4134 30.979 14.5084 30.9889 14.6038C30.9988 14.6977 31.0063 14.7918 31.0115 14.8861C31.0167 14.9803 31.0196 15.0747 31.0201 15.1692C31.0207 15.2636 31.0189 15.3579 31.0148 15.4523C31.0107 15.5466 31.0043 15.6408 30.9956 15.7348C30.9868 15.8288 30.9758 15.9225 30.9626 16.0159C30.9492 16.1094 30.9336 16.2025 30.9157 16.2952C30.8977 16.3879 30.8775 16.4801 30.8551 16.5718C30.8327 16.6635 30.808 16.7546 30.781 16.8451C30.7541 16.9356 30.7249 17.0254 30.6936 17.1145C30.6622 17.2035 30.6287 17.2917 30.593 17.3791C30.5574 17.4666 30.5195 17.553 30.4796 17.6386C30.4396 17.7241 30.3976 17.8086 30.3535 17.8921C30.3094 17.9756 30.2633 18.058 30.2151 18.1392C30.167 18.2204 30.1169 18.3003 30.0647 18.3791C30.0126 18.4578 29.9587 18.5352 29.9028 18.6113C29.8469 18.6874 29.7891 18.7621 29.7296 18.8354C28.6472 20.1791 27.2582 20.8092 25.5724 20.9856C25.4818 20.9901 25.3911 20.9926 25.3005 20.9929C25.2097 20.9931 25.119 20.9913 25.0284 20.9874C24.9377 20.9835 24.8472 20.9775 24.7568 20.9693C24.6664 20.9612 24.5763 20.951 24.4865 20.9386C24.3966 20.9263 24.307 20.9119 24.2178 20.8953C24.1286 20.8789 24.0398 20.8603 23.9514 20.8396C23.8631 20.8189 23.7753 20.7962 23.688 20.7715C23.6007 20.7468 23.5141 20.72 23.428 20.6911C23.342 20.6624 23.2567 20.6316 23.172 20.5988C23.0875 20.566 23.0037 20.5313 22.9207 20.4946C22.8377 20.4579 22.7556 20.4193 22.6744 20.3788C22.5932 20.3383 22.513 20.2959 22.4339 20.2517C22.3546 20.2075 22.2765 20.1614 22.1994 20.1135C22.1224 20.0656 22.0465 20.016 21.9717 19.9646C21.897 19.9131 21.8235 19.86 21.7512 19.8051C21.679 19.7502 21.608 19.6937 21.5383 19.6356C21.4663 19.5757 21.3958 19.5142 21.3268 19.451C21.2578 19.3877 21.1904 19.3228 21.1246 19.2563C21.0588 19.1897 20.9946 19.1216 20.9321 19.0519C20.8697 18.9822 20.8089 18.911 20.7499 18.8383C20.6909 18.7656 20.6337 18.6916 20.5783 18.6161C20.5229 18.5407 20.4695 18.4639 20.4178 18.3859C20.3662 18.3077 20.3165 18.2284 20.2687 18.148C20.221 18.0674 20.1753 17.9858 20.1315 17.903C20.0878 17.8203 20.0461 17.7365 20.0064 17.6517C19.9668 17.5669 19.9292 17.4812 19.8937 17.3945C19.8583 17.308 19.825 17.2205 19.7938 17.1322C19.7626 17.044 19.7336 16.955 19.7068 16.8653C19.68 16.7756 19.6554 16.6853 19.633 16.5944C19.6106 16.5036 19.5904 16.4122 19.5724 16.3203C19.5545 16.2285 19.5388 16.1362 19.5254 16.0436C19.5119 15.9509 19.5008 15.858 19.492 15.7649C19.4828 15.6699 19.4759 15.5747 19.4714 15.4793C19.467 15.3839 19.4649 15.2885 19.4651 15.1931C19.4654 15.0976 19.468 15.0023 19.4729 14.9069C19.4779 14.8116 19.4852 14.7164 19.4948 14.6215C19.5045 14.5265 19.5165 14.4318 19.5308 14.3374C19.5451 14.2431 19.5618 14.1491 19.5807 14.0555C19.5997 13.9619 19.6209 13.8689 19.6445 13.7765C19.6681 13.684 19.6939 13.5921 19.7219 13.5008C19.7501 13.4096 19.7804 13.3191 19.813 13.2294C19.8455 13.1396 19.8803 13.0508 19.9172 12.9628C19.9542 12.8748 19.9933 12.7877 20.0345 12.7016C20.0758 12.6155 20.1192 12.5305 20.1646 12.4466C20.2101 12.3626 20.2575 12.2798 20.3071 12.1983C20.3566 12.1167 20.4081 12.0363 20.4616 11.9572C20.5151 11.8782 20.5705 11.8005 20.6279 11.7242C20.6852 11.6479 20.7444 11.573 20.8054 11.4996C21.8623 10.2491 23.2747 9.5698 24.8963 9.43197ZM24.8928 11.018C23.7143 11.151 22.7016 11.6318 21.9495 12.5709C21.9059 12.6257 21.8636 12.6816 21.8227 12.7385C21.7818 12.7954 21.7424 12.8533 21.7045 12.9121C21.6665 12.971 21.63 13.0307 21.595 13.0914C21.56 13.1521 21.5265 13.2136 21.4945 13.276C21.4625 13.3384 21.4322 13.4014 21.4034 13.4653C21.3745 13.5291 21.3473 13.5937 21.3217 13.6589C21.2961 13.7241 21.2721 13.7899 21.2498 13.8563C21.2274 13.9227 21.2068 13.9896 21.1878 14.057C21.1687 14.1245 21.1514 14.1924 21.1358 14.2607C21.1201 14.3289 21.1062 14.3975 21.094 14.4665C21.0818 14.5355 21.0713 14.6048 21.0625 14.6742C21.0537 14.7438 21.0466 14.8135 21.0413 14.8833C21.0359 14.9532 21.0324 15.0231 21.0305 15.0931C21.0287 15.1631 21.0286 15.2332 21.0302 15.3032C21.0319 15.3733 21.0352 15.4432 21.0404 15.5131C21.0455 15.583 21.0523 15.6527 21.0609 15.7222C21.0694 15.7904 21.0795 15.8584 21.0914 15.9262C21.1032 15.994 21.1166 16.0614 21.1317 16.1285C21.1468 16.1956 21.1635 16.2623 21.1819 16.3285C21.2003 16.3948 21.2202 16.4606 21.2419 16.5259C21.2635 16.5912 21.2867 16.6559 21.3114 16.7201C21.3361 16.7843 21.3624 16.8478 21.3903 16.9107C21.4182 16.9735 21.4476 17.0357 21.4785 17.0972C21.5094 17.1586 21.5418 17.2193 21.5757 17.2791C21.6096 17.3389 21.6449 17.3979 21.6817 17.4561C21.7185 17.5142 21.7566 17.5714 21.7962 17.6277C21.8357 17.6839 21.8767 17.7391 21.9189 17.7934C21.9612 17.8477 22.0048 17.9009 22.0497 17.9529C22.0945 18.0051 22.1407 18.0561 22.188 18.106C22.2354 18.1558 22.284 18.2045 22.3338 18.252C22.3835 18.2995 22.4344 18.3457 22.4864 18.3907C22.5384 18.4357 22.5915 18.4794 22.6457 18.5218C23.5011 19.1853 24.5165 19.4706 25.5917 19.4006C26.7627 19.2854 27.7801 18.7444 28.5283 17.8328C28.5709 17.78 28.6122 17.7261 28.6522 17.6711C28.6922 17.6162 28.7309 17.5604 28.7681 17.5036C28.8054 17.4468 28.8413 17.3891 28.8757 17.3306C28.9102 17.2721 28.9433 17.2127 28.9749 17.1526C29.0064 17.0925 29.0366 17.0316 29.0652 16.9699C29.0938 16.9083 29.1209 16.8461 29.1464 16.7831C29.172 16.7202 29.1961 16.6567 29.2185 16.5926C29.241 16.5285 29.262 16.4639 29.2813 16.3987C29.3006 16.3336 29.3184 16.2681 29.3345 16.2021C29.3507 16.1361 29.3652 16.0698 29.3781 16.003C29.391 15.9364 29.4023 15.8694 29.412 15.8022C29.4216 15.7349 29.4296 15.6675 29.4359 15.5999C29.4423 15.5323 29.447 15.4645 29.4501 15.3966C29.4531 15.3288 29.4545 15.2609 29.4543 15.193C29.454 15.125 29.4521 15.0571 29.4486 14.9893C29.445 14.9214 29.4398 14.8537 29.433 14.7861C29.4263 14.7173 29.4179 14.6487 29.4078 14.5804C29.3976 14.512 29.3858 14.4439 29.3723 14.3761C29.3588 14.3083 29.3437 14.2409 29.3269 14.1738C29.3101 14.1068 29.2917 14.0402 29.2715 13.974C29.2514 13.9079 29.2297 13.8423 29.2064 13.7773C29.183 13.7122 29.1581 13.6477 29.1315 13.5839C29.105 13.52 29.0769 13.4569 29.0472 13.3944C29.0176 13.332 28.9864 13.2704 28.9537 13.2095C28.921 13.1486 28.8868 13.0885 28.8511 13.0293C28.8155 12.9701 28.7783 12.9118 28.7398 12.8544C28.7013 12.7971 28.6613 12.7407 28.62 12.6853C28.5786 12.6299 28.5359 12.5755 28.4919 12.5222C28.4478 12.4689 28.4025 12.4168 28.3559 12.3657C28.3093 12.3147 28.2615 12.2648 28.2124 12.2161C28.1633 12.1674 28.1131 12.12 28.0617 12.0737C28.0103 12.0276 27.9577 11.9827 27.9041 11.9391C27.1004 11.2848 25.9787 10.8968 24.9374 11.0126L24.8928 11.018Z" fill="#93C704"/>
<path d="M26.6177 13.4341C26.801 13.4456 26.9522 13.492 27.0964 13.6103C27.1166 13.6266 27.1359 13.6439 27.1544 13.6623C27.1728 13.6807 27.1904 13.6999 27.2069 13.72C27.2234 13.7401 27.2388 13.7609 27.2533 13.7826C27.2677 13.8043 27.2809 13.8267 27.293 13.8497C27.3052 13.8727 27.3161 13.8963 27.3258 13.9204C27.3356 13.9446 27.3441 13.9691 27.3513 13.994C27.3586 14.019 27.3646 14.0443 27.3693 14.0699C27.374 14.0956 27.3774 14.1214 27.3795 14.1473C27.3968 14.372 27.3124 14.5682 27.1694 14.737C26.8513 15.1126 26.4598 15.4546 26.1094 15.8022C25.8049 16.1043 25.3465 16.6268 25.0111 16.8513C24.8988 16.9264 24.7438 16.9771 24.6088 16.9824C24.3398 16.9929 24.0946 16.7915 23.9068 16.6215C23.6438 16.3601 23.1791 15.9988 23.1118 15.6152C23.075 15.405 23.1331 15.1759 23.2543 15.0017C23.3629 14.8456 23.5233 14.7336 23.7132 14.7047C24.0677 14.6506 24.3543 14.8812 24.6242 15.0729C25.0058 14.6144 25.7172 13.8316 26.2263 13.5578C26.3554 13.4884 26.4751 13.4587 26.6177 13.4341Z" fill="#93C704"/>
</g>
<defs>
<clipPath id="clip0_1094_12620">
<rect width="50" height="50" fill="white" transform="translate(0.243896 0.437988)"/>
</clipPath>
</defs>
</svg>
