<svg width="58" height="66" viewBox="0 0 58 66" fill="none" xmlns="http://www.w3.org/2000/svg">
<path d="M25.3535 63.8364L24.1899 65M25.3535 63.8364C28.7061 63.8364 31.9214 62.5045 34.2921 60.1337L51.6339 42.7911C52.6875 41.7374 53.2795 40.3083 53.2795 38.8182M25.3535 63.8364C25.3535 60.4836 26.6853 57.2681 29.056 54.8973L46.3978 37.5547C47.4514 36.501 48.8805 35.9091 50.3705 35.9091M50.3705 35.9091L52.9886 33.2909C53.7919 32.4876 55.0942 32.4876 55.8975 33.2909C56.7008 34.0942 56.7008 35.3967 55.8975 36.2L53.2795 38.8182M50.3705 35.9091L51.825 37.3636M53.2795 38.8182L51.825 37.3636M51.825 37.3636L45.1344 44.0545M37.5711 59.1818H39.8983C44.3967 59.1818 48.0433 55.535 48.0433 51.0364V48.7091M48.0433 33.5818V9.14545C48.0433 4.64684 44.3967 1 39.8983 1H9.64509C5.14668 1 1.5 4.64684 1.5 9.14545V51.0364C1.5 55.535 5.14668 59.1818 9.64509 59.1818H23.6081M7.31792 48.7091H27.0988M7.31792 42.3091H34.0803M7.31792 35.9091H42.2254M7.31792 30.0909H42.2254M7.31792 24.2727H42.2254M9.06329 17.8727V7.4L17.2084 17.8727V7.4M32.335 17.8727V14.3818M32.335 14.3818V11.4727C32.335 9.22342 34.1583 7.4 36.4075 7.4C38.6567 7.4 40.4801 9.22342 40.4801 11.4727V14.3818M32.335 14.3818H40.4801M40.4801 14.3818V17.8727M20.6991 17.8727V7.4H23.6081C26.4999 7.4 28.8442 9.7444 28.8442 12.6364C28.8442 15.5283 26.4999 17.8727 23.6081 17.8727H20.6991Z" stroke="#93C704" stroke-width="2" stroke-linecap="round" stroke-linejoin="round"/>
</svg>
