<svg width="64" height="66" viewBox="0 0 64 66" fill="none" xmlns="http://www.w3.org/2000/svg">
<path d="M22.5759 32.7622L28.5735 38.4423C29.6701 39.4808 31.4063 39.4145 32.4204 38.2952L42.7704 26.8722M52.8676 32.9305C52.8676 44.4553 43.5248 53.7981 32 53.7981C20.4752 53.7981 11.1324 44.4553 11.1324 32.9305C11.1324 21.4056 20.4752 12.0629 32 12.0629C43.5248 12.0629 52.8676 21.4056 52.8676 32.9305ZM22.5426 7.65025L15.1915 6.61048C13.7535 6.40708 12.4132 7.3808 12.1623 8.81132L10.8796 16.1239C10.7361 16.942 10.2231 17.648 9.48945 18.0373L2.93112 21.5169C1.64816 22.1976 1.13624 23.7732 1.77407 25.078L5.03457 31.748C5.3993 32.4941 5.3993 33.3668 5.03457 34.113L1.77407 40.783C1.13624 42.0878 1.64816 43.6633 2.93112 44.344L9.48945 47.8237C10.2231 48.213 10.7361 48.919 10.8796 49.737L12.1623 57.0497C12.4132 58.4802 13.7535 59.4539 15.1915 59.2505L22.5426 58.2107C23.3649 58.0944 24.1949 58.3641 24.7918 58.9415L30.1279 64.1036C31.1717 65.1134 32.8283 65.1134 33.8721 64.1036L39.2082 58.9415C39.8051 58.3641 40.6351 58.0944 41.4574 58.2107L48.8085 59.2505C50.2465 59.4539 51.5868 58.4802 51.8377 57.0497L53.1204 49.737C53.2639 48.919 53.7769 48.213 54.5105 47.8237L61.0689 44.344C62.3518 43.6633 62.8638 42.0878 62.2259 40.783L58.9654 34.113C58.6007 33.3668 58.6007 32.4941 58.9654 31.748L62.2259 25.078C62.8638 23.7732 62.3518 22.1976 61.0689 21.5169L54.5105 18.0373C53.7769 17.648 53.2639 16.942 53.1204 16.1239L51.8377 8.81132C51.5868 7.38081 50.2465 6.40708 48.8085 6.61048L41.4574 7.65025C40.6351 7.76656 39.8051 7.49688 39.2082 6.91942L33.8721 1.75736C32.8283 0.747547 31.1717 0.747546 30.1279 1.75736L24.7918 6.91942C24.1949 7.49688 23.3649 7.76656 22.5426 7.65025Z" stroke="#93C704" stroke-width="2" stroke-linecap="round" stroke-linejoin="round"/>
</svg>
