<svg width="51" height="51" viewBox="0 0 51 51" fill="none" xmlns="http://www.w3.org/2000/svg">
<g clip-path="url(#clip0_1094_857)">
<path d="M0.577637 0.437988H9.9153H14.1901H40.0373H41.7324H50.5776V9.26485V11.005V47.2273V48.0844V50.438H48.2568H47.3362H11.1615H9.42027H0.577637V41.5217V39.975V14.0334V9.79089V0.437988ZM28.7422 14.584C26.6296 14.6854 24.55 15.1805 22.6643 16.1551C22.1149 16.439 21.6129 16.7794 21.0779 17.0826C21.2894 17.3787 21.7689 17.9728 21.7255 18.3429C21.7108 18.468 21.5755 18.6151 21.4942 18.7095C21.0192 19.2605 20.4485 19.7651 19.9331 20.282C19.6428 20.5731 19.0163 21.2653 18.7204 21.4686C18.6285 21.5317 18.4958 21.5694 18.3883 21.5971C17.97 21.4853 17.5696 21.1902 17.2167 20.9415C16.8492 21.5435 16.4742 22.1475 16.1714 22.7853C14.7855 25.7049 14.3251 29.1413 15.0838 32.3007L15.1062 32.3173C15.4511 32.5691 15.8361 32.7605 16.1719 33.027C18.0928 34.5511 19.4562 36.692 19.8496 39.1311C19.9112 39.5134 19.9376 39.8997 19.9823 40.2843C20.1321 40.4076 20.2844 40.528 20.4391 40.6452C20.5937 40.7625 20.7506 40.8766 20.9099 40.9875C21.0692 41.0984 21.2306 41.2062 21.3941 41.3106C21.5577 41.4151 21.7234 41.5162 21.891 41.614C22.0587 41.7117 22.2282 41.8061 22.3996 41.8972C22.5711 41.9881 22.7443 42.0756 22.9192 42.1596C23.0942 42.2436 23.2707 42.3241 23.4489 42.401C23.6271 42.4779 23.8068 42.5512 23.988 42.6209C24.1691 42.6906 24.3516 42.7566 24.5353 42.8189C24.7191 42.8812 24.9041 42.9399 25.0903 42.9948C25.2765 43.0497 25.4636 43.1008 25.6519 43.1482C25.8401 43.1956 26.0292 43.2392 26.2191 43.279C26.4091 43.3188 26.5998 43.3547 26.7912 43.3868C26.9826 43.4189 27.1746 43.4472 27.3671 43.4716C27.5597 43.4959 27.7526 43.5164 27.946 43.5331C28.1394 43.5497 28.333 43.5624 28.5269 43.5713C29.329 43.5926 30.132 43.586 30.93 43.4924C31.1222 43.4695 31.3138 43.4429 31.505 43.4124C31.6961 43.382 31.8866 43.3478 32.0765 43.3099C32.2662 43.2718 32.4552 43.2301 32.6434 43.1847C32.8315 43.1392 33.0187 43.09 33.2049 43.0371C33.3911 42.9842 33.5761 42.9276 33.7601 42.8675C33.944 42.8073 34.1267 42.7434 34.3081 42.676C34.4895 42.6085 34.6696 42.5374 34.8482 42.4629C35.0268 42.3883 35.2039 42.3102 35.3794 42.2286C35.5549 42.147 35.7287 42.062 35.9009 41.9734C36.0731 41.885 36.2434 41.7931 36.4119 41.6979C36.5804 41.6027 36.747 41.5042 36.9116 41.4023C37.0762 41.3005 37.2387 41.1955 37.3992 41.0872C37.5596 40.9789 37.7179 40.8675 37.8739 40.753C38.0299 40.6384 38.1836 40.5209 38.3351 40.4003C38.4864 40.2797 38.6353 40.1561 38.7818 40.0295C38.9283 39.903 39.0722 39.7736 39.2136 39.6414C39.2983 39.5612 39.3821 39.48 39.4649 39.3978C39.5477 39.3155 39.6295 39.2323 39.7103 39.148C39.791 39.0639 39.8707 38.9787 39.9494 38.8925C40.0281 38.8063 40.1057 38.7192 40.1822 38.6311C40.2589 38.5431 40.3343 38.4541 40.4087 38.3642C40.4831 38.2743 40.5564 38.1835 40.6286 38.0918C40.7007 38.0001 40.7718 37.9076 40.8418 37.8142C40.9117 37.7207 40.9805 37.6265 41.0481 37.5314C41.1157 37.4363 41.1822 37.3404 41.2475 37.2437C41.3128 37.147 41.3769 37.0495 41.4398 36.9513C41.5027 36.853 41.5644 36.7539 41.625 36.6542C41.6855 36.5544 41.7448 36.4539 41.8028 36.3526C41.8609 36.2515 41.9177 36.1496 41.9733 36.047C42.0289 35.9444 42.0832 35.8411 42.1362 35.7371C42.1893 35.6332 42.2411 35.5286 42.2916 35.4234C42.3421 35.3182 42.3913 35.2124 42.4393 35.1061C42.4872 34.9997 42.5339 34.8927 42.5792 34.7853C42.6246 34.6777 42.6686 34.5696 42.7112 34.461C42.7539 34.3524 42.7953 34.2433 42.8353 34.1337C42.8754 34.0241 42.9141 33.9141 42.9515 33.8035C42.9888 33.693 43.0249 33.582 43.0596 33.4705C43.0942 33.3591 43.1275 33.2473 43.1594 33.1351C43.1913 33.0228 43.2219 32.9102 43.2511 32.7973C43.2803 32.6842 43.3081 32.5709 43.3346 32.4573C43.361 32.3436 43.386 32.2297 43.4097 32.1154C43.4333 32.0012 43.4556 31.8866 43.4765 31.7718C43.4973 31.657 43.5168 31.542 43.5349 31.4267C43.5529 31.3114 43.5695 31.1959 43.5848 31.0802C43.6001 30.9645 43.6139 30.8486 43.6263 30.7326C43.6387 30.6166 43.6497 30.5004 43.6594 30.3841C43.6689 30.2678 43.6771 30.1514 43.6839 30.035C43.6907 29.9184 43.696 29.8019 43.6999 29.6853C43.7188 28.9469 43.7116 28.2049 43.6374 27.4693C43.6084 27.2048 43.5722 26.9413 43.5288 26.6787C43.4853 26.4162 43.4347 26.1551 43.3769 25.8953C43.319 25.6355 43.2542 25.3776 43.1822 25.1214C43.1102 24.8652 43.0312 24.6112 42.9453 24.3594C42.8594 24.1075 42.7666 23.8583 42.6669 23.6115C42.5672 23.3648 42.4609 23.121 42.3478 22.8801C42.2348 22.6392 42.1152 22.4016 41.9891 22.1673C41.863 21.9329 41.7305 21.7022 41.5917 21.4752C41.236 20.8983 40.827 20.3761 40.4315 19.8288C39.8755 19.765 39.3184 19.7159 38.7708 19.5948C38.6353 19.5647 38.5005 19.5318 38.3664 19.496C38.2324 19.4601 38.0991 19.4214 37.9667 19.3799C37.8343 19.3383 37.7028 19.294 37.5723 19.2468C37.4418 19.1996 37.3124 19.1497 37.184 19.0969C37.0556 19.0441 36.9284 18.9887 36.8024 18.9306C36.6764 18.8724 36.5517 18.8115 36.4283 18.7479C36.3049 18.6844 36.183 18.6183 36.0624 18.5495C35.9419 18.4808 35.8229 18.4094 35.7054 18.3355C35.5879 18.2617 35.472 18.1853 35.3578 18.1064C35.2435 18.0276 35.1311 17.9464 35.0203 17.8627C34.9096 17.779 34.8007 17.6931 34.6936 17.6048C34.5866 17.5164 34.4815 17.4258 34.3783 17.333C34.2752 17.2402 34.1741 17.1452 34.075 17.048C33.9759 16.9508 33.8789 16.8516 33.7841 16.7503C33.6892 16.6489 33.5966 16.5456 33.5062 16.4403C33.4158 16.335 33.3277 16.2278 33.2419 16.1187C32.9511 15.751 32.6809 15.3462 32.4501 14.9384C31.5568 14.6964 29.6582 14.4715 28.7422 14.584ZM10.5976 1.60978C10.5214 2.07152 10.2923 3.36488 10.1279 3.74883C10.0786 3.86405 10.0262 3.9542 9.92109 4.02629C9.69081 4.18431 9.38345 4.22548 9.12762 4.33303C8.79456 4.47306 8.46018 4.67033 8.11815 4.7811C8.01302 4.81516 7.91215 4.84002 7.80166 4.81807C7.44629 4.74744 6.15399 3.84045 5.795 3.58813C5.4861 3.94598 5.14289 4.27511 4.80869 4.60904C4.45541 4.96205 4.1065 5.32156 3.74032 5.66114C4.04428 6.10233 4.7224 7.04459 4.90881 7.49756C4.95229 7.60321 4.98529 7.72647 4.96542 7.84115C4.90069 8.21456 4.61153 8.65602 4.46603 9.02008C4.38413 9.22499 4.33842 9.44712 4.24821 9.6474C4.21155 9.7288 4.15416 9.83542 4.07723 9.88515C3.72353 10.1138 2.21628 10.3595 1.74846 10.458C1.77642 11.4254 1.76777 12.4011 1.75418 13.3689L3.07702 13.6448C3.33696 13.6996 3.6239 13.7383 3.86961 13.8399C3.99105 13.8901 4.12172 13.9693 4.19524 14.0814C4.24236 14.1533 4.26851 14.2407 4.29765 14.321C4.39436 14.5873 4.48113 14.8619 4.59496 15.1214C4.70199 15.3652 4.84823 15.6032 4.931 15.8562C4.96256 15.9527 4.99391 16.0741 4.97045 16.1757C4.88111 16.5622 4.01116 17.7405 3.74092 18.1696C4.1757 18.5869 4.60455 19.0103 5.02747 19.4396C5.28647 19.6989 5.57331 19.9546 5.79888 20.243C6.17673 19.9561 7.3044 19.1625 7.71014 19.0187C7.78235 18.9931 7.85661 18.9863 7.93257 18.9949C8.29826 19.0365 8.66955 19.3087 9.01188 19.443C9.25937 19.5399 9.53306 19.606 9.77079 19.7231C9.86126 19.7678 9.97605 19.8251 10.0376 19.9076C10.2294 20.1644 10.5451 21.8169 10.5938 22.2137C11.5592 22.2045 12.5409 22.1757 13.5049 22.2181C13.6087 21.6879 13.8274 20.3689 14.0367 19.9457C14.0676 19.8834 14.1154 19.8366 14.1722 19.7974C14.4168 19.6282 14.7584 19.5783 15.0317 19.4646C15.3508 19.332 15.6605 19.1445 15.9882 19.0393C16.1012 19.0029 16.199 18.9827 16.3168 19.0078C16.6738 19.084 17.9597 19.9839 18.307 20.2371C18.9422 19.509 19.6823 18.8418 20.3668 18.1581C20.1208 17.8113 19.8913 17.4522 19.6586 17.0965C19.502 16.857 19.3204 16.611 19.2024 16.3503C19.1531 16.2412 19.1178 16.1317 19.1368 16.0113C19.2011 15.6056 19.491 15.1924 19.6419 14.8077C19.7273 14.5897 19.7749 14.3452 19.8825 14.138C19.9243 14.0575 19.9794 13.9735 20.0554 13.9215C20.3435 13.7242 21.9206 13.4619 22.3634 13.3623C22.3194 12.4 22.344 11.4234 22.3524 10.4599C21.9025 10.3564 20.4477 10.1046 20.1326 9.94764C20.039 9.901 19.9683 9.8275 19.9141 9.73895C19.7644 9.49454 19.7097 9.18243 19.6003 8.91712C19.4585 8.57289 19.2452 8.23518 19.1493 7.87618C19.1254 7.78646 19.1329 7.70034 19.1579 7.61159C19.2725 7.205 20.0888 6.07809 20.3625 5.6606L19.0351 4.33835C18.7912 4.09433 18.5247 3.85339 18.3047 3.58792C17.9769 3.83418 17.621 4.04995 17.2774 4.27367C17.0388 4.42901 16.7961 4.61216 16.5393 4.73444C16.4145 4.79391 16.2801 4.84404 16.1401 4.82159C15.8259 4.77118 15.5317 4.55111 15.2384 4.43186C14.8596 4.27785 14.4364 4.1816 14.0872 3.96749C13.8316 3.5553 13.6196 2.16018 13.5003 1.61095C12.5362 1.61254 11.5608 1.64159 10.5976 1.60978ZM40.3 1.64433C37.9307 1.83807 35.8658 2.90767 34.3218 4.7139C32.9286 6.34368 32.2148 8.65022 32.3895 10.7812C32.3947 10.8524 32.4008 10.9236 32.4078 10.9947C32.4148 11.0658 32.4228 11.1368 32.4315 11.2078C32.4403 11.2787 32.45 11.3495 32.4605 11.4201C32.4712 11.4908 32.4826 11.5614 32.4949 11.6317C32.5073 11.7021 32.5205 11.7723 32.5347 11.8424C32.5487 11.9124 32.5637 11.9823 32.5796 12.052C32.5955 12.1217 32.6122 12.1911 32.6298 12.2604C32.6474 12.3296 32.6659 12.3987 32.6853 12.4675C32.7046 12.5362 32.7248 12.6048 32.7459 12.673C32.767 12.7413 32.7889 12.8093 32.8116 12.877C32.8344 12.9448 32.858 13.0123 32.8825 13.0794C32.907 13.1465 32.9323 13.2133 32.9585 13.2799C32.9846 13.3464 33.0116 13.4125 33.0395 13.4783C33.0672 13.5441 33.0959 13.6096 33.1253 13.6747C33.1548 13.7398 33.1851 13.8046 33.2161 13.8689C33.2472 13.9333 33.2791 13.9972 33.3118 14.0607C33.3445 14.1243 33.378 14.1874 33.4123 14.2501C33.4465 14.3128 33.4816 14.3751 33.5175 14.4369C33.5533 14.4987 33.5899 14.5601 33.6273 14.621C33.6647 14.6819 33.7028 14.7423 33.7417 14.8022C33.7806 14.8621 33.8203 14.9216 33.8607 14.9806C33.9011 15.0395 33.9422 15.0979 33.9841 15.1559C34.0259 15.2137 34.0685 15.2711 34.1118 15.3279C34.1552 15.3848 34.1992 15.441 34.2438 15.4968C34.2886 15.5525 34.334 15.6077 34.3802 15.6623C34.4263 15.7169 34.473 15.7709 34.5205 15.8243C34.568 15.8778 34.6161 15.9306 34.6648 15.9827C34.7137 16.0349 34.7631 16.0865 34.8132 16.1375C34.8633 16.1885 34.914 16.2388 34.9653 16.2885C35.0167 16.3382 35.0687 16.3873 35.1213 16.4356C35.1739 16.484 35.2271 16.5317 35.2809 16.5788C35.3346 16.6258 35.389 16.6722 35.4439 16.7179C37.1075 18.12 39.3631 18.8195 41.5261 18.6524C43.8837 18.462 45.9556 17.3387 47.4836 15.5376C48.8484 13.9289 49.5586 11.6296 49.3774 9.53055C49.1752 7.18778 48.1211 5.09945 46.314 3.58378C46.2103 3.49741 46.1047 3.41356 45.997 3.33225C45.8893 3.25092 45.7797 3.17223 45.6683 3.09615C45.5568 3.02008 45.4436 2.94671 45.3286 2.87604C45.2136 2.80539 45.0971 2.73752 44.9789 2.67243C44.8607 2.60735 44.741 2.54514 44.6198 2.48578C44.4986 2.42642 44.376 2.36999 44.2521 2.3165C44.1283 2.26301 44.0032 2.21251 43.8769 2.165C43.7506 2.11749 43.6233 2.07302 43.4948 2.03161C43.3664 1.99019 43.237 1.95187 43.1068 1.91664C42.9766 1.88141 42.8455 1.84932 42.7137 1.82036C42.5819 1.7914 42.4495 1.7656 42.3165 1.74298C42.1834 1.72035 42.0499 1.70092 41.916 1.68469C41.782 1.66844 41.6478 1.65542 41.5132 1.64561C41.3786 1.63579 41.2439 1.6292 41.109 1.62583C40.9741 1.62246 40.8392 1.62231 40.7043 1.6254C40.5693 1.62849 40.4346 1.63479 40.3 1.64433ZM9.92968 32.2863C7.75102 32.3644 5.59847 33.2948 4.10247 34.8924C4.05356 34.9439 4.00531 34.9961 3.95771 35.0489C3.91012 35.1017 3.86319 35.155 3.81692 35.209C3.77067 35.2629 3.72509 35.3174 3.6802 35.3726C3.6353 35.4276 3.5911 35.4833 3.5476 35.5395C3.50409 35.5956 3.4613 35.6524 3.41922 35.7097C3.37714 35.7669 3.33578 35.8247 3.29515 35.883C3.25451 35.9413 3.21461 36.0001 3.17545 36.0594C3.13629 36.1187 3.09787 36.1785 3.0602 36.2388C3.02254 36.2991 2.98564 36.3598 2.9495 36.4209C2.91336 36.4821 2.87798 36.5437 2.84338 36.6059C2.80878 36.6679 2.77497 36.7304 2.74193 36.7934C2.7089 36.8562 2.67666 36.9196 2.6452 36.9833C2.61375 37.047 2.58311 37.1112 2.55327 37.1757C2.52343 37.2401 2.49439 37.305 2.46617 37.3702C2.43796 37.4354 2.41056 37.501 2.38398 37.5669C2.35741 37.6328 2.33166 37.6991 2.30674 37.7656C2.28182 37.8322 2.25774 37.899 2.2345 37.9662C2.21126 38.0333 2.18886 38.1008 2.1673 38.1686C2.14575 38.2363 2.12505 38.3042 2.1052 38.3725C2.08535 38.4407 2.06635 38.5091 2.04821 38.5778C2.03007 38.6466 2.0128 38.7155 1.99639 38.7847C1.97998 38.8538 1.96444 38.9231 1.94977 38.9927C1.93509 39.0622 1.92129 39.1319 1.90836 39.2018C1.89543 39.2717 1.88338 39.3417 1.87221 39.4119C1.86104 39.4821 1.85074 39.5524 1.84133 39.6228C1.83191 39.6933 1.82339 39.7638 1.81574 39.8345C1.80809 39.9051 1.80133 39.9758 1.79546 40.0467C1.78958 40.1175 1.78459 40.1884 1.7805 40.2594C1.7764 40.3303 1.77319 40.4012 1.77087 40.4723C1.76854 40.5433 1.76711 40.6144 1.76657 40.6854C1.76603 40.7565 1.76637 40.8276 1.76762 40.8986C1.76885 40.9697 1.77098 41.0407 1.77399 41.1117C1.77709 41.1809 1.78104 41.2501 1.78582 41.3192C1.7906 41.3884 1.79622 41.4575 1.80268 41.5265C1.80913 41.5954 1.81643 41.6643 1.82455 41.7331C1.83268 41.8019 1.84165 41.8706 1.85145 41.9393C1.86125 42.0079 1.87188 42.0764 1.88334 42.1447C1.8948 42.213 1.90709 42.2812 1.9202 42.3492C1.93332 42.4172 1.94727 42.4851 1.96203 42.5528C1.9768 42.6205 1.99238 42.6881 2.00879 42.7555C2.02519 42.8228 2.04241 42.8899 2.06044 42.9567C2.07847 43.0237 2.09732 43.0904 2.11697 43.1568C2.13663 43.2232 2.15709 43.2894 2.17835 43.3554C2.19961 43.4213 2.22166 43.487 2.24452 43.5524C2.26737 43.6179 2.29102 43.683 2.31546 43.7478C2.33989 43.8127 2.36511 43.8772 2.39112 43.9415C2.41713 44.0057 2.4439 44.0696 2.47145 44.1332C2.49901 44.1967 2.52734 44.26 2.55643 44.3228C2.58552 44.3857 2.61537 44.4483 2.64598 44.5104C2.67659 44.5726 2.70795 44.6344 2.74006 44.6959C2.77217 44.7573 2.80502 44.8183 2.83861 44.8789C2.8722 44.9395 2.90652 44.9997 2.94157 45.0595C2.97662 45.1192 3.0124 45.1786 3.0489 45.2375C3.08539 45.2964 3.12259 45.3548 3.16051 45.4128C3.19842 45.4708 3.23703 45.5284 3.27634 45.5854C3.31565 45.6425 3.35564 45.6991 3.39633 45.7552C3.43701 45.8113 3.47837 45.8669 3.5204 45.922C3.56244 45.977 3.60514 46.0316 3.6485 46.0856C3.69186 46.1397 3.73586 46.1933 3.78052 46.2463C3.82518 46.2992 3.87047 46.3516 3.91641 46.4035C3.96234 46.4554 4.00889 46.5067 4.05606 46.5575C4.10325 46.6083 4.15103 46.6585 4.19942 46.708C4.24782 46.7576 4.29681 46.8066 4.3464 46.8551C4.39598 46.9034 4.44615 46.9512 4.49689 46.9984C5.75489 48.1551 7.40958 48.9627 9.1114 49.1763C9.37891 49.2099 9.65213 49.2433 9.92174 49.2492C10.1516 49.2543 10.3815 49.2394 10.6112 49.2519C10.9703 49.227 11.3313 49.2013 11.6864 49.1399C11.8054 49.1194 11.9238 49.0965 12.0418 49.071C12.1598 49.0455 12.2771 49.0175 12.3939 48.987C12.5107 48.9565 12.6268 48.9236 12.7422 48.8883C12.8576 48.8529 12.9721 48.815 13.0859 48.7748C13.1997 48.7346 13.3126 48.6919 13.4246 48.6469C13.5366 48.6019 13.6476 48.5545 13.7575 48.5048C13.8675 48.455 13.9763 48.403 14.0841 48.3487C14.1919 48.2944 14.2985 48.2378 14.4038 48.1789C14.5092 48.12 14.6133 48.059 14.716 47.9958C14.8188 47.9325 14.9202 47.8671 15.0202 47.7995C15.1203 47.732 15.2188 47.6624 15.3158 47.5906C15.4129 47.5189 15.5084 47.4451 15.6023 47.3694C15.6963 47.2936 15.7886 47.2159 15.8793 47.1362C15.9699 47.0565 16.0588 46.975 16.146 46.8915C16.2332 46.808 16.3186 46.7228 16.4021 46.6357C16.4857 46.5487 16.5674 46.4599 16.6473 46.3693C16.6923 46.3175 16.7367 46.2652 16.7805 46.2123C16.8242 46.1594 16.8673 46.106 16.9098 46.052C16.9523 45.9981 16.9941 45.9437 17.0353 45.8888C17.0764 45.8338 17.1169 45.7784 17.1566 45.7225C17.1964 45.6665 17.2355 45.6101 17.2739 45.5532C17.3123 45.4964 17.3501 45.4391 17.3871 45.3812C17.4242 45.3234 17.4605 45.2652 17.4961 45.2065C17.5317 45.1479 17.5666 45.0888 17.6008 45.0292C17.635 44.9697 17.6684 44.9098 17.7012 44.8494C17.7339 44.7891 17.7658 44.7283 17.7971 44.6672C17.8283 44.6061 17.8588 44.5447 17.8886 44.4828C17.9183 44.4209 17.9473 44.3587 17.9756 44.2961C18.0038 44.2335 18.0313 44.1706 18.058 44.1074C18.0847 44.0442 18.1106 43.9807 18.1358 43.9168C18.161 43.8529 18.1854 43.7888 18.209 43.7243C18.2326 43.6599 18.2554 43.5951 18.2774 43.5302C18.2995 43.4651 18.3208 43.3999 18.3412 43.3344C18.3617 43.2688 18.3813 43.203 18.4001 43.137C18.419 43.0711 18.437 43.0048 18.4543 42.9384C18.4715 42.8719 18.488 42.8053 18.5036 42.7385C18.5192 42.6716 18.534 42.6046 18.5479 42.5374C18.5619 42.4702 18.5751 42.4029 18.5875 42.3353C18.5999 42.2678 18.6114 42.2001 18.6222 42.1323C18.6328 42.0645 18.6427 41.9966 18.6518 41.9286C18.6608 41.8605 18.669 41.7923 18.6765 41.7241C18.6839 41.6559 18.6905 41.5876 18.6962 41.5191C18.7019 41.4508 18.7068 41.3823 18.7109 41.3138C18.715 41.2453 18.7183 41.1767 18.7207 41.1081C18.7231 41.0395 18.7247 40.9709 18.7255 40.9022C18.7262 40.8336 18.7261 40.765 18.7252 40.6964C18.7243 40.6278 18.7225 40.5591 18.7199 40.4905C18.7173 40.4219 18.7139 40.3534 18.7097 40.2849C18.7056 40.2146 18.7006 40.1444 18.6947 40.0742C18.6889 40.0041 18.6821 39.934 18.6745 39.8641C18.6669 39.7941 18.6584 39.7242 18.6491 39.6545C18.6397 39.5847 18.6295 39.5151 18.6185 39.4456C18.6074 39.3761 18.5955 39.3067 18.5827 39.2375C18.5699 39.1683 18.5562 39.0992 18.5418 39.0304C18.5273 38.9615 18.5119 38.8928 18.4957 38.8243C18.4795 38.7558 18.4624 38.6875 18.4445 38.6194C18.4266 38.5514 18.4079 38.4836 18.3883 38.4159C18.3687 38.3483 18.3482 38.281 18.327 38.214C18.3057 38.1468 18.2836 38.08 18.2606 38.0135C18.2377 37.9469 18.214 37.8807 18.1895 37.8147C18.1648 37.7487 18.1395 37.6831 18.1133 37.6178C18.0871 37.5525 18.0601 37.4875 18.0322 37.4228C18.0044 37.3581 17.9758 37.2938 17.9464 37.2299C17.917 37.1659 17.8868 37.1024 17.8558 37.0392C17.8248 36.976 17.793 36.9132 17.7604 36.8508C17.7279 36.7884 17.6946 36.7264 17.6605 36.6648C17.6264 36.6033 17.5916 36.5421 17.556 36.4813C17.5203 36.4207 17.484 36.3604 17.4469 36.3006C17.4098 36.2408 17.3719 36.1815 17.3334 36.1226C17.2948 36.0637 17.2555 36.0053 17.2154 35.9475C17.1754 35.8896 17.1347 35.8322 17.0933 35.7753C17.0518 35.7184 17.0096 35.662 16.9668 35.6062C16.9239 35.5504 16.8803 35.4951 16.8361 35.4403C16.7919 35.3856 16.7469 35.3314 16.7014 35.2777C16.6558 35.2241 16.6096 35.171 16.5627 35.1186C16.5158 35.0661 16.4683 35.0142 16.4201 34.9629C16.3719 34.9116 16.3231 34.8609 16.2736 34.8107C16.2242 34.7607 16.1742 34.7112 16.1234 34.6624C16.0728 34.6135 16.0215 34.5653 15.9696 34.5178C15.9178 34.4702 15.8654 34.4232 15.8123 34.3769C14.0843 32.883 12.1974 32.2776 9.92968 32.2863ZM39.1904 41.2521C38.7918 41.6285 38.2965 41.9501 37.8392 42.25C37.7009 42.3409 37.5612 42.4297 37.42 42.5161C37.2789 42.6026 37.1365 42.6868 36.9927 42.7687C36.8489 42.8506 36.7038 42.9303 36.5574 43.0076C36.4111 43.0849 36.2635 43.1598 36.1147 43.2324C35.966 43.305 35.8161 43.3752 35.6651 43.4431C35.5142 43.5108 35.3621 43.5762 35.2091 43.6392C35.056 43.7021 34.902 43.7626 34.747 43.8207C34.592 43.8788 34.4361 43.9343 34.2793 43.9874C34.1225 44.0405 33.9649 44.091 33.8065 44.1391C33.6482 44.1871 33.4891 44.2326 33.3293 44.2756C33.1695 44.3186 33.009 44.359 32.8478 44.3969C32.6867 44.4347 32.525 44.4699 32.3628 44.5026C32.2005 44.5353 32.0377 44.5654 31.8745 44.593C31.7114 44.6204 31.5478 44.6453 31.3837 44.6676C31.2197 44.6899 31.0554 44.7096 30.8908 44.7266C30.7262 44.7436 30.5613 44.758 30.3962 44.7698C30.2062 44.7837 30.0159 44.7941 29.8255 44.8011C29.635 44.808 29.4445 44.8115 29.2539 44.8115C29.0633 44.8115 28.8728 44.8081 28.6824 44.8013C28.492 44.7944 28.3017 44.784 28.1116 44.7702C27.9216 44.7564 27.7318 44.7392 27.5424 44.7186C27.353 44.6978 27.164 44.6737 26.9754 44.6462C26.7868 44.6186 26.5989 44.5877 26.4114 44.5533C26.224 44.5189 26.0372 44.4812 25.8512 44.44C25.6651 44.3989 25.4798 44.3544 25.2953 44.3064C25.1109 44.2586 24.9274 44.2074 24.7448 44.1528C24.5622 44.0983 24.3807 44.0404 24.2002 43.9793C24.0197 43.9182 23.8403 43.8538 23.6622 43.7861C23.484 43.7185 23.3071 43.6476 23.1315 43.5735C22.956 43.4995 22.7819 43.4223 22.6091 43.3419C22.4363 43.2615 22.265 43.178 22.0953 43.0914C21.9255 43.0047 21.7574 42.9151 21.5909 42.8224C21.0222 42.5071 20.4194 42.1559 19.9244 41.7339C19.8691 42.8096 19.5086 43.9283 19.0552 44.8976C19.0192 44.9729 18.9822 45.0477 18.9443 45.1221C18.9064 45.1965 18.8676 45.2704 18.8278 45.3437C18.7881 45.4171 18.7473 45.49 18.7057 45.5623C18.664 45.6346 18.6214 45.7064 18.5778 45.7776C18.5343 45.8489 18.4899 45.9195 18.4446 45.9896C18.3993 46.0597 18.3531 46.1292 18.306 46.1981C18.2588 46.267 18.2108 46.3353 18.162 46.403C18.1131 46.4707 18.0634 46.5377 18.0128 46.6041C17.9622 46.6705 17.9108 46.7363 17.8585 46.8014C17.8063 46.8664 17.7532 46.9308 17.6992 46.9945C17.6453 47.0583 17.5906 47.1213 17.5351 47.1836C17.4795 47.2459 17.4232 47.3075 17.366 47.3684C17.3089 47.4292 17.251 47.4894 17.1924 47.5487C17.1337 47.6081 17.0743 47.6667 17.0141 47.7246C16.9539 47.7824 16.893 47.8395 16.8313 47.8958C16.7698 47.952 16.7074 48.0075 16.6443 48.0622C16.5812 48.1169 16.5175 48.1708 16.453 48.2238C16.3886 48.2769 16.3235 48.3291 16.2577 48.3805C16.192 48.4319 16.1255 48.4825 16.0584 48.5321C15.9913 48.5818 15.9236 48.6306 15.8553 48.6785C15.7869 48.7264 15.718 48.7735 15.6484 48.8196C15.5789 48.8658 15.5088 48.9111 15.4381 48.9555C15.3674 48.9998 15.2961 49.0433 15.2243 49.0858C15.1525 49.1283 15.0801 49.17 15.0072 49.2106C14.9343 49.2513 14.8609 49.291 14.787 49.3298C14.7131 49.3686 14.6387 49.4064 14.5639 49.4434C14.4889 49.4802 14.4136 49.5161 14.3378 49.5511C14.262 49.586 14.1858 49.62 14.1091 49.653C14.0324 49.686 13.9553 49.718 13.8778 49.749C13.8003 49.78 13.7224 49.81 13.6441 49.8391C13.5659 49.868 13.4873 49.896 13.4083 49.923C13.3293 49.9501 13.2499 49.976 13.1703 50.001C12.8126 50.1156 12.449 50.2063 12.0794 50.2729C11.8184 50.3189 11.4395 50.3281 11.2021 50.4213C11.1885 50.4267 11.175 50.4324 11.1615 50.438H47.3362C47.2427 50.3884 47.1279 50.3685 47.0271 50.3347C46.7255 50.2333 46.4227 50.1136 46.162 49.9281C45.8125 49.6795 45.5008 49.3279 45.1979 49.0252L43.7793 47.6069L41.2532 45.083C40.791 44.6219 40.3104 44.1698 39.8658 43.6919C39.7242 43.5397 39.5448 43.3501 39.5586 43.1305C39.5808 42.7768 39.9541 42.5031 40.1944 42.2784C39.8567 41.9441 39.4962 41.6158 39.1904 41.2521ZM50.5776 11.005C50.5752 11.013 50.5727 11.021 50.5703 11.029C50.4898 11.3084 50.4776 11.6202 50.4337 11.9081C50.3879 12.2086 50.309 12.5064 50.224 12.798C50.2021 12.8742 50.1794 12.95 50.1557 13.0255C50.132 13.101 50.1074 13.1762 50.0818 13.2512C50.0563 13.3261 50.0298 13.4007 50.0024 13.4749C49.9751 13.5492 49.9468 13.6231 49.9177 13.6968C49.8885 13.7703 49.8584 13.8436 49.8274 13.9164C49.7964 13.9893 49.7646 14.0617 49.7319 14.1338C49.6992 14.2059 49.6656 14.2775 49.6311 14.3487C49.5965 14.42 49.5612 14.4908 49.5249 14.5611C49.4887 14.6315 49.4516 14.7015 49.4137 14.771C49.3757 14.8405 49.3369 14.9094 49.2974 14.9779C49.2577 15.0465 49.2173 15.1145 49.176 15.182C49.1346 15.2495 49.0925 15.3166 49.0496 15.3831C49.0067 15.4496 48.963 15.5155 48.9184 15.581C48.8738 15.6464 48.8285 15.7113 48.7823 15.7756C48.7362 15.8399 48.6893 15.9037 48.6416 15.9669C48.5939 16.03 48.5454 16.0926 48.4962 16.1546C48.447 16.2166 48.397 16.278 48.3463 16.3388C48.2956 16.3995 48.2441 16.4596 48.1919 16.5191C48.1397 16.5786 48.0867 16.6375 48.0331 16.6957C47.9795 16.7539 47.9251 16.8115 47.87 16.8684C47.815 16.9252 47.7593 16.9814 47.7028 17.0369C47.6464 17.0924 47.5893 17.1473 47.5315 17.2014C47.4737 17.2555 47.4153 17.3089 47.3562 17.3615C47.2972 17.4143 47.2375 17.4662 47.1771 17.5174C47.1168 17.5686 47.0558 17.6191 46.9942 17.6688C46.9326 17.7186 46.8704 17.7675 46.8076 17.8157C46.7449 17.864 46.6815 17.9114 46.6176 17.9581C46.5536 18.0047 46.4891 18.0506 46.424 18.0957C46.359 18.1408 46.2934 18.185 46.2272 18.2285C46.1611 18.272 46.0944 18.3146 46.0272 18.3564C45.96 18.3983 45.8923 18.4393 45.8241 18.4795C45.7559 18.5197 45.6872 18.5591 45.6181 18.5976C44.5272 19.2129 43.1399 19.6879 41.8846 19.7866C42.2744 20.2324 42.5875 20.7855 42.8832 21.2981C42.9798 21.4666 43.0732 21.6369 43.1635 21.8089C43.2537 21.9808 43.3407 22.1544 43.4245 22.3296C43.5084 22.5048 43.5889 22.6815 43.6661 22.8597C43.7434 23.0379 43.8173 23.2174 43.8879 23.3983C43.9585 23.5793 44.0257 23.7615 44.0895 23.9449C44.1533 24.1283 44.2136 24.3129 44.2706 24.4985C44.3276 24.6842 44.3811 24.8709 44.431 25.0586C44.4811 25.2462 44.5276 25.4347 44.5706 25.6241C44.6136 25.8135 44.6532 26.0036 44.6892 26.1945C44.7251 26.3854 44.7575 26.5768 44.7863 26.7688C44.8152 26.9609 44.8405 27.1534 44.8622 27.3465C44.8839 27.5395 44.902 27.7328 44.9165 27.9265C44.931 28.1201 44.942 28.314 44.9493 28.5081C44.9566 28.7022 44.9603 28.8963 44.9604 29.0905C44.9606 29.2847 44.9571 29.4789 44.95 29.6729C44.9429 29.867 44.9322 30.0609 44.9179 30.2546C44.9056 30.4215 44.8906 30.5882 44.8729 30.7546C44.8553 30.921 44.835 31.0871 44.8121 31.2528C44.7892 31.4186 44.7636 31.584 44.7353 31.7489C44.7071 31.9139 44.6762 32.0784 44.6428 32.2424C44.6092 32.4063 44.5731 32.5697 44.5345 32.7325C44.4957 32.8953 44.4544 33.0575 44.4105 33.2189C44.3667 33.3805 44.3202 33.5412 44.2712 33.7013C44.2221 33.8612 44.1705 34.0204 44.1164 34.1788C44.0623 34.3371 44.0057 34.4946 43.9465 34.6512C43.8873 34.8077 43.8256 34.9632 43.7615 35.1178C43.6974 35.2724 43.6308 35.4259 43.5617 35.5783C43.4927 35.7308 43.4213 35.8821 43.3474 36.0322C43.2735 36.1824 43.1972 36.3314 43.1185 36.4791C43.0399 36.6268 42.9589 36.7732 42.8756 36.9184C42.7923 37.0635 42.7067 37.2073 42.6187 37.3497C42.5309 37.4921 42.4407 37.633 42.3482 37.7726C42.0664 38.1978 41.7553 38.6818 41.394 39.0427C41.7449 39.3752 42.0876 39.716 42.422 40.0651C42.6204 39.8295 42.9159 39.4414 43.2482 39.4203C43.4577 39.4069 43.6549 39.5578 43.7978 39.694C44.2659 40.1405 44.7156 40.6098 45.1729 41.0677L47.7325 43.6256L49.0581 44.9465C49.4335 45.3192 49.8326 45.6855 50.1432 46.1164C50.3674 46.4274 50.4836 46.8596 50.5776 47.2273V11.005ZM0.577637 14.0334V39.975C0.683885 39.7449 0.658016 39.3425 0.711031 39.077C0.888887 38.1862 1.14502 37.2897 1.55434 36.4759C2.72642 34.1453 4.66091 32.3873 7.14992 31.5596C7.26219 31.5217 7.37512 31.4859 7.48869 31.4521C7.60227 31.4184 7.71643 31.3867 7.83115 31.3571C7.94588 31.3275 8.06111 31.3 8.17684 31.2746C8.29256 31.2492 8.40872 31.2258 8.52529 31.2047C8.64187 31.1835 8.75879 31.1644 8.87605 31.1475C8.99333 31.1305 9.11087 31.1158 9.22867 31.1031C9.34648 31.0904 9.46448 31.0799 9.58267 31.0716C9.70086 31.0632 9.81916 31.057 9.93758 31.0529C10.056 31.0488 10.1744 31.0469 10.2929 31.0472C10.4114 31.0474 10.5299 31.0498 10.6482 31.0544C10.7667 31.0589 10.885 31.0657 11.0031 31.0745C11.1212 31.0834 11.2392 31.0943 11.3569 31.1074C11.4747 31.1206 11.5922 31.1359 11.7094 31.1533C11.8266 31.1707 11.9434 31.1902 12.0599 31.2119C12.1764 31.2336 12.2925 31.2574 12.4081 31.2832C12.5237 31.3091 12.6388 31.3371 12.7534 31.3672C13.0842 31.4564 13.4447 31.5481 13.7517 31.7016C13.6997 31.4969 13.6722 31.2875 13.6483 31.078C13.2865 27.9033 13.758 24.9238 15.1937 22.0572C15.5032 21.439 15.8505 20.7751 16.2815 20.2331C15.8773 20.4138 15.4671 20.5797 15.0508 20.7308C14.9404 21.2062 14.8465 21.686 14.748 22.1641C14.6914 22.4387 14.6492 22.733 14.5518 22.9962C14.5169 23.0902 14.4625 23.1731 14.4076 23.2563C14.3437 23.2874 14.2783 23.3198 14.2102 23.3405C13.9311 23.4256 10.5281 23.4208 10.0967 23.3758C9.94789 23.3603 9.83803 23.327 9.70526 23.2567C9.41098 22.8121 9.19228 21.3356 9.05887 20.7324C8.68345 20.5891 8.28968 20.4562 7.94056 20.2556C7.45636 20.5551 6.29875 21.4216 5.84986 21.5549C5.70857 21.5969 5.55858 21.577 5.43087 21.5018C5.1651 21.3452 4.33091 20.4399 4.06481 20.1735C3.58596 19.6939 3.06135 19.2237 2.61507 18.7156C2.5235 18.6113 2.39716 18.4583 2.36863 18.3223C2.30323 18.0105 3.47501 16.3856 3.7008 16.0333C3.49189 15.6808 3.3835 15.2701 3.21245 14.8988C2.53127 14.7282 1.82021 14.6419 1.14561 14.4535C0.87548 14.3781 0.716603 14.2776 0.577637 14.0334ZM14.1901 0.437988C14.316 0.522751 14.4124 0.591741 14.4886 0.728188C14.6927 1.09401 14.9305 2.50725 15.0288 3.00438L15.044 3.08425C15.4088 3.26084 15.8185 3.34667 16.1616 3.56835L16.1834 3.55568C16.7273 3.23484 17.6868 2.44644 18.2105 2.27637C18.3066 2.24517 18.3972 2.23837 18.4954 2.26333C18.6057 2.29135 18.6993 2.34831 18.7861 2.42071C19.081 2.66663 21.5668 5.1421 21.648 5.29894C21.7233 5.44446 21.7411 5.60653 21.687 5.76144C21.6109 5.97913 21.4655 6.17726 21.3402 6.36873C21.0573 6.8014 20.6449 7.34133 20.42 7.78496C20.5419 8.16193 20.7352 8.53952 20.8747 8.91639C21.3078 9.0197 21.7428 9.11397 22.1799 9.1992C22.4823 9.2596 22.8207 9.30645 23.1088 9.41678C23.2354 9.46528 23.3603 9.52756 23.4363 9.64418C23.4943 9.7332 23.5169 9.81816 23.5273 9.92329C23.5623 10.2752 23.5825 13.7366 23.5193 14.0033C23.4898 14.1277 23.4008 14.2724 23.2893 14.3388C22.8971 14.5726 21.4357 14.7386 20.8653 14.908C20.7267 15.3335 20.5638 15.7419 20.3642 16.1425C20.5389 16.0218 20.716 15.9048 20.8956 15.7914C21.0752 15.678 21.257 15.5683 21.441 15.4624C21.6251 15.3564 21.8112 15.2543 21.9995 15.156C22.1877 15.0576 22.3779 14.9632 22.57 14.8728C22.7621 14.7822 22.9559 14.6956 23.1516 14.6131C23.3473 14.5305 23.5445 14.4519 23.7434 14.3774C23.9423 14.303 24.1426 14.2326 24.3443 14.1662C24.5461 14.0999 24.7491 14.0378 24.9534 13.9799C25.1577 13.9219 25.3631 13.8681 25.5696 13.8186C25.7761 13.769 25.9836 13.7237 26.1919 13.6826C26.4002 13.6416 26.6093 13.6048 26.8192 13.5724C27.0291 13.5399 27.2395 13.5117 27.4506 13.4878C27.6616 13.464 27.873 13.4444 28.0848 13.4292C28.2966 13.414 28.5087 13.4032 28.7209 13.3967C28.9332 13.3902 29.1455 13.388 29.3579 13.3901C29.5702 13.3924 29.7824 13.3989 29.9945 13.4098C30.5273 13.4373 31.0839 13.4654 31.6084 13.5639C31.6856 13.5784 31.7618 13.5983 31.8375 13.6194C30.9019 11.3437 30.9773 8.67768 31.9198 6.41716C31.9499 6.34304 31.9809 6.26931 32.0128 6.19597C32.0447 6.12263 32.0775 6.0497 32.1113 5.97719C32.1451 5.90467 32.1797 5.83258 32.2152 5.76094C32.2508 5.6893 32.2873 5.61811 32.3246 5.54738C32.362 5.47665 32.4002 5.4064 32.4394 5.33663C32.4784 5.26686 32.5184 5.19759 32.5593 5.12882C32.6001 5.06005 32.6418 4.99181 32.6844 4.92409C32.727 4.85637 32.7703 4.7892 32.8145 4.72257C32.8588 4.65593 32.9039 4.58987 32.9498 4.52437C32.9957 4.45887 33.0424 4.39396 33.09 4.32964C33.1376 4.26532 33.1859 4.2016 33.235 4.13849C33.2841 4.07537 33.334 4.01289 33.3848 3.95103C33.4355 3.88918 33.4869 3.82797 33.5392 3.7674C33.5914 3.70684 33.6445 3.64694 33.6982 3.5877C33.7519 3.52847 33.8064 3.46992 33.8616 3.41205C33.9168 3.35419 33.9728 3.29702 34.0295 3.24056C34.0861 3.18409 34.1435 3.12835 34.2016 3.07333C34.2596 3.01831 34.3183 2.96403 34.3777 2.91048C34.4371 2.85693 34.4972 2.80414 34.5579 2.7521C34.6187 2.70006 34.68 2.64879 34.7421 2.59829C34.8041 2.5478 34.8668 2.49809 34.9301 2.44916C34.9934 2.40024 35.0572 2.35212 35.1217 2.30479C35.1862 2.25748 35.2513 2.21097 35.3169 2.16528C35.3826 2.1196 35.4488 2.07475 35.5155 2.03072C35.5823 1.9867 35.6497 1.94352 35.7176 1.90118C35.7854 1.85885 35.8538 1.81738 35.9227 1.77676C35.9916 1.73614 36.061 1.69639 36.1309 1.65752C36.2008 1.61865 36.2712 1.58066 36.342 1.54355C36.4129 1.50645 36.4842 1.47023 36.556 1.43492C36.6277 1.3996 36.6999 1.36519 36.7726 1.33169C36.8452 1.29819 36.9183 1.2656 36.9917 1.23393C37.0651 1.20226 37.139 1.17152 37.2132 1.1417C37.7053 0.939558 38.2482 0.768492 38.7689 0.657861C39.0602 0.595974 39.8542 0.526371 40.0373 0.437988H14.1901ZM0.577637 0.437988V9.79089C0.598113 9.75727 0.619018 9.72393 0.640353 9.69086C0.691496 9.61193 0.74122 9.54163 0.825079 9.49433C1.16816 9.30081 2.74012 9.03031 3.21537 8.92744C3.39729 8.56013 3.5126 8.16238 3.69863 7.79219C3.31729 7.15666 2.80505 6.54079 2.4738 5.88647C2.38412 5.70934 2.3511 5.57224 2.4205 5.38049C2.45144 5.29401 2.49627 5.21547 2.55501 5.14485C2.9072 4.7134 3.34448 4.3305 3.7398 3.93714C4.22404 3.45528 4.69987 2.94028 5.21644 2.49404C5.32038 2.40425 5.44329 2.30986 5.57116 2.25907C6.02589 2.07845 7.38655 3.32811 7.87809 3.51448C7.99557 3.55902 8.92408 3.13984 9.07778 3.07236C9.19016 2.43527 9.31878 1.78662 9.46833 1.15687C9.54255 0.844329 9.63196 0.613264 9.9153 0.437988H0.577637ZM0.577637 41.5217V50.438H9.42027C9.17509 50.3402 8.6409 50.2987 8.35091 50.2415C7.95691 50.1638 7.5695 50.0611 7.18869 49.9336C6.80787 49.806 6.43678 49.6547 6.07541 49.4795C5.99937 49.4432 5.92381 49.4059 5.84874 49.3676C5.77367 49.3293 5.69911 49.29 5.62507 49.2498C5.55102 49.2096 5.47752 49.1684 5.40455 49.1263C5.33159 49.0841 5.25919 49.041 5.18734 48.997C5.11551 48.9529 5.04426 48.9079 4.97359 48.862C4.90293 48.8161 4.83288 48.7693 4.76344 48.7215C4.694 48.6738 4.6252 48.6251 4.55703 48.5756C4.48886 48.526 4.42135 48.4756 4.3545 48.4243C4.28765 48.373 4.22148 48.3208 4.156 48.2678C4.09051 48.2148 4.02574 48.1609 3.96166 48.1061C3.89758 48.0514 3.83423 47.9958 3.7716 47.9394C3.70898 47.8831 3.6471 47.8259 3.58598 47.7679C3.52485 47.7099 3.46449 47.6511 3.40489 47.5915C3.3453 47.5319 3.2865 47.4716 3.22849 47.4104C3.17047 47.3493 3.11327 47.2874 3.05687 47.2248C3.00047 47.1622 2.94491 47.0989 2.89017 47.0349C2.83543 46.9708 2.78153 46.906 2.72849 46.8405C2.67544 46.775 2.62326 46.7089 2.57193 46.6421C2.52062 46.5752 2.47019 46.5077 2.42063 46.4395C2.37108 46.3714 2.32242 46.3026 2.27467 46.2332C2.22691 46.1637 2.18007 46.0937 2.13415 46.023C2.08823 45.9524 2.04324 45.8811 1.99918 45.8093C1.95512 45.7375 1.912 45.6651 1.86983 45.5921C1.82767 45.5192 1.78646 45.4457 1.74621 45.3716C1.70597 45.2976 1.6667 45.223 1.6284 45.1479C1.5901 45.0729 1.55279 44.9973 1.51647 44.9213C1.48015 44.8452 1.44483 44.7687 1.4105 44.6918C1.37618 44.6148 1.34287 44.5374 1.31057 44.4596C1.27827 44.3818 1.247 44.3035 1.21675 44.2249C1.18649 44.1463 1.15727 44.0672 1.12909 43.9878C1.1009 43.9084 1.07375 43.8286 1.04765 43.7485C1.02155 43.6684 0.996502 43.5879 0.972504 43.5071C0.866758 43.1623 0.776122 42.804 0.722312 42.4474C0.679244 42.1618 0.682609 41.8087 0.584879 41.5402C0.582605 41.534 0.580051 41.5278 0.577637 41.5217ZM41.7324 0.437988C41.7453 0.44413 41.7579 0.450626 41.771 0.456414C41.9542 0.537978 42.5625 0.567059 42.8233 0.616895C43.1673 0.68262 43.5098 0.782236 43.844 0.886082C43.9265 0.912386 44.0086 0.939788 44.0903 0.968289C44.172 0.99679 44.2533 1.02638 44.3343 1.05706C44.4152 1.08773 44.4957 1.11949 44.5758 1.15232C44.6558 1.18515 44.7354 1.21904 44.8145 1.254C44.8937 1.28897 44.9724 1.32498 45.0507 1.36205C45.1289 1.39911 45.2065 1.43722 45.2837 1.47637C45.3609 1.51551 45.4376 1.55569 45.5137 1.59688C45.5898 1.63808 45.6653 1.68028 45.7402 1.72351C45.8152 1.76672 45.8896 1.81093 45.9635 1.85614C46.0372 1.90135 46.1104 1.94754 46.183 1.99471C46.2555 2.04187 46.3274 2.09 46.3987 2.13909C46.47 2.18819 46.5406 2.23823 46.6105 2.28921C46.6805 2.34019 46.7497 2.39209 46.8183 2.44492C46.8868 2.49776 46.9546 2.5515 47.0217 2.60615C47.0888 2.6608 47.1552 2.71633 47.2208 2.77275C47.2864 2.82918 47.3513 2.88647 47.4153 2.94463C47.4794 3.00279 47.5427 3.0618 47.6053 3.12165C47.6678 3.18151 47.7295 3.24219 47.7903 3.30369C47.8512 3.3652 47.9113 3.4275 47.9705 3.49061C48.0297 3.55373 48.088 3.61762 48.1455 3.68228C48.2031 3.74696 48.2597 3.81239 48.3154 3.87858C48.3712 3.94477 48.426 4.01169 48.48 4.07935C48.5339 4.147 48.587 4.21537 48.6392 4.28444C48.6913 4.35352 48.7425 4.42328 48.7928 4.49373C48.843 4.56418 48.8923 4.63529 48.9407 4.70705C48.9891 4.77881 49.0365 4.85121 49.0829 4.92425C49.1293 4.99728 49.1748 5.07092 49.2192 5.14518C49.2637 5.21943 49.3072 5.29426 49.3496 5.36967C49.3921 5.44508 49.4335 5.52104 49.4739 5.59757C49.5144 5.67409 49.5537 5.75114 49.5921 5.82872C49.6304 5.90629 49.6677 5.98436 49.704 6.06294C49.7403 6.14151 49.7755 6.22056 49.8097 6.30008C50.0371 6.83647 50.231 7.40177 50.3499 7.97285C50.3949 8.18882 50.445 8.40631 50.4803 8.62395C50.5129 8.82479 50.4935 9.08163 50.5776 9.26485V0.437988H41.7324ZM44.7563 42.3244C44.2847 42.8157 43.8065 43.3006 43.322 43.7793C43.0444 44.0563 42.7724 44.3494 42.4814 44.6117C42.6252 44.7935 46.0394 48.1938 46.0831 48.2199C46.2668 47.9528 46.5511 47.7165 46.7816 47.4867C47.3045 46.9657 47.843 46.4547 48.3506 45.9192C48.1226 45.7301 47.9166 45.5042 47.7069 45.295L46.6293 44.2168L45.4469 43.0312C45.2158 42.7994 44.9702 42.572 44.7563 42.3244ZM43.2871 40.8582C42.5185 41.6086 41.7333 42.3608 40.9996 43.1447C41.2165 43.3585 41.4405 43.5688 41.6478 43.7918C41.8811 43.475 42.2018 43.1962 42.4805 42.9178L43.9127 41.4953C43.7046 41.2881 43.4753 41.0831 43.2871 40.8582ZM49.1439 46.816C48.3977 47.5413 47.6459 48.2753 46.9329 49.0331C47.043 49.0785 47.1525 49.1252 47.2648 49.1646C47.7368 49.2809 48.1817 49.2828 48.6088 49.0241C48.9717 48.8043 49.2406 48.4535 49.3371 48.038C49.4203 47.6798 49.3966 47.1745 49.1882 46.8609C49.1727 46.8376 49.1634 46.8318 49.1439 46.816ZM48.2568 50.438H50.5776V48.0844L50.5707 48.1039C50.5104 48.2762 50.473 48.4536 50.4069 48.6242C50.1312 49.3359 49.6537 49.8533 48.9661 50.187C48.7384 50.2975 48.4825 50.3306 48.2568 50.438ZM40.6065 39.9311C40.4481 40.121 40.2751 40.3068 40.0813 40.4613C40.2775 40.6927 40.8186 41.2726 41.0537 41.4373C41.2053 41.2441 41.3905 41.0639 41.5733 40.9C41.2489 40.5802 40.9383 40.2426 40.6065 39.9311Z" fill="#93C704"/>
<path d="M43.0117 5.17918C43.7064 5.16635 44.4123 5.1527 45.1067 5.17279C45.3195 5.17895 45.5647 5.21667 45.7126 5.38431C45.8118 5.49666 45.8419 5.63211 45.8551 5.77762C45.8911 6.177 45.8666 6.5924 45.8654 6.99355L45.8638 9.13814L45.8645 12.1526C45.8646 12.7343 45.8839 13.3237 45.8502 13.9045C46.1273 13.8839 46.5195 13.8463 46.7667 13.9941C46.9711 14.1161 47.0187 14.2836 47.0701 14.4998C47.0378 14.65 46.9991 14.7881 46.891 14.903C46.7892 15.0111 46.6597 15.0474 46.5162 15.0638C46.193 15.1008 45.8619 15.085 45.537 15.0845L43.9613 15.0841L38.7492 15.0833L36.5665 15.0824C36.1526 15.0851 35.6886 15.1309 35.2798 15.0705C35.1381 15.0497 35.0014 15.0076 34.8903 14.9137C34.7672 14.8097 34.7112 14.6276 34.7048 14.471C34.6994 14.3395 34.7404 14.221 34.8316 14.1251C35.0989 13.8439 35.5535 13.8858 35.9079 13.8779C35.8974 13.7811 35.8951 13.685 35.8932 13.5878C35.885 13.1795 35.7887 12.2139 36.0903 11.9179C36.1878 11.8222 36.3121 11.7741 36.4451 11.7513C36.7997 11.6908 37.7009 11.7374 38.1084 11.7379C38.1053 11.6901 38.1032 11.6423 38.1021 11.5944C38.0953 11.2091 38.0433 10.3802 38.1169 10.0352C38.1415 9.91982 38.1901 9.80984 38.2758 9.72694C38.3633 9.6423 38.4729 9.59481 38.5908 9.56979C38.9393 9.49588 39.8732 9.54401 40.2898 9.54305C40.2843 9.4945 40.2795 9.4457 40.2783 9.39682C40.2687 9.00399 40.226 8.25332 40.2939 7.89276C40.3187 7.76116 40.3688 7.63374 40.4668 7.53926C40.5426 7.46621 40.6408 7.41993 40.7427 7.39642C41.1008 7.31379 42.0736 7.36933 42.4893 7.37122C42.452 7.059 42.4409 5.9846 42.4967 5.68719C42.516 5.58423 42.5528 5.48982 42.6137 5.40416C42.7137 5.26357 42.8479 5.21094 43.0117 5.17918ZM43.6822 6.35378C43.6635 6.53146 43.6757 6.71895 43.6735 6.89815C43.671 7.37538 43.6713 7.8526 43.6744 8.32979L43.6742 11.9328C43.6747 12.5901 43.6964 13.2557 43.6676 13.9118C43.8511 13.8891 44.5817 13.9315 44.6688 13.8616C44.6421 13.3746 44.6565 12.883 44.6568 12.3953L44.6571 9.98497L44.6569 7.60801C44.6567 7.19292 44.6381 6.77061 44.6594 6.35638C44.3456 6.36313 43.9918 6.39841 43.6822 6.35378ZM41.4663 8.56118C41.5245 9.54625 41.4898 10.5484 41.4893 11.5352C41.4889 12.318 41.5305 13.1247 41.4751 13.9045C41.8145 13.8892 42.154 13.8863 42.4936 13.8957C42.4347 12.9404 42.4791 11.958 42.4793 11.0003C42.4795 10.2289 42.4313 9.31826 42.4953 8.56063C42.1533 8.56526 41.808 8.57508 41.4663 8.56118ZM39.2863 10.7322C39.3283 11.2158 39.2992 11.7186 39.2987 12.2046C39.2979 12.7701 39.32 13.3441 39.2921 13.908C39.6193 13.8796 39.9546 13.8852 40.2828 13.892C40.2666 13.2687 40.2751 12.6436 40.2745 12.02C40.2741 11.5938 40.2576 11.1613 40.2768 10.7359C39.9538 10.7388 39.6069 10.7661 39.2863 10.7322ZM38.0714 12.9278L37.1009 12.9357C37.1011 13.094 37.0706 13.8229 37.1332 13.9028C37.4566 13.8823 37.7851 13.886 38.109 13.8946C38.1017 13.6912 38.142 13.0719 38.0824 12.9325L38.0714 12.9278Z" fill="#93C704"/>
<path d="M11.9963 6.89502C13.3226 6.90998 14.4882 7.33758 15.4741 8.22994C16.4657 9.12733 17.0206 10.4095 17.0785 11.7365C17.0819 11.8194 17.0831 11.9024 17.0823 11.9854C17.0815 12.0683 17.0786 12.1512 17.0737 12.234C17.0687 12.3168 17.0617 12.3995 17.0527 12.4819C17.0436 12.5644 17.0324 12.6466 17.0193 12.7285C17.0061 12.8104 16.9909 12.892 16.9738 12.9732C16.9565 13.0543 16.9373 13.135 16.916 13.2152C16.8948 13.2955 16.8715 13.3751 16.8463 13.4541C16.8211 13.5331 16.7939 13.6115 16.7648 13.6892C16.7357 13.7669 16.7046 13.8438 16.6717 13.9199C16.6388 13.9961 16.6039 14.0714 16.5672 14.1458C16.5305 14.2202 16.492 14.2937 16.4516 14.3661C16.4112 14.4386 16.3691 14.51 16.3252 14.5805C16.2813 14.6509 16.2356 14.7201 16.1882 14.7882C16.1409 14.8563 16.0919 14.9232 16.0411 14.9889C15.9904 15.0546 15.9381 15.1189 15.8842 15.1819C15.8302 15.245 15.7748 15.3067 15.7178 15.367C14.7699 16.3816 13.5062 16.8783 12.1367 16.9316C10.8089 16.9245 9.56446 16.487 8.59041 15.5651C8.53098 15.5093 8.47297 15.452 8.41637 15.3932C8.35977 15.3344 8.30466 15.2743 8.25103 15.2128C8.1974 15.1513 8.14532 15.0886 8.0948 15.0245C8.04427 14.9605 7.99536 14.8952 7.94806 14.8287C7.90075 14.7622 7.85512 14.6947 7.81115 14.626C7.76719 14.5572 7.72495 14.4874 7.68443 14.4166C7.64391 14.3458 7.60517 14.2741 7.56819 14.2014C7.53122 14.1287 7.49607 14.0551 7.46274 13.9806C7.4294 13.9061 7.39792 13.8308 7.3683 13.7548C7.33868 13.6788 7.31095 13.6021 7.28512 13.5247C7.25929 13.4474 7.23539 13.3694 7.21341 13.2908C7.19143 13.2122 7.1714 13.1332 7.15333 13.0536C7.13526 12.9741 7.11916 12.8941 7.10503 12.8138C7.09091 12.7334 7.07878 12.6528 7.06863 12.5718C7.0585 12.4909 7.05036 12.4097 7.04423 12.3283C7.0381 12.247 7.03398 12.1656 7.03188 12.084C7.02895 12.0001 7.02812 11.9161 7.02938 11.8321C7.03063 11.7482 7.03398 11.6643 7.03941 11.5805C7.04484 11.4966 7.05235 11.413 7.06194 11.3296C7.07154 11.2461 7.0832 11.163 7.09693 11.0801C7.11066 10.9973 7.12645 10.9148 7.14428 10.8327C7.16211 10.7507 7.18197 10.6691 7.20387 10.588C7.22576 10.5069 7.24965 10.4264 7.27555 10.3465C7.30145 10.2666 7.32931 10.1874 7.35915 10.1089C7.38899 10.0304 7.42077 9.95271 7.45447 9.87579C7.48818 9.79886 7.52377 9.72282 7.56126 9.64767C7.59875 9.57251 7.63809 9.49833 7.67927 9.42514C7.72045 9.35194 7.76342 9.27981 7.80819 9.20875C7.85297 9.13769 7.89948 9.06779 7.94772 8.99904C7.99597 8.9303 8.04589 8.8628 8.0975 8.79653C8.14911 8.73028 8.20233 8.66534 8.25717 8.60173C8.31201 8.53812 8.36839 8.4759 8.42633 8.4151C9.36956 7.42607 10.6416 6.9327 11.9963 6.89502ZM11.7767 8.08985C10.7251 8.19083 9.78384 8.64823 9.1087 9.4714C9.06796 9.52062 9.02847 9.57083 8.99023 9.62202C8.952 9.67321 8.91506 9.72533 8.87942 9.77836C8.84379 9.83139 8.80949 9.88528 8.77654 9.94002C8.74359 9.99477 8.71203 10.0503 8.68185 10.1066C8.65167 10.1629 8.62291 10.22 8.59558 10.2777C8.56824 10.3355 8.54236 10.3939 8.51794 10.4529C8.49352 10.512 8.47059 10.5716 8.44914 10.6317C8.42769 10.692 8.40775 10.7527 8.38934 10.8139C8.37091 10.875 8.35403 10.9366 8.33868 10.9986C8.32334 11.0607 8.30954 11.1231 8.2973 11.1858C8.28507 11.2484 8.2744 11.3114 8.2653 11.3747C8.25621 11.4379 8.24869 11.5013 8.24276 11.565C8.23683 11.6286 8.23249 11.6924 8.22974 11.7562C8.22698 11.82 8.22582 11.8839 8.22626 11.9478C8.22669 12.0116 8.22871 12.0755 8.23233 12.1393C8.23595 12.2031 8.24116 12.2667 8.24795 12.3303C8.25454 12.3923 8.26266 12.4541 8.27229 12.5157C8.28191 12.5774 8.29304 12.6387 8.30567 12.6998C8.31831 12.7609 8.33244 12.8216 8.34806 12.8819C8.36367 12.9424 8.38075 13.0023 8.39931 13.0618C8.41786 13.1214 8.43786 13.1804 8.45932 13.239C8.48076 13.2976 8.50363 13.3556 8.52793 13.413C8.55223 13.4704 8.57791 13.5272 8.60499 13.5834C8.63207 13.6396 8.66051 13.6951 8.69031 13.7499C8.72012 13.8047 8.75124 13.8587 8.78369 13.9119C8.81615 13.9652 8.84988 14.0176 8.8849 14.0692C8.91992 14.1209 8.95619 14.1716 8.9937 14.2214C9.03121 14.2712 9.06992 14.3201 9.10982 14.3681C9.14973 14.416 9.19078 14.4629 9.23299 14.5088C9.2752 14.5547 9.3185 14.5996 9.36291 14.6434C9.40732 14.6872 9.45277 14.7299 9.49927 14.7714C9.54576 14.8129 9.59326 14.8533 9.64174 14.8926C9.68831 14.9305 9.73576 14.9674 9.78407 15.003C9.83239 15.0388 9.88152 15.0733 9.93147 15.1066C9.98143 15.14 10.0321 15.1722 10.0836 15.2032C10.1351 15.2342 10.1873 15.264 10.2402 15.2925C10.293 15.3209 10.3466 15.3482 10.4007 15.3741C10.4549 15.4001 10.5097 15.4248 10.5651 15.4482C10.6204 15.4715 10.6763 15.4936 10.7326 15.5144C10.789 15.5351 10.8459 15.5544 10.9032 15.5725C10.9604 15.5905 11.0182 15.6072 11.0763 15.6225C11.1344 15.6378 11.1928 15.6517 11.2515 15.6643C11.3103 15.6768 11.3693 15.688 11.4285 15.6977C11.4879 15.7074 11.5474 15.7158 11.6071 15.7227C11.6667 15.7296 11.7265 15.7352 11.7865 15.7393C11.8464 15.7434 11.9064 15.746 11.9664 15.7473C12.0265 15.7485 12.0866 15.7483 12.1466 15.7468C12.2067 15.7452 12.2667 15.7421 12.3266 15.7377C13.4036 15.6441 14.3472 15.13 15.0383 14.2997C15.7026 13.5017 15.9464 12.4849 15.8485 11.4646C15.7535 10.4758 15.2122 9.54391 14.4464 8.92194C14.4001 8.8843 14.3529 8.84778 14.3048 8.81238C14.2568 8.77699 14.2079 8.74275 14.1581 8.70967C14.1085 8.67659 14.058 8.64472 14.0068 8.61404C13.9556 8.58336 13.9037 8.55391 13.8511 8.5257C13.7985 8.49749 13.7452 8.47055 13.6913 8.44487C13.6374 8.41919 13.583 8.3948 13.528 8.37172C13.4729 8.34863 13.4173 8.32686 13.3613 8.30641C13.3051 8.28595 13.2486 8.26684 13.1916 8.24908C13.1346 8.23132 13.0772 8.21492 13.0195 8.19988C12.9616 8.18484 12.9035 8.17119 12.8451 8.15892C12.7867 8.14664 12.7281 8.13576 12.6692 8.12627C12.6102 8.11678 12.551 8.1087 12.4917 8.10203C12.4324 8.09536 12.373 8.09009 12.3134 8.08624C12.2538 8.08239 12.1942 8.07996 12.1345 8.07895C12.0748 8.07792 12.0151 8.07832 11.9555 8.08015C11.8958 8.08196 11.8362 8.0852 11.7767 8.08985Z" fill="#93C704"/>
<path d="M28.9816 17.0031C32.0184 16.9713 35.0563 18.0155 37.3175 20.0769C37.4423 20.189 37.5648 20.3036 37.685 20.4208C37.8051 20.538 37.9227 20.6576 38.0379 20.7797C38.1531 20.9018 38.2656 21.0262 38.3756 21.1529C38.4856 21.2796 38.593 21.4086 38.6977 21.5397C38.8023 21.6709 38.9043 21.8041 39.0034 21.9395C39.1026 22.0749 39.1989 22.2123 39.2924 22.3517C39.3859 22.491 39.4764 22.6322 39.5641 22.7754C39.6516 22.9185 39.7362 23.0634 39.8179 23.21C39.8995 23.3566 39.9781 23.5048 40.0536 23.6547C40.1291 23.8046 40.2014 23.9559 40.2707 24.1088C40.3399 24.2617 40.4059 24.4159 40.4687 24.5715C40.5316 24.7271 40.5912 24.8839 40.6476 25.042C40.7039 25.2001 40.757 25.3593 40.8067 25.5196C40.8565 25.6798 40.9029 25.841 40.946 26.0032C40.9891 26.1654 41.0288 26.3284 41.0651 26.4922C41.1015 26.6561 41.1344 26.8206 41.164 26.9858C41.2738 27.625 41.3199 28.268 41.3445 28.9151C41.4567 31.8665 40.204 35.0931 38.1963 37.2489C35.8864 39.7294 32.9257 41.0713 29.5384 41.1919C29.4428 41.1942 29.3472 41.1954 29.2516 41.1954C29.1559 41.1955 29.0603 41.1944 28.9647 41.1921C28.8692 41.1899 28.7736 41.1865 28.6781 41.1821C28.5826 41.1776 28.4872 41.172 28.3918 41.1653C28.2964 41.1585 28.2011 41.1506 28.106 41.1416C28.0107 41.1326 27.9156 41.1225 27.8207 41.1113C27.7258 41.1 27.631 41.0876 27.5363 41.0741C27.4417 41.0606 27.3472 41.046 27.2528 41.0303C27.1585 41.0145 27.0644 40.9977 26.9705 40.9797C26.8766 40.9617 26.7829 40.9427 26.6895 40.9225C26.596 40.9023 26.5027 40.881 26.4098 40.8586C26.3169 40.8362 26.2242 40.8127 26.1317 40.7881C26.0394 40.7636 25.9473 40.7379 25.8555 40.7112C25.7637 40.6844 25.6722 40.6565 25.5811 40.6276C25.4899 40.5987 25.3991 40.5687 25.3087 40.5376C25.2183 40.5065 25.1283 40.4743 25.0386 40.4411C24.9489 40.4079 24.8597 40.3737 24.7708 40.3383C24.682 40.303 24.5936 40.2667 24.5056 40.2292C24.4176 40.1918 24.3301 40.1533 24.243 40.1139C24.1559 40.0744 24.0693 40.0338 23.9832 39.9923C23.8971 39.9508 23.8114 39.9082 23.7263 39.8647C23.6412 39.8211 23.5566 39.7765 23.4726 39.7309C23.3885 39.6853 23.305 39.6388 23.2221 39.5912C23.1391 39.5437 23.0567 39.4952 22.9749 39.4456C22.8931 39.3961 22.8118 39.3457 22.7312 39.2943C22.6507 39.2428 22.5707 39.1905 22.4913 39.1371C22.4119 39.0838 22.3332 39.0296 22.2551 38.9744C22.177 38.9192 22.0996 38.8631 22.0229 38.8061C21.9461 38.7491 21.87 38.6912 21.7946 38.6323C21.7192 38.5736 21.6446 38.5139 21.5706 38.4532C21.4966 38.3927 21.4234 38.3313 21.3509 38.269C21.2784 38.2066 21.2066 38.1434 21.1355 38.0794C18.7083 35.9048 17.3254 32.8561 17.1506 29.6167C16.9854 26.5549 18.1425 23.3475 20.1913 21.0725C22.5646 18.437 25.4591 17.1835 28.9816 17.0031ZM28.804 18.198C28.7134 18.2017 28.623 18.2065 28.5326 18.2124C28.4422 18.2184 28.3519 18.2255 28.2616 18.2337C28.1714 18.2419 28.0813 18.2513 27.9912 18.2617C27.9012 18.2722 27.8114 18.2837 27.7217 18.2964C27.632 18.3091 27.5424 18.3229 27.453 18.3379C27.3636 18.3528 27.2745 18.3688 27.1855 18.386C27.0965 18.4031 27.0078 18.4214 26.9193 18.4407C26.8308 18.4601 26.7425 18.4805 26.6545 18.5021C26.5665 18.5236 26.4787 18.5463 26.3913 18.57C26.3039 18.5938 26.2167 18.6186 26.1299 18.6446C26.0431 18.6705 25.9566 18.6975 25.8704 18.7255C25.7843 18.7536 25.6985 18.7827 25.6131 18.8129C25.5277 18.8431 25.4426 18.8744 25.358 18.9067C25.2733 18.939 25.1891 18.9724 25.1053 19.0068C25.0215 19.0412 24.9381 19.0767 24.8552 19.1132C24.7722 19.1497 24.6897 19.1872 24.6077 19.2257C24.5257 19.2642 24.4442 19.3038 24.3632 19.3445C24.2822 19.385 24.2017 19.4266 24.1218 19.4692C24.0418 19.5117 23.9623 19.5553 23.8834 19.5999C23.8046 19.6445 23.7262 19.69 23.6484 19.7365C23.5707 19.783 23.4936 19.8305 23.417 19.8789C23.3404 19.9274 23.2645 19.9768 23.1891 20.0272C23.1137 20.0775 23.039 20.1287 22.9649 20.1809C22.8909 20.2331 22.8175 20.2862 22.7447 20.3403C22.672 20.3943 22.6 20.4492 22.5286 20.505C22.4572 20.5608 22.3865 20.6175 22.3166 20.6751C22.2466 20.7327 22.1774 20.7911 22.1089 20.8504C22.0403 20.9097 21.9726 20.9699 21.9056 21.0309C21.8386 21.0918 21.7723 21.1536 21.7068 21.2162C21.6414 21.2789 21.5767 21.3424 21.5128 21.4066C21.4489 21.4708 21.3858 21.5359 21.3235 21.6017C21.2613 21.6675 21.1999 21.7341 21.1393 21.8015C19.1479 23.9973 18.2105 26.8868 18.3629 29.8276C18.5092 32.6525 19.9163 35.4002 22.0109 37.2758C24.0507 39.1022 26.9194 40.1467 29.656 40.0021C29.6778 40.001 29.6996 39.9995 29.7214 39.9974C29.8104 39.9933 29.8993 39.9881 29.9882 39.9818C30.0771 39.9755 30.1658 39.9682 30.2545 39.9597C30.3432 39.9512 30.4317 39.9417 30.5202 39.9311C30.6086 39.9205 30.6969 39.9089 30.7851 39.8961C30.8733 39.8834 30.9613 39.8695 31.0491 39.8546C31.1369 39.8397 31.2246 39.8237 31.312 39.8067C31.3994 39.7897 31.4867 39.7716 31.5736 39.7524C31.6607 39.7332 31.7474 39.713 31.8339 39.6917C31.9204 39.6705 32.0066 39.6482 32.0926 39.6247C32.1786 39.6014 32.2643 39.5769 32.3496 39.5515C32.435 39.526 32.52 39.4995 32.6048 39.472C32.6895 39.4445 32.7739 39.4159 32.8579 39.3864C32.9419 39.3567 33.0255 39.3261 33.1088 39.2946C33.1921 39.2629 33.275 39.2303 33.3575 39.1966C33.44 39.1629 33.5221 39.1283 33.6037 39.0927C33.6854 39.057 33.7665 39.0204 33.8473 38.9827C33.928 38.9451 34.0083 38.9065 34.0881 38.8669C34.1679 38.8273 34.2472 38.7868 34.326 38.7453C34.4048 38.7038 34.4831 38.6613 34.5609 38.6179C34.6387 38.5745 34.716 38.5301 34.7927 38.4848C34.8694 38.4395 34.9455 38.3933 35.0211 38.3461C35.0967 38.299 35.1717 38.2509 35.2461 38.202C35.3205 38.153 35.3943 38.1031 35.4675 38.0523C35.5407 38.0015 35.6132 37.9498 35.6852 37.8973C35.7571 37.8447 35.8284 37.7913 35.899 37.737C35.9697 37.6827 36.0396 37.6276 36.1089 37.5716C36.1782 37.5156 36.2467 37.4588 36.3146 37.4011C36.3826 37.3435 36.4497 37.285 36.5162 37.2257C36.5827 37.1664 36.6484 37.1063 36.7135 37.0453C36.7785 36.9845 36.8428 36.9228 36.9062 36.8603C36.9698 36.7978 37.0325 36.7346 37.0944 36.6706C37.1564 36.6066 37.2176 36.5419 37.278 36.4764C39.1851 34.3716 40.2748 31.5207 40.1279 28.6699C39.9744 25.6889 38.7157 22.9474 36.4871 20.946C36.3805 20.8513 36.2721 20.7587 36.1619 20.6682C36.0517 20.5777 35.9397 20.4894 35.8261 20.4033C35.7124 20.3172 35.5971 20.2334 35.4801 20.1518C35.3631 20.0702 35.2446 19.991 35.1245 19.9141C35.0045 19.8371 34.8829 19.7626 34.7599 19.6905C34.6369 19.6183 34.5125 19.5486 34.3868 19.4813C34.261 19.414 34.134 19.3492 34.0058 19.2869C33.8775 19.2246 33.748 19.1649 33.6174 19.1076C33.4868 19.0504 33.3551 18.9958 33.2224 18.9438C33.0895 18.8917 32.9558 18.8423 32.8211 18.7955C32.6864 18.7487 32.5508 18.7045 32.4145 18.663C32.278 18.6215 32.1408 18.5828 32.0028 18.5467C31.8649 18.5106 31.7263 18.4772 31.587 18.4465C31.4478 18.4158 31.3079 18.3879 31.1676 18.3627C31.0272 18.3376 30.8864 18.3152 30.7451 18.2955C30.6039 18.2759 30.4623 18.259 30.3204 18.2448C29.8476 18.1963 29.3679 18.1649 28.8926 18.1921C28.863 18.1938 28.8335 18.1958 28.804 18.198Z" fill="#93C704"/>
<path d="M9.60679 46.3555L8.35828 45.9932C8.22729 45.9564 8.15361 45.8192 8.19045 45.6882L10.9842 36.0645C11.0211 35.9335 11.1582 35.8598 11.2892 35.8967L12.5377 36.259C12.6687 36.2958 12.7424 36.4329 12.7055 36.5639L9.91175 46.1876C9.87286 46.3186 9.73778 46.3944 9.60679 46.3555ZM7.27352 44.059L8.16385 43.1094C8.258 43.0091 8.25186 42.8494 8.14747 42.7573L6.29313 41.1261L8.14747 39.4948C8.25186 39.4027 8.26004 39.2431 8.16385 39.1428L7.27352 38.1931C7.18142 38.0949 7.02586 38.0887 6.92557 38.1829L3.97624 40.946C3.87185 41.0422 3.87185 41.2079 3.97624 41.3041L6.92557 44.0693C7.02586 44.1634 7.18142 44.1593 7.27352 44.059ZM13.9704 44.0713L16.9198 41.3062C17.0241 41.21 17.0241 41.0442 16.9198 40.948L13.9704 38.1808C13.8722 38.0887 13.7166 38.0928 13.6225 38.1911L12.7321 39.1407C12.638 39.241 12.6441 39.4007 12.7485 39.4928L14.6029 41.1261L12.7485 42.7573C12.6441 42.8494 12.636 43.0091 12.7321 43.1094L13.6225 44.059C13.7146 44.1593 13.8701 44.1634 13.9704 44.0713Z" fill="#93C704"/>
</g>
<defs>
<clipPath id="clip0_1094_857">
<rect width="50" height="50" fill="white" transform="translate(0.577393 0.437988)"/>
</clipPath>
</defs>
</svg>
