<svg width="51" height="51" viewBox="0 0 51 51" fill="none" xmlns="http://www.w3.org/2000/svg">
<g clip-path="url(#clip0_1094_7199)">
<path d="M0.243896 0.437988H50.2439V36.8489V38.3722V50.438H0.243896V43.2628V10.9312V0.437988ZM0.243896 0.437988V10.9312C0.635089 10.9474 1.03069 10.9321 1.42234 10.9313L3.61267 10.9309L10.4928 10.9311C10.8643 10.9311 12.8843 10.8813 13.0929 10.9668C13.1411 11.0347 13.1448 11.12 13.1509 11.2009C13.1782 11.5591 13.1574 11.9316 13.156 12.2911L13.1536 14.4264C13.1537 14.8887 13.139 15.3563 13.1754 15.8174C13.6719 15.8115 14.2569 15.7672 14.7434 15.8191L14.7451 5.94938L14.745 2.84597C14.745 2.32687 14.7251 1.79921 14.7454 1.28101C15.2816 1.21411 15.8614 1.26198 16.404 1.26349L19.4501 1.26436L25.5619 1.26422C26.664 1.2643 27.7697 1.24627 28.8714 1.26965C29.6958 2.02926 30.4693 2.85682 31.262 3.65008L35.7935 8.17923C35.8256 8.90471 35.811 9.6334 35.8107 10.3595L35.8099 13.7288C35.8098 14.4213 35.779 15.1304 35.8292 15.821C36.2383 15.7972 38.7336 15.7766 38.9825 15.8424C39.0932 16.0795 39.036 17.3646 39.0354 17.7377L39.0336 22.6613C39.0335 23.5235 39.0158 24.3896 39.0354 25.2513C39.0386 25.3905 39.0217 25.5471 39.1737 25.6032C39.429 25.6974 39.7447 25.6787 40.0135 25.7177C40.476 25.7848 40.9652 25.8837 41.4128 26.0171C42.4206 26.3175 43.373 26.6934 44.2885 27.2167C46.1875 28.302 47.8926 30.1345 48.8867 32.0767C49.4159 33.1105 49.8197 34.266 50.021 35.4113C50.0828 35.7622 50.1271 36.1215 50.1833 36.4745C50.203 36.5986 50.208 36.7282 50.2439 36.8489V0.437988H0.243896ZM1.85041 22.2751C1.78553 23.6293 1.82613 24.9982 1.82606 26.3546L1.82593 33.5204L1.82592 38.7727C1.82567 39.6676 1.77598 40.7299 1.84983 41.6094C3.65752 41.5521 5.47882 41.5951 7.28779 41.5951H17.3337L23.6649 41.5953H25.6511C26.0663 41.5954 26.4893 41.5802 26.9028 41.6176C26.5837 40.8625 26.393 40.0323 26.2956 39.2193C26.2669 38.9807 26.2619 38.7389 26.2388 38.4994C26.1874 37.9648 26.1008 37.418 26.225 36.8866L26.234 36.8476L26.2396 36.8242C26.2565 36.4492 26.2608 36.0751 26.3413 35.707C26.3894 35.1159 26.5666 34.5103 26.7523 33.9504C26.8614 33.6215 26.9646 33.2837 27.0993 32.9642C27.7647 31.3845 28.9569 29.6456 30.2707 28.5386C31.7426 27.2981 33.459 26.3311 35.3526 25.9126C36.0596 25.7563 36.7026 25.7008 37.4005 25.5813C37.4012 24.4983 37.3588 23.3376 37.4021 22.2658C36.9689 22.2882 36.5309 22.2718 36.097 22.2706L33.9852 22.2697H27.1079L10.5551 22.2693C7.65458 22.2693 4.75032 22.236 1.85041 22.2751ZM39.0416 27.2326C39.0615 27.7287 38.9982 28.2393 39.0673 28.7337C38.5182 28.6948 37.9625 28.7577 37.4165 28.7162L37.4133 28.6811C37.3934 28.4455 37.4501 27.3658 37.3563 27.2537C37.2998 27.2474 37.2527 27.2451 37.1962 27.2526C36.6722 27.3221 36.1436 27.4039 35.6314 27.5364C35.4913 27.5731 35.352 27.6126 35.2136 27.6551C35.0752 27.6975 34.9377 27.7427 34.8011 27.7908C34.6645 27.8389 34.529 27.8898 34.3946 27.9436C34.2601 27.9972 34.1268 28.0536 33.9947 28.1129C33.8625 28.1721 33.7317 28.234 33.6021 28.2985C33.4725 28.3631 33.3443 28.4304 33.2174 28.5003C33.0907 28.5702 32.9654 28.6426 32.8416 28.7177C32.7177 28.7927 32.5955 28.8703 32.4749 28.9504C32.3543 29.0305 32.2354 29.1131 32.1182 29.1981C32.001 29.2832 31.8855 29.3706 31.7719 29.4604C31.6584 29.5501 31.5467 29.6422 31.4369 29.7365C31.3271 29.8309 31.2193 29.9275 31.1134 30.0264C31.0076 30.1253 30.9039 30.2263 30.8023 30.3294C30.7007 30.4325 30.6012 30.5377 30.5039 30.6449C30.4066 30.7521 30.3116 30.8613 30.2188 30.9725C30.126 31.0836 30.0356 31.1966 29.9474 31.3115C29.0497 32.4729 28.3771 33.9327 28.0539 35.3618C27.9458 35.8396 27.9176 36.3328 27.8034 36.8058C28.0486 36.8112 29.1205 36.7506 29.2345 36.894C29.3258 37.0088 29.2776 38.17 29.2905 38.3934C28.7984 38.3879 28.3071 38.3818 27.8153 38.4035C27.8179 38.7353 27.8978 39.0804 27.956 39.4065C28.3446 41.5815 29.4745 43.5705 31.0409 45.118C31.2636 45.338 31.5123 45.5296 31.7566 45.7246C33.4128 47.0469 35.3016 47.7435 37.3947 47.9748C37.4015 47.4813 37.3902 46.9867 37.4001 46.4936C37.6144 46.4692 38.8641 46.4329 38.9747 46.5204C39.1018 46.7824 38.9632 47.9026 39.1146 47.9475C39.1762 47.9657 39.2497 47.9484 39.3125 47.9406C39.8492 47.8639 40.3876 47.7817 40.9114 47.6394C41.049 47.6013 41.1858 47.5605 41.3217 47.5169C41.4577 47.4733 41.5927 47.4269 41.7268 47.3777C41.8609 47.3286 41.9939 47.2769 42.1258 47.2224C42.2578 47.1678 42.3886 47.1106 42.5182 47.0508C42.6478 46.991 42.7762 46.9285 42.9033 46.8635C43.0304 46.7984 43.1561 46.7308 43.2804 46.6606C43.4048 46.5905 43.5277 46.5178 43.6491 46.4427C43.7705 46.3675 43.8903 46.2899 44.0085 46.2099C44.1268 46.1299 44.2433 46.0475 44.3582 45.9627C44.4731 45.8779 44.5862 45.7908 44.6976 45.7015C44.8089 45.6121 44.9184 45.5205 45.026 45.4267C45.1336 45.3328 45.2393 45.2369 45.343 45.1388C45.4467 45.0406 45.5484 44.9404 45.6481 44.8382C45.7477 44.7359 45.8452 44.6316 45.9407 44.5254C46.0361 44.4192 46.1292 44.3111 46.2203 44.2011C46.3113 44.091 46.4 43.9792 46.4865 43.8656C47.6508 42.3124 48.4807 40.351 48.5438 38.393C48.0584 38.3889 47.5701 38.4046 47.0852 38.3876C47.0436 37.8795 47.056 37.3384 47.0691 36.8283C47.5186 36.7688 48.0872 36.7833 48.5412 36.8149C48.5393 36.0201 48.3538 35.2263 48.1058 34.4743C47.5396 32.757 46.7665 31.4806 45.4799 30.1999C45.3907 30.1121 45.3 30.026 45.2077 29.9415C45.1153 29.8571 45.0215 29.7743 44.9262 29.6932C44.8309 29.612 44.7342 29.5327 44.6361 29.4551C44.5379 29.3774 44.4384 29.3016 44.3375 29.2275C44.2366 29.1535 44.1344 29.0813 44.0309 29.0109C43.9275 28.9406 43.8227 28.8721 43.7167 28.8056C43.6108 28.739 43.5037 28.6743 43.3955 28.6115C43.2872 28.5488 43.1778 28.4881 43.0673 28.4292C42.9569 28.3704 42.8454 28.3136 42.7329 28.2589C42.6204 28.2041 42.5069 28.1513 42.3925 28.1007C42.2781 28.05 42.1628 28.0013 42.0466 27.9548C41.9305 27.9082 41.8135 27.8638 41.6958 27.8215C41.578 27.7792 41.4595 27.739 41.3403 27.7009C41.2211 27.6628 41.1012 27.6269 40.9807 27.5932C40.8602 27.5594 40.7391 27.5279 40.6175 27.4984C40.4958 27.4691 40.3737 27.4419 40.2511 27.4169C39.856 27.3345 39.4421 27.2829 39.0416 27.2326ZM50.2439 38.3722L50.2374 38.3991C50.2029 38.5469 50.196 38.6947 50.1723 38.8441C50.0828 39.4064 50.0241 39.9979 49.88 40.5485C49.8566 40.6403 49.8321 40.7318 49.8065 40.8229C49.7808 40.9142 49.7542 41.005 49.7265 41.0956C49.6988 41.1862 49.67 41.2764 49.6401 41.3663C49.6103 41.4562 49.5794 41.5458 49.5474 41.635C49.5155 41.7241 49.4825 41.8129 49.4485 41.9013C49.4145 41.9897 49.3795 42.0777 49.3434 42.1652C49.3073 42.2529 49.2702 42.34 49.2321 42.4267C49.1939 42.5134 49.1548 42.5996 49.1147 42.6855C49.0745 42.7713 49.0334 42.8566 48.9913 42.9414C48.9491 43.0262 48.906 43.1105 48.8619 43.1943C48.8178 43.2782 48.7727 43.3615 48.7266 43.4442C48.6805 43.527 48.6335 43.6092 48.5855 43.6909C48.5375 43.7726 48.4886 43.8536 48.4387 43.9342C48.3889 44.0146 48.338 44.0946 48.2862 44.1739C48.2344 44.2532 48.1818 44.3319 48.1282 44.4101C48.0746 44.4881 48.0201 44.5656 47.9646 44.6424C47.9092 44.7192 47.8529 44.7953 47.7957 44.8708C47.7385 44.9463 47.6804 45.0212 47.6214 45.0953C47.5625 45.1694 47.5026 45.2428 47.4419 45.3155C47.3813 45.3883 47.3197 45.4604 47.2574 45.5316C47.195 45.6029 47.1318 45.6735 47.0678 45.7433C47.0038 45.8131 46.939 45.8821 46.8734 45.9504C46.8077 46.0187 46.7413 46.0862 46.6741 46.1529C46.6068 46.2197 46.5388 46.2856 46.4701 46.3508C46.4013 46.4159 46.3318 46.4802 46.2616 46.5437C46.1913 46.6072 46.1202 46.6699 46.0485 46.7317C45.9768 46.7936 45.9044 46.8546 45.8312 46.9147C45.758 46.9749 45.6842 47.0342 45.6096 47.0927C45.5351 47.1511 45.4598 47.2086 45.3839 47.2652C45.308 47.3219 45.2315 47.3777 45.1542 47.4325C45.077 47.4874 44.9992 47.5414 44.9207 47.5944C44.8422 47.6475 44.7631 47.6996 44.6834 47.7508C44.4781 47.8809 44.2691 48.0048 44.0563 48.1225C43.8435 48.2401 43.6275 48.3513 43.4081 48.4561C43.1887 48.5609 42.9664 48.659 42.7412 48.7506C42.516 48.8421 42.2882 48.9268 42.058 49.0048C41.8277 49.0827 41.5953 49.1537 41.3608 49.2179C41.1263 49.2819 40.8901 49.339 40.6521 49.3891C40.4142 49.4391 40.175 49.4819 39.9345 49.5177C39.6941 49.5535 39.4528 49.5821 39.2106 49.6034C38.8628 49.6321 38.5035 49.615 38.1541 49.615C37.3041 49.615 36.4724 49.5521 35.6416 49.3606C32.3822 48.6094 29.7237 46.7094 27.9513 43.8641C27.8256 43.6624 27.7134 43.4524 27.5878 43.2512C27.2455 43.2871 26.8893 43.2677 26.5451 43.2676L24.714 43.2663L18.8505 43.2655L0.243896 43.2628V50.438H50.2439V38.3722ZM16.399 2.83997C16.344 3.5346 16.3766 4.24771 16.3765 4.94491L16.3763 8.63377L16.3766 13.1919C16.3767 14.0629 16.3472 14.9458 16.3943 15.8154L28.5588 15.8143L32.3474 15.814C32.9065 15.8136 33.6352 15.7698 34.1779 15.8208L34.1778 11.5099C34.1776 10.7766 34.1484 10.0306 34.1819 9.29854L29.6925 9.29648L28.4979 9.29264C28.2778 9.29188 28.027 9.27042 27.8119 9.31345C27.8731 9.14059 27.8538 3.87347 27.8177 3.336L27.8143 3.34241C27.7973 3.21699 27.7727 3.10585 27.7355 2.98527L27.7274 2.87976C27.667 2.83002 27.5866 2.83743 27.5093 2.83494C27.1912 2.82467 26.8695 2.83991 26.5508 2.84017L24.4904 2.83729L18.2142 2.8377L16.9959 2.83943C16.8015 2.84035 16.5917 2.8607 16.399 2.83997ZM1.84543 17.3761C1.82805 18.4513 1.80268 19.5347 1.85022 20.6094C2.72718 20.5842 3.60625 20.5961 4.48355 20.5961L8.7637 20.596L21.7375 20.5959L32.0317 20.5961L35.3692 20.5958C36.0429 20.5956 36.7222 20.5791 37.3953 20.6099C37.4365 20.2847 37.4024 19.9107 37.4021 19.5803L37.3996 17.3916C36.4582 17.411 35.5104 17.3868 34.5683 17.3867L28.5188 17.3864L10.2216 17.3867L3.85882 17.3859C3.54405 17.3859 2.05111 17.4327 1.84543 17.3761ZM1.85431 12.5941C1.81868 13.1829 1.82568 13.7717 1.82589 14.3612C1.82606 14.8445 1.8155 15.331 1.84653 15.8134L8.7031 15.8148L10.578 15.812C10.8806 15.8112 11.225 15.7744 11.5214 15.8242L11.5207 13.7061C11.52 13.3417 11.5018 12.9676 11.5236 12.6043C9.3066 12.6279 7.08609 12.5993 4.86876 12.6L2.80297 12.6023C2.49883 12.6028 2.15205 12.639 1.85431 12.5941ZM29.32 4.03838C29.2228 5.18621 29.2661 6.55283 29.2926 7.71372L32.8916 7.70906L32.9483 7.69564C32.9506 7.62248 32.865 7.54966 32.8152 7.4961C32.4664 7.12059 29.4829 4.11705 29.32 4.03838ZM37.3953 20.6099C36.7222 20.5791 36.0429 20.5956 35.3692 20.5958L32.0317 20.5961L21.7375 20.5959L8.7637 20.596L4.48355 20.5961C3.60625 20.5961 2.72718 20.5842 1.85022 20.6094C1.80268 19.5347 1.82805 18.4513 1.84543 17.3761L1.77234 17.4018C1.70525 17.616 1.70915 20.0815 1.73356 20.42C1.74051 20.5162 1.751 20.6267 1.799 20.7119C1.80329 20.7195 1.80886 20.7263 1.81379 20.7335C2.47526 20.7909 3.16858 20.7437 3.83361 20.7437L7.95048 20.7435L20.9427 20.7434L32.0841 20.7436L35.5053 20.7437C36.1011 20.7437 36.731 20.7849 37.3226 20.7183C37.3571 20.6849 37.3739 20.6526 37.3953 20.6099ZM26.2396 36.8242C26.2874 36.8107 26.2828 36.8093 26.3139 36.776C26.3816 36.4165 26.3681 36.0696 26.3413 35.707C26.2608 36.0751 26.2565 36.4492 26.2396 36.8242Z" fill="#93C704"/>
<path d="M26.2395 36.8247C26.2564 36.4497 26.2607 36.0756 26.3412 35.7075C26.368 36.0701 26.3815 36.417 26.3138 36.7765C26.2827 36.8098 26.2873 36.8112 26.2395 36.8247Z" fill="#93C704"/>
<path d="M37.3952 20.6093C37.3738 20.6521 37.357 20.6843 37.3225 20.7177C36.7309 20.7843 36.1011 20.7431 35.5053 20.7431L32.0841 20.743L20.9427 20.7428L7.95042 20.7429L3.83355 20.7431C3.16852 20.7432 2.4752 20.7903 1.81373 20.7329C1.8088 20.7257 1.80323 20.7189 1.79894 20.7113C1.75094 20.6261 1.74045 20.5156 1.7335 20.4194C1.70909 20.081 1.70519 17.6154 1.77228 17.4012L1.84537 17.3755C1.82799 18.4507 1.80261 19.5341 1.85016 20.6088C2.72712 20.5836 3.60619 20.5955 4.48348 20.5955L8.76364 20.5954L21.7375 20.5953L32.0316 20.5955L35.3691 20.5952C36.0429 20.595 36.7222 20.5785 37.3952 20.6093Z" fill="#93C704"/>
<path d="M27.7356 2.98486C27.7728 3.10544 27.7974 3.21658 27.8144 3.342L27.8178 3.33559C27.8539 3.87306 27.8732 9.14018 27.812 9.31304L27.7509 9.27586C27.6906 9.10563 27.7323 7.80446 27.7323 7.54208L27.7356 2.98486Z" fill="#93C704"/>
<path d="M18.8395 5.28535C19.2396 5.24441 19.6546 5.26593 20.0568 5.26572L22.1043 5.26559L23.9396 5.26638C24.3643 5.26664 24.7998 5.24312 25.2207 5.30525C25.3425 5.56861 25.2515 6.56228 25.2897 6.93732C25.2902 6.94273 25.2904 6.94817 25.2908 6.9536L24.9097 6.93305C24.5366 6.98309 23.958 6.93728 23.5631 6.9372L20.6013 6.9384C20.0543 6.938 19.48 6.9007 18.9371 6.95612C18.8678 6.90193 18.8566 6.88744 18.8467 6.80011C18.7912 6.31138 18.8512 5.78008 18.8395 5.28535ZM18.8395 5.28535C18.8512 5.78008 18.7912 6.31138 18.8467 6.80011C18.8566 6.88744 18.8678 6.90193 18.9371 6.95612C18.9397 6.94272 18.9427 6.92938 18.945 6.91592C18.9608 6.82259 18.9412 6.72324 18.9389 6.62878C18.9316 6.32183 18.8862 5.64397 18.9802 5.37926C19.0391 5.3426 19.0992 5.3513 19.1679 5.34977C20.5669 5.31885 21.9727 5.34505 23.3724 5.34484C23.69 5.34479 24.792 5.30186 25.0274 5.35726C25.0642 5.36593 25.0573 5.35865 25.0781 5.39235C25.1572 5.52107 25.2069 6.55964 25.1519 6.70187C25.1374 6.73929 25.1273 6.77318 25.0873 6.78603C24.7836 6.88345 23.6652 6.71438 23.4491 6.81782L23.4799 6.79797L23.4757 6.83698C23.4874 6.83459 23.499 6.83069 23.511 6.82979C23.7896 6.80892 24.8331 6.82233 25.0913 6.86919L25.085 6.90091C25.0538 6.90878 25.0321 6.91214 24.9998 6.9117C24.9632 6.91119 24.9428 6.91933 24.9097 6.93305L25.2908 6.9536C25.2904 6.94817 25.2902 6.94273 25.2897 6.93732C25.2515 6.56228 25.3425 5.56861 25.2207 5.30525C24.7998 5.24312 24.3643 5.26664 23.9396 5.26638L22.1043 5.26559L20.0568 5.26572C19.6546 5.26593 19.2396 5.24441 18.8395 5.28535Z" fill="#93C704"/>
<path d="M18.8395 5.28535C19.2396 5.24441 19.6546 5.26593 20.0568 5.26572L22.1043 5.26559L23.9396 5.26638C24.3643 5.26664 24.7998 5.24312 25.2207 5.30525C25.3425 5.56861 25.2515 6.56228 25.2897 6.93732C25.2902 6.94273 25.2904 6.94817 25.2908 6.9536L24.9097 6.93305C24.9428 6.91933 24.9632 6.91119 24.9998 6.9117C25.0321 6.91214 25.0538 6.90878 25.085 6.90091L25.0913 6.86919C24.8331 6.82233 23.7896 6.80892 23.511 6.82979C23.499 6.83069 23.4874 6.83459 23.4757 6.83698L23.4799 6.79797L23.4491 6.81782C23.6652 6.71438 24.7836 6.88345 25.0873 6.78603C25.1273 6.77318 25.1374 6.73929 25.1519 6.70187C25.2069 6.55964 25.1572 5.52107 25.0781 5.39235C25.0573 5.35865 25.0642 5.36593 25.0274 5.35726C24.792 5.30186 23.69 5.34479 23.3724 5.34484C21.9727 5.34505 20.5669 5.31885 19.1679 5.34977C19.0992 5.3513 19.0391 5.3426 18.9802 5.37926C18.8862 5.64397 18.9316 6.32183 18.9389 6.62878C18.9412 6.72324 18.9608 6.82259 18.945 6.91592C18.9427 6.92938 18.9397 6.94272 18.9371 6.95612C18.8678 6.90193 18.8566 6.88744 18.8467 6.80011C18.7912 6.31138 18.8512 5.78008 18.8395 5.28535Z" fill="#93C704"/>
<path d="M18.8391 10.9485C19.3526 10.8982 19.8936 10.9299 20.4104 10.9301L23.2223 10.9317C25.9023 10.9331 28.5885 10.8914 31.2677 10.9331C31.3765 10.9348 31.5733 10.9203 31.6652 10.9757C31.8221 11.4013 31.6487 12.1474 31.7351 12.6157C31.3147 12.5869 30.8879 12.6013 30.4666 12.6015L28.4583 12.6018L22.1287 12.6017L20.1159 12.6038C19.8148 12.6044 19.4684 12.6398 19.1738 12.5977L18.9381 12.6194C18.8686 12.5652 18.8569 12.5513 18.8468 12.4637C18.7907 11.9745 18.8521 11.4436 18.8391 10.9485ZM18.8391 10.9485C18.8521 11.4436 18.7907 11.9745 18.8468 12.4637C18.8569 12.5513 18.8686 12.5652 18.9381 12.6194C18.9404 12.6038 18.9432 12.5884 18.9452 12.5729C19.0077 12.107 18.8239 11.4762 18.9895 11.0337C19.092 10.9969 19.2291 11.0115 19.3388 11.0107L28.213 11.0089L30.4726 11.0091C30.7976 11.0091 31.1929 10.9642 31.5077 11.0267C31.6503 11.195 31.6281 12.082 31.6113 12.3245C31.6083 12.3682 31.6015 12.4082 31.5932 12.4512C31.5123 12.4687 31.3586 12.4443 31.2688 12.4458C30.6691 12.4557 30.0705 12.4525 29.4709 12.4522C26.5944 12.4505 23.7152 12.4246 20.8392 12.4617C20.3975 12.4673 19.4061 12.3939 19.0448 12.5155C19.3251 12.5611 19.6413 12.5351 19.9256 12.5352L21.4579 12.5355L27.5953 12.5348L29.4267 12.5346C29.7429 12.5346 30.0841 12.5083 30.3967 12.5464L30.3894 12.5693L30.4328 12.5577L21.4648 12.5609C21.1961 12.5609 19.3194 12.5283 19.225 12.563C19.2095 12.5688 19.1953 12.578 19.1816 12.5872C19.178 12.5897 19.1764 12.5942 19.1738 12.5977C19.4684 12.6398 19.8148 12.6044 20.1159 12.6038L22.1287 12.6017L28.4583 12.6018L30.4666 12.6015C30.8879 12.6013 31.3147 12.5869 31.7351 12.6157C31.6487 12.1474 31.8221 11.4013 31.6652 10.9757C31.5733 10.9203 31.3765 10.9348 31.2677 10.9331C28.5885 10.8914 25.9023 10.9331 23.2223 10.9317L20.4104 10.9301C19.8936 10.9299 19.3526 10.8982 18.8391 10.9485Z" fill="#93C704"/>
<path d="M18.8391 10.9485C19.3526 10.8982 19.8936 10.9299 20.4104 10.9301L23.2223 10.9317C25.9023 10.9331 28.5885 10.8914 31.2677 10.9331C31.3765 10.9348 31.5733 10.9203 31.6652 10.9757C31.8221 11.4013 31.6487 12.1474 31.7351 12.6157C31.3147 12.5869 30.8879 12.6013 30.4666 12.6015L28.4583 12.6018L22.1287 12.6017L20.1159 12.6038C19.8148 12.6044 19.4684 12.6398 19.1738 12.5977C19.1764 12.5942 19.178 12.5897 19.1816 12.5872C19.1953 12.578 19.2095 12.5688 19.225 12.563C19.3194 12.5283 21.1961 12.5609 21.4648 12.5609L30.4328 12.5577L30.3894 12.5693L30.3967 12.5464C30.0841 12.5083 29.7429 12.5346 29.4267 12.5346L27.5953 12.5348L21.4579 12.5355L19.9256 12.5352C19.6413 12.5351 19.3251 12.5611 19.0448 12.5155C19.4061 12.3939 20.3975 12.4673 20.8392 12.4617C23.7152 12.4246 26.5944 12.4505 29.4709 12.4522C30.0705 12.4525 30.6691 12.4557 31.2688 12.4458C31.3586 12.4443 31.5123 12.4687 31.5932 12.4512C31.6015 12.4082 31.6083 12.3682 31.6113 12.3245C31.6281 12.082 31.6503 11.195 31.5077 11.0267C31.1929 10.9642 30.7976 11.0091 30.4726 11.0091L28.213 11.0089L19.3388 11.0107C19.2291 11.0115 19.092 10.9969 18.9895 11.0337C18.8239 11.4762 19.0077 12.107 18.9452 12.5729C18.9432 12.5884 18.9404 12.6038 18.9381 12.6194C18.8686 12.5652 18.8569 12.5513 18.8468 12.4637C18.7907 11.9745 18.8521 11.4436 18.8391 10.9485Z" fill="#93C704"/>
<path d="M37.3978 30.3729C37.6303 30.3558 38.8316 30.3073 38.9688 30.4084C38.9754 30.4133 38.9823 30.4187 38.9864 30.4259C39.0269 30.4982 39.037 30.6067 39.0406 30.6876C39.0621 31.1648 39.0361 31.6533 39.036 32.1316L39.0361 35.2708C39.0362 35.7844 39.0196 36.304 39.0549 36.8165C39.2098 36.8057 39.3636 36.8109 39.5186 36.8149C39.506 36.8199 39.4935 36.8252 39.4807 36.8299C39.3501 36.8775 39.0651 36.865 38.9286 36.8417C38.8494 36.5431 38.9017 35.9313 38.9024 35.5952L38.9047 31.985L38.9051 30.9781C38.9053 30.8415 38.9233 30.6813 38.9021 30.5486C38.8982 30.5486 38.8942 30.5492 38.8904 30.5486C38.8834 30.5475 38.8766 30.5451 38.8695 30.5434C38.6605 30.4927 37.7233 30.4534 37.5347 30.4945C37.4424 30.7397 37.4966 32.4731 37.4965 32.859L37.4959 36.9772C37.4967 37.2901 37.5421 38.1647 37.4829 38.4058L37.426 38.3643C37.3571 38.2178 37.396 31.3244 37.3978 30.3729Z" fill="#93C704"/>
<path d="M37.4829 38.4055C37.542 38.1644 37.4966 37.2898 37.4959 36.9769L37.4964 32.8588C37.4965 32.4728 37.4423 30.7394 37.5346 30.4942C37.7233 30.4531 38.6604 30.4924 38.8695 30.5431C38.8765 30.5448 38.8834 30.5472 38.8904 30.5483C38.8942 30.5489 38.8981 30.5483 38.902 30.5483C38.9233 30.681 38.9052 30.8413 38.905 30.9778L38.9046 31.9847L38.9023 35.5949C38.9016 35.931 38.8494 36.5428 38.9286 36.8415C39.0651 36.8647 39.3501 36.8772 39.4806 36.8297C39.4934 36.825 39.5059 36.8196 39.5185 36.8146C39.9634 36.7982 42.7323 36.764 42.9842 36.8534C43.1044 37.0803 43.0347 38.0693 43.0607 38.399C41.8691 38.3419 40.6572 38.3873 39.4632 38.3877L38.255 38.386C38.0031 38.3853 37.7316 38.3681 37.4829 38.4055Z" fill="#93C704"/>
</g>
<defs>
<clipPath id="clip0_1094_7199">
<rect width="50" height="50" fill="white" transform="translate(0.243896 0.437988)"/>
</clipPath>
</defs>
</svg>
