<svg width="78" height="65" viewBox="0 0 78 65" fill="none" xmlns="http://www.w3.org/2000/svg">
<path d="M4.57048 31.0384L3.92152 31.3633C2.0078 32.3213 1.18717 34.6159 2.05933 36.5702L13.0621 61.2251C13.9834 63.2895 16.4311 64.1809 18.4642 63.1922L25.9936 59.5307C26.3514 59.3566 26.525 58.9443 26.3993 58.5667V58.5667C26.3237 58.3396 26.1488 58.1617 25.9324 58.0594C24.9489 57.5943 23.3684 56.496 22.8877 54.8115C22.2093 52.4342 22.8877 49.3777 26.2797 47.6796C29.6301 46.0024 36.2896 48.9636 33.5113 55.2542C33.4462 55.4016 33.4451 55.5749 33.5171 55.7191V55.7191C33.6429 55.971 33.9451 56.0788 34.202 55.9633L46.5859 50.3965M4.57048 31.0384L3.90294 29.2561C3.67308 28.6424 3.5932 27.9831 3.69766 27.3361C4.4249 22.8319 6.47066 15.4161 9.9978 15.4161M4.57048 31.0384L7.34177 39.6397C7.73206 40.8511 8.73335 41.9027 9.9608 41.5664C10.5337 41.4094 11.1418 41.1003 11.6938 40.5476C13.3899 38.8496 12.3722 32.0572 11.6938 29.3403M9.9978 15.4161C13.7969 15.4161 23.3399 15.4161 27.6366 15.4161M9.9978 15.4161V15.4161C8.31175 15.4161 6.94493 14.0492 6.94493 12.3632V9.9822M27.6366 15.4161L30.011 19.4915M27.6366 15.4161V15.4161C28.3859 15.4161 28.9934 14.8086 28.9934 14.0592V11.6803M30.011 19.4915L16.1836 25.7842C15.4677 26.11 14.8762 26.6497 14.3837 27.263C13.6709 28.1506 12.6541 29.148 11.6938 29.3403M30.011 19.4915L32.0463 18.5911M11.6938 29.3403C11.3546 29.3403 10.5405 29.2724 9.9978 29.0007M73.4295 38.5099L73.8031 38.3541C75.844 37.5027 76.8068 35.1568 75.9525 33.1171L65.7921 8.85944C64.9482 6.84445 62.6436 5.87929 60.6156 6.69148L52.9123 9.77651C52.6221 9.89274 52.2912 9.76694 52.1515 9.48722V9.48722C52.0918 9.36783 52.0744 9.23257 52.0946 9.10065C52.2001 8.40959 52.3035 6.93754 52.0595 5.22758C51.7203 2.85027 48.3282 -0.206278 44.5969 1.4918C40.8656 3.18988 40.1872 6.58604 41.2048 8.96335C41.96 10.7274 43.3572 11.8487 44.097 12.2729C44.2002 12.3321 44.2864 12.417 44.3396 12.5234V12.5234C44.4797 12.8041 44.357 13.1449 44.0702 13.2718L32.0463 18.5911M73.4295 38.5099C72.638 35.793 70.9872 30.1554 70.7159 29.3403C70.3767 28.3215 69.0198 27.3026 66.9846 29.3403C64.9493 31.378 65.967 35.1138 66.9846 41.2269M73.4295 38.5099L74.4857 41.6822C74.6834 42.276 74.742 42.9059 74.6383 43.5231C73.954 47.5988 72.2953 54.486 70.0374 55.4907M66.9846 41.2269C65.6278 41.7703 63.7056 44.623 62.9141 45.9815M66.9846 41.2269L48.3282 49.6133M70.0374 55.4907C63.5925 55.4907 54.0947 55.4907 51.7203 55.4907M70.0374 55.4907V55.4907C71.9108 55.4907 73.4295 57.0094 73.4295 58.8828V62.2831M51.7203 55.4907C49.3458 55.4907 48.3282 50.5282 48.3282 49.6133M51.7203 55.4907V55.4907C50.2216 55.4907 49.0066 56.7057 49.0066 58.2044V59.5661M48.3282 49.6133L46.5859 50.3965M46.5859 50.3965L41.1294 39.0581C40.9714 38.7297 40.9113 38.4435 41.2088 38.233V38.233C41.5105 38.0195 42.0989 37.9624 42.4624 38.03C43.5802 38.2381 45.9729 38.2229 47.3106 37.1515C49.0066 35.7931 50.0242 33.4158 49.3458 31.0384C48.6674 28.661 45.9537 25.9442 42.5617 26.963C40.1828 27.6776 39.0204 29.3142 38.6175 30.3173C38.5241 30.5498 38.3472 30.7469 38.1095 30.8262V30.8262C37.7495 30.9463 37.3573 30.7718 37.2056 30.4238L32.0463 18.5911" stroke="#93C704" stroke-width="2" stroke-linecap="round" stroke-linejoin="round"/>
</svg>
