<svg width="144" height="144" viewBox="0 0 144 144" fill="none" xmlns="http://www.w3.org/2000/svg">
<path d="M105.706 19.8507L94.6248 3.13572C92.4902 -0.0862109 88.1391 -0.968337 84.9135 1.16017C81.6852 3.28998 80.7983 7.62737 82.9335 10.8474L84.1928 12.7464C81.105 12.4483 77.982 12.3796 74.8344 12.5209L70.404 13.0105L65.9737 13.5002C44.2436 17.4059 25.8724 31.8907 17.0916 52.4887C15.5776 56.0419 17.2372 60.1466 20.7994 61.6574C21.6948 62.0372 22.624 62.2167 23.5383 62.2167C26.2649 62.2167 28.8576 60.6204 29.9921 57.9597C37.6 40.1105 54.3487 28.0887 73.6998 26.585C76.7285 26.3503 79.7287 26.373 82.6885 26.6511L79.2368 28.928C76.0079 31.0578 75.1209 35.3946 77.2568 38.6152C78.6045 40.6491 80.8353 41.7509 83.109 41.7509C84.4365 41.7509 85.779 41.3756 86.9688 40.5907L103.726 29.5386C105.276 28.5158 106.356 26.9207 106.728 25.104C107.099 23.2866 106.731 21.3972 105.706 19.8507Z" fill="#93C704"/>
<path d="M133.523 115.747L131.828 115.883C133.932 112.915 135.8 109.76 137.417 106.419C148.141 84.2713 145.629 58.2515 130.861 38.5116C128.545 35.4173 124.154 34.7808 121.052 37.0902C117.949 39.3989 117.312 43.7797 119.626 46.8739C131.256 62.4178 133.236 82.9043 124.794 100.338C123.377 103.265 121.709 106.005 119.821 108.565L119.436 103.785C119.127 99.9363 115.74 97.065 111.89 97.3761C108.031 97.6853 105.154 101.055 105.464 104.904L107.072 124.878C107.366 128.536 110.434 131.309 114.051 131.309C114.239 131.309 114.428 131.302 114.619 131.286L134.645 129.683C138.504 129.374 141.38 126.004 141.07 122.155C140.76 118.307 137.387 115.441 133.523 115.747Z" fill="#93C704"/>
<path d="M89.3192 136.164C88.98 132.318 85.5816 129.471 81.7224 129.814C62.3576 131.515 43.8363 122.434 33.3998 106.11C32.479 104.67 31.6401 103.197 30.8733 101.698L30.9676 101.764C34.1321 103.987 38.5053 103.229 40.7335 100.073C42.9623 96.9155 42.202 92.5542 39.0375 90.3317L22.6111 78.7953C19.4459 76.5735 15.0747 77.3305 12.8452 80.4863L1.27872 96.8714C-0.950102 100.028 -0.190482 104.389 2.97471 106.612C4.20154 107.474 5.60901 107.888 7.00349 107.888C9.20697 107.888 11.376 106.854 12.7406 104.921L15.3639 101.206C16.9754 105.513 19.0469 109.663 21.5818 113.628C25.7074 120.081 30.8285 125.639 36.6631 130.174L44.2326 135.253C54.0843 140.914 65.3701 144 77.0789 144C79.0257 144 80.9881 143.914 82.9531 143.742C86.8084 143.402 89.6591 140.01 89.3192 136.164Z" fill="#93C704"/>
</svg>
