<svg width="92" height="92" viewBox="0 0 92 92" fill="none" xmlns="http://www.w3.org/2000/svg">
<path fill-rule="evenodd" clip-rule="evenodd" d="M0.0641361 41.8667C-0.974464 33.1839 10.8666 28.337 16.3417 21.2934C21.3905 14.7981 23.4291 5.79745 30.9952 2.07436C38.6518 -1.69325 47.7929 0.634962 56.3658 1.59845C65.1484 2.58549 76.195 1.09261 81.5319 7.754C87.0532 14.6455 79.749 24.7012 81.6483 33.1552C83.3221 40.6051 93.6058 45.9702 91.7847 53.3893C89.9836 60.7269 78.7932 61.5522 73.3308 67.0401C66.9336 73.4671 65.6479 84.1697 57.2687 88.0661C48.2842 92.244 35.5484 94.2278 27.8342 88.1964C19.7104 81.8447 26.126 68.3228 20.9303 59.6547C16.2189 51.7945 1.13773 50.8419 0.0641361 41.8667Z" fill="#93C704"/>
<path d="M61.0988 68.8427C52.8811 68.8427 46.1976 62.6245 46.1976 54.979C46.1976 47.3335 52.8811 41.1154 61.0988 41.1154C69.3165 41.1154 76 47.3335 76 54.979C76 62.6245 69.3165 68.8427 61.0988 68.8427ZM61.0988 42.5193C53.7153 42.5193 47.7066 48.1096 47.7066 54.979C47.7066 61.8484 53.7153 67.4387 61.0988 67.4387C68.4823 67.4387 74.491 61.8504 74.491 54.979C74.491 48.1077 68.4823 42.5193 61.0988 42.5193ZM45.5248 68.7471L20.3751 55.098C20.1425 54.9712 20 54.7411 20 54.4916V27.1933H21.509V54.0879L46.2835 67.5343L45.5248 68.7471ZM60.5748 61.0431C60.382 61.0431 60.1871 60.9749 60.0404 60.8384L54.6835 55.8565L55.7524 54.862L60.5748 59.3487L68.9623 51.5414L70.0311 52.5358L61.1093 60.8384C60.9626 60.9749 60.7677 61.0431 60.5748 61.0431ZM29.8922 40.8424H28.3832V21.3436H29.8922V40.8424ZM71.8084 38.8925H70.2994V27.5969L45.9042 14.3572L38.2754 18.4832V34.9928H36.7665V18.0776C36.7665 17.828 36.909 17.596 37.1416 17.4712L45.5248 12.9377C45.7596 12.811 46.0509 12.811 46.2835 12.9377L71.4332 26.5869C71.6659 26.7116 71.8084 26.9437 71.8084 27.1933V38.8925Z" fill="#F2F2F2"/>
</svg>
