<svg width="40" height="36" viewBox="0 0 40 36" fill="none" xmlns="http://www.w3.org/2000/svg">
<path d="M38 4.58182H30.6667V0H28V4.58182H12V0H9.33333V4.58182H2C1.46976 4.58242 0.961408 4.7895 0.586469 5.15762C0.21153 5.52575 0.000617537 6.02485 0 6.54545V34.0364C0.000617537 34.557 0.21153 35.0561 0.586469 35.4242C0.961408 35.7923 1.46976 35.9994 2 36H38C38.5302 35.9994 39.0386 35.7923 39.4135 35.4242C39.7885 35.0561 39.9994 34.557 40 34.0364V6.54545C39.9994 6.02485 39.7885 5.52575 39.4135 5.15762C39.0386 4.7895 38.5302 4.58242 38 4.58182ZM37.3333 33.3818H2.66667V7.2H9.33333V10.4727H12V7.2H28V10.4727H30.6667V7.2H37.3333V33.3818Z" fill="#93C704"/>
<path d="M18.9499 22.3669L14.4178 17.9172L12.5322 19.7686L18.9499 26.0695L29.4178 15.7919L27.5321 13.9406L18.9499 22.3669Z" fill="#93C704"/>
</svg>
