<svg width="142" height="54" viewBox="0 0 142 54" fill="none" xmlns="http://www.w3.org/2000/svg">
<path fill-rule="evenodd" clip-rule="evenodd" d="M89.2173 43.3917C77.1994 42.2981 59.4342 55.8275 48.3259 53.7907C36.3581 51.5964 29.7749 44.0405 23.8974 39.5608C17.9466 35.0254 2.14453 36.2324 1.14468 31.1926C0.0244751 25.5462 1.40611 14.7327 6.90329 9.45858C12.1811 4.39488 19.9886 2.17838 33.4561 0.154373C45.3571 -1.63419 65.5243 12.7236 78.2078 12.0171C92.894 11.1989 109.428 -0.172764 121.883 2.85547C134.481 5.91863 138.075 16.0264 141.792 22.5939C143.385 28.6144 135.419 31.1926 132.233 32.9931C129.046 34.7936 129.856 39.4455 127.453 43.3917C126.12 45.5808 116.832 46.1279 108.866 45.0333C102.55 44.1654 103.823 44.7207 89.2173 43.3917Z" fill="#93C704"/>
</svg>
