<svg width="143" height="54" viewBox="0 0 143 54" fill="none" xmlns="http://www.w3.org/2000/svg">
<path fill-rule="evenodd" clip-rule="evenodd" d="M91.0255 53.881C78.8524 52.9023 57.6303 43.9479 46.3787 42.1251C34.2563 40.1612 15.6253 42.9929 9.67183 38.9837C3.64429 34.9246 1.5197 30.3293 0.506943 25.8189C-0.627731 20.7655 10.0003 19.4151 15.5685 14.6948C20.9144 10.163 19.9388 5.08054 33.5802 3.26911C45.6348 1.66838 65.7178 9.28958 78.5651 8.65719C93.4409 7.92495 110.189 -2.2524 122.804 0.457794C135.565 3.19925 124.788 13.4106 130.144 18.1236C134.562 22.0109 139.725 21.7331 141.978 25.8189C144.58 30.5378 135.124 28.3135 130.144 32.8184C124.851 37.6071 132.684 43.1066 118.459 45.064C104.401 46.9985 105.82 55.0704 91.0255 53.881Z" fill="#93C704"/>
</svg>
