<svg width="142" height="54" viewBox="0 0 142 54" fill="none" xmlns="http://www.w3.org/2000/svg">
<path fill-rule="evenodd" clip-rule="evenodd" d="M70.8663 51.8221C59.5588 50.8107 49.9958 48.5452 39.5443 46.6614C28.2839 44.6318 12.4058 44.4315 6.87572 40.2881C1.27678 36.0932 12.0366 31.3441 11.0959 26.6828C10.0419 21.4603 -4.03427 16.7356 1.13794 11.8575C6.10374 7.17393 16.4113 5.25054 29.0827 3.37849C40.2801 1.72421 58.9327 9.6004 70.8663 8.94686C84.6844 8.19011 100.239 -2.32777 111.957 0.47311C123.811 3.3063 120.037 16.2253 125.012 21.096C129.116 25.1134 136.638 22.4603 138.731 26.6828C141.148 31.5596 144.233 36.6425 139.607 41.2981C134.69 46.2471 125.62 51.156 112.406 53.1789C99.3479 55.1781 84.6087 53.0514 70.8663 51.8221Z" fill="#93C704"/>
</svg>
