<svg width="142" height="54" viewBox="0 0 142 54" fill="none" xmlns="http://www.w3.org/2000/svg">
<path fill-rule="evenodd" clip-rule="evenodd" d="M71.1337 51.8221C82.4412 50.8107 92.0042 48.5452 102.456 46.6614C113.716 44.6318 129.594 44.4315 135.124 40.2881C140.723 36.0932 129.963 31.3441 130.904 26.6828C131.958 21.4603 146.034 16.7356 140.862 11.8575C135.896 7.17393 125.589 5.25054 112.917 3.37849C101.72 1.72421 83.0673 9.6004 71.1337 8.94686C57.3156 8.19011 41.7609 -2.32777 30.0428 0.47311C18.1895 3.3063 21.963 16.2253 16.9876 21.096C12.8838 25.1134 5.36191 22.4603 3.26925 26.6828C0.852238 31.5596 -2.23275 36.6425 2.39267 41.2981C7.30954 46.2471 16.38 51.156 29.5936 53.1789C42.6521 55.1781 57.3913 53.0514 71.1337 51.8221Z" fill="#93C704"/>
</svg>
