<svg width="94" height="86" viewBox="0 0 94 86" fill="none" xmlns="http://www.w3.org/2000/svg">
<path fill-rule="evenodd" clip-rule="evenodd" d="M47.9127 0.581055C62.1503 1.27147 69.8386 6.1655 78.136 16.5038C84.6485 24.6181 87.8336 33.5859 89.5197 43.4497C91.6652 56.0009 98.7068 70.7924 89.0044 80.0856C79.2655 89.4138 62.1669 84.2525 47.9127 83.3019C35.2719 82.4589 21.8076 82.6975 12.5406 74.9863C3.03502 67.0765 -0.294474 55.0388 0.020177 43.4497C0.326812 32.1559 6.15665 22.124 14.2126 13.4039C23.3846 3.47575 33.5073 -0.117508 47.9127 0.581055Z" fill="#93C704"/>
<path d="M76.981 58.5423H13V20.8222C13 19.3211 14.21 18.1 15.698 18.1H25.4505V20.1035H15.698C15.313 20.104 15 20.426 15 20.8227V56.5393H74.981V20.8227C74.981 20.4271 74.6675 20.1045 74.2825 20.1045H49.922V18.101H74.2825C75.771 18.101 76.981 19.3221 76.981 20.8227V58.5423Z" fill="#F2F2F2"/>
<path d="M74.3984 65.9461H16.0329C14.5049 65.9461 13.0054 64.3874 13.0054 62.7992V56.5018H76.9999V62.8858C76.9999 64.3904 76.0269 65.9461 74.3984 65.9461ZM15.0054 58.5053V62.7992C15.0054 63.28 15.6004 63.9427 16.0329 63.9427H74.3984C74.7424 63.9427 74.9999 63.3847 74.9999 62.8858V58.5053H15.0054Z" fill="#F2F2F2"/>
<path d="M35.6423 74.074L34.8403 72.2389C35.5013 71.9489 36.0498 71.6884 36.3453 71.5246L36.4348 71.474C36.5588 71.4044 36.7128 71.3188 36.7453 71.2852C36.7653 71.2592 36.8423 71.1214 36.9703 70.4683C37.1203 69.6995 37.1023 68.3176 37.0858 67.098C37.0748 66.2596 37.0643 65.4672 37.1093 64.9052L39.1028 65.0665C39.0648 65.5348 39.0748 66.2811 39.0853 67.0715C39.1038 68.4523 39.1223 69.8798 38.9323 70.853C38.6423 72.3345 38.3303 72.7082 37.4088 73.2231L37.3193 73.2731C36.8388 73.5406 36.0628 73.8897 35.6423 74.074Z" fill="#F2F2F2"/>
<path d="M54.2973 74.0811C53.8733 73.8953 53.0903 73.5441 52.6078 73.2777L52.5468 73.2431C51.5688 72.6932 51.3143 72.2915 51.0343 70.8535C50.8448 69.8823 50.8628 68.4809 50.8803 67.1261C50.8908 66.3457 50.9003 65.609 50.8623 65.1391L52.8553 64.9769C52.9013 65.5408 52.8908 66.3232 52.8803 67.1521C52.8648 68.3472 52.8473 69.7015 52.9968 70.4693C53.1198 71.1004 53.1888 71.2697 53.2183 71.3148C53.2478 71.3408 53.4013 71.4275 53.5253 71.4966L53.5803 71.5282C53.8743 71.6899 54.4298 71.9539 55.0983 72.2469L54.2973 74.0811Z" fill="#F2F2F2"/>
<path d="M33.54 72.0486H56.4715V74.0521H33.54V72.0486Z" fill="#F2F2F2"/>
<path d="M29.7943 52.801H20.0083V40.9561H29.7943V52.801ZM22.0083 50.7976H27.7943V42.9596H22.0083V50.7976Z" fill="#F2F2F2"/>
<path d="M42.6323 52.8014H32.8423V27.7276H42.6323V52.8014ZM34.8423 50.7979H40.6323V29.7311H34.8423V50.7979Z" fill="#F2F2F2"/>
<path d="M55.4682 52.801H45.6782V33.9705H55.4682V52.801ZM47.6777 50.7975H53.4677V35.974H47.6777V50.7975Z" fill="#F2F2F2"/>
<path d="M68.3026 52.801H58.5156V22.386H68.3026V52.801ZM60.5156 50.7975H66.3026V24.3894H60.5156V50.7975Z" fill="#F2F2F2"/>
<path d="M37.5517 27.7171L35.5567 24.2181H30.3852C29.2597 24.2181 28.3442 23.2975 28.3442 22.1656V16.1337C28.3442 15.0017 29.2597 14.0811 30.3852 14.0811H44.7217C45.2647 14.0811 45.7767 14.294 46.1612 14.6801C46.5482 15.0683 46.7612 15.5857 46.7602 16.1352V22.1651C46.7602 23.297 45.8452 24.2176 44.7207 24.2176H39.5472L37.5517 27.7171ZM30.3852 16.0851C30.3622 16.0851 30.3442 16.1066 30.3442 16.1342V22.1661C30.3442 22.1951 30.3612 22.2151 30.3852 22.2151H36.7187L37.5522 23.6792L38.3837 22.2151H44.7212C44.7407 22.2151 44.7607 22.1971 44.7607 22.1661V16.1337L44.7217 16.0846H30.3852V16.0851Z" fill="#F2F2F2"/>
<path d="M33.686 18.2022H41.4205V20.2057H33.686V18.2022Z" fill="#F2F2F2"/>
<path d="M18.5024 50.7974H71.4974V52.8009H18.5024V50.7974Z" fill="#F2F2F2"/>
</svg>
