<svg width="558" height="380" viewBox="0 0 558 380" fill="none" xmlns="http://www.w3.org/2000/svg">
<g filter="url(#filter0_i_20_1329)">
<path d="M268.012 333.181C270.339 271.66 341.48 29.7693 417.85 32.6574C494.22 35.5455 549.339 271.66 547.012 333.181L483.95 333.181L418.5 333.181L343.973 333.181L268.012 333.181Z" fill="url(#paint0_linear_20_1329)"/>
</g>
<g filter="url(#filter1_i_20_1329)">
<path d="M90.7705 333.181C90.7705 284.128 146.595 107.809 212.786 107.808C278.977 107.808 332.507 284.128 332.507 333.181L222.149 333.182L159.087 333.181L90.7705 333.181Z" fill="url(#paint1_linear_20_1329)"/>
</g>
<path d="M289.627 228.312C285.668 228.312 282.459 230.803 282.459 233.877C282.459 235.151 283.016 236.318 283.94 237.257C283.523 238.311 282.655 239.205 282.641 239.215C282.456 239.403 282.406 239.675 282.512 239.911C282.619 240.146 282.862 240.299 283.131 240.299C284.853 240.299 286.211 239.611 287.026 239.06C287.835 239.304 288.709 239.443 289.627 239.443C293.586 239.443 296.795 236.952 296.795 233.877C296.795 230.803 293.586 228.312 289.627 228.312ZM289.627 238.158C288.879 238.158 288.14 238.049 287.432 237.835L286.796 237.642L286.25 238.011C285.85 238.281 285.301 238.584 284.64 238.787C284.845 238.463 285.043 238.1 285.197 237.712L285.494 236.96L284.917 236.376C284.411 235.86 283.803 235.007 283.803 233.877C283.803 231.518 286.415 229.596 289.627 229.596C292.839 229.596 295.451 231.518 295.451 233.877C295.451 236.237 292.839 238.158 289.627 238.158Z" fill="#93C704"/>
<g filter="url(#filter2_di_20_1329)">
<rect width="113.277" height="92.6815" rx="2.70999" transform="matrix(-1 0 0 1 508.846 48.4487)" fill="url(#paint2_linear_20_1329)"/>
<g filter="url(#filter3_i_20_1329)">
<path fill-rule="evenodd" clip-rule="evenodd" d="M395.569 59.281L395.569 51.0947C395.569 49.598 396.782 48.3847 398.279 48.3847L506.198 48.3847C507.695 48.3847 508.908 49.598 508.908 51.0947L508.908 59.2829C508.908 57.7863 507.695 56.573 506.198 56.573L398.279 56.573C396.783 56.573 395.57 57.7852 395.569 59.281Z" fill="white"/>
</g>
<circle cx="1.51119" cy="1.51119" r="1.51119" transform="matrix(-1 0 0 1 502.508 51.1584)" fill="white"/>
<circle cx="1.51119" cy="1.51119" r="1.51119" transform="matrix(-1 0 0 1 497.974 51.1584)" fill="white"/>
<circle cx="1.51119" cy="1.51119" r="1.51119" transform="matrix(-1 0 0 1 493.441 51.1584)" fill="white"/>
<rect x="417.291" y="65.8264" width="43.3598" height="54.1997" fill="#D9D9D9"/>
<rect x="443.307" y="75.5823" width="43.3598" height="54.1997" fill="white"/>
<path d="M464.987 102.682L448.596 93.5244L448.861 112.298L464.987 102.682ZM426.528 104.85L450.377 104.514L450.331 101.262L426.482 101.598L426.528 104.85Z" fill="#93C704"/>
</g>
<g filter="url(#filter4_di_20_1329)">
<rect width="221.671" height="150.966" rx="4.7774" transform="matrix(-1 0 0 1 407.99 145.907)" fill="#93C704"/>
</g>
<g filter="url(#filter5_i_20_1329)">
<path fill-rule="evenodd" clip-rule="evenodd" d="M186.318 165.004L186.318 150.572C186.318 147.934 188.457 145.795 191.096 145.795L403.212 145.795C405.851 145.795 407.99 147.934 407.99 150.572L407.99 165.007C407.99 162.369 405.851 160.23 403.212 160.23L191.096 160.23C188.459 160.23 186.32 162.367 186.318 165.004Z" fill="white"/>
</g>
<circle cx="2.86644" cy="2.86644" r="2.86644" transform="matrix(-1 0 0 1 394.613 150.685)" fill="white"/>
<circle cx="2.86644" cy="2.86644" r="2.86644" transform="matrix(-1 0 0 1 386.014 150.685)" fill="white"/>
<circle cx="2.86644" cy="2.86644" r="2.86644" transform="matrix(-1 0 0 1 377.414 150.685)" fill="white"/>
<circle cx="208.772" cy="181.738" r="10.988" fill="white"/>
<line x1="223.582" y1="176.483" x2="283.777" y2="176.483" stroke="white" stroke-width="5.73288"/>
<line x1="223.582" y1="183.171" x2="264.668" y2="183.171" stroke="#5D7B0B" stroke-width="3.82192"/>
<line x1="314.353" y1="287.318" x2="314.353" y2="248.144" stroke="white" stroke-width="9.55479"/>
<line x1="333.462" y1="287.318" x2="333.462" y2="219.479" stroke="white" stroke-width="9.55479"/>
<line x1="352.572" y1="287.318" x2="352.572" y2="236.678" stroke="white" stroke-width="9.55479"/>
<line x1="371.681" y1="287.318" x2="371.681" y2="202.281" stroke="white" stroke-width="9.55479"/>
<circle cx="208.772" cy="213.269" r="10.988" fill="white"/>
<line x1="223.582" y1="208.014" x2="283.777" y2="208.014" stroke="white" stroke-width="5.73288"/>
<line x1="223.582" y1="214.702" x2="264.668" y2="214.702" stroke="#5D7B0B" stroke-width="3.82192"/>
<circle cx="208.772" cy="244.8" r="10.988" fill="white"/>
<line x1="223.582" y1="239.545" x2="283.777" y2="239.545" stroke="white" stroke-width="5.73288"/>
<line x1="223.582" y1="246.233" x2="264.668" y2="246.233" stroke="#5D7B0B" stroke-width="3.82192"/>
<circle cx="208.772" cy="276.33" r="10.988" fill="white"/>
<line x1="223.582" y1="271.075" x2="283.777" y2="271.075" stroke="white" stroke-width="5.73288"/>
<line x1="223.582" y1="277.764" x2="264.668" y2="277.764" stroke="#5D7B0B" stroke-width="3.82192"/>
<line x1="390.791" y1="287.318" x2="390.791" y2="212.791" stroke="white" stroke-width="9.55479"/>
<path d="M172.11 66.371C173.066 76.4035 183.385 93.1244 195.997 93.1244L306.355 94.0799C309.858 93.4429 318.394 90.5446 324.509 84.0474C328.331 78.633 333.682 64.269 324.509 50.1279C319.891 44.2357 306.451 34.458 289.634 42.484C288.679 37.8659 281.99 23.3744 273.391 18.597C262.69 10.571 242.72 9.42444 230.872 18.597C224.98 21.782 213.387 31.5916 214.151 45.3505L211.285 42.484C208.578 39.936 199.628 34.9357 185.487 41.0507C177.844 43.9172 170.973 54.4275 172.11 66.371Z" fill="url(#paint3_linear_20_1329)"/>
<path d="M237.329 54.8523L234.281 58.2206C234.842 51.8875 238.917 46.4245 244.932 44.2404C246.684 43.6044 248.508 43.2821 250.356 43.2821C254.861 43.2821 259.197 45.2336 262.252 48.6364L262.753 49.1948L265.922 46.2297L265.421 45.6714C261.554 41.3641 256.065 38.8938 250.358 38.8938C248.019 38.8938 245.708 39.3016 243.493 40.1062C235.927 42.8536 230.706 49.8256 229.99 57.8417L227.285 54.8523L224.538 57.4131L232.307 66.0002L240.075 57.4139L237.329 54.8523Z" stroke="#93C704" stroke-width="1.26627" stroke-miterlimit="10" stroke-linecap="round" stroke-linejoin="round"/>
<path d="M275.315 61.3654L267.546 52.7783L259.778 61.3646L262.524 63.9262L265.559 60.5724C265.026 66.9399 260.94 72.4398 254.899 74.6335C253.148 75.2688 251.325 75.5911 249.476 75.5911C244.971 75.5911 240.634 73.6395 237.58 70.2371L237.079 69.6787L233.91 72.6434L234.411 73.2017C238.277 77.5087 243.767 79.9794 249.473 79.9794C251.814 79.9794 254.123 79.5712 256.339 78.7674C263.938 76.0085 269.174 68.9869 269.853 60.9262L272.568 63.9263L275.315 61.3654Z" stroke="#93C704" stroke-width="1.26627" stroke-miterlimit="10" stroke-linecap="round" stroke-linejoin="round"/>
<rect x="18.1541" y="201.325" width="145.233" height="36.3082" rx="3.82192" fill="url(#paint4_linear_20_1329)"/>
<line x1="27.7089" y1="219.479" x2="152.877" y2="219.479" stroke="white" stroke-width="9.55479" stroke-dasharray="24.84 8.6"/>
<rect x="18.1541" y="240.5" width="145.233" height="36.3082" rx="3.82192" fill="url(#paint5_linear_20_1329)"/>
<line x1="27.7089" y1="258.654" x2="152.877" y2="258.654" stroke="white" stroke-width="9.55479" stroke-dasharray="25.8 3.82"/>
<rect x="18.1541" y="279.675" width="145.233" height="36.3082" rx="3.82192" fill="url(#paint6_linear_20_1329)"/>
<line x1="27.7089" y1="297.829" x2="152.877" y2="297.829" stroke="white" stroke-width="9.55479" stroke-dasharray="21.98 16.24"/>
<path d="M349.705 18.3686L379.487 7.75219L391.399 37.8321L361.022 48.4485L349.705 18.3686Z" fill="url(#paint7_linear_20_1329)"/>
<path d="M379.487 7.75219L391.399 37.8321L395.568 29.5749L383.656 0.674561L379.487 7.75219Z" fill="url(#paint8_linear_20_1329)"/>
<path d="M349.705 18.3686L379.487 7.75219L383.656 0.674561L355.662 10.7012L349.705 18.3686Z" fill="url(#paint9_linear_20_1329)"/>
<path d="M437.892 268.983L495.038 303.748L460.874 363.643L402.938 327.899L437.892 268.983Z" fill="url(#paint10_linear_20_1329)"/>
<path d="M495.038 303.748L460.874 363.643L480.122 359.438L512.326 301.123L495.038 303.748Z" fill="url(#paint11_linear_20_1329)"/>
<path d="M437.892 268.983L495.038 303.748L512.326 301.123L458.531 268.508L437.892 268.983Z" fill="url(#paint12_linear_20_1329)"/>
<path d="M116.872 306.985L80.9798 328.82L102.437 366.439L138.825 343.988L116.872 306.985Z" fill="url(#paint13_linear_20_1329)"/>
<path d="M80.9798 328.82L102.437 366.439L90.348 363.798L70.1213 327.172L80.9798 328.82Z" fill="url(#paint14_linear_20_1329)"/>
<path d="M116.872 306.985L80.9798 328.82L70.1213 327.172L103.909 306.687L116.872 306.985Z" fill="url(#paint15_linear_20_1329)"/>
<defs>
<filter id="filter0_i_20_1329" x="268.012" y="32.6318" width="286.244" height="307.722" filterUnits="userSpaceOnUse" color-interpolation-filters="sRGB">
<feFlood flood-opacity="0" result="BackgroundImageFix"/>
<feBlend mode="normal" in="SourceGraphic" in2="BackgroundImageFix" result="shape"/>
<feColorMatrix in="SourceAlpha" type="matrix" values="0 0 0 0 0 0 0 0 0 0 0 0 0 0 0 0 0 0 127 0" result="hardAlpha"/>
<feOffset dx="7.17257" dy="7.17257"/>
<feGaussianBlur stdDeviation="11.9543"/>
<feComposite in2="hardAlpha" operator="arithmetic" k2="-1" k3="1"/>
<feColorMatrix type="matrix" values="0 0 0 0 0.891398 0 0 0 0 0.991667 0 0 0 0 0.61566 0 0 0 0.6 0"/>
<feBlend mode="normal" in2="shape" result="effect1_innerShadow_20_1329"/>
</filter>
<filter id="filter1_i_20_1329" x="90.7705" y="107.809" width="246.518" height="230.155" filterUnits="userSpaceOnUse" color-interpolation-filters="sRGB">
<feFlood flood-opacity="0" result="BackgroundImageFix"/>
<feBlend mode="normal" in="SourceGraphic" in2="BackgroundImageFix" result="shape"/>
<feColorMatrix in="SourceAlpha" type="matrix" values="0 0 0 0 0 0 0 0 0 0 0 0 0 0 0 0 0 0 127 0" result="hardAlpha"/>
<feOffset dx="4.78171" dy="4.78171"/>
<feGaussianBlur stdDeviation="11.9543"/>
<feComposite in2="hardAlpha" operator="arithmetic" k2="-1" k3="1"/>
<feColorMatrix type="matrix" values="0 0 0 0 0.891398 0 0 0 0 0.991667 0 0 0 0 0.61566 0 0 0 1 0"/>
<feBlend mode="normal" in2="shape" result="effect1_innerShadow_20_1329"/>
</filter>
<filter id="filter2_di_20_1329" x="389.569" y="42.3848" width="133.339" height="112.745" filterUnits="userSpaceOnUse" color-interpolation-filters="sRGB">
<feFlood flood-opacity="0" result="BackgroundImageFix"/>
<feColorMatrix in="SourceAlpha" type="matrix" values="0 0 0 0 0 0 0 0 0 0 0 0 0 0 0 0 0 0 127 0" result="hardAlpha"/>
<feOffset dx="4" dy="4"/>
<feGaussianBlur stdDeviation="5"/>
<feComposite in2="hardAlpha" operator="out"/>
<feColorMatrix type="matrix" values="0 0 0 0 0 0 0 0 0 0 0 0 0 0 0 0 0 0 0.25 0"/>
<feBlend mode="normal" in2="BackgroundImageFix" result="effect1_dropShadow_20_1329"/>
<feBlend mode="normal" in="SourceGraphic" in2="effect1_dropShadow_20_1329" result="shape"/>
<feColorMatrix in="SourceAlpha" type="matrix" values="0 0 0 0 0 0 0 0 0 0 0 0 0 0 0 0 0 0 127 0" result="hardAlpha"/>
<feOffset dx="2" dy="4"/>
<feGaussianBlur stdDeviation="5"/>
<feComposite in2="hardAlpha" operator="arithmetic" k2="-1" k3="1"/>
<feColorMatrix type="matrix" values="0 0 0 0 1 0 0 0 0 1 0 0 0 0 1 0 0 0 1 0"/>
<feBlend mode="normal" in2="shape" result="effect2_innerShadow_20_1329"/>
</filter>
<filter id="filter3_i_20_1329" x="395.569" y="48.3848" width="113.339" height="16.943" filterUnits="userSpaceOnUse" color-interpolation-filters="sRGB">
<feFlood flood-opacity="0" result="BackgroundImageFix"/>
<feBlend mode="normal" in="SourceGraphic" in2="BackgroundImageFix" result="shape"/>
<feColorMatrix in="SourceAlpha" type="matrix" values="0 0 0 0 0 0 0 0 0 0 0 0 0 0 0 0 0 0 127 0" result="hardAlpha"/>
<feOffset dy="6.04476"/>
<feGaussianBlur stdDeviation="3.02238"/>
<feComposite in2="hardAlpha" operator="arithmetic" k2="-1" k3="1"/>
<feColorMatrix type="matrix" values="0 0 0 0 0.551486 0 0 0 0 0.7375 0 0 0 0 0.0399479 0 0 0 1 0"/>
<feBlend mode="normal" in2="shape" result="effect1_innerShadow_20_1329"/>
</filter>
<filter id="filter4_di_20_1329" x="180.318" y="139.907" width="241.671" height="170.966" filterUnits="userSpaceOnUse" color-interpolation-filters="sRGB">
<feFlood flood-opacity="0" result="BackgroundImageFix"/>
<feColorMatrix in="SourceAlpha" type="matrix" values="0 0 0 0 0 0 0 0 0 0 0 0 0 0 0 0 0 0 127 0" result="hardAlpha"/>
<feOffset dx="4" dy="4"/>
<feGaussianBlur stdDeviation="5"/>
<feComposite in2="hardAlpha" operator="out"/>
<feColorMatrix type="matrix" values="0 0 0 0 0 0 0 0 0 0 0 0 0 0 0 0 0 0 0.25 0"/>
<feBlend mode="normal" in2="BackgroundImageFix" result="effect1_dropShadow_20_1329"/>
<feBlend mode="normal" in="SourceGraphic" in2="effect1_dropShadow_20_1329" result="shape"/>
<feColorMatrix in="SourceAlpha" type="matrix" values="0 0 0 0 0 0 0 0 0 0 0 0 0 0 0 0 0 0 127 0" result="hardAlpha"/>
<feOffset dx="2" dy="4"/>
<feGaussianBlur stdDeviation="5"/>
<feComposite in2="hardAlpha" operator="arithmetic" k2="-1" k3="1"/>
<feColorMatrix type="matrix" values="0 0 0 0 1 0 0 0 0 1 0 0 0 0 1 0 0 0 1 0"/>
<feBlend mode="normal" in2="shape" result="effect2_innerShadow_20_1329"/>
</filter>
<filter id="filter5_i_20_1329" x="186.318" y="145.795" width="221.671" height="29.8686" filterUnits="userSpaceOnUse" color-interpolation-filters="sRGB">
<feFlood flood-opacity="0" result="BackgroundImageFix"/>
<feBlend mode="normal" in="SourceGraphic" in2="BackgroundImageFix" result="shape"/>
<feColorMatrix in="SourceAlpha" type="matrix" values="0 0 0 0 0 0 0 0 0 0 0 0 0 0 0 0 0 0 127 0" result="hardAlpha"/>
<feOffset dy="10.6562"/>
<feGaussianBlur stdDeviation="5.32811"/>
<feComposite in2="hardAlpha" operator="arithmetic" k2="-1" k3="1"/>
<feColorMatrix type="matrix" values="0 0 0 0 0.551486 0 0 0 0 0.7375 0 0 0 0 0.0399479 0 0 0 1 0"/>
<feBlend mode="normal" in2="shape" result="effect1_innerShadow_20_1329"/>
</filter>
<linearGradient id="paint0_linear_20_1329" x1="533.646" y1="268.285" x2="275.053" y2="-106.25" gradientUnits="userSpaceOnUse">
<stop stop-color="#9ED7FF"/>
<stop offset="1" stop-color="#93C704"/>
</linearGradient>
<linearGradient id="paint1_linear_20_1329" x1="376.459" y1="448.317" x2="185.889" y2="108.406" gradientUnits="userSpaceOnUse">
<stop stop-color="#93C704"/>
<stop offset="1" stop-color="#93C704" stop-opacity="0"/>
<stop offset="1" stop-color="#E3FD9D"/>
</linearGradient>
<linearGradient id="paint2_linear_20_1329" x1="-22.4866" y1="100.284" x2="134.48" y2="35.6745" gradientUnits="userSpaceOnUse">
<stop stop-color="#93C704"/>
<stop offset="1" stop-color="white"/>
</linearGradient>
<linearGradient id="paint3_linear_20_1329" x1="273.057" y1="-53.4274" x2="249.31" y2="85.6731" gradientUnits="userSpaceOnUse">
<stop stop-color="#93C704"/>
<stop offset="1" stop-color="white"/>
</linearGradient>
<linearGradient id="paint4_linear_20_1329" x1="3.82192" y1="180.783" x2="185.794" y2="225.722" gradientUnits="userSpaceOnUse">
<stop stop-color="#C5F83A"/>
<stop offset="1" stop-color="#729A04"/>
</linearGradient>
<linearGradient id="paint5_linear_20_1329" x1="3.82191" y1="219.957" x2="185.794" y2="264.896" gradientUnits="userSpaceOnUse">
<stop stop-color="#C5F83A"/>
<stop offset="1" stop-color="#729A04"/>
</linearGradient>
<linearGradient id="paint6_linear_20_1329" x1="3.82191" y1="259.132" x2="185.794" y2="304.071" gradientUnits="userSpaceOnUse">
<stop stop-color="#C5F83A"/>
<stop offset="1" stop-color="#729A04"/>
</linearGradient>
<linearGradient id="paint7_linear_20_1329" x1="349.705" y1="18.3686" x2="390.055" y2="38.1434" gradientUnits="userSpaceOnUse">
<stop stop-color="#93C704"/>
<stop offset="0.955444" stop-color="#E0F1AF"/>
</linearGradient>
<linearGradient id="paint8_linear_20_1329" x1="378.295" y1="8.93179" x2="390.009" y2="37.9126" gradientUnits="userSpaceOnUse">
<stop stop-color="#62752D"/>
<stop offset="0.955444" stop-color="#B7DD4C"/>
</linearGradient>
<linearGradient id="paint9_linear_20_1329" x1="380.678" y1="0.674563" x2="355.85" y2="20.375" gradientUnits="userSpaceOnUse">
<stop stop-color="#7BA702"/>
<stop offset="1" stop-color="#E0F1AF"/>
</linearGradient>
<linearGradient id="paint10_linear_20_1329" x1="437.892" y1="268.983" x2="459.294" y2="361.683" gradientUnits="userSpaceOnUse">
<stop stop-color="#93C704"/>
<stop offset="0.955444" stop-color="#E0F1AF"/>
</linearGradient>
<linearGradient id="paint11_linear_20_1329" x1="491.498" y1="303.368" x2="459.294" y2="361.683" gradientUnits="userSpaceOnUse">
<stop stop-color="#62752D"/>
<stop offset="0.955444" stop-color="#B7DD4C"/>
</linearGradient>
<linearGradient id="paint12_linear_20_1329" x1="508.375" y1="296.225" x2="442.855" y2="281.151" gradientUnits="userSpaceOnUse">
<stop stop-color="#7BA702"/>
<stop offset="1" stop-color="#E0F1AF"/>
</linearGradient>
<linearGradient id="paint13_linear_20_1329" x1="116.872" y1="306.985" x2="103.43" y2="365.208" gradientUnits="userSpaceOnUse">
<stop stop-color="#93C704"/>
<stop offset="0.955444" stop-color="#E0F1AF"/>
</linearGradient>
<linearGradient id="paint14_linear_20_1329" x1="83.2031" y1="328.582" x2="103.43" y2="365.208" gradientUnits="userSpaceOnUse">
<stop stop-color="#62752D"/>
<stop offset="0.955444" stop-color="#B7DD4C"/>
</linearGradient>
<linearGradient id="paint15_linear_20_1329" x1="72.6028" y1="324.095" x2="113.755" y2="314.628" gradientUnits="userSpaceOnUse">
<stop stop-color="#7BA702"/>
<stop offset="1" stop-color="#E0F1AF"/>
</linearGradient>
</defs>
</svg>
